g traffic-light
v -0.766571045 8.45840168 0.0955945253
v -0.711656213 8.55041599 0.0945568681
v -0.0922566056 7.96573639 0.0946093574
v -0.188815162 7.91622591 0.0955678672
v -1.47862446 8.55263805 0.0952421948
v -0.711656213 8.55041599 0.0945568681
v -1.4768889 8.66267204 0.0947271809
v -0.0922566056 7.96573639 0.0946093574
v 0.0552108288 7.36357546 0.0948847905
v -0.0545296334 7.36212206 0.095286414
v 0.0541835763 1.56080222 0.0938487127
v -0.0545296334 7.36212206 0.095286414
v -0.0541831069 1.56080222 0.0938487127
v -0.0442591012 7.98900843 3.16005071E-07
v -0.0922566056 7.96573639 0.0946093574
v -0.711656213 8.55041599 0.0945568681
v -0.683307827 8.59383202 4.59759093E-07
v -0.683307827 8.59383202 4.59759093E-07
v -0.711656272 8.55041599 -0.0945549607
v -0.0922566503 7.96573639 -0.0946073383
v -0.0442591012 7.98900843 3.16005071E-07
v -0.188815132 7.91622591 -0.0955658406
v -0.0922566503 7.96573639 -0.0946073383
v -0.711656272 8.55041599 -0.0945549607
v -0.766570985 8.45840168 -0.0955926329
v -0.711656272 8.55041599 -0.0945549607
v -1.4768889 8.66267204 -0.09472505
v -1.47862446 8.55263805 -0.0952400938
v -0.237846211 7.89080763 3.10000615E-07
v -0.188815132 7.91622591 -0.0955658406
v -0.766570985 8.45840168 -0.0955926329
v -0.794168413 8.41121578 4.3580846E-07
v -0.794168413 8.41121578 4.3580846E-07
v -0.766571045 8.45840168 0.0955945253
v -0.188815162 7.91622591 0.0955678672
v -0.237846211 7.89080763 3.10000615E-07
v 0.108367369 1.56080222 -3.88785054E-07
v 0.0541835763 1.56080222 0.0938487127
v 0.0552108288 7.36357546 0.0948847905
v 0.109728545 7.36417484 1.9815711E-07
v -0.108366892 1.56080222 -3.6903927E-07
v -0.0541830882 1.56080222 -0.0938484445
v -0.0545296185 7.36212254 -0.0952844918
v -0.109716021 7.36128187 2.14033676E-07
v -0.0541831069 1.56080222 0.0938487127
v -0.108366892 1.56080222 -3.6903927E-07
v -0.109716021 7.36128187 2.14033676E-07
v -0.0545296334 7.36212206 0.095286414
v 0.0541835278 1.56080222 -0.0938484669
v 0.108367369 1.56080222 -3.88785054E-07
v 0.109728545 7.36417484 1.9815711E-07
v 0.0552107766 7.36357546 -0.0948829055
v 0.0541835278 1.56080222 -0.0938484669
v -0.0541830882 1.56080222 -0.0938484445
v -0.0876498222 1.49999988 -0.151813716
v 0.0876502693 1.49999988 -0.151813731
v -0.0541830882 1.56080222 -0.0938484445
v -0.108366892 1.56080222 -3.6903927E-07
v -0.175299615 1.49999988 -3.36340207E-07
v -0.0876498222 1.49999988 -0.151813716
v 0.0541835763 1.56080222 0.0938487127
v 0.108367369 1.56080222 -3.88785054E-07
v 0.175300092 1.49999988 -3.66990605E-07
v 0.0876502991 1.49999988 0.151814207
v 0.108367369 1.56080222 -3.88785054E-07
v 0.0541835278 1.56080222 -0.0938484669
v 0.0876502693 1.49999988 -0.151813731
v 0.175300092 1.49999988 -3.66990605E-07
v -0.0541831069 1.56080222 0.0938487127
v 0.0541835763 1.56080222 0.0938487127
v 0.0876502991 1.49999988 0.151814207
v -0.0876497924 1.49999988 0.151814222
v -0.108366892 1.56080222 -3.6903927E-07
v -0.0541831069 1.56080222 0.0938487127
v -0.0876497924 1.49999988 0.151814222
v -0.175299615 1.49999988 -3.36340207E-07
v 0.0876502991 1.49999988 0.151814207
v 0.0876502991 -2.47336356E-08 0.151813954
v -0.0876497924 -2.47336356E-08 0.151813984
v -0.0876497924 1.49999988 0.151814222
v -0.0876497924 1.49999988 0.151814222
v -0.0876497924 -2.47336356E-08 0.151813984
v -0.175299615 7.72755679E-14 -4.61511945E-07
v -0.175299615 1.49999988 -3.36340207E-07
v -0.0876498222 1.49999988 -0.151813716
v -0.0876498222 2.47336356E-08 -0.151813954
v 0.0876502693 2.47336356E-08 -0.151813984
v 0.0876502693 1.49999988 -0.151813731
v -0.175299615 1.49999988 -3.36340207E-07
v -0.175299615 7.72755679E-14 -4.61511945E-07
v -0.0876498222 2.47336356E-08 -0.151813954
v -0.0876498222 1.49999988 -0.151813716
v 0.0876502693 1.49999988 -0.151813731
v 0.0876502693 2.47336356E-08 -0.151813984
v 0.175300092 7.80976913E-14 -4.92162371E-07
v 0.175300092 1.49999988 -3.66990605E-07
v 0.175300092 1.49999988 -3.66990605E-07
v 0.175300092 7.80976913E-14 -4.92162371E-07
v 0.0876502991 -2.47336356E-08 0.151813954
v 0.0876502991 1.49999988 0.151814207
v -0.794168413 8.41121578 4.3580846E-07
v -0.766570985 8.45840168 -0.0955926329
v -1.47862446 8.55263805 -0.0952400938
v -1.47943735 8.49752998 5.46273156E-07
v -1.47943735 8.49752998 5.46273156E-07
v -1.47862446 8.55263805 0.0952421948
v -0.766571045 8.45840168 0.0955945253
v -0.794168413 8.41121578 4.3580846E-07
v -0.683307827 8.59383202 4.59759093E-07
v -0.711656213 8.55041599 0.0945568681
v -1.4768889 8.66267204 0.0947271809
v -1.47607958 8.71691322 5.82035E-07
v -1.47607958 8.71691322 5.82035E-07
v -1.4768889 8.66267204 -0.09472505
v -0.711656272 8.55041599 -0.0945549607
v -0.683307827 8.59383202 4.59759093E-07
v 0.126811996 3.22303104 0.25093475
v 0.126812145 3.05335093 0.25093472
v 0.00255228812 2.99518037 0.25093472
v 0.0025521419 3.29477215 0.25093478
v -0.121707991 3.05335093 0.25093475
v -0.121707842 3.22303057 0.25093478
v -0.18039462 2.9669323 0.25093475
v -0.0506174527 2.96693206 0.0724097937
v -0.0506175309 3.3328197 0.0724098384
v -0.180394754 3.3328197 0.250934809
v -0.0506174527 3.69870734 0.072409898
v -0.180394754 3.69870734 0.250934839
v -0.0506176054 4.06459475 0.0724099576
v -0.180394873 4.06459475 0.25093466
v -0.180394873 4.06459475 0.25093466
v -0.0506176054 4.06459475 0.0724099576
v 0.055715695 4.06459475 0.0724099427
v 0.185492918 4.06459427 0.250934869
v 0.185493037 2.96693206 0.25093472
v 0.055715695 2.96693206 0.0724097639
v -0.0506174527 2.96693206 0.0724097937
v -0.18039462 2.9669323 0.25093475
v 0.185492665 3.3328197 0.25093478
v 0.055715695 2.96693206 0.0724097639
v 0.185493037 2.96693206 0.25093472
v 0.055715695 3.3328197 0.0724098384
v 0.185492784 3.69870687 0.250934571
v 0.0557156168 3.69870687 0.072409898
v 0.185492918 4.06459427 0.250934869
v 0.055715695 4.06459475 0.0724099427
v 0.00255185645 3.66066003 0.250934839
v 0.126812294 3.58891821 0.250934809
v 0.126812294 3.41923809 0.25093478
v 0.00255200244 3.36106801 0.25093478
v -0.121708132 3.41923857 0.250934809
v -0.121707834 3.58891869 0.250934839
v 0.109728545 7.36417484 1.9815711E-07
v 0.0552108288 7.36357546 0.0948847905
v -0.0922566056 7.96573639 0.0946093574
v -0.0442591012 7.98900843 3.16005071E-07
v -0.0442591012 7.98900843 3.16005071E-07
v -0.0922566503 7.96573639 -0.0946073383
v 0.0552107766 7.36357546 -0.0948829055
v 0.109728545 7.36417484 1.9815711E-07
v -0.0545296185 7.36212254 -0.0952844918
v -0.0922566503 7.96573639 -0.0946073383
v -0.188815132 7.91622591 -0.0955658406
v 0.0552107766 7.36357546 -0.0948829055
v -0.0541830882 1.56080222 -0.0938484445
v 0.0541835278 1.56080222 -0.0938484669
v -0.0545296185 7.36212254 -0.0952844918
v -0.109716021 7.36128187 2.14033676E-07
v -0.0545296185 7.36212254 -0.0952844918
v -0.188815132 7.91622591 -0.0955658406
v -0.237846211 7.89080763 3.10000615E-07
v -0.237846211 7.89080763 3.10000615E-07
v -0.188815162 7.91622591 0.0955678672
v -0.0545296334 7.36212206 0.095286414
v -0.109716021 7.36128187 2.14033676E-07
v -1.62646484 8.32146454 0.204118878
v -1.62646461 8.1517849 0.204118848
v -1.75072455 8.09361458 0.204118848
v -1.75072467 8.3932066 0.204118893
v -1.87498486 8.1517849 0.204118863
v -1.87498474 8.32146454 0.204118893
v -1.93367147 8.06536674 0.204118863
v -1.88473821 8.06536674 0.0843759701
v -1.88473845 8.43125439 0.0843765363
v -1.93367159 8.43125439 0.204118922
v -1.88473821 8.79714203 0.0843765959
v -1.93367159 8.79714203 0.204118982
v -1.88473856 9.16302967 0.0843766555
v -1.93367171 9.16302967 0.204119042
v -1.93367171 9.16302967 0.204119042
v -1.88473856 9.16302967 0.0843766555
v -1.6167171 9.16302967 0.0843766406
v -1.56778383 9.16302872 0.204119012
v -1.56778371 8.06536674 0.204118833
v -1.6167171 8.06536674 0.0843759552
v -1.88473821 8.06536674 0.0843759701
v -1.93367147 8.06536674 0.204118863
v -1.56778407 8.43125439 0.204118893
v -1.6167171 8.06536674 0.0843759552
v -1.56778371 8.06536674 0.204118833
v -1.6167171 8.43125439 0.0843765214
v -1.56778395 8.79714108 0.204118937
v -1.61671734 8.79714108 0.0843765736
v -1.56778383 9.16302872 0.204119012
v -1.6167171 9.16302967 0.0843766406
v -1.75072491 8.75909424 0.204118967
v -1.62646449 8.68735218 0.204118922
v -1.62646449 8.51767254 0.204118907
v -1.75072479 8.45950222 0.204118907
v -1.87498498 8.51767254 0.204118922
v -1.87498462 8.68735218 0.204118967
v -1.45888472 9.20280361 -0.0935497582
v -1.45888472 8.02537727 -0.0935499519
v -1.45888472 8.02537727 0.0964772552
v -1.45888472 9.20280361 0.0964769423
v -1.52406096 9.26797962 0.0964769572
v -1.97468245 9.26797962 0.0964769945
v -1.97468245 9.26797962 -0.093549706
v -1.52406096 9.26797962 -0.0935497433
v -1.97468245 7.96020079 0.096477285
v -2.03985834 8.02537727 0.0964772999
v -2.03985834 9.20280361 0.096476987
v -1.97468245 9.26797962 0.0964769945
v -1.52406096 9.26797962 0.0964769572
v -1.52406096 7.96020079 0.0964772478
v -1.45888472 9.20280361 0.0964769423
v -1.45888472 8.02537727 0.0964772552
v -2.03985834 9.20280361 -0.0935497135
v -1.52406096 9.26797962 -0.0935497433
v -1.97468245 9.26797962 -0.093549706
v -1.45888472 9.20280361 -0.0935497582
v -2.03985834 8.02537727 -0.0935498998
v -1.45888472 8.02537727 -0.0935499519
v -2.03985834 9.20280361 -0.0935497135
v -1.97468245 9.26797962 0.0964769945
v -2.03985834 9.20280361 0.096476987
v -2.03985834 9.20280361 -0.0935497135
v -1.97468245 9.26797962 -0.093549706
v -1.97468245 7.96020079 -0.0935504213
v -2.03985834 8.02537727 -0.0935498998
v -2.03985834 8.02537727 0.0964772999
v -1.97468245 7.96020079 0.096477285
v -1.52406096 9.26797962 -0.0935497433
v -1.45888472 9.20280361 -0.0935497582
v -1.45888472 9.20280361 0.0964769423
v -1.52406096 9.26797962 0.0964769572
v -2.03985834 9.20280361 0.096476987
v -2.03985834 8.02537727 0.0964772999
v -2.03985834 8.02537727 -0.0935498998
v -2.03985834 9.20280361 -0.0935497135
v -1.52406096 7.96020079 0.0964772478
v -1.45888472 8.02537727 0.0964772552
v -1.45888472 8.02537727 -0.0935499519
v -1.52406096 7.96020079 -0.0935499519
v -1.97468245 7.96020079 -0.0935504213
v -1.52406096 7.96020079 -0.0935499519
v -1.45888472 8.02537727 -0.0935499519
v -2.03985834 8.02537727 -0.0935498998
v -1.52406096 7.96020079 0.0964772478
v -1.52406096 7.96020079 -0.0935499519
v -1.97468245 7.96020079 -0.0935504213
v -1.97468245 7.96020079 0.096477285
v -1.75072467 9.12498188 0.204119012
v -1.87498474 9.05323982 0.204119012
v -1.93367171 9.16302967 0.204119042
v -1.87498486 8.88356018 0.204118997
v -1.56778383 9.16302872 0.204119012
v -1.62646449 9.05323982 0.204118997
v -1.93367159 8.79714203 0.204118982
v -1.56778395 8.79714108 0.204118937
v -1.62646449 8.88356018 0.204118982
v -1.75072479 8.82538986 0.204118982
v -1.87498462 8.68735218 0.204118967
v -1.75072491 8.75909424 0.204118967
v -1.87498498 8.51767254 0.204118922
v -1.62646449 8.68735218 0.204118922
v -1.93367159 8.43125439 0.204118922
v -1.56778407 8.43125439 0.204118893
v -1.62646449 8.51767254 0.204118907
v -1.75072479 8.45950222 0.204118907
v -1.87498474 8.32146454 0.204118893
v -1.75072467 8.3932066 0.204118893
v -1.87498486 8.1517849 0.204118863
v -1.62646484 8.32146454 0.204118878
v -1.93367147 8.06536674 0.204118863
v -1.75072455 8.09361458 0.204118848
v -1.56778371 8.06536674 0.204118833
v -1.62646461 8.1517849 0.204118848
v 0.126812279 3.95480609 0.250934869
v 0.185492784 3.69870687 0.250934571
v 0.126812279 3.78512621 0.250934839
v 0.00255199312 3.72695541 0.250934839
v 0.185492918 4.06459427 0.250934869
v 0.00255213911 4.02654791 0.250934601
v -0.180394873 4.06459475 0.25093466
v -0.121707842 3.95480609 0.250934869
v -0.121707998 3.78512621 0.250934869
v -0.180394754 3.69870734 0.250934839
v 0.00255185645 3.66066003 0.250934839
v 0.126812294 3.58891821 0.250934809
v -0.121707834 3.58891869 0.250934839
v -0.121708132 3.41923857 0.250934809
v 0.185492665 3.3328197 0.25093478
v -0.180394754 3.3328197 0.250934809
v 0.126812294 3.41923809 0.25093478
v 0.00255200244 3.36106801 0.25093478
v 0.0025521419 3.29477215 0.25093478
v 0.126811996 3.22303104 0.25093475
v -0.121707842 3.22303057 0.25093478
v -0.121707991 3.05335093 0.25093475
v -0.18039462 2.9669323 0.25093475
v 0.00255228812 2.99518037 0.25093472
v 0.185493037 2.96693206 0.25093472
v 0.126812145 3.05335093 0.25093472
v 0.00255213911 4.02654791 0.250934601
v 0.126812279 3.95480609 0.250934869
v 0.126812279 3.78512621 0.250934839
v 0.00255199312 3.72695541 0.250934839
v -0.121707842 3.95480609 0.250934869
v -0.121707998 3.78512621 0.250934869
v -1.75072467 9.12498188 0.204119012
v -1.62646449 9.05323982 0.204118997
v -1.62646449 8.88356018 0.204118982
v -1.75072479 8.82538986 0.204118982
v -1.87498474 9.05323982 0.204119012
v -1.87498486 8.88356018 0.204118997
vt 0.439056277 0.74180603
vt 0.440098017 0.741713285
vt 0.440091997 0.733220994
vt 0.438939005 0.733271539
vt 0.438935995 0.749282479
vt 0.440098017 0.741713285
vt 0.440066159 0.749438167
vt 0.440091997 0.733220994
vt 0.440040916 0.72623682
vt 0.438674152 0.72639066
vt 0.439492315 0.646681309
vt 0.438674152 0.72639066
vt 0.438053191 0.646703959
vt 0.441210121 0.733200252
vt 0.440091997 0.733220994
vt 0.440098017 0.741713285
vt 0.441125274 0.741652191
vt 0.441125274 0.741652191
vt 0.442152709 0.741712451
vt 0.442326456 0.733264387
vt 0.441210121 0.733200252
vt 0.443473995 0.733360767
vt 0.442326456 0.733264387
vt 0.442152709 0.741712451
vt 0.443192452 0.741803885
vt 0.442152709 0.741712451
vt 0.442320347 0.749424338
vt 0.443449527 0.749253333
vt 0.437651008 0.733329773
vt 0.436374754 0.73337549
vt 0.436707407 0.741828978
vt 0.437875628 0.741859019
vt 0.437875628 0.741859019
vt 0.439056277 0.74180603
vt 0.438939005 0.733271539
vt 0.437651008 0.733329773
vt 0.44094184 0.646671772
vt 0.439492315 0.646681309
vt 0.440040916 0.72623682
vt 0.441391289 0.726169586
vt 0.436637074 0.646745682
vt 0.435303509 0.646819353
vt 0.435832918 0.726478517
vt 0.437261194 0.726497233
vt 0.438053191 0.646703959
vt 0.436637074 0.646745682
vt 0.437261194 0.726497233
vt 0.438674152 0.72639066
vt 0.44235754 0.646712124
vt 0.44094184 0.646671772
vt 0.441391289 0.726169586
vt 0.442741871 0.726259351
vt 0.44235754 0.646712124
vt 0.443710089 0.646765113
vt 0.444050342 0.645944774
vt 0.442463815 0.645872533
vt 0.435303509 0.646819353
vt 0.436637074 0.646745682
vt 0.43658179 0.645902991
vt 0.434991598 0.646008253
vt 0.439492315 0.646681309
vt 0.44094184 0.646671772
vt 0.440976232 0.645829201
vt 0.43953073 0.645843506
vt 0.44094184 0.646671772
vt 0.44235754 0.646712124
vt 0.442463815 0.645872533
vt 0.440976232 0.645829201
vt 0.438053191 0.646703959
vt 0.439492315 0.646681309
vt 0.43953073 0.645843506
vt 0.438071609 0.645863473
vt 0.436637074 0.646745682
vt 0.438053191 0.646703959
vt 0.438071609 0.645863473
vt 0.43658179 0.645902991
vt 0.43953073 0.645843506
vt 0.43943271 0.632576048
vt 0.437872678 0.632599711
vt 0.438071609 0.645863473
vt 0.438071609 0.645863473
vt 0.437872678 0.632599711
vt 0.436313003 0.632625639
vt 0.43658179 0.645902991
vt 0.444050342 0.645944774
vt 0.444112986 0.632591963
vt 0.442552477 0.632584631
vt 0.442463815 0.645872533
vt 0.43658179 0.645902991
vt 0.436313003 0.632625639
vt 0.434752285 0.632653713
vt 0.434991598 0.646008253
vt 0.442463815 0.645872533
vt 0.442552477 0.632584631
vt 0.440992862 0.632578969
vt 0.440976232 0.645829201
vt 0.440976232 0.645829201
vt 0.440992862 0.632578969
vt 0.43943271 0.632576048
vt 0.43953073 0.645843506
vt 0.437875628 0.741859019
vt 0.436707407 0.741828978
vt 0.43666482 0.749253035
vt 0.437800616 0.749198139
vt 0.437800616 0.749198139
vt 0.438935995 0.749282479
vt 0.439056277 0.74180603
vt 0.437875628 0.741859019
vt 0.441125274 0.741652191
vt 0.440098017 0.741713285
vt 0.440066159 0.749438167
vt 0.441193759 0.749522746
vt 0.441193759 0.749522746
vt 0.442320347 0.749424338
vt 0.442152709 0.741712451
vt 0.441125274 0.741652191
vt 0.0901740491 0.0716101527
vt 0.0901740491 0.0697255731
vt 0.0887939334 0.0690795183
vt 0.0887939334 0.0724069476
vt 0.0874138176 0.0697255731
vt 0.0874138474 0.0716101527
vt 0.0391015112 0.669625044
vt 0.036650151 0.669625044
vt 0.036650151 0.673688769
vt 0.0391015112 0.673688769
vt 0.036650151 0.677752495
vt 0.0391015112 0.677752614
vt 0.036650151 0.681816339
vt 0.0391015112 0.681816339
vt 0.0391015112 0.681816339
vt 0.0405429006 0.683799148
vt 0.041723907 0.683799148
vt 0.0431652963 0.681816339
vt 0.0431652963 0.669624925
vt 0.041723907 0.667642236
vt 0.0405428708 0.667642236
vt 0.0391015112 0.669625044
vt 0.0431652963 0.673688769
vt 0.0456166565 0.669624925
vt 0.0431652963 0.669624925
vt 0.0456166565 0.673688769
vt 0.0431652963 0.677752614
vt 0.0456166565 0.677752495
vt 0.0431652963 0.681816339
vt 0.0456166565 0.681816339
vt 0.0915723741 0.0724069476
vt 0.0929524899 0.0716101527
vt 0.0929524899 0.0697255731
vt 0.0915723741 0.0690795183
vt 0.0901922584 0.0697255731
vt 0.0901922584 0.0716101527
vt 0.441391289 0.726169586
vt 0.440040916 0.72623682
vt 0.440091997 0.733220994
vt 0.441210121 0.733200252
vt 0.441210121 0.733200252
vt 0.442326456 0.733264387
vt 0.442741871 0.726259351
vt 0.441391289 0.726169586
vt 0.444112986 0.7264359
vt 0.442326456 0.733264387
vt 0.443473995 0.733360767
vt 0.442741871 0.726259351
vt 0.443710089 0.646765113
vt 0.44235754 0.646712124
vt 0.444112986 0.7264359
vt 0.437261194 0.726497233
vt 0.435832918 0.726478517
vt 0.436374754 0.73337549
vt 0.437651008 0.733329773
vt 0.437651008 0.733329773
vt 0.438939005 0.733271539
vt 0.438674152 0.72639066
vt 0.437261194 0.726497233
vt 0.0957309008 0.0682644844
vt 0.0957309008 0.0663799047
vt 0.094350785 0.06573385
vt 0.094350785 0.0690612793
vt 0.0929706693 0.0663799047
vt 0.0929706693 0.0682644844
vt 0.0501714349 0.685254097
vt 0.0501714349 0.683817387
vt 0.0461076498 0.683817387
vt 0.0461076498 0.685254097
vt 0.0420438945 0.683817387
vt 0.0420438647 0.685254097
vt 0.0379800797 0.683817387
vt 0.0379801095 0.685254097
vt 0.0379801095 0.685254097
vt 0.036650151 0.685797453
vt 0.036650151 0.688774347
vt 0.0379801393 0.689317822
vt 0.0501714349 0.689317822
vt 0.0515013635 0.688774347
vt 0.0515013635 0.685797572
vt 0.0501714349 0.685254097
vt 0.0461076498 0.689317822
vt 0.0501714349 0.690754533
vt 0.0501714349 0.689317822
vt 0.0461076498 0.690754533
vt 0.0420438945 0.689317822
vt 0.0420438945 0.690754533
vt 0.0379801393 0.689317822
vt 0.0379801095 0.690754533
vt 0.0860155225 0.0690612793
vt 0.0873956382 0.0682644844
vt 0.0873956382 0.0663799047
vt 0.0860155225 0.06573385
vt 0.0846354067 0.0663799047
vt 0.0846354067 0.0682644844
vt 0.451286077 0.651970506
vt 0.451580435 0.664309084
vt 0.453119457 0.664985657
vt 0.452790797 0.651222765
vt 0.451455951 0.64998883
vt 0.445557266 0.649694979
vt 0.446177393 0.651177704
vt 0.450760484 0.651629686
vt 0.44641012 0.632576048
vt 0.445514411 0.633386731
vt 0.444746584 0.6487993
vt 0.445557266 0.649694979
vt 0.451455951 0.64998883
vt 0.452308774 0.632869899
vt 0.45235163 0.649178207
vt 0.453119457 0.633765578
vt 0.445702612 0.651814759
vt 0.450760484 0.651629686
vt 0.446177393 0.651177704
vt 0.451286077 0.651970506
vt 0.446011931 0.664732456
vt 0.451580435 0.664309084
vt 0.445702612 0.651814759
vt 0.445557266 0.649694979
vt 0.444131166 0.651063323
vt 0.445702612 0.651814759
vt 0.446177393 0.651177704
vt 0.446513981 0.665347219
vt 0.446011931 0.664732456
vt 0.444477081 0.665557802
vt 0.445965618 0.666857243
vt 0.450760484 0.651629686
vt 0.451286077 0.651970506
vt 0.452790797 0.651222765
vt 0.451455951 0.64998883
vt 0.444131166 0.651063323
vt 0.444477081 0.665557802
vt 0.446011931 0.664732456
vt 0.445702612 0.651814759
vt 0.451844215 0.666283727
vt 0.453119457 0.664985657
vt 0.451580435 0.664309084
vt 0.451070458 0.66467911
vt 0.446513981 0.665347219
vt 0.451070458 0.66467911
vt 0.451580435 0.664309084
vt 0.446011931 0.664732456
vt 0.451844215 0.666283727
vt 0.451070458 0.66467911
vt 0.446513981 0.665347219
vt 0.445965618 0.666857243
vt 0.0384026766 0.6872859
vt 0.0391995013 0.685905814
vt 0.0379801095 0.685254097
vt 0.0410840511 0.685905814
vt 0.0379801393 0.689317822
vt 0.0391995013 0.688666105
vt 0.0420438647 0.685254097
vt 0.0420438945 0.689317822
vt 0.0410840511 0.688666105
vt 0.0417301357 0.6872859
vt 0.0432632864 0.685905814
vt 0.0424664617 0.6872859
vt 0.0451478362 0.685905814
vt 0.0432632864 0.688666105
vt 0.0461076498 0.685254097
vt 0.0461076498 0.689317822
vt 0.0451478362 0.688666105
vt 0.0457939208 0.6872859
vt 0.0473270416 0.685905814
vt 0.0465302765 0.6872859
vt 0.0492116213 0.685905814
vt 0.0473270416 0.688666105
vt 0.0501714349 0.685254097
vt 0.0498577058 0.6872859
vt 0.0501714349 0.689317822
vt 0.0492116213 0.688666105
vt 0.0425135493 0.680596948
vt 0.0431652963 0.677752614
vt 0.0425135493 0.678712368
vt 0.0411334336 0.678066254
vt 0.0431652963 0.681816339
vt 0.0411334336 0.681393743
vt 0.0391015112 0.681816339
vt 0.0397533178 0.680596948
vt 0.0397533178 0.678712368
vt 0.0391015112 0.677752614
vt 0.0411334336 0.677330017
vt 0.0425135493 0.676533103
vt 0.0397533178 0.676533103
vt 0.0397533178 0.674648523
vt 0.0431652963 0.673688769
vt 0.0391015112 0.673688769
vt 0.0425135493 0.674648523
vt 0.0411334336 0.674002528
vt 0.0411334336 0.673266172
vt 0.0425135493 0.672469378
vt 0.0397533178 0.672469378
vt 0.0397533178 0.670584798
vt 0.0391015112 0.669625044
vt 0.0411334336 0.669938684
vt 0.0431652963 0.669624925
vt 0.0425135493 0.670584798
vt 0.460074633 0.659034014
vt 0.461454749 0.658237219
vt 0.461454749 0.656352639
vt 0.460074633 0.655706584
vt 0.458694518 0.658237219
vt 0.458694518 0.656352639
vt 0.457296193 0.659034014
vt 0.458676308 0.658237219
vt 0.458676308 0.656352639
vt 0.457296193 0.655706584
vt 0.455916077 0.658237219
vt 0.455916077 0.656352639
vn 0.00660254946 0.00703737605 0.999953508
vn 0.00660254946 0.00703737605 0.999953508
vn 0.00660254946 0.00703737605 0.999953508
vn 0.00660254946 0.00703737605 0.999953508
vn 0.000915044278 0.00742786517 0.999971986
vn 0.000915044278 0.00742786517 0.999971986
vn 0.000915044278 0.00742786517 0.999971986
vn 0.00621975213 0.00151038088 0.999979496
vn 0.001842823 -0.000213289124 0.999998331
vn 0.00621975213 0.00151038088 0.999979496
vn 0.001842823 -0.000213289124 0.999998331
vn 0.001842823 -0.000213289124 0.999998331
vn 0.001842823 -0.000213289124 0.999998331
vn 0.606068909 0.641217887 0.470659196
vn 0.606068909 0.641217887 0.470659196
vn 0.606068909 0.641217887 0.470659196
vn 0.606068909 0.641217887 0.470659196
vn 0.606067657 0.641215682 -0.470663756
vn 0.606067657 0.641215682 -0.470663756
vn 0.606067657 0.641215682 -0.470663756
vn 0.606067657 0.641215682 -0.470663756
vn 0.00660268264 0.00703729084 -0.999953508
vn 0.00660268264 0.00703729084 -0.999953508
vn 0.00660268264 0.00703729084 -0.999953508
vn 0.00660268264 0.00703729084 -0.999953508
vn 0.000914796779 0.00742815481 -0.999971986
vn 0.000914796779 0.00742815481 -0.999971986
vn 0.000914796779 0.00742815481 -0.999971986
vn -0.598775208 -0.639075279 -0.482753694
vn -0.598775208 -0.639075279 -0.482753694
vn -0.598775208 -0.639075279 -0.482753694
vn -0.598775208 -0.639075279 -0.482753694
vn -0.598777354 -0.639077067 0.482748568
vn -0.598777354 -0.639077067 0.482748568
vn -0.598777354 -0.639077067 0.482748568
vn -0.598777354 -0.639077067 0.482748568
vn 0.866550028 -0.000222906514 0.499090225
vn 0.866550028 -0.000222906514 0.499090225
vn 0.866550028 -0.000222906514 0.499090225
vn 0.866550028 -0.000222906514 0.499090225
vn -0.865679204 -0.000188460923 -0.500599086
vn -0.865679204 -0.000188460923 -0.500599086
vn -0.865679204 -0.000188460923 -0.500599086
vn -0.865679204 -0.000188460923 -0.500599086
vn -0.865682244 -0.000188582839 0.50059396
vn -0.865682244 -0.000188582839 0.50059396
vn -0.865682244 -0.000188582839 0.50059396
vn -0.865682244 -0.000188582839 0.50059396
vn 0.866546988 -0.000222784452 -0.4990955
vn 0.866546988 -0.000222784452 -0.4990955
vn 0.866546988 -0.000222784452 -0.4990955
vn 0.866546988 -0.000222784452 -0.4990955
vn -0 0.690018773 -0.72379148
vn -0 0.690018773 -0.72379148
vn -0 0.690018773 -0.72379148
vn -0 0.690018773 -0.72379148
vn -0.626819849 0.690020204 -0.361896306
vn -0.626819849 0.690020204 -0.361896306
vn -0.626819849 0.690020204 -0.361896306
vn -0.626819849 0.690020204 -0.361896306
vn 0.626819372 0.690021753 0.36189428
vn 0.626819372 0.690021753 0.36189428
vn 0.626819372 0.690021753 0.36189428
vn 0.626819372 0.690021753 0.36189428
vn 0.626819551 0.690020382 -0.361896545
vn 0.626819551 0.690020382 -0.361896545
vn 0.626819551 0.690020382 -0.361896545
vn 0.626819551 0.690020382 -0.361896545
vn -0 0.690020382 0.72378993
vn -0 0.690020382 0.72378993
vn -0 0.690020382 0.72378993
vn -0 0.690020382 0.72378993
vn -0.626820326 0.690020919 0.361893982
vn -0.626820326 0.690020919 0.361893982
vn -0.626820326 0.690020919 0.361893982
vn -0.626820326 0.690020919 0.361893982
vn -0 0 1
vn -0 0 1
vn -0 0 1
vn -0 0 1
vn -0.866026223 0 0.499998659
vn -0.866026223 0 0.499998659
vn -0.866026223 0 0.499998659
vn -0.866026223 0 0.499998659
vn -0 0 -1
vn -0 0 -1
vn -0 0 -1
vn -0 0 -1
vn -0.866024733 0 -0.500001192
vn -0.866024733 0 -0.500001192
vn -0.866024733 0 -0.500001192
vn -0.866024733 0 -0.500001192
vn 0.866024613 0 -0.500001311
vn 0.866024613 0 -0.500001311
vn 0.866024613 0 -0.500001311
vn 0.866024613 0 -0.500001311
vn 0.866026342 0 0.49999851
vn 0.866026342 0 0.49999851
vn 0.866026342 0 0.49999851
vn 0.866026342 0 0.49999851
vn -0.112369746 -0.868717015 -0.482393682
vn -0.112369746 -0.868717015 -0.482393682
vn -0.112369746 -0.868717015 -0.482393682
vn -0.112369746 -0.868717015 -0.482393682
vn -0.112370543 -0.868719101 0.482389718
vn -0.112370543 -0.868719101 0.482389718
vn -0.112370543 -0.868719101 0.482389718
vn -0.112370543 -0.868719101 0.482389718
vn 0.131845072 0.872512221 0.47046724
vn 0.131845072 0.872512221 0.47046724
vn 0.131845072 0.872512221 0.47046724
vn 0.131845072 0.872512221 0.47046724
vn 0.131843537 0.872510374 -0.470471025
vn 0.131843537 0.872510374 -0.470471025
vn 0.131843537 0.872510374 -0.470471025
vn 0.131843537 0.872510374 -0.470471025
vn -0 0 1
vn -0 0 1
vn -0 0 1
vn -0 0 1
vn -0 0 1
vn -0 0 1
vn -0.808863699 0 -0.587996185
vn -0.808863699 0 -0.587996185
vn -0.808863699 0 -0.587996185
vn -0.808863699 0 -0.587996185
vn -0.808863223 0 -0.587996781
vn -0.808863223 0 -0.587996781
vn -0.808863223 0 -0.587996781
vn -0.808863223 0 -0.587996781
vn -0 1 0
vn -0 1 0
vn -0 1 0
vn -0 1 0
vn -0 -1 0
vn -0 -1 0
vn -0 -1 0
vn -0 -1 0
vn 0.808863461 0 -0.587996423
vn 0.80886358 0 -0.587996304
vn 0.80886358 0 -0.587996304
vn 0.808863461 0 -0.587996423
vn 0.808863461 0 -0.587996423
vn 0.808863461 0 -0.587996423
vn 0.808863223 0 -0.587996781
vn 0.808863223 0 -0.587996781
vn -0 0 1
vn -0 0 1
vn -0 0 1
vn -0 0 1
vn -0 0 1
vn -0 0 1
vn 0.848932624 0.20867978 0.485557616
vn 0.848932624 0.20867978 0.485557616
vn 0.848932624 0.20867978 0.485557616
vn 0.848932624 0.20867978 0.485557616
vn 0.848929167 0.208679289 -0.485563934
vn 0.848929167 0.208679289 -0.485563934
vn 0.848929167 0.208679289 -0.485563934
vn 0.848929167 0.208679289 -0.485563934
vn 0.00621950766 0.00151051581 -0.999979496
vn 0.00621950766 0.00151051581 -0.999979496
vn 0.00621950766 0.00151051581 -0.999979496
vn 0.00621950766 0.00151051581 -0.999979496
vn 0.00184254849 -0.000213005726 -0.999998331
vn 0.00184254849 -0.000213005726 -0.999998331
vn 0.00184254849 -0.000213005726 -0.999998331
vn -0.846840978 -0.205201387 -0.490665466
vn -0.846840978 -0.205201387 -0.490665466
vn -0.846840978 -0.205201387 -0.490665466
vn -0.846840978 -0.205201387 -0.490665466
vn -0.846844077 -0.205202401 0.490659744
vn -0.846844077 -0.205202401 0.490659744
vn -0.846844077 -0.205202401 0.490659744
vn -0.846844077 -0.205202401 0.490659744
vn -0 0 1
vn -0 0 1
vn -0 0 1
vn -0 0 1
vn -0 0 1
vn -0 0 1
vn -0.925688863 0 -0.378285885
vn -0.925688863 0 -0.378285885
vn -0.925688863 0 -0.378285885
vn -0.925688863 0 -0.378285885
vn -0.925688505 0 -0.37828666
vn -0.925688505 0 -0.37828666
vn -0.925688505 0 -0.37828666
vn -0.925688505 0 -0.37828666
vn -0 1 0
vn -0 1 0
vn -0 1 0
vn -0 1 0
vn -0 -1 0
vn -0 -1 0
vn -0 -1 0
vn -0 -1 0
vn 0.925689161 0 -0.37828517
vn 0.925688446 0 -0.378286958
vn 0.925688446 0 -0.378286958
vn 0.925689161 0 -0.37828517
vn 0.925689161 0 -0.37828517
vn 0.925689161 0 -0.37828517
vn 0.925687492 0 -0.378288984
vn 0.925687492 0 -0.378288984
vn -0 0 1
vn -0 0 1
vn -0 0 1
vn -0 0 1
vn -0 0 1
vn -0 0 1
vn 1 0 0
vn 1 0 0
vn 1 0 0
vn 1 0 0
vn -0 1 0
vn -0 1 0
vn -0 1 0
vn -0 1 0
vn -0 0 1
vn -0 0 1
vn -0 0 1
vn -0 0 1
vn -0 0 1
vn -0 0 1
vn -0 0 1
vn -0 0 1
vn -0 0 -1
vn -0 0 -1
vn -0 0 -1
vn -0 0 -1
vn -0 0 -1
vn -0 0 -1
vn -0 0 -1
vn -0.707105935 0.707107604 0
vn -0.707105935 0.707107604 0
vn -0.707105935 0.707107604 0
vn -0.707105935 0.707107604 0
vn -0.707111359 -0.70710218 0
vn -0.707111359 -0.70710218 0
vn -0.707111359 -0.70710218 0
vn -0.707111359 -0.70710218 0
vn 0.707103968 0.707109511 0
vn 0.707103968 0.707109511 0
vn 0.707103968 0.707109511 0
vn 0.707103968 0.707109511 0
vn -1 0 0
vn -1 0 0
vn -1 0 0
vn -1 0 0
vn 0.707106411 -0.707107067 0
vn 0.707106411 -0.707107067 0
vn 0.707106411 -0.707107067 0
vn 0.707106411 -0.707107067 0
vn -0 0 -1
vn -0 0 -1
vn -0 0 -1
vn -0 0 -1
vn -0 -1 0
vn -0 -1 0
vn -0 -1 0
vn -0 -1 0
vn -0 0 1
vn -0 0 1
vn -0 0 1
vn -0 0 1
vn -0 0 1
vn -0 0 1
vn -0 0 1
vn -0 0 1
vn -0 0 1
vn -0 0 1
vn -0 0 1
vn -0 0 1
vn -0 0 1
vn -0 0 1
vn -0 0 1
vn -0 0 1
vn -0 0 1
vn -0 0 1
vn -0 0 1
vn -0 0 1
vn -0 0 1
vn -0 0 1
vn -0 0 1
vn -0 0 1
vn -0 0 1
vn -0 0 1
vn -0 0 1
vn -0 0 1
vn -0 0 1
vn -0 0 1
vn -0 0 1
vn -0 0 1
vn -0 0 1
vn -0 0 1
vn -0 0 1
vn -0 0 1
vn -0 0 1
vn -0 0 1
vn -0 0 1
vn -0 0 1
vn -0 0 1
vn -0 0 1
vn -0 0 1
vn -0 0 1
vn -0 0 1
vn -0 0 1
vn -0 0 1
vn -0 0 1
vn -0 0 1
vn -0 0 1
vn -0 0 1
vn -0 0 1
vn -0 0 1
vn -0 0 1
vn -0 0 1
vn -0 0 1
vn -0 0 1
vn -0 0 1
vn -0 0 1
vn -0 0 1
vn -0 0 1
vn -0 0 1
vn -0 0 1
vn -0 0 1
g traffic-light_0
f 3/3/3 2/2/2 1/1/1
f 4/4/4 3/3/3 1/1/1
f 1/1/1 6/6/6 5/5/5
f 6/6/6 7/7/7 5/5/5
f 9/9/9 8/8/8 4/4/4
f 10/10/10 9/9/9 4/4/4
f 9/9/9 12/12/12 11/11/11
f 12/12/12 13/13/13 11/11/11
f 16/16/16 15/15/15 14/14/14
f 17/17/17 16/16/16 14/14/14
f 20/20/20 19/19/19 18/18/18
f 21/21/21 20/20/20 18/18/18
f 24/24/24 23/23/23 22/22/22
f 25/25/25 24/24/24 22/22/22
f 27/27/27 26/26/26 25/25/25
f 28/28/28 27/27/27 25/25/25
f 31/31/31 30/30/30 29/29/29
f 32/32/32 31/31/31 29/29/29
f 35/35/35 34/34/34 33/33/33
f 36/36/36 35/35/35 33/33/33
f 39/39/39 38/38/38 37/37/37
f 40/40/40 39/39/39 37/37/37
f 43/43/43 42/42/42 41/41/41
f 44/44/44 43/43/43 41/41/41
f 47/47/47 46/46/46 45/45/45
f 48/48/48 47/47/47 45/45/45
f 51/51/51 50/50/50 49/49/49
f 52/52/52 51/51/51 49/49/49
f 55/55/55 54/54/54 53/53/53
f 56/56/56 55/55/55 53/53/53
f 59/59/59 58/58/58 57/57/57
f 60/60/60 59/59/59 57/57/57
f 63/63/63 62/62/62 61/61/61
f 64/64/64 63/63/63 61/61/61
f 67/67/67 66/66/66 65/65/65
f 68/68/68 67/67/67 65/65/65
f 71/71/71 70/70/70 69/69/69
f 72/72/72 71/71/71 69/69/69
f 75/75/75 74/74/74 73/73/73
f 76/76/76 75/75/75 73/73/73
f 79/79/79 78/78/78 77/77/77
f 80/80/80 79/79/79 77/77/77
f 83/83/83 82/82/82 81/81/81
f 84/84/84 83/83/83 81/81/81
f 87/87/87 86/86/86 85/85/85
f 88/88/88 87/87/87 85/85/85
f 91/91/91 90/90/90 89/89/89
f 92/92/92 91/91/91 89/89/89
f 95/95/95 94/94/94 93/93/93
f 96/96/96 95/95/95 93/93/93
f 99/99/99 98/98/98 97/97/97
f 100/100/100 99/99/99 97/97/97
f 103/103/103 102/102/102 101/101/101
f 104/104/104 103/103/103 101/101/101
f 107/107/107 106/106/106 105/105/105
f 108/108/108 107/107/107 105/105/105
f 111/111/111 110/110/110 109/109/109
f 112/112/112 111/111/111 109/109/109
f 115/115/115 114/114/114 113/113/113
f 116/116/116 115/115/115 113/113/113
f 119/119/119 118/118/118 117/117/117
f 117/117/117 120/120/120 119/119/119
f 120/120/120 121/121/121 119/119/119
f 120/120/120 122/122/122 121/121/121
f 125/125/125 124/124/124 123/123/123
f 126/126/126 125/125/125 123/123/123
f 127/127/127 125/125/125 126/126/126
f 128/128/128 127/127/127 126/126/126
f 129/129/129 127/127/127 128/128/128
f 130/130/130 129/129/129 128/128/128
f 133/133/133 132/132/132 131/131/131
f 134/134/134 133/133/133 131/131/131
f 137/137/137 136/136/136 135/135/135
f 138/138/138 137/137/137 135/135/135
f 141/141/141 140/140/140 139/139/139
f 140/140/140 142/142/142 139/139/139
f 139/139/139 142/142/142 143/143/143
f 142/142/142 144/144/144 143/143/143
f 143/143/143 144/144/144 145/145/145
f 144/144/144 146/146/146 145/145/145
f 149/149/149 148/148/148 147/147/147
f 147/147/147 150/150/150 149/149/149
f 147/147/147 151/151/151 150/150/150
f 147/147/147 152/152/152 151/151/151
f 155/155/155 154/154/154 153/153/153
f 156/156/156 155/155/155 153/153/153
f 159/159/159 158/158/158 157/157/157
f 160/160/160 159/159/159 157/157/157
f 163/163/163 162/162/162 161/161/161
f 162/162/162 164/164/164 161/161/161
f 164/164/164 166/166/166 165/165/165
f 167/167/167 164/164/164 165/165/165
f 170/170/170 169/169/169 168/168/168
f 171/171/171 170/170/170 168/168/168
f 174/174/174 173/173/173 172/172/172
f 175/175/175 174/174/174 172/172/172
f 178/178/178 177/177/177 176/176/176
f 176/176/176 179/179/179 178/178/178
f 179/179/179 180/180/180 178/178/178
f 179/179/179 181/181/181 180/180/180
f 184/184/184 183/183/183 182/182/182
f 185/185/185 184/184/184 182/182/182
f 186/186/186 184/184/184 185/185/185
f 187/187/187 186/186/186 185/185/185
f 188/188/188 186/186/186 187/187/187
f 189/189/189 188/188/188 187/187/187
f 192/192/192 191/191/191 190/190/190
f 193/193/193 192/192/192 190/190/190
f 196/196/196 195/195/195 194/194/194
f 197/197/197 196/196/196 194/194/194
f 200/200/200 199/199/199 198/198/198
f 199/199/199 201/201/201 198/198/198
f 198/198/198 201/201/201 202/202/202
f 201/201/201 203/203/203 202/202/202
f 202/202/202 203/203/203 204/204/204
f 203/203/203 205/205/205 204/204/204
f 208/208/208 207/207/207 206/206/206
f 206/206/206 209/209/209 208/208/208
f 206/206/206 210/210/210 209/209/209
f 206/206/206 211/211/211 210/210/210
f 214/214/214 213/213/213 212/212/212
f 215/215/215 214/214/214 212/212/212
f 218/218/218 217/217/217 216/216/216
f 219/219/219 218/218/218 216/216/216
f 222/222/222 221/221/221 220/220/220
f 223/223/223 222/222/222 220/220/220
f 223/223/223 220/220/220 224/224/224
f 220/220/220 225/225/225 224/224/224
f 224/224/224 225/225/225 226/226/226
f 225/225/225 227/227/227 226/226/226
f 230/230/230 229/229/229 228/228/228
f 229/229/229 231/231/231 228/228/228
f 231/231/231 233/233/233 232/232/232
f 234/234/234 231/231/231 232/232/232
f 237/237/237 236/236/236 235/235/235
f 238/238/238 237/237/237 235/235/235
f 241/241/241 240/240/240 239/239/239
f 242/242/242 241/241/241 239/239/239
f 245/245/245 244/244/244 243/243/243
f 246/246/246 245/245/245 243/243/243
f 249/249/249 248/248/248 247/247/247
f 250/250/250 249/249/249 247/247/247
f 253/253/253 252/252/252 251/251/251
f 254/254/254 253/253/253 251/251/251
f 257/257/257 256/256/256 255/255/255
f 258/258/258 257/257/257 255/255/255
f 261/261/261 260/260/260 259/259/259
f 262/262/262 261/261/261 259/259/259
f 265/265/265 264/264/264 263/263/263
f 264/264/264 265/265/265 266/266/266
f 265/265/265 263/263/263 267/267/267
f 267/267/267 263/263/263 268/268/268
f 265/265/265 269/269/269 266/266/266
f 270/270/270 267/267/267 268/268/268
f 271/271/271 270/270/270 268/268/268
f 272/272/272 266/266/266 269/269/269
f 270/270/270 271/271/271 272/272/272
f 269/269/269 273/273/273 272/272/272
f 273/273/273 274/274/274 272/272/272
f 272/272/272 274/274/274 270/270/270
f 273/273/273 269/269/269 275/275/275
f 274/274/274 276/276/276 270/270/270
f 269/269/269 277/277/277 275/275/275
f 278/278/278 270/270/270 276/276/276
f 279/279/279 278/278/278 276/276/276
f 277/277/277 280/280/280 275/275/275
f 278/278/278 279/279/279 280/280/280
f 277/277/277 281/281/281 280/280/280
f 281/281/281 282/282/282 280/280/280
f 280/280/280 282/282/282 278/278/278
f 281/281/281 277/277/277 283/283/283
f 282/282/282 284/284/284 278/278/278
f 277/277/277 285/285/285 283/283/283
f 285/285/285 286/286/286 283/283/283
f 287/287/287 278/278/278 284/284/284
f 287/287/287 286/286/286 285/285/285
f 288/288/288 287/287/287 284/284/284
f 287/287/287 288/288/288 286/286/286
f 291/291/291 290/290/290 289/289/289
f 290/290/290 291/291/291 292/292/292
f 290/290/290 293/293/293 289/289/289
f 293/293/293 294/294/294 289/289/289
f 295/295/295 294/294/294 293/293/293
f 295/295/295 296/296/296 294/294/294
f 296/296/296 295/295/295 297/297/297
f 295/295/295 298/298/298 297/297/297
f 298/298/298 292/292/292 297/297/297
f 292/292/292 299/299/299 290/290/290
f 298/298/298 299/299/299 292/292/292
f 290/290/290 299/299/299 300/300/300
f 298/298/298 301/301/301 299/299/299
f 301/301/301 298/298/298 302/302/302
f 303/303/303 290/290/290 300/300/300
f 298/298/298 304/304/304 302/302/302
f 305/305/305 303/303/303 300/300/300
f 304/304/304 306/306/306 302/302/302
f 303/303/303 305/305/305 306/306/306
f 306/306/306 307/307/307 303/303/303
f 304/304/304 307/307/307 306/306/306
f 303/303/303 307/307/307 308/308/308
f 304/304/304 309/309/309 307/307/307
f 309/309/309 304/304/304 310/310/310
f 304/304/304 311/311/311 310/310/310
f 311/311/311 312/312/312 310/310/310
f 313/313/313 303/303/303 308/308/308
f 313/313/313 312/312/312 311/311/311
f 314/314/314 313/313/313 308/308/308
f 313/313/313 314/314/314 312/312/312
g traffic-light_1
f 317/317/317 316/316/316 315/315/315
f 315/315/315 318/318/318 317/317/317
f 315/315/315 319/319/319 318/318/318
f 319/319/319 320/320/320 318/318/318
f 323/323/323 322/322/322 321/321/321
f 321/321/321 324/324/324 323/323/323
f 321/321/321 325/325/325 324/324/324
f 325/325/325 326/326/326 324/324/324
