g trznice_LP
v -40.4250107 -0.600000858 -9.42500401
v -39.7250061 -1.1920929E-07 -9.42500401
v -39.7250061 -4.76837158E-07 -9.32500267
v -40.4250031 11.1999969 -9.42500114
v -40.4250107 -0.600000858 -9.42500401
v -39.7250061 11.1999969 -9.42500114
v 46.5750122 -0.600000858 -9.42500401
v -39.7250061 -1.1920929E-07 -9.42500401
v 45.8750114 -1.1920929E-07 -9.42500305
v 45.8750114 11.1999969 -9.42500114
v 46.575016 11.1999969 -9.42500114
v -21.7750015 0 9.42500114
v -24.6000061 0 9.42500019
v -27.4250031 0 9.42500114
v 46.5750122 -0.600000858 9.52500057
v 45.8750114 -4.76837158E-07 9.52500057
v 45.8750076 -4.76837158E-07 9.42500305
v -40.6250076 11.1999989 -9.625
v 46.7750168 11.1999989 -9.625
v 46.7750168 11.5999994 -9.625
v -40.6250076 11.5999994 -9.625
v 9.47499275 11.1999989 9.72499752
v 9.47499275 11.3999987 9.72499752
v 46.7750168 11.1999989 9.72499752
v 46.7750168 11.5999994 9.72499752
v 9.47499275 11.5999994 9.72499752
v 46.7750168 11.1999989 -9.625
v 46.7750168 11.1999989 9.72499752
v 46.7750168 11.5999994 9.72499752
v 46.7750168 11.5999994 -9.625
v -40.6250076 11.1999989 9.72499752
v -1.47499275 11.3999987 9.72499752
v -1.47499275 11.1999989 9.72499752
v -40.6250076 11.5999994 9.72499752
v -1.47499275 11.5999994 9.72499752
v -1.47499275 11.3999987 9.72499752
v -1.47499275 11.5999994 9.72499752
v -1.47499275 11.5999994 9.12500095
v -1.47499275 11.499999 9.12500095
v 3.56331253 13.7999992 -3.31466484
v 3.56331253 13.7999992 -7.81466484
v 8.56331253 13.7999992 -7.81466484
v 8.56331253 13.7999992 -3.31466484
v 8.56331253 11.499999 -3.31466484
v 8.56331253 13.7999992 -3.31466484
v 8.56331253 13.7999992 -7.81466484
v 8.56331253 11.499999 -7.81466484
v 3.56331253 11.499999 -3.31466484
v 3.56331253 13.7999992 -3.31466484
v 8.56331253 13.7999992 -3.31466484
v 8.56331253 11.499999 -3.31466484
v 3.56331253 11.499999 -7.81466484
v 3.56331253 13.7999992 -7.81466484
v 3.56331253 13.7999992 -3.31466484
v 3.56331253 11.499999 -3.31466484
v 8.56331253 11.499999 -7.81466484
v 8.56331253 13.7999992 -7.81466484
v 3.56331253 13.7999992 -7.81466484
v 3.56331253 11.499999 -7.81466484
v -15.6766024 11.499999 2.86678553
v -15.6766024 13.7999992 2.86678553
v -15.6766024 13.7999992 -1.63321447
v -15.6766024 11.499999 -1.63321447
v -19.4266014 11.499999 2.86678553
v -19.4266014 13.7999992 2.86678553
v -15.6766024 13.7999992 2.86678553
v -15.6766024 11.499999 2.86678553
v -19.4266014 11.499999 -1.63321447
v -19.4266014 13.7999992 -1.63321447
v -19.4266014 13.7999992 2.86678553
v -19.4266014 11.499999 2.86678553
v -15.6766024 11.499999 -1.63321447
v -15.6766024 13.7999992 -1.63321447
v -19.4266014 13.7999992 -1.63321447
v -19.4266014 11.499999 -1.63321447
v 35.0733986 11.499999 2.86678553
v 35.0733986 13.7999992 2.86678553
v 35.0733986 13.7999992 -1.63321447
v 35.0733986 11.499999 -1.63321447
v 25.0733986 11.499999 2.86678553
v 25.0733986 13.7999992 2.86678553
v 35.0733986 13.7999992 2.86678553
v 35.0733986 11.499999 2.86678553
v 25.0733986 11.499999 -1.63321447
v 25.0733986 13.7999992 -1.63321447
v 25.0733986 13.7999992 2.86678553
v 25.0733986 11.499999 2.86678553
v 35.0733986 11.499999 -1.63321447
v 35.0733986 13.7999992 -1.63321447
v 25.0733986 13.7999992 -1.63321447
v 25.0733986 11.499999 -1.63321447
v 25.0733986 13.7999992 2.86678553
v 25.0733986 13.7999992 -1.63321447
v 35.0733986 13.7999992 -1.63321447
v 35.0733986 13.7999992 2.86678553
v -15.6766024 13.7999992 2.86678553
v -19.4266014 13.7999992 2.86678553
v -19.4266014 13.7999992 -1.63321447
v -15.6766024 13.7999992 -1.63321447
v -40.6250076 11.5999994 9.72499752
v -1.47499275 11.5999994 9.12500095
v -1.47499275 11.5999994 9.72499752
v -40.6250076 11.5999994 -9.625
v 46.7750168 11.5999994 -9.625
v 9.47499084 11.5999985 9.125
v 9.47499275 11.5999994 9.72499752
v 46.7750168 11.5999994 9.72499752
v -1.47499275 11.499999 9.12500095
v -1.47499275 11.5999994 9.12500095
v 9.47499084 11.5999985 9.125
v 9.47499275 11.499999 9.12500095
v 9.47499275 11.499999 9.12500095
v 9.47499084 11.5999985 9.125
v 9.47499275 11.5999994 9.72499752
v 9.47499275 11.3999987 9.72499752
v 45.8750114 -1.1920929E-07 -9.42500305
v 45.8750076 9.53674316E-07 -9.32500076
v -39.7250061 -4.76837158E-07 -9.32500267
v -39.7250061 -1.1920929E-07 -9.42500401
v -15.1250076 1.1920929E-07 -9.32500076
v -9.47499084 1.1920929E-07 -9.32500076
v -9.47499084 11.1999989 -9.3249979
v -15.1250076 11.199995 -9.3249979
v -2.8250041 11.199995 -9.3249979
v -2.82500458 9.53674316E-07 -9.32500076
v 2.82501268 1.1920929E-07 -9.32500076
v 2.82501268 11.1999989 -9.3249979
v 3.32500505 11.199995 -9.3249979
v 3.32500505 1.1920929E-07 -9.32500076
v 8.97501373 1.1920929E-07 -9.32500076
v 8.97501373 11.1999989 -9.3249979
v -21.7750015 11.1999989 -9.3249979
v -27.4250183 11.199995 -9.3249979
v -27.4250183 0 -9.32500076
v -21.7750015 1.1920929E-07 -9.32500076
v -27.9250031 0 -9.32500076
v -27.9250107 11.1999989 -9.3249979
v -33.5750122 11.199995 -9.3249979
v -33.5750122 1.1920929E-07 -9.32500076
v 45.8750114 11.1999969 -9.42500114
v 45.8750114 11.1999969 -9.32499981
v 45.8750076 9.53674316E-07 -9.32500076
v 45.8750114 -1.1920929E-07 -9.42500305
v -21.2750092 11.199995 -9.42500114
v -21.2750092 -1.1920929E-07 -9.42500401
v -21.2750092 0 -9.32500076
v -21.2750092 11.199995 -9.3249979
v -21.7750015 11.199995 -9.42500114
v -21.7750015 -1.1920929E-07 -9.42500401
v -21.2750092 -1.1920929E-07 -9.42500401
v -21.2750092 11.199995 -9.42500114
v -21.7750015 11.1999989 -9.3249979
v -21.7750015 1.1920929E-07 -9.32500076
v -21.7750015 -1.1920929E-07 -9.42500401
v -21.7750015 11.199995 -9.42500114
v -27.9250107 11.1999989 -9.3249979
v -27.9250031 0 -9.32500076
v -27.9250107 -1.1920929E-07 -9.42500401
v -27.9250107 11.199995 -9.42500114
v -27.9250107 11.199995 -9.42500114
v -27.9250107 -1.1920929E-07 -9.42500401
v -27.4250183 -1.1920929E-07 -9.42500401
v -27.4250183 11.199995 -9.42500114
v -27.4250183 11.199995 -9.42500114
v -27.4250183 -1.1920929E-07 -9.42500401
v -27.4250183 0 -9.32500076
v -27.4250183 11.199995 -9.3249979
v -33.5750122 11.199995 -9.42500114
v -33.5750122 -1.1920929E-07 -9.42500401
v -33.5750122 1.1920929E-07 -9.32500076
v -33.5750122 11.199995 -9.3249979
v -34.0750046 11.199995 -9.42500114
v -34.0750046 -1.1920929E-07 -9.42500401
v -33.5750122 -1.1920929E-07 -9.42500401
v -33.5750122 11.199995 -9.42500114
v -34.0750046 11.1999989 -9.3249979
v -34.0750046 1.1920929E-07 -9.32500076
v -34.0750046 -1.1920929E-07 -9.42500401
v -34.0750046 11.199995 -9.42500114
v -15.1250076 11.199995 -9.42500114
v -15.1250076 -1.1920929E-07 -9.42500401
v -15.1250076 1.1920929E-07 -9.32500076
v -15.1250076 11.199995 -9.3249979
v -15.625 11.199995 -9.42500114
v -15.625 -1.1920929E-07 -9.42500401
v -15.1250076 -1.1920929E-07 -9.42500401
v -15.1250076 11.199995 -9.42500114
v -15.625 11.1999989 -9.3249979
v -15.625 0 -9.32500076
v -15.625 -1.1920929E-07 -9.42500401
v -15.625 11.199995 -9.42500114
v 3.32500505 11.199995 -9.42500114
v 3.32500505 -1.1920929E-07 -9.42500401
v 3.32500505 1.1920929E-07 -9.32500076
v 3.32500505 11.199995 -9.3249979
v 2.82501268 11.199995 -9.42500114
v 2.82501268 -1.1920929E-07 -9.42500401
v 3.32500505 -1.1920929E-07 -9.42500401
v 3.32500505 11.199995 -9.42500114
v 2.82501268 11.1999989 -9.3249979
v 2.82501268 1.1920929E-07 -9.32500076
v 2.82501268 -1.1920929E-07 -9.42500401
v 2.82501268 11.199995 -9.42500114
v -3.32499647 11.1999989 -9.3249979
v -3.32499647 1.1920929E-07 -9.32500076
v -3.32499647 -1.1920929E-07 -9.42500401
v -3.32499647 11.199995 -9.42500114
v -3.32499647 11.199995 -9.42500114
v -3.32499647 -1.1920929E-07 -9.42500401
v -2.8250041 -1.1920929E-07 -9.42500401
v -2.8250041 11.199995 -9.42500114
v -2.8250041 11.199995 -9.42500114
v -2.8250041 -1.1920929E-07 -9.42500401
v -2.82500458 9.53674316E-07 -9.32500076
v -2.8250041 11.199995 -9.3249979
v -8.97499847 11.199995 -9.42500114
v -8.97499847 -1.1920929E-07 -9.42500401
v -8.97499847 1.1920929E-07 -9.32500076
v -8.97499847 11.199995 -9.3249979
v -9.47499084 11.199995 -9.42500114
v -9.47499084 -1.1920929E-07 -9.42500401
v -8.97499847 -1.1920929E-07 -9.42500401
v -8.97499847 11.199995 -9.42500114
v -9.47499084 11.1999989 -9.3249979
v -9.47499084 1.1920929E-07 -9.32500076
v -9.47499084 -1.1920929E-07 -9.42500401
v -9.47499084 11.199995 -9.42500114
v 9.4750061 11.199995 -9.42500114
v 9.4750061 -1.1920929E-07 -9.42500401
v 9.4750061 1.1920929E-07 -9.32500076
v 9.4750061 11.199995 -9.3249979
v 8.97501373 11.199995 -9.42500114
v 8.97501373 -1.1920929E-07 -9.42500401
v 9.4750061 -1.1920929E-07 -9.42500401
v 9.4750061 11.199995 -9.42500114
v 8.97501373 11.1999989 -9.3249979
v 8.97501373 1.1920929E-07 -9.32500076
v 8.97501373 -1.1920929E-07 -9.42500401
v 8.97501373 11.199995 -9.42500114
v 27.9249954 11.199995 -9.42500114
v 27.9249954 -1.1920929E-07 -9.42500401
v 27.9249954 1.1920929E-07 -9.32500076
v 27.9249954 11.199995 -9.3249979
v 27.4250031 11.199995 -9.42500114
v 27.4250031 -1.1920929E-07 -9.42500401
v 27.9249954 -1.1920929E-07 -9.42500401
v 27.9249954 11.199995 -9.42500114
v 27.4250031 11.1999989 -9.3249979
v 27.4250031 1.1920929E-07 -9.32500076
v 27.4250031 -1.1920929E-07 -9.42500401
v 27.4250031 11.199995 -9.42500114
v 21.2749939 11.1999989 -9.3249979
v 21.2749939 1.1920929E-07 -9.32500076
v 21.2749939 -1.1920929E-07 -9.42500401
v 21.2749939 11.199995 -9.42500114
v 21.2749939 11.199995 -9.42500114
v 21.2749939 -1.1920929E-07 -9.42500401
v 21.7749863 -1.1920929E-07 -9.42500401
v 21.7749863 11.199995 -9.42500114
v 21.7749863 11.199995 -9.42500114
v 21.7749863 -1.1920929E-07 -9.42500401
v 21.7750015 9.53674316E-07 -9.32500076
v 21.7749863 11.199995 -9.3249979
v 21.7750015 9.53674316E-07 -9.32500076
v 27.4250031 1.1920929E-07 -9.32500076
v 27.4250031 11.1999989 -9.3249979
v 21.7749863 11.199995 -9.3249979
v 27.9249954 1.1920929E-07 -9.32500076
v 33.5750046 1.1920929E-07 -9.32500076
v 33.5750046 11.1999989 -9.3249979
v 27.9249954 11.199995 -9.3249979
v 34.0749969 1.1920929E-07 -9.32500076
v 39.7250137 1.1920929E-07 -9.32500076
v 39.7250061 11.1999989 -9.32499981
v 34.0749969 11.199995 -9.3249979
v 40.2250061 1.1920929E-07 -9.32500076
v 45.8750076 9.53674316E-07 -9.32500076
v 45.8750114 11.1999969 -9.32499981
v 40.2250061 11.199995 -9.3249979
v 15.6249924 11.199995 -9.42500114
v 15.6249924 -1.1920929E-07 -9.42500401
v 15.6249924 1.1920929E-07 -9.32500076
v 15.6249924 11.199995 -9.3249979
v 15.125 11.199995 -9.42500114
v 15.125 -1.1920929E-07 -9.42500401
v 15.6249924 -1.1920929E-07 -9.42500401
v 15.6249924 11.199995 -9.42500114
v 15.125 11.1999989 -9.3249979
v 15.1250076 9.53674316E-07 -9.32500076
v 15.125 -1.1920929E-07 -9.42500401
v 15.125 11.199995 -9.42500114
v 34.0749969 11.199995 -9.42500114
v 34.0749969 -1.1920929E-07 -9.42500401
v 34.0749969 1.1920929E-07 -9.32500076
v 34.0749969 11.199995 -9.3249979
v 33.5750046 11.199995 -9.42500114
v 33.5750046 -1.1920929E-07 -9.42500401
v 34.0749969 -1.1920929E-07 -9.42500401
v 34.0749969 11.199995 -9.42500114
v 33.5750046 11.1999989 -9.3249979
v 33.5750046 1.1920929E-07 -9.32500076
v 33.5750046 -1.1920929E-07 -9.42500401
v 33.5750046 11.199995 -9.42500114
v 9.4750061 11.199995 -9.3249979
v 9.4750061 1.1920929E-07 -9.32500076
v 15.1250076 9.53674316E-07 -9.32500076
v 15.125 11.1999989 -9.3249979
v -8.97499847 11.199995 -9.3249979
v -8.97499847 1.1920929E-07 -9.32500076
v -3.32499647 1.1920929E-07 -9.32500076
v -3.32499647 11.1999989 -9.3249979
v 40.2250061 11.199995 -9.42500114
v 40.2250061 -1.1920929E-07 -9.42500401
v 40.2250061 1.1920929E-07 -9.32500076
v 40.2250061 11.199995 -9.3249979
v 39.7250137 11.199995 -9.42500114
v 39.7250137 -1.1920929E-07 -9.42500401
v 40.2250061 -1.1920929E-07 -9.42500401
v 40.2250061 11.199995 -9.42500114
v 39.7250061 11.1999989 -9.32499981
v 39.7250137 1.1920929E-07 -9.32500076
v 39.7250137 -1.1920929E-07 -9.42500401
v 39.7250137 11.199995 -9.42500114
v -39.7250061 11.1999969 -9.42500114
v -40.4250107 -0.600000858 -9.42500401
v -39.7250061 -4.76837158E-07 -9.32500267
v -39.7250061 11.1999989 -9.32499981
v -3.32500458 -0.600000858 9.52500057
v -39.7250061 -4.76837158E-07 9.52500057
v -3.32500458 -1.1920929E-07 9.52500057
v -40.4250107 -0.600000858 9.52500057
v -40.4250031 11.1999969 9.52499771
v -39.7250061 11.1999969 9.52499771
v -39.7250061 -4.76837158E-07 9.42500305
v -3.32500458 0 9.42500114
v -3.32500458 -1.1920929E-07 9.52500057
v -39.7250061 -4.76837158E-07 9.52500057
v 9.47499275 -0.600000858 9.52500057
v 9.47499275 -1.1920929E-07 9.52500057
v 45.8750114 -4.76837158E-07 9.52500057
v 46.5750122 -0.600000858 9.52500057
v 45.8750076 -4.76837158E-07 9.42500305
v 45.8750114 -4.76837158E-07 9.52500057
v 9.47499275 -1.1920929E-07 9.52500057
v 9.47499275 -7.79691618E-08 9.42500114
v -34.0750046 11.1999989 9.42499828
v -34.0750046 1.1920929E-07 9.42500114
v -39.7250061 -4.76837158E-07 9.42500305
v -39.7250061 11.1999989 9.42500019
v -21.7750015 11.1999989 9.42500114
v -21.7750015 0 9.42500114
v -27.4250031 0 9.42500114
v -27.4250031 11.1999989 9.42500019
v -9.4750061 11.1999989 9.42500114
v -9.47499847 1.1920929E-07 9.42500114
v -15.1250076 1.1920929E-07 9.42500114
v -15.1250076 11.1999989 9.42499924
v -3.32500458 11.1999989 9.42500114
v -3.32500458 0 9.42500114
v -8.9750061 0 9.42500114
v -8.9750061 11.1999989 9.42500019
v 15.625 11.1999989 9.42500114
v 21.2750092 11.1999989 9.42500114
v 21.2750015 1.1920929E-07 9.42500114
v 15.625 0 9.42500114
v -39.7250061 11.1999969 9.52499771
v -39.7250061 11.1999989 9.42500019
v -39.7250061 -4.76837158E-07 9.42500305
v -39.7250061 -4.76837158E-07 9.52500057
v -27.4250031 11.199995 9.52499771
v -27.4250031 11.1999989 9.42500019
v -27.4250031 0 9.42500114
v -27.4250031 -1.1920929E-07 9.52500057
v -27.9249954 11.199995 9.52499771
v -27.4250031 11.199995 9.52499771
v -27.4250031 -1.1920929E-07 9.52500057
v -27.9249954 -1.1920929E-07 9.52500057
v -27.9250031 11.1999989 9.42500114
v -27.9249954 11.199995 9.52499771
v -27.9249954 -1.1920929E-07 9.52500057
v -27.9250031 0 9.42500114
v 15.125 11.1999989 9.42500114
v 15.1250076 11.199995 9.52499771
v 15.1250076 -1.1920929E-07 9.52500057
v 15.1250076 9.53674316E-07 9.42500114
v 15.1250076 11.199995 9.52499771
v 15.625 11.199995 9.52499771
v 15.625 -1.1920929E-07 9.52500057
v 15.1250076 -1.1920929E-07 9.52500057
v 15.625 11.199995 9.52499771
v 15.625 11.1999989 9.42500114
v 15.625 0 9.42500114
v 15.625 -1.1920929E-07 9.52500057
v 21.7750092 11.199995 9.52499771
v 21.7750015 11.1999989 9.42500114
v 21.7750092 0 9.42500114
v 21.7750092 -1.1920929E-07 9.52500057
v 21.2750168 11.199995 9.52499771
v 21.7750092 11.199995 9.52499771
v 21.7750092 -1.1920929E-07 9.52500057
v 21.2750168 -1.1920929E-07 9.52500057
v 21.2750092 11.1999989 9.42500114
v 21.2750168 11.199995 9.52499771
v 21.2750168 -1.1920929E-07 9.52500057
v 21.2750015 1.1920929E-07 9.42500114
v -34.0750046 11.1999989 9.42499828
v -34.0750046 11.199995 9.52499771
v -34.0750046 -1.1920929E-07 9.52500057
v -34.0750046 1.1920929E-07 9.42500114
v -34.0750046 11.199995 9.52499771
v -33.5750122 11.199995 9.52499771
v -33.5750122 -1.1920929E-07 9.52500057
v -34.0750046 -1.1920929E-07 9.52500057
v -33.5750122 11.199995 9.52499771
v -33.5750122 11.1999989 9.42499924
v -33.5750122 1.1920929E-07 9.42500114
v -33.5750122 -1.1920929E-07 9.52500057
v -21.2750092 11.199995 9.52499771
v -21.2750092 11.1999989 9.42500019
v -21.2750092 0 9.42500114
v -21.2750092 -1.1920929E-07 9.52500057
v -21.7750015 11.199995 9.52499771
v -21.2750092 11.199995 9.52499771
v -21.2750092 -1.1920929E-07 9.52500057
v -21.7750015 -1.1920929E-07 9.52500057
v -21.7750015 11.1999989 9.42500114
v -21.7750015 11.199995 9.52499771
v -21.7750015 -1.1920929E-07 9.52500057
v -21.7750015 0 9.42500114
v -15.1250076 11.199995 9.52499771
v -15.1250076 11.1999989 9.42499924
v -15.1250076 1.1920929E-07 9.42500114
v -15.1250076 -1.1920929E-07 9.52500057
v -15.625 11.199995 9.52499771
v -15.1250076 11.199995 9.52499771
v -15.1250076 -1.1920929E-07 9.52500057
v -15.625 -1.1920929E-07 9.52500057
v -15.625 11.1999989 9.42500114
v -15.625 11.199995 9.52499771
v -15.625 -1.1920929E-07 9.52500057
v -15.625 0 9.42500114
v -8.9750061 11.199995 9.52499771
v -8.9750061 11.1999989 9.42500019
v -8.9750061 0 9.42500114
v -8.9750061 -1.1920929E-07 9.52500057
v -9.47499847 11.199995 9.52499771
v -8.9750061 11.199995 9.52499771
v -8.9750061 -1.1920929E-07 9.52500057
v -9.47499847 -1.1920929E-07 9.52500057
v -9.4750061 11.1999989 9.42500114
v -9.47499847 11.199995 9.52499771
v -9.47499847 -1.1920929E-07 9.52500057
v -9.47499847 1.1920929E-07 9.42500114
v -15.625 11.1999989 9.42500114
v -15.625 0 9.42500114
v -21.2750092 0 9.42500114
v -21.2750092 11.1999989 9.42500019
v 27.9250031 11.199995 9.52499771
v 27.9250031 11.1999989 9.42500114
v 27.9250031 9.53674316E-07 9.42500114
v 27.9250031 -1.1920929E-07 9.52500057
v 27.4250107 11.199995 9.52499771
v 27.9250031 11.199995 9.52499771
v 27.9250031 -1.1920929E-07 9.52500057
v 27.4250107 -1.1920929E-07 9.52500057
v 27.4250031 11.1999989 9.42500114
v 27.4250107 11.199995 9.52499771
v 27.4250107 -1.1920929E-07 9.52500057
v 27.4250107 1.1920929E-07 9.42500114
v 34.0750046 11.199995 9.52499771
v 34.0749969 11.1999989 9.42500114
v 34.0749969 1.1920929E-07 9.42500114
v 34.0750046 -1.1920929E-07 9.52500057
v 33.5750122 11.199995 9.52499771
v 34.0750046 11.199995 9.52499771
v 34.0750046 -1.1920929E-07 9.52500057
v 33.5750122 -1.1920929E-07 9.52500057
v 33.5750046 11.1999989 9.42500114
v 33.5750122 11.199995 9.52499771
v 33.5750122 -1.1920929E-07 9.52500057
v 33.5750122 1.1920929E-07 9.42500114
v 40.2250061 11.199995 9.52499771
v 40.2250061 11.1999989 9.42500114
v 40.2249985 1.1920929E-07 9.42500114
v 40.2250061 -1.1920929E-07 9.52500057
v 39.7250137 11.199995 9.52499771
v 40.2250061 11.199995 9.52499771
v 40.2250061 -1.1920929E-07 9.52500057
v 39.7250137 -1.1920929E-07 9.52500057
v 39.7250061 11.1999989 9.42500114
v 39.7250137 11.199995 9.52499771
v 39.7250137 -1.1920929E-07 9.52500057
v 39.7250137 1.1920929E-07 9.42500114
v -40.4250031 -4.76837158E-07 -8.92500401
v -40.3250122 -4.76837158E-07 -8.92500401
v -40.3250122 0 9.02500057
v -40.4250031 -4.76837158E-07 9.02500057
v -40.3250122 -4.76837158E-07 -2.77500296
v -40.3250122 2.49999952 -2.77500248
v -40.3250122 2.5 2.87500072
v -40.3250122 -4.76837158E-07 2.87500119
v -40.3250122 11.1999969 2.87499785
v -40.3250122 6.59999895 2.87500024
v -40.3250122 6.59999895 -2.775002
v -40.3250122 11.1999969 -2.77499986
v -40.4250031 11.2000008 9.02499771
v -40.4250031 11.1999969 9.52499771
v -40.4250107 -0.600000858 9.52500057
v -40.4250031 -4.76837158E-07 9.02500057
v -40.4250031 -4.76837158E-07 -8.92500401
v -40.4250107 -0.600000858 -9.42500401
v -40.4250031 11.2000008 -8.92500114
v -40.4250031 11.1999969 -9.42500114
v -40.3250122 11.1999969 9.02500057
v -40.4250031 11.2000008 9.02499771
v -40.4250031 -4.76837158E-07 9.02500057
v -40.3250122 0 9.02500057
v -40.4250031 2.49999952 2.87500072
v -40.4250031 -4.76837158E-07 3.37500048
v -40.4250031 -4.76837158E-07 2.87500048
v -40.4250031 6.60000086 2.87499905
v -40.4250031 11.1999969 3.37499762
v -40.4250031 11.2000008 2.87499762
v -40.4250031 2.49999952 -2.77500248
v -40.4250031 -4.76837158E-07 -2.77500296
v -40.4250031 -4.76837158E-07 -3.27500343
v -40.4250031 6.60000086 -2.775002
v -40.4250031 11.1999969 -3.27500153
v -40.4250031 11.2000008 -2.77500105
v -40.3250122 2.49999952 -2.77500248
v -40.3250122 -4.76837158E-07 -2.77500296
v -40.4250031 -4.76837158E-07 -2.77500296
v -40.4250031 2.49999952 -2.77500248
v -40.3250122 6.59999895 -2.775002
v -40.4250031 6.60000086 -2.775002
v -40.3250122 11.1999969 -2.77499986
v -40.4250031 11.2000008 -2.77500105
v -40.4250031 11.1999969 -3.27500153
v -40.4250031 -4.76837158E-07 -3.27500343
v -40.3250122 0 -3.27500129
v -40.3250122 11.1999969 -3.27500129
v -40.3250122 2.5 2.87500072
v -40.4250031 -4.76837158E-07 2.87500048
v -40.3250122 -4.76837158E-07 2.87500119
v -40.4250031 2.49999952 2.87500072
v -40.3250122 6.59999895 2.87500024
v -40.4250031 6.60000086 2.87499905
v -40.3250122 11.1999969 2.87499785
v -40.4250031 6.60000086 2.87499905
v -40.4250031 11.2000008 2.87499762
v -40.4250031 11.1999969 3.37499762
v -40.3250122 11.1999969 3.37499762
v -40.3250122 0 3.37499452
v -40.4250031 -4.76837158E-07 3.37500048
v -40.3250122 11.1999969 -8.92500687
v -40.3250122 -4.76837158E-07 -8.92500401
v -40.4250031 -4.76837158E-07 -8.92500401
v -40.4250031 11.2000008 -8.92500114
v 46.5750122 -1.1920929E-07 -8.92500401
v 46.575016 -4.76837158E-07 9.02500057
v 46.4750137 -4.76837158E-07 9.02500057
v 46.4750137 -7.79691618E-08 -8.92500401
v 46.575016 11.2000008 2.87499762
v 46.575016 -4.76837158E-07 2.87500048
v 46.575016 -4.76837158E-07 3.37500048
v 46.575016 11.1999969 3.37499762
v 46.4750175 11.1999969 2.87499762
v 46.4750175 -4.76837158E-07 2.87500048
v 46.575016 -4.76837158E-07 2.87500048
v 46.575016 11.2000008 2.87499762
v 46.575016 11.1999969 3.37499762
v 46.575016 -4.76837158E-07 3.37500048
v 46.4750175 -4.76837158E-07 3.37500048
v 46.4750175 11.1999969 3.37499094
v 46.4750175 11.1999969 -2.77500105
v 46.4750175 -4.76837158E-07 -2.77500391
v 46.4750175 -4.76837158E-07 2.87500048
v 46.4750175 11.1999969 2.87499762
v 46.575016 11.2000008 9.02499771
v 46.5750122 -0.600000858 9.52500057
v 46.575016 11.1999969 9.52499771
v 46.575016 -4.76837158E-07 9.02500057
v 46.5750122 -1.1920929E-07 -8.92500401
v 46.5750122 -0.600000858 -9.42500401
v 46.575016 11.2000008 -8.92500114
v 46.575016 11.1999969 -9.42500114
v 46.4750175 11.1999969 9.02499771
v 46.4750137 -4.76837158E-07 9.02500057
v 46.575016 -4.76837158E-07 9.02500057
v 46.575016 11.2000008 9.02499771
v 46.575016 11.2000008 -2.77500105
v 46.575016 11.1999969 -3.27500153
v 46.575016 -4.76837158E-07 -3.27500343
v 46.575016 -4.76837158E-07 -2.77500391
v 46.575016 11.1999969 -3.27500153
v 46.4750175 11.1999969 -3.27500319
v 46.4750175 -4.76837158E-07 -3.27500343
v 46.575016 -4.76837158E-07 -3.27500343
v 46.4750175 11.1999969 -2.77500105
v 46.575016 11.2000008 -2.77500105
v 46.575016 -4.76837158E-07 -2.77500391
v 46.4750175 -4.76837158E-07 -2.77500391
v 46.4750175 11.1999969 -8.92500973
v 46.575016 11.2000008 -8.92500114
v 46.5750122 -1.1920929E-07 -8.92500401
v 46.4750137 -7.79691618E-08 -8.92500401
v 46.4750137 -7.79691618E-08 -8.92500401
v 46.4750175 -4.76837158E-07 -3.27500343
v 46.4750175 11.1999969 -3.27500319
v 46.4750175 11.1999969 -8.92500973
v -40.6250076 11.1999989 9.72499752
v -40.6250076 11.1999989 -9.625
v -40.6250076 11.5999994 -9.625
v -40.6250076 11.5999994 9.72499752
v 46.4750175 -4.76837158E-07 3.37500048
v 46.4750137 -4.76837158E-07 9.02500057
v 46.4750175 11.1999969 9.02499771
v 46.4750175 11.1999969 3.37499094
v 40.2249985 1.1920929E-07 9.42500114
v 40.2250061 11.1999989 9.42500114
v 45.8750076 11.1999989 9.42500019
v 45.8750076 -4.76837158E-07 9.42500305
v 34.0749969 11.1999989 9.42500114
v 39.7250061 11.1999989 9.42500114
v 39.7250137 1.1920929E-07 9.42500114
v 34.0749969 1.1920929E-07 9.42500114
v 27.9250031 11.1999989 9.42500114
v 33.5750046 11.1999989 9.42500114
v 33.5750122 1.1920929E-07 9.42500114
v 27.9250031 9.53674316E-07 9.42500114
v 21.7750015 11.1999989 9.42500114
v 27.4250031 11.1999989 9.42500114
v 27.4250107 1.1920929E-07 9.42500114
v 21.7750092 0 9.42500114
v 9.4750061 11.1999989 9.42500019
v 15.125 11.1999989 9.42500114
v 15.1250076 9.53674316E-07 9.42500114
v 9.47499275 -7.79691618E-08 9.42500114
v 46.575016 11.1999969 9.52499771
v 46.5750122 -0.600000858 9.52500057
v 45.8750076 -4.76837158E-07 9.42500305
v 45.8750076 11.1999989 9.42500019
v -27.9250031 11.1999989 9.42500114
v -27.9250031 0 9.42500114
v -33.5750122 1.1920929E-07 9.42500114
v -33.5750122 11.1999989 9.42499924
v -40.3250122 3 9.02500057
v -40.3250122 0 9.02500057
v -40.3250122 0 3.37499452
v -40.3250122 3 3.37499523
v -40.3250122 11.1999969 9.02500057
v -40.3250122 11.1999969 3.37499762
v -40.3250122 0 -3.27500129
v -40.3250122 -4.76837158E-07 -8.92500401
v -40.3250122 3 -8.92500687
v -40.3250122 2.99999952 -3.27500343
v -40.3250122 11.1999969 -3.27500129
v -40.3250122 11.1999969 -8.92500687
v -39.7250061 11.1999989 -9.32499981
v -39.7250061 -4.76837158E-07 -9.32500267
v -34.0750046 1.1920929E-07 -9.32500076
v -34.0750046 11.1999989 -9.3249979
v -15.625 0 -9.32500076
v -15.625 11.1999989 -9.3249979
v -21.2750092 11.199995 -9.3249979
v -21.2750092 0 -9.32500076
v 15.6249924 1.1920929E-07 -9.32500076
v 21.2749939 1.1920929E-07 -9.32500076
v 21.2749939 11.1999989 -9.3249979
v 15.6249924 11.199995 -9.3249979
v -3.32500458 0 13.6247902
v -3.32500458 15.3999996 13.6247902
v 9.47499275 15.3999996 13.6247902
v 9.47499275 0 13.6247902
v -3.32500458 11.5999985 9.12500095
v -3.32500458 15.3999996 9.12500095
v -3.32500458 11.3499985 9.42500114
v -3.32500458 15.3999996 13.6247902
v -3.32500458 0 9.42500114
v -3.32500458 0 13.6247902
v 9.47499084 11.5999985 9.125
v 9.4750061 11.1999989 9.42500019
v 9.47499084 15.3999996 9.125
v 9.47499275 15.3999996 13.6247902
v 9.47499275 -7.79691618E-08 9.42500114
v 9.47499275 0 13.6247902
v -2.92500305 15.3999996 13.2247906
v -2.92500305 15.3999996 9.12500095
v -2.92500305 14.3999996 9.12500095
v -2.92500305 14.3999996 13.2247906
v 9.47499275 15.3999996 13.6247902
v -3.32500458 15.3999996 13.6247902
v -2.92500305 15.3999996 13.2247906
v 6.47499084 15.3999996 13.2247906
v 9.47499084 15.3999996 9.125
v 6.47499084 15.3999996 9.12500095
v -3.32500458 15.3999996 13.6247902
v -3.32500458 15.3999996 9.12500095
v -2.92500305 15.3999996 9.12500095
v -2.92500305 15.3999996 13.2247906
v 6.47499084 14.3999996 13.2247906
v -2.92500305 14.3999996 13.2247906
v -2.92500305 14.3999996 9.12500095
v 6.47499084 14.3999996 9.12500095
v 6.47499084 15.3999996 13.2247906
v -2.92500305 15.3999996 13.2247906
v -2.92500305 14.3999996 13.2247906
v 6.47499084 14.3999996 13.2247906
v 6.47499084 15.3999996 9.12500095
v 6.47499084 15.3999996 13.2247906
v 6.47499084 14.3999996 13.2247906
v 6.47499084 14.3999996 9.12500095
v -3.32500458 11.5999985 9.12500095
v -2.92500305 14.3999996 9.12500095
v -2.92500305 15.3999996 9.12500095
v -3.32500458 15.3999996 9.12500095
v 9.47499084 11.5999985 9.125
v 9.47499084 15.3999996 9.125
v 6.47499084 15.3999996 9.12500095
v 6.47499084 14.3999996 9.12500095
v -2.92500305 14.3999996 9.12500095
v -3.32500458 11.5999985 9.12500095
v 9.47499084 11.5999985 9.125
v -34.1750031 6.59999943 2.87500095
v -34.1750031 2.70000005 2.87500095
v -34.1750031 2.70000005 -2.77500319
v -34.1750031 6.59999943 -2.77500319
v -34.1750031 2.70000005 2.87500095
v -40.3250122 2.5 2.87500072
v -40.3250122 2.49999952 -2.77500248
v -34.1750031 2.70000005 -2.77500319
v -34.1750031 6.59999943 -2.77500319
v -40.3250122 6.59999895 -2.775002
v -40.3250122 6.59999943 0.0499989502
v -34.1750031 6.59999943 0.0499988049
v -34.1750031 6.59999943 2.87500095
v -34.1750031 6.59999943 0.0499988049
v -40.3250122 6.59999943 0.0499989502
v -40.3250122 6.59999895 2.87500024
v -40.3250122 6.59999895 -2.775002
v -34.1750031 6.59999943 -2.77500319
v -34.1750031 5 -2.77500319
v -34.1750031 2.70000005 -2.77500319
v -40.3250122 2.49999952 -2.77500248
v -34.1750031 6.59999943 2.87500095
v -40.3250122 6.59999895 2.87500024
v -40.3250122 2.5 2.87500072
v -34.1750031 2.70000005 2.87500095
vt 0.984802365 0.105328813
vt 0.979765654 0.10964606
vt 0.979765654 0.10964606
vt 0.984802604 0.190234751
vt 0.984802485 0.10532885
vt 0.979765654 0.190234706
vt 0.358801335 0.10532885
vt 0.979765654 0.10964606
vt 0.363838166 0.10964606
vt 0.363838136 0.190234706
vt 0.358801335 0.190234721
vt 0.583257079 0.0170494504
vt 0.562905014 0.0170494504
vt 0.542552471 0.0170494504
vt 0.98628366 0.0127267763
vt 0.981240809 0.0170494244
vt 0.98124069 0.0170494504
vt 0.985882998 0.196206823
vt 0.360360712 0.196206823
vt 0.36179629 0.197621882
vt 0.98444593 0.19762063
vt 0.627800167 0.337412477
vt 0.627803206 0.335972726
vt 0.360293537 0.336839288
vt 0.361762673 0.335428149
vt 0.62721777 0.335234225
vt 0.360360712 0.196206823
vt 0.360293537 0.336839288
vt 0.361762673 0.335428149
vt 0.36179629 0.197621882
vt 0.985941291 0.336847246
vt 0.705234528 0.335963309
vt 0.705237269 0.337397367
vt 0.984473467 0.335435718
vt 0.705820084 0.335228086
vt 0.705234528 0.335963309
vt 0.705820084 0.335228086
vt 0.705541134 0.33121717
vt 0.705112457 0.331715435
vt 0.267679363 0.377606422
vt 0.267679363 0.351944029
vt 0.239165783 0.351944029
vt 0.239165783 0.377606422
vt 0.213503569 0.338827819
vt 0.213503569 0.351944029
vt 0.239165783 0.351944029
vt 0.239165783 0.338827819
vt 0.267679363 0.390722424
vt 0.267679363 0.377606422
vt 0.239165783 0.377606422
vt 0.239165783 0.390722424
vt 0.267679363 0.338827819
vt 0.267679363 0.351944029
vt 0.293341547 0.351944029
vt 0.293341547 0.338827997
vt 0.239165783 0.338827819
vt 0.239165783 0.351944029
vt 0.267679363 0.351944029
vt 0.267679363 0.338827819
vt 0.0600633956 0.338573009
vt 0.0600634292 0.352378786
vt 0.0870748758 0.352378786
vt 0.0870748758 0.338573009
vt 0.0375538804 0.338573009
vt 0.0375538804 0.352378786
vt 0.0600634292 0.352378786
vt 0.0600633956 0.338573009
vt 0.0870748758 0.388694257
vt 0.0870748758 0.37488842
vt 0.0600634292 0.37488842
vt 0.0600634292 0.388694257
vt 0.0870748758 0.338573009
vt 0.0870748758 0.352378786
vt 0.10958463 0.352378786
vt 0.10958463 0.338573009
vt 0.852099001 0.344715685
vt 0.852099001 0.354824275
vt 0.871877015 0.354824275
vt 0.871877015 0.344715685
vt 0.915828049 0.384710997
vt 0.915828049 0.374602377
vt 0.871877015 0.374602377
vt 0.871877015 0.384710997
vt 0.915828168 0.344715685
vt 0.915828168 0.354824275
vt 0.935606182 0.354824424
vt 0.935606182 0.344715685
vt 0.871877015 0.344715685
vt 0.871877015 0.354824275
vt 0.915828168 0.354824275
vt 0.915828168 0.344715685
vt 0.915828049 0.374602377
vt 0.915828168 0.354824275
vt 0.871877015 0.354824275
vt 0.871877015 0.374602377
vt 0.0600634292 0.352378786
vt 0.0600634292 0.37488842
vt 0.0870748758 0.37488842
vt 0.0870748758 0.352378786
vt 0.984473467 0.335435718
vt 0.705541134 0.33121717
vt 0.705820084 0.335228086
vt 0.98444593 0.19762063
vt 0.36179629 0.197621882
vt 0.627498269 0.331222743
vt 0.62721777 0.335234225
vt 0.361762673 0.335428149
vt 0.705112457 0.331715435
vt 0.705541134 0.33121717
vt 0.627498269 0.331222743
vt 0.627927303 0.331721544
vt 0.627927303 0.331721544
vt 0.627498269 0.331222743
vt 0.62721777 0.335234225
vt 0.627803206 0.335972726
vt 0.363838166 0.10964606
vt 0.363838166 0.109646104
vt 0.979765654 0.10964606
vt 0.979765654 0.10964606
vt 0.802758694 0.109646067
vt 0.762104332 0.10964606
vt 0.762104273 0.190234751
vt 0.802758634 0.190234691
vt 0.714254856 0.190234706
vt 0.714254856 0.109646112
vt 0.673600674 0.109646052
vt 0.673600674 0.190234751
vt 0.670003235 0.190234721
vt 0.670003176 0.10964606
vt 0.629348993 0.10964606
vt 0.629348934 0.190234751
vt 0.85060811 0.190234751
vt 0.891262352 0.190234721
vt 0.891262293 0.109646067
vt 0.85060811 0.10964606
vt 0.894859791 0.10964606
vt 0.894860089 0.190234765
vt 0.935513973 0.190234706
vt 0.935513973 0.10964606
vt 0.363838136 0.190234721
vt 0.363838136 0.190234691
vt 0.363838106 0.109646089
vt 0.363838136 0.109646052
vt 0.847010374 0.190234721
vt 0.847010374 0.109646067
vt 0.847010434 0.109646067
vt 0.847010255 0.190234691
vt 0.850608051 0.190234721
vt 0.850608051 0.10964606
vt 0.847010374 0.109646067
vt 0.847010374 0.190234721
vt 0.85060811 0.190234751
vt 0.850607991 0.109646052
vt 0.850608051 0.10964606
vt 0.850608051 0.190234721
vt 0.894860089 0.190234765
vt 0.89485985 0.109646074
vt 0.89485997 0.109646052
vt 0.894860029 0.190234691
vt 0.894860029 0.190234691
vt 0.89485997 0.109646052
vt 0.891262233 0.10964606
vt 0.891262293 0.190234721
vt 0.891262293 0.190234721
vt 0.891262233 0.10964606
vt 0.891262293 0.109646067
vt 0.891262352 0.190234721
vt 0.935514092 0.190234721
vt 0.935513914 0.109646052
vt 0.935513973 0.10964606
vt 0.935513973 0.190234706
vt 0.93911171 0.190234691
vt 0.93911171 0.10964606
vt 0.935513914 0.109646052
vt 0.935514092 0.190234721
vt 0.93911159 0.190234721
vt 0.93911171 0.109646052
vt 0.93911171 0.10964606
vt 0.93911171 0.190234691
vt 0.802758694 0.190234721
vt 0.802758634 0.10964606
vt 0.802758694 0.109646067
vt 0.802758634 0.190234691
vt 0.80635643 0.190234721
vt 0.806356311 0.109646052
vt 0.802758634 0.10964606
vt 0.802758694 0.190234721
vt 0.80635637 0.190234721
vt 0.80635643 0.109646052
vt 0.806356311 0.109646052
vt 0.80635643 0.190234721
vt 0.670003176 0.190234691
vt 0.670003176 0.109646052
vt 0.670003176 0.10964606
vt 0.670003295 0.190234736
vt 0.673600674 0.190234721
vt 0.673600674 0.109646052
vt 0.670003176 0.109646052
vt 0.670003176 0.190234691
vt 0.673600674 0.190234751
vt 0.673600674 0.109646052
vt 0.673600674 0.109646052
vt 0.673600674 0.190234721
vt 0.717852652 0.190234751
vt 0.717852592 0.109646052
vt 0.717852652 0.109646067
vt 0.717852592 0.190234691
vt 0.717852592 0.190234691
vt 0.717852652 0.109646067
vt 0.714254856 0.109646052
vt 0.714254856 0.190234706
vt 0.714254856 0.190234706
vt 0.714254856 0.109646052
vt 0.714254856 0.109646112
vt 0.714254856 0.190234706
vt 0.758506894 0.190234721
vt 0.758506775 0.10964606
vt 0.758506775 0.109646052
vt 0.758506775 0.190234721
vt 0.762104332 0.190234706
vt 0.762104213 0.109646037
vt 0.758506775 0.10964606
vt 0.758506894 0.190234721
vt 0.762104273 0.190234751
vt 0.762104273 0.10964606
vt 0.762104213 0.109646037
vt 0.762104332 0.190234706
vt 0.625751257 0.190234691
vt 0.625751257 0.109646052
vt 0.625751257 0.10964606
vt 0.625751317 0.190234721
vt 0.629348993 0.190234676
vt 0.629348993 0.109646052
vt 0.625751257 0.109646052
vt 0.625751257 0.190234691
vt 0.629348934 0.190234751
vt 0.629348993 0.109646067
vt 0.629348993 0.109646052
vt 0.629348993 0.190234676
vt 0.492995948 0.190234721
vt 0.492995948 0.10964606
vt 0.492995948 0.10964606
vt 0.492995977 0.190234721
vt 0.496593475 0.190234691
vt 0.496593535 0.109646067
vt 0.492995948 0.10964606
vt 0.492995948 0.190234721
vt 0.496593535 0.190234751
vt 0.496593505 0.10964606
vt 0.496593535 0.109646067
vt 0.496593475 0.190234691
vt 0.540845394 0.190234751
vt 0.540845394 0.109646052
vt 0.540845394 0.10964606
vt 0.540845394 0.190234751
vt 0.540845394 0.190234751
vt 0.540845394 0.10964606
vt 0.537247777 0.109646052
vt 0.537247777 0.190234721
vt 0.537247777 0.190234721
vt 0.537247777 0.109646052
vt 0.537247658 0.109646097
vt 0.537247837 0.190234691
vt 0.537247658 0.109646097
vt 0.496593505 0.10964606
vt 0.496593505 0.190234751
vt 0.537247837 0.190234706
vt 0.492995948 0.10964606
vt 0.452341586 0.10964606
vt 0.452341586 0.190234751
vt 0.492995948 0.190234706
vt 0.448744059 0.10964606
vt 0.408089906 0.10964606
vt 0.408090085 0.190234765
vt 0.448744059 0.190234706
vt 0.404492319 0.109646067
vt 0.363838166 0.109646104
vt 0.363838136 0.190234691
vt 0.404492289 0.190234706
vt 0.581499457 0.190234691
vt 0.581499457 0.109646052
vt 0.581499517 0.10964606
vt 0.581499517 0.190234721
vt 0.585097432 0.190234751
vt 0.585097313 0.10964606
vt 0.581499457 0.109646052
vt 0.581499457 0.190234691
vt 0.585097373 0.19023478
vt 0.585097194 0.109646112
vt 0.585097313 0.10964606
vt 0.585097432 0.190234751
vt 0.448744029 0.190234691
vt 0.448744059 0.10964606
vt 0.448744059 0.10964606
vt 0.448744088 0.190234706
vt 0.452341557 0.190234691
vt 0.452341557 0.109646052
vt 0.448744059 0.10964606
vt 0.448744029 0.190234691
vt 0.452341616 0.190234751
vt 0.452341527 0.109646052
vt 0.452341557 0.109646052
vt 0.452341557 0.190234691
vt 0.625751257 0.190234706
vt 0.625751257 0.10964606
vt 0.585097134 0.109646104
vt 0.585097373 0.19023478
vt 0.758506775 0.190234721
vt 0.758506775 0.109646052
vt 0.717852652 0.10964606
vt 0.717852652 0.190234751
vt 0.404492259 0.190234676
vt 0.404492259 0.109646052
vt 0.404492319 0.109646067
vt 0.404492319 0.190234721
vt 0.408089817 0.190234706
vt 0.408089906 0.10964606
vt 0.404492259 0.109646052
vt 0.404492259 0.190234676
vt 0.408090085 0.190234765
vt 0.408089876 0.109646067
vt 0.408089906 0.10964606
vt 0.408089817 0.190234706
vt 0.979765654 0.190234706
vt 0.984802365 0.105328813
vt 0.979765713 0.109646067
vt 0.979765654 0.190234751
vt 0.716177881 0.0127267763
vt 0.453938782 0.0170494504
vt 0.716177881 0.0170494504
vt 0.448895782 0.0127267763
vt 0.448895782 0.097738333
vt 0.453938782 0.097738333
vt 0.453938782 0.0170494504
vt 0.716177881 0.0170494504
vt 0.716177881 0.0170494504
vt 0.453938782 0.0170494504
vt 0.719001591 0.0127267763
vt 0.719001591 0.0170494504
vt 0.98124069 0.0170494504
vt 0.98628366 0.0127267763
vt 0.98124069 0.0170494504
vt 0.98124069 0.0170494504
vt 0.719001591 0.0170494504
vt 0.719001591 0.0170494504
vt 0.49464348 0.0977383852
vt 0.494643509 0.0170494504
vt 0.453938782 0.0170494504
vt 0.453938782 0.0977383852
vt 0.583257079 0.0977383777
vt 0.583257079 0.0170494504
vt 0.542552471 0.0170494504
vt 0.542552471 0.0977383852
vt 0.671870947 0.0977383777
vt 0.671871066 0.0170494542
vt 0.63116622 0.0170494504
vt 0.631166101 0.0977383852
vt 0.716177881 0.0977383852
vt 0.716177881 0.0170494504
vt 0.675473094 0.0170494504
vt 0.675473094 0.0977383852
vt 0.763308525 0.0977383852
vt 0.804013371 0.0977383927
vt 0.804013193 0.0170494504
vt 0.763308465 0.0170494504
vt 0.453938782 0.097738333
vt 0.453938782 0.0977383852
vt 0.453938782 0.0170494504
vt 0.453938782 0.0170494504
vt 0.542552471 0.0977383405
vt 0.542552471 0.0977383852
vt 0.542552471 0.0170494504
vt 0.542552471 0.0170494504
vt 0.538950324 0.0977383405
vt 0.542552471 0.0977383405
vt 0.542552471 0.0170494504
vt 0.538950324 0.0170494504
vt 0.538950324 0.0977383852
vt 0.538950324 0.0977383405
vt 0.538950324 0.0170494504
vt 0.538950324 0.0170494504
vt 0.759706378 0.0977383852
vt 0.759706378 0.0977383405
vt 0.759706378 0.0170494504
vt 0.759706497 0.0170494523
vt 0.759706378 0.0977383405
vt 0.763308525 0.097738333
vt 0.763308465 0.0170494486
vt 0.759706378 0.0170494504
vt 0.763308525 0.097738333
vt 0.763308525 0.0977383852
vt 0.763308465 0.0170494504
vt 0.763308465 0.0170494486
vt 0.807615399 0.0977383405
vt 0.807615399 0.0977383852
vt 0.807615399 0.0170494504
vt 0.807615399 0.0170494504
vt 0.804013312 0.097738333
vt 0.807615399 0.0977383405
vt 0.807615399 0.0170494504
vt 0.804013252 0.0170494504
vt 0.804013371 0.0977383927
vt 0.804013312 0.097738333
vt 0.804013252 0.0170494504
vt 0.804013252 0.0170494504
vt 0.49464348 0.0977383852
vt 0.49464345 0.0977383256
vt 0.49464345 0.0170494504
vt 0.494643509 0.0170494504
vt 0.49464345 0.0977383256
vt 0.498245567 0.097738333
vt 0.498245597 0.0170494504
vt 0.49464345 0.0170494504
vt 0.498245567 0.097738333
vt 0.498245567 0.0977383852
vt 0.498245597 0.0170494504
vt 0.498245597 0.0170494504
vt 0.586859405 0.0977383405
vt 0.586859405 0.0977383852
vt 0.586859465 0.0170494504
vt 0.586859345 0.0170494504
vt 0.583257079 0.097738333
vt 0.586859405 0.0977383405
vt 0.586859345 0.0170494504
vt 0.583257139 0.0170494486
vt 0.583257079 0.0977383777
vt 0.583257079 0.097738333
vt 0.583257139 0.0170494486
vt 0.583257079 0.0170494504
vt 0.63116616 0.097738333
vt 0.631166101 0.0977383852
vt 0.63116622 0.0170494504
vt 0.631166101 0.0170494504
vt 0.627564013 0.097738333
vt 0.63116616 0.097738333
vt 0.631166101 0.0170494504
vt 0.627563953 0.0170494504
vt 0.627564013 0.0977383852
vt 0.627564013 0.097738333
vt 0.627563953 0.0170494504
vt 0.627564073 0.0170494504
vt 0.675473094 0.0977383256
vt 0.675473094 0.0977383852
vt 0.675473094 0.0170494504
vt 0.675472975 0.0170494504
vt 0.671870947 0.0977383405
vt 0.675473094 0.0977383256
vt 0.675472975 0.0170494504
vt 0.671870887 0.0170494486
vt 0.671870947 0.0977383777
vt 0.671870947 0.0977383405
vt 0.671870887 0.0170494486
vt 0.671871066 0.0170494542
vt 0.627564013 0.0977383852
vt 0.627564073 0.0170494504
vt 0.586859465 0.0170494504
vt 0.586859405 0.0977383852
vt 0.851922393 0.0977383405
vt 0.851922333 0.0977383852
vt 0.851922333 0.0170494504
vt 0.851922274 0.0170494504
vt 0.848320007 0.0977383256
vt 0.851922393 0.0977383405
vt 0.851922274 0.0170494504
vt 0.848320007 0.0170494504
vt 0.848320067 0.0977383852
vt 0.848320007 0.0977383256
vt 0.848320007 0.0170494504
vt 0.848320127 0.0170494504
vt 0.896229148 0.097738333
vt 0.896229208 0.0977383852
vt 0.896229148 0.0170494504
vt 0.896229088 0.0170494504
vt 0.892627001 0.097738333
vt 0.896229148 0.097738333
vt 0.896229088 0.0170494504
vt 0.89262706 0.0170494504
vt 0.892626703 0.0977383777
vt 0.892627001 0.097738333
vt 0.89262706 0.0170494504
vt 0.892627001 0.0170494486
vt 0.940535963 0.0977383256
vt 0.940536022 0.0977383852
vt 0.940535963 0.0170494504
vt 0.940535963 0.0170494504
vt 0.936933875 0.097738333
vt 0.940535963 0.0977383256
vt 0.940535963 0.0170494504
vt 0.936933815 0.0170494504
vt 0.936933756 0.0977383852
vt 0.936933875 0.097738333
vt 0.936933815 0.0170494504
vt 0.936933994 0.0170494504
vt 0.311520725 0.0167649388
vt 0.311520725 0.0167649388
vt 0.441563696 0.0167649388
vt 0.441563696 0.0167649388
vt 0.356075943 0.0167649388
vt 0.356075943 0.0348767489
vt 0.397008628 0.0348767489
vt 0.397008628 0.0167649388
vt 0.397008628 0.0979059413
vt 0.397008628 0.064580217
vt 0.356075943 0.064580217
vt 0.356075943 0.0979059413
vt 0.441563696 0.097905986
vt 0.44518587 0.0979059413
vt 0.44518587 0.0124181062
vt 0.441563696 0.0167649388
vt 0.311520725 0.0167649388
vt 0.307898372 0.0124181062
vt 0.311520725 0.097905986
vt 0.307898402 0.0979059935
vt 0.441563696 0.0979059413
vt 0.441563696 0.097905986
vt 0.441563696 0.0167649388
vt 0.441563696 0.0167649388
vt 0.397008628 0.0348767489
vt 0.400630981 0.0167649165
vt 0.397008628 0.0167649388
vt 0.397008628 0.064580217
vt 0.400630981 0.0979059413
vt 0.397008568 0.0979059711
vt 0.356075943 0.0348767489
vt 0.356075943 0.0167649388
vt 0.352453411 0.0167649388
vt 0.356075943 0.064580217
vt 0.352453351 0.0979059264
vt 0.356075943 0.097905986
vt 0.356075943 0.0348767489
vt 0.356075943 0.0167649388
vt 0.356075943 0.0167649388
vt 0.356075943 0.0348767489
vt 0.356075943 0.064580217
vt 0.356075943 0.064580217
vt 0.356075943 0.0979059413
vt 0.356075943 0.097905986
vt 0.352453351 0.0979059264
vt 0.352453411 0.0167649388
vt 0.352453411 0.0167649388
vt 0.352453381 0.0979059413
vt 0.397008628 0.0348767489
vt 0.397008628 0.0167649388
vt 0.397008628 0.0167649388
vt 0.397008628 0.0348767489
vt 0.397008628 0.064580217
vt 0.397008628 0.064580217
vt 0.397008628 0.0979059413
vt 0.397008628 0.064580217
vt 0.397008568 0.0979059711
vt 0.400630981 0.0979059413
vt 0.400630981 0.0979059413
vt 0.400630981 0.0167649388
vt 0.400630981 0.0167649165
vt 0.311520755 0.0979059488
vt 0.311520725 0.0167649388
vt 0.311520725 0.0167649388
vt 0.311520725 0.097905986
vt 0.298527181 0.017400194
vt 0.168484211 0.017400194
vt 0.168484211 0.017400194
vt 0.298527181 0.017400194
vt 0.213039279 0.0985412598
vt 0.213039264 0.0174002089
vt 0.209417105 0.0174002871
vt 0.209417105 0.0985412151
vt 0.213039279 0.0985412151
vt 0.213039309 0.0174001958
vt 0.213039264 0.0174002089
vt 0.213039279 0.0985412598
vt 0.209417105 0.0985412151
vt 0.209417105 0.0174002871
vt 0.209417105 0.017400194
vt 0.20941709 0.0985412151
vt 0.253971964 0.0985412151
vt 0.253971934 0.017400194
vt 0.213039294 0.017400194
vt 0.213039279 0.0985412151
vt 0.168484226 0.0985412672
vt 0.164861679 0.013053339
vt 0.164861679 0.0985412151
vt 0.168484211 0.017400194
vt 0.298527181 0.017400194
vt 0.302149534 0.013053339
vt 0.298527181 0.0985412598
vt 0.302149534 0.0985412151
vt 0.168484211 0.0985412151
vt 0.168484211 0.017400194
vt 0.168484211 0.0174000151
vt 0.168484226 0.0985412672
vt 0.253971934 0.0985412449
vt 0.257594496 0.0985412151
vt 0.257594466 0.0174001902
vt 0.253971994 0.017400194
vt 0.257594496 0.0985412151
vt 0.257594496 0.0985412151
vt 0.257594526 0.0174001958
vt 0.257594466 0.0174001902
vt 0.253971964 0.0985412151
vt 0.253971934 0.0985412449
vt 0.253971994 0.017400194
vt 0.253971934 0.017400194
vt 0.298527181 0.0985412151
vt 0.298527181 0.0985412598
vt 0.298527122 0.0174002089
vt 0.298527211 0.0174001921
vt 0.298527211 0.0174001921
vt 0.257594526 0.017400194
vt 0.257594496 0.0985412151
vt 0.298527181 0.0985412151
vt 0.985941291 0.336847246
vt 0.985882998 0.196206823
vt 0.98444593 0.19762063
vt 0.984473467 0.335435718
vt 0.209417105 0.017400194
vt 0.168484211 0.017400194
vt 0.168484211 0.0985412151
vt 0.209417105 0.0985412151
vt 0.940535903 0.0170494504
vt 0.940536022 0.0977383852
vt 0.98124063 0.0977383852
vt 0.98124069 0.0170494504
vt 0.896229208 0.0977383852
vt 0.936933756 0.0977383852
vt 0.936933994 0.0170494504
vt 0.896229148 0.0170494504
vt 0.851922333 0.0977383852
vt 0.892626703 0.0977383777
vt 0.892626941 0.0170494486
vt 0.851922333 0.0170494504
vt 0.807615399 0.0977383852
vt 0.848320067 0.0977383852
vt 0.848320127 0.0170494504
vt 0.807615399 0.0170494504
vt 0.719001591 0.0977383852
vt 0.759706378 0.0977383852
vt 0.759706438 0.0170494523
vt 0.719001591 0.0170494504
vt 0.98628366 0.097738333
vt 0.98628366 0.0127267763
vt 0.981240749 0.0170494206
vt 0.98124063 0.0977383852
vt 0.538950324 0.0977383852
vt 0.538950324 0.0170494504
vt 0.498245597 0.0170494504
vt 0.498245567 0.0977383852
vt 0.441563696 0.0384991281
vt 0.441563696 0.0167649388
vt 0.400630981 0.0167649388
vt 0.400630981 0.0384991281
vt 0.441563696 0.0979059413
vt 0.400630981 0.0979059413
vt 0.352453411 0.0167649388
vt 0.311520725 0.0167649388
vt 0.311520696 0.0384991243
vt 0.352453411 0.0384991281
vt 0.352453411 0.0979059413
vt 0.311520755 0.0979059488
vt 0.979765654 0.190234751
vt 0.979765713 0.109646067
vt 0.93911171 0.10964606
vt 0.93911159 0.190234721
vt 0.80635643 0.10964606
vt 0.80635637 0.190234721
vt 0.847010255 0.190234691
vt 0.847010434 0.109646067
vt 0.581499517 0.10964606
vt 0.540845394 0.10964606
vt 0.540845394 0.190234751
vt 0.581499517 0.190234706
vt 0.0369874239 0.0154666938
vt 0.0369879603 0.119460866
vt 0.123423308 0.119459353
vt 0.123422965 0.0154666929
vt 0.00660145096 0.0937985554
vt 0.00660145096 0.119459108
vt 0.00862732343 0.0921104625
vt 0.0369874239 0.119459108
vt 0.00862732343 0.0154666938
vt 0.0369874239 0.0154666938
vt 0.153808951 0.0937987342
vt 0.151783049 0.0910977349
vt 0.153808951 0.119459502
vt 0.12342298 0.119459502
vt 0.151782721 0.0154666938
vt 0.123422965 0.0154666929
vt 0.343513072 0.108714558
vt 0.345512986 0.135305509
vt 0.340931624 0.138208091
vt 0.340024948 0.112134606
vt 0.252991259 0.105914645
vt 0.347175896 0.105914645
vt 0.343513072 0.108714558
vt 0.274567634 0.108684503
vt 0.255063593 0.135264978
vt 0.273307562 0.135052457
vt 0.347175896 0.105914645
vt 0.346546471 0.135118023
vt 0.345512986 0.135305509
vt 0.343513072 0.108714558
vt 0.277883053 0.112330161
vt 0.340024948 0.112134606
vt 0.340931624 0.138208091
vt 0.276772827 0.138971612
vt 0.274567634 0.108684503
vt 0.343513072 0.108714558
vt 0.340024948 0.112134606
vt 0.277883053 0.112330161
vt 0.273307562 0.135052457
vt 0.274567634 0.108684503
vt 0.277883053 0.112330161
vt 0.276772827 0.138971612
vt 0.343099415 0.156425178
vt 0.340931624 0.138208091
vt 0.345512986 0.135305509
vt 0.346546471 0.135118023
vt 0.258001983 0.159775138
vt 0.255063593 0.135264978
vt 0.273307562 0.135052457
vt 0.276772827 0.138971612
vt 0.340931624 0.138208091
vt 0.343099415 0.156425178
vt 0.258001983 0.159775138
vt 0.396001935 0.0630656853
vt 0.396001935 0.0364135019
vt 0.357390374 0.0364135019
vt 0.357390374 0.0630656853
vt 0.148607805 0.357655048
vt 0.148607805 0.389893472
vt 0.178209737 0.389893472
vt 0.178209737 0.357655048
vt 0.198631942 0.356990933
vt 0.199679315 0.389195263
vt 0.214472234 0.388714135
vt 0.213424981 0.356509745
vt 0.128185526 0.356990874
vt 0.113392487 0.356509805
vt 0.112345085 0.388714194
vt 0.127138183 0.389195263
vt 0.199679315 0.389195263
vt 0.198631942 0.356990933
vt 0.1902536 0.357263386
vt 0.178209737 0.357655048
vt 0.178209737 0.389893472
vt 0.128185526 0.356990874
vt 0.127138183 0.389195263
vt 0.148607805 0.389893472
vt 0.148607805 0.357655048
vn -0.650793314 0.759254873 -1.85544723E-05
vn -0.650793314 0.759254873 -1.85544723E-05
vn -0.650793314 0.759254873 -1.85544723E-05
vn -0 0 -1
vn -0 0 -1
vn -0 0 -1
vn -0 0 -1
vn -0 0 -1
vn -0 0 -1
vn -0 0 -1
vn -0 0 -1
vn -0 1 0
vn -0 1 0
vn -0 1 0
vn 0.650795162 0.759253323 -4.13774433E-05
vn 0.650795162 0.759253323 -4.13774433E-05
vn 0.650795162 0.759253323 -4.13774433E-05
vn -0 0 -1
vn -0 0 -1
vn -0 0 -1
vn -0 0 -1
vn -0 0 1
vn -0 0 1
vn -0 0 1
vn -0 0 1
vn -0 0 1
vn 1 0 0
vn 1 0 0
vn 1 0 0
vn 1 0 0
vn -0 0 1
vn -0 0 1
vn -0 0 1
vn -0 0 1
vn -0 0 1
vn 1 0 0
vn 1 0 0
vn 1 0 0
vn 1 0 0
vn -0 1 0
vn -0 1 0
vn -0 1 0
vn -0 1 0
vn 1 0 0
vn 1 0 0
vn 1 0 0
vn 1 0 0
vn -0 0 1
vn -0 0 1
vn -0 0 1
vn -0 0 1
vn -1 0 0
vn -1 0 0
vn -1 0 0
vn -1 0 0
vn -0 0 -1
vn -0 0 -1
vn -0 0 -1
vn -0 0 -1
vn 1 0 0
vn 1 0 0
vn 1 0 0
vn 1 0 0
vn -0 0 1
vn -0 0 1
vn -0 0 1
vn -0 0 1
vn -1 0 0
vn -1 0 0
vn -1 0 0
vn -1 0 0
vn -0 0 -1
vn -0 0 -1
vn -0 0 -1
vn -0 0 -1
vn 1 0 0
vn 1 0 0
vn 1 0 0
vn 1 0 0
vn -0 0 1
vn -0 0 1
vn -0 0 1
vn -0 0 1
vn -1 0 0
vn -1 0 0
vn -1 0 0
vn -1 0 0
vn -0 0 -1
vn -0 0 -1
vn -0 0 -1
vn -0 0 -1
vn -0 1 0
vn -0 1 0
vn -0 1 0
vn -0 1 0
vn -0 1 0
vn -0 1 0
vn -0 1 0
vn -0 1 0
vn -0 1 0
vn -0 1 0
vn -0 1 0
vn -0 1 0
vn -0 1 0
vn -0 1 0
vn -0 1 0
vn -0 1 0
vn -0 0 1
vn -0 0 1
vn -0 0 1
vn -0 0 1
vn -1 0 0
vn -1 0 0
vn -1 0 0
vn -1 0 0
vn -0 1 0
vn -0 1 0
vn -0 1 0
vn -0 1 0
vn -0 0 -1
vn -0 0 -1
vn -0 0 -1
vn -0 0 -1
vn -0 0 -1
vn -0 0 -1
vn -0 0 -1
vn -0 0 -1
vn -0 0 -1
vn -0 0 -1
vn -0 0 -1
vn -0 0 -1
vn -0 0 -1
vn -0 0 -1
vn -0 0 -1
vn -0 0 -1
vn -0 0 -1
vn -0 0 -1
vn -0 0 -1
vn -0 0 -1
vn -1 0 0
vn -1 0 0
vn -1 0 0
vn -1 0 0
vn 1 0 0
vn 1 0 0
vn 1 0 0
vn 1 0 0
vn -0 0 -1
vn -0 0 -1
vn -0 0 -1
vn -0 0 -1
vn -1 0 0
vn -1 0 0
vn -1 0 0
vn -1 0 0
vn -1 0 2.42748083E-05
vn -1 0 2.42748083E-05
vn -1 0 2.42748083E-05
vn -1 0 2.42748083E-05
vn -0 0 -1
vn -0 0 -1
vn -0 0 -1
vn -0 0 -1
vn 1 0 0
vn 1 0 0
vn 1 0 0
vn 1 0 0
vn 1 0 0
vn 1 0 0
vn 1 0 0
vn 1 0 0
vn -0 0 -1
vn -0 0 -1
vn -0 0 -1
vn -0 0 -1
vn -1 0 0
vn -1 0 0
vn -1 0 0
vn -1 0 0
vn 1 0 0
vn 1 0 0
vn 1 0 0
vn 1 0 0
vn -0 0 -1
vn -0 0 -1
vn -0 0 -1
vn -0 0 -1
vn -1 0 0
vn -1 0 0
vn -1 0 0
vn -1 0 0
vn 1 0 0
vn 1 0 0
vn 1 0 0
vn 1 0 0
vn -0 0 -1
vn -0 0 -1
vn -0 0 -1
vn -0 0 -1
vn -1 0 0
vn -1 0 0
vn -1 0 0
vn -1 0 0
vn -1 0 0
vn -1 0 0
vn -1 0 0
vn -1 0 0
vn -0 0 -1
vn -0 0 -1
vn -0 0 -1
vn -0 0 -1
vn 1 0 0
vn 1 0 0
vn 1 0 0
vn 1 0 0
vn 1 0 0
vn 1 0 0
vn 1 0 0
vn 1 0 0
vn -0 0 -1
vn -0 0 -1
vn -0 0 -1
vn -0 0 -1
vn -1 0 0
vn -1 0 0
vn -1 0 0
vn -1 0 0
vn 1 0 0
vn 1 0 0
vn 1 0 0
vn 1 0 0
vn -0 0 -1
vn -0 0 -1
vn -0 0 -1
vn -0 0 -1
vn -1 0 0
vn -1 0 0
vn -1 0 0
vn -1 0 0
vn 1 0 0
vn 1 0 0
vn 1 0 0
vn 1 0 0
vn -0 0 -1
vn -0 0 -1
vn -0 0 -1
vn -0 0 -1
vn -1 0 0
vn -1 0 0
vn -1 0 0
vn -1 0 0
vn -1 0 0
vn -1 0 0
vn -1 0 0
vn -1 0 0
vn -0 0 -1
vn -0 0 -1
vn -0 0 -1
vn -0 0 -1
vn 1 0 -7.53522327E-05
vn 1 0 -7.53522327E-05
vn 1 0 -7.53522327E-05
vn 1 0 -7.53522327E-05
vn -0 0 -1
vn -0 0 -1
vn -0 0 -1
vn -0 0 -1
vn -0 0 -1
vn -0 0 -1
vn -0 0 -1
vn -0 0 -1
vn -0 0 -1
vn -0 0 -1
vn -0 0 -1
vn -0 0 -1
vn -0 0 -1
vn -0 0 -1
vn -0 0 -1
vn -0 0 -1
vn 1 0 0
vn 1 0 0
vn 1 0 0
vn 1 0 0
vn -0 0 -1
vn -0 0 -1
vn -0 0 -1
vn -0 0 -1
vn -1 0 4.17352203E-05
vn -1 0 4.17352203E-05
vn -1 0 4.17352203E-05
vn -1 0 4.17352203E-05
vn 1 0 0
vn 1 0 0
vn 1 0 0
vn 1 0 0
vn -0 0 -1
vn -0 0 -1
vn -0 0 -1
vn -0 0 -1
vn -1 0 0
vn -1 0 0
vn -1 0 0
vn -1 0 0
vn -0 0 -1
vn -0 0 -1
vn -0 0 -1
vn -0 0 -1
vn -0 0 -1
vn -0 0 -1
vn -0 0 -1
vn -0 0 -1
vn 1 0 0
vn 1 0 0
vn 1 0 0
vn 1 0 0
vn -0 0 -1
vn -0 0 -1
vn -0 0 -1
vn -0 0 -1
vn -1 0 -1.87910009E-05
vn -1 0 -1.87910009E-05
vn -1 0 -1.87910009E-05
vn -1 0 -1.87910009E-05
vn 0.281496167 -0.00856701285 -0.959524155
vn 0.281496167 -0.00856701285 -0.959524155
vn 0.281496167 -0.00856701285 -0.959524155
vn 0.281496167 -0.00856701285 -0.959524155
vn -0 0 1
vn -0 0 1
vn -0 0 1
vn -0 0 1
vn -0 0 1
vn -0 0 1
vn -0 1 0
vn -0 1 0
vn -0 1 0
vn -0 1 0
vn -0 0 1
vn -0 0 1
vn -0 0 1
vn -0 0 1
vn -0 1 0
vn -0 1 0
vn -0 1 0
vn -0 1 0
vn -0 0 1
vn -0 0 1
vn -0 0 1
vn -0 0 1
vn -0 0 1
vn -0 0 1
vn -0 0 1
vn -0 0 1
vn -0 0 1
vn -0 0 1
vn -0 0 1
vn -0 0 1
vn -0 0 1
vn -0 0 1
vn -0 0 1
vn -0 0 1
vn -0 0 1
vn -0 0 1
vn -0 0 1
vn -0 0 1
vn 1 0 0
vn 1 0 0
vn 1 0 0
vn 1 0 0
vn 1 0 0
vn 1 0 0
vn 1 0 0
vn 1 0 0
vn -0 0 1
vn -0 0 1
vn -0 0 1
vn -0 0 1
vn -1 0 0.000108993569
vn -1 0 0.000108993569
vn -1 0 0.000108993569
vn -1 0 0.000108993569
vn -1 0 4.087259E-05
vn -1 0 4.087259E-05
vn -1 0 4.087259E-05
vn -1 0 4.087259E-05
vn -0 0 1
vn -0 0 1
vn -0 0 1
vn -0 0 1
vn 1 0 0
vn 1 0 0
vn 1 0 0
vn 1 0 0
vn 1 0 -2.72483921E-05
vn 1 0 -2.72483921E-05
vn 1 0 -2.72483921E-05
vn 1 0 -2.72483921E-05
vn -0 0 1
vn -0 0 1
vn -0 0 1
vn -0 0 1
vn -1 0 0.000108993569
vn -1 0 0.000108993569
vn -1 0 0.000108993569
vn -1 0 0.000108993569
vn -1 0 0
vn -1 0 0
vn -1 0 0
vn -1 0 0
vn -0 0 1
vn -0 0 1
vn -0 0 1
vn -0 0 1
vn 1 0 0
vn 1 0 0
vn 1 0 0
vn 1 0 0
vn 1 0 0
vn 1 0 0
vn 1 0 0
vn 1 0 0
vn -0 0 1
vn -0 0 1
vn -0 0 1
vn -0 0 1
vn -1 0 0
vn -1 0 0
vn -1 0 0
vn -1 0 0
vn 1 0 0
vn 1 0 0
vn 1 0 0
vn 1 0 0
vn -0 0 1
vn -0 0 1
vn -0 0 1
vn -0 0 1
vn -1 0 0
vn -1 0 0
vn -1 0 0
vn -1 0 0
vn 1 0 0
vn 1 0 0
vn 1 0 0
vn 1 0 0
vn -0 0 1
vn -0 0 1
vn -0 0 1
vn -0 0 1
vn -1 0 4.087259E-05
vn -1 0 4.087259E-05
vn -1 0 4.087259E-05
vn -1 0 4.087259E-05
vn -0 0 1
vn -0 0 1
vn -0 0 1
vn -0 0 1
vn 1 0 2.72483921E-05
vn 1 0 2.72483921E-05
vn 1 0 2.72483921E-05
vn 1 0 2.72483921E-05
vn -0 0 1
vn -0 0 1
vn -0 0 1
vn -0 0 1
vn -1 0 2.72483921E-05
vn -1 0 2.72483921E-05
vn -1 0 2.72483921E-05
vn -1 0 2.72483921E-05
vn 1 0 -8.17451801E-05
vn 1 0 -8.17451801E-05
vn 1 0 -8.17451801E-05
vn 1 0 -8.17451801E-05
vn -0 0 1
vn -0 0 1
vn -0 0 1
vn -0 0 1
vn -1 0 2.72483921E-05
vn -1 0 2.72483921E-05
vn -1 0 2.72483921E-05
vn -1 0 2.72483921E-05
vn 1 0 -2.72483921E-05
vn 1 0 -2.72483921E-05
vn 1 0 -2.72483921E-05
vn 1 0 -2.72483921E-05
vn -0 0 1
vn -0 0 1
vn -0 0 1
vn -0 0 1
vn -1 0 2.72483921E-05
vn -1 0 2.72483921E-05
vn -1 0 2.72483921E-05
vn -1 0 2.72483921E-05
vn -0 1 0
vn -0 1 0
vn -0 1 0
vn -0 1 0
vn -1 0 0
vn -1 0 0
vn -1 0 0
vn -1 0 0
vn -1 0 0
vn -1 0 0
vn -1 0 0
vn -1 0 0
vn -1 0 0
vn -1 0 0
vn -1 1.271565E-05 0
vn -1 1.271565E-05 0
vn -1 1.271565E-05 0
vn -1 1.271565E-05 0
vn -1 0 0
vn -1 0 0
vn 1.43067336E-05 0 -1
vn 1.43067336E-05 0 -1
vn 1.43067336E-05 0 -1
vn 1.43067336E-05 0 -1
vn -1 0 0
vn -1 0 0
vn -1 0 0
vn -1 0 1.32685109E-05
vn -1 0 1.32685109E-05
vn -1 0 1.32685109E-05
vn -1 0 0
vn -1 0 0
vn -1 0 0
vn -1 0 -1.32685E-05
vn -1 0 -1.32685E-05
vn -1 0 -1.32685E-05
vn -0 0 1
vn -0 0 1
vn -0 0 1
vn -0 0 1
vn -0 0 1
vn -0 0 1
vn -0 0 1
vn -0 0 1
vn 1.19221586E-05 0 -1
vn 1.19221586E-05 0 -1
vn 1.19221586E-05 0 -1
vn 1.19221586E-05 0 -1
vn -0 0 -1
vn -0 0 -1
vn -0 0 -1
vn -0 0 -1
vn -0 0 -1
vn -0 0 -1
vn -0 0 -1
vn -0 0 -1
vn -0 0 -1
vn 2.9805693E-05 0 1
vn 2.9805693E-05 0 1
vn 2.9805693E-05 0 1
vn 2.9805693E-05 0 1
vn 2.86126924E-05 0 1
vn 2.86126924E-05 0 1
vn 2.86126924E-05 0 1
vn 2.86126924E-05 0 1
vn -0 1 0
vn -0 1 0
vn -0 1 0
vn -0 1 0
vn 1 0 0
vn 1 0 0
vn 1 0 0
vn 1 0 0
vn -0 0 -1
vn -0 0 -1
vn -0 0 -1
vn -0 0 -1
vn -3.33805583E-05 0 1
vn -3.33805583E-05 0 1
vn -3.33805583E-05 0 1
vn -3.33805583E-05 0 1
vn 1 0 0
vn 1 0 0
vn 1 0 0
vn 1 0 0
vn 1 0 0
vn 1 0 0
vn 1 0 0
vn 1 0 0
vn 1 0 0
vn 1 0 0
vn 1 0 -1.06148127E-05
vn 1 0 -1.06148127E-05
vn -0 0 -1
vn -0 0 -1
vn -0 0 -1
vn -0 0 -1
vn 1 0 0
vn 1 0 0
vn 1 0 0
vn 1 0 0
vn -0 0 -1
vn -0 0 -1
vn -0 0 -1
vn -0 0 -1
vn -0 0 1
vn -0 0 1
vn -0 0 1
vn -0 0 1
vn -4.29155298E-05 0 1
vn -4.29155298E-05 0 1
vn -4.29155298E-05 0 1
vn -4.29155298E-05 0 1
vn 1 0 0
vn 1 0 0
vn 1 0 0
vn 1 0 0
vn -1 0 0
vn -1 0 0
vn -1 0 0
vn -1 0 0
vn 1 0 0
vn 1 0 0
vn 1 0 0
vn 1 0 0
vn -0 0 1
vn -0 0 1
vn -0 0 1
vn -0 0 1
vn -0 0 1
vn -0 0 1
vn -0 0 1
vn -0 0 1
vn -0 0 1
vn -0 0 1
vn -0 0 1
vn -0 0 1
vn -0 0 1
vn -0 0 1
vn -0 0 1
vn -0 0 1
vn -0 0 1
vn -0 0 1
vn -0 0 1
vn -0 0 1
vn -0.141417637 0 0.989950061
vn -0.141417637 0 0.989950061
vn -0.141417637 0 0.989950061
vn -0.141417637 0 0.989950061
vn -0 0 1
vn -0 0 1
vn -0 0 1
vn -0 0 1
vn -1 0 0
vn -1 0 0
vn -1 0 0
vn -1 0 0
vn -1 0 0
vn -1 0 0
vn -1 0 0
vn -1 0 0
vn -1 0 0
vn -1 0 0
vn -1 0 0
vn -1 0 0
vn -0 0 -1
vn -0 0 -1
vn -0 0 -1
vn -0 0 -1
vn -0 0 -1
vn -0 0 -1
vn -0 0 -1
vn -0 0 -1
vn -0 0 -1
vn -0 0 -1
vn -0 0 -1
vn -0 0 -1
vn -0 0 1
vn -0 0 1
vn -0 0 1
vn -0 0 1
vn -1 0 0
vn -1 0 0
vn -1 0 0
vn -1 0 0
vn -1 0 0
vn -1 0 0
vn 1 0 -5.35395484E-05
vn 1 0 -5.35395484E-05
vn 1 0 -5.35395484E-05
vn 1 0 0
vn 1 0 0
vn 1 0 0
vn 1 0 0
vn 1 0 0
vn 1 0 0
vn 1 0 0
vn -0 1 0
vn -0 1 0
vn -0 1 0
vn -0 1 0
vn -0 1 0
vn -0 1 0
vn -0 1 0
vn -0 1 0
vn -0 1 0
vn -0 1 0
vn -0 1 0
vn -0 1 0
vn -0 1 0
vn -0 1 0
vn -0 0 -1
vn -0 0 -1
vn -0 0 -1
vn -0 0 -1
vn -1 0 0
vn -1 0 0
vn -1 0 0
vn -1 0 0
vn -0 0 -1
vn -0 0 -1
vn -0 0 -1
vn -0 0 -1
vn -0 0 -1
vn -0 0 -1
vn -0 0 -1
vn -0 0 -1
vn -0 0 -1
vn -0 0 -1
vn -0 0 -1
vn -1 0 0
vn -1 0 0
vn -1 0 0
vn -1 0 0
vn -0.0325031281 0.999471605 0
vn -0.0325031281 0.999471605 0
vn -0.0325031281 0.999471605 0
vn -0.0325031281 0.999471605 0
vn -0 -1 0
vn -0 -1 0
vn -0 -1 0
vn -0 -1 0
vn -0 -1 0
vn -0 -1 0
vn -0 -1 0
vn -0 -1 0
vn -0 0 1
vn -0 0 1
vn -0 0 1
vn -0 0 1
vn -0 0 1
vn -0 0 -1
vn -0 0 -1
vn -0 0 -1
vn -0 0 -1
g trznice_LP_0
f 3/3/3 2/2/2 1/1/1
f 6/6/6 5/5/5 4/4/4
f 5/5/5 8/8/8 7/7/7
f 8/8/8 9/9/9 7/7/7
f 9/9/9 10/10/10 7/7/7
f 7/7/7 10/10/10 11/11/11
f 14/14/14 13/13/13 12/12/12
f 17/17/17 16/16/16 15/15/15
f 20/20/20 19/19/19 18/18/18
f 21/21/21 20/20/20 18/18/18
f 24/24/24 23/23/23 22/22/22
f 25/25/25 23/23/23 24/24/24
f 23/23/23 25/25/25 26/26/26
f 29/29/29 28/28/28 27/27/27
f 30/30/30 29/29/29 27/27/27
f 33/33/33 32/32/32 31/31/31
f 34/34/34 31/31/31 32/32/32
f 35/35/35 34/34/34 32/32/32
f 38/38/38 37/37/37 36/36/36
f 39/39/39 38/38/38 36/36/36
f 42/42/42 41/41/41 40/40/40
f 43/43/43 42/42/42 40/40/40
f 46/46/46 45/45/45 44/44/44
f 47/47/47 46/46/46 44/44/44
f 50/50/50 49/49/49 48/48/48
f 51/51/51 50/50/50 48/48/48
f 54/54/54 53/53/53 52/52/52
f 55/55/55 54/54/54 52/52/52
f 58/58/58 57/57/57 56/56/56
f 59/59/59 58/58/58 56/56/56
f 62/62/62 61/61/61 60/60/60
f 63/63/63 62/62/62 60/60/60
f 66/66/66 65/65/65 64/64/64
f 67/67/67 66/66/66 64/64/64
f 70/70/70 69/69/69 68/68/68
f 71/71/71 70/70/70 68/68/68
f 74/74/74 73/73/73 72/72/72
f 75/75/75 74/74/74 72/72/72
f 78/78/78 77/77/77 76/76/76
f 79/79/79 78/78/78 76/76/76
f 82/82/82 81/81/81 80/80/80
f 83/83/83 82/82/82 80/80/80
f 86/86/86 85/85/85 84/84/84
f 87/87/87 86/86/86 84/84/84
f 90/90/90 89/89/89 88/88/88
f 91/91/91 90/90/90 88/88/88
f 94/94/94 93/93/93 92/92/92
f 95/95/95 94/94/94 92/92/92
f 98/98/98 97/97/97 96/96/96
f 99/99/99 98/98/98 96/96/96
f 102/102/102 101/101/101 100/100/100
f 101/101/101 103/103/103 100/100/100
f 104/104/104 103/103/103 101/101/101
f 105/105/105 104/104/104 101/101/101
f 104/104/104 105/105/105 106/106/106
f 107/107/107 104/104/104 106/106/106
f 110/110/110 109/109/109 108/108/108
f 111/111/111 110/110/110 108/108/108
f 114/114/114 113/113/113 112/112/112
f 115/115/115 114/114/114 112/112/112
f 118/118/118 117/117/117 116/116/116
f 119/119/119 118/118/118 116/116/116
f 122/122/122 121/121/121 120/120/120
f 123/123/123 122/122/122 120/120/120
f 126/126/126 125/125/125 124/124/124
f 127/127/127 126/126/126 124/124/124
f 130/130/130 129/129/129 128/128/128
f 131/131/131 130/130/130 128/128/128
f 134/134/134 133/133/133 132/132/132
f 135/135/135 134/134/134 132/132/132
f 138/138/138 137/137/137 136/136/136
f 139/139/139 138/138/138 136/136/136
f 142/142/142 141/141/141 140/140/140
f 143/143/143 142/142/142 140/140/140
f 146/146/146 145/145/145 144/144/144
f 147/147/147 146/146/146 144/144/144
f 150/150/150 149/149/149 148/148/148
f 151/151/151 150/150/150 148/148/148
f 154/154/154 153/153/153 152/152/152
f 155/155/155 154/154/154 152/152/152
f 158/158/158 157/157/157 156/156/156
f 159/159/159 158/158/158 156/156/156
f 162/162/162 161/161/161 160/160/160
f 163/163/163 162/162/162 160/160/160
f 166/166/166 165/165/165 164/164/164
f 167/167/167 166/166/166 164/164/164
f 170/170/170 169/169/169 168/168/168
f 171/171/171 170/170/170 168/168/168
f 174/174/174 173/173/173 172/172/172
f 175/175/175 174/174/174 172/172/172
f 178/178/178 177/177/177 176/176/176
f 179/179/179 178/178/178 176/176/176
f 182/182/182 181/181/181 180/180/180
f 183/183/183 182/182/182 180/180/180
f 186/186/186 185/185/185 184/184/184
f 187/187/187 186/186/186 184/184/184
f 190/190/190 189/189/189 188/188/188
f 191/191/191 190/190/190 188/188/188
f 194/194/194 193/193/193 192/192/192
f 195/195/195 194/194/194 192/192/192
f 198/198/198 197/197/197 196/196/196
f 199/199/199 198/198/198 196/196/196
f 202/202/202 201/201/201 200/200/200
f 203/203/203 202/202/202 200/200/200
f 206/206/206 205/205/205 204/204/204
f 207/207/207 206/206/206 204/204/204
f 210/210/210 209/209/209 208/208/208
f 211/211/211 210/210/210 208/208/208
f 214/214/214 213/213/213 212/212/212
f 215/215/215 214/214/214 212/212/212
f 218/218/218 217/217/217 216/216/216
f 219/219/219 218/218/218 216/216/216
f 222/222/222 221/221/221 220/220/220
f 223/223/223 222/222/222 220/220/220
f 226/226/226 225/225/225 224/224/224
f 227/227/227 226/226/226 224/224/224
f 230/230/230 229/229/229 228/228/228
f 231/231/231 230/230/230 228/228/228
f 234/234/234 233/233/233 232/232/232
f 235/235/235 234/234/234 232/232/232
f 238/238/238 237/237/237 236/236/236
f 239/239/239 238/238/238 236/236/236
f 242/242/242 241/241/241 240/240/240
f 243/243/243 242/242/242 240/240/240
f 246/246/246 245/245/245 244/244/244
f 247/247/247 246/246/246 244/244/244
f 250/250/250 249/249/249 248/248/248
f 251/251/251 250/250/250 248/248/248
f 254/254/254 253/253/253 252/252/252
f 255/255/255 254/254/254 252/252/252
f 258/258/258 257/257/257 256/256/256
f 259/259/259 258/258/258 256/256/256
f 262/262/262 261/261/261 260/260/260
f 263/263/263 262/262/262 260/260/260
f 266/266/266 265/265/265 264/264/264
f 267/267/267 266/266/266 264/264/264
f 270/270/270 269/269/269 268/268/268
f 271/271/271 270/270/270 268/268/268
f 274/274/274 273/273/273 272/272/272
f 275/275/275 274/274/274 272/272/272
f 278/278/278 277/277/277 276/276/276
f 279/279/279 278/278/278 276/276/276
f 282/282/282 281/281/281 280/280/280
f 283/283/283 282/282/282 280/280/280
f 286/286/286 285/285/285 284/284/284
f 287/287/287 286/286/286 284/284/284
f 290/290/290 289/289/289 288/288/288
f 291/291/291 290/290/290 288/288/288
f 294/294/294 293/293/293 292/292/292
f 295/295/295 294/294/294 292/292/292
f 298/298/298 297/297/297 296/296/296
f 299/299/299 298/298/298 296/296/296
f 302/302/302 301/301/301 300/300/300
f 303/303/303 302/302/302 300/300/300
f 306/306/306 305/305/305 304/304/304
f 307/307/307 306/306/306 304/304/304
f 310/310/310 309/309/309 308/308/308
f 311/311/311 310/310/310 308/308/308
f 314/314/314 313/313/313 312/312/312
f 315/315/315 314/314/314 312/312/312
f 318/318/318 317/317/317 316/316/316
f 319/319/319 318/318/318 316/316/316
f 322/322/322 321/321/321 320/320/320
f 323/323/323 322/322/322 320/320/320
f 326/326/326 325/325/325 324/324/324
f 327/327/327 326/326/326 324/324/324
f 330/330/330 329/329/329 328/328/328
f 329/329/329 331/331/331 328/328/328
f 331/331/331 329/329/329 332/332/332
f 329/329/329 333/333/333 332/332/332
f 336/336/336 335/335/335 334/334/334
f 337/337/337 336/336/336 334/334/334
f 340/340/340 339/339/339 338/338/338
f 341/341/341 340/340/340 338/338/338
f 344/344/344 343/343/343 342/342/342
f 345/345/345 344/344/344 342/342/342
f 348/348/348 347/347/347 346/346/346
f 349/349/349 348/348/348 346/346/346
f 352/352/352 351/351/351 350/350/350
f 353/353/353 352/352/352 350/350/350
f 356/356/356 355/355/355 354/354/354
f 357/357/357 356/356/356 354/354/354
f 360/360/360 359/359/359 358/358/358
f 361/361/361 360/360/360 358/358/358
f 364/364/364 363/363/363 362/362/362
f 365/365/365 364/364/364 362/362/362
f 368/368/368 367/367/367 366/366/366
f 369/369/369 368/368/368 366/366/366
f 372/372/372 371/371/371 370/370/370
f 373/373/373 372/372/372 370/370/370
f 376/376/376 375/375/375 374/374/374
f 377/377/377 376/376/376 374/374/374
f 380/380/380 379/379/379 378/378/378
f 381/381/381 380/380/380 378/378/378
f 384/384/384 383/383/383 382/382/382
f 385/385/385 384/384/384 382/382/382
f 388/388/388 387/387/387 386/386/386
f 389/389/389 388/388/388 386/386/386
f 392/392/392 391/391/391 390/390/390
f 393/393/393 392/392/392 390/390/390
f 396/396/396 395/395/395 394/394/394
f 397/397/397 396/396/396 394/394/394
f 400/400/400 399/399/399 398/398/398
f 401/401/401 400/400/400 398/398/398
f 404/404/404 403/403/403 402/402/402
f 405/405/405 404/404/404 402/402/402
f 408/408/408 407/407/407 406/406/406
f 409/409/409 408/408/408 406/406/406
f 412/412/412 411/411/411 410/410/410
f 413/413/413 412/412/412 410/410/410
f 416/416/416 415/415/415 414/414/414
f 417/417/417 416/416/416 414/414/414
f 420/420/420 419/419/419 418/418/418
f 421/421/421 420/420/420 418/418/418
f 424/424/424 423/423/423 422/422/422
f 425/425/425 424/424/424 422/422/422
f 428/428/428 427/427/427 426/426/426
f 429/429/429 428/428/428 426/426/426
f 432/432/432 431/431/431 430/430/430
f 433/433/433 432/432/432 430/430/430
f 436/436/436 435/435/435 434/434/434
f 437/437/437 436/436/436 434/434/434
f 440/440/440 439/439/439 438/438/438
f 441/441/441 440/440/440 438/438/438
f 444/444/444 443/443/443 442/442/442
f 445/445/445 444/444/444 442/442/442
f 448/448/448 447/447/447 446/446/446
f 449/449/449 448/448/448 446/446/446
f 452/452/452 451/451/451 450/450/450
f 453/453/453 452/452/452 450/450/450
f 456/456/456 455/455/455 454/454/454
f 457/457/457 456/456/456 454/454/454
f 460/460/460 459/459/459 458/458/458
f 461/461/461 460/460/460 458/458/458
f 464/464/464 463/463/463 462/462/462
f 465/465/465 464/464/464 462/462/462
f 468/468/468 467/467/467 466/466/466
f 469/469/469 468/468/468 466/466/466
f 472/472/472 471/471/471 470/470/470
f 473/473/473 472/472/472 470/470/470
f 476/476/476 475/475/475 474/474/474
f 477/477/477 476/476/476 474/474/474
f 480/480/480 479/479/479 478/478/478
f 481/481/481 480/480/480 478/478/478
f 484/484/484 483/483/483 482/482/482
f 485/485/485 484/484/484 482/482/482
f 488/488/488 487/487/487 486/486/486
f 489/489/489 488/488/488 486/486/486
f 492/492/492 491/491/491 490/490/490
f 493/493/493 492/492/492 490/490/490
f 496/496/496 495/495/495 494/494/494
f 497/497/497 496/496/496 494/494/494
f 500/500/500 499/499/499 498/498/498
f 501/501/501 500/500/500 498/498/498
f 504/504/504 503/503/503 502/502/502
f 505/505/505 504/504/504 502/502/502
f 508/508/508 507/507/507 506/506/506
f 509/509/509 508/508/508 506/506/506
f 509/509/509 510/510/510 508/508/508
f 510/510/510 511/511/511 508/508/508
f 511/511/511 510/510/510 512/512/512
f 513/513/513 511/511/511 512/512/512
f 516/516/516 515/515/515 514/514/514
f 517/517/517 516/516/516 514/514/514
f 520/520/520 519/519/519 518/518/518
f 518/518/518 519/519/519 521/521/521
f 519/519/519 522/522/522 521/521/521
f 521/521/521 522/522/522 523/523/523
f 526/526/526 525/525/525 524/524/524
f 526/526/526 524/524/524 527/527/527
f 528/528/528 526/526/526 527/527/527
f 528/528/528 527/527/527 529/529/529
f 532/532/532 531/531/531 530/530/530
f 533/533/533 532/532/532 530/530/530
f 533/533/533 530/530/530 534/534/534
f 535/535/535 533/533/533 534/534/534
f 535/535/535 534/534/534 536/536/536
f 537/537/537 535/535/535 536/536/536
f 540/540/540 539/539/539 538/538/538
f 541/541/541 540/540/540 538/538/538
f 544/544/544 543/543/543 542/542/542
f 543/543/543 545/545/545 542/542/542
f 542/542/542 545/545/545 546/546/546
f 545/545/545 547/547/547 546/546/546
f 546/546/546 549/549/549 548/548/548
f 549/549/549 550/550/550 548/548/548
f 553/553/553 552/552/552 551/551/551
f 554/554/554 553/553/553 551/551/551
f 557/557/557 556/556/556 555/555/555
f 558/558/558 557/557/557 555/555/555
f 561/561/561 560/560/560 559/559/559
f 562/562/562 561/561/561 559/559/559
f 565/565/565 564/564/564 563/563/563
f 566/566/566 565/565/565 563/563/563
f 569/569/569 568/568/568 567/567/567
f 570/570/570 569/569/569 567/567/567
f 573/573/573 572/572/572 571/571/571
f 574/574/574 573/573/573 571/571/571
f 577/577/577 576/576/576 575/575/575
f 578/578/578 577/577/577 575/575/575
f 581/581/581 580/580/580 579/579/579
f 580/580/580 582/582/582 579/579/579
f 583/583/583 582/582/582 580/580/580
f 584/584/584 583/583/583 580/580/580
f 583/583/583 584/584/584 585/585/585
f 584/584/584 586/586/586 585/585/585
f 589/589/589 588/588/588 587/587/587
f 590/590/590 589/589/589 587/587/587
f 593/593/593 592/592/592 591/591/591
f 594/594/594 593/593/593 591/591/591
f 597/597/597 596/596/596 595/595/595
f 598/598/598 597/597/597 595/595/595
f 601/601/601 600/600/600 599/599/599
f 602/602/602 601/601/601 599/599/599
f 605/605/605 604/604/604 603/603/603
f 606/606/606 605/605/605 603/603/603
f 609/609/609 608/608/608 607/607/607
f 610/610/610 609/609/609 607/607/607
f 613/613/613 612/612/612 611/611/611
f 614/614/614 613/613/613 611/611/611
f 617/617/617 616/616/616 615/615/615
f 618/618/618 617/617/617 615/615/615
f 621/621/621 620/620/620 619/619/619
f 622/622/622 621/621/621 619/619/619
f 625/625/625 624/624/624 623/623/623
f 626/626/626 625/625/625 623/623/623
f 629/629/629 628/628/628 627/627/627
f 630/630/630 629/629/629 627/627/627
f 633/633/633 632/632/632 631/631/631
f 634/634/634 633/633/633 631/631/631
f 637/637/637 636/636/636 635/635/635
f 638/638/638 637/637/637 635/635/635
f 641/641/641 640/640/640 639/639/639
f 642/642/642 641/641/641 639/639/639
f 645/645/645 644/644/644 643/643/643
f 646/646/646 645/645/645 643/643/643
f 649/649/649 648/648/648 647/647/647
f 647/647/647 650/650/650 649/649/649
f 647/647/647 651/651/651 650/650/650
f 651/651/651 652/652/652 650/650/650
f 655/655/655 654/654/654 653/653/653
f 653/653/653 656/656/656 655/655/655
f 656/656/656 657/657/657 655/655/655
f 657/657/657 658/658/658 655/655/655
f 661/661/661 660/660/660 659/659/659
f 662/662/662 661/661/661 659/659/659
f 665/665/665 664/664/664 663/663/663
f 666/666/666 665/665/665 663/663/663
f 669/669/669 668/668/668 667/667/667
f 670/670/670 669/669/669 667/667/667
f 673/673/673 672/672/672 671/671/671
f 674/674/674 673/673/673 671/671/671
f 677/677/677 676/676/676 675/675/675
f 678/678/678 676/676/676 677/677/677
f 678/678/678 677/677/677 679/679/679
f 680/680/680 678/678/678 679/679/679
f 683/683/683 682/682/682 681/681/681
f 683/683/683 684/684/684 682/682/682
f 682/682/682 684/684/684 685/685/685
f 684/684/684 686/686/686 685/685/685
f 689/689/689 688/688/688 687/687/687
f 690/690/690 689/689/689 687/687/687
f 693/693/693 692/692/692 691/691/691
f 694/694/694 693/693/693 691/691/691
f 694/694/694 691/691/691 695/695/695
f 696/696/696 694/694/694 695/695/695
f 699/699/699 698/698/698 697/697/697
f 700/700/700 699/699/699 697/697/697
f 703/703/703 702/702/702 701/701/701
f 704/704/704 703/703/703 701/701/701
f 707/707/707 706/706/706 705/705/705
f 708/708/708 707/707/707 705/705/705
f 711/711/711 710/710/710 709/709/709
f 712/712/712 711/711/711 709/709/709
f 715/715/715 714/714/714 713/713/713
f 716/716/716 715/715/715 713/713/713
f 719/719/719 718/718/718 717/717/717
f 720/720/720 719/719/719 717/717/717
f 722/722/722 721/721/721 720/720/720
f 723/723/723 722/722/722 720/720/720
f 726/726/726 725/725/725 724/724/724
f 727/727/727 726/726/726 724/724/724
f 730/730/730 729/729/729 728/728/728
f 731/731/731 730/730/730 728/728/728
f 734/734/734 733/733/733 732/732/732
f 735/735/735 734/734/734 732/732/732
f 738/738/738 737/737/737 736/736/736
f 739/739/739 738/738/738 736/736/736
f 742/742/742 741/741/741 740/740/740
f 740/740/740 743/743/743 742/742/742
f 740/740/740 744/744/744 743/743/743
f 747/747/747 746/746/746 745/745/745
f 748/748/748 747/747/747 745/745/745
