g building_regina_LP
v -0.098077774 -0.00955963135 21.0128517
v -0.098077774 18.1904411 21.0128517
v 7.90192223 18.1904411 21.0128517
v 7.90192223 -0.00955963135 21.0128517
v -0.098077774 7.1904397 21.0128517
v -0.098077774 -0.00955963135 21.0128517
v -15.148077 -0.00955963135 21.0128517
v -15.148077 7.1904397 21.0128517
v -16.648077 7.1904397 21.0128517
v -16.648077 -0.00955963135 21.0128517
v 7.40192223 20.9904404 1.25532818
v 7.40192223 -0.00955963135 1.25532818
v -15.148077 -0.00955963135 1.25532818
v -15.148077 20.9904404 1.25532818
v -0.098077774 18.1904411 0.812853336
v -0.098077774 18.1904411 21.0128517
v -0.098077774 -0.00955963135 21.0128517
v -0.098077774 -0.00955963135 0.812852859
v -16.648077 8.19043922 20.9128532
v -0.098077774 8.19043922 20.9128532
v -0.098077774 7.1904397 21.0128517
v -16.648077 7.1904397 21.0128517
v -15.148077 17.7904396 -6.74070501
v -15.148077 -0.00955963135 -22.6427498
v -15.148077 17.7904396 -22.6427498
v -15.148077 -0.00955963135 1.25532818
v -15.148077 20.9904404 1.25532818
v -15.148077 20.9904404 -6.74070549
v -16.648077 -0.00955963135 21.0128517
v -16.648077 7.1904397 16.6360741
v -16.648077 7.1904397 21.0128517
v -16.648077 -0.00955963135 16.6360741
v -16.648077 4.19044018 10.2592945
v -16.648077 -0.00955963135 10.2592945
v -7.57807684 17.7904396 -6.74070549
v -11.148077 17.7904396 -22.6427498
v -7.57807684 17.7904396 -19.1427498
v -15.148077 17.7904396 -6.74070501
v -15.148077 17.7904396 -22.6427498
v -15.148077 20.9904404 1.25532818
v -15.148077 20.9904404 -6.74070549
v 7.40192223 20.9904404 -6.74070549
v 7.40192223 20.9904404 1.25532818
v 4.20192146 21.39044 -1.64424992
v 2.0019207 21.39044 -1.64424992
v 2.0019207 21.39044 -3.84112716
v 4.20192146 21.39044 -3.84112716
v 2.0019207 20.9904404 -1.64424992
v 2.0019207 21.39044 -1.64424992
v 4.20192146 21.39044 -1.64424992
v 4.20192146 20.9904404 -1.64424992
v 4.20192146 20.9904404 -1.64424992
v 4.20192146 21.39044 -1.64424992
v 4.20192146 21.39044 -3.84112716
v 4.20192146 20.9904404 -3.84112716
v 4.20192146 20.9904404 -3.84112716
v 4.20192146 21.39044 -3.84112716
v 2.0019207 21.39044 -3.84112716
v 2.0019207 20.9904404 -3.84112716
v 2.0019207 20.9904404 -3.84112716
v 2.0019207 21.39044 -3.84112716
v 2.0019207 21.39044 -1.64424992
v 2.0019207 20.9904404 -1.64424992
v -0.098077774 7.1904397 16.6360741
v -0.098077774 7.1904397 21.0128517
v -15.148077 7.1904397 21.0128517
v -15.148077 7.1904397 16.6360741
v -0.098077774 7.1904397 12.2592945
v -15.148077 7.1904397 12.2592945
v -16.648077 7.1904397 16.6360741
v -16.648077 7.1904397 21.0128517
v -16.648077 7.1904397 16.6360741
v -16.648077 4.19044018 10.2592945
v -15.148077 4.19044018 10.2592945
v -15.148077 7.1904397 16.6360741
v -7.57807732 13.4904404 -17.1402397
v -6.83225346 13.4904404 -13.9394321
v -6.83225346 13.4904404 -10.7386236
v -7.57807732 13.4904404 -7.53781605
v -7.57807732 10.1904411 -17.1402397
v -7.57807732 10.1904402 -7.53781605
v -6.83225346 10.1904402 -10.7386236
v -6.83225346 10.1904402 -13.9394321
v -0.098077774 18.1904411 21.0128517
v -0.098077774 18.1904411 0.812853336
v 7.90192223 18.1904411 0.812852383
v 7.90192223 18.1904411 21.0128517
v -6.83225346 13.4904404 -10.7386236
v -6.83225346 13.4904404 -13.9394321
v -6.83225346 10.1904402 -13.9394321
v -6.83225346 10.1904402 -10.7386236
v -7.57807732 13.4904404 -7.53781605
v -6.83225346 13.4904404 -10.7386236
v -6.83225346 10.1904402 -10.7386236
v -7.57807732 10.1904402 -7.53781605
v -7.57807732 10.1904411 -17.1402397
v -6.83225346 10.1904402 -13.9394321
v -6.83225346 13.4904404 -13.9394321
v -7.57807732 13.4904404 -17.1402397
v -15.148077 6.5904398 12.2592945
v -0.098077774 6.5904398 12.2592945
v -0.098077774 7.1904397 12.2592945
v -15.148077 7.1904397 12.2592945
v -15.148077 4.19044018 10.2592945
v -16.648077 4.19044018 10.2592945
v -16.648077 -0.00955963135 10.2592945
v -15.148077 -0.00955963135 10.2592945
v -15.148077 -0.00955963135 13.2592945
v -0.098077774 -0.00955963135 13.2592945
v -0.098077774 6.5904398 13.2592945
v -15.148077 6.5904398 13.2592945
v -15.148077 6.5904398 12.2592945
v -15.148077 6.5904398 13.2592945
v -0.098077774 6.5904398 13.2592945
v -0.098077774 6.5904398 12.2592945
v -7.57807684 -0.00955963135 -6.74070549
v 7.40192223 -0.00955963135 -6.74070549
v 7.40192223 20.9904404 -6.74070549
v -7.57807684 17.7904396 -6.74070549
v -15.148077 20.9904404 -6.74070549
v -15.148077 17.7904396 -6.74070501
v -15.148077 17.7904396 -22.6427498
v -15.148077 -0.00955963135 -22.6427498
v -11.148077 -0.00955963135 -22.6427498
v -11.148077 17.7904396 -22.6427498
v -10.6480761 14.5904398 1.25532818
v -10.6480761 13.5904398 1.25532818
v -10.6480761 13.5904398 2.25532818
v -10.6480761 14.5904398 2.25532818
v -13.2480774 13.5904398 1.25532818
v -13.2480774 14.5904398 1.25532818
v -13.2480774 14.5904398 2.25532818
v -13.2480774 13.5904398 2.25532818
v -13.2480774 14.5904398 2.25532818
v -10.6480761 14.5904398 2.25532818
v -10.6480761 13.5904398 2.25532818
v -13.2480774 13.5904398 2.25532818
v -10.6480761 13.5904398 2.25532818
v -10.6480761 13.5904398 1.25532818
v -10.6480761 13.39044 1.25532818
v -10.6480761 13.39044 2.25532818
v -13.2480774 13.5904398 2.25532818
v -10.6480761 13.5904398 2.25532818
v -10.6480761 13.39044 2.25532818
v -13.2480774 13.39044 2.25532818
v -13.2480774 13.5904398 1.25532818
v -13.2480774 13.5904398 2.25532818
v -13.2480774 13.39044 2.25532818
v -13.2480774 13.39044 1.25532818
v -13.2480774 13.5904398 1.25532818
v -13.2480774 13.5904398 2.25532818
v -10.6480761 13.5904398 2.25532818
v -10.6480761 13.5904398 1.25532818
v -5.84807777 14.5904398 1.25532818
v -5.84807682 13.5904398 1.25532818
v -5.84807777 13.5904398 2.25532818
v -5.84807777 14.5904398 2.25532818
v -8.44807816 13.5904398 1.25532818
v -8.44807816 14.5904398 1.25532818
v -8.44807816 14.5904398 2.25532818
v -8.44807816 13.5904398 2.25532818
v -8.44807816 14.5904398 2.25532818
v -5.84807777 14.5904398 2.25532818
v -5.84807777 13.5904398 2.25532818
v -8.44807816 13.5904398 2.25532818
v -5.84807777 13.5904398 2.25532818
v -5.84807682 13.5904398 1.25532818
v -5.84807682 13.39044 1.25532818
v -5.84807777 13.39044 2.25532818
v -8.44807816 13.5904398 2.25532818
v -5.84807777 13.5904398 2.25532818
v -5.84807777 13.39044 2.25532818
v -8.44807816 13.39044 2.25532818
v -8.44807816 13.5904398 1.25532818
v -8.44807816 13.5904398 2.25532818
v -8.44807816 13.39044 2.25532818
v -8.44807816 13.39044 1.25532818
v -1.04807663 14.5904398 1.25532818
v -1.04807568 13.5904398 1.25532818
v -1.04807663 13.5904398 2.25532818
v -1.04807663 14.5904398 2.25532818
v -3.64807701 13.5904398 1.25532818
v -3.64807701 14.5904398 1.25532818
v -3.64807701 14.5904398 2.25532818
v -3.64807701 13.5904398 2.25532818
v -3.64807701 14.5904398 2.25532818
v -1.04807663 14.5904398 2.25532818
v -1.04807663 13.5904398 2.25532818
v -3.64807701 13.5904398 2.25532818
v -1.04807663 13.5904398 2.25532818
v -1.04807568 13.5904398 1.25532818
v -1.04807568 13.39044 1.25532818
v -1.04807663 13.39044 2.25532818
v -3.64807701 13.5904398 2.25532818
v -1.04807663 13.5904398 2.25532818
v -1.04807663 13.39044 2.25532818
v -3.64807701 13.39044 2.25532818
v -3.64807701 13.5904398 1.25532818
v -3.64807701 13.5904398 2.25532818
v -3.64807701 13.39044 2.25532818
v -3.64807701 13.39044 1.25532818
v -3.64807701 13.5904398 1.25532818
v -3.64807701 13.5904398 2.25532818
v -1.04807663 13.5904398 2.25532818
v -1.04807568 13.5904398 1.25532818
v -10.6480761 11.39044 1.25532818
v -10.6480761 10.390439 1.25532818
v -10.6480761 10.390439 2.25532818
v -10.6480761 11.39044 2.25532818
v -13.2480774 10.390439 1.25532818
v -13.2480774 11.39044 1.25532818
v -13.2480774 11.39044 2.25532818
v -13.2480774 10.390439 2.25532818
v -13.2480774 11.39044 2.25532818
v -10.6480761 11.39044 2.25532818
v -10.6480761 10.390439 2.25532818
v -13.2480774 10.390439 2.25532818
v -10.6480761 10.390439 2.25532818
v -10.6480761 10.390439 1.25532818
v -10.6480761 10.1904392 1.25532818
v -10.6480761 10.1904392 2.25532818
v -13.2480774 10.390439 2.25532818
v -10.6480761 10.390439 2.25532818
v -10.6480761 10.1904392 2.25532818
v -13.2480774 10.1904392 2.25532818
v -13.2480774 10.390439 1.25532818
v -13.2480774 10.390439 2.25532818
v -13.2480774 10.1904392 2.25532818
v -13.2480774 10.1904392 1.25532818
v -13.2480774 10.390439 1.25532818
v -10.6480761 10.390439 1.25532818
v -10.6480761 10.390439 2.25532818
v -13.2480774 10.390439 2.25532818
v -5.84807777 11.39044 1.25532818
v -5.84807682 10.390439 1.25532818
v -5.84807777 10.390439 2.25532818
v -5.84807777 11.39044 2.25532818
v -8.44807816 10.390439 1.25532818
v -8.44807816 11.39044 1.25532818
v -8.44807816 11.39044 2.25532818
v -8.44807816 10.390439 2.25532818
v -8.44807816 11.39044 2.25532818
v -5.84807777 11.39044 2.25532818
v -5.84807777 10.390439 2.25532818
v -8.44807816 10.390439 2.25532818
v -5.84807777 10.390439 2.25532818
v -5.84807682 10.390439 1.25532818
v -5.84807682 10.1904392 1.25532818
v -5.84807777 10.1904392 2.25532818
v -8.44807816 10.390439 2.25532818
v -5.84807777 10.390439 2.25532818
v -5.84807777 10.1904392 2.25532818
v -8.44807816 10.1904392 2.25532818
v -8.44807816 10.390439 1.25532818
v -8.44807816 10.390439 2.25532818
v -8.44807816 10.1904392 2.25532818
v -8.44807816 10.1904392 1.25532818
v -8.44807816 10.390439 1.25532818
v -5.84807682 10.390439 1.25532818
v -5.84807777 10.390439 2.25532818
v -8.44807816 10.390439 2.25532818
v -1.04807663 11.39044 1.25532818
v -1.04807568 10.390439 1.25532818
v -1.04807663 10.390439 2.25532818
v -1.04807663 11.39044 2.25532818
v -3.64807701 10.390439 1.25532818
v -3.64807701 11.39044 1.25532818
v -3.64807701 11.39044 2.25532818
v -3.64807701 10.390439 2.25532818
v -3.64807701 11.39044 2.25532818
v -1.04807663 11.39044 2.25532818
v -1.04807663 10.390439 2.25532818
v -3.64807701 10.390439 2.25532818
v -1.04807663 10.390439 2.25532818
v -1.04807568 10.390439 1.25532818
v -1.04807568 10.1904392 1.25532818
v -1.04807663 10.1904392 2.25532818
v -3.64807701 10.390439 2.25532818
v -1.04807663 10.390439 2.25532818
v -1.04807663 10.1904392 2.25532818
v -3.64807701 10.1904392 2.25532818
v -3.64807701 10.390439 1.25532818
v -3.64807701 10.390439 2.25532818
v -3.64807701 10.1904392 2.25532818
v -3.64807701 10.1904392 1.25532818
v -3.64807701 10.390439 1.25532818
v -3.64807701 10.390439 2.25532818
v -1.04807663 10.390439 2.25532818
v -1.04807568 10.390439 1.25532818
v -10.6480761 8.19044113 1.25532818
v -10.6480761 7.19044065 1.25532818
v -10.6480761 7.19044065 2.25532818
v -10.6480761 8.19044113 2.25532818
v -13.2480774 7.19044065 1.25532818
v -13.2480774 8.19044113 1.25532818
v -13.2480774 8.19044113 2.25532818
v -13.2480774 7.19044065 2.25532818
v -13.2480774 8.19044113 2.25532818
v -10.6480761 8.19044113 2.25532818
v -10.6480761 7.19044065 2.25532818
v -13.2480774 7.19044065 2.25532818
v -10.6480761 7.19044065 2.25532818
v -10.6480761 7.19044065 1.25532818
v -10.6480761 6.99044085 1.25532818
v -10.6480761 6.99044085 2.25532818
v -13.2480774 7.19044065 2.25532818
v -10.6480761 7.19044065 2.25532818
v -10.6480761 6.99044085 2.25532818
v -13.2480774 6.99044085 2.25532818
v -13.2480774 7.19044065 1.25532818
v -13.2480774 7.19044065 2.25532818
v -13.2480774 6.99044085 2.25532818
v -13.2480774 6.99044085 1.25532818
v -13.2480774 7.19044065 1.25532818
v -10.6480761 7.19044065 1.25532818
v -10.6480761 7.19044065 2.25532818
v -13.2480774 7.19044065 2.25532818
v -5.84807777 8.19044113 1.25532818
v -5.84807682 7.19044065 1.25532818
v -5.84807777 7.19044065 2.25532818
v -5.84807777 8.19044113 2.25532818
v -8.44807816 7.19044065 1.25532818
v -8.44807816 8.19044113 1.25532818
v -8.44807816 8.19044113 2.25532818
v -8.44807816 7.19044065 2.25532818
v -8.44807816 8.19044113 2.25532818
v -5.84807777 8.19044113 2.25532818
v -5.84807777 7.19044065 2.25532818
v -8.44807816 7.19044065 2.25532818
v -5.84807777 7.19044065 2.25532818
v -5.84807682 7.19044065 1.25532818
v -5.84807682 6.99044085 1.25532818
v -5.84807777 6.99044085 2.25532818
v -8.44807816 7.19044065 2.25532818
v -5.84807777 7.19044065 2.25532818
v -5.84807777 6.99044085 2.25532818
v -8.44807816 6.99044085 2.25532818
v -8.44807816 7.19044065 1.25532818
v -8.44807816 7.19044065 2.25532818
v -8.44807816 6.99044085 2.25532818
v -8.44807816 6.99044085 1.25532818
v -8.44807816 7.19044065 1.25532818
v -5.84807682 7.19044065 1.25532818
v -5.84807777 7.19044065 2.25532818
v -8.44807816 7.19044065 2.25532818
v -1.04807663 8.19044113 1.25532818
v -1.04807568 7.19044065 1.25532818
v -1.04807663 7.19044065 2.25532818
v -1.04807663 8.19044113 2.25532818
v -3.64807701 7.19044065 1.25532818
v -3.64807701 8.19044113 1.25532818
v -3.64807701 8.19044113 2.25532818
v -3.64807701 7.19044065 2.25532818
v -3.64807701 8.19044113 2.25532818
v -1.04807663 8.19044113 2.25532818
v -1.04807663 7.19044065 2.25532818
v -3.64807701 7.19044065 2.25532818
v -1.04807663 7.19044065 2.25532818
v -1.04807568 7.19044065 1.25532818
v -1.04807568 6.99044085 1.25532818
v -1.04807663 6.99044085 2.25532818
v -3.64807701 7.19044065 2.25532818
v -1.04807663 7.19044065 2.25532818
v -1.04807663 6.99044085 2.25532818
v -3.64807701 6.99044085 2.25532818
v -3.64807701 7.19044065 1.25532818
v -3.64807701 7.19044065 2.25532818
v -3.64807701 6.99044085 2.25532818
v -3.64807701 6.99044085 1.25532818
v -3.64807701 7.19044065 1.25532818
v -3.64807701 7.19044065 2.25532818
v -1.04807663 7.19044065 2.25532818
v -1.04807568 7.19044065 1.25532818
v 7.90192223 -0.00955963135 21.0128517
v 7.90192223 18.1904411 21.0128517
v 7.90192223 18.1904411 0.812852383
v 7.90192223 -0.00955963135 0.812852383
v 7.40192223 -0.00955963135 -6.74070549
v 7.40192223 -0.00955963135 1.25532818
v 7.40192223 20.9904404 1.25532818
v 7.40192223 20.9904404 -6.74070549
v -0.098077774 7.1904397 12.2592945
v -0.098077774 8.19043922 12.2592945
v -15.148077 8.19043922 12.2592945
v -15.148077 7.1904397 12.2592945
v -15.148077 8.19043922 12.2592945
v -15.148077 8.19043922 16.6360741
v -15.148077 7.1904397 16.6360741
v -15.148077 7.1904397 12.2592945
v -0.098077774 7.1904397 12.3592949
v -15.0773659 7.1904397 12.3300056
v -15.0773659 8.19043922 12.3300056
v -0.098077774 8.19043922 12.3592949
v -15.0773659 8.19043922 12.3300056
v -15.0773659 7.1904397 12.3300056
v -15.0480766 7.1904397 16.6360741
v -15.0480766 8.19043922 16.6360741
v -0.098077774 8.19043922 20.9128532
v -16.648077 8.19043922 20.9128532
v -16.648077 7.1904397 20.9128532
v -0.098077774 7.1904397 20.9128532
v -0.098077774 8.19043922 12.2592945
v -0.098077774 8.19043922 12.3592949
v -15.0773659 8.19043922 12.3300056
v -15.148077 8.19043922 12.2592945
v -16.648077 7.1904397 21.0128517
v -16.648077 7.1904397 20.9128532
v -16.648077 8.19043922 20.9128532
v -16.648077 8.19043922 21.0128517
v -15.148077 8.19043922 16.6360741
v -15.0480766 8.19043922 16.6360741
v -15.0480766 7.1904397 16.6360741
v -15.148077 7.1904397 16.6360741
v -15.148077 8.19043922 12.2592945
v -15.0773659 8.19043922 12.3300056
v -15.0480766 8.19043922 16.6360741
v -15.148077 8.19043922 16.6360741
v -7.57807684 17.7904396 -19.1427498
v -11.148077 17.7904396 -22.6427498
v -11.148077 -0.00955963135 -22.6427498
v -7.57807684 -0.00955963135 -19.1427498
v -15.148077 6.5904398 13.2592945
v -15.148077 -0.00955963135 16.6360741
v -15.148077 -0.00955963135 13.2592945
v -15.148077 7.1904397 16.6360741
v -15.148077 6.5904398 12.2592945
v -15.148077 7.1904397 12.2592945
v 7.30192184 18.1904411 0.812852383
v 7.30192184 -0.00955963135 0.812852383
v 7.90192223 -0.00955963135 0.812852383
v 7.90192223 18.1904411 0.812852383
v -0.468770981 10.3904409 8.30760384
v -0.098077774 10.3904409 8.11285114
v -0.098077774 10.3904409 13.3128471
v -1.00435448 10.39044 9.34573936
v -0.868922234 10.3904409 10.5435295
v -0.612286568 10.3904409 11.7247238
v -0.098077774 10.3904409 8.11285114
v -0.468770981 10.3904409 8.30760384
v -0.468770981 -0.00955963135 8.30760384
v -0.098077774 -0.00955963135 8.11284924
v -0.868922234 10.3904409 10.5435295
v -0.612286568 10.3904409 11.7247238
v -0.612286568 -0.00956058502 11.7247238
v -0.868922234 -0.00955963135 10.5435295
v -1.00435448 -0.00955963135 9.34573936
v -0.468770981 -0.00955963135 8.30760384
v -0.468770981 10.3904409 8.30760384
v -1.00435448 10.39044 9.34573936
v -0.868922234 -0.00955963135 10.5435295
v -1.00435448 -0.00955963135 9.34573936
v -1.00435448 10.39044 9.34573936
v -0.868922234 10.3904409 10.5435295
v -0.098077774 -0.00955963135 13.3128471
v -0.612286568 -0.00956058502 11.7247238
v -0.612286568 10.3904409 11.7247238
v -0.098077774 10.3904409 13.3128471
v -7.57807684 17.7904396 -19.1427498
v -7.57807732 10.1904411 -17.1402397
v -7.57807732 13.4904404 -17.1402397
v -7.57807732 13.4904404 -7.53750896
v -7.57807684 -0.00955963135 -19.1427498
v -7.57807684 17.7904396 -6.64821243
v -7.57807732 10.1904402 -7.53750896
v -7.57807684 -0.00955963135 -6.64821243
v -7.57807732 12.7904406 -7.53750896
v -7.57807732 10.9904404 -7.53750896
vt 0.285164773 0.0125386342
vt 0.285164773 0.135427549
vt 0.339181781 0.135427549
vt 0.339181781 0.0125386342
vt 0.116196692 0.193755239
vt 0.116196692 0.145139873
vt 0.0145770311 0.145139873
vt 0.0145770311 0.193755239
vt 0.00444880128 0.193755239
vt 0.00444880128 0.145139873
vt 0.504746675 0.1569729
vt 0.504746675 0.0151780024
vt 0.352486074 0.0151780024
vt 0.352486074 0.1569729
vt 0.00381478667 0.135806471
vt 0.140208006 0.135806471
vt 0.140208006 0.0129175708
vt 0.00381478667 0.0129175708
vt 0.911404967 0.158582866
vt 0.807953119 0.158582866
vt 0.807953119 0.165458828
vt 0.911404967 0.165458828
vt 0.939287663 0.13295038
vt 0.831914783 0.0127623454
vt 0.831914783 0.13295038
vt 0.993277669 0.0127623454
vt 0.993277669 0.154557273
vt 0.939287663 0.154557273
vt 0.790168226 0.245608628
vt 0.819720745 0.196993291
vt 0.790168226 0.196993291
vt 0.819720745 0.245608628
vt 0.86277765 0.217249691
vt 0.86277765 0.245608628
vt 0.367759019 0.176912546
vt 0.475131691 0.201017871
vt 0.451499403 0.176912546
vt 0.367759019 0.228026241
vt 0.475131691 0.228026181
vt 0.483745515 0.17095989
vt 0.483745515 0.224950284
vt 0.636006117 0.224950284
vt 0.636006117 0.17095989
vt 0.752561748 0.142747864
vt 0.733887792 0.143738806
vt 0.732968152 0.162333667
vt 0.751641989 0.161342755
vt 0.728751779 0.139807492
vt 0.733887792 0.143738806
vt 0.752561748 0.142747864
vt 0.756778121 0.137070894
vt 0.756778121 0.137070894
vt 0.752561748 0.142747864
vt 0.751641989 0.161342755
vt 0.756778121 0.165274054
vt 0.756778121 0.165274054
vt 0.751641989 0.161342755
vt 0.732968152 0.162333667
vt 0.728751779 0.168010607
vt 0.728751779 0.168010607
vt 0.732968152 0.162333667
vt 0.733887792 0.143738806
vt 0.728751779 0.139807492
vt 0.351897895 0.191802055
vt 0.351897895 0.221354693
vt 0.250278294 0.221354693
vt 0.250278294 0.191802055
vt 0.351897895 0.162249416
vt 0.250278294 0.162249416
vt 0.240150064 0.191802055
vt 0.240150064 0.221354693
vt 0.240150064 0.191802055
vt 0.240150064 0.148745224
vt 0.250278294 0.148745224
vt 0.250278294 0.191802055
vt 0.433245182 0.173176095
vt 0.411632895 0.168140277
vt 0.390020669 0.168140277
vt 0.368408322 0.173176095
vt 0.433245182 0.173176095
vt 0.368408322 0.173176095
vt 0.390020669 0.168140277
vt 0.411632895 0.168140277
vt 0.6458987 0.225140989
vt 0.78229177 0.225140989
vt 0.78229177 0.171123773
vt 0.6458987 0.171123773
vt 0.722642004 0.103110373
vt 0.702708662 0.103110373
vt 0.702708662 0.0825594366
vt 0.722642004 0.0825594366
vt 0.742575109 0.103110373
vt 0.722642004 0.103110373
vt 0.722642004 0.0825594366
vt 0.742575109 0.0825594366
vt 0.682775557 0.0825594366
vt 0.702708662 0.0825594366
vt 0.702708662 0.103110373
vt 0.682775557 0.103110373
vt 0.225728005 0.190183461
vt 0.124108285 0.190183461
vt 0.124108285 0.194234759
vt 0.225728005 0.194234759
vt 0.0947458744 0.207079858
vt 0.0846176445 0.207079858
vt 0.0846176445 0.235438913
vt 0.0947458744 0.235438913
vt 0.225728005 0.145619348
vt 0.124108285 0.145619348
vt 0.124108285 0.190183461
vt 0.225728005 0.190183461
vt 0.225728005 0.190183461
vt 0.225728005 0.190183461
vt 0.124108285 0.190183461
vt 0.124108285 0.190183461
vt 0.670754433 0.0151779875
vt 0.569607437 0.0151779875
vt 0.569607437 0.1569729
vt 0.670754433 0.135366008
vt 0.721868157 0.1569729
vt 0.721868217 0.135366008
vt 0.825932562 0.132794514
vt 0.825932562 0.0116944537
vt 0.798718989 0.0116944537
vt 0.798718989 0.132794514
vt 0.922244549 0.174661428
vt 0.92935288 0.174661428
vt 0.92935288 0.181769684
vt 0.922244549 0.181769684
vt 0.92935288 0.207359195
vt 0.922244549 0.207359195
vt 0.922244549 0.200250924
vt 0.92935288 0.200250924
vt 0.922244549 0.200250924
vt 0.922244549 0.181769684
vt 0.92935288 0.181769684
vt 0.92935288 0.200250924
vt 0.98319304 0.179349437
vt 0.990301371 0.179349437
vt 0.990301371 0.180770978
vt 0.98319304 0.180770978
vt 0.964711785 0.179349437
vt 0.98319304 0.179349437
vt 0.98319304 0.180770978
vt 0.964711785 0.180771172
vt 0.957603574 0.179349437
vt 0.964711785 0.179349437
vt 0.964711785 0.180771172
vt 0.957603574 0.180771172
vt 0.795672536 0.173505038
vt 0.788564324 0.173505038
vt 0.788564324 0.191986278
vt 0.795672536 0.191986278
vt 0.949527919 0.207888186
vt 0.942419648 0.207888186
vt 0.942419648 0.200779811
vt 0.949527919 0.200779811
vt 0.942419648 0.175190493
vt 0.949527919 0.175190493
vt 0.949527919 0.182298556
vt 0.942419648 0.182298556
vt 0.949527919 0.182298556
vt 0.949527919 0.200779811
vt 0.942419648 0.200779811
vt 0.942419648 0.182298556
vt 0.964711905 0.183244273
vt 0.957603693 0.183244273
vt 0.957603693 0.181822792
vt 0.964711905 0.181822792
vt 0.983193159 0.183244273
vt 0.964711905 0.183244273
vt 0.964711905 0.181822792
vt 0.983193159 0.181822792
vt 0.990301371 0.183244273
vt 0.983193159 0.183244273
vt 0.983193159 0.181822792
vt 0.990301371 0.181822792
vt 0.872870982 0.207454354
vt 0.86576283 0.207454354
vt 0.86576283 0.200346231
vt 0.872870982 0.200346231
vt 0.86576283 0.174756661
vt 0.872870982 0.174756661
vt 0.872870982 0.181864858
vt 0.86576283 0.181864858
vt 0.872870982 0.181864858
vt 0.872870982 0.200346231
vt 0.86576283 0.200346231
vt 0.86576283 0.181864858
vt 0.964711666 0.172605276
vt 0.957603574 0.172605276
vt 0.957603574 0.171183631
vt 0.964711666 0.171183631
vt 0.98319304 0.172605276
vt 0.964711666 0.172605276
vt 0.964711666 0.171183631
vt 0.98319304 0.171183631
vt 0.990301251 0.172605276
vt 0.98319304 0.172605276
vt 0.98319304 0.171183631
vt 0.990301251 0.171183631
vt 0.812869668 0.173505038
vt 0.805761456 0.173505038
vt 0.805761456 0.191986278
vt 0.812869668 0.191986278
vt 0.911140084 0.208099887
vt 0.904031873 0.208099887
vt 0.904031873 0.200991631
vt 0.911140084 0.200991631
vt 0.904031873 0.175402194
vt 0.911140084 0.175402194
vt 0.911140084 0.18251051
vt 0.904031873 0.18251051
vt 0.911140084 0.18251051
vt 0.911140084 0.200991631
vt 0.904031873 0.200991631
vt 0.904031873 0.18251051
vt 0.964711785 0.178047046
vt 0.957603574 0.178047046
vt 0.957603574 0.176625311
vt 0.964711785 0.176625311
vt 0.98319304 0.178047046
vt 0.964711785 0.178047046
vt 0.964711785 0.176625311
vt 0.98319304 0.176625311
vt 0.990301371 0.178047046
vt 0.98319304 0.178047046
vt 0.98319304 0.176625311
vt 0.990301371 0.176625311
vt 0.848450303 0.173505038
vt 0.848450303 0.191986278
vt 0.841342092 0.191986278
vt 0.841342092 0.173505038
vt 0.894980371 0.174756527
vt 0.902088642 0.174756527
vt 0.902088642 0.181864858
vt 0.894980371 0.181864858
vt 0.902088642 0.207454354
vt 0.894980371 0.207454354
vt 0.894980371 0.200346231
vt 0.902088642 0.200346231
vt 0.894980371 0.200346231
vt 0.894980371 0.181864858
vt 0.902088642 0.181864858
vt 0.902088642 0.200346231
vt 0.964711666 0.160364002
vt 0.957603574 0.160364002
vt 0.957603574 0.158942521
vt 0.964711666 0.158942521
vt 0.98319304 0.160364002
vt 0.964711666 0.160364002
vt 0.964711666 0.158942521
vt 0.98319304 0.158942521
vt 0.990301251 0.160364002
vt 0.98319304 0.160364002
vt 0.98319304 0.158942521
vt 0.990301251 0.158942521
vt 0.839604616 0.173505038
vt 0.839604616 0.191986278
vt 0.832496345 0.191986278
vt 0.832496345 0.173505038
vt 0.920077562 0.207359195
vt 0.912969291 0.207359195
vt 0.912969291 0.200250924
vt 0.920077562 0.200250924
vt 0.912969291 0.174661428
vt 0.920077562 0.174661428
vt 0.920077562 0.181769684
vt 0.912969291 0.181769684
vt 0.920077562 0.181769684
vt 0.920077562 0.200250924
vt 0.912969291 0.200250924
vt 0.912969291 0.181769684
vt 0.98319304 0.162002832
vt 0.990301251 0.162002832
vt 0.990301251 0.163424432
vt 0.98319304 0.163424432
vt 0.964711666 0.162002832
vt 0.98319304 0.162002832
vt 0.98319304 0.163424432
vt 0.964711666 0.163424432
vt 0.957603574 0.162002832
vt 0.964711666 0.162002832
vt 0.964711666 0.163424432
vt 0.957603574 0.163424432
vt 0.821814179 0.173505038
vt 0.814706087 0.173505038
vt 0.814706087 0.191986278
vt 0.821814299 0.191986278
vt 0.882651806 0.207454354
vt 0.875543594 0.207454354
vt 0.875543594 0.200346231
vt 0.882651806 0.200346231
vt 0.875543594 0.174756661
vt 0.882651806 0.174756661
vt 0.882651806 0.181864858
vt 0.875543594 0.181864858
vt 0.882651806 0.181864858
vt 0.882651806 0.200346231
vt 0.875543594 0.200346231
vt 0.875543594 0.181864858
vt 0.98319304 0.164865255
vt 0.990301251 0.164865255
vt 0.990301251 0.16628705
vt 0.98319304 0.16628705
vt 0.964711666 0.164865255
vt 0.98319304 0.164865255
vt 0.98319304 0.16628705
vt 0.964711666 0.16628705
vt 0.957603574 0.164865255
vt 0.964711666 0.164865255
vt 0.964711666 0.16628705
vt 0.957603574 0.16628705
vt 0.804419339 0.173505038
vt 0.804419458 0.191986278
vt 0.797311187 0.191986278
vt 0.797311187 0.173505038
vt 0.892308056 0.207454354
vt 0.885199785 0.207454354
vt 0.885199785 0.200346231
vt 0.892308056 0.200346231
vt 0.885199785 0.174756661
vt 0.892307937 0.174756661
vt 0.892307937 0.181864858
vt 0.885199785 0.181864858
vt 0.892307937 0.181864858
vt 0.892308056 0.200346231
vt 0.885199785 0.200346231
vt 0.885199785 0.181864858
vt 0.98319304 0.168222144
vt 0.990301251 0.168222144
vt 0.990301251 0.169643834
vt 0.98319304 0.169643834
vt 0.964711666 0.168222144
vt 0.98319304 0.168222144
vt 0.98319304 0.169643834
vt 0.964711666 0.169643834
vt 0.957603574 0.168222144
vt 0.964711666 0.168222144
vt 0.964711666 0.169643834
vt 0.957603574 0.169643834
vt 0.849990129 0.191986278
vt 0.849990129 0.173505038
vt 0.857098341 0.173505038
vt 0.857098341 0.191986278
vt 0.93152976 0.175069913
vt 0.938637972 0.175069913
vt 0.938637972 0.182178304
vt 0.93152976 0.182178304
vt 0.938637972 0.20776774
vt 0.93152976 0.20776774
vt 0.93152976 0.200659528
vt 0.938637972 0.200659528
vt 0.93152976 0.200659528
vt 0.93152976 0.182178304
vt 0.938637972 0.182178304
vt 0.938637972 0.200659528
vt 0.964711785 0.175566643
vt 0.957603574 0.175566643
vt 0.957603574 0.174145088
vt 0.964711666 0.174145088
vt 0.983193159 0.175566643
vt 0.964711785 0.175566643
vt 0.964711666 0.174145088
vt 0.98319304 0.174145088
vt 0.990301371 0.175566643
vt 0.983193159 0.175566643
vt 0.98319304 0.174145088
vt 0.990301371 0.174145088
vt 0.830857754 0.173505038
vt 0.823749423 0.173505038
vt 0.823749423 0.191986278
vt 0.830857754 0.191986278
vt 0.144514233 0.0122129247
vt 0.144514233 0.135101795
vt 0.280907452 0.135101795
vt 0.280907452 0.0122129247
vt 0.563756168 0.0153070614
vt 0.509765923 0.0153070614
vt 0.509765923 0.157101899
vt 0.563756168 0.157101899
vt 0.807953119 0.137308642
vt 0.807953119 0.14355953
vt 0.90202868 0.14355953
vt 0.90202868 0.137308642
vt 0.933110833 0.144187212
vt 0.905752182 0.144187212
vt 0.905752182 0.150438055
vt 0.933110833 0.15043813
vt 0.807965398 0.150435522
vt 0.90159893 0.150252461
vt 0.901586652 0.144001618
vt 0.807953119 0.144184664
vt 0.932668805 0.143745288
vt 0.932711363 0.137494504
vt 0.90579474 0.137311444
vt 0.905752182 0.143562153
vt 0.807953119 0.158582866
vt 0.911404967 0.158582866
vt 0.911404967 0.152332008
vt 0.807953119 0.152332008
vt 0.807953119 0.14355953
vt 0.807953119 0.144184664
vt 0.901586652 0.144001618
vt 0.90202868 0.14355953
vt 0.912030101 0.152332008
vt 0.911404967 0.152332008
vt 0.911404967 0.158582866
vt 0.912030101 0.158582866
vt 0.905752182 0.144187212
vt 0.905127168 0.144187212
vt 0.905127168 0.150438055
vt 0.905752182 0.150438055
vt 0.933110833 0.144187212
vt 0.932668805 0.143745288
vt 0.905752182 0.143562153
vt 0.905752182 0.144187212
vt 0.762545049 0.133149311
vt 0.79624629 0.133149311
vt 0.79624629 0.0131549239
vt 0.762545049 0.0131549239
vt 0.282078624 0.145192072
vt 0.284122944 0.157490537
vt 0.283100784 0.151341304
vt 0.284122944 0.157490537
vt 0.256692231 0.145192072
vt 0.254570305 0.157490537
vt 0.346510291 0.135611817
vt 0.346510291 0.0127229393
vt 0.342459142 0.0127229393
vt 0.342459142 0.135611817
vt 0.952107906 0.163811982
vt 0.953423023 0.161309093
vt 0.918311834 0.161309093
vt 0.945098162 0.167428315
vt 0.937010765 0.16651386
vt 0.929035068 0.164781123
vt 0.0800275803 0.236903757
vt 0.0800275803 0.235588849
vt 0.0098054111 0.235588849
vt 0.0098054111 0.236903757
vt 0.0800275803 0.220491499
vt 0.0800275803 0.212515771
vt 0.0098054111 0.212515771
vt 0.0098054111 0.220491499
vt 0.0098054111 0.228579164
vt 0.0098054111 0.235588849
vt 0.0800275803 0.235588849
vt 0.0800275803 0.228579164
vt 0.0098054111 0.220491499
vt 0.0098054111 0.228579164
vt 0.0800275803 0.228579164
vt 0.0800275803 0.220491499
vt 0.0098054111 0.201792479
vt 0.0098054111 0.212515771
vt 0.0800275803 0.212515771
vt 0.0800275803 0.201792479
vt 0.758727074 0.132899016
vt 0.74520576 0.0815827772
vt 0.74520576 0.103864841
vt 0.680366755 0.103864841
vt 0.758727074 0.0127109662
vt 0.674362183 0.132899016
vt 0.680366755 0.0815827772
vt 0.674362183 0.0127109662
vt 0.680366755 0.0991383567
vt 0.680366755 0.0869844854
vn -0 0 1
vn -0 0 1
vn -0 0 1
vn -0 0 1
vn -0 0 1
vn -0 0 1
vn -0 0 1
vn -0 0 1
vn -0 0 1
vn -0 0 1
vn -0 0 1
vn -0 0 1
vn -0 0 1
vn -0 0 1
vn -1 0 0
vn -1 0 0
vn -1 0 0
vn -1 0 0
vn -0.0300475415 0.0994569585 0.994588137
vn -0.0300475415 0.0994569585 0.994588137
vn -0.0300475415 0.0994569585 0.994588137
vn -0.0300475415 0.0994569585 0.994588137
vn -1 0 0
vn -1 0 0
vn -1 0 0
vn -1 0 0
vn -1 0 0
vn -1 0 0
vn -1 0 0
vn -1 0 0
vn -1 0 0
vn -1 0 0
vn -1 0 0
vn -1 0 0
vn -0 1 0
vn -0 1 0
vn -0 1 0
vn -0 1 0
vn -0 1 0
vn -0 1 0
vn -0 1 0
vn -0 1 0
vn -0 1 0
vn -0 1 0
vn -0 1 0
vn -0 1 0
vn -0 1 0
vn -0 0 1
vn -0 0 1
vn -0 0 1
vn -0 0 1
vn 1 0 0
vn 1 0 0
vn 1 0 0
vn 1 0 0
vn -0 0 -1
vn -0 0 -1
vn -0 0 -1
vn -0 0 -1
vn -1 0 0
vn -1 0 0
vn -1 0 0
vn -1 0 0
vn -0 1 0
vn -0 1 0
vn -0 1 0
vn -0 1 0
vn -0 1 0
vn -0 1 0
vn -0 1 0
vn -0 1 0
vn -0 0.904864609 -0.425699443
vn -0 0.904864609 -0.425699443
vn -0 0.904864609 -0.425699443
vn -0 0.904864609 -0.425699443
vn -0 1 0
vn -0 1 0
vn -0 1 0
vn -0 1 0
vn -0 -1 0
vn -0 -1 0
vn -0 -1 0
vn -0 -1 0
vn -0 1 0
vn -0 1 0
vn -0 1 0
vn -0 1 0
vn 1 0 0
vn 1 0 0
vn 1 0 0
vn 1 0 0
vn 0.97391063 0 0.2269319
vn 0.97391063 0 0.2269319
vn 0.97391063 0 0.2269319
vn 0.97391063 0 0.2269319
vn 0.97391063 0 -0.226931974
vn 0.97391063 0 -0.226931974
vn 0.97391063 0 -0.226931974
vn 0.97391063 0 -0.226931974
vn -0 0 -1
vn -0 0 -1
vn -0 0 -1
vn -0 0 -1
vn -0 0 -1
vn -0 0 -1
vn -0 0 -1
vn -0 0 -1
vn -0 0 -1
vn -0 0 -1
vn -0 0 -1
vn -0 0 -1
vn -0 -1 0
vn -0 -1 0
vn -0 -1 0
vn -0 -1 0
vn -0 0 -1
vn -0 0 -1
vn -0 0 -1
vn -0 0 -1
vn -0 0 -1
vn -0 0 -1
vn -0 0 -1
vn -0 0 -1
vn -0 0 -1
vn -0 0 -1
vn 1 0 0
vn 1 0 0
vn 1 0 0
vn 1 0 0
vn -1 0 0
vn -1 0 0
vn -1 0 0
vn -1 0 0
vn -0 0 1
vn -0 0 1
vn -0 0 1
vn -0 0 1
vn 1 0 0
vn 1 0 0
vn 1 0 0
vn 1 0 0
vn -0 0 1
vn -0 0 1
vn -0 0 1
vn -0 0 1
vn -1 0 0
vn -1 0 0
vn -1 0 0
vn -1 0 0
vn -0 -1 0
vn -0 -1 0
vn -0 -1 0
vn -0 -1 0
vn 1 0 0
vn 1 0 0
vn 1 0 0
vn 1 0 0
vn -1 0 0
vn -1 0 0
vn -1 0 0
vn -1 0 0
vn -0 0 1
vn -0 0 1
vn -0 0 1
vn -0 0 1
vn 1 0 0
vn 1 0 0
vn 1 0 0
vn 1 0 0
vn -0 0 1
vn -0 0 1
vn -0 0 1
vn -0 0 1
vn -1 0 0
vn -1 0 0
vn -1 0 0
vn -1 0 0
vn 1 0 0
vn 1 0 0
vn 1 0 0
vn 1 0 0
vn -1 0 0
vn -1 0 0
vn -1 0 0
vn -1 0 0
vn -0 0 1
vn -0 0 1
vn -0 0 1
vn -0 0 1
vn 1 0 0
vn 1 0 0
vn 1 0 0
vn 1 0 0
vn -0 0 1
vn -0 0 1
vn -0 0 1
vn -0 0 1
vn -1 0 0
vn -1 0 0
vn -1 0 0
vn -1 0 0
vn -0 -1 0
vn -0 -1 0
vn -0 -1 0
vn -0 -1 0
vn 1 0 0
vn 1 0 0
vn 1 0 0
vn 1 0 0
vn -1 0 0
vn -1 0 0
vn -1 0 0
vn -1 0 0
vn -0 0 1
vn -0 0 1
vn -0 0 1
vn -0 0 1
vn 1 0 0
vn 1 0 0
vn 1 0 0
vn 1 0 0
vn -0 0 1
vn -0 0 1
vn -0 0 1
vn -0 0 1
vn -1 0 0
vn -1 0 0
vn -1 0 0
vn -1 0 0
vn -0 1 0
vn -0 1 0
vn -0 1 0
vn -0 1 0
vn 1 0 0
vn 1 0 0
vn 1 0 0
vn 1 0 0
vn -1 0 0
vn -1 0 0
vn -1 0 0
vn -1 0 0
vn -0 0 1
vn -0 0 1
vn -0 0 1
vn -0 0 1
vn 1 0 0
vn 1 0 0
vn 1 0 0
vn 1 0 0
vn -0 0 1
vn -0 0 1
vn -0 0 1
vn -0 0 1
vn -1 0 0
vn -1 0 0
vn -1 0 0
vn -1 0 0
vn -0 1 0
vn -0 1 0
vn -0 1 0
vn -0 1 0
vn 1 0 0
vn 1 0 0
vn 1 0 0
vn 1 0 0
vn -1 0 0
vn -1 0 0
vn -1 0 0
vn -1 0 0
vn -0 0 1
vn -0 0 1
vn -0 0 1
vn -0 0 1
vn 1 0 0
vn 1 0 0
vn 1 0 0
vn 1 0 0
vn -0 0 1
vn -0 0 1
vn -0 0 1
vn -0 0 1
vn -1 0 0
vn -1 0 0
vn -1 0 0
vn -1 0 0
vn -0 -1 0
vn -0 -1 0
vn -0 -1 0
vn -0 -1 0
vn 1 0 0
vn 1 0 0
vn 1 0 0
vn 1 0 0
vn -1 0 0
vn -1 0 0
vn -1 0 0
vn -1 0 0
vn -0 0 1
vn -0 0 1
vn -0 0 1
vn -0 0 1
vn 1 0 0
vn 1 0 0
vn 1 0 0
vn 1 0 0
vn -0 0 1
vn -0 0 1
vn -0 0 1
vn -0 0 1
vn -1 0 0
vn -1 0 0
vn -1 0 0
vn -1 0 0
vn -0 1 0
vn -0 1 0
vn -0 1 0
vn -0 1 0
vn 1 0 0
vn 1 0 0
vn 1 0 0
vn 1 0 0
vn -1 0 0
vn -1 0 0
vn -1 0 0
vn -1 0 0
vn -0 0 1
vn -0 0 1
vn -0 0 1
vn -0 0 1
vn 1 0 0
vn 1 0 0
vn 1 0 0
vn 1 0 0
vn -0 0 1
vn -0 0 1
vn -0 0 1
vn -0 0 1
vn -1 0 0
vn -1 0 0
vn -1 0 0
vn -1 0 0
vn -0 1 0
vn -0 1 0
vn -0 1 0
vn -0 1 0
vn 1 0 0
vn 1 0 0
vn 1 0 0
vn 1 0 0
vn -1 0 0
vn -1 0 0
vn -1 0 0
vn -1 0 0
vn -0 0 1
vn -0 0 1
vn -0 0 1
vn -0 0 1
vn 1 0 0
vn 1 0 0
vn 1 0 0
vn 1 0 0
vn -0 0 1
vn -0 0 1
vn -0 0 1
vn -0 0 1
vn -1 0 0
vn -1 0 0
vn -1 0 0
vn -1 0 0
vn -0 -1 0
vn -0 -1 0
vn -0 -1 0
vn -0 -1 0
vn 1 0 0
vn 1 0 0
vn 1 0 0
vn 1 0 0
vn 1 0 0
vn 1 0 0
vn 1 0 0
vn 1 0 0
vn -0 0 -1
vn -0 0 -1
vn -0 0 -1
vn -0 0 -1
vn -1 0 0
vn -1 0 0
vn -1 0 0
vn -1 0 0
vn -0.00195531244 0 0.999998093
vn -0.00195531244 0 0.999998093
vn -0.00195531244 0 0.999998093
vn -0.00195531244 0 0.999998093
vn 0.999976873 0 -0.00680169603
vn 0.999976873 0 -0.00680169603
vn 0.999976873 0 -0.00680169603
vn 0.999976873 0 -0.00680169603
vn -0 0 -1
vn -0 0 -1
vn -0 0 -1
vn -0 0 -1
vn -0 1 0
vn -0 1 0
vn -0 1 0
vn -0 1 0
vn -1 0 0
vn -1 0 0
vn -1 0 0
vn -1 0 0
vn -0 0 1
vn -0 0 1
vn -0 0 1
vn -0 0 1
vn -0 1 0
vn -0 1 0
vn -0 1 0
vn -0 1 0
vn 0.700071394 0 -0.714072883
vn 0.700071394 0 -0.714072883
vn 0.700071394 0 -0.714072883
vn 0.700071394 0 -0.714072883
vn -1 0 0
vn -1 0 0
vn -1 0 0
vn -1 0 0
vn -1 0 0
vn -1 0 0
vn -0 0 -1
vn -0 0 -1
vn -0 0 -1
vn -0 0 -1
vn -0 1 0
vn -0 1 0
vn -0 1 0
vn -0 1 0
vn -0 1 0
vn -0 1 0
vn -0.46509546 0 -0.885260582
vn -0.46509546 0 -0.885260582
vn -0.46509546 0 -0.885260582
vn -0.46509546 0 -0.885260582
vn -0.977201462 0 0.212314576
vn -0.977201462 0 0.212314576
vn -0.977201462 0 0.212314576
vn -0.977201462 0 0.212314576
vn -0.888700366 0 -0.458488524
vn -0.888700366 0 -0.458488524
vn -0.888700366 0 -0.458488524
vn -0.888700366 0 -0.458488524
vn -0.993668377 0 0.11235249
vn -0.993668377 0 0.11235249
vn -0.993668377 0 0.11235249
vn -0.993668377 0 0.11235249
vn -0.951373577 0 0.308039457
vn -0.951373577 0 0.308039457
vn -0.951373577 0 0.308039457
vn -0.951373577 0 0.308039457
vn 1 0 0
vn 1 0 0
vn 1 0 0
vn 1 0 0
vn 1 0 0
vn 1 0 0
vn 1 0 0
vn 1 0 0
vn 1 0 0
vn 1 0 0
g building_regina_LP_0
f 3/3/3 2/2/2 1/1/1
f 4/4/4 3/3/3 1/1/1
f 7/7/7 6/6/6 5/5/5
f 8/8/8 7/7/7 5/5/5
f 8/8/8 9/9/9 7/7/7
f 9/9/9 10/10/10 7/7/7
f 13/13/13 12/12/12 11/11/11
f 14/14/14 13/13/13 11/11/11
f 17/17/17 16/16/16 15/15/15
f 18/18/18 17/17/17 15/15/15
f 21/21/21 20/20/20 19/19/19
f 19/19/19 22/22/22 21/21/21
f 25/25/25 24/24/24 23/23/23
f 24/24/24 26/26/26 23/23/23
f 26/26/26 27/27/27 23/23/23
f 27/27/27 28/28/28 23/23/23
f 31/31/31 30/30/30 29/29/29
f 30/30/30 32/32/32 29/29/29
f 30/30/30 33/33/33 32/32/32
f 33/33/33 34/34/34 32/32/32
f 37/37/37 36/36/36 35/35/35
f 35/35/35 36/36/36 38/38/38
f 36/36/36 39/39/39 38/38/38
f 42/42/42 41/41/41 40/40/40
f 43/43/43 42/42/42 40/40/40
f 46/46/46 45/45/45 44/44/44
f 47/47/47 46/46/46 44/44/44
f 50/50/50 49/49/49 48/48/48
f 51/51/51 50/50/50 48/48/48
f 54/54/54 53/53/53 52/52/52
f 55/55/55 54/54/54 52/52/52
f 58/58/58 57/57/57 56/56/56
f 59/59/59 58/58/58 56/56/56
f 62/62/62 61/61/61 60/60/60
f 63/63/63 62/62/62 60/60/60
f 66/66/66 65/65/65 64/64/64
f 67/67/67 66/66/66 64/64/64
f 67/67/67 64/64/64 68/68/68
f 69/69/69 67/67/67 68/68/68
f 67/67/67 70/70/70 66/66/66
f 70/70/70 71/71/71 66/66/66
f 74/74/74 73/73/73 72/72/72
f 75/75/75 74/74/74 72/72/72
f 78/78/78 77/77/77 76/76/76
f 79/79/79 78/78/78 76/76/76
f 82/82/82 81/81/81 80/80/80
f 83/83/83 82/82/82 80/80/80
f 86/86/86 85/85/85 84/84/84
f 87/87/87 86/86/86 84/84/84
f 90/90/90 89/89/89 88/88/88
f 91/91/91 90/90/90 88/88/88
f 94/94/94 93/93/93 92/92/92
f 95/95/95 94/94/94 92/92/92
f 98/98/98 97/97/97 96/96/96
f 99/99/99 98/98/98 96/96/96
f 102/102/102 101/101/101 100/100/100
f 103/103/103 102/102/102 100/100/100
f 106/106/106 105/105/105 104/104/104
f 107/107/107 106/106/106 104/104/104
f 110/110/110 109/109/109 108/108/108
f 111/111/111 110/110/110 108/108/108
f 114/114/114 113/113/113 112/112/112
f 115/115/115 114/114/114 112/112/112
f 118/118/118 117/117/117 116/116/116
f 119/119/119 118/118/118 116/116/116
f 120/120/120 118/118/118 119/119/119
f 121/121/121 120/120/120 119/119/119
f 124/124/124 123/123/123 122/122/122
f 125/125/125 124/124/124 122/122/122
f 128/128/128 127/127/127 126/126/126
f 129/129/129 128/128/128 126/126/126
f 132/132/132 131/131/131 130/130/130
f 133/133/133 132/132/132 130/130/130
f 136/136/136 135/135/135 134/134/134
f 137/137/137 136/136/136 134/134/134
f 140/140/140 139/139/139 138/138/138
f 141/141/141 140/140/140 138/138/138
f 144/144/144 143/143/143 142/142/142
f 145/145/145 144/144/144 142/142/142
f 148/148/148 147/147/147 146/146/146
f 149/149/149 148/148/148 146/146/146
f 152/152/152 151/151/151 150/150/150
f 153/153/153 152/152/152 150/150/150
f 156/156/156 155/155/155 154/154/154
f 157/157/157 156/156/156 154/154/154
f 160/160/160 159/159/159 158/158/158
f 161/161/161 160/160/160 158/158/158
f 164/164/164 163/163/163 162/162/162
f 165/165/165 164/164/164 162/162/162
f 168/168/168 167/167/167 166/166/166
f 169/169/169 168/168/168 166/166/166
f 172/172/172 171/171/171 170/170/170
f 173/173/173 172/172/172 170/170/170
f 176/176/176 175/175/175 174/174/174
f 177/177/177 176/176/176 174/174/174
f 180/180/180 179/179/179 178/178/178
f 181/181/181 180/180/180 178/178/178
f 184/184/184 183/183/183 182/182/182
f 185/185/185 184/184/184 182/182/182
f 188/188/188 187/187/187 186/186/186
f 189/189/189 188/188/188 186/186/186
f 192/192/192 191/191/191 190/190/190
f 193/193/193 192/192/192 190/190/190
f 196/196/196 195/195/195 194/194/194
f 197/197/197 196/196/196 194/194/194
f 200/200/200 199/199/199 198/198/198
f 201/201/201 200/200/200 198/198/198
f 204/204/204 203/203/203 202/202/202
f 205/205/205 204/204/204 202/202/202
f 208/208/208 207/207/207 206/206/206
f 209/209/209 208/208/208 206/206/206
f 212/212/212 211/211/211 210/210/210
f 213/213/213 212/212/212 210/210/210
f 216/216/216 215/215/215 214/214/214
f 217/217/217 216/216/216 214/214/214
f 220/220/220 219/219/219 218/218/218
f 221/221/221 220/220/220 218/218/218
f 224/224/224 223/223/223 222/222/222
f 225/225/225 224/224/224 222/222/222
f 228/228/228 227/227/227 226/226/226
f 229/229/229 228/228/228 226/226/226
f 232/232/232 231/231/231 230/230/230
f 233/233/233 232/232/232 230/230/230
f 236/236/236 235/235/235 234/234/234
f 237/237/237 236/236/236 234/234/234
f 240/240/240 239/239/239 238/238/238
f 241/241/241 240/240/240 238/238/238
f 244/244/244 243/243/243 242/242/242
f 245/245/245 244/244/244 242/242/242
f 248/248/248 247/247/247 246/246/246
f 249/249/249 248/248/248 246/246/246
f 252/252/252 251/251/251 250/250/250
f 253/253/253 252/252/252 250/250/250
f 256/256/256 255/255/255 254/254/254
f 257/257/257 256/256/256 254/254/254
f 260/260/260 259/259/259 258/258/258
f 261/261/261 260/260/260 258/258/258
f 264/264/264 263/263/263 262/262/262
f 265/265/265 264/264/264 262/262/262
f 268/268/268 267/267/267 266/266/266
f 269/269/269 268/268/268 266/266/266
f 272/272/272 271/271/271 270/270/270
f 273/273/273 272/272/272 270/270/270
f 276/276/276 275/275/275 274/274/274
f 277/277/277 276/276/276 274/274/274
f 280/280/280 279/279/279 278/278/278
f 281/281/281 280/280/280 278/278/278
f 284/284/284 283/283/283 282/282/282
f 285/285/285 284/284/284 282/282/282
f 288/288/288 287/287/287 286/286/286
f 289/289/289 288/288/288 286/286/286
f 292/292/292 291/291/291 290/290/290
f 293/293/293 292/292/292 290/290/290
f 296/296/296 295/295/295 294/294/294
f 297/297/297 296/296/296 294/294/294
f 300/300/300 299/299/299 298/298/298
f 301/301/301 300/300/300 298/298/298
f 304/304/304 303/303/303 302/302/302
f 305/305/305 304/304/304 302/302/302
f 308/308/308 307/307/307 306/306/306
f 309/309/309 308/308/308 306/306/306
f 312/312/312 311/311/311 310/310/310
f 313/313/313 312/312/312 310/310/310
f 316/316/316 315/315/315 314/314/314
f 317/317/317 316/316/316 314/314/314
f 320/320/320 319/319/319 318/318/318
f 321/321/321 320/320/320 318/318/318
f 324/324/324 323/323/323 322/322/322
f 325/325/325 324/324/324 322/322/322
f 328/328/328 327/327/327 326/326/326
f 329/329/329 328/328/328 326/326/326
f 332/332/332 331/331/331 330/330/330
f 333/333/333 332/332/332 330/330/330
f 336/336/336 335/335/335 334/334/334
f 337/337/337 336/336/336 334/334/334
f 340/340/340 339/339/339 338/338/338
f 341/341/341 340/340/340 338/338/338
f 344/344/344 343/343/343 342/342/342
f 345/345/345 344/344/344 342/342/342
f 348/348/348 347/347/347 346/346/346
f 349/349/349 348/348/348 346/346/346
f 352/352/352 351/351/351 350/350/350
f 353/353/353 352/352/352 350/350/350
f 356/356/356 355/355/355 354/354/354
f 357/357/357 356/356/356 354/354/354
f 360/360/360 359/359/359 358/358/358
f 361/361/361 360/360/360 358/358/358
f 364/364/364 363/363/363 362/362/362
f 365/365/365 364/364/364 362/362/362
f 368/368/368 367/367/367 366/366/366
f 369/369/369 368/368/368 366/366/366
f 372/372/372 371/371/371 370/370/370
f 373/373/373 372/372/372 370/370/370
f 376/376/376 375/375/375 374/374/374
f 377/377/377 376/376/376 374/374/374
f 380/380/380 379/379/379 378/378/378
f 381/381/381 380/380/380 378/378/378
f 384/384/384 383/383/383 382/382/382
f 385/385/385 384/384/384 382/382/382
f 388/388/388 387/387/387 386/386/386
f 389/389/389 388/388/388 386/386/386
f 392/392/392 391/391/391 390/390/390
f 393/393/393 392/392/392 390/390/390
f 396/396/396 395/395/395 394/394/394
f 397/397/397 396/396/396 394/394/394
f 400/400/400 399/399/399 398/398/398
f 401/401/401 400/400/400 398/398/398
f 404/404/404 403/403/403 402/402/402
f 405/405/405 404/404/404 402/402/402
f 408/408/408 407/407/407 406/406/406
f 409/409/409 408/408/408 406/406/406
f 412/412/412 411/411/411 410/410/410
f 413/413/413 412/412/412 410/410/410
f 416/416/416 415/415/415 414/414/414
f 417/417/417 416/416/416 414/414/414
f 420/420/420 419/419/419 418/418/418
f 421/421/421 420/420/420 418/418/418
f 424/424/424 423/423/423 422/422/422
f 423/423/423 425/425/425 422/422/422
f 422/422/422 425/425/425 426/426/426
f 425/425/425 427/427/427 426/426/426
f 430/430/430 429/429/429 428/428/428
f 431/431/431 430/430/430 428/428/428
f 434/434/434 433/433/433 432/432/432
f 432/432/432 435/435/435 434/434/434
f 435/435/435 436/436/436 434/434/434
f 436/436/436 437/437/437 434/434/434
f 440/440/440 439/439/439 438/438/438
f 441/441/441 440/440/440 438/438/438
f 444/444/444 443/443/443 442/442/442
f 445/445/445 444/444/444 442/442/442
f 448/448/448 447/447/447 446/446/446
f 449/449/449 448/448/448 446/446/446
f 452/452/452 451/451/451 450/450/450
f 453/453/453 452/452/452 450/450/450
f 456/456/456 455/455/455 454/454/454
f 457/457/457 456/456/456 454/454/454
f 460/460/460 459/459/459 458/458/458
f 460/460/460 458/458/458 461/461/461
f 459/459/459 462/462/462 458/458/458
f 458/458/458 463/463/463 461/461/461
f 459/459/459 464/464/464 462/462/462
f 464/464/464 465/465/465 462/462/462
f 463/463/463 465/465/465 464/464/464
f 466/466/466 461/461/461 463/463/463
f 464/464/464 467/467/467 463/463/463
f 467/467/467 466/466/466 463/463/463
