g rays-box
v -9.99931145 -10.000001 10.0022869
v -9.99931145 -9.99999905 -10.0022869
v -9.99931145 10.000001 -10.0022869
v -9.99931145 9.99999905 10.0022869
v 9.99931145 -9.99999905 -10.0022869
v 9.99931145 -10.000001 10.0022869
v 9.99931145 9.99999905 10.0022869
v 9.99931145 10.000001 -10.0022869
v -9.99931145 -9.99999905 -10.0022869
v 9.99931145 -9.99999905 -10.0022869
v 9.99931145 10.000001 -10.0022869
v -9.99931145 10.000001 -10.0022869
v 9.99931145 -10.000001 10.0022869
v -9.99931145 -10.000001 10.0022869
v -9.99931145 9.99999905 10.0022869
v 9.99931145 9.99999905 10.0022869
vt -0.997462869 0.000748813152
vt -1.99619317 0.000748932362
vt -1.99619317 0.999250889
vt -0.997462749 0.99925065
vt 0.999700546 0.000749051571
vt 0.000970379449 0.000748813152
vt 0.000970318913 0.999250889
vt 0.999700546 0.999250889
vt 1.9981339 0.00074917078
vt 0.999700546 0.000749051571
vt 0.999700546 0.999250889
vt 1.99813366 0.999251127
vt 0.000970379449 0.000748813152
vt -0.997462869 0.000748813152
vt -0.997462749 0.99925065
vt 0.000970318913 0.999250889
vn -1 0 0
vn -1 0 0
vn -1 0 0
vn -1 0 0
vn 1 0 0
vn 1 0 0
vn 1 0 0
vn 1 0 0
vn -0 0 -1
vn -0 0 -1
vn -0 0 -1
vn -0 0 -1
vn -0 0 1
vn -0 0 1
vn -0 0 1
vn -0 0 1
g rays-box_0
f 3/3/3 2/2/2 1/1/1
f 4/4/4 3/3/3 1/1/1
f 7/7/7 6/6/6 5/5/5
f 8/8/8 7/7/7 5/5/5
f 11/11/11 10/10/10 9/9/9
f 12/12/12 11/11/11 9/9/9
f 15/15/15 14/14/14 13/13/13
f 16/16/16 15/15/15 13/13/13
