g velke-kino_LP
v 9.1749897 18.5001602 20.1038837
v 21.625 18.1001606 20.1038837
v 21.625 18.5001602 20.1038837
v 9.1749897 18.1001606 20.1038837
v -3.2250061 18.5001602 20.1038837
v -3.2250061 18.1001606 20.1038837
v -9.42500401 18.5001602 20.1038837
v -9.42500401 18.1001606 20.1038837
v -21.625 18.5001602 20.1038837
v -21.625 18.1001606 20.1038837
v -21.625 18.1001606 -20.1038837
v -9.42500401 18.1001606 20.1038837
v -21.625 18.1001606 20.1038837
v -9.42500401 18.1001606 -20.1038837
v -3.2250061 18.1001606 20.1038837
v -3.2250061 18.1001606 -20.1038837
v 9.1749897 18.1001606 20.1038837
v 9.1749897 18.1001606 -20.1038837
v 21.625 18.1001606 -20.1038837
v 21.625 18.1001606 20.1038837
v -21.625 18.5001602 -20.1038837
v -21.625 18.1001606 -20.1038837
v -21.625 18.1001606 20.1038837
v -21.625 18.5001602 20.1038837
v 9.1749897 18.5001602 -20.1038837
v 21.625 18.5001602 -20.1038837
v 21.625 18.1001606 -20.1038837
v 9.1749897 18.1001606 -20.1038837
v -3.2250061 18.5001602 -20.1038837
v -3.2250061 18.1001606 -20.1038837
v -9.42500401 18.5001602 -20.1038837
v -9.42500401 18.1001606 -20.1038837
v -21.625 18.5001602 -20.1038837
v -21.625 18.1001606 -20.1038837
v 21.8250008 8.18070698 0.600000024
v 22.0250015 8.18070698 0.600000024
v 22.0250015 8.18070698 -0.600000024
v 21.8250008 8.18070698 -0.600000024
v -13.5749931 6.47162819 20.3038845
v -21.8250008 7.18008232 20.3038845
v -21.8250008 9.57188988 20.3038845
v -9.42500401 9.57188988 20.3038845
v -9.42500401 8.67417908 20.3038845
v -11.4750137 6.47162819 20.3038845
v -9.42500401 6.08070707 20.3038845
v -7.37499523 5.87391806 20.3038845
v -7.37499523 8.67417908 20.3038845
v -5.27501583 8.67417908 20.3038845
v -5.27501583 5.87391806 20.3038845
v -3.2250061 5.48299694 20.3038845
v -3.2250061 8.67417908 20.3038845
v -1.17499733 5.27620792 20.3038845
v -1.17499733 8.07646942 20.3038845
v 2.9749918 8.67417908 20.3038845
v 0.924982071 8.07646942 20.3038845
v 0.924982071 5.27620792 20.3038845
v 2.9749918 4.88528681 20.3038845
v 2.9749918 6.88104916 20.3038845
v 5.02500057 4.08078766 20.3038845
v 5.02500057 6.88104916 20.3038845
v 15.3749876 6.08070707 20.3038845
v 15.3749876 6.88104916 20.3038845
v 15.3749876 3.7624886 20.3038845
v 21.8250008 1.56413758 20.3038845
v 21.8250008 6.08070707 20.3038845
v -21.8250008 7.18008232 20.3038845
v -21.8250008 7.18008232 17.3038845
v -21.8250008 9.57188988 17.3038845
v -21.8250008 9.57188988 20.3038845
v 28.9200001 7.58070755 -10.7542353
v 28.9200001 7.58070755 10.7542353
v 28.9200001 5.58070707 10.7542353
v 28.9200001 5.58070707 -10.7542353
v -11.4750137 6.47162819 -20.3038845
v -21.8250008 9.57188988 -20.3038845
v -21.8250008 7.18008232 -20.3038845
v -9.42500401 9.57188988 -20.3038845
v -9.42500401 8.67417908 -20.3038845
v -9.42500401 6.08070707 -20.3038845
v -7.37499523 5.87391806 -20.3038845
v -7.37499523 8.67417908 -20.3038845
v -5.27501583 8.67417908 -20.3038845
v -5.27501583 5.87391806 -20.3038845
v -3.2250061 5.48299694 -20.3038845
v -3.2250061 8.67417908 -20.3038845
v -1.17499733 5.27620792 -20.3038845
v 2.9749918 8.67417908 -20.3038845
v 0.924982071 5.27620792 -20.3038845
v 2.9749918 6.88104916 -20.3038845
v 5.02500057 4.08078766 -20.3038845
v 5.02500057 6.88104916 -20.3038845
v 13.3249779 6.88104916 -20.3038845
v 13.3249779 4.08078766 -20.3038845
v 15.3749876 6.08070707 -20.3038845
v 15.3749876 6.88104916 -20.3038845
v 15.3749876 3.7624886 -20.3038845
v 21.8250008 0.964137614 -20.3038845
v 21.8250008 6.08070707 -20.3038845
v -21.8250008 7.18008232 -20.3038845
v -21.8250008 9.57188988 -20.3038845
v -21.8250008 9.57188988 -17.3038845
v -21.8250008 7.18008232 -17.3038845
v 21.8250008 6.08070707 -15.3038845
v 30.5650005 6.08070707 -15.3038845
v 30.5650005 5.58070707 -15.3038845
v 21.8250008 5.58070707 -15.3038845
v 21.8250008 7.58070755 10.954236
v 21.8250008 7.58070755 10.7542353
v 28.9200001 7.58070755 10.7542353
v 35.7649994 7.58070755 10.7542353
v 35.9650002 7.58070755 10.954236
v 35.9650002 7.58070755 -10.954236
v 28.9200001 7.58070755 -10.7542353
v 35.7649994 7.58070755 -10.7542353
v 28.9200001 7.58070755 -10.954236
v 21.8250008 7.58070755 -10.954236
v 21.8250008 7.58070755 -10.7542353
v 30.9650002 6.08070707 10.954236
v 35.9650002 7.58070755 10.954236
v 35.9650002 6.08070707 10.954236
v 30.5650005 6.08070707 10.954236
v 21.8250008 7.58070755 10.954236
v 21.8250008 5.58070707 10.954236
v 30.5650005 5.58070707 10.954236
v 21.8250008 7.58070755 10.7542353
v 21.8250008 5.58070707 10.7542353
v 28.9200001 5.58070707 10.7542353
v 28.9200001 7.58070755 10.7542353
v 21.8250008 5.58070707 -10.954236
v 28.9200001 7.58070755 -10.954236
v 21.8250008 7.58070755 -10.954236
v 30.5650005 6.08070707 -10.954236
v 30.5650005 5.58070707 -10.954236
v 35.9650002 7.58070755 -10.954236
v 30.9650002 6.08070707 -10.954236
v 35.9650002 6.08070707 -10.954236
v 21.8250008 7.58070755 -10.7542353
v 28.9200001 7.58070755 -10.7542353
v 28.9200001 5.58070707 -10.7542353
v 21.8250008 5.58070707 -10.7542353
v 30.9650002 0.964137614 -29.3038845
v 30.9650002 0.964137495 -5.57390022
v 30.9650002 3.96413755 -5.57390022
v 30.9650002 6.08070707 -29.3038845
v 30.9650002 6.08070707 -10.954236
v 30.9650002 6.08070707 10.954236
v 30.9650002 3.96413755 5.57390022
v 30.9650002 6.08070707 29.3038845
v 30.9650002 0.964137614 29.3038845
v 30.9650002 0.964137495 5.57390022
v 5.02500057 6.88104916 20.3038845
v 15.3749876 6.88104916 20.5038853
v 15.3749876 6.88104916 20.3038845
v 5.02500057 6.88104916 20.5038853
v 2.9749918 6.88104916 20.3038845
v 2.9749918 6.88104916 20.5038853
v -9.42500401 8.67417908 20.3038845
v -9.42500401 8.67417908 20.5038853
v -7.37499523 8.67417908 20.5038853
v -7.37499523 8.67417908 20.3038845
v -5.27501583 8.67417908 20.5038853
v -5.27501583 8.67417908 20.3038845
v -3.2250061 8.67417908 20.5038853
v -3.2250061 8.67417908 20.3038845
v 2.9749918 8.67417908 20.5038853
v 2.9749918 8.67417908 20.3038845
v -9.42500401 9.57188988 20.3038845
v -9.42500401 9.57188988 20.5038853
v -9.42500401 8.67417908 20.5038853
v -9.42500401 8.67417908 20.3038845
v 15.3749876 6.08070707 20.3038845
v 15.3749876 6.08070707 20.5038853
v 22.0250015 6.08070707 20.5038853
v 21.8250008 6.08070707 20.3038845
v -22.0250015 9.57188988 20.5038853
v -22.0250015 18.5001602 20.5038853
v -9.42500401 18.5001602 20.5038853
v -9.42500401 9.57188988 20.5038853
v -3.2250061 18.5001602 20.5038853
v -7.37499523 8.67417908 20.5038853
v -9.42500401 8.67417908 20.5038853
v -5.27501583 8.67417908 20.5038853
v -3.2250061 8.67417908 20.5038853
v 9.1749897 18.5001602 20.5038853
v 2.9749918 8.67417908 20.5038853
v 5.02500057 6.88104916 20.5038853
v 2.9749918 6.88104916 20.5038853
v 15.3749876 6.88104916 20.5038853
v 22.0250015 18.5001602 20.5038853
v 22.0250015 6.08070707 20.5038853
v 15.3749876 6.08070707 20.5038853
v 15.3749876 6.88104916 20.3038845
v 15.3749876 6.88104916 20.5038853
v 15.3749876 6.08070707 20.5038853
v 15.3749876 6.08070707 20.3038845
v -21.8250008 9.57188988 20.3038845
v -22.0250015 9.57188988 20.5038853
v -9.42500401 9.57188988 20.5038853
v -9.42500401 9.57188988 20.3038845
v 2.9749918 8.67417908 20.3038845
v 2.9749918 8.67417908 20.5038853
v 2.9749918 6.88104916 20.5038853
v 2.9749918 6.88104916 20.3038845
v -21.8250008 9.57188988 -20.3038845
v -22.0250015 9.57188988 -20.5038853
v -22.0250015 9.57188988 -17.3038845
v -21.8250008 9.57188988 -17.3038845
v 13.3249779 6.88104916 -20.3038845
v 15.3749876 6.88104916 -20.3038845
v 15.3749876 6.88104916 -20.5038853
v 13.3249779 6.88104916 -20.5038853
v 5.02500057 6.88104916 -20.3038845
v 5.02500057 6.88104916 -20.5038853
v 2.9749918 6.88104916 -20.3038845
v 2.9749918 6.88104916 -20.5038853
v -9.42500401 8.67417908 -20.3038845
v -7.37499523 8.67417908 -20.5038853
v -9.42500401 8.67417908 -20.5038853
v -7.37499523 8.67417908 -20.3038845
v -5.27501583 8.67417908 -20.5038853
v -5.27501583 8.67417908 -20.3038845
v -3.2250061 8.67417908 -20.5038853
v -3.2250061 8.67417908 -20.3038845
v 2.9749918 8.67417908 -20.5038853
v 2.9749918 8.67417908 -20.3038845
v -9.42500401 9.57188988 -20.3038845
v -9.42500401 8.67417908 -20.3038845
v -9.42500401 8.67417908 -20.5038853
v -9.42500401 9.57188988 -20.5038853
v 15.3749876 6.08070707 -20.3038845
v 21.8250008 6.08070707 -20.3038845
v 22.0250015 6.08070707 -20.5038853
v 15.3749876 6.08070707 -20.5038853
v 2.9749918 8.67417908 -20.5038853
v 2.9749918 6.88104916 -20.5038853
v 5.02500057 6.88104916 -20.5038853
v 9.1749897 18.5001602 -20.5038853
v -3.2250061 9.68008232 -20.5038853
v -3.2250061 8.67417908 -20.5038853
v -5.27501583 8.67417908 -20.5038853
v -7.37499523 8.67417908 -20.5038853
v 15.3749876 6.88104916 -20.5038853
v 13.3249779 6.88104916 -20.5038853
v 22.0250015 18.5001602 -20.5038853
v 22.0250015 6.08070707 -20.5038853
v 15.3749876 6.08070707 -20.5038853
v -3.2250061 18.5001602 -20.5038853
v -9.42500401 9.57188988 -20.5038853
v -9.42500401 8.67417908 -20.5038853
v -9.42500401 18.5001602 -20.5038853
v -22.0250015 9.57188988 -20.5038853
v -22.0250015 18.5001602 -20.5038853
v 15.3749876 6.88104916 -20.3038845
v 15.3749876 6.08070707 -20.3038845
v 15.3749876 6.08070707 -20.5038853
v 15.3749876 6.88104916 -20.5038853
v -21.8250008 9.57188988 -20.3038845
v -9.42500401 9.57188988 -20.3038845
v -9.42500401 9.57188988 -20.5038853
v -22.0250015 9.57188988 -20.5038853
v 2.9749918 8.67417908 -20.3038845
v 2.9749918 6.88104916 -20.3038845
v 2.9749918 6.88104916 -20.5038853
v 2.9749918 8.67417908 -20.5038853
v -22.0250015 9.57188988 17.3038845
v -22.0250015 9.57188988 20.5038853
v -21.8250008 9.57188988 20.3038845
v -21.8250008 9.57188988 17.3038845
v -22.0250015 9.57188988 -20.5038853
v -22.0250015 18.5001602 -20.5038853
v -22.0250015 9.57188988 -17.3038845
v -22.0250015 18.5001602 20.5038853
v -22.0250015 9.57188988 17.3038845
v -22.0250015 9.57188988 20.5038853
v 35.9650002 6.08070707 10.954236
v 35.9650002 6.08070707 -10.954236
v 30.9650002 6.08070707 -10.954236
v 30.9650002 6.08070707 10.954236
v 21.8250008 6.08070707 15.3038845
v 21.8250008 5.58070707 0
v 21.8250008 5.58070707 15.3038845
v 21.8250008 6.08070707 0.600000024
v 21.8250008 6.08070707 -15.3038845
v 21.8250008 5.58070707 -15.3038845
v 21.8250008 8.18070698 0.600000024
v 21.8250008 8.18070698 -0.600000024
v 21.8250008 6.08070707 -0.600000024
v 22.0250015 8.18070698 0.600000024
v 21.8250008 8.18070698 0.600000024
v 21.8250008 6.08070707 0.600000024
v 22.0250015 6.08070707 0.600000024
v 22.0250015 8.18070698 0.600000024
v 22.0250015 6.08070707 0.600000024
v 22.0250015 6.08070707 20.5038853
v 22.0250015 18.5001602 20.5038853
v 22.0250015 18.5001602 -20.5038853
v 22.0250015 8.18070698 -0.600000024
v 22.0250015 6.08070707 -20.5038853
v 22.0250015 6.08070707 -0.600000024
v 22.0250015 8.18070698 -0.600000024
v 22.0250015 6.08070707 -0.600000024
v 21.8250008 6.08070707 -0.600000024
v 21.8250008 8.18070698 -0.600000024
v 26.3950005 6.08070707 -20.3038845
v 21.8250008 6.08070707 -20.3038845
v 21.8250008 0.964137614 -20.3038845
v 26.3950005 0.964137614 -20.2838593
v 30.9650002 0.964137614 -29.3038845
v 30.9650002 6.08070707 -29.3038845
v 26.3950005 6.08070707 -29.3038845
v 26.3950005 0.964137614 -29.3038845
v 26.3950005 0.964137614 -29.3038845
v 26.3950005 6.08070707 -29.3038845
v 26.3950005 6.08070707 -20.3038845
v 26.3950005 0.964137614 -20.2838593
v 26.3950005 1.56413758 20.3038845
v 26.3950005 0.964137614 20.2838593
v 21.8250008 0.964137614 20.3038845
v 21.8250008 1.56413758 20.3038845
v 26.3950005 3.16460776 20.3038845
v 22.7944679 3.16460776 20.3038845
v 21.8250008 6.08070707 20.3038845
v 22.7944679 3.96413779 20.3038845
v 26.3950005 6.08070707 20.3038845
v 26.3950005 3.96413779 20.3038845
v 25.4948673 3.16460776 20.3038845
v 25.4948673 3.96413779 20.3038845
v 24.5947342 3.16460776 20.3038845
v 24.5947342 3.96413779 20.3038845
v 23.6946011 3.16460776 20.3038845
v 23.6946011 3.96413779 20.3038845
v 30.9650002 0.964137614 29.3038845
v 26.3950005 0.964137614 29.3038845
v 26.3950005 6.08070707 29.3038845
v 30.9650002 6.08070707 29.3038845
v 26.3950005 0.964137614 29.3038845
v 26.3950005 0.964137614 20.2838593
v 26.3950005 1.56413758 20.3038845
v 26.3950005 3.16460776 24.7038822
v 26.3950005 3.16460776 20.3038845
v 26.3950005 3.96413779 20.3038845
v 26.3950005 3.96413779 24.7038822
v 26.3950005 6.08070707 20.3038845
v 26.3950005 3.96413779 28.3038826
v 26.3950005 6.08070707 29.3038845
v 26.3950005 3.16460776 28.3038826
v 26.3950005 3.164608 27.4037495
v 26.3950005 3.96413779 27.4037495
v 26.3950005 3.164608 26.5036163
v 26.3950005 3.96413779 26.5036163
v 26.3950005 3.164608 25.6034832
v 26.3950005 3.96413779 25.6034832
v 26.3950005 3.96413779 24.7033501
v 26.3950005 3.164608 24.7033501
v -24.5250015 7.18008232 -17.3038845
v -24.5250015 9.37189007 -17.3038845
v -24.5250015 9.37189007 17.3038845
v -24.5250015 7.18008232 17.3038845
v -24.5250015 7.18008232 17.3038845
v -24.5250015 9.37189007 17.3038845
v -22.0250015 9.57188988 17.3038845
v -21.8250008 7.18008232 17.3038845
v -21.8250008 9.57188988 17.3038845
v -24.5250015 7.18008232 -17.3038845
v -22.0250015 9.57188988 -17.3038845
v -24.5250015 9.37189007 -17.3038845
v -21.8250008 7.18008232 -17.3038845
v -21.8250008 9.57188988 -17.3038845
v 21.8250008 6.08070707 20.3038845
v 21.8250008 6.08070707 15.3038845
v 30.5650005 6.08070707 15.3038845
v 26.3950005 6.08070707 20.3038845
v 26.3950005 6.08070707 29.3038845
v 30.9650002 6.08070707 29.3038845
v 30.9650002 6.08070707 10.954236
v 30.5650005 6.08070707 10.954236
v 21.8250008 6.08070707 15.3038845
v 21.8250008 5.58070707 15.3038845
v 30.5650005 5.58070707 15.3038845
v 30.5650005 6.08070707 15.3038845
v 21.8250008 5.58070707 15.3038845
v 21.8250008 5.58070707 10.954236
v 30.5650005 5.58070707 10.954236
v 30.5650005 5.58070707 15.3038845
v 30.5650005 6.08070707 -10.954236
v 30.9650002 6.08070707 -29.3038845
v 30.9650002 6.08070707 -10.954236
v 30.5650005 6.08070707 -15.3038845
v 26.3950005 6.08070707 -29.3038845
v 26.3950005 6.08070707 -20.3038845
v 21.8250008 6.08070707 -15.3038845
v 21.8250008 6.08070707 -20.3038845
v 21.8250008 5.58070707 -10.7542353
v 28.9200001 5.58070707 -10.7542353
v 28.9200001 5.58070707 10.7542353
v 21.8250008 5.58070707 10.7542353
v 21.8250008 5.58070707 -15.3038845
v 30.5650005 5.58070707 -15.3038845
v 30.5650005 5.58070707 -10.954236
v 21.8250008 5.58070707 -10.954236
v 30.5650005 6.08070707 15.3038845
v 30.5650005 5.58070707 15.3038845
v 30.5650005 5.58070707 10.954236
v 30.5650005 6.08070707 10.954236
v 30.5650005 6.08070707 -15.3038845
v 30.5650005 6.08070707 -10.954236
v 30.5650005 5.58070707 -10.954236
v 30.5650005 5.58070707 -15.3038845
v 27.6245441 3.96413755 2.98972487
v 27.6245441 0.964137554 2.98972487
v 27.6245441 0.964137495 5.57390022
v 27.6245441 3.96413755 5.57390022
v 27.6245441 3.96413755 -5.57390022
v 27.6245441 0.964137495 -5.57390022
v 27.6245441 0.964137554 -2.98972487
v 27.6245441 3.96413755 -2.98972487
v 27.6245441 0.964137554 -2.58979011
v 27.6245441 3.96413755 0
v 27.6245441 3.96413755 -2.58978987
v 27.6245441 0.964137554 0
v 27.6245441 3.96413755 2.58978987
v 27.6245441 0.964137554 2.58979011
v 30.7436333 3.96413755 2.64835954
v 30.7436333 0.964137554 2.64835954
v 30.8022003 0.964137554 2.78975749
v 30.8022003 3.96413755 2.78975749
v 30.6022339 3.96413755 2.98972487
v 30.6022339 0.964137554 2.98972487
v 30.4608345 0.964137554 2.93115544
v 30.4608345 3.96413755 2.93115544
v 30.4608345 3.96413755 2.64835954
v 30.4608345 0.964137554 2.64835954
v 30.6022339 0.964137554 2.58979011
v 30.6022339 3.96413755 2.58979011
v 30.6022339 3.96413755 2.58979011
v 30.6022339 0.964137554 2.58979011
v 30.7436333 0.964137554 2.64835954
v 30.7436333 3.96413755 2.64835954
v 30.7436333 3.96413755 2.93115544
v 30.7436333 0.964137554 2.93115544
v 30.6022339 0.964137554 2.98972487
v 30.6022339 3.96413755 2.98972487
v 30.4022675 3.96413755 2.78975749
v 30.4022675 0.964137554 2.78975749
v 30.4608345 0.964137554 2.64835954
v 30.4608345 3.96413755 2.64835954
v 30.8022003 3.96413755 2.78975749
v 30.8022003 0.964137554 2.78975749
v 30.7436333 0.964137554 2.93115544
v 30.7436333 3.96413755 2.93115544
v 30.4608345 3.96413755 2.93115544
v 30.4608345 0.964137554 2.93115544
v 30.4022675 0.964137554 2.78975749
v 30.4022675 3.96413755 2.78975749
v 30.7436333 3.96413755 -2.64835954
v 30.8022003 3.96413755 -2.78975749
v 30.8022003 0.964137554 -2.78975749
v 30.7436333 0.964137554 -2.64835954
v 30.6022339 3.96413755 -2.98972487
v 30.4608345 3.96413755 -2.93115544
v 30.4608345 0.964137554 -2.93115544
v 30.6022339 0.964137554 -2.98972487
v 30.4608345 3.96413755 -2.64835954
v 30.6022339 3.96413755 -2.58979011
v 30.6022339 0.964137554 -2.58979011
v 30.4608345 0.964137554 -2.64835954
v 30.6022339 3.96413755 -2.58979011
v 30.7436333 3.96413755 -2.64835954
v 30.7436333 0.964137554 -2.64835954
v 30.6022339 0.964137554 -2.58979011
v 30.7436333 3.96413755 -2.93115544
v 30.6022339 3.96413755 -2.98972487
v 30.6022339 0.964137554 -2.98972487
v 30.7436333 0.964137554 -2.93115544
v 30.4022675 3.96413755 -2.78975749
v 30.4608345 3.96413755 -2.64835954
v 30.4608345 0.964137554 -2.64835954
v 30.4022675 0.964137554 -2.78975749
v 30.8022003 3.96413755 -2.78975749
v 30.7436333 3.96413755 -2.93115544
v 30.7436333 0.964137554 -2.93115544
v 30.8022003 0.964137554 -2.78975749
v 30.4608345 3.96413755 -2.93115544
v 30.4022675 3.96413755 -2.78975749
v 30.4022675 0.964137554 -2.78975749
v 30.4608345 0.964137554 -2.93115544
v 30.9650002 3.96413755 -5.57390022
v 30.9650002 0.964137495 -5.57390022
v 27.6245441 0.964137495 -5.57390022
v 27.6245441 3.96413755 -5.57390022
v 27.6245441 0.964137495 5.57390022
v 30.9650002 0.964137495 5.57390022
v 30.9650002 3.96413755 5.57390022
v 27.6245441 3.96413755 5.57390022
v 27.8245106 3.96413755 2.78975749
v 27.8245106 0.964137554 2.78975749
v 27.7659435 0.964137554 2.93115544
v 27.7659435 3.96413755 2.93115544
v 27.7659435 3.96413755 2.93115544
v 27.7659435 0.964137554 2.93115544
v 27.6245441 0.964137554 2.98972487
v 27.6245441 3.96413755 2.98972487
v 27.6245441 3.96413755 2.58978987
v 27.6245441 0.964137554 2.58979011
v 27.7659435 0.964137554 2.64835954
v 27.7659435 3.96413755 2.64835954
v 27.7659435 3.96413755 2.64835954
v 27.7659435 0.964137554 2.64835954
v 27.8245106 0.964137554 2.78975749
v 27.8245106 3.96413755 2.78975749
v 27.8245106 3.96413755 -2.78975749
v 27.7659435 3.96413755 -2.93115544
v 27.7659435 0.964137554 -2.93115544
v 27.8245106 0.964137554 -2.78975749
v 27.7659435 3.96413755 -2.93115544
v 27.6245441 3.96413755 -2.98972487
v 27.6245441 0.964137554 -2.98972487
v 27.7659435 0.964137554 -2.93115544
v 27.6245441 3.96413755 -2.58978987
v 27.7659435 3.96413755 -2.64835954
v 27.7659435 0.964137554 -2.64835954
v 27.6245441 0.964137554 -2.58979011
v 27.7659435 3.96413755 -2.64835954
v 27.8245106 3.96413755 -2.78975749
v 27.8245106 0.964137554 -2.78975749
v 27.7659435 0.964137554 -2.64835954
v 27.6245441 3.96413755 5.57390022
v 30.9650002 3.96413755 5.57390022
v 27.6245441 3.96413755 0
v 30.9650002 3.96413755 -5.57390022
v 27.6245441 3.96413755 -5.57390022
v 35.9650002 6.08070707 -10.954236
v 35.9650002 6.08070707 10.954236
v 35.9650002 7.58070755 10.954236
v 35.9650002 7.58070755 -10.954236
v -18.2115936 18.6001606 0.297038645
v -18.1315937 18.8377285 0.242350861
v -17.4915943 18.8377285 0.242350861
v -17.4115944 18.6001606 0.297038645
v -17.4115944 18.1001606 1.39703858
v -18.2115936 18.1001606 1.39703858
v -18.2115936 18.6001606 1.39703858
v -17.4115944 18.6001606 1.39703858
v -17.4115944 18.1001606 0.797038674
v -17.4115944 18.1001606 1.39703858
v -17.4115944 18.6001606 1.39703858
v -17.4115944 18.6001606 0.797038674
v -18.2115936 18.1001606 0.797038674
v -17.4115944 18.1001606 0.797038674
v -17.4115944 18.6001606 0.797038674
v -18.2115936 18.6001606 0.797038674
v -17.4915943 18.8377285 -0.242350861
v -17.4915943 18.8377285 0.242350861
v -18.1315937 18.8377285 0.242350861
v -18.1315937 18.8377285 -0.242350861
v -18.2115936 18.1001606 0.297038645
v -18.2115936 18.6001606 0.297038645
v -17.4115944 18.6001606 0.297038645
v -17.4115944 18.1001606 0.297038645
v -17.4115944 18.6001606 1.39703858
v -18.2115936 18.6001606 1.39703858
v -18.1315937 18.8377285 1.33703864
v -17.4915943 18.8377285 1.33703864
v -18.1315937 18.8377285 0.857038617
v -17.4915943 18.8377285 0.857038617
v -17.4915943 18.8377285 1.33703864
v -18.1315937 18.8377285 1.33703864
v -18.1315937 18.8377285 0.242350861
v -18.2115936 18.6001606 0.297038645
v -18.2115936 18.6001606 -0.297038645
v -18.1315937 18.8377285 -0.242350861
v -17.4115944 18.6001606 0.797038674
v -17.4115944 18.6001606 1.39703858
v -17.4915943 18.8377285 1.33703864
v -17.4915943 18.8377285 0.857038617
v -17.4115944 18.1001606 -0.297038645
v -17.4115944 18.1001606 0.297038645
v -17.4115944 18.6001606 0.297038645
v -17.4115944 18.6001606 -0.297038645
v -18.2115936 18.6001606 0.797038674
v -17.4115944 18.6001606 0.797038674
v -17.4915943 18.8377285 0.857038617
v -18.1315937 18.8377285 0.857038617
v -18.2115936 18.6001606 1.39703858
v -18.2115936 18.6001606 0.797038674
v -18.1315937 18.8377285 0.857038617
v -18.1315937 18.8377285 1.33703864
v -18.2115936 18.6001606 -0.297038645
v -17.4115944 18.6001606 -0.297038645
v -17.4915943 18.8377285 -0.242350861
v -18.1315937 18.8377285 -0.242350861
v -17.4115944 18.1001606 -1.39703858
v -17.4115944 18.6001606 -1.39703858
v -18.2115936 18.6001606 -1.39703858
v -18.2115936 18.1001606 -1.39703858
v -17.4115944 18.1001606 -0.797038674
v -17.4115944 18.6001606 -0.797038674
v -17.4115944 18.6001606 -1.39703858
v -17.4115944 18.1001606 -1.39703858
v -18.2115936 18.1001606 -0.797038674
v -18.2115936 18.6001606 -0.797038674
v -17.4115944 18.6001606 -0.797038674
v -17.4115944 18.1001606 -0.797038674
v -18.2115936 18.1001606 -0.297038645
v -17.4115944 18.1001606 -0.297038645
v -17.4115944 18.6001606 -0.297038645
v -18.2115936 18.6001606 -0.297038645
v -17.4115944 18.6001606 -1.39703858
v -17.4915943 18.8377285 -1.33703864
v -18.1315937 18.8377285 -1.33703864
v -18.2115936 18.6001606 -1.39703858
v -18.1315937 18.8377285 -0.857038617
v -18.1315937 18.8377285 -1.33703864
v -17.4915943 18.8377285 -1.33703864
v -17.4915943 18.8377285 -0.857038617
v -17.4115944 18.6001606 -0.797038674
v -17.4915943 18.8377285 -0.857038617
v -17.4915943 18.8377285 -1.33703864
v -17.4115944 18.6001606 -1.39703858
v -18.2115936 18.6001606 -0.797038674
v -18.1315937 18.8377285 -0.857038617
v -17.4915943 18.8377285 -0.857038617
v -17.4115944 18.6001606 -0.797038674
v -18.2115936 18.6001606 -1.39703858
v -18.1315937 18.8377285 -1.33703864
v -18.1315937 18.8377285 -0.857038617
v -18.2115936 18.6001606 -0.797038674
v -18.2115936 18.1001606 1.39703858
v -18.2115936 18.1001606 0.797038674
v -18.2115936 18.6001606 0.797038674
v -18.2115936 18.6001606 1.39703858
v -17.4115944 18.6001606 -0.297038645
v -17.4115944 18.6001606 0.297038645
v -17.4915943 18.8377285 0.242350861
v -17.4915943 18.8377285 -0.242350861
v -18.2115936 18.1001606 -1.39703858
v -18.2115936 18.6001606 -1.39703858
v -18.2115936 18.6001606 -0.797038674
v -18.2115936 18.1001606 -0.797038674
v -18.2115936 18.6001606 0.297038645
v -18.2115936 18.1001606 0.297038645
v -18.2115936 18.1001606 -0.297038645
v -18.2115936 18.6001606 -0.297038645
v -22.0250015 9.57188988 -17.3038845
v -22.0250015 9.57188988 17.3038845
v -24.5250015 9.37189007 17.3038845
v -24.5250015 9.37189007 -17.3038845
v 21.625 18.5001602 -20.1038837
v 21.625 18.5001602 20.1038837
v 21.625 18.1001606 20.1038837
v 21.625 18.1001606 -20.1038837
v 31.0650005 4.21828365 6.90584373
v 31.0650005 2.26413751 6.90584373
v 30.9650002 2.26413751 6.90584373
v 30.9650002 4.21828365 6.90584373
v 31.0650005 4.21828365 5.70110178
v 31.0650005 4.21828365 6.90584373
v 30.9650002 4.21828365 6.90584373
v 30.9650002 4.21828365 5.70110178
v 31.0650005 2.26413751 5.70110178
v 31.0650005 4.21828365 5.70110178
v 30.9650002 4.21828365 5.70110178
v 30.9650002 2.26413751 5.70110178
v 31.0650005 2.26413751 6.90584373
v 31.0650005 2.26413751 5.70110178
v 30.9650002 2.26413751 5.70110178
v 30.9650002 2.26413751 6.90584373
v 31.0650005 4.21828365 5.70110178
v 31.0650005 2.26413751 5.70110178
v 31.0650005 2.26413751 6.90584373
v 31.0650005 4.21828365 6.90584373
v 31.0650005 4.21828365 -6.90584373
v 30.9650002 4.21828365 -6.90584373
v 30.9650002 2.26413751 -6.90584373
v 31.0650005 2.26413751 -6.90584373
v 31.0650005 4.21828365 -5.70110178
v 30.9650002 4.21828365 -5.70110178
v 30.9650002 4.21828365 -6.90584373
v 31.0650005 4.21828365 -6.90584373
v 31.0650005 2.26413751 -5.70110178
v 30.9650002 2.26413751 -5.70110178
v 30.9650002 4.21828365 -5.70110178
v 31.0650005 4.21828365 -5.70110178
v 31.0650005 2.26413751 -6.90584373
v 30.9650002 2.26413751 -6.90584373
v 30.9650002 2.26413751 -5.70110178
v 31.0650005 2.26413751 -5.70110178
v 31.0650005 4.21828365 -6.90584373
v 31.0650005 2.26413751 -6.90584373
v 31.0650005 2.26413751 -5.70110178
v 31.0650005 4.21828365 -5.70110178
v 30.9650002 5.76640081 -6.90584373
v 31.0650005 5.76640081 -6.90584373
v 31.0650005 5.76640081 6.90584373
v 30.9650002 5.76640081 6.90584373
v 31.0650005 5.76640081 6.90584373
v 31.0650005 4.26413774 6.90584373
v 30.9650002 4.26413774 6.90584373
v 30.9650002 5.76640081 6.90584373
v 31.0650005 4.26413774 -6.90584373
v 30.9650002 4.26413774 -6.90584373
v 30.9650002 4.26413774 6.90584373
v 31.0650005 4.26413774 6.90584373
v 31.0650005 5.76640081 -6.90584373
v 30.9650002 5.76640081 -6.90584373
v 30.9650002 4.26413774 -6.90584373
v 31.0650005 4.26413774 -6.90584373
v 31.0650005 5.76640081 -6.90584373
v 31.0650005 5.61640072 6.75584364
v 31.0650005 5.76640081 6.90584373
v 31.0650005 4.26413774 6.90584373
v 31.0650005 5.61640072 -6.75584364
v 31.0650005 4.26413774 -6.90584373
v 31.0650005 4.41413784 6.75584364
v 31.0650005 4.41413784 -6.75584364
v 22.0250015 18.5001602 20.5038853
v 21.625 18.5001602 -20.1038837
v 22.0250015 18.5001602 -20.5038853
v 9.1749897 18.5001602 -20.5038853
v 21.625 18.5001602 20.1038837
v 9.1749897 18.5001602 -20.1038837
v 9.1749897 18.5001602 20.5038853
v -3.2250061 18.5001602 -20.5038853
v 9.1749897 18.5001602 20.1038837
v -3.2250061 18.5001602 -20.1038837
v -3.2250061 18.5001602 20.5038853
v -9.42500401 18.5001602 -20.5038853
v -3.2250061 18.5001602 20.1038837
v -9.42500401 18.5001602 -20.1038837
v -9.42500401 18.5001602 20.5038853
v -22.0250015 18.5001602 -20.5038853
v -9.42500401 18.5001602 20.1038837
v -21.625 18.5001602 -20.1038837
v -22.0250015 18.5001602 20.5038853
v -21.625 18.5001602 20.1038837
vt 0.792405963 0.275606513
vt 0.714937806 0.272896707
vt 0.713651597 0.274157763
vt 0.792407274 0.273110956
vt 0.869655848 0.275612831
vt 0.869654119 0.273121804
vt 0.908257842 0.275577098
vt 0.908255994 0.273084193
vt 0.985279024 0.274151146
vt 0.984032214 0.272905886
vt 0.983863652 0.0232592225
vt 0.908255994 0.273084193
vt 0.984032214 0.272905886
vt 0.908197999 0.0231755376
vt 0.869654119 0.273121804
vt 0.869667709 0.0231688544
vt 0.792407274 0.273110956
vt 0.79261291 0.0231751949
vt 0.715416491 0.0232482627
vt 0.714937806 0.272896707
vt 0.98510623 0.022013776
vt 0.983863652 0.0232592225
vt 0.984032214 0.272905886
vt 0.985279024 0.274151146
vt 0.792613566 0.0206872597
vt 0.714174211 0.0220040139
vt 0.715416491 0.0232482627
vt 0.79261291 0.0231751949
vt 0.869667709 0.0206830874
vt 0.869667709 0.0231688544
vt 0.908197045 0.0206867978
vt 0.908197999 0.0231755376
vt 0.98510623 0.022013776
vt 0.983863652 0.0232592225
vt 0.542319834 0.125081986
vt 0.542319834 0.125081986
vt 0.55111903 0.125081986
vt 0.55111903 0.125081986
vt 0.329966456 0.230830461
vt 0.38968274 0.235400423
vt 0.389817744 0.252723396
vt 0.300542563 0.253656268
vt 0.30017513 0.247247428
vt 0.314866751 0.231044263
vt 0.300065279 0.228324294
vt 0.285196722 0.226735443
vt 0.285129189 0.247017428
vt 0.269932151 0.246922418
vt 0.269937307 0.22669971
vt 0.25508219 0.223950282
vt 0.255180836 0.246905714
vt 0.240277514 0.222609773
vt 0.240470812 0.242754713
vt 0.210828543 0.24749957
vt 0.225414768 0.242966175
vt 0.225164607 0.222800002
vt 0.210391849 0.220063403
vt 0.210439846 0.23462227
vt 0.195569202 0.214070365
vt 0.195385113 0.234337017
vt 0.120972708 0.228755981
vt 0.121320814 0.234409019
vt 0.120960355 0.211973026
vt 0.0743725449 0.195514739
vt 0.0740088075 0.228261411
vt 0.399577618 0.29259491
vt 0.421245933 0.292594969
vt 0.421245933 0.275319457
vt 0.399577677 0.275319338
vt 0.980863869 0.341440469
vt 0.980863869 0.510861576
vt 0.996617734 0.510861576
vt 0.996617854 0.341440469
vt 0.149958983 0.192594528
vt 0.0749987215 0.171164677
vt 0.0751917511 0.188473612
vt 0.164221361 0.169962615
vt 0.164603069 0.176368579
vt 0.164753273 0.195278987
vt 0.179612428 0.196838215
vt 0.179642558 0.176569
vt 0.194833308 0.176637292
vt 0.194860354 0.196848467
vt 0.209709451 0.199575126
vt 0.20957917 0.17663081
vt 0.224506423 0.20089674
vt 0.253917992 0.175986484
vt 0.239610583 0.200690776
vt 0.254318178 0.188860402
vt 0.269197226 0.209394708
vt 0.269368738 0.189135194
vt 0.329068661 0.189260736
vt 0.329164207 0.209251449
vt 0.343768567 0.194685891
vt 0.343419135 0.189033583
vt 0.343783945 0.211466953
vt 0.39033708 0.232265472
vt 0.390729219 0.195173651
vt 0.692878306 0.292595029
vt 0.692878306 0.275319457
vt 0.67121011 0.275319457
vt 0.67121011 0.292595029
vt 0.904395878 0.535387933
vt 0.969609439 0.535387933
vt 0.969609439 0.535387933
vt 0.904395878 0.535387933
vt 0.843150854 0.554946303
vt 0.843150854 0.5536955
vt 0.798775792 0.553694665
vt 0.755967379 0.553694665
vt 0.754716933 0.554944992
vt 0.754716814 0.417930692
vt 0.79877609 0.419181585
vt 0.755967557 0.419181406
vt 0.79877609 0.417930812
vt 0.843147993 0.417930901
vt 0.843147993 0.419181585
vt 0.785987616 0.564326823
vt 0.754716933 0.554944992
vt 0.754716814 0.564326286
vt 0.788489282 0.564326823
vt 0.843150854 0.554946303
vt 0.843150675 0.567454636
vt 0.788489282 0.56745404
vt 0.980863869 0.5667485
vt 0.996617734 0.5667485
vt 0.996617734 0.510861576
vt 0.980863869 0.510861576
vt 0.843147993 0.405422956
vt 0.79877609 0.417930812
vt 0.843147993 0.417930901
vt 0.788488209 0.408549756
vt 0.788488269 0.405422777
vt 0.754716814 0.417930692
vt 0.785986602 0.408549756
vt 0.754716814 0.408549756
vt 0.980863869 0.285553455
vt 0.980863869 0.341440469
vt 0.996617854 0.341440469
vt 0.996617734 0.285553455
vt 0.705407083 0.0581975207
vt 0.536244452 0.0581975207
vt 0.536244512 0.0795834363
vt 0.705407083 0.094671756
vt 0.574527562 0.094671756
vt 0.418419808 0.094671756
vt 0.456775784 0.0795834363
vt 0.287613183 0.094671756
vt 0.287613183 0.0581975207
vt 0.456775725 0.0581975169
vt 0.195385098 0.234337002
vt 0.12064831 0.235270858
vt 0.121320814 0.234409019
vt 0.195331484 0.235700876
vt 0.210439846 0.23462227
vt 0.209764332 0.235444069
vt 0.30017513 0.247247443
vt 0.299508274 0.248103634
vt 0.28510201 0.248385549
vt 0.285129189 0.247017428
vt 0.269924045 0.248345137
vt 0.269932151 0.246922418
vt 0.255149126 0.248315066
vt 0.255180836 0.246905714
vt 0.210151166 0.248276487
vt 0.210828543 0.24749957
vt 0.300542563 0.253656268
vt 0.299895704 0.254482687
vt 0.299508274 0.248103634
vt 0.30017513 0.247247443
vt 0.120972708 0.228755981
vt 0.120335087 0.22958611
vt 0.0725229234 0.229660392
vt 0.0740088075 0.228261411
vt 0.391307414 0.254187703
vt 0.391521066 0.318930268
vt 0.300158799 0.319203496
vt 0.299895704 0.254482687
vt 0.255269021 0.319354057
vt 0.28510201 0.248385549
vt 0.299508274 0.248103634
vt 0.269924045 0.248345137
vt 0.255149126 0.248315066
vt 0.165512756 0.319514304
vt 0.210151166 0.248276487
vt 0.195331484 0.235700876
vt 0.209764332 0.235444069
vt 0.12064831 0.235270858
vt 0.072489813 0.31951946
vt 0.0725229234 0.229660392
vt 0.120335087 0.22958611
vt 0.121320814 0.234409019
vt 0.12064831 0.235270858
vt 0.120335087 0.22958611
vt 0.120972708 0.228755981
vt 0.389817744 0.252723396
vt 0.391307414 0.254187703
vt 0.299895704 0.254482687
vt 0.300542563 0.253656268
vt 0.210828543 0.24749957
vt 0.210151166 0.248276487
vt 0.209764332 0.235444069
vt 0.210439846 0.23462227
vt 0.692878306 0.275319457
vt 0.694322944 0.273874819
vt 0.67121011 0.273874819
vt 0.67121011 0.275319457
vt 0.329068661 0.189260736
vt 0.343419135 0.189033583
vt 0.344091415 0.18817161
vt 0.329137921 0.187916979
vt 0.269368738 0.189135194
vt 0.26942122 0.187771708
vt 0.254318178 0.188860402
vt 0.254992306 0.188038364
vt 0.164603069 0.176368579
vt 0.179667056 0.175201669
vt 0.165267393 0.175511315
vt 0.179642558 0.176569
vt 0.194839552 0.175215259
vt 0.194833308 0.176637292
vt 0.209608644 0.175221458
vt 0.20957917 0.17663081
vt 0.25459516 0.175208852
vt 0.253917992 0.175986484
vt 0.164221361 0.169962615
vt 0.164603069 0.176368579
vt 0.165267393 0.175511315
vt 0.164866507 0.169135109
vt 0.343768567 0.194685891
vt 0.390729219 0.195173651
vt 0.392215043 0.19377479
vt 0.34440583 0.193855762
vt 0.25459516 0.175208852
vt 0.254992306 0.188038364
vt 0.26942122 0.187771708
vt 0.299190342 0.103932142
vt 0.209639207 0.167982861
vt 0.209608644 0.175221458
vt 0.194839552 0.175215259
vt 0.179667056 0.175201669
vt 0.344091415 0.18817161
vt 0.329137921 0.187916979
vt 0.392235518 0.103917859
vt 0.392215043 0.19377479
vt 0.34440583 0.193855762
vt 0.209379405 0.104168676
vt 0.164866507 0.169135109
vt 0.165267393 0.175511315
vt 0.164454311 0.104401231
vt 0.0735053569 0.169708937
vt 0.0730132908 0.104965992
vt 0.343419135 0.189033583
vt 0.343768567 0.194685891
vt 0.34440583 0.193855762
vt 0.344091415 0.18817161
vt 0.0749987215 0.171164677
vt 0.164221361 0.169962615
vt 0.164866507 0.169135109
vt 0.0735053569 0.169708937
vt 0.253917992 0.175986484
vt 0.254318178 0.188860402
vt 0.254992306 0.188038364
vt 0.25459516 0.175208852
vt 0.421245933 0.273874819
vt 0.398133159 0.273874819
vt 0.399577677 0.275319338
vt 0.421245933 0.275319457
vt 0.694322944 0.273874819
vt 0.694322944 0.209388003
vt 0.67121011 0.273874819
vt 0.398133159 0.209388003
vt 0.421245933 0.273874819
vt 0.398133159 0.273874819
vt 0.902997077 0.360363066
vt 0.902997136 0.493713677
vt 0.933430612 0.493713677
vt 0.933430612 0.360363066
vt 0.434498608 0.109683111
vt 0.546719432 0.106016681
vt 0.434498608 0.106016681
vt 0.542319715 0.109683111
vt 0.658940256 0.109683111
vt 0.658940256 0.106016681
vt 0.542319834 0.125081986
vt 0.55111903 0.125081986
vt 0.55111903 0.109683111
vt 0.542319834 0.125081986
vt 0.542319834 0.125081986
vt 0.542319834 0.109683111
vt 0.542319834 0.109683111
vt 0.542319834 0.125081986
vt 0.542319834 0.109683111
vt 0.396367908 0.109683111
vt 0.396367908 0.200752884
vt 0.697070897 0.200752884
vt 0.55111903 0.125081986
vt 0.697070897 0.109683111
vt 0.55111903 0.109683111
vt 0.55111903 0.125081986
vt 0.55111903 0.109683111
vt 0.55111903 0.109683111
vt 0.55111903 0.125081986
vt 0.894536674 0.323586226
vt 0.894570708 0.28858906
vt 0.855395734 0.288530886
vt 0.855315924 0.323489845
vt 0.855374157 0.427569062
vt 0.894570708 0.427547932
vt 0.894551575 0.392538339
vt 0.855355978 0.392559767
vt 0.855355978 0.392559767
vt 0.894551575 0.392538339
vt 0.894536674 0.323586226
vt 0.855315924 0.323489845
vt 0.860390902 0.534931421
vt 0.855790377 0.535011709
vt 0.855870306 0.569970965
vt 0.860460043 0.569960833
vt 0.872663379 0.534923434
vt 0.872706234 0.562513053
vt 0.89504528 0.569912612
vt 0.878826857 0.562506497
vt 0.895011187 0.534915686
vt 0.878795564 0.534922838
vt 0.872670174 0.541828036
vt 0.878799081 0.541821539
vt 0.872681737 0.548727751
vt 0.878807485 0.548718214
vt 0.87269491 0.555622578
vt 0.878817916 0.55561316
vt 0.855848551 0.43093285
vt 0.855830371 0.465941936
vt 0.895026267 0.465963334
vt 0.89504528 0.43095392
vt 0.855830371 0.465941936
vt 0.855790377 0.535011709
vt 0.860390902 0.534931421
vt 0.872671425 0.501205027
vt 0.872663379 0.534923434
vt 0.878795564 0.534922838
vt 0.878798544 0.501204073
vt 0.895011187 0.534915686
vt 0.878808022 0.47361812
vt 0.895026267 0.465963334
vt 0.872684896 0.473614812
vt 0.872680962 0.480508238
vt 0.878804028 0.480511725
vt 0.872677147 0.487401813
vt 0.878800333 0.48740527
vt 0.872673333 0.494295329
vt 0.878796399 0.494298875
vt 0.878792465 0.501192391
vt 0.87266928 0.501188934
vt 0.664488912 0.315285325
vt 0.664488912 0.300372839
vt 0.429024786 0.30037272
vt 0.429024786 0.315285325
vt 0.429024786 0.315285325
vt 0.429024786 0.30037272
vt 0.412015319 0.299012065
vt 0.410654515 0.315285325
vt 0.410654515 0.299012065
vt 0.664488912 0.315285325
vt 0.681498468 0.299012065
vt 0.664488912 0.300372839
vt 0.682859004 0.315285325
vt 0.682859004 0.299012065
vt 0.903604984 0.356601924
vt 0.903604984 0.319294304
vt 0.968818307 0.319294274
vt 0.937704086 0.356601924
vt 0.937704086 0.423755467
vt 0.971803248 0.423755467
vt 0.971803248 0.286839426
vt 0.968818426 0.286839426
vt 0.903604984 0.319294304
vt 0.903604984 0.319294304
vt 0.968818426 0.319294304
vt 0.968818426 0.319294304
vt 0.903604984 0.319294304
vt 0.903604984 0.286839426
vt 0.968818426 0.286839426
vt 0.968818426 0.319294304
vt 0.969609439 0.567842901
vt 0.972594023 0.43092671
vt 0.972594023 0.567842901
vt 0.969609439 0.535387933
vt 0.93849504 0.43092674
vt 0.938494921 0.498080373
vt 0.904395878 0.535387933
vt 0.904395819 0.498080343
vt 0.80287087 0.548570931
vt 0.844805121 0.548570931
vt 0.844805121 0.421447217
vt 0.80287087 0.421447217
vt 0.904395878 0.535387933
vt 0.969609439 0.535387933
vt 0.969609439 0.567842901
vt 0.904395878 0.567842901
vt 0.968818426 0.319294304
vt 0.968818426 0.319294304
vt 0.968818426 0.286839426
vt 0.968818426 0.286839426
vt 0.969609439 0.535387933
vt 0.969609439 0.567842901
vt 0.969609439 0.567842901
vt 0.969609439 0.535387933
vt 0.148866847 0.0162288267
vt 0.148867294 0.0497634634
vt 0.177753329 0.049763158
vt 0.177753001 0.0162288267
vt 0.0483960435 0.0162286405
vt 0.0483959243 0.049763307
vt 0.0772820562 0.0497636199
vt 0.0772823617 0.0162291359
vt 0.0841253996 0.0497636199
vt 0.113074735 0.0162291359
vt 0.0841255188 0.0162291359
vt 0.113074675 0.0497636199
vt 0.142023638 0.0162289497
vt 0.142023951 0.0497636199
vt 0.84606415 0.312748373
vt 0.811580181 0.312748432
vt 0.811580181 0.314507604
vt 0.84606415 0.314507604
vt 0.84606415 0.318025947
vt 0.811580181 0.318025827
vt 0.811580181 0.319785118
vt 0.84606415 0.319785476
vt 0.84606415 0.309229791
vt 0.811580181 0.309229791
vt 0.811580181 0.310989141
vt 0.84606415 0.310988903
vt 0.84606415 0.310988903
vt 0.811580181 0.310989141
vt 0.811580181 0.312748432
vt 0.84606415 0.312748373
vt 0.84606415 0.316266835
vt 0.811580181 0.316266835
vt 0.811580181 0.318025827
vt 0.84606415 0.318025947
vt 0.84606415 0.307470739
vt 0.811580181 0.307470798
vt 0.811580181 0.309229791
vt 0.84606415 0.309229791
vt 0.84606415 0.314507604
vt 0.811580181 0.314507604
vt 0.811580181 0.316266835
vt 0.84606415 0.316266835
vt 0.84606415 0.319785476
vt 0.811580181 0.319785118
vt 0.811580181 0.321544528
vt 0.84606415 0.321544528
vt 0.811429381 0.294339478
vt 0.811429381 0.29609853
vt 0.845913351 0.296099007
vt 0.845913351 0.294339478
vt 0.811429381 0.299617052
vt 0.811429381 0.301376581
vt 0.845913351 0.301376581
vt 0.845913351 0.299617231
vt 0.811429381 0.290821195
vt 0.811429381 0.292580366
vt 0.845913351 0.292580366
vt 0.845913351 0.290821075
vt 0.811429381 0.292580366
vt 0.811429381 0.294339478
vt 0.845913351 0.294339478
vt 0.845913351 0.292580366
vt 0.811429381 0.297857881
vt 0.811429381 0.299617052
vt 0.845913351 0.299617231
vt 0.845913351 0.297858
vt 0.811429381 0.289061964
vt 0.811429381 0.290821195
vt 0.845913351 0.290821075
vt 0.845913351 0.289061844
vt 0.811429381 0.29609853
vt 0.811429381 0.297857881
vt 0.845913351 0.297858
vt 0.845913351 0.296099007
vt 0.811429381 0.301376581
vt 0.811429381 0.303135455
vt 0.845913351 0.303135812
vt 0.845913351 0.301376581
vt 0.011055842 0.0162286405
vt 0.0110557228 0.0497631617
vt 0.0483959243 0.049763307
vt 0.0483960435 0.0162286405
vt 0.177753329 0.049763158
vt 0.215093777 0.0497631617
vt 0.215093166 0.0162286405
vt 0.177753001 0.0162288267
vt 0.145445257 0.0162289497
vt 0.145445555 0.0497634634
vt 0.147156343 0.0497634634
vt 0.14715603 0.0162289497
vt 0.14715603 0.0162289497
vt 0.147156343 0.0497634634
vt 0.148867294 0.0497634634
vt 0.148866847 0.0162288267
vt 0.142023638 0.0162289497
vt 0.142023951 0.0497636199
vt 0.143734887 0.0497634634
vt 0.143734306 0.0162289497
vt 0.143734306 0.0162289497
vt 0.143734887 0.0497634634
vt 0.145445555 0.0497634634
vt 0.145445257 0.0162289497
vt 0.0807038918 0.0162291359
vt 0.0789932981 0.0162291359
vt 0.0789929926 0.0497636199
vt 0.0807036459 0.0497636199
vt 0.0789932981 0.0162291359
vt 0.0772823617 0.0162291359
vt 0.0772820562 0.0497636199
vt 0.0789929926 0.0497636199
vt 0.0841255188 0.0162291359
vt 0.0824147016 0.0162291359
vt 0.0824145824 0.0497636199
vt 0.0841253996 0.0497636199
vt 0.0824147016 0.0162291359
vt 0.0807038918 0.0162291359
vt 0.0807036459 0.0497636199
vt 0.0824145824 0.0497636199
vt 0.458538949 0.0532605164
vt 0.458538949 0.0760479644
vt 0.496562302 0.0532605164
vt 0.534585714 0.0760479644
vt 0.534585714 0.0532605164
vt 0.698931456 0.0165871382
vt 0.225781381 0.0165871382
vt 0.225781381 0.0489821211
vt 0.698931456 0.0489821211
vt 0.728211224 0.313827068
vt 0.726830125 0.310775906
vt 0.718461454 0.311665744
vt 0.718412399 0.314857095
vt 0.754987359 0.288981646
vt 0.767540276 0.291150302
vt 0.765864789 0.298709661
vt 0.754232824 0.296058506
vt 0.746490061 0.288923293
vt 0.754987359 0.288981646
vt 0.754232824 0.296058506
vt 0.74662596 0.295483708
vt 0.735975027 0.289941102
vt 0.746490061 0.288923293
vt 0.74662596 0.295483708
vt 0.736854494 0.296227247
vt 0.711309314 0.311604708
vt 0.718461454 0.311665744
vt 0.718780875 0.301920801
vt 0.711400568 0.301678866
vt 0.72877115 0.320146352
vt 0.728211224 0.313827068
vt 0.718412399 0.314857095
vt 0.718660295 0.32104221
vt 0.754232824 0.296058506
vt 0.765864789 0.298709661
vt 0.763678968 0.302157521
vt 0.753856719 0.299655586
vt 0.745527625 0.308622241
vt 0.746554255 0.298885792
vt 0.753856719 0.299655586
vt 0.752830148 0.309392124
vt 0.696802139 0.309174865
vt 0.695239604 0.312081426
vt 0.702073991 0.313873798
vt 0.702795923 0.31088838
vt 0.74662596 0.295483708
vt 0.754232824 0.296058506
vt 0.753856719 0.299655586
vt 0.746554255 0.298885792
vt 0.710974514 0.32104221
vt 0.718660295 0.32104221
vt 0.718412399 0.314857095
vt 0.711304665 0.314869791
vt 0.736854494 0.296227247
vt 0.74662596 0.295483708
vt 0.746554255 0.298885792
vt 0.737549365 0.299411446
vt 0.729506731 0.297899157
vt 0.736854494 0.296227247
vt 0.737549365 0.299411446
vt 0.731120527 0.300998956
vt 0.702073991 0.313873798
vt 0.711304665 0.314869791
vt 0.711309314 0.311604708
vt 0.702795923 0.31088838
vt 0.787837565 0.323931336
vt 0.787550807 0.317225277
vt 0.798161745 0.316029727
vt 0.798812985 0.322889388
vt 0.779395103 0.323931336
vt 0.77977407 0.317221701
vt 0.787550807 0.317225277
vt 0.787837565 0.323931336
vt 0.768616438 0.322510481
vt 0.76974529 0.31607455
vt 0.77977407 0.317221701
vt 0.779395103 0.323931336
vt 0.701061845 0.319790989
vt 0.710974514 0.32104221
vt 0.711304665 0.314869791
vt 0.702073991 0.313873798
vt 0.787550807 0.317225277
vt 0.787602901 0.313754797
vt 0.796631157 0.312704444
vt 0.798161745 0.316029727
vt 0.779980659 0.302731156
vt 0.788015962 0.303040922
vt 0.787602901 0.313754797
vt 0.779833376 0.313656032
vt 0.77977407 0.317221701
vt 0.779833376 0.313656032
vt 0.787602901 0.313754797
vt 0.787550807 0.317225277
vt 0.76974529 0.31607455
vt 0.77057147 0.312817752
vt 0.779833376 0.313656032
vt 0.77977407 0.317221701
vt 0.762241483 0.314092815
vt 0.764011025 0.310959339
vt 0.77057147 0.312817752
vt 0.76974529 0.31607455
vt 0.728243887 0.291456491
vt 0.735975027 0.289941102
vt 0.736854494 0.296227247
vt 0.729506731 0.297899157
vt 0.711304665 0.314869791
vt 0.718412399 0.314857095
vt 0.718461454 0.311665744
vt 0.711309314 0.311604708
vt 0.760714412 0.320677936
vt 0.762241483 0.314092815
vt 0.76974529 0.31607455
vt 0.768616438 0.322510481
vt 0.695239604 0.312081426
vt 0.693855524 0.318146557
vt 0.701061845 0.319790989
vt 0.702073991 0.313873798
vt 0.664488912 0.283308983
vt 0.429024786 0.283308864
vt 0.429024786 0.30037272
vt 0.664488912 0.300372839
vt 0.714174271 0.0220040157
vt 0.713651597 0.274157763
vt 0.714937747 0.272896707
vt 0.715416491 0.0232482627
vt 0.0128852315 0.214865685
vt 0.0128852315 0.133349046
vt 0.0128852315 0.133349046
vt 0.0128852315 0.214865685
vt 0.0631408244 0.214865685
vt 0.0128852315 0.214865685
vt 0.0128852315 0.214865685
vt 0.0631408244 0.214865685
vt 0.0631408244 0.133349046
vt 0.0631408244 0.214865685
vt 0.0631408244 0.214865685
vt 0.0631408244 0.133349046
vt 0.0128852315 0.133349046
vt 0.0631408244 0.133349046
vt 0.0631408244 0.133349046
vt 0.0128852315 0.133349046
vt 0.0631408244 0.214865685
vt 0.0631408244 0.133349046
vt 0.0128852315 0.133349046
vt 0.0128852315 0.214865685
vt 0.0628008395 0.312880397
vt 0.0628008395 0.312880397
vt 0.0628008395 0.231363788
vt 0.0628008395 0.231363788
vt 0.0125451274 0.312880397
vt 0.0125451274 0.312880397
vt 0.0628008395 0.312880397
vt 0.0628008395 0.312880397
vt 0.0125451274 0.231363788
vt 0.0125451274 0.231363788
vt 0.0125451274 0.312880397
vt 0.0125451274 0.312880397
vt 0.0628008395 0.231363788
vt 0.0628008395 0.231363788
vt 0.0125451274 0.231363788
vt 0.0125451274 0.231363788
vt 0.0628008395 0.312880397
vt 0.0628008395 0.231363788
vt 0.0125451274 0.231363788
vt 0.0125451274 0.312880397
vt 0.278580844 0.0934835523
vt 0.278580844 0.0934835523
vt 0.00915010273 0.0934835523
vt 0.00915010273 0.0934835523
vt 0.00915010273 0.0934835523
vt 0.00915010273 0.0641782805
vt 0.00915010273 0.0641782805
vt 0.00915010273 0.0934835523
vt 0.278580844 0.0641782805
vt 0.278580844 0.0641782805
vt 0.00915010273 0.0641782805
vt 0.00915010273 0.0641782805
vt 0.278580844 0.0934835523
vt 0.278580844 0.0934835523
vt 0.278580844 0.0641782805
vt 0.278580844 0.0641782805
vt 0.278580844 0.0934835523
vt 0.0120761544 0.0905574858
vt 0.00915010273 0.0934835523
vt 0.00915010273 0.0641782805
vt 0.275654733 0.0905574858
vt 0.278580844 0.0641782805
vt 0.0120761544 0.0671044588
vt 0.275654733 0.0671044588
vt 0.711041629 0.276682168
vt 0.714174271 0.0220040157
vt 0.711620867 0.0194987282
vt 0.792610288 0.0181987844
vt 0.713651597 0.274157763
vt 0.792613506 0.0206872597
vt 0.792405188 0.278101921
vt 0.869667709 0.0181973055
vt 0.792405963 0.275606513
vt 0.869667709 0.0206830874
vt 0.869657099 0.278103769
vt 0.90819627 0.0181980655
vt 0.869655848 0.275612831
vt 0.908197045 0.0206867978
vt 0.908259451 0.278070211
vt 0.987662852 0.019507654
vt 0.908257842 0.275577098
vt 0.98510623 0.022013776
vt 0.987843156 0.27665773
vt 0.985279024 0.274151146
vn -0 0 -1
vn -0 0 -1
vn -0 0 -1
vn -0 0 -1
vn -0 0 -1
vn -0 0 -1
vn -0 0 -1
vn -0 0 -1
vn -0 0 -1
vn -0 0 -1
vn -0 1 0
vn -0 1 0
vn -0 1 0
vn -0 1 0
vn -0 1 0
vn -0 1 0
vn -0 1 0
vn -0 1 0
vn -0 1 0
vn -0 1 0
vn 1 0 0
vn 1 0 0
vn 1 0 0
vn 1 0 0
vn -0 0 1
vn -0 0 1
vn -0 0 1
vn -0 0 1
vn -0 0 1
vn -0 0 1
vn -0 0 1
vn -0 0 1
vn -0 0 1
vn -0 0 1
vn -0 -1 0
vn -0 -1 0
vn -0 -1 0
vn -0 -1 0
vn -0 0 1
vn -0 0 1
vn -0 0 1
vn -0 0 1
vn -0 0 1
vn -0 0 1
vn -0 0 1
vn -0 0 1
vn -0 0 1
vn -0 0 1
vn -0 0 1
vn -0 0 1
vn -0 0 1
vn -0 0 1
vn -0 0 1
vn -0 0 1
vn -0 0 1
vn -0 0 1
vn -0 0 1
vn -0 0 1
vn -0 0 1
vn -0 0 1
vn -0 0 1
vn -0 0 1
vn -0 0 1
vn -0 0 1
vn -0 0 1
vn -1 0 0
vn -1 0 0
vn -1 0 0
vn -1 0 0
vn -1 0 0
vn -1 0 0
vn -1 0 0
vn -1 0 0
vn -0 0 -1
vn -0 0 -1
vn -0 0 -1
vn -0 0 -1
vn -0 0 -1
vn -0 0 -1
vn -0 0 -1
vn -0 0 -1
vn -0 0 -1
vn -0 0 -1
vn -0 0 -1
vn -0 0 -1
vn -0 0 -1
vn -0 0 -1
vn -0 0 -1
vn -0 0 -1
vn -0 0 -1
vn -0 0 -1
vn -0 0 -1
vn -0 0 -1
vn -0 0 -1
vn -0 0 -1
vn -0 0 -1
vn -0 0 -1
vn -0 0 -1
vn -1 0 0
vn -1 0 0
vn -1 0 0
vn -1 0 0
vn -0 0 1
vn -0 0 1
vn -0 0 1
vn -0 0 1
vn -0 1 0
vn -0 1 0
vn -0 1 0
vn -0 1 0
vn -0 1 0
vn -0 1 0
vn -0 1 0
vn -0 1 0
vn -0 1 0
vn -0 1 0
vn -0 1 0
vn -0 0 1
vn -0 0 1
vn -0 0 1
vn -0 0 1
vn -0 0 1
vn -0 0 1
vn -0 0 1
vn -0 0 -1
vn -0 0 -1
vn -0 0 -1
vn -0 0 -1
vn -0 0 -1
vn -0 0 -1
vn -0 0 -1
vn -0 0 -1
vn -0 0 -1
vn -0 0 -1
vn -0 0 -1
vn -0 0 -1
vn -0 0 1
vn -0 0 1
vn -0 0 1
vn -0 0 1
vn 1 0 0
vn 1 0 0
vn 1 0 0
vn 1 0 0
vn 1 0 0
vn 1 0 0
vn 1 0 0
vn 1 0 0
vn 1 0 0
vn 1 0 0
vn -0 -1 0
vn -0 -1 0
vn -0 -1 0
vn -0 -1 0
vn -0 -1 0
vn -0 -1 0
vn -0 -1 0
vn -0 -1 0
vn -0 -1 0
vn -0 -1 0
vn -0 -1 0
vn -0 -1 0
vn -0 -1 0
vn -0 -1 0
vn -0 -1 0
vn -0 -1 0
vn -1 0 0
vn -1 0 0
vn -1 0 0
vn -1 0 0
vn -0 -1 0
vn -0 -1 0
vn -0 -1 0
vn -0 -1 0
vn -0 0 1
vn -0 0 1
vn -0 0 1
vn -0 0 1
vn -0 0 1
vn -0 0 1
vn -0 0 1
vn -0 0 1
vn -0 0 1
vn -0 0 1
vn -0 0 1
vn -0 0 1
vn -0 0 1
vn -0 0 1
vn -0 0 1
vn -0 0 1
vn -0 0 1
vn -1 0 0
vn -1 0 0
vn -1 0 0
vn -1 0 0
vn -0 -1 0
vn -0 -1 0
vn -0 -1 0
vn -0 -1 0
vn -1 0 0
vn -1 0 0
vn -1 0 0
vn -1 0 0
vn -0 -1 0
vn -0 -1 0
vn -0 -1 0
vn -0 -1 0
vn -0 -1 0
vn -0 -1 0
vn -0 -1 0
vn -0 -1 0
vn -0 -1 0
vn -0 -1 0
vn -0 -1 0
vn -0 -1 0
vn -0 -1 0
vn -0 -1 0
vn -0 -1 0
vn -0 -1 0
vn -0 -1 0
vn -0 -1 0
vn -0 -1 0
vn -0 -1 0
vn -0 -1 0
vn -0 -1 0
vn -1 0 0
vn -1 0 0
vn -1 0 0
vn -1 0 0
vn -0 -1 0
vn -0 -1 0
vn -0 -1 0
vn -0 -1 0
vn -0 0 -1
vn -0 0 -1
vn -0 0 -1
vn -0 0 -1
vn -0 0 -1
vn -0 0 -1
vn -0 0 -1
vn -0 0 -1
vn -0 0 -1
vn -0 0 -1
vn -0 0 -1
vn -0 0 -1
vn -0 0 -1
vn -0 0 -1
vn -0 0 -1
vn -0 0 -1
vn -0 0 -1
vn -0 0 -1
vn -0 0 -1
vn -1 0 0
vn -1 0 0
vn -1 0 0
vn -1 0 0
vn -0 -1 0
vn -0 -1 0
vn -0 -1 0
vn -0 -1 0
vn -1 0 0
vn -1 0 0
vn -1 0 0
vn -1 0 0
vn -0 -1 0
vn -0 -1 0
vn -0 -1 0
vn -0 -1 0
vn -1 0 0
vn -1 0 0
vn -1 0 0
vn -1 0 0
vn -1 0 0
vn -1 0 0
vn -0 -1 0
vn -0 -1 0
vn -0 -1 0
vn -0 -1 0
vn 1 0 0
vn 1 0 0
vn 1 0 0
vn 1 0 0
vn 1 0 0
vn 1 0 0
vn 1 0 0
vn 1 0 0
vn 1 0 0
vn -0 0 -1
vn -0 0 -1
vn -0 0 -1
vn -0 0 -1
vn 1 0 0
vn 1 0 0
vn 1 0 0
vn 1 0 0
vn 1 0 0
vn 1 0 0
vn 1 0 0
vn 1 0 0
vn -0 0 1
vn -0 0 1
vn -0 0 1
vn -0 0 1
vn 0.00219093799 -0.00195671385 -0.999995708
vn 0.00219093799 -0.00195671385 -0.999995708
vn 0.00219093799 -0.00195671385 -0.999995708
vn 0.00219093799 -0.00195671385 -0.999995708
vn -0 0 -1
vn -0 0 -1
vn -0 0 -1
vn -0 0 -1
vn -1 0 0
vn -1 0 0
vn -1 0 0
vn -1 0 0
vn 0.00219063694 -0.0166838095 0.999858379
vn 0.00219063694 -0.0166838095 0.999858379
vn 0.00219063694 -0.0166838095 0.999858379
vn 0.00219063694 -0.0166838095 0.999858379
vn -0 0 1
vn -0 0 1
vn -0 0 1
vn -0 0 1
vn -0 0 1
vn -0 0 1
vn -0 0 1
vn -0 0 1
vn -0 0 1
vn -0 0 1
vn -0 0 1
vn -0 0 1
vn -0 0 1
vn -0 0 1
vn -0 0 1
vn -0 0 1
vn -1 0 0
vn -1 0 0
vn -1 0 0
vn -1 0 0
vn -1 0 0
vn -1 0 0
vn -1 0 0
vn -1 0 0
vn -1 0 0
vn -1 0 0
vn -1 0 0
vn -1 0 0
vn -1 0 0
vn -1 0 0
vn -1 0 0
vn -1 0 0
vn -1 0 0
vn -1 0 0
vn -1 0 0
vn -1 0 0
vn -1 0 0
vn -1 0 0
vn -1 0 0
vn -0 0 1
vn -0 0 1
vn -0 0 1
vn -0 0 1
vn -0 0 1
vn -0 0 -1
vn -0 0 -1
vn -0 0 -1
vn -0 0 -1
vn -0 0 -1
vn -0 1 0
vn -0 1 0
vn -0 1 0
vn -0 1 0
vn -0 1 0
vn -0 1 0
vn -0 1 0
vn -0 1 0
vn -0 0 -1
vn -0 0 -1
vn -0 0 -1
vn -0 0 -1
vn -0 1 0
vn -0 1 0
vn -0 1 0
vn -0 1 0
vn -0 1 0
vn -0 1 0
vn -0 1 0
vn -0 1 0
vn -0 1 0
vn -0 1 0
vn -0 1 0
vn -0 1 0
vn -0 1 0
vn -0 1 0
vn -0 1 0
vn -0 1 0
vn -0 1 0
vn -0 1 0
vn -0 1 0
vn -0 1 0
vn -1 0 0
vn -1 0 0
vn -1 0 0
vn -1 0 0
vn -1 0 0
vn -1 0 0
vn -1 0 0
vn -1 0 0
vn 1 0 0
vn 1 0 0
vn 1 0 0
vn 1 0 0
vn 1 0 0
vn 1 0 0
vn 1 0 0
vn 1 0 0
vn 1 0 0
vn 1 0 0
vn 1 0 0
vn 1 0 0
vn 1 0 0
vn 1 0 0
vn 0.923880935 0 -0.38267988
vn 0.923880935 0 -0.38267988
vn 0.923880935 0 -0.38267988
vn 0.923880935 0 -0.38267988
vn -0.382685781 0 0.92387861
vn -0.382685781 0 0.92387861
vn -0.382685781 0 0.92387861
vn -0.382685781 0 0.92387861
vn -0.382685781 0 -0.92387861
vn -0.382685781 0 -0.92387861
vn -0.382685781 0 -0.92387861
vn -0.382685781 0 -0.92387861
vn 0.382685781 0 -0.92387861
vn 0.382685781 0 -0.92387861
vn 0.382685781 0 -0.92387861
vn 0.382685781 0 -0.92387861
vn 0.382685781 0 0.92387861
vn 0.382685781 0 0.92387861
vn 0.382685781 0 0.92387861
vn 0.382685781 0 0.92387861
vn -0.923880935 0 -0.38267988
vn -0.923880935 0 -0.38267988
vn -0.923880935 0 -0.38267988
vn -0.923880935 0 -0.38267988
vn 0.923880935 0 0.38267988
vn 0.923880935 0 0.38267988
vn 0.923880935 0 0.38267988
vn 0.923880935 0 0.38267988
vn -0.923880935 0 0.38267988
vn -0.923880935 0 0.38267988
vn -0.923880935 0 0.38267988
vn -0.923880935 0 0.38267988
vn 0.923880935 0 0.38267988
vn 0.923880935 0 0.38267988
vn 0.923880935 0 0.38267988
vn 0.923880935 0 0.38267988
vn -0.382685781 0 -0.92387861
vn -0.382685781 0 -0.92387861
vn -0.382685781 0 -0.92387861
vn -0.382685781 0 -0.92387861
vn -0.382685781 0 0.92387861
vn -0.382685781 0 0.92387861
vn -0.382685781 0 0.92387861
vn -0.382685781 0 0.92387861
vn 0.382685781 0 0.92387861
vn 0.382685781 0 0.92387861
vn 0.382685781 0 0.92387861
vn 0.382685781 0 0.92387861
vn 0.382685781 0 -0.92387861
vn 0.382685781 0 -0.92387861
vn 0.382685781 0 -0.92387861
vn 0.382685781 0 -0.92387861
vn -0.923880935 0 0.38267988
vn -0.923880935 0 0.38267988
vn -0.923880935 0 0.38267988
vn -0.923880935 0 0.38267988
vn 0.923880935 0 -0.38267988
vn 0.923880935 0 -0.38267988
vn 0.923880935 0 -0.38267988
vn 0.923880935 0 -0.38267988
vn -0.923880935 0 -0.38267988
vn -0.923880935 0 -0.38267988
vn -0.923880935 0 -0.38267988
vn -0.923880935 0 -0.38267988
vn -0 0 1
vn -0 0 1
vn -0 0 1
vn -0 0 1
vn -0 0 -1
vn -0 0 -1
vn -0 0 -1
vn -0 0 -1
vn 0.923880935 0 0.38267988
vn 0.923880935 0 0.38267988
vn 0.923880935 0 0.38267988
vn 0.923880935 0 0.38267988
vn 0.382685781 0 0.92387861
vn 0.382685781 0 0.92387861
vn 0.382685781 0 0.92387861
vn 0.382685781 0 0.92387861
vn 0.382686436 0 -0.923878312
vn 0.382686436 0 -0.923878312
vn 0.382686436 0 -0.923878312
vn 0.382686436 0 -0.923878312
vn 0.923880935 0 -0.38267988
vn 0.923880935 0 -0.38267988
vn 0.923880935 0 -0.38267988
vn 0.923880935 0 -0.38267988
vn 0.923880935 0 -0.38267988
vn 0.923880935 0 -0.38267988
vn 0.923880935 0 -0.38267988
vn 0.923880935 0 -0.38267988
vn 0.382685781 0 -0.92387861
vn 0.382685781 0 -0.92387861
vn 0.382685781 0 -0.92387861
vn 0.382685781 0 -0.92387861
vn 0.382686436 0 0.923878312
vn 0.382686436 0 0.923878312
vn 0.382686436 0 0.923878312
vn 0.382686436 0 0.923878312
vn 0.923880935 0 0.38267988
vn 0.923880935 0 0.38267988
vn 0.923880935 0 0.38267988
vn 0.923880935 0 0.38267988
vn -0 -1 0
vn -0 -1 0
vn -0 -1 0
vn -0 -1 0
vn -0 -1 0
vn 1 0 0
vn 1 0 0
vn 1 0 0
vn 1 0 0
vn -0 0.224332258 0.974512756
vn -0 0.224332258 0.974512756
vn -0 0.224332258 0.974512756
vn -0 0.224332258 0.974512756
vn -0 0 1
vn -0 0 1
vn -0 0 1
vn -0 0 1
vn 1 0 0
vn 1 0 0
vn 1 0 0
vn 1 0 0
vn -0 0 -1
vn -0 0 -1
vn -0 0 -1
vn -0 0 -1
vn -0 1 0
vn -0 1 0
vn -0 1 0
vn -0 1 0
vn -0 0 1
vn -0 0 1
vn -0 0 1
vn -0 0 1
vn -0 0.24487102 0.969555616
vn -0 0.24487102 0.969555616
vn -0 0.24487102 0.969555616
vn -0 0.24487102 0.969555616
vn -0 1 0
vn -0 1 0
vn -0 1 0
vn -0 1 0
vn -0.947708547 0.319137156 0
vn -0.947708547 0.319137156 0
vn -0.947708547 0.319137156 0
vn -0.947708547 0.319137156 0
vn 0.947709203 0.319135189 0
vn 0.947709203 0.319135189 0
vn 0.947709203 0.319135189 0
vn 0.947709203 0.319135189 0
vn 1 0 0
vn 1 0 0
vn 1 0 0
vn 1 0 0
vn -0 0.244870633 -0.969555736
vn -0 0.244870633 -0.969555736
vn -0 0.244870633 -0.969555736
vn -0 0.244870633 -0.969555736
vn -0.947709203 0.319135189 0
vn -0.947709203 0.319135189 0
vn -0.947709203 0.319135189 0
vn -0.947709203 0.319135189 0
vn -0 0.224332243 -0.974512756
vn -0 0.224332243 -0.974512756
vn -0 0.224332243 -0.974512756
vn -0 0.224332243 -0.974512756
vn -0 0 -1
vn -0 0 -1
vn -0 0 -1
vn -0 0 -1
vn 1 0 0
vn 1 0 0
vn 1 0 0
vn 1 0 0
vn -0 0 1
vn -0 0 1
vn -0 0 1
vn -0 0 1
vn -0 0 -1
vn -0 0 -1
vn -0 0 -1
vn -0 0 -1
vn -0 0.244871125 -0.969555616
vn -0 0.244871125 -0.969555616
vn -0 0.244871125 -0.969555616
vn -0 0.244871125 -0.969555616
vn -0 1 0
vn -0 1 0
vn -0 1 0
vn -0 1 0
vn 0.947709203 0.319135189 0
vn 0.947709203 0.319135189 0
vn 0.947709203 0.319135189 0
vn 0.947709203 0.319135189 0
vn -0 0.244870529 0.969555736
vn -0 0.244870529 0.969555736
vn -0 0.244870529 0.969555736
vn -0 0.244870529 0.969555736
vn -0.947709203 0.319135189 0
vn -0.947709203 0.319135189 0
vn -0.947709203 0.319135189 0
vn -0.947709203 0.319135189 0
vn -1 0 0
vn -1 0 0
vn -1 0 0
vn -1 0 0
vn 0.947708428 0.319137722 0
vn 0.947708428 0.319137722 0
vn 0.947708428 0.319137722 0
vn 0.947708428 0.319137722 0
vn -1 0 0
vn -1 0 0
vn -1 0 0
vn -1 0 0
vn -1 0 0
vn -1 0 0
vn -1 0 0
vn -1 0 0
vn -0.0797450468 0.996815264 0
vn -0.0797450468 0.996815264 0
vn -0.0797450468 0.996815264 0
vn -0.0797450468 0.996815264 0
vn -1 0 0
vn -1 0 0
vn -1 0 0
vn -1 0 0
vn -0 0 1
vn -0 0 1
vn -0 0 1
vn -0 0 1
vn -0 1 0
vn -0 1 0
vn -0 1 0
vn -0 1 0
vn -0 0 -1
vn -0 0 -1
vn -0 0 -1
vn -0 0 -1
vn -0 -1 0
vn -0 -1 0
vn -0 -1 0
vn -0 -1 0
vn 1 0 0
vn 1 0 0
vn 1 0 0
vn 1 0 0
vn -0 0 -1
vn -0 0 -1
vn -0 0 -1
vn -0 0 -1
vn -0 1 0
vn -0 1 0
vn -0 1 0
vn -0 1 0
vn -0 0 1
vn -0 0 1
vn -0 0 1
vn -0 0 1
vn -0 -1 0
vn -0 -1 0
vn -0 -1 0
vn -0 -1 0
vn 1 0 0
vn 1 0 0
vn 1 0 0
vn 1 0 0
vn -0 1 0
vn -0 1 0
vn -0 1 0
vn -0 1 0
vn -0 0 1
vn -0 0 1
vn -0 0 1
vn -0 0 1
vn -0 -1 0
vn -0 -1 0
vn -0 -1 0
vn -0 -1 0
vn -0 0 -1
vn -0 0 -1
vn -0 0 -1
vn -0 0 -1
vn 1 0 0
vn 1 0 0
vn 1 0 0
vn 1 0 -1.41048577E-05
vn 1 0 0
vn 1 0 0
vn 1 0 -1.41048577E-05
vn 1 0 0
vn -0 1 0
vn -0 1 0
vn -0 1 0
vn -0 1 0
vn -0 1 0
vn -0 1 0
vn -0 1 0
vn -0 1 0
vn -0 1 0
vn -0 1 0
vn -0 1 0
vn -0 1 0
vn -0 1 0
vn -0 1 0
vn -0 1 0
vn -0 1 0
vn -0 1 0
vn -0 1 0
vn -0 1 0
vn -0 1 0
g velke-kino_LP_0
f 3/3/3 2/2/2 1/1/1
f 2/2/2 4/4/4 1/1/1
f 1/1/1 4/4/4 5/5/5
f 4/4/4 6/6/6 5/5/5
f 5/5/5 6/6/6 7/7/7
f 6/6/6 8/8/8 7/7/7
f 7/7/7 8/8/8 9/9/9
f 8/8/8 10/10/10 9/9/9
f 13/13/13 12/12/12 11/11/11
f 12/12/12 14/14/14 11/11/11
f 12/12/12 15/15/15 14/14/14
f 15/15/15 16/16/16 14/14/14
f 15/15/15 17/17/17 16/16/16
f 17/17/17 18/18/18 16/16/16
f 18/18/18 17/17/17 19/19/19
f 17/17/17 20/20/20 19/19/19
f 23/23/23 22/22/22 21/21/21
f 24/24/24 23/23/23 21/21/21
f 27/27/27 26/26/26 25/25/25
f 28/28/28 27/27/27 25/25/25
f 28/28/28 25/25/25 29/29/29
f 30/30/30 28/28/28 29/29/29
f 30/30/30 29/29/29 31/31/31
f 32/32/32 30/30/30 31/31/31
f 32/32/32 31/31/31 33/33/33
f 34/34/34 32/32/32 33/33/33
f 37/37/37 36/36/36 35/35/35
f 38/38/38 37/37/37 35/35/35
f 41/41/41 40/40/40 39/39/39
f 42/42/42 41/41/41 39/39/39
f 43/43/43 42/42/42 39/39/39
f 44/44/44 43/43/43 39/39/39
f 44/44/44 45/45/45 43/43/43
f 43/43/43 45/45/45 46/46/46
f 47/47/47 43/43/43 46/46/46
f 48/48/48 47/47/47 46/46/46
f 49/49/49 48/48/48 46/46/46
f 49/49/49 50/50/50 48/48/48
f 50/50/50 51/51/51 48/48/48
f 51/51/51 50/50/50 52/52/52
f 53/53/53 51/51/51 52/52/52
f 54/54/54 51/51/51 53/53/53
f 55/55/55 53/53/53 52/52/52
f 55/55/55 54/54/54 53/53/53
f 56/56/56 55/55/55 52/52/52
f 56/56/56 57/57/57 55/55/55
f 58/58/58 54/54/54 55/55/55
f 57/57/57 58/58/58 55/55/55
f 58/58/58 57/57/57 59/59/59
f 60/60/60 58/58/58 59/59/59
f 59/59/59 61/61/61 60/60/60
f 61/61/61 62/62/62 60/60/60
f 61/61/61 59/59/59 63/63/63
f 61/61/61 63/63/63 64/64/64
f 65/65/65 61/61/61 64/64/64
f 68/68/68 67/67/67 66/66/66
f 69/69/69 68/68/68 66/66/66
f 72/72/72 71/71/71 70/70/70
f 73/73/73 72/72/72 70/70/70
f 76/76/76 75/75/75 74/74/74
f 75/75/75 77/77/77 74/74/74
f 77/77/77 78/78/78 74/74/74
f 78/78/78 79/79/79 74/74/74
f 79/79/79 78/78/78 80/80/80
f 78/78/78 81/81/81 80/80/80
f 81/81/81 82/82/82 80/80/80
f 82/82/82 83/83/83 80/80/80
f 84/84/84 83/83/83 82/82/82
f 85/85/85 84/84/84 82/82/82
f 84/84/84 85/85/85 86/86/86
f 85/85/85 87/87/87 86/86/86
f 87/87/87 88/88/88 86/86/86
f 87/87/87 89/89/89 88/88/88
f 88/88/88 89/89/89 90/90/90
f 89/89/89 91/91/91 90/90/90
f 91/91/91 92/92/92 90/90/90
f 92/92/92 93/93/93 90/90/90
f 94/94/94 93/93/93 92/92/92
f 95/95/95 94/94/94 92/92/92
f 93/93/93 94/94/94 96/96/96
f 96/96/96 94/94/94 97/97/97
f 94/94/94 98/98/98 97/97/97
f 101/101/101 100/100/100 99/99/99
f 102/102/102 101/101/101 99/99/99
f 105/105/105 104/104/104 103/103/103
f 106/106/106 105/105/105 103/103/103
f 109/109/109 108/108/108 107/107/107
f 110/110/110 109/109/109 107/107/107
f 111/111/111 110/110/110 107/107/107
f 110/110/110 111/111/111 112/112/112
f 109/109/109 110/110/110 113/113/113
f 114/114/114 110/110/110 112/112/112
f 110/110/110 114/114/114 113/113/113
f 114/114/114 112/112/112 115/115/115
f 113/113/113 114/114/114 115/115/115
f 113/113/113 115/115/115 116/116/116
f 117/117/117 113/113/113 116/116/116
f 120/120/120 119/119/119 118/118/118
f 118/118/118 119/119/119 121/121/121
f 119/119/119 122/122/122 121/121/121
f 121/121/121 122/122/122 123/123/123
f 123/123/123 124/124/124 121/121/121
f 127/127/127 126/126/126 125/125/125
f 128/128/128 127/127/127 125/125/125
f 131/131/131 130/130/130 129/129/129
f 130/130/130 132/132/132 129/129/129
f 133/133/133 129/129/129 132/132/132
f 130/130/130 134/134/134 132/132/132
f 134/134/134 135/135/135 132/132/132
f 134/134/134 136/136/136 135/135/135
f 139/139/139 138/138/138 137/137/137
f 140/140/140 139/139/139 137/137/137
f 143/143/143 142/142/142 141/141/141
f 141/141/141 144/144/144 143/143/143
f 144/144/144 145/145/145 143/143/143
f 145/145/145 146/146/146 143/143/143
f 146/146/146 147/147/147 143/143/143
f 147/147/147 146/146/146 148/148/148
f 147/147/147 148/148/148 149/149/149
f 149/149/149 150/150/150 147/147/147
f 153/153/153 152/152/152 151/151/151
f 152/152/152 154/154/154 151/151/151
f 151/151/151 154/154/154 155/155/155
f 154/154/154 156/156/156 155/155/155
f 159/159/159 158/158/158 157/157/157
f 160/160/160 159/159/159 157/157/157
f 161/161/161 159/159/159 160/160/160
f 162/162/162 161/161/161 160/160/160
f 163/163/163 161/161/161 162/162/162
f 164/164/164 163/163/163 162/162/162
f 165/165/165 163/163/163 164/164/164
f 166/166/166 165/165/165 164/164/164
f 169/169/169 168/168/168 167/167/167
f 170/170/170 169/169/169 167/167/167
f 173/173/173 172/172/172 171/171/171
f 174/174/174 173/173/173 171/171/171
f 177/177/177 176/176/176 175/175/175
f 178/178/178 177/177/177 175/175/175
f 179/179/179 177/177/177 178/178/178
f 178/178/178 180/180/180 179/179/179
f 180/180/180 178/178/178 181/181/181
f 180/180/180 182/182/182 179/179/179
f 179/179/179 182/182/182 183/183/183
f 179/179/179 183/183/183 184/184/184
f 183/183/183 185/185/185 184/184/184
f 184/184/184 185/185/185 186/186/186
f 186/186/186 185/185/185 187/187/187
f 184/184/184 186/186/186 188/188/188
f 189/189/189 184/184/184 188/188/188
f 189/189/189 188/188/188 190/190/190
f 188/188/188 191/191/191 190/190/190
f 194/194/194 193/193/193 192/192/192
f 195/195/195 194/194/194 192/192/192
f 198/198/198 197/197/197 196/196/196
f 199/199/199 198/198/198 196/196/196
f 202/202/202 201/201/201 200/200/200
f 203/203/203 202/202/202 200/200/200
f 206/206/206 205/205/205 204/204/204
f 207/207/207 206/206/206 204/204/204
f 210/210/210 209/209/209 208/208/208
f 211/211/211 210/210/210 208/208/208
f 211/211/211 208/208/208 212/212/212
f 213/213/213 211/211/211 212/212/212
f 213/213/213 212/212/212 214/214/214
f 215/215/215 213/213/213 214/214/214
f 218/218/218 217/217/217 216/216/216
f 217/217/217 219/219/219 216/216/216
f 217/217/217 220/220/220 219/219/219
f 220/220/220 221/221/221 219/219/219
f 220/220/220 222/222/222 221/221/221
f 222/222/222 223/223/223 221/221/221
f 222/222/222 224/224/224 223/223/223
f 224/224/224 225/225/225 223/223/223
f 228/228/228 227/227/227 226/226/226
f 229/229/229 228/228/228 226/226/226
f 232/232/232 231/231/231 230/230/230
f 233/233/233 232/232/232 230/230/230
f 236/236/236 235/235/235 234/234/234
f 237/237/237 236/236/236 234/234/234
f 237/237/237 234/234/234 238/238/238
f 239/239/239 238/238/238 234/234/234
f 240/240/240 238/238/238 239/239/239
f 240/240/240 241/241/241 238/238/238
f 236/236/236 237/237/237 242/242/242
f 243/243/243 236/236/236 242/242/242
f 244/244/244 242/242/242 237/237/237
f 244/244/244 245/245/245 242/242/242
f 245/245/245 246/246/246 242/242/242
f 247/247/247 237/237/237 238/238/238
f 241/241/241 248/248/248 238/238/238
f 247/247/247 238/238/238 248/248/248
f 248/248/248 241/241/241 249/249/249
f 250/250/250 247/247/247 248/248/248
f 250/250/250 248/248/248 251/251/251
f 252/252/252 250/250/250 251/251/251
f 255/255/255 254/254/254 253/253/253
f 256/256/256 255/255/255 253/253/253
f 259/259/259 258/258/258 257/257/257
f 260/260/260 259/259/259 257/257/257
f 263/263/263 262/262/262 261/261/261
f 264/264/264 263/263/263 261/261/261
f 267/267/267 266/266/266 265/265/265
f 268/268/268 267/267/267 265/265/265
f 271/271/271 270/270/270 269/269/269
f 272/272/272 270/270/270 271/271/271
f 273/273/273 272/272/272 271/271/271
f 272/272/272 273/273/273 274/274/274
f 277/277/277 276/276/276 275/275/275
f 278/278/278 277/277/277 275/275/275
f 281/281/281 280/280/280 279/279/279
f 280/280/280 282/282/282 279/279/279
f 282/282/282 280/280/280 283/283/283
f 280/280/280 284/284/284 283/283/283
f 286/286/286 285/285/285 282/282/282
f 287/287/287 286/286/286 282/282/282
f 290/290/290 289/289/289 288/288/288
f 291/291/291 290/290/290 288/288/288
f 294/294/294 293/293/293 292/292/292
f 295/295/295 294/294/294 292/292/292
f 296/296/296 295/295/295 292/292/292
f 297/297/297 296/296/296 292/292/292
f 298/298/298 296/296/296 297/297/297
f 299/299/299 298/298/298 297/297/297
f 302/302/302 301/301/301 300/300/300
f 303/303/303 302/302/302 300/300/300
f 306/306/306 305/305/305 304/304/304
f 307/307/307 306/306/306 304/304/304
f 310/310/310 309/309/309 308/308/308
f 311/311/311 310/310/310 308/308/308
f 314/314/314 313/313/313 312/312/312
f 315/315/315 314/314/314 312/312/312
f 318/318/318 317/317/317 316/316/316
f 319/319/319 318/318/318 316/316/316
f 319/319/319 316/316/316 320/320/320
f 321/321/321 319/319/319 320/320/320
f 322/322/322 319/319/319 321/321/321
f 323/323/323 322/322/322 321/321/321
f 324/324/324 322/322/322 323/323/323
f 325/325/325 324/324/324 323/323/323
f 320/320/320 325/325/325 326/326/326
f 325/325/325 327/327/327 326/326/326
f 326/326/326 327/327/327 328/328/328
f 327/327/327 329/329/329 328/328/328
f 321/321/321 330/330/330 323/323/323
f 328/328/328 329/329/329 330/330/330
f 330/330/330 331/331/331 323/323/323
f 329/329/329 331/331/331 330/330/330
f 334/334/334 333/333/333 332/332/332
f 335/335/335 334/334/334 332/332/332
f 338/338/338 337/337/337 336/336/336
f 338/338/338 336/336/336 339/339/339
f 338/338/338 339/339/339 340/340/340
f 340/340/340 339/339/339 341/341/341
f 339/339/339 342/342/342 341/341/341
f 341/341/341 342/342/342 343/343/343
f 342/342/342 344/344/344 343/343/343
f 344/344/344 345/345/345 343/343/343
f 336/336/336 345/345/345 344/344/344
f 336/336/336 346/346/346 339/339/339
f 346/346/346 336/336/336 344/344/344
f 346/346/346 344/344/344 347/347/347
f 344/344/344 348/348/348 347/347/347
f 347/347/347 348/348/348 349/349/349
f 348/348/348 350/350/350 349/349/349
f 349/349/349 350/350/350 351/351/351
f 350/350/350 352/352/352 351/351/351
f 351/351/351 352/352/352 353/353/353
f 354/354/354 351/351/351 353/353/353
f 357/357/357 356/356/356 355/355/355
f 358/358/358 357/357/357 355/355/355
f 361/361/361 360/360/360 359/359/359
f 361/361/361 359/359/359 362/362/362
f 363/363/363 361/361/361 362/362/362
f 366/366/366 365/365/365 364/364/364
f 364/364/364 365/365/365 367/367/367
f 365/365/365 368/368/368 367/367/367
f 371/371/371 370/370/370 369/369/369
f 372/372/372 371/371/371 369/369/369
f 372/372/372 373/373/373 371/371/371
f 373/373/373 374/374/374 371/371/371
f 374/374/374 375/375/375 371/371/371
f 375/375/375 376/376/376 371/371/371
f 379/379/379 378/378/378 377/377/377
f 380/380/380 379/379/379 377/377/377
f 383/383/383 382/382/382 381/381/381
f 384/384/384 383/383/383 381/381/381
f 387/387/387 386/386/386 385/385/385
f 386/386/386 388/388/388 385/385/385
f 388/388/388 386/386/386 389/389/389
f 390/390/390 388/388/388 389/389/389
f 391/391/391 388/388/388 390/390/390
f 392/392/392 391/391/391 390/390/390
f 395/395/395 394/394/394 393/393/393
f 396/396/396 395/395/395 393/393/393
f 399/399/399 398/398/398 397/397/397
f 400/400/400 399/399/399 397/397/397
f 403/403/403 402/402/402 401/401/401
f 404/404/404 403/403/403 401/401/401
f 407/407/407 406/406/406 405/405/405
f 408/408/408 407/407/407 405/405/405
f 411/411/411 410/410/410 409/409/409
f 412/412/412 411/411/411 409/409/409
f 415/415/415 414/414/414 413/413/413
f 416/416/416 415/415/415 413/413/413
f 419/419/419 418/418/418 417/417/417
f 418/418/418 420/420/420 417/417/417
f 418/418/418 421/421/421 420/420/420
f 421/421/421 422/422/422 420/420/420
f 425/425/425 424/424/424 423/423/423
f 426/426/426 425/425/425 423/423/423
f 429/429/429 428/428/428 427/427/427
f 430/430/430 429/429/429 427/427/427
f 433/433/433 432/432/432 431/431/431
f 434/434/434 433/433/433 431/431/431
f 437/437/437 436/436/436 435/435/435
f 438/438/438 437/437/437 435/435/435
f 441/441/441 440/440/440 439/439/439
f 442/442/442 441/441/441 439/439/439
f 445/445/445 444/444/444 443/443/443
f 446/446/446 445/445/445 443/443/443
f 449/449/449 448/448/448 447/447/447
f 450/450/450 449/449/449 447/447/447
f 453/453/453 452/452/452 451/451/451
f 454/454/454 453/453/453 451/451/451
f 457/457/457 456/456/456 455/455/455
f 458/458/458 457/457/457 455/455/455
f 461/461/461 460/460/460 459/459/459
f 462/462/462 461/461/461 459/459/459
f 465/465/465 464/464/464 463/463/463
f 466/466/466 465/465/465 463/463/463
f 469/469/469 468/468/468 467/467/467
f 470/470/470 469/469/469 467/467/467
f 473/473/473 472/472/472 471/471/471
f 474/474/474 473/473/473 471/471/471
f 477/477/477 476/476/476 475/475/475
f 478/478/478 477/477/477 475/475/475
f 481/481/481 480/480/480 479/479/479
f 482/482/482 481/481/481 479/479/479
f 485/485/485 484/484/484 483/483/483
f 486/486/486 485/485/485 483/483/483
f 489/489/489 488/488/488 487/487/487
f 490/490/490 489/489/489 487/487/487
f 493/493/493 492/492/492 491/491/491
f 494/494/494 493/493/493 491/491/491
f 497/497/497 496/496/496 495/495/495
f 498/498/498 497/497/497 495/495/495
f 501/501/501 500/500/500 499/499/499
f 502/502/502 501/501/501 499/499/499
f 505/505/505 504/504/504 503/503/503
f 506/506/506 505/505/505 503/503/503
f 509/509/509 508/508/508 507/507/507
f 510/510/510 509/509/509 507/507/507
f 513/513/513 512/512/512 511/511/511
f 514/514/514 513/513/513 511/511/511
f 517/517/517 516/516/516 515/515/515
f 518/518/518 517/517/517 515/515/515
f 521/521/521 520/520/520 519/519/519
f 522/522/522 521/521/521 519/519/519
f 525/525/525 524/524/524 523/523/523
f 526/526/526 525/525/525 523/523/523
f 529/529/529 528/528/528 527/527/527
f 528/528/528 529/529/529 530/530/530
f 530/530/530 529/529/529 531/531/531
f 534/534/534 533/533/533 532/532/532
f 535/535/535 534/534/534 532/532/532
f 538/538/538 537/537/537 536/536/536
f 539/539/539 538/538/538 536/536/536
f 542/542/542 541/541/541 540/540/540
f 543/543/543 542/542/542 540/540/540
f 546/546/546 545/545/545 544/544/544
f 547/547/547 546/546/546 544/544/544
f 550/550/550 549/549/549 548/548/548
f 551/551/551 550/550/550 548/548/548
f 554/554/554 553/553/553 552/552/552
f 555/555/555 554/554/554 552/552/552
f 558/558/558 557/557/557 556/556/556
f 559/559/559 558/558/558 556/556/556
f 562/562/562 561/561/561 560/560/560
f 563/563/563 562/562/562 560/560/560
f 566/566/566 565/565/565 564/564/564
f 567/567/567 566/566/566 564/564/564
f 570/570/570 569/569/569 568/568/568
f 571/571/571 570/570/570 568/568/568
f 574/574/574 573/573/573 572/572/572
f 575/575/575 574/574/574 572/572/572
f 578/578/578 577/577/577 576/576/576
f 579/579/579 578/578/578 576/576/576
f 582/582/582 581/581/581 580/580/580
f 583/583/583 582/582/582 580/580/580
f 586/586/586 585/585/585 584/584/584
f 587/587/587 586/586/586 584/584/584
f 590/590/590 589/589/589 588/588/588
f 591/591/591 590/590/590 588/588/588
f 594/594/594 593/593/593 592/592/592
f 595/595/595 594/594/594 592/592/592
f 598/598/598 597/597/597 596/596/596
f 599/599/599 598/598/598 596/596/596
f 602/602/602 601/601/601 600/600/600
f 603/603/603 602/602/602 600/600/600
f 606/606/606 605/605/605 604/604/604
f 607/607/607 606/606/606 604/604/604
f 610/610/610 609/609/609 608/608/608
f 611/611/611 610/610/610 608/608/608
f 614/614/614 613/613/613 612/612/612
f 615/615/615 614/614/614 612/612/612
f 618/618/618 617/617/617 616/616/616
f 619/619/619 618/618/618 616/616/616
f 622/622/622 621/621/621 620/620/620
f 623/623/623 622/622/622 620/620/620
f 626/626/626 625/625/625 624/624/624
f 627/627/627 626/626/626 624/624/624
f 630/630/630 629/629/629 628/628/628
f 631/631/631 630/630/630 628/628/628
f 634/634/634 633/633/633 632/632/632
f 635/635/635 634/634/634 632/632/632
f 638/638/638 637/637/637 636/636/636
f 639/639/639 638/638/638 636/636/636
f 642/642/642 641/641/641 640/640/640
f 643/643/643 642/642/642 640/640/640
f 646/646/646 645/645/645 644/644/644
f 647/647/647 646/646/646 644/644/644
f 650/650/650 649/649/649 648/648/648
f 651/651/651 650/650/650 648/648/648
f 654/654/654 653/653/653 652/652/652
f 655/655/655 654/654/654 652/652/652
f 658/658/658 657/657/657 656/656/656
f 659/659/659 658/658/658 656/656/656
f 662/662/662 661/661/661 660/660/660
f 663/663/663 662/662/662 660/660/660
f 666/666/666 665/665/665 664/664/664
f 667/667/667 666/666/666 664/664/664
f 670/670/670 669/669/669 668/668/668
f 671/671/671 670/670/670 668/668/668
f 674/674/674 673/673/673 672/672/672
f 675/675/675 674/674/674 672/672/672
f 678/678/678 677/677/677 676/676/676
f 679/679/679 678/678/678 676/676/676
f 682/682/682 681/681/681 680/680/680
f 683/683/683 682/682/682 680/680/680
f 686/686/686 685/685/685 684/684/684
f 687/687/687 686/686/686 684/684/684
f 690/690/690 689/689/689 688/688/688
f 691/691/691 690/690/690 688/688/688
f 694/694/694 693/693/693 692/692/692
f 695/695/695 694/694/694 692/692/692
f 698/698/698 697/697/697 696/696/696
f 699/699/699 698/698/698 696/696/696
f 702/702/702 701/701/701 700/700/700
f 703/703/703 702/702/702 700/700/700
f 706/706/706 705/705/705 704/704/704
f 707/707/707 706/706/706 704/704/704
f 710/710/710 709/709/709 708/708/708
f 709/709/709 710/710/710 711/711/711
f 709/709/709 712/712/712 708/708/708
f 708/708/708 712/712/712 713/713/713
f 714/714/714 709/709/709 711/711/711
f 711/711/711 713/713/713 714/714/714
f 709/709/709 714/714/714 712/712/712
f 713/713/713 715/715/715 714/714/714
f 712/712/712 715/715/715 713/713/713
f 714/714/714 715/715/715 712/712/712
f 718/718/718 717/717/717 716/716/716
f 718/718/718 719/719/719 717/717/717
f 717/717/717 720/720/720 716/716/716
f 719/719/719 721/721/721 717/717/717
f 722/722/722 716/716/716 720/720/720
f 719/719/719 723/723/723 721/721/721
f 724/724/724 722/722/722 720/720/720
f 723/723/723 725/725/725 721/721/721
f 726/726/726 722/722/722 724/724/724
f 723/723/723 727/727/727 725/725/725
f 728/728/728 726/726/726 724/724/724
f 727/727/727 729/729/729 725/725/725
f 730/730/730 726/726/726 728/728/728
f 727/727/727 731/731/731 729/729/729
f 732/732/732 730/730/730 728/728/728
f 731/731/731 733/733/733 729/729/729
f 734/734/734 730/730/730 732/732/732
f 731/731/731 734/734/734 733/733/733
f 735/735/735 734/734/734 732/732/732
f 734/734/734 735/735/735 733/733/733
