g billboard
v 0.00452882051 12.2674294 0.435963035
v 0.312801301 12.2674294 0.308272332
v 0.312801301 -0.0325708389 0.308272332
v 0.00452882051 -0.0325708389 0.435963035
v -0.431434274 12.2674294 8.96228158E-09
v -0.30374366 12.2674294 0.308272421
v -0.30374366 -0.0325708389 0.308272421
v -0.431434274 -0.0325708389 8.96228158E-09
v 0.00452876091 12.2674294 -0.435963035
v -0.303743631 12.2674294 -0.308272421
v -0.303743631 -0.0325708389 -0.308272421
v 0.00452876091 -0.0325708389 -0.435963035
v 0.312801301 12.2674294 -0.308272392
v 0.00452876091 12.2674294 -0.435963035
v 0.00452876091 -0.0325708389 -0.435963035
v 0.312801301 -0.0325708389 -0.308272392
v 0.312801301 12.2674294 0.308272332
v 0.440491796 12.2674294 -1.19248806E-08
v 0.440491796 -0.0325708389 -1.19248806E-08
v 0.312801301 -0.0325708389 0.308272332
v -0.30374366 12.2674294 0.308272421
v 0.00452882051 12.2674294 0.435963035
v 0.00452882051 -0.0325708389 0.435963035
v -0.30374366 -0.0325708389 0.308272421
v -0.303743631 12.2674294 -0.308272421
v -0.431434274 12.2674294 8.96228158E-09
v -0.431434274 -0.0325708389 8.96228158E-09
v -0.303743631 -0.0325708389 -0.308272421
v 0.440491796 12.2674294 -1.19248806E-08
v 0.312801301 12.2674294 -0.308272392
v 0.312801301 -0.0325708389 -0.308272392
v 0.440491796 -0.0325708389 -1.19248806E-08
v -0.445471287 12.4674292 -0.076650776
v -0.445471287 12.2674294 -0.076650776
v -0.445471287 12.2674294 -0.449999988
v -0.445471287 12.4674292 -0.449999988
v -0.445471287 12.4674292 -0.449999988
v -0.445471287 12.2674294 -0.449999988
v 0.454528689 12.2674294 -0.449999988
v 0.454528689 12.4674292 -0.449999988
v 0.454528689 12.4674292 0.076650776
v 0.454528689 12.2674294 0.076650776
v 0.454528689 12.2674294 0.449999988
v 0.454528689 12.4674292 0.449999988
v 0.454528689 12.4674292 0.449999988
v 0.454528689 12.2674294 0.449999988
v -0.445471287 12.2674294 0.449999988
v -0.445471287 12.4674292 0.449999988
v -0.445471287 12.4674292 0.076650776
v 0.454528689 12.4674292 0.449999988
v -0.445471287 12.4674292 0.449999988
v 0.454528689 12.4674292 0.076650776
v -0.445471287 12.4674292 -0.076650776
v 0.454528689 12.4674292 -0.076650776
v -0.445471287 12.4674292 -0.449999988
v 0.454528689 12.4674292 -0.076650776
v 0.454528689 12.4674292 -0.449999988
v 0.454528689 12.2674294 -0.076650776
v 1.45635855 12.2674294 -0.076650776
v 1.45635855 12.4674282 -0.076650776
v 0.454528689 12.4674292 -0.076650776
v -0.445471168 12.2674294 0.076650776
v -1.48147583 12.2674284 0.0766507685
v -1.48147595 12.4674282 0.0766507685
v -0.445471287 12.4674292 0.076650776
v 0.454528689 12.2674294 -0.076650776
v 0.454528689 12.2674294 0.076650776
v 1.45635855 12.2674294 0.076650776
v 1.45635855 12.2674294 -0.076650776
v -0.445471287 12.4674292 -0.076650776
v -0.445471287 12.4674292 0.076650776
v -1.48147595 12.4674282 0.0766507685
v -1.48147595 12.4674282 -0.0766507685
v 1.45635855 12.4674282 -0.076650776
v 1.45635855 12.4674282 0.076650776
v 0.454528689 12.4674292 0.076650776
v 0.454528689 12.4674292 -0.076650776
v -0.445471287 12.4674292 0.449999988
v -0.445471287 12.2674294 0.449999988
v -0.445471168 12.2674294 0.076650776
v -0.445471287 12.4674292 0.076650776
v 1.45635855 12.2674294 0.076650776
v 0.454528689 12.2674294 0.076650776
v 0.454528689 12.4674292 0.076650776
v 1.45635855 12.4674282 0.076650776
v 0.454528689 12.2674294 0.076650776
v -0.445471287 12.2674294 0.449999988
v 0.454528689 12.2674294 0.449999988
v -0.445471168 12.2674294 0.076650776
v -0.445471287 12.2674294 -0.076650776
v 0.454528689 12.2674294 -0.076650776
v 0.454528689 12.2674294 -0.449999988
v -0.445471287 12.2674294 -0.449999988
v -1.48147595 12.2674284 -0.0766507685
v -0.445471287 12.2674294 -0.076650776
v -0.445471287 12.4674292 -0.076650776
v -1.48147595 12.4674282 -0.0766507685
v -1.48147595 12.2674284 -0.0766507685
v -1.48147583 12.2674284 0.0766507685
v -0.445471168 12.2674294 0.076650776
v -0.445471287 12.2674294 -0.076650776
v 0.454528689 12.4674292 -0.449999988
v 0.454528689 12.2674294 -0.449999988
v 0.454528689 12.2674294 -0.076650776
v 0.454528689 12.4674292 -0.076650776
v 2.08847666 9.76742935 0.0750000253
v -2.08886456 9.76742935 0.0750000253
v -2.0899148 9.96742821 0.0750000179
v 2.08945537 9.96742916 0.0750000179
v 2.05085015 9.96742916 -0.0750000179
v 2.08945537 9.96742916 0.0750000179
v -2.0899148 9.96742821 0.0750000179
v -2.05638933 9.96742821 -0.0750000104
v -2.0690248 9.76742935 -0.0750000179
v 2.05828643 9.76742935 -0.0750000179
v 2.05085015 9.96742916 -0.0750000179
v -2.05638933 9.96742821 -0.0750000104
v -2.0690248 9.76742935 -0.0750000179
v -2.08886456 9.76742935 0.0750000253
v 2.08847666 9.76742935 0.0750000253
v 2.05828643 9.76742935 -0.0750000179
v 0.537105501 14.0674286 -4.6808095
v 0.537105501 10.4674292 -4.6808095
v 2.61492562 10.4674292 4.69163179
v 2.61492586 14.0674286 4.69163179
v 0.341846198 14.0674286 -4.63752174
v 2.41966677 14.0674286 4.73491955
v 2.41966653 10.4674292 4.73491955
v 0.341846317 10.4674292 -4.63752174
v 0.537105501 14.0674286 -4.6808095
v 0.341846198 14.0674286 -4.63752174
v 0.341846317 10.4674292 -4.63752174
v 0.537105501 10.4674292 -4.6808095
v 2.61492562 10.4674292 4.69163179
v 2.41966653 10.4674292 4.73491955
v 2.41966677 14.0674286 4.73491955
v 2.61492586 14.0674286 4.69163179
v 2.61492586 14.0674286 4.69163179
v 2.41966677 14.0674286 4.73491955
v 0.341846198 14.0674286 -4.63752174
v 0.537105501 14.0674286 -4.6808095
v 0.537105501 10.4674292 -4.6808095
v 0.341846317 10.4674292 -4.63752174
v 2.41966653 10.4674292 4.73491955
v 2.61492562 10.4674292 4.69163179
v 3.22594094 9.96743011 5.12712145
v 0.999952078 9.96742916 -4.75603294
v 1.54197979 9.96742916 -5.30957651
v 3.80877018 9.96743011 4.99791145
v 3.80877018 9.96743011 4.99791145
v 1.54197979 9.96742916 -5.30957651
v 1.54197979 9.76742935 -5.30957651
v 3.80877018 9.76742935 4.99791145
v 3.80877018 9.76742935 4.99791145
v 1.54197979 9.76742935 -5.30957651
v 0.999952078 9.76742935 -4.75603294
v 3.22594094 9.76742935 5.12712145
v 3.80877018 9.96743011 4.99791145
v 3.80877018 9.76742935 4.99791145
v 3.22594094 9.76742935 5.12712145
v 3.22594094 9.96743011 5.12712145
v -1.54198039 9.76742935 -5.30957651
v 1.54197979 9.76742935 -5.30957651
v 1.54197979 9.96742916 -5.30957651
v -1.54198039 9.96742916 -5.30957651
v 3.22594094 9.96743011 5.12712145
v 3.22594094 9.76742935 5.12712145
v 0.999952078 9.76742935 -4.75603294
v 0.999952078 9.96742916 -4.75603294
v -0.999952614 9.76742935 -4.75603294
v 0.999952078 9.76742935 -4.75603294
v 1.54197979 9.76742935 -5.30957651
v -1.54198039 9.76742935 -5.30957651
v -3.80877042 9.76742935 4.99791145
v -3.22594142 9.76742935 5.12712145
v -1.54198039 9.96742916 -5.30957651
v 1.54197979 9.96742916 -5.30957651
v 0.999952078 9.96742916 -4.75603294
v -0.999952734 9.96742916 -4.75603294
v -0.537106752 14.0674286 -4.6808095
v -2.61492729 14.0674286 4.69163179
v -2.61492658 10.4674292 4.69163179
v -0.537106216 10.4674292 -4.6808095
v -0.341847569 14.0674286 -4.63752174
v -0.341847032 10.4674292 -4.63752174
v -2.41966748 10.4674292 4.73491955
v -2.4196682 14.0674286 4.73491955
v -0.537106752 14.0674286 -4.6808095
v -0.537106216 10.4674292 -4.6808095
v -0.341847032 10.4674292 -4.63752174
v -0.341847569 14.0674286 -4.63752174
v -2.61492658 10.4674292 4.69163179
v -2.61492729 14.0674286 4.69163179
v -2.4196682 14.0674286 4.73491955
v -2.41966748 10.4674292 4.73491955
v -2.61492729 14.0674286 4.69163179
v -0.537106752 14.0674286 -4.6808095
v -0.341847569 14.0674286 -4.63752174
v -2.4196682 14.0674286 4.73491955
v -0.537106216 10.4674292 -4.6808095
v -2.61492658 10.4674292 4.69163179
v -2.41966748 10.4674292 4.73491955
v -0.341847032 10.4674292 -4.63752174
v -3.22594142 9.96742821 5.12712145
v -3.80877042 9.96742821 4.99791145
v -1.54198039 9.96742916 -5.30957651
v -0.999952734 9.96742916 -4.75603294
v -3.80877042 9.96742821 4.99791145
v -3.80877042 9.76742935 4.99791145
v -1.54198039 9.76742935 -5.30957651
v -1.54198039 9.96742916 -5.30957651
v -3.80877042 9.96742821 4.99791145
v -3.22594142 9.96742821 5.12712145
v -3.22594142 9.76742935 5.12712145
v -3.80877042 9.76742935 4.99791145
v -3.22594142 9.96742821 5.12712145
v -0.999952734 9.96742916 -4.75603294
v -0.999952614 9.76742935 -4.75603294
v -3.22594142 9.76742935 5.12712145
v -0.999952734 9.96742916 -4.75603294
v 0.999952078 9.96742916 -4.75603294
v 0.999952078 9.76742935 -4.75603294
v -0.999952614 9.76742935 -4.75603294
vt 0.944720328 0.131961852
vt 0.952718616 0.131961852
vt 0.952718437 0.486266404
vt 0.94472003 0.486266404
vt 0.928723633 0.131961837
vt 0.936721921 0.131961852
vt 0.936721683 0.486266404
vt 0.928723216 0.486266404
vt 0.976713657 0.131961778
vt 0.984712005 0.131961778
vt 0.984712005 0.486266404
vt 0.976713657 0.486266404
vt 0.96871531 0.131961778
vt 0.976713657 0.131961778
vt 0.976713657 0.486266404
vt 0.968715191 0.486266404
vt 0.952718616 0.131961852
vt 0.960716963 0.131961852
vt 0.960716844 0.486266404
vt 0.952718437 0.486266404
vt 0.936721921 0.131961852
vt 0.944720328 0.131961852
vt 0.94472003 0.486266404
vt 0.936721683 0.486266404
vt 0.984712005 0.131961778
vt 0.992710352 0.131961778
vt 0.992710352 0.486266553
vt 0.984712005 0.486266404
vt 0.960716963 0.131961852
vt 0.96871531 0.131961778
vt 0.968715191 0.486266404
vt 0.960716844 0.486266404
vt 0.922981024 0.0662630275
vt 0.919280052 0.0708702058
vt 0.92381978 0.0784090981
vt 0.927858353 0.0759771466
vt 0.927858353 0.0759771466
vt 0.927964687 0.079962939
vt 0.945900917 0.0794843882
vt 0.945794582 0.0754986629
vt 0.949049234 0.0631907731
vt 0.951866686 0.0572460815
vt 0.944984555 0.0514636785
vt 0.943453491 0.0551942289
vt 0.943453491 0.0551942289
vt 0.944984555 0.0514636785
vt 0.927450538 0.0506191105
vt 0.927262843 0.0545155406
vt 0.923293233 0.062303625
vt 0.943453491 0.0551942289
vt 0.927262843 0.0545155406
vt 0.949049234 0.0631907731
vt 0.922981024 0.0662630275
vt 0.949311316 0.06730441
vt 0.927858353 0.0759771466
vt 0.949311316 0.06730441
vt 0.945794582 0.0754986629
vt 0.952471972 0.0721582472
vt 0.989074945 0.0678157285
vt 0.98862654 0.063564539
vt 0.949311316 0.06730441
vt 0.920861363 0.0572554395
vt 0.890870452 0.0560734123
vt 0.890693307 0.0599686652
vt 0.923293233 0.062303625
vt 0.951679826 0.0526330844
vt 0.951866686 0.0572460815
vt 0.988132 0.0550647825
vt 0.987961769 0.0510816947
vt 0.922981024 0.0662630275
vt 0.923293233 0.062303625
vt 0.890693307 0.0599686652
vt 0.890452623 0.0629952326
vt 0.98862654 0.063564539
vt 0.988376677 0.0602433383
vt 0.949049234 0.0631907731
vt 0.949311316 0.06730441
vt 0.927262843 0.0545155406
vt 0.924823701 0.0526849031
vt 0.920861363 0.0572554395
vt 0.923293233 0.062303625
vt 0.988132 0.0550647825
vt 0.951866686 0.0572460815
vt 0.949049234 0.0631907731
vt 0.988376677 0.0602433383
vt 0.955793381 0.0949066654
vt 0.981433511 0.0842703357
vt 0.955793381 0.0842703357
vt 0.981433511 0.0949066207
vt 0.981433511 0.0992740169
vt 0.955793381 0.0992740169
vt 0.955793381 0.109910347
vt 0.981433511 0.109910347
vt 0.889914453 0.0676743165
vt 0.919280052 0.0708702058
vt 0.922981024 0.0662630275
vt 0.890452623 0.0629952326
vt 0.890919685 0.052397728
vt 0.890870452 0.0560734123
vt 0.920861363 0.0572554395
vt 0.920985281 0.0528005064
vt 0.945794582 0.0754986629
vt 0.948616147 0.0772788525
vt 0.952471972 0.0721582472
vt 0.949311316 0.06730441
vt 0.735208392 0.0721327886
vt 0.872570753 0.0721326694
vt 0.872605324 0.0655564293
vt 0.735176206 0.0655561909
vt 0.736445665 0.0606236681
vt 0.735176206 0.0655561909
vt 0.872605324 0.0655564293
vt 0.871502876 0.0606237873
vt 0.871918321 0.0540473089
vt 0.736201167 0.0540472493
vt 0.736445665 0.0606236681
vt 0.871502876 0.0606237873
vt 0.871918321 0.0770652518
vt 0.872570753 0.0721326694
vt 0.735208392 0.0721327886
vt 0.736201167 0.0770652518
vt 0.915762305 0.488901794
vt 0.915762305 0.336262584
vt 0.508724511 0.336262584
vt 0.508724391 0.488901794
vt 0.707715034 0.0905890018
vt 0.512556374 0.090589121
vt 0.512556434 0.163773477
vt 0.707715034 0.163773417
vt 0.711780965 0.0905889571
vt 0.707715034 0.0905890018
vt 0.707715034 0.163773417
vt 0.711780846 0.163773417
vt 0.508490503 0.163773477
vt 0.512556434 0.163773477
vt 0.512556374 0.090589121
vt 0.508490562 0.090589121
vt 0.512556374 0.0865231007
vt 0.512556374 0.090589121
vt 0.707715034 0.0905890018
vt 0.707714975 0.0865231007
vt 0.707715034 0.167838857
vt 0.707715034 0.163773417
vt 0.512556434 0.163773477
vt 0.512556434 0.167839319
vt 0.981790185 0.042311132
vt 0.769080758 0.0358093083
vt 0.772843063 0.0223340373
vt 0.975271821 0.0314740464
vt 0.975271821 0.0314740464
vt 0.772843063 0.0223340373
vt 0.772695482 0.0181219932
vt 0.97818619 0.026749894
vt 0.97818619 0.026749894
vt 0.772695482 0.0181219932
vt 0.769160926 0.00306021795
vt 0.978812397 0.0143933734
vt 0.975271821 0.0314740464
vt 0.97818619 0.026749894
vt 0.986113727 0.0396552756
vt 0.981790185 0.042311132
vt 0.717480004 0.0209077299
vt 0.772695482 0.0181219932
vt 0.772843063 0.0223340373
vt 0.717638731 0.0250704065
vt 0.981790185 0.042311132
vt 0.981695473 0.0457735993
vt 0.769286573 0.0403041393
vt 0.769080758 0.0358093083
vt 0.720729768 0.00854464434
vt 0.769160926 0.00306021795
vt 0.772695482 0.0181219932
vt 0.717480004 0.0209077299
vt 0.515660226 0.0241447389
vt 0.515494287 0.0120501323
vt 0.717638731 0.0250704065
vt 0.772843063 0.0223340373
vt 0.769080758 0.0358093083
vt 0.721155763 0.0416888595
vt 0.510156393 0.33198595
vt 0.917194188 0.33198595
vt 0.917194307 0.179346964
vt 0.510156393 0.179346725
vt 0.721042693 0.0899282694
vt 0.721042752 0.16311273
vt 0.916201353 0.163112536
vt 0.916201353 0.0899281502
vt 0.716976881 0.0899282694
vt 0.716976821 0.16311273
vt 0.721042752 0.16311273
vt 0.721042693 0.0899282694
vt 0.920267224 0.163112536
vt 0.920267224 0.0899281502
vt 0.916201353 0.0899281502
vt 0.916201353 0.163112536
vt 0.916201353 0.0858622938
vt 0.721042693 0.0858622938
vt 0.721042693 0.0899282694
vt 0.916201353 0.0899281502
vt 0.721042752 0.167178571
vt 0.916201353 0.16717805
vt 0.916201353 0.163112536
vt 0.721042752 0.16311273
vt 0.511617005 0.0392839983
vt 0.51836592 0.0288597494
vt 0.717638731 0.0250704065
vt 0.721155763 0.0416888595
vt 0.51836592 0.0288597494
vt 0.515660226 0.0241447389
vt 0.717480004 0.0209077299
vt 0.717638731 0.0250704065
vt 0.51836592 0.0288597494
vt 0.511617005 0.0392839983
vt 0.507464826 0.0365384072
vt 0.515660226 0.0241447389
vt 0.511617005 0.0392839983
vt 0.721155763 0.0416888595
vt 0.721369624 0.0457736328
vt 0.511572719 0.0427039936
vt 0.721155763 0.0416888595
vt 0.769080758 0.0358093083
vt 0.769286573 0.0403041393
vt 0.721369624 0.0457736328
vn 0.382683605 0 0.923879445
vn 0.382683605 0 0.923879445
vn 0.382683605 0 0.923879445
vn 0.382683605 0 0.923879445
vn -0.923879504 0 0.382683396
vn -0.923879504 0 0.382683396
vn -0.923879504 0 0.382683396
vn -0.923879504 0 0.382683396
vn -0.382683456 0 -0.923879504
vn -0.382683456 0 -0.923879504
vn -0.382683456 0 -0.923879504
vn -0.382683456 0 -0.923879504
vn 0.382683337 0 -0.923879504
vn 0.382683337 0 -0.923879504
vn 0.382683337 0 -0.923879504
vn 0.382683337 0 -0.923879504
vn 0.923879623 0 0.382683277
vn 0.923879623 0 0.382683277
vn 0.923879623 0 0.382683277
vn 0.923879623 0 0.382683277
vn -0.382683307 0 0.923879504
vn -0.382683307 0 0.923879504
vn -0.382683307 0 0.923879504
vn -0.382683307 0 0.923879504
vn -0.923879504 0 -0.382683456
vn -0.923879504 0 -0.382683456
vn -0.923879504 0 -0.382683456
vn -0.923879504 0 -0.382683456
vn 0.923879623 0 -0.382683188
vn 0.923879623 0 -0.382683188
vn 0.923879623 0 -0.382683188
vn 0.923879623 0 -0.382683188
vn -1 0 0
vn -1 0 0
vn -1 0 0
vn -1 0 0
vn -0 0 -1
vn -0 0 -1
vn -0 0 -1
vn -0 0 -1
vn 1 0 0
vn 1 0 0
vn 1 0 0
vn 1 0 0
vn -0 0 1
vn -0 0 1
vn -0 0 1
vn -0 0 1
vn -0 1 0
vn -0 1 0
vn -0 1 0
vn -0 1 0
vn -0 1 0
vn -0 1 0
vn -0 1 0
vn -0 1 0
vn -0 1 0
vn -0 0 -1
vn -0 0 -1
vn -0 0 -1
vn -0 0 -1
vn -0 0 1
vn -0 0 1
vn -0 0 1
vn -0 0 1
vn -0 -1 0
vn -0 -1 0
vn -0 -1 0
vn -0 -1 0
vn -0 1 0
vn -0 1 0
vn -0 1 0
vn -0 1 0
vn -0 1 0
vn -0 1 0
vn -0 1 0
vn -0 1 0
vn -1 0 0
vn -1 0 0
vn -1 0 0
vn -1 0 0
vn -0 0 1
vn -0 0 1
vn -0 0 1
vn -0 0 1
vn -0 -1 0
vn -0 -1 0
vn -0 -1 0
vn -0 -1 0
vn -0 -1 0
vn -0 -1 0
vn -0 -1 0
vn -0 -1 0
vn -0 0 -1
vn -0 0 -1
vn -0 0 -1
vn -0 0 -1
vn -0 -1 0
vn -0 -1 0
vn -0 -1 0
vn -0 -1 0
vn 1 0 0
vn 1 0 0
vn 1 0 0
vn 1 0 0
vn -0 0 1
vn -0 0 1
vn -0 0 1
vn -0 0 1
vn -0 1 0
vn -0 1 0
vn -0 1 0
vn -0 1 0
vn -0 0 -1
vn -0 0 -1
vn -0 0 -1
vn -0 0 -1
vn -0 -1 0
vn -0 -1 0
vn -0 -1 0
vn -0 -1 0
vn 0.976296067 0 -0.216439635
vn 0.976296067 0 -0.216439635
vn 0.976296067 0 -0.216439635
vn 0.976296067 0 -0.216439635
vn -0.976296067 0 0.216439649
vn -0.976296067 0 0.216439649
vn -0.976296067 0 0.216439649
vn -0.976296067 0 0.216439649
vn -0.2164388 0 -0.976296186
vn -0.2164388 0 -0.976296186
vn -0.2164388 0 -0.976296186
vn -0.2164388 0 -0.976296186
vn 0.216439009 0 0.976296186
vn 0.216439009 0 0.976296186
vn 0.216439009 0 0.976296186
vn 0.216439009 0 0.976296186
vn -0 1 0
vn -0 1 0
vn -0 1 0
vn -0 1 0
vn -0 -1 0
vn -0 -1 0
vn -0 -1 0
vn -0 -1 0
vn -0 1 0
vn -0 1 0
vn -0 1 0
vn -0 1 0
vn 0.976661503 0 -0.214784339
vn 0.976661503 0 -0.214784339
vn 0.976661503 0 -0.214784339
vn 0.976661503 0 -0.214784339
vn -0 -1 0
vn -0 -1 0
vn -0 -1 0
vn -0 -1 0
vn 0.216439188 0 0.976296186
vn 0.216439188 0 0.976296186
vn 0.216439188 0 0.976296186
vn 0.216439188 0 0.976296186
vn -0 0 -1
vn -0 0 -1
vn -0 0 -1
vn -0 0 -1
vn -0.975561678 0 0.219725788
vn -0.975561678 0 0.219725788
vn -0.975561678 0 0.219725788
vn -0.975561678 0 0.219725788
vn -0 -1 0
vn -0 -1 0
vn -0 -1 0
vn -0 -1 0
vn -0 -1 0
vn -0 -1 0
vn -0 1 0
vn -0 1 0
vn -0 1 0
vn -0 1 0
vn -0.976296067 0 -0.216439635
vn -0.976296067 0 -0.216439635
vn -0.976296067 0 -0.216439635
vn -0.976296067 0 -0.216439635
vn 0.976296067 0 0.216439635
vn 0.976296067 0 0.216439635
vn 0.976296067 0 0.216439635
vn 0.976296067 0 0.216439635
vn 0.2164388 0 -0.976296186
vn 0.2164388 0 -0.976296186
vn 0.2164388 0 -0.976296186
vn 0.2164388 0 -0.976296186
vn -0.216438726 0 0.976296186
vn -0.216438726 0 0.976296186
vn -0.216438726 0 0.976296186
vn -0.216438726 0 0.976296186
vn -0 1 0
vn -0 1 0
vn -0 1 0
vn -0 1 0
vn -0 -1 0
vn -0 -1 0
vn -0 -1 0
vn -0 -1 0
vn -0 1 0
vn -0 1 0
vn -0 1 0
vn -0 1 0
vn -0.976661384 0 -0.214784861
vn -0.976661384 0 -0.214784861
vn -0.976661384 0 -0.214784861
vn -0.976661384 0 -0.214784861
vn -0.216439292 0 0.976296186
vn -0.216439292 0 0.976296186
vn -0.216439292 0 0.976296186
vn -0.216439292 0 0.976296186
vn 0.975561559 0 0.219726399
vn 0.975561559 0 0.219726399
vn 0.975561559 0 0.219726399
vn 0.975561559 0 0.219726399
vn -0 0 1
vn -0 0 1
vn -0 0 1
vn -0 0 1
g billboard_0
f 3/3/3 2/2/2 1/1/1
f 4/4/4 3/3/3 1/1/1
f 7/7/7 6/6/6 5/5/5
f 8/8/8 7/7/7 5/5/5
f 11/11/11 10/10/10 9/9/9
f 12/12/12 11/11/11 9/9/9
f 15/15/15 14/14/14 13/13/13
f 16/16/16 15/15/15 13/13/13
f 19/19/19 18/18/18 17/17/17
f 20/20/20 19/19/19 17/17/17
f 23/23/23 22/22/22 21/21/21
f 24/24/24 23/23/23 21/21/21
f 27/27/27 26/26/26 25/25/25
f 28/28/28 27/27/27 25/25/25
f 31/31/31 30/30/30 29/29/29
f 32/32/32 31/31/31 29/29/29
f 35/35/35 34/34/34 33/33/33
f 36/36/36 35/35/35 33/33/33
f 39/39/39 38/38/38 37/37/37
f 40/40/40 39/39/39 37/37/37
f 43/43/43 42/42/42 41/41/41
f 44/44/44 43/43/43 41/41/41
f 47/47/47 46/46/46 45/45/45
f 48/48/48 47/47/47 45/45/45
f 51/51/51 50/50/50 49/49/49
f 50/50/50 52/52/52 49/49/49
f 49/49/49 52/52/52 53/53/53
f 52/52/52 54/54/54 53/53/53
f 53/53/53 56/56/56 55/55/55
f 56/56/56 57/57/57 55/55/55
f 60/60/60 59/59/59 58/58/58
f 61/61/61 60/60/60 58/58/58
f 64/64/64 63/63/63 62/62/62
f 65/65/65 64/64/64 62/62/62
f 68/68/68 67/67/67 66/66/66
f 69/69/69 68/68/68 66/66/66
f 72/72/72 71/71/71 70/70/70
f 73/73/73 72/72/72 70/70/70
f 76/76/76 75/75/75 74/74/74
f 77/77/77 76/76/76 74/74/74
f 80/80/80 79/79/79 78/78/78
f 81/81/81 80/80/80 78/78/78
f 84/84/84 83/83/83 82/82/82
f 85/85/85 84/84/84 82/82/82
f 88/88/88 87/87/87 86/86/86
f 87/87/87 89/89/89 86/86/86
f 89/89/89 90/90/90 86/86/86
f 90/90/90 91/91/91 86/86/86
f 92/92/92 91/91/91 90/90/90
f 93/93/93 92/92/92 90/90/90
f 96/96/96 95/95/95 94/94/94
f 97/97/97 96/96/96 94/94/94
f 100/100/100 99/99/99 98/98/98
f 101/101/101 100/100/100 98/98/98
f 104/104/104 103/103/103 102/102/102
f 105/105/105 104/104/104 102/102/102
f 108/108/108 107/107/107 106/106/106
f 109/109/109 108/108/108 106/106/106
f 112/112/112 111/111/111 110/110/110
f 113/113/113 112/112/112 110/110/110
f 116/116/116 115/115/115 114/114/114
f 117/117/117 116/116/116 114/114/114
f 120/120/120 119/119/119 118/118/118
f 121/121/121 120/120/120 118/118/118
f 124/124/124 123/123/123 122/122/122
f 125/125/125 124/124/124 122/122/122
f 128/128/128 127/127/127 126/126/126
f 129/129/129 128/128/128 126/126/126
f 132/132/132 131/131/131 130/130/130
f 133/133/133 132/132/132 130/130/130
f 136/136/136 135/135/135 134/134/134
f 137/137/137 136/136/136 134/134/134
f 140/140/140 139/139/139 138/138/138
f 141/141/141 140/140/140 138/138/138
f 144/144/144 143/143/143 142/142/142
f 145/145/145 144/144/144 142/142/142
f 148/148/148 147/147/147 146/146/146
f 149/149/149 148/148/148 146/146/146
f 152/152/152 151/151/151 150/150/150
f 153/153/153 152/152/152 150/150/150
f 156/156/156 155/155/155 154/154/154
f 157/157/157 156/156/156 154/154/154
f 160/160/160 159/159/159 158/158/158
f 161/161/161 160/160/160 158/158/158
f 164/164/164 163/163/163 162/162/162
f 165/165/165 164/164/164 162/162/162
f 168/168/168 167/167/167 166/166/166
f 169/169/169 168/168/168 166/166/166
f 172/172/172 171/171/171 170/170/170
f 173/173/173 172/172/172 170/170/170
f 173/173/173 170/170/170 174/174/174
f 170/170/170 175/175/175 174/174/174
f 178/178/178 177/177/177 176/176/176
f 179/179/179 178/178/178 176/176/176
f 182/182/182 181/181/181 180/180/180
f 183/183/183 182/182/182 180/180/180
f 186/186/186 185/185/185 184/184/184
f 187/187/187 186/186/186 184/184/184
f 190/190/190 189/189/189 188/188/188
f 191/191/191 190/190/190 188/188/188
f 194/194/194 193/193/193 192/192/192
f 195/195/195 194/194/194 192/192/192
f 198/198/198 197/197/197 196/196/196
f 199/199/199 198/198/198 196/196/196
f 202/202/202 201/201/201 200/200/200
f 203/203/203 202/202/202 200/200/200
f 206/206/206 205/205/205 204/204/204
f 207/207/207 206/206/206 204/204/204
f 210/210/210 209/209/209 208/208/208
f 211/211/211 210/210/210 208/208/208
f 214/214/214 213/213/213 212/212/212
f 215/215/215 214/214/214 212/212/212
f 218/218/218 217/217/217 216/216/216
f 219/219/219 218/218/218 216/216/216
f 222/222/222 221/221/221 220/220/220
f 223/223/223 222/222/222 220/220/220
