g building_skola_EZ1_LP
v 54.7683372 19.57514 -0.28144294
v 73.1262207 19.57514 -0.28144294
v 73.1262207 20.07514 -0.28144294
v 54.7683372 20.07514 -0.28144294
v 73.1262207 19.57514 43.5396881
v 54.7683372 19.57514 43.5396881
v 54.7683372 20.07514 43.5396881
v 73.1262207 20.07514 43.5396881
v 54.7683372 19.57514 43.5396881
v 54.7683372 19.57514 -0.28144294
v 54.7683372 20.07514 -0.28144294
v 54.7683372 20.07514 43.5396881
v 73.1262207 19.57514 -0.28144294
v 73.1262207 19.57514 43.5396881
v 73.1262207 20.07514 43.5396881
v 73.1262207 20.07514 -0.28144294
v 54.7683372 20.07514 43.5396881
v 54.7683372 20.07514 -0.28144294
v 73.1262207 20.07514 -0.28144294
v 73.1262207 20.07514 43.5396881
v 55.3218918 0.00399971008 43.3396835
v 55.3218918 19.57514 43.3396873
v 61.5179482 19.57514 43.3396873
v 61.5179253 0.00399971008 43.3396835
v 55.1451149 19.5751419 43.4129066
v 55.1451149 0.00399971008 43.4129066
v 54.968338 0.00399971008 43.3396835
v 54.968338 19.5751419 43.3396835
v 55.3218918 19.57514 43.3396873
v 55.3218918 0.00399971008 43.3396835
v 55.1451149 0.00399971008 43.4129066
v 55.1451149 19.5751419 43.4129066
v 72.7494507 19.5751419 43.4129066
v 72.7494507 0.00399971008 43.4129066
v 72.9262238 0.00399971008 43.3396835
v 72.9262238 19.5751419 43.3396835
v 72.5722427 19.57514 43.3396873
v 72.5722427 0.00399971008 43.3396835
v 72.7494507 0.00399971008 43.4129066
v 72.7494507 19.5751419 43.4129066
v 61.8714752 19.57514 43.3396873
v 66.0186844 19.57514 43.3396873
v 66.0186844 0.00399971008 43.3396835
v 61.8714752 0.00399971008 43.3396835
v 66.3722153 0.00399971008 43.3396835
v 66.3722153 19.57514 43.3396873
v 72.5722427 19.57514 43.3396873
v 72.5722427 0.00399971008 43.3396835
v 61.6946983 19.5751419 43.4129066
v 61.6946983 0.00399971008 43.4129066
v 61.5179253 0.00399971008 43.3396835
v 61.5179482 19.57514 43.3396873
v 61.8714752 19.57514 43.3396873
v 61.8714752 0.00399971008 43.3396835
v 61.6946983 0.00399971008 43.4129066
v 61.6946983 19.5751419 43.4129066
v 66.1954346 19.5751419 43.4129066
v 66.1954346 0.00399971008 43.4129066
v 66.0186844 0.00399971008 43.3396835
v 66.0186844 19.57514 43.3396873
v 66.3722153 19.57514 43.3396873
v 66.3722153 0.00399971008 43.3396835
v 66.1954346 0.00399971008 43.4129066
v 66.1954346 19.5751419 43.4129066
v 72.9262238 0.00399971008 0.272110432
v 72.9262238 19.5751419 0.272110432
v 72.9994431 19.5751419 0.0953337625
v 72.9994431 0.00399971008 0.0953337625
v 72.9262238 0.00399971008 24.8811188
v 72.9262238 0.00399971008 30.6775627
v 72.9262238 19.5751419 30.6775627
v 72.9262238 19.5751419 24.8811188
v 72.9262238 19.5751419 12.5771408
v 72.9994431 19.5751419 12.4003639
v 72.9994431 0.00399971008 12.4003639
v 72.9262238 0.00399971008 12.5771408
v 72.9994431 19.5751419 0.0953337625
v 72.9262238 19.5751419 -0.0814429373
v 72.9262238 0.00399971008 -0.0814429298
v 72.9994431 0.00399971008 0.0953337625
v 72.9994507 19.5751419 43.1629066
v 72.9994507 0.00399971008 43.1629066
v 72.9262238 0.00399971008 42.9861298
v 72.9262238 19.5751419 42.9861298
v 72.9262238 19.5751419 18.7311172
v 72.9994431 19.5751419 18.5543404
v 72.9994431 0.00399971008 18.5543404
v 72.9262238 0.00399971008 18.7311172
v 72.9994431 19.5751419 6.24785185
v 72.9262238 19.5751419 6.07107544
v 72.9262238 0.00399971008 6.07107544
v 72.9994431 0.00399971008 6.24785185
v 72.9262238 19.5751419 18.7311172
v 72.9262238 0.00399971008 18.7311172
v 72.9262238 0.00399971008 24.527565
v 72.9262238 19.5751419 24.527565
v 72.9262238 19.5751419 6.42462873
v 72.9994431 19.5751419 6.24785185
v 72.9994431 0.00399971008 6.24785185
v 72.9262238 0.00399971008 6.42462873
v 72.9994431 19.5751419 18.5543404
v 72.9262238 19.5751419 18.3775635
v 72.9262238 0.00399971008 18.3775635
v 72.9994431 0.00399971008 18.5543404
v 72.9262238 0.00399971008 0.272110432
v 72.9262238 0.00399971008 6.07107544
v 72.9262238 19.5751419 6.07107544
v 72.9262238 19.5751419 0.272110432
v 72.9262238 19.5751419 24.8811188
v 72.9994431 19.5751419 24.7043419
v 72.9994431 0.00399971008 24.7043419
v 72.9262238 0.00399971008 24.8811188
v 72.9262238 19.5751419 37.1871719
v 72.9994431 19.5751419 37.0103989
v 72.9994431 0.00399971008 37.0103989
v 72.9262238 0.00399971008 37.1871719
v 72.9994431 19.5751419 12.4003639
v 72.9262238 19.5751419 12.223587
v 72.9262238 0.00399971008 12.223587
v 72.9994431 0.00399971008 12.4003639
v 72.9994431 19.5751419 24.7043419
v 72.9262238 19.5751419 24.527565
v 72.9262238 0.00399971008 24.527565
v 72.9994431 0.00399971008 24.7043419
v 72.9262238 19.5751419 43.3396835
v 72.9262238 0.00399971008 43.3396835
v 72.9994507 0.00399971008 43.1629066
v 72.9994507 19.5751419 43.1629066
v 72.9994431 19.5751419 30.8543396
v 72.9262238 19.5751419 30.6775627
v 72.9262238 0.00399971008 30.6775627
v 72.9994431 0.00399971008 30.8543396
v 72.9262238 19.5751419 12.5771408
v 72.9262238 0.00399971008 12.5771408
v 72.9262238 0.00399971008 18.3775635
v 72.9262238 19.5751419 18.3775635
v 72.9994431 19.5751419 37.0103989
v 72.9262238 19.5751419 36.8336182
v 72.9262238 0.00399971008 36.8336182
v 72.9994431 0.00399971008 37.0103989
v 72.9262238 19.5751419 31.0311165
v 72.9994431 19.5751419 30.8543396
v 72.9994431 0.00399971008 30.8543396
v 72.9262238 0.00399971008 31.0311165
v 72.9262238 19.5751419 37.1871719
v 72.9262238 0.00399971008 37.1871719
v 72.9262238 0.00399971008 42.9861298
v 72.9262238 19.5751419 42.9861298
v 72.9262238 0.00399971008 31.0311165
v 72.9262238 0.00399971008 36.8336182
v 72.9262238 19.5751419 36.8336182
v 72.9262238 19.5751419 31.0311165
v 72.9262238 0.00399971008 6.42462873
v 72.9262238 0.00399971008 12.223587
v 72.9262238 19.5751419 12.223587
v 72.9262238 19.5751419 6.42462873
v 66.4722366 5.1251421 -0.0814438015
v 66.4722366 5.1251421 1.91855609
v 68.4726715 5.1251421 1.91855609
v 68.4726715 5.1251421 -0.0814438015
v 72.7494431 19.5751419 -0.154666245
v 72.57267 19.57514 -0.0814429522
v 72.57267 0.00399971008 -0.0814429149
v 72.7494431 0.00399971008 -0.154666245
v 72.9262238 19.5751419 -0.0814429373
v 72.7494431 19.5751419 -0.154666245
v 72.7494431 0.00399971008 -0.154666245
v 72.9262238 0.00399971008 -0.0814429298
v 55.3218918 0.00399971008 -0.0814429149
v 61.5179214 0.00399971008 -0.0814438015
v 55.3218918 19.5751419 -0.0814429224
v 61.5179214 19.57514 -0.0814429522
v 55.1451149 19.5751419 -0.154666245
v 54.9683418 19.5751419 -0.0814429373
v 54.9683418 0.00399971008 -0.0814429298
v 55.1451149 0.00399971008 -0.154666245
v 61.8714752 19.5751419 -0.0814429224
v 61.8714752 0.00399971008 -0.0814429149
v 62.0214767 0.00399971008 -0.0814438015
v 62.0214767 19.57514 -0.0814429522
v 65.8686829 19.57514 -0.0814429522
v 65.8686829 0.00399971008 -0.0814438015
v 66.0186844 19.57514 -0.0814429522
v 66.0186844 0.00399971008 -0.0814429149
v 61.8714752 19.5751419 -0.0814429224
v 61.6946983 19.5751419 -0.154666245
v 61.6946983 0.00399971008 -0.154666245
v 61.8714752 0.00399971008 -0.0814429149
v 66.4722366 0.00399971008 -0.0814438015
v 66.4722366 5.1251421 -0.0814438015
v 66.3722382 0.00399971008 -0.0814429298
v 66.3722382 19.57514 -0.0814429522
v 72.57267 19.57514 -0.0814429522
v 68.4726715 5.1251421 -0.0814438015
v 72.57267 0.00399971008 -0.0814429149
v 68.4726715 0.00399971008 -0.0814438015
v 55.3218918 19.5751419 -0.0814429224
v 55.1451149 19.5751419 -0.154666245
v 55.1451149 0.00399971008 -0.154666245
v 55.3218918 0.00399971008 -0.0814429149
v 68.4726715 0.00399971008 1.91855609
v 68.4726715 5.1251421 1.91855609
v 66.4722366 5.1251421 1.91855609
v 66.4722366 0.00399971008 1.91855609
v 68.4726715 5.1251421 -0.0814438015
v 68.4726715 5.1251421 1.91855609
v 68.4726715 0.00399971008 1.91855609
v 68.4726715 0.00399971008 -0.0814438015
v 66.4722366 0.00399971008 -0.0814438015
v 66.4722366 0.00399971008 1.91855609
v 66.4722366 5.1251421 1.91855609
v 66.4722366 5.1251421 -0.0814438015
v 66.1954651 19.5751419 -0.154666245
v 66.0186844 19.57514 -0.0814429522
v 66.0186844 0.00399971008 -0.0814429149
v 66.1954651 0.00399971008 -0.154666245
v 66.3722382 19.57514 -0.0814429522
v 66.1954651 19.5751419 -0.154666245
v 66.1954651 0.00399971008 -0.154666245
v 66.3722382 0.00399971008 -0.0814429298
v 61.5179214 19.57514 -0.0814429522
v 61.5179214 0.00399971008 -0.0814438015
v 61.6946983 0.00399971008 -0.154666245
v 61.6946983 19.5751419 -0.154666245
v 54.968338 19.1251431 31.0336189
v 54.968338 19.57514 31.0346527
v 54.968338 19.5751381 36.8336143
v 54.968338 19.1251431 36.833622
v 54.968338 0.00400066376 36.833622
v 54.968338 0.00400161743 31.0346642
v 54.968338 19.1251431 18.729641
v 54.968338 0.00400066376 18.729641
v 54.8951149 0.00399971008 18.5528641
v 54.8951149 19.1251392 18.5528641
v 54.968338 19.57514 18.7296333
v 54.8951149 19.5751419 18.5528641
v 54.968338 19.57514 6.42462301
v 54.8951149 19.1251392 6.24533463
v 54.8951149 19.5751419 6.24533463
v 54.968338 19.1251431 6.42462301
v 54.8951149 0.00399971008 6.24533463
v 54.968338 0.00400066376 6.42463017
v 54.8951149 19.5751419 6.24533463
v 54.968338 19.1251392 6.06855822
v 54.968338 19.57514 6.06751442
v 54.8951149 19.1251392 6.24533463
v 54.968338 0.00400066376 6.06751776
v 54.8951149 0.00399971008 6.24533463
v 54.968338 19.57514 12.5771227
v 54.8951149 19.1251392 12.4003525
v 54.8951149 19.5751419 12.4003525
v 54.968338 19.1251431 12.5771227
v 54.8951149 0.00399971008 12.4003525
v 54.968338 0.00399971008 12.5771294
v 54.8951149 19.5751419 12.4003525
v 54.968338 19.1251431 12.2235785
v 54.968338 19.57514 12.2235785
v 54.8951149 19.1251392 12.4003525
v 54.968338 0.00399971008 12.2235832
v 54.8951149 0.00399971008 12.4003525
v 54.8951149 19.1251392 30.8578873
v 54.8951149 0.00399971008 30.8578873
v 54.968338 0.00400161743 30.6811066
v 54.968338 19.125145 30.6811066
v 54.8951149 19.5751419 30.8578873
v 54.968338 19.57514 30.6811028
v 54.968338 19.125145 24.8811035
v 54.968338 0.00400066376 24.8821526
v 54.8951149 0.00399971008 24.7053757
v 54.8951149 19.1251392 24.7053757
v 54.968338 19.57514 24.8821449
v 54.8951149 19.5751419 24.7053757
v 54.8951149 19.5751419 18.5528641
v 54.968338 19.1251411 18.3760796
v 54.968338 19.57514 18.3760796
v 54.8951149 19.1251392 18.5528641
v 54.9683418 0.00399971008 18.3760872
v 54.8951149 0.00399971008 18.5528641
v 54.8951149 19.1251392 37.0104065
v 54.8951149 0.00399971008 37.0104065
v 54.968338 0.00400066376 36.833622
v 54.968338 19.1251431 36.833622
v 54.8951149 19.5751419 37.0104065
v 54.968338 19.5751381 36.8336143
v 54.968338 19.1251431 31.0336189
v 54.968338 0.00400161743 31.0346642
v 54.8951149 0.00399971008 30.8578873
v 54.8951149 19.1251392 30.8578873
v 54.968338 19.57514 31.0346527
v 54.8951149 19.5751419 30.8578873
v 54.8951149 19.5751419 24.7053757
v 54.968338 19.1251431 24.529644
v 54.968338 19.57514 24.5285912
v 54.8951149 19.1251392 24.7053757
v 54.9683418 0.00399971008 24.5285988
v 54.8951149 0.00399971008 24.7053757
v 54.8951111 19.1251411 0.112904258
v 54.9683342 0.00399971008 0.289680988
v 54.8951111 0.00399971008 0.112904258
v 54.9683342 19.1251411 0.289681405
v 54.9683342 19.57514 0.289681822
v 54.8951111 19.5751419 0.112904258
v 54.968338 19.125145 37.1871796
v 54.968338 0.00400066376 37.1871796
v 54.8951149 0.00399971008 37.0104065
v 54.8951149 19.1251392 37.0104065
v 54.968338 19.5751381 37.1871681
v 54.8951149 19.5751419 37.0104065
v 54.968338 19.125145 30.6811066
v 54.968338 0.00400161743 30.6811066
v 54.968338 0.00400066376 24.8821526
v 54.968338 19.125145 24.8811035
v 54.968338 19.57514 30.6811028
v 54.968338 19.57514 24.8821449
v 54.968338 0.00400066376 6.06751776
v 54.9683342 0.00399971008 0.289680988
v 54.9683342 19.1251411 0.289681405
v 54.968338 19.1251392 6.06855822
v 54.9683342 19.57514 0.289681822
v 54.968338 19.57514 6.06751442
v 54.968338 19.125145 43.3396835
v 54.968338 0.00399971008 43.3396835
v 54.8951111 0.00399971008 43.1629066
v 54.8951111 19.125145 43.1629066
v 54.968338 19.5751419 43.3396835
v 54.8951111 19.5751419 43.1629066
v 54.968338 19.1251431 6.42462301
v 54.968338 19.57514 6.42462301
v 54.968338 19.57514 12.2235785
v 54.968338 19.1251431 12.2235785
v 54.968338 0.00399971008 12.2235832
v 54.968338 0.00400066376 6.42463017
v 54.968338 19.1251411 18.3760796
v 54.9683418 0.00399971008 18.3760872
v 54.968338 0.00399971008 12.5771294
v 54.968338 19.1251431 12.5771227
v 54.968338 19.57514 12.5771227
v 54.968338 19.57514 18.3760796
v 54.968338 19.5751381 42.9861298
v 54.968338 19.125145 37.1871796
v 54.968338 19.5751381 37.1871681
v 54.968338 19.125145 42.9871826
v 54.968338 0.00400066376 37.1871796
v 54.968338 0.00400161743 42.9861298
v 54.968338 19.1251431 18.729641
v 54.968338 19.57514 18.7296333
v 54.968338 19.57514 24.5285912
v 54.968338 19.1251431 24.529644
v 54.9683418 0.00399971008 24.5285988
v 54.968338 0.00400066376 18.729641
v 54.8951111 19.5751419 0.112904258
v 54.968338 19.1251411 -0.0638724416
v 54.968338 19.5751419 -0.0638724416
v 54.8951111 19.1251411 0.112904258
v 54.8951111 0.00399971008 0.112904258
v 54.968338 0.00399971008 -0.0638724342
v 54.8951111 19.125145 43.1629066
v 54.8951111 0.00399971008 43.1629066
v 54.968338 0.00400161743 42.9861298
v 54.968338 19.125145 42.9871826
v 54.8951111 19.5751419 43.1629066
v 54.968338 19.5751381 42.9861298
vt 0.0151831843 0.514029026
vt 0.0152658559 0.650038719
vt 0.0170826651 0.648247957
vt 0.0169996358 0.515819252
vt 0.335209697 0.650042176
vt 0.335376769 0.514029026
vt 0.333476752 0.515819192
vt 0.333393008 0.648250043
vt 0.335376769 0.514029026
vt 0.0151831843 0.514029026
vt 0.0169996358 0.515819252
vt 0.333476752 0.515819192
vt 0.0152658559 0.650038719
vt 0.335209697 0.650042176
vt 0.333393008 0.648250043
vt 0.0170826651 0.648247957
vt 0.333476752 0.515819192
vt 0.0169996358 0.515819252
vt 0.0170826651 0.648247957
vt 0.333393008 0.648250043
vt 0.376887739 0.661397636
vt 0.376887739 0.819378018
vt 0.42690295 0.819378018
vt 0.426902831 0.661397636
vt 0.375460744 0.819378018
vt 0.375460774 0.661397636
vt 0.374033839 0.661397636
vt 0.374033839 0.819378018
vt 0.376887739 0.819378018
vt 0.376887739 0.661397636
vt 0.375460774 0.661397636
vt 0.375460744 0.819378018
vt 0.517564833 0.819378018
vt 0.517564833 0.661397636
vt 0.518991768 0.661397636
vt 0.518991768 0.819378018
vt 0.516134381 0.819377959
vt 0.516134501 0.661397576
vt 0.517564833 0.661397636
vt 0.517564833 0.819378018
vt 0.429756671 0.819378018
vt 0.463233411 0.819378018
vt 0.463233411 0.661397636
vt 0.429756582 0.661397457
vt 0.466087162 0.661397636
vt 0.466087162 0.819378018
vt 0.516134381 0.819377959
vt 0.516134501 0.661397576
vt 0.428329706 0.819378018
vt 0.428329676 0.661397636
vt 0.426902831 0.661397636
vt 0.42690295 0.819378018
vt 0.429756671 0.819378018
vt 0.429756582 0.661397457
vt 0.428329676 0.661397636
vt 0.428329706 0.819378018
vt 0.464660168 0.819378018
vt 0.464660048 0.661397457
vt 0.463233411 0.661397636
vt 0.463233411 0.819378018
vt 0.466087162 0.819378018
vt 0.466087162 0.661397636
vt 0.464660048 0.661397457
vt 0.464660168 0.819378018
vt 0.364454538 0.660820425
vt 0.364454538 0.818800807
vt 0.365881562 0.818800807
vt 0.365881562 0.660820425
vt 0.165807888 0.660820425
vt 0.119018406 0.660820425
vt 0.119018406 0.818800807
vt 0.165807888 0.818800807
vt 0.265126973 0.818800807
vt 0.266554028 0.818800807
vt 0.266554028 0.660820425
vt 0.265126973 0.660820425
vt 0.365881562 0.818800807
vt 0.367308438 0.818800807
vt 0.367308438 0.660820425
vt 0.365881562 0.660820425
vt 0.0182353146 0.818800807
vt 0.0182353146 0.660820425
vt 0.019662369 0.660820425
vt 0.019662369 0.818800807
vt 0.215451404 0.818800807
vt 0.216878429 0.818800807
vt 0.216878429 0.660820425
vt 0.215451404 0.660820425
vt 0.31621775 0.818800807
vt 0.317644686 0.818800807
vt 0.317644686 0.660820425
vt 0.31621775 0.660820425
vt 0.215451404 0.818800807
vt 0.215451404 0.660820425
vt 0.168661848 0.660820425
vt 0.168661848 0.818800807
vt 0.314790785 0.818800807
vt 0.31621775 0.818800807
vt 0.31621775 0.660820425
vt 0.314790785 0.660820425
vt 0.216878429 0.818800807
vt 0.218305364 0.818800807
vt 0.218305364 0.660820425
vt 0.216878429 0.660820425
vt 0.364454538 0.660820425
vt 0.317644686 0.660820425
vt 0.317644686 0.818800807
vt 0.364454538 0.818800807
vt 0.165807888 0.818800807
vt 0.167234927 0.818800807
vt 0.167234927 0.660820425
vt 0.165807888 0.660820425
vt 0.0664721578 0.818800807
vt 0.0678990632 0.818800807
vt 0.0678990632 0.660820425
vt 0.0664721578 0.660820425
vt 0.266554028 0.818800807
vt 0.267980874 0.818800807
vt 0.267980874 0.660820425
vt 0.266554028 0.660820425
vt 0.167234927 0.818800807
vt 0.168661848 0.818800807
vt 0.168661848 0.660820425
vt 0.167234927 0.660820425
vt 0.0168084092 0.818800807
vt 0.0168084092 0.660820425
vt 0.0182353146 0.660820425
vt 0.0182353146 0.818800807
vt 0.117591426 0.818800807
vt 0.119018406 0.818800807
vt 0.119018406 0.660820425
vt 0.117591426 0.660820425
vt 0.265126973 0.818800807
vt 0.265126973 0.660820425
vt 0.218305364 0.660820425
vt 0.218305364 0.818800807
vt 0.0678990632 0.818800807
vt 0.069326058 0.818800807
vt 0.069326058 0.660820425
vt 0.0678990632 0.660820425
vt 0.116164505 0.818800807
vt 0.117591426 0.818800807
vt 0.117591426 0.660820425
vt 0.116164505 0.660820425
vt 0.0664721578 0.818800807
vt 0.0664721578 0.660820425
vt 0.019662369 0.660820425
vt 0.019662369 0.818800807
vt 0.116164505 0.660820425
vt 0.069326058 0.660820425
vt 0.069326058 0.818800807
vt 0.116164505 0.818800807
vt 0.314790785 0.660820425
vt 0.267980874 0.660820425
vt 0.267980874 0.818800807
vt 0.314790785 0.818800807
vt 0.423911482 0.86614573
vt 0.423911482 0.86614573
vt 0.407763839 0.86614573
vt 0.407763839 0.86614573
vt 0.373241305 0.982787728
vt 0.374668121 0.982787728
vt 0.374668151 0.824807286
vt 0.373241276 0.824807286
vt 0.371814251 0.982787728
vt 0.373241305 0.982787728
vt 0.373241276 0.824807286
vt 0.371814251 0.824807286
vt 0.51391834 0.824807286
vt 0.463903368 0.824807346
vt 0.51391834 0.982787728
vt 0.463903308 0.982787728
vt 0.515345335 0.982787728
vt 0.51677233 0.982787728
vt 0.51677233 0.824807286
vt 0.515345335 0.824807346
vt 0.461049378 0.982787728
vt 0.461049378 0.824807286
vt 0.459838688 0.824807286
vt 0.459838688 0.982787728
vt 0.428783536 0.982787728
vt 0.428783536 0.824807346
vt 0.427572608 0.982787728
vt 0.427572668 0.824807346
vt 0.461049378 0.982787728
vt 0.462476373 0.982787728
vt 0.462476432 0.824807286
vt 0.461049378 0.824807286
vt 0.423911482 0.824807286
vt 0.423911512 0.86614573
vt 0.424718678 0.824807286
vt 0.424718678 0.982787728
vt 0.374668121 0.982787728
vt 0.407763839 0.86614573
vt 0.374668151 0.824807286
vt 0.407763839 0.824807286
vt 0.51391834 0.982787728
vt 0.515345335 0.982787728
vt 0.515345335 0.824807346
vt 0.51391834 0.824807286
vt 0.407763839 0.824807286
vt 0.407763839 0.86614573
vt 0.423911482 0.86614573
vt 0.423911482 0.824807286
vt 0.407763839 0.86614567
vt 0.407763839 0.86614573
vt 0.407763839 0.824807286
vt 0.407763839 0.824807286
vt 0.423911482 0.824807286
vt 0.423911482 0.824807286
vt 0.423911482 0.86614573
vt 0.423911482 0.86614573
vt 0.426145643 0.982787728
vt 0.427572608 0.982787728
vt 0.427572668 0.824807346
vt 0.426145643 0.824807286
vt 0.424718678 0.982787728
vt 0.426145643 0.982787728
vt 0.426145643 0.824807286
vt 0.424718678 0.824807286
vt 0.463903308 0.982787728
vt 0.463903368 0.824807346
vt 0.462476432 0.824807286
vt 0.462476373 0.982787728
vt 0.264686167 0.980143607
vt 0.264694482 0.983775973
vt 0.311504304 0.983775973
vt 0.311504394 0.980143607
vt 0.311504394 0.82579571
vt 0.264694542 0.82579571
vt 0.165367082 0.980143607
vt 0.165367082 0.82579571
vt 0.163940102 0.82579571
vt 0.163940102 0.980143607
vt 0.165366963 0.983775973
vt 0.163940102 0.983776093
vt 0.0660396069 0.983775973
vt 0.0645923764 0.980143607
vt 0.0645923764 0.983776093
vt 0.0660396069 0.980143607
vt 0.0645923764 0.82579571
vt 0.0660396665 0.82579571
vt 0.0645923764 0.983776093
vt 0.0631654114 0.980143607
vt 0.0631570071 0.983775973
vt 0.0645923764 0.980143607
vt 0.0631570071 0.82579571
vt 0.0645923764 0.82579571
vt 0.11570327 0.983775973
vt 0.114276409 0.980143607
vt 0.114276409 0.983776093
vt 0.11570327 0.980143607
vt 0.114276409 0.82579571
vt 0.115703329 0.82579571
vt 0.114276409 0.983776093
vt 0.112849429 0.980143607
vt 0.112849429 0.983775973
vt 0.114276409 0.980143607
vt 0.112849474 0.82579571
vt 0.114276409 0.82579571
vt 0.263267696 0.980143607
vt 0.263267696 0.82579571
vt 0.261840671 0.82579571
vt 0.261840671 0.980143607
vt 0.263267696 0.983776093
vt 0.261840612 0.983775973
vt 0.215022326 0.980143607
vt 0.215030834 0.82579571
vt 0.213603854 0.82579571
vt 0.213603854 0.980143607
vt 0.215030774 0.983775973
vt 0.213603854 0.983776093
vt 0.163940102 0.983776093
vt 0.162513062 0.980143607
vt 0.162513062 0.983775973
vt 0.163940102 0.980143607
vt 0.162513122 0.82579571
vt 0.163940102 0.82579571
vt 0.312931448 0.980143607
vt 0.312931448 0.82579571
vt 0.311504394 0.82579571
vt 0.311504394 0.980143607
vt 0.312931448 0.983776093
vt 0.311504304 0.983775973
vt 0.264686167 0.980143607
vt 0.264694542 0.82579571
vt 0.263267696 0.82579571
vt 0.263267696 0.980143607
vt 0.264694482 0.983775973
vt 0.263267696 0.983776093
vt 0.213603854 0.983776093
vt 0.212185323 0.980143607
vt 0.212176874 0.983775973
vt 0.213603854 0.980143607
vt 0.212176934 0.82579571
vt 0.213603854 0.82579571
vt 0.0150907524 0.980143607
vt 0.0165176876 0.82579571
vt 0.0150907524 0.82579571
vt 0.0165176876 0.980143607
vt 0.0165176876 0.983775973
vt 0.0150907524 0.983776093
vt 0.314358324 0.980143607
vt 0.314358324 0.82579571
vt 0.312931448 0.82579571
vt 0.312931448 0.980143607
vt 0.314358264 0.983775973
vt 0.312931448 0.983776093
vt 0.261840671 0.980143607
vt 0.261840671 0.82579571
vt 0.215030834 0.82579571
vt 0.215022326 0.980143607
vt 0.261840612 0.983775973
vt 0.215030774 0.983775973
vt 0.0631570071 0.82579571
vt 0.0165176876 0.82579571
vt 0.0165176876 0.980143607
vt 0.0631654114 0.980143607
vt 0.0165176876 0.983775973
vt 0.0631570071 0.983775973
vt 0.364022046 0.980143607
vt 0.364022046 0.82579571
vt 0.362595081 0.82579571
vt 0.362595081 0.980143607
vt 0.364022046 0.983776093
vt 0.362595081 0.983776093
vt 0.0660396069 0.980143607
vt 0.0660396069 0.983775973
vt 0.112849429 0.983775973
vt 0.112849429 0.980143607
vt 0.112849474 0.82579571
vt 0.0660396665 0.82579571
vt 0.162513062 0.980143607
vt 0.162513122 0.82579571
vt 0.115703329 0.82579571
vt 0.11570327 0.980143607
vt 0.11570327 0.983775973
vt 0.162513062 0.983775973
vt 0.361168116 0.983775973
vt 0.314358324 0.980143607
vt 0.314358264 0.983775973
vt 0.36117661 0.980143607
vt 0.314358324 0.82579571
vt 0.361168116 0.82579571
vt 0.165367082 0.980143607
vt 0.165366963 0.983775973
vt 0.212176874 0.983775973
vt 0.212185323 0.980143607
vt 0.212176934 0.82579571
vt 0.165367082 0.82579571
vt 0.0150907524 0.983776093
vt 0.0136637874 0.980143607
vt 0.0136637874 0.983776093
vt 0.0150907524 0.980143607
vt 0.0150907524 0.82579571
vt 0.0136637874 0.82579571
vt 0.362595081 0.980143607
vt 0.362595081 0.82579571
vt 0.361168116 0.82579571
vt 0.36117661 0.980143607
vt 0.362595081 0.983776093
vt 0.361168116 0.983775973
vn -0 0 -1
vn -0 0 -1
vn -0 0 -1
vn -0 0 -1
vn -0 0 1
vn -0 0 1
vn -0 0 1
vn -0 0 1
vn -1 0 0
vn -1 0 0
vn -1 0 0
vn -1 0 0
vn 1 0 0
vn 1 0 0
vn 1 0 0
vn 1 0 0
vn -0 1 0
vn -0 1 0
vn -0 1 0
vn -0 1 0
vn -0 0 1
vn -0 0 1
vn -0 0 1
vn -0 0 1
vn -0.382683069 0 0.923879743
vn -0.382683069 0 0.923879743
vn -0.382683069 0 0.923879743
vn -0.382683069 0 0.923879743
vn 0.382674515 0 0.9238832
vn 0.382674515 0 0.9238832
vn 0.382674515 0 0.9238832
vn 0.382674515 0 0.9238832
vn -0.382683069 0 -0.923879743
vn -0.382683069 0 -0.923879743
vn -0.382683069 0 -0.923879743
vn -0.382683069 0 -0.923879743
vn 0.38188082 0 -0.924211562
vn 0.38188082 0 -0.924211562
vn 0.38188082 0 -0.924211562
vn 0.38188082 0 -0.924211562
vn -0 0 1
vn -0 0 1
vn -0 0 1
vn -0 0 1
vn -0 0 1
vn -0 0 1
vn -0 0 1
vn -0 0 1
vn -0.382709175 0 0.923868954
vn -0.382709175 0 0.923868954
vn -0.382709175 0 0.923868954
vn -0.382709175 0 0.923868954
vn 0.382674515 0 0.9238832
vn 0.382674515 0 0.9238832
vn 0.382674515 0 0.9238832
vn 0.382674515 0 0.9238832
vn -0.382720619 0 0.923864067
vn -0.382720619 0 0.923864067
vn -0.382720619 0 0.923864067
vn -0.382720619 0 0.923864067
vn 0.382663012 0 0.923887968
vn 0.382663012 0 0.923887968
vn 0.382663012 0 0.923887968
vn 0.382663012 0 0.923887968
vn 0.923887074 0 0.382665157
vn 0.923887074 0 0.382665157
vn 0.923887074 0 0.382665157
vn 0.923887074 0 0.382665157
vn 1 0 0
vn 1 0 0
vn 1 0 0
vn 1 0 0
vn 0.923887253 0 0.3826648
vn 0.923887253 0 0.3826648
vn 0.923887253 0 0.3826648
vn 0.923887253 0 0.3826648
vn 0.923887134 0 -0.382665098
vn 0.923887134 0 -0.382665098
vn 0.923887134 0 -0.382665098
vn 0.923887134 0 -0.382665098
vn -0.923875749 0 0.382692605
vn -0.923875749 0 0.382692605
vn -0.923875749 0 0.382692605
vn -0.923875749 0 0.382692605
vn 0.923887253 0 0.3826648
vn 0.923887253 0 0.3826648
vn 0.923887253 0 0.3826648
vn 0.923887253 0 0.3826648
vn 0.923886836 0 -0.382665664
vn 0.923886836 0 -0.382665664
vn 0.923886836 0 -0.382665664
vn 0.923886836 0 -0.382665664
vn 1 0 0
vn 1 0 0
vn 1 0 0
vn 1 0 0
vn 0.923887253 0 0.3826648
vn 0.923887253 0 0.3826648
vn 0.923887253 0 0.3826648
vn 0.923887253 0 0.3826648
vn 0.923887253 0 -0.3826648
vn 0.923887253 0 -0.3826648
vn 0.923887253 0 -0.3826648
vn 0.923887253 0 -0.3826648
vn 1 0 0
vn 1 0 0
vn 1 0 0
vn 1 0 0
vn 0.923887253 0 0.3826648
vn 0.923887253 0 0.3826648
vn 0.923887253 0 0.3826648
vn 0.923887253 0 0.3826648
vn 0.923884273 0 0.382671833
vn 0.923884273 0 0.382671833
vn 0.923884273 0 0.382671833
vn 0.923884273 0 0.382671833
vn 0.923887253 0 -0.3826648
vn 0.923887253 0 -0.3826648
vn 0.923887253 0 -0.3826648
vn 0.923887253 0 -0.3826648
vn 0.923887253 0 -0.3826648
vn 0.923887253 0 -0.3826648
vn 0.923887253 0 -0.3826648
vn 0.923887253 0 -0.3826648
vn -0.923875749 0 -0.382692605
vn -0.923875749 0 -0.382692605
vn -0.923875749 0 -0.382692605
vn -0.923875749 0 -0.382692605
vn 0.923887253 0 -0.3826648
vn 0.923887253 0 -0.3826648
vn 0.923887253 0 -0.3826648
vn 0.923887253 0 -0.3826648
vn 1 0 0
vn 1 0 0
vn 1 0 0
vn 1 0 0
vn 0.923890233 0 -0.382657766
vn 0.923890233 0 -0.382657766
vn 0.923890233 0 -0.382657766
vn 0.923890233 0 -0.382657766
vn 0.923887253 0 0.3826648
vn 0.923887253 0 0.3826648
vn 0.923887253 0 0.3826648
vn 0.923887253 0 0.3826648
vn 1 0 0
vn 1 0 0
vn 1 0 0
vn 1 0 0
vn 1 0 0
vn 1 0 0
vn 1 0 0
vn 1 0 0
vn 1 0 0
vn 1 0 0
vn 1 0 0
vn 1 0 0
vn -0 -1 0
vn -0 -1 0
vn -0 -1 0
vn -0 -1 0
vn -0.382695466 0 -0.923874557
vn -0.382695466 0 -0.923874557
vn -0.382695466 0 -0.923874557
vn -0.382695466 0 -0.923874557
vn 0.382672399 0 -0.923884094
vn 0.382672399 0 -0.923884094
vn 0.382672399 0 -0.923884094
vn 0.382672399 0 -0.923884094
vn -0 0 -1
vn -0 0 -1
vn -0 0 -1
vn -0 0 -1
vn -0.382683933 0 -0.923879325
vn -0.382683933 0 -0.923879325
vn -0.382683933 0 -0.923879325
vn -0.382683933 0 -0.923879325
vn -0 0 -1
vn -0 0 -1
vn -0 0 -1
vn -0 0 -1
vn -0 0 -1
vn -0 0 -1
vn -0 0 -1
vn -0 0 -1
vn 0.382683992 0 -0.923879325
vn 0.382683992 0 -0.923879325
vn 0.382683992 0 -0.923879325
vn 0.382683992 0 -0.923879325
vn -0 0 -1
vn -0 0 -1
vn -0 0 -1
vn -0 0 -1
vn -0 0 -1
vn -0 0 -1
vn -0 0 -1
vn -0 0 -1
vn 0.382683992 0 -0.923879325
vn 0.382683992 0 -0.923879325
vn 0.382683992 0 -0.923879325
vn 0.382683992 0 -0.923879325
vn -0 0 -1
vn -0 0 -1
vn -0 0 -1
vn -0 0 -1
vn -1 0 0
vn -1 0 0
vn -1 0 0
vn -1 0 0
vn 1 0 0
vn 1 0 0
vn 1 0 0
vn 1 0 0
vn -0.382672399 0 -0.923884094
vn -0.382672399 0 -0.923884094
vn -0.382672399 0 -0.923884094
vn -0.382672399 0 -0.923884094
vn 0.382695436 0 -0.923874557
vn 0.382695436 0 -0.923874557
vn 0.382695436 0 -0.923874557
vn 0.382695436 0 -0.923874557
vn -0.382681936 0 -0.9238801
vn -0.382681936 0 -0.9238801
vn -0.382681936 0 -0.9238801
vn -0.382681936 0 -0.9238801
vn -1 0 0
vn -1 0 0
vn -1 0 0
vn -1 0 0
vn -1 0 0
vn -1 0 0
vn -0.923871398 0 0.382703036
vn -0.923871398 0 0.382703036
vn -0.923871398 0 0.382703036
vn -0.923871398 0 0.382703036
vn -0.923874199 0 0.382696122
vn -0.923874199 0 0.382696122
vn -0.925765276 0 0.378098935
vn -0.925765276 0 0.378098935
vn -0.925765276 0 0.378098935
vn -0.925765276 0 0.378098935
vn -0.925761998 0 0.378106743
vn -0.925761998 0 0.378106743
vn -0.924274266 -0.000442263234 -0.381728798
vn -0.924274266 -0.000442263234 -0.381728798
vn -0.924274266 -0.000442263234 -0.381728798
vn -0.924274266 -0.000442263234 -0.381728798
vn -0.924267769 1.03758703E-05 -0.381744921
vn -0.924267769 1.03758703E-05 -0.381744921
vn -0.923872173 0 0.382701039
vn -0.923872173 0 0.382701039
vn -0.923872173 0 0.382701039
vn -0.923872173 0 0.382701039
vn -0.923873901 0 0.382697046
vn -0.923873901 0 0.382697046
vn -0.923875451 0 -0.382693201
vn -0.923875451 0 -0.382693201
vn -0.923875451 0 -0.382693201
vn -0.923875451 0 -0.382693201
vn -0.923872471 0 -0.382700533
vn -0.923872471 0 -0.382700533
vn -0.923881054 0 -0.38267976
vn -0.923881054 0 -0.38267976
vn -0.923881054 0 -0.38267976
vn -0.923881054 0 -0.38267976
vn -0.923882067 0 -0.382677197
vn -0.923882067 0 -0.382677197
vn -0.923480213 1.05509471E-05 0.383646011
vn -0.923480213 1.05509471E-05 0.383646011
vn -0.923480213 1.05509471E-05 0.383646011
vn -0.923480213 1.05509471E-05 0.383646011
vn -0.923472106 -0.000444165169 0.383665323
vn -0.923472106 -0.000444165169 0.383665323
vn -0.923882663 0 -0.382675916
vn -0.923882663 0 -0.382675916
vn -0.923882663 0 -0.382675916
vn -0.923882663 0 -0.382675916
vn -0.923879445 0 -0.382683843
vn -0.923879445 0 -0.382683843
vn -0.923877299 0 -0.382688969
vn -0.923877299 0 -0.382688969
vn -0.923877299 0 -0.382688969
vn -0.923877299 0 -0.382688969
vn -0.923885643 0 -0.382668763
vn -0.923885643 0 -0.382668763
vn -0.923476577 1.04527971E-05 0.383654714
vn -0.923476577 1.04527971E-05 0.383654714
vn -0.923476577 1.04527971E-05 0.383654714
vn -0.923476577 1.04527971E-05 0.383654714
vn -0.92347157 -0.000438612857 0.383666605
vn -0.92347157 -0.000438612857 0.383666605
vn -0.923478901 -0.000448308245 -0.383648902
vn -0.923478901 -0.000448308245 -0.383648902
vn -0.923478901 -0.000448308245 -0.383648902
vn -0.923478901 -0.000448308245 -0.383648902
vn -0.923474908 1.03874481E-05 -0.383658767
vn -0.923474908 1.03874481E-05 -0.383658767
vn -0.923888266 0 0.382662266
vn -0.923888266 0 0.382662266
vn -0.923888266 0 0.382662266
vn -0.923888266 0 0.382662266
vn -0.92388469 0 0.382671028
vn -0.92388469 0 0.382671028
vn -0.923880219 0 0.382681608
vn -0.923880219 0 0.382681608
vn -0.923880219 0 0.382681608
vn -0.923880219 0 0.382681608
vn -0.923869967 0 0.382706612
vn -0.923869967 0 0.382706612
vn -1 0 0
vn -1 0 0
vn -1 0 0
vn -1 0 0
vn -1 0 0
vn -1 0 0
vn -1 0 0
vn -1 0 0
vn -1 0 0
vn -1 0 0
vn -1 0 0
vn -1 0 0
vn -0.923864663 0 0.382719308
vn -0.923864663 0 0.382719308
vn -0.923864663 0 0.382719308
vn -0.923864663 0 0.382719308
vn -0.923875272 0 0.382693857
vn -0.923875272 0 0.382693857
vn -1 0 0
vn -1 0 0
vn -1 0 0
vn -1 0 0
vn -1 0 0
vn -1 0 0
vn -1 0 0
vn -1 0 0
vn -1 0 0
vn -1 0 0
vn -1 0 0
vn -1 0 0
vn -1 0 0
vn -1 0 0
vn -1 0 0
vn -1 0 0
vn -1 0 0
vn -1 0 0
vn -1 0 0
vn -1 0 0
vn -1 0 0
vn -1 0 0
vn -1 0 0
vn -1 0 0
vn -0.923876464 0 -0.382690907
vn -0.923876464 0 -0.382690907
vn -0.923876464 0 -0.382690907
vn -0.923876464 0 -0.382690907
vn -0.923876345 0 -0.382691234
vn -0.923876345 0 -0.382691234
vn -0.923461795 1.05181834E-05 -0.383690238
vn -0.923461795 1.05181834E-05 -0.383690238
vn -0.923461795 1.05181834E-05 -0.383690238
vn -0.923461795 1.05181834E-05 -0.383690238
vn -0.92347002 -0.000446941529 -0.383670151
vn -0.92347002 -0.000446941529 -0.383670151
g building_skola_EZ1_LP_0
f 3/3/3 2/2/2 1/1/1
f 4/4/4 3/3/3 1/1/1
f 7/7/7 6/6/6 5/5/5
f 8/8/8 7/7/7 5/5/5
f 11/11/11 10/10/10 9/9/9
f 12/12/12 11/11/11 9/9/9
f 15/15/15 14/14/14 13/13/13
f 16/16/16 15/15/15 13/13/13
f 19/19/19 18/18/18 17/17/17
f 20/20/20 19/19/19 17/17/17
f 23/23/23 22/22/22 21/21/21
f 24/24/24 23/23/23 21/21/21
f 27/27/27 26/26/26 25/25/25
f 28/28/28 27/27/27 25/25/25
f 31/31/31 30/30/30 29/29/29
f 32/32/32 31/31/31 29/29/29
f 35/35/35 34/34/34 33/33/33
f 36/36/36 35/35/35 33/33/33
f 39/39/39 38/38/38 37/37/37
f 40/40/40 39/39/39 37/37/37
f 43/43/43 42/42/42 41/41/41
f 44/44/44 43/43/43 41/41/41
f 47/47/47 46/46/46 45/45/45
f 48/48/48 47/47/47 45/45/45
f 51/51/51 50/50/50 49/49/49
f 52/52/52 51/51/51 49/49/49
f 55/55/55 54/54/54 53/53/53
f 56/56/56 55/55/55 53/53/53
f 59/59/59 58/58/58 57/57/57
f 60/60/60 59/59/59 57/57/57
f 63/63/63 62/62/62 61/61/61
f 64/64/64 63/63/63 61/61/61
f 67/67/67 66/66/66 65/65/65
f 68/68/68 67/67/67 65/65/65
f 71/71/71 70/70/70 69/69/69
f 72/72/72 71/71/71 69/69/69
f 75/75/75 74/74/74 73/73/73
f 76/76/76 75/75/75 73/73/73
f 79/79/79 78/78/78 77/77/77
f 80/80/80 79/79/79 77/77/77
f 83/83/83 82/82/82 81/81/81
f 84/84/84 83/83/83 81/81/81
f 87/87/87 86/86/86 85/85/85
f 88/88/88 87/87/87 85/85/85
f 91/91/91 90/90/90 89/89/89
f 92/92/92 91/91/91 89/89/89
f 95/95/95 94/94/94 93/93/93
f 96/96/96 95/95/95 93/93/93
f 99/99/99 98/98/98 97/97/97
f 100/100/100 99/99/99 97/97/97
f 103/103/103 102/102/102 101/101/101
f 104/104/104 103/103/103 101/101/101
f 107/107/107 106/106/106 105/105/105
f 108/108/108 107/107/107 105/105/105
f 111/111/111 110/110/110 109/109/109
f 112/112/112 111/111/111 109/109/109
f 115/115/115 114/114/114 113/113/113
f 116/116/116 115/115/115 113/113/113
f 119/119/119 118/118/118 117/117/117
f 120/120/120 119/119/119 117/117/117
f 123/123/123 122/122/122 121/121/121
f 124/124/124 123/123/123 121/121/121
f 127/127/127 126/126/126 125/125/125
f 128/128/128 127/127/127 125/125/125
f 131/131/131 130/130/130 129/129/129
f 132/132/132 131/131/131 129/129/129
f 135/135/135 134/134/134 133/133/133
f 136/136/136 135/135/135 133/133/133
f 139/139/139 138/138/138 137/137/137
f 140/140/140 139/139/139 137/137/137
f 143/143/143 142/142/142 141/141/141
f 144/144/144 143/143/143 141/141/141
f 147/147/147 146/146/146 145/145/145
f 148/148/148 147/147/147 145/145/145
f 151/151/151 150/150/150 149/149/149
f 152/152/152 151/151/151 149/149/149
f 155/155/155 154/154/154 153/153/153
f 156/156/156 155/155/155 153/153/153
f 159/159/159 158/158/158 157/157/157
f 160/160/160 159/159/159 157/157/157
f 163/163/163 162/162/162 161/161/161
f 164/164/164 163/163/163 161/161/161
f 167/167/167 166/166/166 165/165/165
f 168/168/168 167/167/167 165/165/165
f 171/171/171 170/170/170 169/169/169
f 172/172/172 170/170/170 171/171/171
f 175/175/175 174/174/174 173/173/173
f 176/176/176 175/175/175 173/173/173
f 179/179/179 178/178/178 177/177/177
f 180/180/180 179/179/179 177/177/177
f 180/180/180 181/181/181 179/179/179
f 181/181/181 182/182/182 179/179/179
f 181/181/181 183/183/183 182/182/182
f 184/184/184 182/182/182 183/183/183
f 187/187/187 186/186/186 185/185/185
f 188/188/188 187/187/187 185/185/185
f 191/191/191 190/190/190 189/189/189
f 190/190/190 191/191/191 192/192/192
f 190/190/190 192/192/192 193/193/193
f 194/194/194 190/190/190 193/193/193
f 194/194/194 193/193/193 195/195/195
f 196/196/196 194/194/194 195/195/195
f 199/199/199 198/198/198 197/197/197
f 200/200/200 199/199/199 197/197/197
f 203/203/203 202/202/202 201/201/201
f 204/204/204 203/203/203 201/201/201
f 207/207/207 206/206/206 205/205/205
f 208/208/208 207/207/207 205/205/205
f 211/211/211 210/210/210 209/209/209
f 212/212/212 211/211/211 209/209/209
f 215/215/215 214/214/214 213/213/213
f 216/216/216 215/215/215 213/213/213
f 219/219/219 218/218/218 217/217/217
f 220/220/220 219/219/219 217/217/217
f 223/223/223 222/222/222 221/221/221
f 224/224/224 223/223/223 221/221/221
f 227/227/227 226/226/226 225/225/225
f 228/228/228 227/227/227 225/225/225
f 229/229/229 228/228/228 225/225/225
f 230/230/230 229/229/229 225/225/225
f 233/233/233 232/232/232 231/231/231
f 234/234/234 233/233/233 231/231/231
f 234/234/234 231/231/231 235/235/235
f 236/236/236 234/234/234 235/235/235
f 239/239/239 238/238/238 237/237/237
f 238/238/238 240/240/240 237/237/237
f 238/238/238 241/241/241 240/240/240
f 241/241/241 242/242/242 240/240/240
f 245/245/245 244/244/244 243/243/243
f 244/244/244 246/246/246 243/243/243
f 244/244/244 247/247/247 246/246/246
f 247/247/247 248/248/248 246/246/246
f 251/251/251 250/250/250 249/249/249
f 250/250/250 252/252/252 249/249/249
f 250/250/250 253/253/253 252/252/252
f 253/253/253 254/254/254 252/252/252
f 257/257/257 256/256/256 255/255/255
f 256/256/256 258/258/258 255/255/255
f 256/256/256 259/259/259 258/258/258
f 259/259/259 260/260/260 258/258/258
f 263/263/263 262/262/262 261/261/261
f 264/264/264 263/263/263 261/261/261
f 264/264/264 261/261/261 265/265/265
f 266/266/266 264/264/264 265/265/265
f 269/269/269 268/268/268 267/267/267
f 270/270/270 269/269/269 267/267/267
f 270/270/270 267/267/267 271/271/271
f 272/272/272 270/270/270 271/271/271
f 275/275/275 274/274/274 273/273/273
f 274/274/274 276/276/276 273/273/273
f 274/274/274 277/277/277 276/276/276
f 277/277/277 278/278/278 276/276/276
f 281/281/281 280/280/280 279/279/279
f 282/282/282 281/281/281 279/279/279
f 282/282/282 279/279/279 283/283/283
f 284/284/284 282/282/282 283/283/283
f 287/287/287 286/286/286 285/285/285
f 288/288/288 287/287/287 285/285/285
f 288/288/288 285/285/285 289/289/289
f 290/290/290 288/288/288 289/289/289
f 293/293/293 292/292/292 291/291/291
f 292/292/292 294/294/294 291/291/291
f 292/292/292 295/295/295 294/294/294
f 295/295/295 296/296/296 294/294/294
f 299/299/299 298/298/298 297/297/297
f 298/298/298 300/300/300 297/297/297
f 297/297/297 300/300/300 301/301/301
f 302/302/302 297/297/297 301/301/301
f 305/305/305 304/304/304 303/303/303
f 306/306/306 305/305/305 303/303/303
f 306/306/306 303/303/303 307/307/307
f 308/308/308 306/306/306 307/307/307
f 311/311/311 310/310/310 309/309/309
f 312/312/312 311/311/311 309/309/309
f 309/309/309 313/313/313 312/312/312
f 313/313/313 314/314/314 312/312/312
f 317/317/317 316/316/316 315/315/315
f 318/318/318 317/317/317 315/315/315
f 319/319/319 317/317/317 318/318/318
f 320/320/320 319/319/319 318/318/318
f 323/323/323 322/322/322 321/321/321
f 324/324/324 323/323/323 321/321/321
f 324/324/324 321/321/321 325/325/325
f 326/326/326 324/324/324 325/325/325
f 329/329/329 328/328/328 327/327/327
f 330/330/330 329/329/329 327/327/327
f 331/331/331 330/330/330 327/327/327
f 332/332/332 331/331/331 327/327/327
f 335/335/335 334/334/334 333/333/333
f 336/336/336 335/335/335 333/333/333
f 336/336/336 333/333/333 337/337/337
f 333/333/333 338/338/338 337/337/337
f 341/341/341 340/340/340 339/339/339
f 340/340/340 342/342/342 339/339/339
f 340/340/340 343/343/343 342/342/342
f 343/343/343 344/344/344 342/342/342
f 347/347/347 346/346/346 345/345/345
f 348/348/348 347/347/347 345/345/345
f 349/349/349 348/348/348 345/345/345
f 350/350/350 349/349/349 345/345/345
f 353/353/353 352/352/352 351/351/351
f 352/352/352 354/354/354 351/351/351
f 355/355/355 354/354/354 352/352/352
f 356/356/356 355/355/355 352/352/352
f 359/359/359 358/358/358 357/357/357
f 360/360/360 359/359/359 357/357/357
f 360/360/360 357/357/357 361/361/361
f 362/362/362 360/360/360 361/361/361
