g building_centroprojekt_LP
v 2.59316373 -1.14465272 -25.1229248
v 2.59316373 -1.30966663 -25.1229248
v 2.59316373 -1.06214571 -24.7478275
v 2.59316373 -1.30966663 -25.3729458
v 2.59316373 -1.30966663 -25.1229248
v 2.59316373 -1.14465272 -25.3729458
v -4.03589725 -0.814196408 -24.6227531
v -4.03589725 -0.731600225 -24.2480774
v -4.03589725 -1.06214571 -24.7478275
v -4.03589725 -0.979638755 -24.8729038
v -4.03589725 -1.14465272 -25.1229248
v -4.03589725 -0.979638755 -25.1229248
v -5.17711544 0.0108470833 -21.0715885
v -5.18031311 1.12454462 -21.0715885
v -5.18031311 0.0108472062 -23.4229374
v 2.59320569 0.0028145914 -22.8756962
v 2.59320569 2.97579408 -22.8756962
v 2.04318166 2.97579408 -22.8756962
v 2.04318166 0.0028145914 -22.8756962
v 2.04318166 0.0028145914 -22.1759529
v 2.04318166 2.97579408 -22.1759529
v 2.59320569 2.97579408 -22.1759529
v 2.59320569 0.0028145914 -22.1759529
v 2.59320569 0.0028145914 -22.1759529
v 2.59320569 2.97579408 -22.1759529
v 2.59320569 2.97579408 -22.8756962
v 2.59320569 0.0028145914 -22.8756962
v 2.04318166 0.0028145914 -22.8756962
v 2.04318166 2.97579408 -22.8756962
v 2.04318166 2.97579408 -22.1759529
v 2.04318166 0.0028145914 -22.1759529
v 2.90695977 2.97579408 -21.0715885
v 2.90695977 3.30536246 -21.0715885
v 2.90695977 3.30536246 -25.4350777
v 2.90695977 2.97579408 -25.4350777
v -4.34960938 2.97579408 -25.4350777
v 2.90695977 2.97579408 -25.4350777
v 2.90695977 3.30536246 -25.4350777
v -4.34960938 3.30536246 -25.4350777
v -4.03585529 0.0028145914 -22.8756962
v -3.4858315 0.0028145914 -22.8756962
v -3.4858315 2.97579408 -22.8756962
v -4.03585529 2.97579408 -22.8756962
v -3.4858315 0.0028145914 -22.1759529
v -4.03585529 0.0028145914 -22.1759529
v -4.03585529 2.97579408 -22.1759529
v -3.4858315 2.97579408 -22.1759529
v -4.03585529 0.0028145914 -22.1759529
v -4.03585529 0.0028145914 -22.8756962
v -4.03585529 2.97579408 -22.8756962
v -4.03585529 2.97579408 -22.1759529
v -3.4858315 0.0028145914 -22.8756962
v -3.4858315 0.0028145914 -22.1759529
v -3.4858315 2.97579408 -22.1759529
v -3.4858315 2.97579408 -22.8756962
v -4.34960938 2.97579408 -21.0715885
v -4.34960938 2.97579408 -25.4350777
v -4.34960938 3.30536246 -25.4350777
v -4.34960938 3.30536246 -21.0715885
v -4.03589725 0.0108472062 -23.4229393
v -4.03589725 0.0108472062 -23.6230602
v 2.59316373 0.0108472062 -23.6230602
v 2.59316373 0.0108472062 -23.4229393
v -4.03589725 0.0108472062 -23.6230602
v -4.03589725 -0.154166505 -23.6230602
v 2.59316373 -0.154166505 -23.6230602
v 2.59316373 0.0108472062 -23.6230602
v -4.03589725 -0.154166505 -23.6230602
v -4.03589725 -0.154166505 -23.8733521
v 2.59316373 -0.154166505 -23.8733521
v 2.59316373 -0.154166505 -23.6230602
v -4.03589725 -0.154166505 -23.8733521
v -4.03589725 -0.318862826 -23.8733521
v 2.59316373 -0.318862826 -23.8733521
v 2.59316373 -0.154166505 -23.8733521
v -4.03589725 -0.318862826 -23.8733521
v -4.03589725 -0.318862826 -24.1232414
v 2.59316373 -0.318862826 -24.1232414
v 2.59316373 -0.318862826 -23.8733521
v -4.03589725 -0.318862826 -24.1232414
v -4.03589725 -0.483933419 -24.1232414
v 2.59316373 -0.483933419 -24.1232414
v 2.59316373 -0.318862826 -24.1232414
v -4.03589725 -0.483933419 -24.1232414
v -4.03589725 -0.483933419 -24.3729134
v 2.59316373 -0.483933419 -24.3729134
v 2.59316373 -0.483933419 -24.1232414
v -4.03589725 -0.483933419 -24.3729134
v -4.03589725 -0.649004042 -24.3729134
v 2.59316373 -0.649004042 -24.3729134
v 2.59316373 -0.483933419 -24.3729134
v -4.03589725 -1.14465272 -25.3729458
v -4.03589725 -1.30966663 -25.3729458
v 2.59316373 -1.30966663 -25.3729458
v 2.59316373 -1.14465272 -25.3729458
v -4.03589725 -0.649004042 -24.3729134
v -4.03589725 -0.649004042 -24.6227531
v 2.59316373 -0.649004042 -24.6227531
v 2.59316373 -0.649004042 -24.3729134
v -4.03589725 -1.14465272 -25.1229248
v -4.03589725 -1.14465272 -25.3729458
v 2.59316373 -1.14465272 -25.3729458
v 2.59316373 -1.14465272 -25.1229248
v -4.03589725 -0.649004042 -24.6227531
v -4.03589725 -0.814196408 -24.6227531
v 2.59316373 -0.814196408 -24.6227531
v 2.59316373 -0.649004042 -24.6227531
v -4.03589725 -0.979638755 -25.1229248
v -4.03589725 -1.14465272 -25.1229248
v 2.59316373 -1.14465272 -25.1229248
v 2.59316373 -0.979638755 -25.1229248
v -4.03589725 -0.814196408 -24.6227531
v -4.03589725 -0.814196408 -24.8729038
v 2.59316373 -0.814196408 -24.8729038
v 2.59316373 -0.814196408 -24.6227531
v -4.03589725 -0.979638755 -24.8729038
v -4.03589725 -0.979638755 -25.1229248
v 2.59316373 -0.979638755 -25.1229248
v 2.59316373 -0.979638755 -24.8729038
v -4.03589725 -0.814196408 -24.8729038
v -4.03589725 -0.979638755 -24.8729038
v 2.59316373 -0.979638755 -24.8729038
v 2.59316373 -0.814196408 -24.8729038
v 2.59316373 0.0108472062 -23.6230602
v 2.59316373 -0.154166505 -23.4229393
v 2.59316373 0.0108472062 -23.4229393
v 2.59316373 -0.154166505 -23.6230602
v 2.59316373 -0.401398152 -23.7482052
v 2.59316373 -0.154166505 -23.8733521
v 2.59316373 -0.318862826 -23.8733521
v 2.59316373 -0.318862826 -24.1232414
v 2.59316373 -0.483933419 -24.1232414
v 2.59316373 -0.731600225 -24.2480774
v 2.59316373 -0.483933419 -24.3729134
v 2.59316373 -0.731600225 -24.2480774
v 2.59316373 -0.649004042 -24.3729134
v 2.59316373 -0.649004042 -24.6227531
v 2.59316373 -0.814196408 -24.6227531
v 2.59316373 -1.06214571 -24.7478275
v 2.59316373 -0.814196408 -24.6227531
v 2.59316373 -0.979638755 -25.1229248
v 2.59316373 -1.14465272 -25.1229248
v 2.59316373 -0.979638755 -24.8729038
v 2.59316373 -0.814196408 -24.8729038
v 2.59316373 -1.06214571 -24.7478275
v 2.59316373 -0.814196408 -24.6227531
v -4.03589725 0.0108472062 -23.4229393
v -4.03589725 -0.154166505 -23.6230602
v -4.03589725 0.0108472062 -23.6230602
v -4.03589725 -0.154166505 -23.4229393
v -4.03589725 -0.401398152 -23.7482052
v -4.03589725 -0.731600225 -24.2480774
v -4.03589725 -0.483933419 -24.1232414
v -4.03589725 -0.401398152 -23.7482052
v -4.03589725 -0.318862826 -23.8733521
v -4.03589725 -0.154166505 -23.8733521
v -4.03589725 -0.483933419 -24.1232414
v -4.03589725 -0.318862826 -24.1232414
v -4.03589725 -0.483933419 -24.1232414
v -4.03589725 -0.649004042 -24.3729134
v -4.03589725 -0.483933419 -24.3729134
v -4.03589725 -0.814196408 -24.6227531
v -4.03589725 -0.649004042 -24.6227531
v -4.03589725 -0.814196408 -24.6227531
v -4.03589725 -1.06214571 -24.7478275
v -4.03589725 -0.979638755 -24.8729038
v -4.03589725 -0.814196408 -24.8729038
v -4.03589725 -1.14465272 -25.1229248
v -4.03589725 -1.30966663 -25.3729458
v -4.03589725 -1.14465272 -25.3729458
v -4.03589725 -1.30966663 -25.1229248
v -4.03589725 -1.06214571 -24.7478275
v -4.34960938 3.30536246 -21.0715885
v -4.34960938 3.30536246 -25.4350777
v 2.90695977 3.30536246 -25.4350777
v 2.90695977 3.30536246 -21.0715885
v 18.4441051 22.8676643 -21.2863026
v -19.2465839 22.8676643 -21.2863026
v -19.2465839 22.534359 -21.2863026
v 18.4441051 22.534359 -21.2863026
v 18.4441051 22.8676624 12.5598698
v 18.4441051 22.5343571 12.5598698
v -19.2465839 22.5343571 12.5598698
v -19.2465839 22.8676624 12.5598698
v -19.2465839 22.8676643 -21.2863026
v -19.2465839 22.8676624 12.5598698
v -19.2465839 22.5343571 12.5598698
v -19.2465839 22.534359 -21.2863026
v 18.4441051 22.8676643 -21.2863026
v 18.4441051 22.534359 -21.2863026
v 18.4441051 22.5343571 12.5598698
v 18.4441051 22.8676624 12.5598698
v 18.4441051 22.8676643 -21.2863026
v 18.0328598 22.8676643 -20.9111328
v -18.8353386 22.8676643 -20.9111328
v -19.2465839 22.8676643 -21.2863026
v -18.8353386 22.8676624 12.1847
v -19.2465839 22.8676624 12.5598698
v -19.2465839 22.8676624 12.5598698
v -18.8353386 22.8676624 12.1847
v 18.0328598 22.8676624 12.1847
v 18.4441051 22.8676624 12.5598698
v 18.0328598 22.8676643 -20.9111328
v 18.4441051 22.8676643 -21.2863026
v -18.8353386 22.8676624 12.1847
v -18.8353386 22.5343571 12.1847
v 18.0328598 22.5343571 12.1847
v 18.0328598 22.8676624 12.1847
v 7.68595457 22.0396328 -10.677845
v -8.48143482 22.0396328 -10.677845
v -8.48143482 22.8677616 -10.6778412
v 7.68595457 22.8677616 -10.6778412
v 18.1195984 22.3866291 -16.6675434
v 18.1195984 23.5969887 -16.6675434
v 18.1195984 23.5969887 -18.1659184
v 18.1195984 22.3866291 -18.1659184
v 16.6212273 22.3866291 -18.1659184
v 16.6212273 23.5969887 -18.1659184
v 16.6212273 23.5969887 -16.6675434
v 16.6212273 22.3866291 -16.6675434
v 18.1195984 22.3866291 -18.1659184
v 18.1195984 23.5969887 -18.1659184
v 16.6212273 23.5969887 -18.1659184
v 16.6212273 22.3866291 -18.1659184
v 16.6212273 22.3866291 -16.6675434
v 16.6212273 23.5969887 -16.6675434
v 18.1195984 23.5969887 -16.6675434
v 18.1195984 22.3866291 -16.6675434
v 18.2062969 23.5969887 -18.2526169
v 18.2062969 23.785408 -18.2526169
v 16.5345287 23.785408 -18.2526169
v 16.5345287 23.5969887 -18.2526169
v 16.5345287 23.785408 -16.5808449
v 16.5345287 23.785408 -18.2526169
v 18.2062969 23.785408 -18.2526169
v 18.2062969 23.785408 -16.5808449
v 16.5345287 23.5969887 -16.5808449
v 16.5345287 23.785408 -16.5808449
v 18.2062969 23.785408 -16.5808449
v 18.2062969 23.5969887 -16.5808449
v 18.2062969 23.5969887 -16.5808449
v 18.2062969 23.785408 -16.5808449
v 18.2062969 23.785408 -18.2526169
v 18.2062969 23.5969887 -18.2526169
v 16.5345287 23.5969887 -18.2526169
v 16.5345287 23.785408 -18.2526169
v 16.5345287 23.785408 -16.5808449
v 16.5345287 23.5969887 -16.5808449
v 7.92788315 22.5311222 0.0167994499
v 7.92788315 22.8678398 0.0168032646
v 7.92788267 22.8678398 -10.9171124
v 7.92788267 22.5311222 -10.9171162
v -18.8353386 22.8676643 -20.9111328
v -18.8353386 22.534359 -20.9111328
v -18.8353386 22.5343571 12.1847
v -18.8353386 22.8676624 12.1847
v -8.72352695 22.8678398 0.0168032646
v 7.68595457 22.8677616 -0.274514437
v 7.92788315 22.8678398 0.0168032646
v -8.48143482 22.8677616 -0.274514437
v -8.72352791 22.8678398 -10.9171133
v -8.48143482 22.8677616 -10.6778412
v 7.92788267 22.8678398 -10.9171124
v 7.68595457 22.8677616 -10.6778412
v -8.48143482 22.8677616 -10.6778412
v -8.72352791 22.8678398 -10.9171133
v 7.92788267 22.5311222 -10.9171162
v 7.92788267 22.8678398 -10.9171124
v -8.72352791 22.8678398 -10.9171133
v -8.72352791 22.5311222 -10.9171171
v -8.48143482 22.0396328 -0.27451849
v 7.68595457 22.0396328 -0.27451849
v 7.68595457 22.8677616 -0.274514437
v -8.48143482 22.8677616 -0.274514437
v 7.92788315 22.8678398 0.0168032646
v 7.68595457 22.8677616 -0.274514437
v 7.68595457 22.8677616 -10.6778412
v 7.92788267 22.8678398 -10.9171124
v 18.0328598 22.8676643 -20.9111328
v 18.0328598 22.534359 -20.9111328
v -18.8353386 22.534359 -20.9111328
v -18.8353386 22.8676643 -20.9111328
v -8.48143482 22.8677616 -10.6778412
v -8.48143482 22.0396328 -10.677845
v -8.48143482 22.0396328 -0.27451849
v -8.48143482 22.8677616 -0.274514437
v 18.0328598 22.8676624 12.1847
v 18.0328598 22.5343571 12.1847
v 18.0328598 22.534359 -20.9111328
v 18.0328598 22.8676643 -20.9111328
v -8.72352695 22.5311222 0.0167994499
v -8.72352695 22.8678398 0.0168032646
v 7.92788315 22.8678398 0.0168032646
v 7.92788315 22.5311222 0.0167994499
v -8.72352791 22.5311222 -10.9171171
v -8.72352791 22.8678398 -10.9171133
v -8.72352695 22.8678398 0.0168032646
v -8.72352695 22.5311222 0.0167994499
v 7.68595457 22.0396328 -0.27451849
v 7.68595457 22.0396328 -10.677845
v 7.68595457 22.8677616 -10.6778412
v 7.68595457 22.8677616 -0.274514437
v 18.2572002 22.6218224 12.3920326
v 18.2572002 19.2345161 12.3920307
v -19.059679 19.2345161 12.3920307
v -19.059679 22.5746994 12.3920307
v 18.2743759 19.1733761 -21.1184216
v 18.2743778 22.6218204 -21.1184635
v -19.059679 22.6218204 -21.1184635
v -19.0596771 19.1733761 -21.1184216
v 18.2572002 19.2345161 12.3920307
v 18.2572002 22.6218224 12.3920326
v 18.2743778 22.6218204 -21.1184635
v 18.2743759 19.1733761 -21.1184216
v -19.0596771 19.1733761 -21.1184216
v -19.059679 22.6218204 -21.1184635
v -19.059679 22.6218224 12.3920307
v -19.0596771 19.173378 12.3920727
v 20.7198257 -0.319152504 -23.4229412
v 20.7198277 -0.319152057 19.4601688
v 20.7198257 18.7948418 19.4601688
v 20.7198238 18.7948437 -23.4229393
v 20.7198257 20.1642151 19.4601688
v 20.7198238 20.164217 -23.4229393
v 20.1198254 -1.30966699 -22.8229408
v 20.1198254 -0.319152981 -22.8229408
v -21.5608978 -0.319152981 -22.822937
v -21.5608978 -1.30966699 -22.822937
v 3.98859763 -0.319153041 -23.4229393
v 20.7198257 -0.319152504 -23.4229412
v 20.7198238 18.7948437 -23.4229393
v 3.74284506 3.49218726 -23.5729389
v 3.73830724 0.0108472314 -23.4229393
v 2.59316373 0.0108472062 -23.4229393
v 2.59316373 -0.319153041 -23.4229393
v -4.03589725 0.0108472062 -23.4229393
v -4.03589725 -0.319153041 -23.4229393
v -5.43007183 -0.319153041 -23.4229374
v -5.17711544 3.49217749 -23.572937
v -5.18031311 0.0108472062 -23.4229374
v -22.1608963 18.7948399 -23.4229355
v -22.1608963 -0.319152504 -23.4229355
v 20.7198238 20.164217 -23.4229393
v -22.1608963 20.1642132 -23.4229355
v 3.74284506 3.49218726 -23.5729389
v -5.17711544 3.49217749 -23.572937
v -5.17711544 3.49217772 -21.0715885
v 3.74303842 3.49217772 -21.0715904
v -5.17711544 3.49217749 -23.572937
v -5.18031311 0.0108472062 -23.4229374
v -5.18031311 1.12454462 -21.0715885
v -5.17711544 3.49217772 -21.0715885
v 3.73830724 0.0108472314 -23.4229393
v 3.74284506 3.49218726 -23.5729389
v 3.74303842 3.49217772 -21.0715904
v 3.73830724 0.0108472267 -21.0715904
v -4.03585529 0.0108470833 -21.0715885
v -5.17711544 0.0108470833 -21.0715885
v -5.18031311 0.0108472062 -23.4229374
v -4.03589725 0.0108472062 -23.4229393
v 2.59320569 0.0108472146 -21.0715904
v 2.59316373 0.0108472062 -23.4229393
v 3.73830724 0.0108472267 -21.0715904
v 3.73830724 0.0108472314 -23.4229393
v -21.5608921 -1.30966616 18.8601685
v -21.5608921 -0.319152057 18.8601685
v 20.1198273 -0.319152713 18.8601685
v 20.1198273 -1.30966723 18.8601685
v -21.5608921 -0.319152057 18.8601685
v -21.5608921 -1.30966616 18.8601685
v -21.5608978 -1.30966699 -22.822937
v -21.5608978 -0.319152981 -22.822937
v -22.1608963 18.7948399 -23.4229355
v -22.1608906 -0.319152385 19.4601688
v -22.1608963 -0.319152504 -23.4229355
v -22.1608906 18.7948437 19.4601688
v -22.1608906 20.164217 19.4601688
v -22.1608963 20.1642132 -23.4229355
v 20.7198257 18.7948418 19.4601688
v 20.7198277 -0.319152057 19.4601688
v -22.1608906 -0.319152385 19.4601688
v -22.1608906 18.7948437 19.4601688
v 20.7198257 20.1642151 19.4601688
v -22.1608906 20.164217 19.4601688
v 20.1198254 -0.319152981 -22.8229408
v 20.1198254 -1.30966699 -22.8229408
v 20.1198273 -1.30966723 18.8601685
v 20.1198273 -0.319152713 18.8601685
v 20.3218288 20.1642151 19.0621471
v 20.3218288 19.2345142 19.0621471
v 20.3218269 19.2345161 -23.0249195
v 20.3218269 20.164217 -23.0249195
v 1.05847073 20.164217 -23.4229374
v 1.0125277 20.164217 -23.0249195
v -21.7628994 20.1642132 -23.0249157
v -22.1608963 20.1642132 -23.4229355
v 20.7198238 20.164217 -23.4229393
v 20.3218269 20.164217 -23.0249195
v 1.0125277 20.164217 -23.0249195
v 1.05847073 20.164217 -23.4229374
v 20.3218269 20.164217 -23.0249195
v 20.3218269 19.2345161 -23.0249195
v 1.0125277 19.2345161 -23.0249195
v 1.0125277 20.164217 -23.0249195
v -21.7628994 19.2345123 -23.0249157
v -21.7628994 20.1642132 -23.0249157
v -21.7628937 19.2345161 19.0621471
v -19.059679 19.2345161 12.3920307
v 18.2572002 19.2345161 12.3920307
v 20.3218288 19.2345142 19.0621471
v 20.3218269 19.2345161 -23.0249195
v 20.3218288 19.2345142 19.0621471
v 18.2572002 19.2345181 -21.1184635
v -21.7628994 19.2345123 -23.0249157
v -19.059679 19.2345161 12.3920307
v -21.7628937 19.2345161 19.0621471
v -19.059679 19.2345181 -21.1184635
v -0.401239574 19.2345181 -21.1184635
v 1.0125277 19.2345161 -23.0249195
v 18.2572002 19.2345181 -21.1184635
v 20.3218269 19.2345161 -23.0249195
v -22.1608963 20.1642132 -23.4229355
v -21.7628994 20.1642132 -23.0249157
v -21.7628937 20.164217 19.0621471
v -22.1608906 20.164217 19.4601688
v -21.7628937 20.164217 19.0621471
v -21.7628937 19.2345161 19.0621471
v 20.3218288 19.2345142 19.0621471
v 20.3218288 20.1642151 19.0621471
v -22.1608906 20.164217 19.4601688
v -21.7628937 20.164217 19.0621471
v 20.3218288 20.1642151 19.0621471
v 20.7198257 20.1642151 19.4601688
v 7.84943295 22.3569336 -0.169324398
v -8.64454937 22.3569336 -0.169324398
v -8.64454937 21.7950745 -0.169324398
v 7.84943295 21.7950745 -0.169324398
v 8.0491457 21.7950745 0.0303883553
v 7.84943295 21.7950745 -0.169324398
v -8.64454937 21.7950745 -0.169324398
v -8.84462261 21.7950745 0.0303902626
v 7.84943295 17.8404541 -0.169324398
v 7.84947491 19.2271347 -0.169324398
v -8.64490986 19.2271347 -0.169322491
v -8.64454937 17.8404541 -0.169324398
v 7.84947491 19.2271347 -0.169324398
v 8.04918766 19.2271347 0.0303883553
v -8.84462261 19.2271347 0.0303902626
v -8.64490986 19.2271347 -0.169322491
v 8.04918766 19.2271347 0.0303883553
v 8.0491457 21.7950745 0.0303883553
v -8.84462261 21.7950745 0.0303902626
v -8.84462261 19.2271347 0.0303902626
v 7.84947491 -1.37079358 -0.169323444
v 7.84947491 -0.545969903 -0.169323444
v -8.64490986 -0.545969903 -0.169321537
v -8.64490986 -1.37079358 -0.169321537
v 7.84947491 -0.545969903 -0.169323444
v 8.04918766 -0.545969903 0.0303893089
v -8.84462261 -0.545969903 0.0303912163
v -8.64490986 -0.545969903 -0.169321537
v -8.64454937 17.8404541 -0.169324398
v 7.84943295 17.8404541 -0.169324398
v 8.0491457 17.8404541 0.0303883553
v -8.84462261 17.8404541 0.0303902626
v -8.84462261 17.8404541 0.0303902626
v 8.0491457 17.8404541 0.0303883553
v 8.04918766 15.2725134 0.0303888321
v -8.84462261 15.2725134 0.0303907394
v -8.84462261 15.2725134 0.0303907394
v 8.04918766 15.2725134 0.0303888321
v 7.84947491 15.2725134 -0.169323921
v -8.64490986 15.2725134 -0.169322014
v -8.64490986 15.2725134 -0.169322014
v 7.84947491 15.2725134 -0.169323921
v 7.84943295 13.8858309 -0.169323921
v -8.64454937 13.8858309 -0.169323921
v -8.64454937 13.8858309 -0.169323921
v 7.84943295 13.8858309 -0.169323921
v 8.0491457 13.8858309 0.0303888321
v -8.84462261 13.8858309 0.0303907394
v -8.84462261 13.8858309 0.0303907394
v 8.0491457 13.8858309 0.0303888321
v 8.04918766 11.3178921 0.0303888321
v -8.84462261 11.3178921 0.0303907394
v -8.84462261 11.3178921 0.0303907394
v 8.04918766 11.3178921 0.0303888321
v 7.84947491 11.3178921 -0.169323921
v -8.64490986 11.3178921 -0.169322014
v -8.64490986 11.3178921 -0.169322014
v 7.84947491 11.3178921 -0.169323921
v 7.84943295 9.93121052 -0.169323921
v -8.64454937 9.93121052 -0.169323921
v -8.64454937 9.93121052 -0.169323921
v 7.84943295 9.93121052 -0.169323921
v 8.0491457 9.93121052 0.0303888321
v -8.84462261 9.93121052 0.0303907394
v -8.84462261 9.93121052 0.0303907394
v 8.0491457 9.93121052 0.0303888321
v 8.04918766 7.36327171 0.0303888321
v -8.84462261 7.36327171 0.0303907394
v -8.84462261 7.36327171 0.0303907394
v 8.04918766 7.36327171 0.0303888321
v 7.84947491 7.36327171 -0.169323921
v -8.64490986 7.36327171 -0.169322014
v -8.64490986 7.36327171 -0.169322014
v 7.84947491 7.36327171 -0.169323921
v 7.84943295 5.97658968 -0.169323921
v -8.64454937 5.97658968 -0.169323921
v -8.64454937 5.97658968 -0.169323921
v 7.84943295 5.97658968 -0.169323921
v 8.0491457 5.97658968 0.0303888321
v -8.84462261 5.97658968 0.0303907394
v -8.84462261 5.97658968 0.0303907394
v 8.0491457 5.97658968 0.0303888321
v 8.04918766 3.40865111 0.0303893089
v -8.84462261 3.40865111 0.0303912163
v -8.84462261 3.40865111 0.0303912163
v 8.04918766 3.40865111 0.0303893089
v 7.84947491 3.40865111 -0.169323444
v -8.64490986 3.40865111 -0.169321537
v -8.64490986 3.40865111 -0.169321537
v 7.84947491 3.40865111 -0.169323444
v 7.84943295 2.02196908 -0.169323444
v -8.64454937 2.02196908 -0.169323444
v -8.64454937 2.02196908 -0.169323444
v 7.84943295 2.02196908 -0.169323444
v 8.0491457 2.02196908 0.0303893089
v -8.84462261 2.02196908 0.0303912163
v -8.84462261 2.02196908 0.0303912163
v 8.0491457 2.02196908 0.0303893089
v 8.04918766 -0.545969903 0.0303893089
v -8.84462261 -0.545969903 0.0303912163
v 8.0491457 2.02196908 0.0303893089
v 8.04914188 2.02196836 -10.9827538
v 8.04914188 -0.54597044 -10.9827557
v 8.04918766 -0.545969903 0.0303893089
v 7.84906864 22.3569336 -10.783041
v 7.84943295 22.3569336 -0.169324398
v 7.84943295 21.7950745 -0.169324398
v 7.84906864 21.7950745 -10.783041
v 7.84906864 21.7950745 -10.783041
v 7.84943295 21.7950745 -0.169324398
v 8.0491457 21.7950745 0.0303883553
v 8.04914188 21.7950745 -10.9827557
v 7.84947491 -0.545969903 -0.169323444
v 7.84942913 -0.54597044 -10.7830429
v 7.84942913 -1.37079418 -10.7830429
v 7.84947491 -1.37079358 -0.169323444
v 8.04918766 -0.545969903 0.0303893089
v 8.04914188 -0.54597044 -10.9827557
v 7.84942913 -0.54597044 -10.7830429
v 7.84947491 -0.545969903 -0.169323444
v 8.04918766 3.40865111 0.0303893089
v 8.04914188 3.40865064 -10.9827557
v 7.84942913 3.40865064 -10.7830429
v 7.84947491 3.40865111 -0.169323444
v 7.84943295 9.93121052 -0.169323921
v 7.84906864 9.93121052 -10.78304
v 8.04914188 9.93121052 -10.9827547
v 8.0491457 9.93121052 0.0303888321
v 7.84943295 2.02196908 -0.169323444
v 7.84906864 2.02196836 -10.7830391
v 8.04914188 2.02196836 -10.9827538
v 8.0491457 2.02196908 0.0303893089
v 7.84943295 13.8858309 -0.169323921
v 7.84906864 13.8858309 -10.78304
v 8.04914188 13.8858309 -10.9827547
v 8.0491457 13.8858309 0.0303888321
v 8.04918766 7.36327171 0.0303888321
v 8.04914188 7.36327124 -10.9827566
v 7.84942913 7.36327124 -10.7830439
v 7.84947491 7.36327171 -0.169323921
v 7.84947491 11.3178921 -0.169323921
v 7.84942913 11.3178921 -10.7830439
v 7.84906864 9.93121052 -10.78304
v 7.84943295 9.93121052 -0.169323921
v 8.0491457 5.97658968 0.0303888321
v 8.04914188 5.9765892 -10.9827547
v 8.04914188 3.40865064 -10.9827557
v 8.04918766 3.40865111 0.0303893089
v 7.84947491 3.40865111 -0.169323444
v 7.84942913 3.40865064 -10.7830429
v 7.84906864 2.02196836 -10.7830391
v 7.84943295 2.02196908 -0.169323444
v 7.84943295 5.97658968 -0.169323921
v 7.84906864 5.9765892 -10.78304
v 8.04914188 5.9765892 -10.9827547
v 8.0491457 5.97658968 0.0303888321
v 8.0491457 9.93121052 0.0303888321
v 8.04914188 9.93121052 -10.9827547
v 8.04914188 7.36327124 -10.9827566
v 8.04918766 7.36327171 0.0303888321
v 7.84947491 19.2271347 -0.169324398
v 7.84942913 19.2271347 -10.7830448
v 7.84906864 17.8404541 -10.783041
v 7.84943295 17.8404541 -0.169324398
v 7.84947491 7.36327171 -0.169323921
v 7.84942913 7.36327124 -10.7830439
v 7.84906864 5.9765892 -10.78304
v 7.84943295 5.97658968 -0.169323921
v 7.84947491 15.2725134 -0.169323921
v 7.84942913 15.2725134 -10.7830439
v 7.84906864 13.8858309 -10.78304
v 7.84943295 13.8858309 -0.169323921
v 8.0491457 17.8404541 0.0303883553
v 8.04914188 17.8404541 -10.9827557
v 8.04914188 15.2725134 -10.9827566
v 8.04918766 15.2725134 0.0303888321
v 7.84943295 17.8404541 -0.169324398
v 7.84906864 17.8404541 -10.783041
v 8.04914188 17.8404541 -10.9827557
v 8.0491457 17.8404541 0.0303883553
v 8.0491457 21.7950745 0.0303883553
v 8.04914188 21.7950745 -10.9827557
v 8.04914188 19.2271347 -10.9827576
v 8.04918766 19.2271347 0.0303883553
v 8.04918766 11.3178921 0.0303888321
v 8.04914188 11.3178921 -10.9827566
v 7.84942913 11.3178921 -10.7830439
v 7.84947491 11.3178921 -0.169323921
v 8.04918766 15.2725134 0.0303888321
v 8.04914188 15.2725134 -10.9827566
v 7.84942913 15.2725134 -10.7830439
v 7.84947491 15.2725134 -0.169323921
v 8.0491457 13.8858309 0.0303888321
v 8.04914188 13.8858309 -10.9827547
v 8.04914188 11.3178921 -10.9827566
v 8.04918766 11.3178921 0.0303888321
v 8.04918766 19.2271347 0.0303883553
v 8.04914188 19.2271347 -10.9827576
v 7.84942913 19.2271347 -10.7830448
v 7.84947491 19.2271347 -0.169324398
v 7.84906864 17.8404541 -10.783041
v -8.64494991 17.8404541 -10.783041
v -8.64495182 19.2271347 -10.7834015
v 7.84942913 19.2271347 -10.7830448
v -8.84462643 21.7950745 -10.9827538
v 8.04914188 21.7950745 -10.9827557
v 8.04914188 19.2271347 -10.9827576
v -8.84466839 19.2271347 -10.9827538
v -8.64495182 11.3178921 -10.7834015
v 7.84942913 11.3178921 -10.7830439
v 7.84906864 9.93121052 -10.78304
v -8.64494991 9.93121052 -10.78304
v -8.84462643 13.8858309 -10.9827528
v 8.04914188 13.8858309 -10.9827547
v 8.04914188 11.3178921 -10.9827566
v -8.84466839 11.3178921 -10.9827528
v -8.64491177 22.3569336 -10.783041
v 7.84906864 22.3569336 -10.783041
v 7.84906864 21.7950745 -10.783041
v -8.64494991 21.7950745 -10.783041
v -8.64494991 9.93121052 -10.78304
v 7.84906864 9.93121052 -10.78304
v 8.04914188 9.93121052 -10.9827547
v -8.84462643 9.93121052 -10.9827528
v -8.84466839 11.3178921 -10.9827528
v 8.04914188 11.3178921 -10.9827566
v 7.84942913 11.3178921 -10.7830439
v -8.64495182 11.3178921 -10.7834015
v -8.64494991 21.7950745 -10.783041
v 7.84906864 21.7950745 -10.783041
v 8.04914188 21.7950745 -10.9827557
v -8.84462643 21.7950745 -10.9827538
v -8.64494991 2.02196836 -10.7830391
v 7.84906864 2.02196836 -10.7830391
v 8.04914188 2.02196836 -10.9827538
v -8.84462643 2.02196836 -10.9827518
v -8.84466839 15.2725134 -10.9827528
v -8.84462643 17.8404541 -10.9827538
v 8.04914188 17.8404541 -10.9827557
v 8.04914188 15.2725134 -10.9827566
v -8.64495182 3.40865064 -10.7834005
v 7.84942913 3.40865064 -10.7830429
v 7.84906864 2.02196836 -10.7830391
v -8.64494991 2.02196836 -10.7830391
v -8.64494991 13.8858309 -10.78304
v -8.64495182 15.2725134 -10.7834015
v 7.84942913 15.2725134 -10.7830439
v 7.84906864 13.8858309 -10.78304
v -8.64494991 5.9765892 -10.78304
v 7.84906864 5.9765892 -10.78304
v 8.04914188 5.9765892 -10.9827547
v -8.84462643 5.9765892 -10.9827528
v -8.64495182 7.36327124 -10.7834015
v 7.84942913 7.36327124 -10.7830439
v 7.84906864 5.9765892 -10.78304
v -8.64494991 5.9765892 -10.78304
v -8.84462643 5.9765892 -10.9827528
v 8.04914188 5.9765892 -10.9827547
v 8.04914188 3.40865064 -10.9827557
v -8.84466839 3.40865064 -10.9827518
v -8.64495182 15.2725134 -10.7834015
v -8.84466839 15.2725134 -10.9827528
v 8.04914188 15.2725134 -10.9827566
v 7.84942913 15.2725134 -10.7830439
v -8.84462643 2.02196836 -10.9827518
v 8.04914188 2.02196836 -10.9827538
v 8.04914188 -0.54597044 -10.9827557
v -8.84466839 -0.54597044 -10.9827518
v -8.84466839 7.36327124 -10.9827528
v 8.04914188 7.36327124 -10.9827566
v 7.84942913 7.36327124 -10.7830439
v -8.64495182 7.36327124 -10.7834015
v -8.84466839 3.40865064 -10.9827518
v 8.04914188 3.40865064 -10.9827557
v 7.84942913 3.40865064 -10.7830429
v -8.64495182 3.40865064 -10.7834005
v -8.64495182 -0.54597044 -10.7834005
v 7.84942913 -0.54597044 -10.7830429
v 7.84942913 -1.37079418 -10.7830429
v -8.64495182 -1.37079418 -10.7834005
v -8.84462643 9.93121052 -10.9827528
v 8.04914188 9.93121052 -10.9827547
v 8.04914188 7.36327124 -10.9827566
v -8.84466839 7.36327124 -10.9827528
v -8.84466839 -0.54597044 -10.9827518
v 8.04914188 -0.54597044 -10.9827557
v 7.84942913 -0.54597044 -10.7830429
v -8.64495182 -0.54597044 -10.7834005
v -8.84462643 13.8858309 -10.9827528
v -8.64494991 13.8858309 -10.78304
v 7.84906864 13.8858309 -10.78304
v 8.04914188 13.8858309 -10.9827547
v -8.84462643 17.8404541 -10.9827538
v -8.64494991 17.8404541 -10.783041
v 7.84906864 17.8404541 -10.783041
v 8.04914188 17.8404541 -10.9827557
v 8.04914188 19.2271347 -10.9827576
v 7.84942913 19.2271347 -10.7830448
v -8.64495182 19.2271347 -10.7834015
v -8.84466839 19.2271347 -10.9827538
v -8.84462261 19.2271347 0.0303902626
v -8.84462261 21.7950745 0.0303902626
v -8.84462643 21.7950745 -10.9827538
v -8.84466839 19.2271347 -10.9827538
v -8.64454937 21.7950745 -0.169324398
v -8.64454937 22.3569336 -0.169324398
v -8.64491177 22.3569336 -10.783041
v -8.64494991 21.7950745 -10.783041
v -8.64490986 15.2725134 -0.169322014
v -8.84462261 15.2725134 0.0303907394
v -8.84466839 15.2725134 -10.9827528
v -8.64495182 15.2725134 -10.7834015
v -8.84462261 21.7950745 0.0303902626
v -8.64454937 21.7950745 -0.169324398
v -8.64494991 21.7950745 -10.783041
v -8.84462643 21.7950745 -10.9827538
v -8.64454937 17.8404541 -0.169324398
v -8.64490986 19.2271347 -0.169322491
v -8.64495182 19.2271347 -10.7834015
v -8.64494991 17.8404541 -10.783041
v -8.64490986 19.2271347 -0.169322491
v -8.84462261 19.2271347 0.0303902626
v -8.84466839 19.2271347 -10.9827538
v -8.64495182 19.2271347 -10.7834015
v -8.84462261 15.2725134 0.0303907394
v -8.84462261 17.8404541 0.0303902626
v -8.84462643 17.8404541 -10.9827538
v -8.84466839 15.2725134 -10.9827528
v -8.84462261 17.8404541 0.0303902626
v -8.64454937 17.8404541 -0.169324398
v -8.64494991 17.8404541 -10.783041
v -8.84462643 17.8404541 -10.9827538
v -8.64490986 -1.37079358 -0.169321537
v -8.64495182 -1.37079418 -10.7834005
v -8.64495182 -0.54597044 -10.7834005
v -8.64490986 -0.545969903 -0.169321537
v -8.64490986 -0.545969903 -0.169321537
v -8.64495182 -0.54597044 -10.7834005
v -8.84466839 -0.54597044 -10.9827518
v -8.84462261 -0.545969903 0.0303912163
v -8.84462261 -0.545969903 0.0303912163
v -8.84466839 -0.54597044 -10.9827518
v -8.84462643 2.02196836 -10.9827518
v -8.84462261 2.02196908 0.0303912163
v -8.84462261 2.02196908 0.0303912163
v -8.84462643 2.02196836 -10.9827518
v -8.64494991 2.02196836 -10.7830391
v -8.64454937 2.02196908 -0.169323444
v -8.64454937 2.02196908 -0.169323444
v -8.64494991 2.02196836 -10.7830391
v -8.64495182 3.40865064 -10.7834005
v -8.64490986 3.40865111 -0.169321537
v -8.64490986 3.40865111 -0.169321537
v -8.64495182 3.40865064 -10.7834005
v -8.84466839 3.40865064 -10.9827518
v -8.84462261 3.40865111 0.0303912163
v -8.84462261 3.40865111 0.0303912163
v -8.84466839 3.40865064 -10.9827518
v -8.84462643 5.9765892 -10.9827528
v -8.84462261 5.97658968 0.0303907394
v -8.84462261 5.97658968 0.0303907394
v -8.84462643 5.9765892 -10.9827528
v -8.64494991 5.9765892 -10.78304
v -8.64454937 5.97658968 -0.169323921
v -8.64454937 5.97658968 -0.169323921
v -8.64494991 5.9765892 -10.78304
v -8.64495182 7.36327124 -10.7834015
v -8.64490986 7.36327171 -0.169322014
v -8.64490986 7.36327171 -0.169322014
v -8.64495182 7.36327124 -10.7834015
v -8.84466839 7.36327124 -10.9827528
v -8.84462261 7.36327171 0.0303907394
v -8.84462261 7.36327171 0.0303907394
v -8.84466839 7.36327124 -10.9827528
v -8.84462643 9.93121052 -10.9827528
v -8.84462261 9.93121052 0.0303907394
v -8.84462261 9.93121052 0.0303907394
v -8.84462643 9.93121052 -10.9827528
v -8.64494991 9.93121052 -10.78304
v -8.64454937 9.93121052 -0.169323921
v -8.64454937 9.93121052 -0.169323921
v -8.64494991 9.93121052 -10.78304
v -8.64495182 11.3178921 -10.7834015
v -8.64490986 11.3178921 -0.169322014
v -8.64490986 11.3178921 -0.169322014
v -8.64495182 11.3178921 -10.7834015
v -8.84466839 11.3178921 -10.9827528
v -8.84462261 11.3178921 0.0303907394
v -8.84462261 11.3178921 0.0303907394
v -8.84466839 11.3178921 -10.9827528
v -8.84462643 13.8858309 -10.9827528
v -8.84462261 13.8858309 0.0303907394
v -8.84462261 13.8858309 0.0303907394
v -8.84462643 13.8858309 -10.9827528
v -8.64494991 13.8858309 -10.78304
v -8.64454937 13.8858309 -0.169323921
v -8.64454937 13.8858309 -0.169323921
v -8.64494991 13.8858309 -10.78304
v -8.64495182 15.2725134 -10.7834015
v -8.64490986 15.2725134 -0.169322014
v 3.81177974 -0.142116815 -21.0715942
v 3.81163192 3.53112602 -21.0715904
v -5.25301933 3.53112602 -21.0715904
v -5.25316715 -0.142116815 -21.0715942
v 20.7198257 20.1642151 19.4601688
v 20.3218288 20.1642151 19.0621471
v 20.3218269 20.164217 -23.0249195
v 20.7198238 20.164217 -23.4229393
v -21.7628994 20.1642132 -23.0249157
v -21.7628994 19.2345123 -23.0249157
v -21.7628937 19.2345161 19.0621471
v -21.7628937 20.164217 19.0621471
v -18.8353386 22.5343571 12.1847
v 7.92788315 22.5311222 0.0167994499
v 18.0328598 22.5343571 12.1847
v -8.72352695 22.5311222 0.0167994499
v 7.92788267 22.5311222 -10.9171162
v -18.8353386 22.534359 -20.9111328
v 18.0328598 22.534359 -20.9111328
v -8.72352791 22.5311222 -10.9171171
vt 0.392963082 0.393565953
vt 0.393568367 0.393724084
vt 0.393363982 0.391955703
vt 0.393470496 0.394662648
vt 0.393568367 0.393724084
vt 0.392907292 0.394603997
vt 0.365928024 0.390874892
vt 0.365624934 0.389210165
vt 0.365197569 0.391752869
vt 0.36568433 0.392170668
vt 0.365376294 0.393479556
vt 0.365701199 0.393106729
vt 0.095906958 0.276243657
vt 0.0992652178 0.276233077
vt 0.095906958 0.276233077
vt 0.372723311 0.422449559
vt 0.38315925 0.422449559
vt 0.38315925 0.420325667
vt 0.372723311 0.420325667
vt 0.372723311 0.417623848
vt 0.38315925 0.417623848
vt 0.38315925 0.415499985
vt 0.372723311 0.415499985
vt 0.372723311 0.425151467
vt 0.38315925 0.425151467
vt 0.38315925 0.422449559
vt 0.372723311 0.422449559
vt 0.372723311 0.420325667
vt 0.38315925 0.420325667
vt 0.38315925 0.417623848
vt 0.372723311 0.417623848
vt 0.365774959 0.413783073
vt 0.366933137 0.413838267
vt 0.367172897 0.398599595
vt 0.366651833 0.398064971
vt 0.393003643 0.398204207
vt 0.366651833 0.398064971
vt 0.367172897 0.398599595
vt 0.392476887 0.398733348
vt 0.384318292 0.418201983
vt 0.384318292 0.420325726
vt 0.39475432 0.420325667
vt 0.39475432 0.418201983
vt 0.384318292 0.423027605
vt 0.384318292 0.425151467
vt 0.39475432 0.425151467
vt 0.39475432 0.423027605
vt 0.384318292 0.415499985
vt 0.384318292 0.418201983
vt 0.39475432 0.418201983
vt 0.39475432 0.415499985
vt 0.384318292 0.420325726
vt 0.384318292 0.423027605
vt 0.39475432 0.423027605
vt 0.39475432 0.420325667
vt 0.39371407 0.413930833
vt 0.393003643 0.398204207
vt 0.392476887 0.398733348
vt 0.392555356 0.413973749
vt 0.366660506 0.384767383
vt 0.36678344 0.385422707
vt 0.392765731 0.385428995
vt 0.392995119 0.384768277
vt 0.36678344 0.385422707
vt 0.366572142 0.385821074
vt 0.392905533 0.385880947
vt 0.392765731 0.385428995
vt 0.366572142 0.385821074
vt 0.366695732 0.386691481
vt 0.392664909 0.386749625
vt 0.392905533 0.385880947
vt 0.366695732 0.386691481
vt 0.36646384 0.387070745
vt 0.392822951 0.387172848
vt 0.392664909 0.386749625
vt 0.36646384 0.387070745
vt 0.366562754 0.387949437
vt 0.392609447 0.388039798
vt 0.392822951 0.387172848
vt 0.366562754 0.387949437
vt 0.366311073 0.388326406
vt 0.39278549 0.388453156
vt 0.392609447 0.388039798
vt 0.366311073 0.388326406
vt 0.366398424 0.389214277
vt 0.392585099 0.389321774
vt 0.39278549 0.388453156
vt 0.366398424 0.389214277
vt 0.366135895 0.389591932
vt 0.39277038 0.389730692
vt 0.392585099 0.389321774
vt 0.365305811 0.394561201
vt 0.365183741 0.395231366
vt 0.392907292 0.395231366
vt 0.392907292 0.394603997
vt 0.366135895 0.389591932
vt 0.366206884 0.39049542
vt 0.392589092 0.390603781
vt 0.39277038 0.389730692
vt 0.365376294 0.393479556
vt 0.365305811 0.394561201
vt 0.392907292 0.394603997
vt 0.392963082 0.393565953
vt 0.366206884 0.39049542
vt 0.365928024 0.390874892
vt 0.392787844 0.391006619
vt 0.392589092 0.390603781
vt 0.365701199 0.393106729
vt 0.365376294 0.393479556
vt 0.392963082 0.393565953
vt 0.392720193 0.393179536
vt 0.365928024 0.390874892
vt 0.365980268 0.391792059
vt 0.392627358 0.391888142
vt 0.392787844 0.391006619
vt 0.36568433 0.392170668
vt 0.365701199 0.393106729
vt 0.392720193 0.393179536
vt 0.392842382 0.392285764
vt 0.365980268 0.391792059
vt 0.36568433 0.392170668
vt 0.392842382 0.392285764
vt 0.392627358 0.391888142
vt 0.392765731 0.385428995
vt 0.39347288 0.385197103
vt 0.392995119 0.384768277
vt 0.392905533 0.385880947
vt 0.393392652 0.386903793
vt 0.392664909 0.386749625
vt 0.392822951 0.387172848
vt 0.392609447 0.388039798
vt 0.39278549 0.388453156
vt 0.393328816 0.389435023
vt 0.392585099 0.389321774
vt 0.393328816 0.389435023
vt 0.39277038 0.389730692
vt 0.392589092 0.390603781
vt 0.392787844 0.391006619
vt 0.393363982 0.391955703
vt 0.392787844 0.391006619
vt 0.392720193 0.393179536
vt 0.392963082 0.393565953
vt 0.392842382 0.392285764
vt 0.392627358 0.391888142
vt 0.393363982 0.391955703
vt 0.392787844 0.391006619
vt 0.366660506 0.384767383
vt 0.366572142 0.385821074
vt 0.36678344 0.385422707
vt 0.366143763 0.385090739
vt 0.365953475 0.38672328
vt 0.365624934 0.389210165
vt 0.366311073 0.388326406
vt 0.365953475 0.38672328
vt 0.36646384 0.387070745
vt 0.366695732 0.386691481
vt 0.366311073 0.388326406
vt 0.366562754 0.387949437
vt 0.366311073 0.388326406
vt 0.366135895 0.389591932
vt 0.366398424 0.389214277
vt 0.365928024 0.390874892
vt 0.366206884 0.39049542
vt 0.365928024 0.390874892
vt 0.365197569 0.391752869
vt 0.36568433 0.392170668
vt 0.365980268 0.391792059
vt 0.365376294 0.393479556
vt 0.364711553 0.394552082
vt 0.365305811 0.394561201
vt 0.364726722 0.393561631
vt 0.365197569 0.391752869
vt 0.392555356 0.413973749
vt 0.392476887 0.398733348
vt 0.367172897 0.398599595
vt 0.366933137 0.413838267
vt 0.441024363 0.336628318
vt 0.440987349 0.48234269
vt 0.441576481 0.482929051
vt 0.441683859 0.335955888
vt 0.310144156 0.337371826
vt 0.309555054 0.336785406
vt 0.309555054 0.483680576
vt 0.310214579 0.483008116
vt 0.440987349 0.48234269
vt 0.310214579 0.483008116
vt 0.309555054 0.483680576
vt 0.441576481 0.482929051
vt 0.441024363 0.336628318
vt 0.441683859 0.335955888
vt 0.309555054 0.336785406
vt 0.310144156 0.337371826
vt 0.441024363 0.336628318
vt 0.439504951 0.338304967
vt 0.439538002 0.480760783
vt 0.440987349 0.48234269
vt 0.311732918 0.481332451
vt 0.310214579 0.483008116
vt 0.310214579 0.483008116
vt 0.311732918 0.481332451
vt 0.311594754 0.338952929
vt 0.310144156 0.337371826
vt 0.439504951 0.338304967
vt 0.441024363 0.336628318
vt 0.311732918 0.481332451
vt 0.312383413 0.480669469
vt 0.312174082 0.339529634
vt 0.311594754 0.338952929
vt 0.397498727 0.380818814
vt 0.397487313 0.43858707
vt 0.398917407 0.439943194
vt 0.398912817 0.379462063
vt 0.364042401 0.42875284
vt 0.366399854 0.42875284
vt 0.366399854 0.425542712
vt 0.364042401 0.425542712
vt 0.364042401 0.422332615
vt 0.366399854 0.422332615
vt 0.366399854 0.419122458
vt 0.364042401 0.419122458
vt 0.364042401 0.425542712
vt 0.366399854 0.425542712
vt 0.366399854 0.422332615
vt 0.364042401 0.422332615
vt 0.364042401 0.419122458
vt 0.366399854 0.419122458
vt 0.366399854 0.41591236
vt 0.364042401 0.41591236
vt 0.396248549 0.436624527
vt 0.396012634 0.436396003
vt 0.392190903 0.436421812
vt 0.391994804 0.436624527
vt 0.392093688 0.432601452
vt 0.392190903 0.436421812
vt 0.396012634 0.436396003
vt 0.39591524 0.432575613
vt 0.391857743 0.432372898
vt 0.392093688 0.432601452
vt 0.39591524 0.432575613
vt 0.396111488 0.432372898
vt 0.396111488 0.432372898
vt 0.39591524 0.432575613
vt 0.396012634 0.436396003
vt 0.396248549 0.436624527
vt 0.391994804 0.436624527
vt 0.392190903 0.436421812
vt 0.392093688 0.432601452
vt 0.391857743 0.432372898
vt 0.358900696 0.37808609
vt 0.359579891 0.378722608
vt 0.399891883 0.378499091
vt 0.400565028 0.377860308
vt 0.439538002 0.480760783
vt 0.438958734 0.480184197
vt 0.312383413 0.480669469
vt 0.311732918 0.481332451
vt 0.359598517 0.441134274
vt 0.360757291 0.379678607
vt 0.359579891 0.378722608
vt 0.360770494 0.440170139
vt 0.39990133 0.440900207
vt 0.398917407 0.439943194
vt 0.399891883 0.378499091
vt 0.398912817 0.379462063
vt 0.398917407 0.439943194
vt 0.39990133 0.440900207
vt 0.400565028 0.377860308
vt 0.399891883 0.378499091
vt 0.39990133 0.440900207
vt 0.400580645 0.441537172
vt 0.362184584 0.438813329
vt 0.362187386 0.38103494
vt 0.360757291 0.379678607
vt 0.360770494 0.440170139
vt 0.359579891 0.378722608
vt 0.360757291 0.379678607
vt 0.398912817 0.379462063
vt 0.399891883 0.378499091
vt 0.439504951 0.338304967
vt 0.438854635 0.338967949
vt 0.438958734 0.480184197
vt 0.439538002 0.480760783
vt 0.398917407 0.439943194
vt 0.397487313 0.43858707
vt 0.362184584 0.438813329
vt 0.360770494 0.440170139
vt 0.311594754 0.338952929
vt 0.312174082 0.339529634
vt 0.438854635 0.338967949
vt 0.439504951 0.338304967
vt 0.358925521 0.44177261
vt 0.359598517 0.441134274
vt 0.359579891 0.378722608
vt 0.358900696 0.37808609
vt 0.400580645 0.441537172
vt 0.39990133 0.440900207
vt 0.359598517 0.441134274
vt 0.358925521 0.44177261
vt 0.362187386 0.38103494
vt 0.397498727 0.380818814
vt 0.398912817 0.379462063
vt 0.360757291 0.379678607
vt 0.240977094 0.267364979
vt 0.230762899 0.267364979
vt 0.230762899 0.391144127
vt 0.240834981 0.391144127
vt 0.244612634 0.390995294
vt 0.255011201 0.390995294
vt 0.255011201 0.267159075
vt 0.244612634 0.267159134
vt 0.243660331 0.506582558
vt 0.254058838 0.506582439
vt 0.254058838 0.395428956
vt 0.243660331 0.395429134
vt 0.229890674 0.506477952
vt 0.240289241 0.506478071
vt 0.240289181 0.395324588
vt 0.229890674 0.395324409
vt 0.0955810994 0.365625769
vt 0.0955810994 0.50737071
vt 0.153215721 0.507370651
vt 0.153218046 0.365128547
vt 0.157347292 0.50737071
vt 0.157347292 0.365128547
vt 0.0904318243 0.359289855
vt 0.0934186727 0.359289855
vt 0.0934186727 0.221035898
vt 0.0904318243 0.221035898
vt 0.0949118286 0.306646168
vt 0.0949118286 0.362143159
vt 0.152548686 0.362143159
vt 0.106404692 0.305830836
vt 0.095906958 0.305815935
vt 0.095906958 0.30201751
vt 0.0949118286 0.30201751
vt 0.095906958 0.280029118
vt 0.0949118286 0.280029118
vt 0.0949118286 0.275404632
vt 0.106404647 0.276243657
vt 0.095906958 0.276233077
vt 0.152548701 0.219908938
vt 0.0949118286 0.219908953
vt 0.156678066 0.362143189
vt 0.156677961 0.219908953
vt 0.106404647 0.305831641
vt 0.106404647 0.276243657
vt 0.106404647 0.276243657
vt 0.106404647 0.305831641
vt 0.106404647 0.276243657
vt 0.095906958 0.276233077
vt 0.0992652178 0.276233077
vt 0.106404647 0.276243657
vt 0.095906958 0.305815935
vt 0.106404647 0.305831641
vt 0.106404647 0.305831641
vt 0.095906958 0.305815935
vt 0.095906958 0.280029237
vt 0.095906958 0.276243657
vt 0.095906958 0.276233077
vt 0.095906958 0.280029118
vt 0.095906958 0.302017629
vt 0.095906958 0.30201751
vt 0.095906958 0.305815935
vt 0.095906958 0.305815935
vt 0.159932494 0.360066622
vt 0.162919313 0.360066622
vt 0.162919313 0.22181274
vt 0.159932494 0.22181274
vt 0.16289559 0.366188556
vt 0.159908786 0.366188556
vt 0.159908786 0.504450321
vt 0.16289559 0.504450321
vt 0.223180771 0.50644052
vt 0.165482879 0.364198357
vt 0.165543824 0.505943656
vt 0.223180771 0.364198357
vt 0.227310091 0.364198357
vt 0.227310091 0.50644052
vt 0.223058224 0.219823033
vt 0.165421352 0.219823033
vt 0.165421352 0.361561388
vt 0.223058224 0.362056762
vt 0.227187529 0.219822511
vt 0.227187529 0.362056762
vt 0.0943835229 0.367118686
vt 0.0913966596 0.367118686
vt 0.0913966596 0.505380511
vt 0.0943835229 0.505380511
vt 0.278631866 0.316727698
vt 0.280374259 0.318649322
vt 0.476619393 0.314904511
vt 0.478697717 0.312936574
vt 0.473232478 0.413639516
vt 0.472242713 0.403401971
vt 0.452976972 0.504243553
vt 0.457738221 0.49418968
vt 0.480789959 0.310976535
vt 0.478697658 0.312936544
vt 0.472242713 0.403401971
vt 0.474770397 0.398059458
vt 0.478697658 0.312936544
vt 0.476619422 0.314904511
vt 0.468392819 0.402866244
vt 0.472242713 0.403401971
vt 0.451290548 0.502289116
vt 0.452976972 0.504243553
vt 0.2691755 0.502660155
vt 0.297495365 0.492454886
vt 0.308837175 0.328574896
vt 0.280374259 0.318649322
vt 0.476619393 0.314904511
vt 0.280374259 0.318649322
vt 0.468372107 0.323262542
vt 0.451290607 0.502289116
vt 0.297495365 0.492454886
vt 0.2691755 0.502660155
vt 0.444211185 0.490968913
vt 0.45892638 0.408061653
vt 0.468392789 0.402866244
vt 0.468372107 0.323262542
vt 0.476619422 0.314904511
vt 0.446778595 0.507517874
vt 0.452976972 0.504243553
vt 0.267269909 0.504439712
vt 0.277353346 0.51038307
vt 0.267269969 0.504439771
vt 0.2691755 0.502660155
vt 0.280374259 0.318649322
vt 0.278631866 0.316727668
vt 0.262337923 0.486551911
vt 0.267269969 0.504439771
vt 0.278631866 0.316727668
vt 0.274511278 0.323450804
vt 0.0841850191 0.36261937
vt 0.0841850191 0.30790925
vt 0.0824907422 0.30790925
vt 0.0824907422 0.36261937
vt 0.0824907422 0.363281757
vt 0.0824907422 0.36261937
vt 0.0824907422 0.30790925
vt 0.0824907422 0.307245642
vt 0.0705658942 0.36261937
vt 0.074747324 0.362619489
vt 0.074747324 0.307908028
vt 0.0705658942 0.30790925
vt 0.074747324 0.362619489
vt 0.074747324 0.363281935
vt 0.074747324 0.307245642
vt 0.074747324 0.307908028
vt 0.074747324 0.363281935
vt 0.0824907422 0.363281757
vt 0.0824907422 0.307245642
vt 0.074747324 0.307245642
vt 0.0126356808 0.362619489
vt 0.0151229231 0.362619489
vt 0.0151229231 0.307908028
vt 0.0126356808 0.307908028
vt 0.0151229231 0.362619489
vt 0.0151229231 0.363281935
vt 0.0151229231 0.307245642
vt 0.0151229231 0.307908028
vt 0.0705658942 0.30790925
vt 0.0705658942 0.36261937
vt 0.0705658942 0.363281757
vt 0.0705658942 0.307245642
vt 0.0705658942 0.307245642
vt 0.0705658942 0.363281757
vt 0.0628224015 0.363281935
vt 0.0628224015 0.307245642
vt 0.0628224015 0.307245642
vt 0.0628224015 0.363281935
vt 0.0628224015 0.362619489
vt 0.0628224015 0.307908028
vt 0.0628224015 0.307908028
vt 0.0628224015 0.362619489
vt 0.0586409606 0.36261937
vt 0.0586409606 0.30790925
vt 0.0586409606 0.30790925
vt 0.0586409606 0.36261937
vt 0.0586409606 0.363281757
vt 0.0586409606 0.307245642
vt 0.0586409606 0.307245642
vt 0.0586409606 0.363281757
vt 0.0508975424 0.363281935
vt 0.0508975424 0.307245642
vt 0.0508975424 0.307245642
vt 0.0508975424 0.363281935
vt 0.0508975424 0.362619489
vt 0.0508975424 0.307908028
vt 0.0508975424 0.307908028
vt 0.0508975424 0.362619489
vt 0.0467161126 0.36261937
vt 0.0467161126 0.30790925
vt 0.0467161126 0.30790925
vt 0.0467161126 0.36261937
vt 0.0467161126 0.363281757
vt 0.0467161126 0.307245642
vt 0.0467161126 0.307245642
vt 0.0467161126 0.363281757
vt 0.0389726497 0.363281935
vt 0.0389726199 0.307245642
vt 0.0389726199 0.307245642
vt 0.0389726497 0.363281935
vt 0.0389726497 0.362619489
vt 0.0389726199 0.307908028
vt 0.0389726199 0.307908028
vt 0.0389726497 0.362619489
vt 0.0347912647 0.36261937
vt 0.0347912051 0.30790925
vt 0.0347912051 0.30790925
vt 0.0347912647 0.36261937
vt 0.0347912647 0.363281757
vt 0.0347912051 0.307245642
vt 0.0347912051 0.307245642
vt 0.0347912647 0.363281757
vt 0.0270477869 0.363281935
vt 0.0270477869 0.307245642
vt 0.0270477869 0.307245642
vt 0.0270477869 0.363281935
vt 0.0270477869 0.362619489
vt 0.0270477869 0.307908028
vt 0.0270477869 0.307908028
vt 0.0270477869 0.362619489
vt 0.0228663422 0.36261937
vt 0.0228663422 0.30790925
vt 0.0228663422 0.30790925
vt 0.0228663422 0.36261937
vt 0.0228663422 0.363281757
vt 0.0228663422 0.307245642
vt 0.0228663422 0.307245642
vt 0.0228663422 0.363281757
vt 0.0151229231 0.363281935
vt 0.0151229231 0.307245642
vt 0.024326209 0.406948626
vt 0.024326209 0.443478942
vt 0.0165827908 0.443478942
vt 0.0165827908 0.406948626
vt 0.0856448859 0.442816526
vt 0.0856448859 0.407611012
vt 0.0839506239 0.407611012
vt 0.0839506239 0.442816526
vt 0.0839506239 0.442816526
vt 0.0839506239 0.407611012
vt 0.0839506239 0.406948626
vt 0.0839506239 0.443478942
vt 0.0165827908 0.407611012
vt 0.0165827908 0.442816526
vt 0.0140955774 0.442816526
vt 0.0140955774 0.407611012
vt 0.0165827908 0.406948626
vt 0.0165827908 0.443478942
vt 0.0165827908 0.442816526
vt 0.0165827908 0.407611012
vt 0.0285076834 0.406948626
vt 0.0285076834 0.443478942
vt 0.0285076834 0.442816526
vt 0.0285076834 0.407611012
vt 0.0481759943 0.407611012
vt 0.0481759943 0.442816526
vt 0.0481759943 0.443478942
vt 0.0481759943 0.406948626
vt 0.024326209 0.407611012
vt 0.024326209 0.442816406
vt 0.024326209 0.443478942
vt 0.024326209 0.406948626
vt 0.0601009019 0.407611012
vt 0.0601009019 0.442816526
vt 0.0601009019 0.443478942
vt 0.0601009019 0.406948626
vt 0.0404325761 0.406948626
vt 0.0404325761 0.443478942
vt 0.0404325761 0.442816526
vt 0.0404325761 0.407611012
vt 0.0523574241 0.407611012
vt 0.0523574241 0.442816526
vt 0.0481759943 0.442816526
vt 0.0481759943 0.407611012
vt 0.0362511612 0.406948626
vt 0.0362511612 0.443478942
vt 0.0285076834 0.443478942
vt 0.0285076834 0.406948626
vt 0.0285076834 0.407611012
vt 0.0285076834 0.442816526
vt 0.024326209 0.442816406
vt 0.024326209 0.407611012
vt 0.0362511612 0.407611012
vt 0.0362511612 0.442816526
vt 0.0362511612 0.443478942
vt 0.0362511612 0.406948626
vt 0.0481759943 0.406948626
vt 0.0481759943 0.443478942
vt 0.0404325761 0.443478942
vt 0.0404325761 0.406948626
vt 0.0762072057 0.407611012
vt 0.0762072057 0.442816526
vt 0.0720258206 0.442816526
vt 0.0720258206 0.407611012
vt 0.0404325761 0.407611012
vt 0.0404325761 0.442816526
vt 0.0362511612 0.442816526
vt 0.0362511612 0.407611012
vt 0.0642822832 0.407611012
vt 0.0642822832 0.442816526
vt 0.0601009019 0.442816526
vt 0.0601009019 0.407611012
vt 0.0720258206 0.406948626
vt 0.0720258206 0.443478942
vt 0.0642822832 0.443478942
vt 0.0642822832 0.406948626
vt 0.0720258206 0.407611012
vt 0.0720258206 0.442816526
vt 0.0720258206 0.443478942
vt 0.0720258206 0.406948626
vt 0.0839506239 0.406948626
vt 0.0839506239 0.443478942
vt 0.0762072057 0.443478942
vt 0.0762072057 0.406948626
vt 0.0523574241 0.406948626
vt 0.0523574241 0.443478942
vt 0.0523574241 0.442816526
vt 0.0523574241 0.407611012
vt 0.0642822832 0.406948626
vt 0.0642822832 0.443478942
vt 0.0642822832 0.442816526
vt 0.0642822832 0.407611012
vt 0.0601009019 0.406948626
vt 0.0601009019 0.443478942
vt 0.0523574241 0.443478942
vt 0.0523574241 0.406948626
vt 0.0762072057 0.406948626
vt 0.0762072057 0.443478942
vt 0.0762072057 0.442816526
vt 0.0762072057 0.407611012
vt 0.0720679387 0.447002947
vt 0.0720679462 0.501713216
vt 0.0762493685 0.501713395
vt 0.0762493461 0.447001815
vt 0.0839927495 0.502375484
vt 0.0839927495 0.446339279
vt 0.0762493461 0.446339279
vt 0.0762493536 0.502375603
vt 0.0523995943 0.501713216
vt 0.0523995943 0.447001815
vt 0.0482181199 0.447002977
vt 0.0482181199 0.501713216
vt 0.0601430275 0.502375484
vt 0.0601430275 0.446339279
vt 0.0523995943 0.446339279
vt 0.0523995943 0.502375603
vt 0.0856870264 0.501713097
vt 0.0856870264 0.447002977
vt 0.0839927495 0.447002977
vt 0.0839927495 0.501713216
vt 0.0482181199 0.501713216
vt 0.0482181199 0.447002977
vt 0.0482181199 0.446339279
vt 0.0482181199 0.502375484
vt 0.0523995943 0.502375603
vt 0.0523995943 0.446339279
vt 0.0523995943 0.447001815
vt 0.0523995943 0.501713216
vt 0.0839927495 0.501713216
vt 0.0839927495 0.447002977
vt 0.0839927495 0.446339279
vt 0.0839927495 0.502375484
vt 0.0243683495 0.501713216
vt 0.0243683495 0.447002977
vt 0.0243683495 0.446339279
vt 0.0243683495 0.502375484
vt 0.0643244237 0.502375603
vt 0.0720679462 0.502375484
vt 0.0720679462 0.446339279
vt 0.0643244237 0.446339279
vt 0.0285497941 0.501713216
vt 0.0285497941 0.447001815
vt 0.0243683495 0.447002977
vt 0.0243683495 0.501713216
vt 0.0601430275 0.501713216
vt 0.0643244237 0.501713216
vt 0.0643244237 0.447001815
vt 0.0601430275 0.447002977
vt 0.0362932123 0.501713216
vt 0.0362932123 0.447002977
vt 0.0362932123 0.446339279
vt 0.0362932123 0.502375484
vt 0.0404747166 0.501713216
vt 0.0404747166 0.447001815
vt 0.0362932123 0.447002977
vt 0.0362932123 0.501713216
vt 0.0362932123 0.502375484
vt 0.0362932123 0.446339279
vt 0.0285497941 0.446339279
vt 0.0285497941 0.502375603
vt 0.0643244237 0.501713216
vt 0.0643244237 0.502375603
vt 0.0643244237 0.446339279
vt 0.0643244237 0.447001815
vt 0.0243683495 0.502375484
vt 0.0243683495 0.446339279
vt 0.0166248716 0.446339279
vt 0.0166248716 0.502375603
vt 0.0404747166 0.502375603
vt 0.0404747166 0.446339279
vt 0.0404747166 0.447001815
vt 0.0404747166 0.501713216
vt 0.0285497941 0.502375603
vt 0.0285497941 0.446339279
vt 0.0285497941 0.447001815
vt 0.0285497941 0.501713216
vt 0.0166248716 0.501713216
vt 0.0166248716 0.447001815
vt 0.0141376881 0.447001815
vt 0.0141376881 0.501713216
vt 0.0482181199 0.502375484
vt 0.0482181199 0.446339279
vt 0.0404747166 0.446339279
vt 0.0404747166 0.502375603
vt 0.0166248716 0.502375603
vt 0.0166248716 0.446339279
vt 0.0166248716 0.447001815
vt 0.0166248716 0.501713216
vt 0.0601430275 0.502375484
vt 0.0601430275 0.501713216
vt 0.0601430275 0.447002977
vt 0.0601430275 0.446339279
vt 0.0720679462 0.502375484
vt 0.0720679462 0.501713216
vt 0.0720679387 0.447002947
vt 0.0720679462 0.446339279
vt 0.0762493387 0.446339279
vt 0.0762493461 0.447001815
vt 0.0762493685 0.501713395
vt 0.0762493536 0.502375603
vt 0.0759170949 0.403701335
vt 0.0836605132 0.403701335
vt 0.0836605132 0.367171049
vt 0.0759170949 0.367171049
vt 0.0836605132 0.403038919
vt 0.0853547752 0.403038919
vt 0.0853547752 0.367833465
vt 0.0836605132 0.367833465
vt 0.0639921725 0.403038919
vt 0.0639921725 0.403701335
vt 0.0639921725 0.367171049
vt 0.0639921725 0.367832303
vt 0.0836605132 0.403701335
vt 0.0836605132 0.403038919
vt 0.0836605132 0.367833465
vt 0.0836605132 0.367171049
vt 0.0717356503 0.403038919
vt 0.0759170949 0.403038919
vt 0.0759170949 0.367832303
vt 0.0717356503 0.367833465
vt 0.0759170949 0.403038919
vt 0.0759170949 0.403701335
vt 0.0759170949 0.367171049
vt 0.0759170949 0.367832303
vt 0.0639921725 0.403701335
vt 0.0717356503 0.403701335
vt 0.0717356503 0.367171049
vt 0.0639921725 0.367171049
vt 0.0717356503 0.403701335
vt 0.0717356503 0.403038919
vt 0.0717356503 0.367833465
vt 0.0717356503 0.367171049
vt 0.0138054518 0.403038979
vt 0.0138054518 0.367832303
vt 0.0162926055 0.367832303
vt 0.0162926055 0.403038979
vt 0.0162926055 0.403038979
vt 0.0162926055 0.367832303
vt 0.0162926055 0.367171049
vt 0.0162926055 0.403701395
vt 0.0162926055 0.403701395
vt 0.0162926055 0.367171049
vt 0.0240361132 0.367171049
vt 0.0240361132 0.403701395
vt 0.0240361132 0.403701395
vt 0.0240361132 0.367171049
vt 0.0240361132 0.367833465
vt 0.0240361132 0.403038979
vt 0.0240361132 0.403038979
vt 0.0240361132 0.367833465
vt 0.0282174982 0.367832303
vt 0.0282174982 0.403038979
vt 0.0282174982 0.403038979
vt 0.0282174982 0.367832303
vt 0.0282174982 0.367171049
vt 0.0282174982 0.403701395
vt 0.0282174982 0.403701395
vt 0.0282174982 0.367171049
vt 0.035960976 0.367171049
vt 0.035960976 0.403701395
vt 0.035960976 0.403701395
vt 0.035960976 0.367171049
vt 0.035960976 0.367833465
vt 0.035960976 0.403038979
vt 0.035960976 0.403038979
vt 0.035960976 0.367833465
vt 0.0401424207 0.367832303
vt 0.0401424207 0.403038979
vt 0.0401424207 0.403038979
vt 0.0401424207 0.367832303
vt 0.0401424207 0.367171049
vt 0.0401424207 0.403701395
vt 0.0401424207 0.403701395
vt 0.0401424207 0.367171049
vt 0.0478858687 0.367171049
vt 0.0478858687 0.403701395
vt 0.0478858687 0.403701395
vt 0.0478858687 0.367171049
vt 0.0478858687 0.367833465
vt 0.0478858687 0.403038979
vt 0.0478858687 0.403038979
vt 0.0478858687 0.367833465
vt 0.0520673133 0.367832303
vt 0.0520673133 0.403038919
vt 0.0520673133 0.403038919
vt 0.0520673133 0.367832303
vt 0.0520673133 0.367171049
vt 0.0520673133 0.403701335
vt 0.0520673133 0.403701335
vt 0.0520673133 0.367171049
vt 0.0598107912 0.367171049
vt 0.0598107912 0.403701335
vt 0.0598107912 0.403701335
vt 0.0598107912 0.367171049
vt 0.0598107912 0.367833465
vt 0.0598107912 0.403038919
vt 0.0598107912 0.403038919
vt 0.0598107912 0.367833465
vt 0.0639921725 0.367832303
vt 0.0639921725 0.403038919
vt 0.231369033 0.264474958
vt 0.242445439 0.264474392
vt 0.242445439 0.234407187
vt 0.231369033 0.23440671
vt 0.28404057 0.314750433
vt 0.278631866 0.316727698
vt 0.478697717 0.312936574
vt 0.471491069 0.307051837
vt 0.452976972 0.504243553
vt 0.451290607 0.502289116
vt 0.2691755 0.502660155
vt 0.267269909 0.504439712
vt 0.312383413 0.480669469
vt 0.358900696 0.37808609
vt 0.312174082 0.339529634
vt 0.358925521 0.44177261
vt 0.400565028 0.377860308
vt 0.438958734 0.480184197
vt 0.438854635 0.338967949
vt 0.400580645 0.441537172
vn 1 0 0
vn 1 0 0
vn 1 0 0
vn 1 0 0
vn 1 0 0
vn 1 0 0
vn -1 0 0
vn -1 0 0
vn -1 0 0
vn -1 0 0
vn -1 0 0
vn -1 0 0
vn 0.999994993 0.00287120114 -0.00135984027
vn 0.999994993 0.00287120114 -0.00135984027
vn 0.999994993 0.00287120114 -0.00135984027
vn -0 0 -1
vn -0 0 -1
vn -0 0 -1
vn -0 0 -1
vn -0 0 1
vn -0 0 1
vn -0 0 1
vn -0 0 1
vn 1 0 0
vn 1 0 0
vn 1 0 0
vn 1 0 0
vn -1 0 0
vn -1 0 0
vn -1 0 0
vn -1 0 0
vn 1 0 0
vn 1 0 0
vn 1 0 0
vn 1 0 0
vn -0 0 -1
vn -0 0 -1
vn -0 0 -1
vn -0 0 -1
vn -0 0 -1
vn -0 0 -1
vn -0 0 -1
vn -0 0 -1
vn -0 0 1
vn -0 0 1
vn -0 0 1
vn -0 0 1
vn -1 0 0
vn -1 0 0
vn -1 0 0
vn -1 0 0
vn 1 0 0
vn 1 0 0
vn 1 0 0
vn 1 0 0
vn -1 0 0
vn -1 0 0
vn -1 0 0
vn -1 0 0
vn -0 1 0
vn -0 1 0
vn -0 1 0
vn -0 1 0
vn -0 0 -1
vn -0 0 -1
vn -0 0 -1
vn -0 0 -1
vn -0 1 0
vn -0 1 0
vn -0 1 0
vn -0 1 0
vn -0 0 -1
vn -0 0 -1
vn -0 0 -1
vn -0 0 -1
vn -0 1 0
vn -0 1 0
vn -0 1 0
vn -0 1 0
vn -0 0 -1
vn -0 0 -1
vn -0 0 -1
vn -0 0 -1
vn -0 1 0
vn -0 1 0
vn -0 1 0
vn -0 1 0
vn -0 0 -1
vn -0 0 -1
vn -0 0 -1
vn -0 0 -1
vn -0 0 -1
vn -0 0 -1
vn -0 0 -1
vn -0 0 -1
vn -0 1 0
vn -0 1 0
vn -0 1 0
vn -0 1 0
vn -0 1 0
vn -0 1 0
vn -0 1 0
vn -0 1 0
vn -0 0 -1
vn -0 0 -1
vn -0 0 -1
vn -0 0 -1
vn -0 0 -1
vn -0 0 -1
vn -0 0 -1
vn -0 0 -1
vn -0 1 0
vn -0 1 0
vn -0 1 0
vn -0 1 0
vn -0 1 0
vn -0 1 0
vn -0 1 0
vn -0 1 0
vn -0 0 -1
vn -0 0 -1
vn -0 0 -1
vn -0 0 -1
vn 1 0 0
vn 1 0 0
vn 1 0 0
vn 1 0 0
vn 1 0 0
vn 1 0 0
vn 1 0 0
vn 1 0 0
vn 1 0 0
vn 1 0 0
vn 1 0 0
vn 1 0 0
vn 1 0 0
vn 1 0 0
vn 1 0 0
vn 1 0 0
vn 1 0 0
vn 1 0 0
vn 1 0 0
vn 1 0 0
vn 1 0 0
vn 1 0 0
vn 1 0 0
vn -1 0 0
vn -1 0 0
vn -1 0 0
vn -1 0 0
vn -1 0 0
vn -1 0 0
vn -1 0 0
vn -1 0 0
vn -1 0 0
vn -1 0 0
vn -1 0 0
vn -1 0 0
vn -1 0 0
vn -1 0 0
vn -1 0 0
vn -1 0 0
vn -1 0 0
vn -1 0 0
vn -1 0 0
vn -1 0 0
vn -1 0 0
vn -1 0 0
vn -1 0 0
vn -1 0 0
vn -1 0 0
vn -1 0 0
vn -0 1 0
vn -0 1 0
vn -0 1 0
vn -0 1 0
vn -0 0 -1
vn -0 0 -1
vn -0 0 -1
vn -0 0 -1
vn -0 0 1
vn -0 0 1
vn -0 0 1
vn -0 0 1
vn -1 0 0
vn -1 0 0
vn -1 0 0
vn -1 0 0
vn 1 0 0
vn 1 0 0
vn 1 0 0
vn 1 0 0
vn -0 1 0
vn -0 1 0
vn -0 1 0
vn -0 1 0
vn -0 1 0
vn -0 1 0
vn -0 1 0
vn -0 1 0
vn -0 1 0
vn -0 1 0
vn -0 1 0
vn -0 1 0
vn -0 0 -1
vn -0 0 -1
vn -0 0 -1
vn -0 0 -1
vn -0 0 1
vn -0 0 1
vn -0 0 1
vn -0 0 1
vn 1 0 0
vn 1 0 0
vn 1 0 0
vn 1 0 0
vn -1 0 0
vn -1 0 0
vn -1 0 0
vn -1 0 0
vn -0 0 -1
vn -0 0 -1
vn -0 0 -1
vn -0 0 -1
vn -0 0 1
vn -0 0 1
vn -0 0 1
vn -0 0 1
vn -0 0 -1
vn -0 0 -1
vn -0 0 -1
vn -0 0 -1
vn -0 1 0
vn -0 1 0
vn -0 1 0
vn -0 1 0
vn -0 0 1
vn -0 0 1
vn -0 0 1
vn -0 0 1
vn 1 0 0
vn 1 0 0
vn 1 0 0
vn 1 0 0
vn -1 0 0
vn -1 0 0
vn -1 0 0
vn -1 0 0
vn 1 0 0
vn 1 0 0
vn 1 0 0
vn 1 0 0
vn 1 0 0
vn 1 0 0
vn 1 0 0
vn 1 0 0
vn -0 1 -0.000268439908
vn -0 1 -0.000268439908
vn -0 1 -0.000268439908
vn -0 1 -0.000268439908
vn 0.000313116616 1 0
vn 0.000313116616 1 0
vn -0 1 0.000326830923
vn -0 1 0.000326830923
vn -0 1 0.000326830923
vn -0 1 0.000326830923
vn -0 1.08858721E-05 -1
vn -0 1.08858721E-05 -1
vn -0 1.08858721E-05 -1
vn -0 1.08858721E-05 -1
vn -0 0 -1
vn -0 0 -1
vn -0 0 -1
vn -0 0 -1
vn -0.000325152971 1 0
vn -0.000325152971 1 0
vn -0.000325152971 1 0
vn -0.000325152971 1 0
vn -0 0 1
vn -0 0 1
vn -0 0 1
vn -0 0 1
vn 1 0 0
vn 1 0 0
vn 1 0 0
vn 1 0 0
vn -1 0 0
vn -1 0 0
vn -1 0 0
vn -1 0 0
vn -0 -1.1327048E-05 1
vn -0 -1.1327048E-05 1
vn -0 -1.1327048E-05 1
vn -0 -1.1327048E-05 1
vn -1 0 0
vn -1 0 0
vn -1 0 0
vn -1 0 0
vn -1 0 0
vn -1 0 0
vn -1 0 0
vn -1 0 0
vn -0 0 1
vn -0 0 1
vn -0 0 1
vn -0 0 1
vn -0 -1.1852002E-05 -1
vn -0 -1.1852002E-05 -1
vn -0 -1.1852002E-05 -1
vn -0 -1.1852002E-05 -1
vn 0.999999881 0 0.000512550876
vn 0.999999881 0 0.000512550876
vn 0.999999881 0 0.000512550876
vn 0.999999881 0 0.000512550876
vn -1 0 0
vn -1 0 0
vn -1 0 0
vn -1 0 0
vn 1 0 0
vn 1 0 0
vn 1 0 0
vn 1 0 0
vn 1 0 0
vn 1 0 0
vn -0 0 -1
vn -0 0 -1
vn -0 0 -1
vn -0 0 -1
vn 0.00724013848 -0.00654536719 -0.999952435
vn 0.00724013848 -0.00654536719 -0.999952435
vn 0.00724013848 -0.00654536719 -0.999952435
vn 0.00724013848 -0.00654536719 -0.999952435
vn 0.00724013848 -0.00654536719 -0.999952435
vn -0 0 -1
vn -0 0 -1
vn -0 0 -1
vn -0 0 -1
vn -0 0 -1
vn -0 0.00980156474 -0.999951959
vn -0 0 -1
vn -0 0.00980156474 -0.999951959
vn -0.00723804021 -0.00654297182 -0.999952435
vn -0 0 -1
vn -0 0 -1
vn -0 -1 0
vn -0 -1 0
vn -0 -1 0
vn -0 -1 0
vn 0.999999404 -0.00108701468 0.000249188452
vn 0.999999404 -0.00108701468 0.000249188452
vn 0.999999404 -0.00108701468 0.000249188452
vn 0.999999404 -0.00108701468 0.000249188452
vn -0.999999166 0.0013320999 3.97898984E-05
vn -0.999999166 0.0013320999 3.97898984E-05
vn -0.999999166 0.0013320999 3.97898984E-05
vn -0.999999166 0.0013320999 3.97898984E-05
vn -0 1 0
vn -0 1 0
vn -0 1 0
vn -0 1 0
vn -0 1 0
vn -0 1 0
vn -0 1 0
vn -0 1 0
vn -0 0 1
vn -0 0 1
vn -0 0 1
vn -0 0 1
vn -1 0 0
vn -1 0 0
vn -1 0 0
vn -1 0 0
vn -1 0 0
vn -1 0 0
vn -1 0 0
vn -1 0 0
vn -1 0 0
vn -1 0 0
vn -0 0 1
vn -0 0 1
vn -0 0 1
vn -0 0 1
vn -0 0 1
vn -0 0 1
vn 1 0 0
vn 1 0 0
vn 1 0 0
vn 1 0 0
vn -1 0 0
vn -1 0 0
vn -1 0 0
vn -1 0 0
vn -0 1 0
vn -0 1 0
vn -0 1 0
vn -0 1 0
vn -0 1 0
vn -0 1 0
vn -0 1 0
vn -0 1 0
vn -0 0 1
vn -0 0 1
vn -0 0 1
vn -0 0 1
vn -0 0 1
vn -0 0 1
vn -0 1 0
vn -0 1 0
vn -0 1 0
vn -0 1 0
vn -0 1 0
vn -0 1 0
vn -0 1 0
vn -0 1 0
vn -0 1 0
vn -0 1 0
vn -0 1 0
vn -0 1 0
vn -0 1 0
vn -0 1 0
vn -0 1 0
vn -0 1 0
vn -0 1 0
vn -0 1 0
vn -0 1 0
vn -0 0 -1
vn -0 0 -1
vn -0 0 -1
vn -0 0 -1
vn -0 1 0
vn -0 1 0
vn -0 1 0
vn -0 1 0
vn -0 0 -1
vn -0 0 -1
vn -0 0 -1
vn -0 0 -1
vn -0 -1 0
vn -0 -1 0
vn -0 -1 0
vn -0 -1 0
vn -0 0 -1
vn -0 0 -1
vn -0 0 -1
vn -0 0 -1
vn -0 1 0
vn -0 1 0
vn -0 1 0
vn -0 1 0
vn -0 0 -1
vn -0 0 -1
vn -0 0 -1
vn -0 0 -1
vn -0 0 -1
vn -0 0 -1
vn -0 0 -1
vn -0 0 -1
vn -0 1 0
vn -0 1 0
vn -0 1 0
vn -0 1 0
vn -0 1 0
vn -0 1 0
vn -0 1 0
vn -0 1 0
vn -0 0 1
vn -0 0 1
vn -0 0 1
vn -0 0 1
vn -0 -1 0
vn -0 -1 0
vn -0 -1 0
vn -0 -1 0
vn -0 0 1
vn -0 0 1
vn -0 0 1
vn -0 0 1
vn -0 1 0
vn -0 1 0
vn -0 1 0
vn -0 1 0
vn -0 0 1
vn -0 0 1
vn -0 0 1
vn -0 0 1
vn -0 -1 0
vn -0 -1 0
vn -0 -1 0
vn -0 -1 0
vn -0 0 1
vn -0 0 1
vn -0 0 1
vn -0 0 1
vn -0 1 0
vn -0 1 0
vn -0 1 0
vn -0 1 0
vn -0 0 1
vn -0 0 1
vn -0 0 1
vn -0 0 1
vn -0 -1 0
vn -0 -1 0
vn -0 -1 0
vn -0 -1 0
vn -0 0 1
vn -0 0 1
vn -0 0 1
vn -0 0 1
vn -0 1 0
vn -0 1 0
vn -0 1 0
vn -0 1 0
vn -0 0 1
vn -0 0 1
vn -0 0 1
vn -0 0 1
vn -0 -1 0
vn -0 -1 0
vn -0 -1 0
vn -0 -1 0
vn -0 0 1
vn -0 0 1
vn -0 0 1
vn -0 0 1
vn -0 1 0
vn -0 1 0
vn -0 1 0
vn -0 1 0
vn -0 0 1
vn -0 0 1
vn -0 0 1
vn -0 0 1
vn 1 0 0
vn 1 0 0
vn 1 0 0
vn 1 0 0
vn -1 0 3.43030515E-05
vn -1 0 3.43030515E-05
vn -1 0 3.43030515E-05
vn -1 0 3.43030515E-05
vn -0 -1 0
vn -0 -1 0
vn -0 -1 0
vn -0 -1 0
vn 1 0 0
vn 1 0 0
vn 1 0 0
vn 1 0 0
vn -0 -1 0
vn -0 -1 0
vn -0 -1 0
vn -0 -1 0
vn -0 -1 0
vn -0 -1 0
vn -0 -1 0
vn -0 -1 0
vn -0 1 0
vn -0 1 0
vn -0 1 0
vn -0 1 0
vn -0 1 0
vn -0 1 0
vn -0 1 0
vn -0 1 0
vn -0 1 0
vn -0 1 0
vn -0 1 0
vn -0 1 0
vn -0 -1 0
vn -0 -1 0
vn -0 -1 0
vn -0 -1 0
vn 1 -0.000145112834 -1.93095457E-05
vn 1 -0.000145112834 -1.93095457E-05
vn 1 -0.000145112834 -1.93095457E-05
vn 1 -0.000145112834 -1.93095457E-05
vn 1 0 0
vn 1 0 0
vn 1 0 0
vn 1 0 0
vn 1 -0.000145112805 -1.93095402E-05
vn 1 -0.000145112805 -1.93095402E-05
vn 1 -0.000145112805 -1.93095402E-05
vn 1 -0.000145112805 -1.93095402E-05
vn -0 1 0
vn -0 1 0
vn -0 1 0
vn -0 1 0
vn 1 0 0
vn 1 0 0
vn 1 0 0
vn 1 0 0
vn 1 -0.000145112936 -1.93095548E-05
vn 1 -0.000145112936 -1.93095548E-05
vn 1 -0.000145112936 -1.93095548E-05
vn 1 -0.000145112936 -1.93095548E-05
vn 1 -0.000145112775 -1.93095366E-05
vn 1 -0.000145112775 -1.93095366E-05
vn 1 -0.000145112775 -1.93095366E-05
vn 1 -0.000145112775 -1.93095366E-05
vn 1 -0.000145112761 -1.93095348E-05
vn 1 -0.000145112761 -1.93095348E-05
vn 1 -0.000145112761 -1.93095348E-05
vn 1 -0.000145112761 -1.93095348E-05
vn 1 0 0
vn 1 0 0
vn 1 0 0
vn 1 0 0
vn -0 1 0
vn -0 1 0
vn -0 1 0
vn -0 1 0
vn 1 0 0
vn 1 0 0
vn 1 0 0
vn 1 0 0
vn -0 -1 0
vn -0 -1 0
vn -0 -1 0
vn -0 -1 0
vn -0 -1 0
vn -0 -1 0
vn -0 -1 0
vn -0 -1 0
vn 1 0 0
vn 1 0 0
vn 1 0 0
vn 1 0 0
vn -0 -1 0
vn -0 -1 0
vn -0 -1 0
vn -0 -1 0
vn -1.08121021E-05 0.000131193097 1
vn -1.08121021E-05 0.000131193097 1
vn -1.08121021E-05 0.000131193097 1
vn -1.08121021E-05 0.000131193097 1
vn -0 0 1
vn -0 0 1
vn -0 0 1
vn -0 0 1
vn -1.08410104E-05 0.0001315923 1
vn -1.08410104E-05 0.0001315923 1
vn -1.08410104E-05 0.0001315923 1
vn -1.08410104E-05 0.0001315923 1
vn -0 0 1
vn -0 0 1
vn -0 0 1
vn -0 0 1
vn -0 0 1
vn -0 0 1
vn -0 0 1
vn -0 0 1
vn -0 -1 0
vn -0 -1 0
vn -0 -1 0
vn -0 -1 0
vn -0 1 0
vn -0 1 0
vn -0 1 0
vn -0 1 0
vn -0 -1 0
vn -0 -1 0
vn -0 -1 0
vn -0 -1 0
vn -0 -1 0
vn -0 -1 0
vn -0 -1 0
vn -0 -1 0
vn -0 0 1
vn -0 0 1
vn -0 0 1
vn -0 0 1
vn -1.08410204E-05 0.000132259374 1
vn -1.08410204E-05 0.000132259374 1
vn -1.08410204E-05 0.000132259374 1
vn -1.08410204E-05 0.000132259374 1
vn -1.08410168E-05 0.000131424997 1
vn -1.08410168E-05 0.000131424997 1
vn -1.08410168E-05 0.000131424997 1
vn -1.08410168E-05 0.000131424997 1
vn -0 -1 0
vn -0 -1 0
vn -0 -1 0
vn -0 -1 0
vn -1.08410222E-05 0.000131592256 1
vn -1.08410222E-05 0.000131592256 1
vn -1.08410222E-05 0.000131592256 1
vn -1.08410222E-05 0.000131592256 1
vn -0 0 1
vn -0 0 1
vn -0 0 1
vn -0 0 1
vn -0 1 0
vn -0 1 0
vn -0 1 0
vn -0 1 0
vn -0 0 1
vn -0 0 1
vn -0 0 1
vn -0 0 1
vn -0 1 0
vn -0 1 0
vn -0 1 0
vn -0 1 0
vn -0 1 0
vn -0 1 0
vn -0 1 0
vn -0 1 0
vn -2.16817971E-05 0 1
vn -2.16817971E-05 0 1
vn -2.16817971E-05 0 1
vn -2.16817971E-05 0 1
vn -0 0 1
vn -0 0 1
vn -0 0 1
vn -0 0 1
vn -0 1 0
vn -0 1 0
vn -0 1 0
vn -0 1 0
vn -0 -1 0
vn -0 -1 0
vn -0 -1 0
vn -0 -1 0
vn -0 -1 0
vn -0 -1 0
vn -0 -1 0
vn -0 -1 0
vn -0 1 0
vn -0 1 0
vn -0 1 0
vn -0 1 0
vn 1 0 0
vn 1 0 0
vn 1 0 0
vn 1 0 0
vn 1 -3.39471153E-05 -3.59822225E-05
vn 1 -3.39471153E-05 -3.59822225E-05
vn 1 -3.39471153E-05 -3.59822225E-05
vn 1 -3.39471153E-05 -3.59822225E-05
vn -0 1 0
vn -0 1 0
vn -0 1 0
vn -0 1 0
vn -0 -1 0
vn -0 -1 0
vn -0 -1 0
vn -0 -1 0
vn 1 0.000130667657 -2.07995308E-05
vn 1 0.000130667657 -2.07995308E-05
vn 1 0.000130667657 -2.07995308E-05
vn 1 0.000130667657 -2.07995308E-05
vn -0 1 0
vn -0 1 0
vn -0 1 0
vn -0 1 0
vn 1 0 0
vn 1 0 0
vn 1 0 0
vn 1 0 0
vn -0 -1 0
vn -0 -1 0
vn -0 -1 0
vn -0 -1 0
vn -1 0 0
vn -1 0 0
vn -1 0 0
vn -1 0 0
vn -0 -1 0
vn -0 -1 0
vn -0 -1 0
vn -0 -1 0
vn -1 0 0
vn -1 0 0
vn -1 0 0
vn -1 0 0
vn -0 1 0
vn -0 1 0
vn -0 1 0
vn -0 1 0
vn -1 -0.000130667613 2.0799529E-05
vn -1 -0.000130667613 2.0799529E-05
vn -1 -0.000130667613 2.0799529E-05
vn -1 -0.000130667613 2.0799529E-05
vn -0 -1 0
vn -0 -1 0
vn -0 -1 0
vn -0 -1 0
vn -1 0 0
vn -1 0 0
vn -1 0 0
vn -1 0 0
vn -0 1 0
vn -0 1 0
vn -0 1 0
vn -0 1 0
vn -1 -0.000130667526 2.07995145E-05
vn -1 -0.000130667526 2.07995145E-05
vn -1 -0.000130667526 2.07995145E-05
vn -1 -0.000130667526 2.07995145E-05
vn -0 -1 0
vn -0 -1 0
vn -0 -1 0
vn -0 -1 0
vn -1 0 0
vn -1 0 0
vn -1 0 0
vn -1 0 0
vn -0 1 0
vn -0 1 0
vn -0 1 0
vn -0 1 0
vn -1 -0.000130667657 2.08643323E-05
vn -1 -0.000130667657 2.08643323E-05
vn -1 -0.000130667657 2.08643323E-05
vn -1 -0.000130667657 2.08643323E-05
vn -0 -1 0
vn -0 -1 0
vn -0 -1 0
vn -0 -1 0
vn -1 0 0
vn -1 0 0
vn -1 0 0
vn -1 0 0
vn -0 1 0
vn -0 1 0
vn -0 1 0
vn -0 1 0
vn -1 -0.00013066754 2.08643141E-05
vn -1 -0.00013066754 2.08643141E-05
vn -1 -0.00013066754 2.08643141E-05
vn -1 -0.00013066754 2.08643141E-05
vn -0 0 -1
vn -0 0 -1
vn -0 0 -1
vn -0 0 -1
vn -0 1 0
vn -0 1 0
vn -0 1 0
vn -0 1 0
vn 1 0 0
vn 1 0 0
vn 1 0 0
vn 1 0 0
vn 0.000320378691 1 0
vn -0 1 -0.000265852228
vn -0 1 -0.000265852228
vn 0.000320378691 1 0
vn -0 1 0.00032387083
vn -0 1 0.00032387083
vn -0 1 0.00032387083
vn -0 1 0.00032387083
g building_centroprojekt_LP_0
f 3/3/3 2/2/2 1/1/1
f 1/1/1 5/5/5 4/4/4
f 6/6/6 1/1/1 4/4/4
f 9/9/9 8/8/8 7/7/7
f 11/11/11 9/9/9 10/10/10
f 12/12/12 11/11/11 10/10/10
f 15/15/15 14/14/14 13/13/13
f 18/18/18 17/17/17 16/16/16
f 19/19/19 18/18/18 16/16/16
f 22/22/22 21/21/21 20/20/20
f 23/23/23 22/22/22 20/20/20
f 26/26/26 25/25/25 24/24/24
f 27/27/27 26/26/26 24/24/24
f 30/30/30 29/29/29 28/28/28
f 31/31/31 30/30/30 28/28/28
f 34/34/34 33/33/33 32/32/32
f 35/35/35 34/34/34 32/32/32
f 38/38/38 37/37/37 36/36/36
f 39/39/39 38/38/38 36/36/36
f 42/42/42 41/41/41 40/40/40
f 43/43/43 42/42/42 40/40/40
f 46/46/46 45/45/45 44/44/44
f 47/47/47 46/46/46 44/44/44
f 50/50/50 49/49/49 48/48/48
f 51/51/51 50/50/50 48/48/48
f 54/54/54 53/53/53 52/52/52
f 55/55/55 54/54/54 52/52/52
f 58/58/58 57/57/57 56/56/56
f 59/59/59 58/58/58 56/56/56
f 62/62/62 61/61/61 60/60/60
f 63/63/63 62/62/62 60/60/60
f 66/66/66 65/65/65 64/64/64
f 67/67/67 66/66/66 64/64/64
f 70/70/70 69/69/69 68/68/68
f 71/71/71 70/70/70 68/68/68
f 74/74/74 73/73/73 72/72/72
f 75/75/75 74/74/74 72/72/72
f 78/78/78 77/77/77 76/76/76
f 79/79/79 78/78/78 76/76/76
f 82/82/82 81/81/81 80/80/80
f 83/83/83 82/82/82 80/80/80
f 86/86/86 85/85/85 84/84/84
f 87/87/87 86/86/86 84/84/84
f 90/90/90 89/89/89 88/88/88
f 91/91/91 90/90/90 88/88/88
f 94/94/94 93/93/93 92/92/92
f 95/95/95 94/94/94 92/92/92
f 98/98/98 97/97/97 96/96/96
f 99/99/99 98/98/98 96/96/96
f 102/102/102 101/101/101 100/100/100
f 103/103/103 102/102/102 100/100/100
f 106/106/106 105/105/105 104/104/104
f 107/107/107 106/106/106 104/104/104
f 110/110/110 109/109/109 108/108/108
f 111/111/111 110/110/110 108/108/108
f 114/114/114 113/113/113 112/112/112
f 115/115/115 114/114/114 112/112/112
f 118/118/118 117/117/117 116/116/116
f 119/119/119 118/118/118 116/116/116
f 122/122/122 121/121/121 120/120/120
f 123/123/123 122/122/122 120/120/120
f 126/126/126 125/125/125 124/124/124
f 125/125/125 127/127/127 124/124/124
f 128/128/128 127/127/127 125/125/125
f 127/127/127 128/128/128 129/129/129
f 128/128/128 130/130/130 129/129/129
f 130/130/130 128/128/128 131/131/131
f 128/128/128 132/132/132 131/131/131
f 132/132/132 128/128/128 133/133/133
f 132/132/132 135/135/135 134/134/134
f 135/135/135 136/136/136 134/134/134
f 136/136/136 133/133/133 137/137/137
f 133/133/133 138/138/138 137/137/137
f 140/140/140 133/133/133 139/139/139
f 139/139/139 142/142/142 141/141/141
f 143/143/143 139/139/139 141/141/141
f 145/145/145 143/143/143 144/144/144
f 146/146/146 145/145/145 144/144/144
f 149/149/149 148/148/148 147/147/147
f 148/148/148 150/150/150 147/147/147
f 151/151/151 150/150/150 148/148/148
f 153/153/153 152/152/152 151/151/151
f 155/155/155 154/154/154 148/148/148
f 156/156/156 155/155/155 148/148/148
f 157/157/157 151/151/151 155/155/155
f 158/158/158 157/157/157 155/155/155
f 160/160/160 152/152/152 159/159/159
f 161/161/161 160/160/160 159/159/159
f 162/162/162 152/152/152 160/160/160
f 163/163/163 162/162/162 160/160/160
f 166/166/166 165/165/165 164/164/164
f 167/167/167 166/166/166 164/164/164
f 170/170/170 169/169/169 168/168/168
f 169/169/169 171/171/171 168/168/168
f 171/171/171 172/172/172 168/168/168
f 175/175/175 174/174/174 173/173/173
f 176/176/176 175/175/175 173/173/173
f 179/179/179 178/178/178 177/177/177
f 180/180/180 179/179/179 177/177/177
f 183/183/183 182/182/182 181/181/181
f 184/184/184 183/183/183 181/181/181
f 187/187/187 186/186/186 185/185/185
f 188/188/188 187/187/187 185/185/185
f 191/191/191 190/190/190 189/189/189
f 192/192/192 191/191/191 189/189/189
f 195/195/195 194/194/194 193/193/193
f 196/196/196 195/195/195 193/193/193
f 197/197/197 195/195/195 196/196/196
f 198/198/198 197/197/197 196/196/196
f 201/201/201 200/200/200 199/199/199
f 202/202/202 201/201/201 199/199/199
f 203/203/203 201/201/201 202/202/202
f 204/204/204 203/203/203 202/202/202
f 207/207/207 206/206/206 205/205/205
f 208/208/208 207/207/207 205/205/205
f 211/211/211 210/210/210 209/209/209
f 212/212/212 211/211/211 209/209/209
f 215/215/215 214/214/214 213/213/213
f 216/216/216 215/215/215 213/213/213
f 219/219/219 218/218/218 217/217/217
f 220/220/220 219/219/219 217/217/217
f 223/223/223 222/222/222 221/221/221
f 224/224/224 223/223/223 221/221/221
f 227/227/227 226/226/226 225/225/225
f 228/228/228 227/227/227 225/225/225
f 231/231/231 230/230/230 229/229/229
f 232/232/232 231/231/231 229/229/229
f 235/235/235 234/234/234 233/233/233
f 236/236/236 235/235/235 233/233/233
f 239/239/239 238/238/238 237/237/237
f 240/240/240 239/239/239 237/237/237
f 243/243/243 242/242/242 241/241/241
f 244/244/244 243/243/243 241/241/241
f 247/247/247 246/246/246 245/245/245
f 248/248/248 247/247/247 245/245/245
f 251/251/251 250/250/250 249/249/249
f 252/252/252 251/251/251 249/249/249
f 255/255/255 254/254/254 253/253/253
f 256/256/256 255/255/255 253/253/253
f 259/259/259 258/258/258 257/257/257
f 258/258/258 260/260/260 257/257/257
f 257/257/257 260/260/260 261/261/261
f 260/260/260 262/262/262 261/261/261
f 265/265/265 264/264/264 263/263/263
f 266/266/266 265/265/265 263/263/263
f 269/269/269 268/268/268 267/267/267
f 270/270/270 269/269/269 267/267/267
f 273/273/273 272/272/272 271/271/271
f 274/274/274 273/273/273 271/271/271
f 277/277/277 276/276/276 275/275/275
f 278/278/278 277/277/277 275/275/275
f 281/281/281 280/280/280 279/279/279
f 282/282/282 281/281/281 279/279/279
f 285/285/285 284/284/284 283/283/283
f 286/286/286 285/285/285 283/283/283
f 289/289/289 288/288/288 287/287/287
f 290/290/290 289/289/289 287/287/287
f 293/293/293 292/292/292 291/291/291
f 294/294/294 293/293/293 291/291/291
f 297/297/297 296/296/296 295/295/295
f 298/298/298 297/297/297 295/295/295
f 301/301/301 300/300/300 299/299/299
f 302/302/302 301/301/301 299/299/299
f 305/305/305 304/304/304 303/303/303
f 306/306/306 305/305/305 303/303/303
f 309/309/309 308/308/308 307/307/307
f 310/310/310 309/309/309 307/307/307
f 313/313/313 312/312/312 311/311/311
f 314/314/314 313/313/313 311/311/311
f 317/317/317 316/316/316 315/315/315
f 318/318/318 317/317/317 315/315/315
f 321/321/321 320/320/320 319/319/319
f 322/322/322 321/321/321 319/319/319
f 323/323/323 321/321/321 322/322/322
f 324/324/324 323/323/323 322/322/322
f 327/327/327 326/326/326 325/325/325
f 328/328/328 327/327/327 325/325/325
f 331/331/331 330/330/330 329/329/329
f 329/329/329 332/332/332 331/331/331
f 329/329/329 333/333/333 332/332/332
f 334/334/334 333/333/333 329/329/329
f 335/335/335 334/334/334 329/329/329
f 334/334/334 335/335/335 336/336/336
f 335/335/335 337/337/337 336/336/336
f 337/337/337 338/338/338 336/336/336
f 332/332/332 339/339/339 331/331/331
f 338/338/338 340/340/340 336/336/336
f 339/339/339 341/341/341 331/331/331
f 341/341/341 339/339/339 340/340/340
f 340/340/340 338/338/338 341/341/341
f 338/338/338 342/342/342 341/341/341
f 331/331/331 341/341/341 343/343/343
f 341/341/341 344/344/344 343/343/343
f 347/347/347 346/346/346 345/345/345
f 348/348/348 347/347/347 345/345/345
f 351/351/351 350/350/350 349/349/349
f 352/352/352 351/351/351 349/349/349
f 355/355/355 354/354/354 353/353/353
f 356/356/356 355/355/355 353/353/353
f 359/359/359 358/358/358 357/357/357
f 360/360/360 359/359/359 357/357/357
f 360/360/360 357/357/357 361/361/361
f 362/362/362 360/360/360 361/361/361
f 362/362/362 361/361/361 363/363/363
f 364/364/364 362/362/362 363/363/363
f 367/367/367 366/366/366 365/365/365
f 368/368/368 367/367/367 365/365/365
f 371/371/371 370/370/370 369/369/369
f 372/372/372 371/371/371 369/369/369
f 375/375/375 374/374/374 373/373/373
f 374/374/374 376/376/376 373/373/373
f 376/376/376 377/377/377 373/373/373
f 377/377/377 378/378/378 373/373/373
f 381/381/381 380/380/380 379/379/379
f 382/382/382 381/381/381 379/379/379
f 382/382/382 379/379/379 383/383/383
f 384/384/384 382/382/382 383/383/383
f 387/387/387 386/386/386 385/385/385
f 388/388/388 387/387/387 385/385/385
f 391/391/391 390/390/390 389/389/389
f 392/392/392 391/391/391 389/389/389
f 395/395/395 394/394/394 393/393/393
f 396/396/396 395/395/395 393/393/393
f 399/399/399 398/398/398 397/397/397
f 400/400/400 399/399/399 397/397/397
f 403/403/403 402/402/402 401/401/401
f 404/404/404 403/403/403 401/401/401
f 405/405/405 403/403/403 404/404/404
f 406/406/406 405/405/405 404/404/404
f 409/409/409 408/408/408 407/407/407
f 410/410/410 409/409/409 407/407/407
f 409/409/409 412/412/412 411/411/411
f 413/413/413 409/409/409 411/411/411
f 416/416/416 415/415/415 414/414/414
f 415/415/415 417/417/417 414/414/414
f 417/417/417 418/418/418 414/414/414
f 418/418/418 419/419/419 414/414/414
f 418/418/418 420/420/420 419/419/419
f 420/420/420 421/421/421 419/419/419
f 424/424/424 423/423/423 422/422/422
f 425/425/425 424/424/424 422/422/422
f 428/428/428 427/427/427 426/426/426
f 429/429/429 428/428/428 426/426/426
f 432/432/432 431/431/431 430/430/430
f 433/433/433 432/432/432 430/430/430
f 436/436/436 435/435/435 434/434/434
f 437/437/437 436/436/436 434/434/434
f 440/440/440 439/439/439 438/438/438
f 441/441/441 440/440/440 438/438/438
f 444/444/444 443/443/443 442/442/442
f 445/445/445 444/444/444 442/442/442
f 448/448/448 447/447/447 446/446/446
f 449/449/449 448/448/448 446/446/446
f 452/452/452 451/451/451 450/450/450
f 453/453/453 452/452/452 450/450/450
f 456/456/456 455/455/455 454/454/454
f 457/457/457 456/456/456 454/454/454
f 460/460/460 459/459/459 458/458/458
f 461/461/461 460/460/460 458/458/458
f 464/464/464 463/463/463 462/462/462
f 465/465/465 464/464/464 462/462/462
f 468/468/468 467/467/467 466/466/466
f 469/469/469 468/468/468 466/466/466
f 472/472/472 471/471/471 470/470/470
f 473/473/473 472/472/472 470/470/470
f 476/476/476 475/475/475 474/474/474
f 477/477/477 476/476/476 474/474/474
f 480/480/480 479/479/479 478/478/478
f 481/481/481 480/480/480 478/478/478
f 484/484/484 483/483/483 482/482/482
f 485/485/485 484/484/484 482/482/482
f 488/488/488 487/487/487 486/486/486
f 489/489/489 488/488/488 486/486/486
f 492/492/492 491/491/491 490/490/490
f 493/493/493 492/492/492 490/490/490
f 496/496/496 495/495/495 494/494/494
f 497/497/497 496/496/496 494/494/494
f 500/500/500 499/499/499 498/498/498
f 501/501/501 500/500/500 498/498/498
f 504/504/504 503/503/503 502/502/502
f 505/505/505 504/504/504 502/502/502
f 508/508/508 507/507/507 506/506/506
f 509/509/509 508/508/508 506/506/506
f 512/512/512 511/511/511 510/510/510
f 513/513/513 512/512/512 510/510/510
f 516/516/516 515/515/515 514/514/514
f 517/517/517 516/516/516 514/514/514
f 520/520/520 519/519/519 518/518/518
f 521/521/521 520/520/520 518/518/518
f 524/524/524 523/523/523 522/522/522
f 525/525/525 524/524/524 522/522/522
f 528/528/528 527/527/527 526/526/526
f 529/529/529 528/528/528 526/526/526
f 532/532/532 531/531/531 530/530/530
f 533/533/533 532/532/532 530/530/530
f 536/536/536 535/535/535 534/534/534
f 537/537/537 536/536/536 534/534/534
f 540/540/540 539/539/539 538/538/538
f 541/541/541 540/540/540 538/538/538
f 544/544/544 543/543/543 542/542/542
f 545/545/545 544/544/544 542/542/542
f 548/548/548 547/547/547 546/546/546
f 549/549/549 548/548/548 546/546/546
f 552/552/552 551/551/551 550/550/550
f 553/553/553 552/552/552 550/550/550
f 556/556/556 555/555/555 554/554/554
f 557/557/557 556/556/556 554/554/554
f 560/560/560 559/559/559 558/558/558
f 561/561/561 560/560/560 558/558/558
f 564/564/564 563/563/563 562/562/562
f 565/565/565 564/564/564 562/562/562
f 568/568/568 567/567/567 566/566/566
f 569/569/569 568/568/568 566/566/566
f 572/572/572 571/571/571 570/570/570
f 573/573/573 572/572/572 570/570/570
f 576/576/576 575/575/575 574/574/574
f 577/577/577 576/576/576 574/574/574
f 580/580/580 579/579/579 578/578/578
f 581/581/581 580/580/580 578/578/578
f 584/584/584 583/583/583 582/582/582
f 585/585/585 584/584/584 582/582/582
f 588/588/588 587/587/587 586/586/586
f 589/589/589 588/588/588 586/586/586
f 592/592/592 591/591/591 590/590/590
f 593/593/593 592/592/592 590/590/590
f 596/596/596 595/595/595 594/594/594
f 597/597/597 596/596/596 594/594/594
f 600/600/600 599/599/599 598/598/598
f 601/601/601 600/600/600 598/598/598
f 604/604/604 603/603/603 602/602/602
f 605/605/605 604/604/604 602/602/602
f 608/608/608 607/607/607 606/606/606
f 609/609/609 608/608/608 606/606/606
f 612/612/612 611/611/611 610/610/610
f 613/613/613 612/612/612 610/610/610
f 616/616/616 615/615/615 614/614/614
f 617/617/617 616/616/616 614/614/614
f 620/620/620 619/619/619 618/618/618
f 621/621/621 620/620/620 618/618/618
f 624/624/624 623/623/623 622/622/622
f 625/625/625 624/624/624 622/622/622
f 628/628/628 627/627/627 626/626/626
f 629/629/629 628/628/628 626/626/626
f 632/632/632 631/631/631 630/630/630
f 633/633/633 632/632/632 630/630/630
f 636/636/636 635/635/635 634/634/634
f 637/637/637 636/636/636 634/634/634
f 640/640/640 639/639/639 638/638/638
f 641/641/641 640/640/640 638/638/638
f 644/644/644 643/643/643 642/642/642
f 645/645/645 644/644/644 642/642/642
f 648/648/648 647/647/647 646/646/646
f 649/649/649 648/648/648 646/646/646
f 652/652/652 651/651/651 650/650/650
f 653/653/653 652/652/652 650/650/650
f 656/656/656 655/655/655 654/654/654
f 657/657/657 656/656/656 654/654/654
f 660/660/660 659/659/659 658/658/658
f 661/661/661 660/660/660 658/658/658
f 664/664/664 663/663/663 662/662/662
f 665/665/665 664/664/664 662/662/662
f 668/668/668 667/667/667 666/666/666
f 669/669/669 668/668/668 666/666/666
f 672/672/672 671/671/671 670/670/670
f 673/673/673 672/672/672 670/670/670
f 676/676/676 675/675/675 674/674/674
f 677/677/677 676/676/676 674/674/674
f 680/680/680 679/679/679 678/678/678
f 681/681/681 680/680/680 678/678/678
f 684/684/684 683/683/683 682/682/682
f 685/685/685 684/684/684 682/682/682
f 688/688/688 687/687/687 686/686/686
f 689/689/689 688/688/688 686/686/686
f 692/692/692 691/691/691 690/690/690
f 693/693/693 692/692/692 690/690/690
f 696/696/696 695/695/695 694/694/694
f 697/697/697 696/696/696 694/694/694
f 700/700/700 699/699/699 698/698/698
f 701/701/701 700/700/700 698/698/698
f 704/704/704 703/703/703 702/702/702
f 705/705/705 704/704/704 702/702/702
f 708/708/708 707/707/707 706/706/706
f 709/709/709 708/708/708 706/706/706
f 712/712/712 711/711/711 710/710/710
f 713/713/713 712/712/712 710/710/710
f 716/716/716 715/715/715 714/714/714
f 717/717/717 716/716/716 714/714/714
f 720/720/720 719/719/719 718/718/718
f 721/721/721 720/720/720 718/718/718
f 724/724/724 723/723/723 722/722/722
f 725/725/725 724/724/724 722/722/722
f 728/728/728 727/727/727 726/726/726
f 729/729/729 728/728/728 726/726/726
f 732/732/732 731/731/731 730/730/730
f 733/733/733 732/732/732 730/730/730
f 736/736/736 735/735/735 734/734/734
f 737/737/737 736/736/736 734/734/734
f 740/740/740 739/739/739 738/738/738
f 741/741/741 740/740/740 738/738/738
f 744/744/744 743/743/743 742/742/742
f 745/745/745 744/744/744 742/742/742
f 748/748/748 747/747/747 746/746/746
f 749/749/749 748/748/748 746/746/746
f 752/752/752 751/751/751 750/750/750
f 753/753/753 752/752/752 750/750/750
f 756/756/756 755/755/755 754/754/754
f 757/757/757 756/756/756 754/754/754
f 760/760/760 759/759/759 758/758/758
f 761/761/761 760/760/760 758/758/758
f 764/764/764 763/763/763 762/762/762
f 765/765/765 764/764/764 762/762/762
f 768/768/768 767/767/767 766/766/766
f 769/769/769 768/768/768 766/766/766
f 772/772/772 771/771/771 770/770/770
f 773/773/773 772/772/772 770/770/770
f 776/776/776 775/775/775 774/774/774
f 777/777/777 776/776/776 774/774/774
f 780/780/780 779/779/779 778/778/778
f 781/781/781 780/780/780 778/778/778
f 784/784/784 783/783/783 782/782/782
f 785/785/785 784/784/784 782/782/782
f 788/788/788 787/787/787 786/786/786
f 789/789/789 788/788/788 786/786/786
f 792/792/792 791/791/791 790/790/790
f 793/793/793 792/792/792 790/790/790
f 796/796/796 795/795/795 794/794/794
f 797/797/797 796/796/796 794/794/794
f 800/800/800 799/799/799 798/798/798
f 801/801/801 800/800/800 798/798/798
f 804/804/804 803/803/803 802/802/802
f 805/805/805 804/804/804 802/802/802
f 808/808/808 807/807/807 806/806/806
f 809/809/809 808/808/808 806/806/806
f 812/812/812 811/811/811 810/810/810
f 813/813/813 812/812/812 810/810/810
f 816/816/816 815/815/815 814/814/814
f 817/817/817 816/816/816 814/814/814
f 820/820/820 819/819/819 818/818/818
f 821/821/821 820/820/820 818/818/818
f 824/824/824 823/823/823 822/822/822
f 825/825/825 824/824/824 822/822/822
f 828/828/828 827/827/827 826/826/826
f 829/829/829 828/828/828 826/826/826
f 832/832/832 831/831/831 830/830/830
f 833/833/833 832/832/832 830/830/830
f 836/836/836 835/835/835 834/834/834
f 837/837/837 836/836/836 834/834/834
f 840/840/840 839/839/839 838/838/838
f 841/841/841 840/840/840 838/838/838
f 844/844/844 843/843/843 842/842/842
f 845/845/845 844/844/844 842/842/842
f 848/848/848 847/847/847 846/846/846
f 847/847/847 849/849/849 846/846/846
f 850/850/850 847/847/847 848/848/848
f 846/846/846 849/849/849 851/851/851
f 852/852/852 850/850/850 848/848/848
f 849/849/849 853/853/853 851/851/851
f 853/853/853 850/850/850 852/852/852
f 851/851/851 853/853/853 852/852/852
