g 13_LP
v 14.1115932 -1.47843361 -44.4395714
v 32.499855 -2.50400639 -44.4395714
v 32.499855 -2.50400639 -42.8602562
v 39.4998627 -0.704006195 -33.8602486
v 39.4998627 -0.704006195 -39.4750862
v 39.4998589 -2.50400639 -42.8602486
v 39.4998627 -2.2040062 -33.8602409
v 8.39009285 -0.704006195 -33.8602104
v 8.39008236 -0.704006195 -40.2228813
v 16.2216015 -0.704006195 -40.2627602
v 21.6255169 -0.704006195 -40.2627602
v 39.4998627 -0.704006195 -33.8602486
v 32.4998589 -0.704006195 -40.2627525
v 35.4998627 -0.704006195 -39.4750938
v 39.4998627 -0.704006195 -39.4750862
v 35.4998627 -0.704006195 -39.4750938
v 35.499855 -2.50400639 -42.8602486
v 39.4998589 -2.50400639 -42.8602486
v 39.4998627 -0.704006195 -39.4750862
v 32.4998589 -0.704006195 -40.2627525
v 32.499855 -2.50400639 -42.8602562
v 35.499855 -2.50400639 -42.8602486
v 35.4998627 -0.704006195 -39.4750938
v 21.6255169 -0.704006195 -40.2627602
v 14.1115932 -1.47843361 -44.4395714
v 32.499855 -2.50400639 -42.8602562
v 32.4998589 -0.704006195 -40.2627525
v 16.2216015 -0.704006195 -40.2627602
v 9.02211094 -1.20400906 -44.4395714
v 14.1115932 -1.47843361 -44.4395714
v 21.6255169 -0.704006195 -40.2627602
v 8.39008236 -0.704006195 -40.2228813
v 8.39007854 -1.20400906 -42.8602486
v 9.02211094 -1.20400906 -44.4395714
v 16.2216015 -0.704006195 -40.2627602
v -1.98991811 -1.20400906 -42.8602562
v -7.58991718 -1.20400906 -42.8602562
v -9.55002975 -1.20400906 -44.4395714
v -1.98991764 -1.20400906 -44.4395714
v 2.79008365 -1.20400906 -42.8602486
v 2.79008365 -1.20400906 -44.4395714
v 8.39007854 -1.20400906 -42.8602486
v 9.02211094 -1.20400906 -44.4395714
v -9.55002975 -1.20400906 -44.4395714
v -9.55002975 -0.704006195 -39.610218
v -14.0500298 -0.704006195 -39.610218
v -14.0500298 -1.20400906 -44.4395714
v -15.6851931 -1.20400906 -44.4395714
v -23.5618954 -0.704006195 -39.610218
v -20.744463 -1.20400906 -44.4395714
v -29.3049088 -0.704006195 -39.610218
v -34.2941513 -1.20400906 -44.2960014
v -39.4999771 -0.704006195 -39.610218
v -38.1958389 -0.954007149 -42.5991936
v -7.58991718 -1.20400906 -42.8602562
v -7.58991718 -0.704006195 -39.610218
v -9.55002975 -0.704006195 -39.610218
v -9.55002975 -1.20400906 -44.4395714
v -14.0500298 -0.704006195 -39.610218
v -14.0500307 -0.704006195 -33.860218
v -23.5618954 -0.704006195 -39.610218
v -39.4999771 -0.704006195 -33.860218
v -29.3049088 -0.704006195 -39.610218
v -39.4999771 -0.704006195 -39.610218
v -7.58991718 -0.704006195 -39.610218
v -7.58991671 -0.704006195 -33.8602104
v -9.55003071 -0.704006195 -33.8602333
v -9.55002975 -0.704006195 -39.610218
v -39.0999718 22.0960026 -14.6593122
v -39.0999718 21.7960014 -14.6593122
v 39.0998726 21.7960014 -14.6593351
v 39.0998726 22.0960026 -14.6593351
v 39.0998688 22.0960026 -24.0597916
v 39.099865 21.7960014 -33.460247
v 39.099865 22.0960026 -33.460247
v 39.0998688 21.7960014 -24.0597916
v 39.0998726 22.0960026 -14.6593351
v 39.0998726 21.7960014 -14.6593351
v -39.0999756 22.0960026 -24.0597649
v -39.0999718 21.7960014 -14.6593122
v -39.0999718 22.0960026 -14.6593122
v -39.0999756 21.7960014 -24.0597649
v -39.0999794 22.0960026 -33.4602165
v -39.0999794 21.7960014 -33.4602165
v -14.0500288 22.0960026 -33.4602165
v -14.0500288 21.7960014 -33.4602165
v -39.0999794 21.7960014 -33.4602165
v -39.0999794 22.0960026 -33.4602165
v 39.099865 22.0960026 -33.460247
v 39.099865 21.7960014 -33.460247
v -9.5500288 21.7960014 -33.4602242
v -9.5500288 22.0960026 -33.4602242
v -9.5500288 22.0960026 -33.4602242
v -9.5500288 22.0960026 -34.0602226
v 39.6998634 22.0960026 -34.0602455
v 39.099865 22.0960026 -33.460247
v 39.6998672 22.0960026 -24.0597916
v 39.0998688 22.0960026 -24.0597916
v 39.6998711 22.0960026 -14.0593328
v 39.0998726 22.0960026 -14.6593351
v -39.6999702 22.0960026 -14.05931
v -39.0999718 22.0960026 -14.6593122
v -39.6999741 22.0960026 -24.0597649
v -39.0999756 22.0960026 -24.0597649
v -39.6999779 22.0960026 -34.0602226
v -39.0999794 22.0960026 -33.4602165
v -14.0500288 22.0960026 -34.0602226
v -14.0500288 22.0960026 -33.4602165
v 39.0998726 21.7960014 -14.6593351
v -39.0999718 21.7960014 -14.6593122
v -39.0999756 21.7960014 -24.0597649
v 39.0998688 21.7960014 -24.0597916
v -9.55003071 21.7960033 -32.2602119
v 39.099865 21.7960014 -33.460247
v -9.5500288 21.7960014 -33.4602242
v -14.0500307 21.7960033 -32.2602196
v -14.0500288 21.7960014 -33.4602165
v -39.0999794 21.7960014 -33.4602165
v 0.400082767 21.7960052 -33.860218
v 8.59008312 21.7960052 -43.560215
v 8.59008312 21.7960052 -33.860218
v 0.400082767 21.7960052 -43.560215
v -7.78991747 21.7960052 -43.560215
v -7.78991795 21.7960052 -33.860218
v 39.4999924 0.396008492 36.2633705
v 39.2496071 0.245775223 34.863369
v 39.4999924 0.396008492 34.863369
v 36.8084373 -1.21892834 36.2633705
v 36.8084373 -1.21892834 34.863369
v 39.4999924 0.396008492 36.363369
v 36.8084373 -0.218928337 36.363369
v 39.4999924 1.39600849 36.363369
v 36.8084373 -1.21892834 36.363369
v 39.4999924 0.0960092545 36.363369
v 36.8084373 -1.51892853 36.363369
v 39.4999924 1.39600849 36.363369
v 36.8084373 -0.218928337 36.363369
v 36.8084373 -0.218928337 36.2633705
v 39.4999924 1.39600849 36.2633705
v 39.4999924 0.396008492 36.363369
v 39.4999924 1.39600849 36.363369
v 39.4999924 1.39600849 37.1633682
v 39.4999924 0.396008492 37.1633682
v 39.4999924 1.39600849 36.2633705
v 39.5999908 0.396008492 36.2633705
v 39.5999908 1.39600849 36.2633705
v 39.4999924 0.396008492 36.2633705
v 36.8084373 -1.21892834 36.2633705
v 36.8084373 -0.218928337 36.2633705
v 39.5999908 1.39600849 36.2633705
v 39.5999908 0.396008492 36.2633705
v 39.5999908 0.396008492 37.1633682
v 39.5999908 1.39600849 37.1633682
v 39.4999924 0.396008492 37.1633682
v 39.4999924 1.39600849 37.1633682
v 39.5999908 1.39600849 37.1633682
v 39.5999908 0.396008492 37.1633682
v 39.4999924 1.39600849 36.363369
v 39.5999908 1.39600849 37.1633682
v 39.4999924 1.39600849 37.1633682
v 39.5999908 1.39600849 36.2633705
v 39.4999924 1.39600849 36.2633705
v 38.4091911 0.741523743 34.7633705
v 38.4091911 0.741523743 34.863369
v 36.8084373 -0.218928337 34.863369
v 36.8084373 -0.218928337 34.7633705
v 36.8084373 -1.21892834 34.863369
v 36.8084373 -0.218928337 34.863369
v 38.4091911 0.741523743 34.863369
v 39.2496071 0.245775223 34.863369
v -7.60991764 22.0960026 -34.0602226
v -7.60991764 21.7960014 -34.0602226
v 8.39008331 21.7960014 -34.0602303
v 8.39008427 22.0960026 -34.0602226
v -9.79998589 2.49600983 42.2133827
v -9.79998589 2.49600983 33.2633743
v -9.79998589 13.2960091 33.2633743
v -9.79998589 13.2960091 42.2133827
v 4.1500082 16.1960068 36.5133781
v -5.85045433 13.496007 36.5133743
v -5.85045433 16.1960068 36.5133781
v 4.15000772 13.4960079 36.5133781
v 6.85000706 16.1960068 36.5133781
v 6.85000706 13.496007 36.5133781
v 4.15000772 17.6960068 36.5133781
v 6.85000706 17.6960068 36.5133781
v -5.85045433 16.1960068 36.5133781
v -5.85045433 13.496007 36.5133743
v -5.85045433 13.4960079 31.5133743
v -5.85045433 16.1960068 31.5133743
v -1.84999275 13.496007 18.2633743
v -1.84999287 16.1960068 18.2633743
v -14.8504543 16.1960068 18.2633743
v -14.8504543 13.4960079 18.2633743
v -14.8504543 16.1960068 31.5133743
v -14.8504543 13.4960079 31.5133743
v -14.8504543 13.4960079 18.2633743
v -14.8504543 16.1960068 18.2633743
v -5.85045433 16.1960068 31.5133743
v -5.85045433 13.4960079 31.5133743
v -14.8504543 13.4960079 31.5133743
v -14.8504543 16.1960068 31.5133743
v 6.85000706 13.4960079 33.2633743
v 6.85000706 13.496007 36.5133781
v 6.85000706 16.1960068 36.5133781
v 6.85000706 16.1960068 33.2633743
v 6.85000706 17.6960068 36.5133781
v 6.85000706 18.1960068 33.2633743
v 7.85000706 16.1960068 27.2633743
v -1.84999228 16.1960068 27.2633743
v -1.84999228 13.496007 27.2633743
v 7.85000706 13.4960079 27.2633743
v 4.1500082 16.1960068 33.2633743
v 6.85000706 16.1960068 33.2633743
v 6.85000706 18.1960068 33.2633743
v 4.15000772 18.1960068 33.2633743
v 4.1500082 16.1960068 36.5133781
v 4.1500082 16.1960068 33.2633743
v 4.15000772 18.1960068 33.2633743
v 4.15000772 17.6960068 36.5133781
v -1.84999228 13.496007 27.2633743
v -1.84999228 16.1960068 27.2633743
v -1.84999287 16.1960068 18.2633743
v -1.84999275 13.496007 18.2633743
v 7.85000706 16.1960068 33.2633743
v 7.85000706 16.1960068 27.2633743
v 7.85000706 13.4960079 27.2633743
v 7.85000706 13.496007 33.2633743
v -39.4999962 1.59601021 10.763381
v -36.4999962 1.59601021 10.763381
v -36.4999962 4.79601002 10.763381
v -39.4999962 4.79601002 10.763381
v -36.4999962 1.59601021 10.763381
v -36.4999962 1.59601021 6.763381
v -36.4999962 4.79601002 6.763381
v -36.4999962 4.79601002 10.763381
v -39.4999962 4.79601002 6.763381
v -36.4999962 4.79601002 6.763381
v -36.4999962 1.59601021 6.763381
v -39.4999962 1.59601021 6.763381
v -39.4999962 4.79601002 10.763381
v -36.4999962 4.79601002 10.763381
v -36.4999962 4.79601002 6.763381
v -39.4999962 4.79601002 6.763381
v 39.3999825 13.2960072 26.7633667
v 39.4999924 13.2960033 26.7633667
v 39.4999924 13.2960033 26.2133675
v 39.3999825 13.2960033 26.2133675
v 39.4999962 0.396008492 34.7633705
v 36.0000076 2.49600983 34.7633705
v 36.0000076 2.49600983 33.363369
v 39.4999962 0.396007538 33.363369
v 13.5000076 2.49600983 34.863369
v 9.79998684 2.49600983 34.863369
v 9.79998589 2.49600983 33.363369
v 13.600009 2.49600983 33.363369
v 13.600008 2.49600983 34.863369
v 15.100008 2.49600983 34.7633705
v 15.100009 2.49600983 33.363369
v 36.0000076 2.49600983 34.7633705
v 36.0000076 2.49600983 33.363369
v 15.100008 2.49600983 34.7633705
v 15.100008 1.89600849 42.3133812
v 13.600008 1.89600849 42.3133812
v 13.600008 2.49600983 34.863369
v 13.5000076 2.49600983 34.863369
v 13.5000067 2.49600983 42.2133751
v 9.79998589 2.49600983 42.2133751
v 9.79998684 2.49600983 34.863369
v 13.6000071 2.49600983 42.3133774
v 13.600008 1.89600849 42.3133812
v 9.79998589 1.89600849 42.3133774
v 9.79998589 2.49600983 42.3133774
v 13.6000071 3.49600983 42.3133774
v 9.79998589 3.49600983 42.3133774
v 13.600008 2.49600983 34.863369
v 13.600008 1.89600849 42.3133812
v 13.6000071 2.49600983 42.3133774
v 13.600008 3.49600983 34.863369
v 13.6000071 3.49600983 42.3133774
v 36.0000076 2.49600983 34.863369
v 36.0000076 2.19600964 34.863369
v 15.2000084 2.19600964 34.863369
v 15.2000084 2.49600983 34.863369
v 36.0000076 3.49600983 34.863369
v 15.2000084 3.49600983 34.863369
v 13.5000067 2.49600983 42.2133751
v 13.5000067 3.49600983 42.2133751
v 9.79998589 3.49600983 42.2133751
v 9.79998589 2.49600983 42.2133751
v 13.5000076 2.49600983 34.863369
v 13.5000076 3.49600983 34.863369
v 13.5000067 3.49600983 42.2133751
v 13.5000067 2.49600983 42.2133751
v 13.5000076 2.49600983 34.863369
v 13.600008 2.49600983 34.863369
v 13.600008 3.49600983 34.863369
v 13.5000076 3.49600983 34.863369
v 13.5000076 3.49600983 34.863369
v 13.600008 3.49600983 34.863369
v 13.6000071 3.49600983 42.3133774
v 13.5000067 3.49600983 42.2133751
v 9.79998589 3.49600983 42.3133774
v 9.79998589 3.49600983 42.2133751
v 36.0000076 2.49600983 34.7633705
v 36.0000076 3.49600983 34.7633705
v 15.100008 3.49600983 34.7633705
v 15.100008 2.49600983 34.7633705
v 36.0000076 2.49600983 34.863369
v 36.0000076 3.49600983 34.863369
v 39.4999962 1.39600849 34.863369
v 39.4999924 0.396008492 34.863369
v 39.4999962 0.396008492 34.7633705
v 39.4999962 1.39600849 34.7633705
v 36.0000076 3.49600983 34.7633705
v 36.0000076 2.49600983 34.7633705
v 39.4999924 0.396008492 34.863369
v 39.4999962 1.39600849 34.863369
v 39.4999962 1.39600849 34.7633705
v 39.4999962 0.396008492 34.7633705
v 36.0000076 3.49600983 34.863369
v 36.0000076 3.49600983 34.7633705
v 39.4999962 1.39600849 34.7633705
v 39.4999962 1.39600849 34.863369
v 15.2000084 3.49600983 34.863369
v 15.100008 3.49600983 34.7633705
v 36.0000076 3.49600983 34.7633705
v 36.0000076 3.49600983 34.863369
v 15.100008 2.49600983 34.7633705
v 15.100008 3.49600983 34.7633705
v 15.100008 2.89600849 42.3133812
v 15.100008 1.89600849 42.3133812
v 15.2000084 2.49600983 34.863369
v 15.2000074 2.89600849 42.3133774
v 15.2000084 3.49600983 34.863369
v 15.2000084 1.89600849 42.3133774
v 15.2000084 1.65968895 41.522686
v 15.2000084 2.19600964 34.863369
v 15.100008 2.89600849 42.3133812
v 15.100008 3.49600983 34.7633705
v 15.2000084 3.49600983 34.863369
v 15.2000074 2.89600849 42.3133774
v 15.2000074 2.89600849 42.3133774
v 15.2000084 1.89600849 42.3133774
v 15.100008 1.89600849 42.3133812
v 15.100008 2.89600849 42.3133812
v 39.4999924 0.396008492 34.863369
v 36.0000076 2.19600964 34.863369
v 36.0000076 2.49600983 34.863369
v 38.4091911 0.741523743 34.863369
v 39.2496071 0.245775223 34.863369
v 39.4999962 -1.36399078 3.46338177
v 36.4999962 -1.36399078 3.46338177
v 36.4999962 1.63600922 3.46338177
v 39.4999962 1.63600922 3.46338177
v 39.4999962 1.63600922 9.46338081
v 36.4999962 1.63600922 9.46338081
v 36.4999962 -1.36399078 9.46338081
v 39.4999962 -1.36399078 9.46338081
v 39.4999962 1.63600922 3.46338177
v 36.4999962 1.63600922 3.46338177
v 36.4999962 1.63600922 9.46338081
v 39.4999962 1.63600922 9.46338081
v 36.4999962 1.63600922 3.46338177
v 36.4999962 -1.36399078 3.46338177
v 36.4999962 -1.36399078 9.46338081
v 36.4999962 1.63600922 9.46338081
v 4.1500082 16.1960068 36.5133781
v -5.85045433 16.1960068 36.5133781
v -5.85045433 16.1960068 31.5133743
v 4.1500082 16.1960068 33.2633743
v -1.84999228 16.1960068 27.2633743
v -14.8504543 16.1960068 31.5133743
v -14.8504543 16.1960068 18.2633743
v -1.84999287 16.1960068 18.2633743
v 6.85000706 16.1960068 33.2633743
v 7.85000706 16.1960068 27.2633743
v 7.85000706 16.1960068 33.2633743
v 6.98500729 17.8960075 36.6758766
v 4.01500797 17.8960075 36.6758766
v 4.01500797 18.4460068 33.100872
v 6.98500729 18.4460068 33.100872
v 4.01500797 17.6960068 36.6758766
v 4.01500797 17.8960075 36.6758766
v 6.98500729 17.8960075 36.6758766
v 6.98500729 17.6960068 36.6758766
v 4.01500797 18.246006 33.100872
v 4.01500797 18.4460068 33.100872
v 4.01500797 17.8960075 36.6758766
v 4.01500797 17.6960068 36.6758766
v 6.98500729 17.6960068 36.6758766
v 6.98500729 17.8960075 36.6758766
v 6.98500729 18.4460068 33.100872
v 6.98500729 18.246006 33.100872
v 6.98500729 18.246006 33.100872
v 6.98500729 18.4460068 33.100872
v 4.01500797 18.4460068 33.100872
v 4.01500797 18.246006 33.100872
v 39.6999931 13.2960081 33.5633659
v 39.6999931 13.4960089 33.5633659
v 39.6999931 13.496007 13.263382
v 39.6999931 13.2960081 13.263382
v -1.84999275 13.496007 18.2633743
v 7.85000706 13.4960079 27.2633743
v -1.84999228 13.496007 27.2633743
v 39.6999931 13.496007 13.263382
v -39.6999931 13.496007 13.263382
v 39.6999931 13.4960089 33.5633659
v -14.8504543 13.4960079 18.2633743
v -39.6999931 13.4960089 33.5633659
v -14.8504543 13.4960079 31.5133743
v -9.99998569 13.4960089 33.5633659
v -5.85045433 13.4960079 31.5133743
v -9.99998569 13.496007 42.4133835
v -5.85045433 13.496007 36.5133743
v 7.85000706 13.496007 33.2633743
v 9.99998569 13.496007 42.4133835
v 9.99998569 13.4960089 33.5633659
v 6.85000706 13.496007 36.5133781
v 6.85000706 13.4960079 33.2633743
v 9.99998569 13.496007 42.4133835
v 9.99998569 13.4960089 33.5633659
v 9.99998569 13.2960072 33.5633659
v 9.99998569 13.2960081 42.4133835
v 39.6999931 13.2960081 33.5633659
v 9.99998569 13.2960072 33.5633659
v 9.99998569 13.4960089 33.5633659
v 39.6999931 13.4960089 33.5633659
v -39.6999931 13.2960081 33.5633659
v -39.6999931 13.2960081 13.263382
v -39.6999931 13.496007 13.263382
v -39.6999931 13.4960089 33.5633659
v 39.6999931 13.496007 13.263382
v -39.6999931 13.496007 13.263382
v -39.6999931 13.2960081 13.263382
v 39.6999931 13.2960081 13.263382
v 9.99998569 13.2960081 42.4133835
v -9.99998569 13.2960081 42.4133835
v -9.99998569 13.496007 42.4133835
v 9.99998569 13.496007 42.4133835
v -9.99998569 13.496007 42.4133835
v -9.99998569 13.2960081 42.4133835
v -9.99998569 13.2960072 33.5633659
v -9.99998569 13.4960089 33.5633659
v -39.6999931 13.2960081 33.5633659
v -39.6999931 13.4960089 33.5633659
v -9.99998569 13.4960089 33.5633659
v -9.99998569 13.2960072 33.5633659
v 15.100009 -1.20399189 37.1633682
v 15.100009 -1.20399189 33.3633766
v 39.4999962 -1.20399189 33.363369
v 39.4999962 -1.20399189 37.1633682
v 39.4999924 0.396008492 37.1633682
v 15.2000084 0.396008492 37.1633682
v 15.100009 -1.20399189 37.1633682
v 39.4999962 -1.20399189 37.1633682
v 15.2000084 0.396008492 37.1633682
v 15.2000084 0.396008492 33.3633766
v 15.100009 -1.20399189 33.3633766
v 15.100009 -1.20399189 37.1633682
v 39.4999924 0.396008492 37.1633682
v 37.9445839 0.396008492 42.3133812
v 15.2000084 1.89600849 42.3133774
v 15.2000084 0.396008492 37.1633682
v 9.79998589 1.89600849 33.3633766
v 15.2000084 0.396008492 33.3633766
v 15.2000084 0.396008492 37.1633682
v 15.2000084 1.89600849 42.3133774
v 39.4999962 0.396007538 33.363369
v 39.4999924 0.396008492 37.1633682
v 39.4999962 -1.20399189 37.1633682
v 39.4999962 -1.20399189 33.363369
v 6.85000706 16.1960068 33.2633743
v 7.85000706 16.1960068 33.2633743
v 7.85000706 13.496007 33.2633743
v 6.85000706 13.4960079 33.2633743
v 39.4999962 -0.452525139 13.4633818
v 39.4999962 0.396007538 33.363369
v 39.4999924 13.2960024 33.363369
v 39.4999924 13.2960033 13.4633846
v 39.4998665 21.7960014 -14.2593336
v -39.4999962 9.39600945 -14.2593107
v -39.4999657 21.7960014 -14.2593069
v -26.4999943 9.39600754 -14.2593336
v 39.4998665 7.89600945 -14.2593336
v -26.4999943 7.89600945 -14.2593107
v -39.6999702 21.7960014 -14.0593061
v -39.6999702 22.0960026 -14.05931
v 39.6998711 22.0960026 -14.0593328
v 39.6998711 21.7960014 -14.0593328
v -39.4999962 -0.704006195 -14.2593107
v -39.4999771 -0.704006195 -33.860218
v -39.4999733 21.7960014 -33.860218
v -39.4999657 21.7960014 -14.2593069
v -39.6999779 21.7960014 -34.0602226
v -39.6999779 22.0960026 -34.0602226
v -39.6999702 22.0960026 -14.05931
v -39.6999702 21.7960014 -14.0593061
v -7.60991764 2.49600983 -33.860218
v -9.55003071 -0.704006195 -33.8602333
v -7.60991764 -0.704006195 -33.860218
v -9.55003071 2.49600887 -33.8602333
v -7.60991764 3.99602413 -33.860218
v -9.55003071 3.99602413 -33.8602333
v -7.60991764 20.2960052 -33.860218
v -9.55003071 20.2960052 -33.860218
v -9.5500288 21.496006 -33.8602257
v -7.60991764 21.496006 -33.8602257
v -7.60991764 21.7960014 -33.8602257
v -9.5500288 21.7960014 -33.8602333
v 8.39008331 21.7960014 -34.0602303
v 39.6998634 21.7960014 -34.0602455
v 39.6998634 22.0960026 -34.0602455
v 8.39008427 22.0960026 -34.0602226
v 8.39009285 -0.704006195 -33.8602104
v 39.4998627 -0.704006195 -33.8602486
v 39.4998589 21.7960014 -33.8602486
v 8.39008427 21.7960014 -33.8602333
v -14.0500307 21.7960014 -33.860218
v -39.4999733 21.7960014 -33.860218
v -39.4999771 -0.704006195 -33.860218
v -14.0500307 -0.704006195 -33.860218
v -39.6999779 22.0960026 -34.0602226
v -39.6999779 21.7960014 -34.0602226
v -14.0500288 21.7960014 -34.0602226
v -14.0500288 22.0960026 -34.0602226
v -9.5500288 22.0960026 -34.0602226
v -9.5500288 21.7960014 -34.0602226
v -7.60991764 21.7960014 -34.0602226
v -7.60991764 22.0960026 -34.0602226
v -39.4999962 9.39600945 -14.2593107
v -26.4999943 9.39600754 -14.2593336
v -26.4999943 9.39600945 13.4633818
v -39.4999962 9.39600945 13.4633818
v 39.0999985 8.39600945 -14.2593107
v 39.4999962 8.39600945 -14.2593107
v 39.4999962 8.39600945 13.4633818
v 39.0999985 8.39600945 13.4633818
v -26.4999943 9.39600754 -14.2593336
v -26.4999943 7.89600945 -14.2593107
v -26.4999943 7.89600945 13.4633818
v -26.4999943 9.39600945 13.4633818
v 39.0999985 7.89600945 -14.2593107
v 39.0999985 8.39600945 -14.2593107
v 39.0999985 8.39600945 13.4633818
v 39.0999985 7.89600945 13.4633818
v -14.1262474 8.69600868 4.88138676
v 21.8737526 8.69600868 4.78138828
v 21.8737526 8.19600868 7.03138828
v -14.1262474 8.19600868 7.03138828
v -14.1262474 8.19600868 2.63138676
v 21.8737526 8.19600868 2.53138828
v 21.8737526 8.69600868 4.78138828
v -14.1262474 8.69600868 4.88138676
v 21.8737526 8.69600868 4.78138828
v 21.8737526 8.19600868 2.53138828
v 21.8737526 8.19600868 7.03138828
v 21.8737526 7.89600945 7.03138828
v 21.8737526 7.89600945 2.53138828
v -14.1262474 8.69600868 4.88138676
v -14.1262474 8.19600868 7.03138828
v -14.1262474 8.19600868 2.63138676
v -14.1262474 7.89600945 2.63138676
v -14.1262474 7.89600945 7.03138828
v -14.1262474 8.19600868 2.63138676
v -14.1262474 7.89600945 2.63138676
v 21.8737526 7.89600945 2.53138828
v 21.8737526 8.19600868 2.53138828
v 21.8737526 8.19600868 7.03138828
v 21.8737526 7.89600945 7.03138828
v -14.1262474 7.89600945 7.03138828
v -14.1262474 8.19600868 7.03138828
v -39.4999962 1.12021255 -3.73661709
v -39.4999962 4.79601002 6.763381
v -39.4999962 1.59601021 6.763381
v -39.4999962 9.39600945 -14.2593107
v -39.4999962 -0.704006195 -5.73661709
v -39.4999962 -0.704006195 -14.2593107
v -39.4999962 4.79601002 10.763381
v -39.4999962 9.39600945 13.4633818
v -39.4999962 1.59601021 10.763381
v -39.4999962 1.74679565 13.4633818
v 39.4999962 1.63600922 9.46338081
v 39.4999962 -1.36399078 9.46338081
v 39.4999962 -0.452525139 13.4633818
v 39.4999962 8.39600945 13.4633818
v 39.4999962 1.63600922 3.46338177
v 39.4999962 8.39600945 -14.2593107
v 39.4999962 -1.36399078 3.46338177
v 39.4999962 -1.36399078 -14.2593107
v -39.5 13.2960033 13.4634085
v -39.5000038 7.89600945 13.4634085
v 39.4999962 7.89600945 13.4633837
v 39.4999924 13.2960033 13.4633846
v 39.4998627 -2.2040062 -33.8602409
v 39.4998703 -1.36399078 -14.2593336
v 39.4998665 21.7960014 -14.2593336
v 39.4998589 21.7960014 -33.8602486
v 39.6998711 21.7960014 -14.0593328
v 39.6998711 22.0960026 -14.0593328
v 39.6998634 22.0960026 -34.0602455
v 39.6998634 21.7960014 -34.0602455
v -9.79998589 2.49600983 33.2633743
v -39.4999886 2.11468029 33.3633957
v -39.4999847 13.2960033 33.3633919
v -9.79998589 13.2960091 33.2633743
v -39.5 13.2960033 13.4634085
v -39.4999847 13.2960033 33.3633919
v -39.4999886 2.11468029 33.3633957
v -39.4999962 1.74679565 13.4633818
v -9.79998589 13.2960091 42.2133827
v -8.59998608 1.89600945 42.2133827
v -9.79998589 2.49600983 42.2133827
v 9.79998589 13.2960091 42.2133827
v 9.79998589 1.89600945 42.2133827
v 9.79998589 2.49600983 33.2633743
v 9.79998589 2.49600983 42.2133751
v 9.79998589 13.2960091 42.2133827
v 9.79998589 13.2960091 33.2633743
v 39.4999962 -1.20399189 33.363369
v 15.100009 -1.20399189 33.3633766
v 39.4999924 13.2960024 33.363369
v 9.79998589 1.89600849 33.3633766
v 9.79998589 13.2960091 33.2633743
v -7.73991728 -0.704006195 -34.0602074
v -7.73991728 -1.20400906 -43.5102196
v -7.73991728 21.4960041 -43.5102196
v -7.73991728 21.4960041 -33.860218
v -7.78991747 21.7960052 -43.560215
v -7.78991795 21.7960052 -33.860218
v -7.78991795 21.496006 -33.860218
v -7.78991747 21.496006 -43.560215
v 8.54008198 -1.20400906 -43.5102119
v 8.54008389 21.496006 -43.5102119
v -7.73991728 21.4960041 -43.5102196
v -7.73991728 -1.20400906 -43.5102196
v -7.78991747 21.496006 -43.560215
v 8.59008312 21.496006 -43.560215
v 8.59008312 21.7960052 -43.560215
v -7.78991747 21.7960052 -43.560215
v 8.39008331 21.4960041 -33.860218
v 8.54008389 21.496006 -43.5102119
v 8.54008198 -1.20400906 -43.5102119
v 8.39009285 -0.704006195 -33.8602104
v 8.59008312 21.7960052 -43.560215
v 8.59008312 21.496006 -43.560215
v 8.59008312 21.496006 -33.860218
v 8.59008312 21.7960052 -33.860218
v -14.0500307 26.496006 -32.2602196
v -9.55003071 26.496006 -32.2602119
v -9.55003071 21.7960033 -32.2602119
v -14.0500307 21.7960033 -32.2602196
v -9.45003033 26.6960068 -32.2602119
v -9.45003033 26.496006 -32.2602119
v -14.1500311 26.496006 -32.2602196
v -14.1500311 26.6960068 -32.2602196
v -14.1500311 26.6960068 -39.7102242
v -14.1500311 26.496006 -39.7102165
v -9.45003033 26.496006 -39.7102242
v -9.45003033 26.6960068 -39.7102242
v -9.45003033 26.6960068 -39.7102242
v -9.45003033 26.496006 -39.7102242
v -9.45003033 26.496006 -32.2602119
v -9.45003033 26.6960068 -32.2602119
v -14.1500311 26.6960068 -32.2602196
v -14.1500311 26.496006 -32.2602196
v -14.1500311 26.496006 -39.7102165
v -14.1500311 26.6960068 -39.7102242
v -14.0500307 -0.704006195 -33.860218
v -14.1500311 -0.704006195 -39.7102165
v -14.1500311 26.496006 -39.7102165
v -14.0500307 21.7960014 -33.860218
v -14.0500307 26.496006 -32.2602196
v -14.0500307 21.7960033 -32.2602196
v -9.55003071 26.496006 -32.2602119
v -9.5500288 21.7960014 -33.8602333
v -9.55003071 21.7960033 -32.2602119
v -9.45003033 26.496006 -39.7102242
v -9.55003071 -0.704006195 -33.8602333
v -9.45003033 -0.704006195 -39.7102165
v -14.1500311 26.496006 -39.7102165
v -14.1500311 -0.704006195 -39.7102165
v -9.45003033 -0.704006195 -39.7102165
v -9.45003033 26.496006 -39.7102242
v 21.8737526 7.89600945 7.03138828
v 39.0999985 7.89600945 13.4633818
v -26.4999943 7.89600945 13.4633818
v -14.1262474 7.89600945 7.03138828
v 21.8737526 7.89600945 2.53138828
v -26.4999943 7.89600945 -14.2593107
v 39.0999985 7.89600945 -14.2593107
v -14.1262474 7.89600945 2.63138676
v -13.6500292 26.6960068 -32.6602135
v -14.1500311 26.6960068 -32.2602196
v -14.1500311 26.6960068 -39.7102242
v -13.6500292 26.6960068 -39.2102242
v -9.45003033 26.6960068 -39.7102242
v -9.95003033 26.6960068 -32.6602135
v -9.45003033 26.6960068 -32.2602119
v -9.95003033 26.6960068 -39.2102242
vt 0.303074807 0.691571295
vt 0.182761535 0.691571116
vt 0.182761535 0.701904655
vt 0.136960968 0.760790944
vt 0.136960968 0.724053383
vt 0.136961028 0.701904655
vt 0.136960968 0.760790944
vt 0.34051013 0.760790944
vt 0.340510249 0.719160676
vt 0.289269149 0.718899727
vt 0.253911614 0.718899727
vt 0.136960968 0.760790944
vt 0.182761446 0.718899727
vt 0.163132712 0.724053383
vt 0.136960968 0.724053383
vt 0.163132712 0.724053383
vt 0.163132712 0.701904655
vt 0.136961028 0.701904655
vt 0.136960968 0.724053383
vt 0.182761446 0.718899727
vt 0.182761535 0.701904655
vt 0.163132712 0.701904655
vt 0.163132712 0.724053383
vt 0.253911614 0.718899727
vt 0.303074807 0.691571295
vt 0.182761535 0.701904655
vt 0.182761446 0.718899727
vt 0.289269149 0.718899727
vt 0.336374909 0.691571116
vt 0.303074807 0.691571295
vt 0.253911614 0.718899727
vt 0.340510249 0.719160676
vt 0.340510249 0.701904655
vt 0.336374909 0.691571116
vt 0.289269149 0.718899727
vt 0.408425897 0.701904655
vt 0.445066303 0.701904655
vt 0.457891166 0.691571116
vt 0.408425897 0.691571116
vt 0.377150625 0.701904655
vt 0.377150625 0.691571295
vt 0.340510249 0.701904655
vt 0.336374909 0.691571116
vt 0.457891166 0.691571116
vt 0.457891166 0.723169327
vt 0.48733446 0.723169327
vt 0.48733446 0.691571116
vt 0.498033196 0.691571295
vt 0.549569905 0.723169327
vt 0.531135619 0.691571295
vt 0.587146103 0.723169327
vt 0.619790494 0.692510664
vt 0.653851688 0.723169327
vt 0.645318866 0.703612566
vt 0.445066303 0.701904655
vt 0.445066303 0.723169327
vt 0.457891166 0.723169327
vt 0.457891166 0.691571116
vt 0.48733446 0.723169327
vt 0.48733446 0.760791183
vt 0.549569905 0.723169327
vt 0.653851688 0.760791183
vt 0.587146103 0.723169327
vt 0.653851688 0.723169327
vt 0.445066303 0.723169327
vt 0.445066303 0.760791183
vt 0.457891166 0.760791183
vt 0.457891166 0.723169327
vt 0.138364926 0.778068185
vt 0.138364926 0.778068185
vt 0.611135304 0.778068423
vt 0.611135304 0.778068423
vt 0.611135244 0.834900498
vt 0.611135244 0.891732514
vt 0.611135244 0.891732514
vt 0.611135244 0.834900498
vt 0.611135304 0.778068423
vt 0.611135304 0.778068423
vt 0.138364926 0.834900379
vt 0.138364926 0.778068185
vt 0.138364926 0.778068185
vt 0.138364926 0.834900379
vt 0.138364926 0.891732395
vt 0.138364926 0.891732395
vt 0.289808571 0.891732395
vt 0.289808571 0.891732395
vt 0.138364926 0.891732395
vt 0.138364926 0.891732395
vt 0.611135244 0.891732514
vt 0.611135244 0.891732514
vt 0.317014098 0.891732395
vt 0.317014098 0.891732395
vt 0.317014098 0.891732395
vt 0.317014098 0.895359874
vt 0.614762545 0.895359993
vt 0.611135244 0.891732514
vt 0.614762545 0.834900498
vt 0.611135244 0.834900498
vt 0.614762545 0.774441123
vt 0.611135304 0.778068423
vt 0.134737596 0.774440885
vt 0.138364926 0.778068185
vt 0.134737447 0.834900379
vt 0.138364926 0.834900379
vt 0.134737447 0.895359874
vt 0.138364926 0.891732395
vt 0.289808571 0.895359874
vt 0.289808571 0.891732395
vt 0.611135304 0.778068423
vt 0.138364926 0.778068185
vt 0.138364926 0.834900379
vt 0.611135244 0.834900498
vt 0.317014098 0.884477496
vt 0.611135244 0.891732514
vt 0.317014098 0.891732395
vt 0.289808571 0.884477496
vt 0.289808571 0.891732395
vt 0.138364926 0.891732395
vt 0.393932611 0.709951043
vt 0.441678256 0.766499519
vt 0.441678256 0.709951043
vt 0.393932611 0.766499519
vt 0.346187055 0.766499519
vt 0.346187055 0.709951043
vt 0.473158151 0.748148084
vt 0.480010867 0.746385694
vt 0.480077416 0.747828841
vt 0.47244224 0.732634604
vt 0.479361504 0.732315361
vt 0.464212179 0.748743415
vt 0.467828572 0.73539257
vt 0.468623459 0.751122952
vt 0.46340394 0.733030319
vt 0.462884337 0.748037338
vt 0.462074399 0.732317269
vt 0.468623459 0.751122952
vt 0.467828572 0.73539257
vt 0.468321562 0.735372961
vt 0.469051152 0.750889122
vt 0.464212179 0.748743415
vt 0.468623459 0.751122952
vt 0.466679484 0.75461334
vt 0.462311685 0.752237678
vt 0.469051152 0.750889122
vt 0.473419785 0.748559117
vt 0.469308555 0.75117588
vt 0.473158151 0.748148084
vt 0.47244224 0.732634604
vt 0.468321562 0.735372961
vt 0.469308555 0.75117588
vt 0.473375142 0.753643036
vt 0.471154839 0.757302999
vt 0.467088014 0.754835904
vt 0.462311685 0.752237678
vt 0.466679484 0.75461334
vt 0.466441959 0.755050004
vt 0.462074399 0.752674341
vt 0.468623459 0.751122952
vt 0.467088014 0.754835904
vt 0.466679484 0.75461334
vt 0.469308555 0.75117588
vt 0.469051152 0.750889122
vt 0.484636962 0.743866205
vt 0.484142631 0.743888974
vt 0.483716995 0.734662652
vt 0.484211445 0.734639883
vt 0.479361504 0.732315361
vt 0.483716995 0.734662652
vt 0.484142631 0.743888974
vt 0.480010867 0.746385694
vt 0.761973262 0.714007139
vt 0.763639212 0.714007139
vt 0.763639212 0.802858591
vt 0.761973262 0.802858591
vt 0.369456083 0.594084263
vt 0.312969506 0.594084263
vt 0.312969506 0.662246764
vt 0.369456083 0.662246764
vt 0.575299561 0.548101783
vt 0.517550588 0.532510102
vt 0.517550588 0.548101783
vt 0.575299561 0.532510102
vt 0.590891063 0.548101783
vt 0.590891063 0.532510102
vt 0.575299561 0.556763649
vt 0.590891063 0.556763649
vt 0.517550588 0.548101783
vt 0.517550588 0.532510102
vt 0.488677263 0.532510102
vt 0.488677263 0.548101783
vt 0.139265016 0.670564532
vt 0.139265016 0.683699012
vt 0.202506632 0.683698833
vt 0.202506632 0.670564532
vt 0.266961992 0.683698833
vt 0.266961992 0.670564532
vt 0.202506632 0.670564532
vt 0.202506632 0.683698833
vt 0.310742915 0.683698833
vt 0.310742915 0.670564532
vt 0.266961992 0.670564532
vt 0.266961992 0.683698833
vt 0.609658599 0.532510102
vt 0.590891063 0.532510102
vt 0.590891063 0.548101783
vt 0.609658599 0.548101783
vt 0.590891063 0.556763649
vt 0.609658599 0.559650958
vt 0.0482974499 0.683699012
vt 0.0954837352 0.683699012
vt 0.0954837352 0.670564532
vt 0.0482974499 0.670564532
vt 0.625250101 0.548101783
vt 0.609658599 0.548101783
vt 0.609658599 0.559650958
vt 0.625250101 0.559650958
vt 0.575299561 0.548101783
vt 0.556531847 0.548101783
vt 0.556531847 0.559650958
vt 0.575299561 0.556763649
vt 0.0954837352 0.670564532
vt 0.0954837352 0.683699012
vt 0.139265016 0.683699012
vt 0.139265016 0.670564532
vt 0.0191100091 0.683699012
vt 0.0482974499 0.683699012
vt 0.0482974499 0.670564532
vt 0.0191100091 0.670564532
vt 0.839712977 0.521241605
vt 0.856523991 0.521241605
vt 0.856523991 0.539173543
vt 0.839712977 0.539173543
vt 0.856523991 0.521241605
vt 0.878938973 0.521241605
vt 0.878938973 0.539173543
vt 0.856523991 0.539173543
vt 0.895750284 0.539173543
vt 0.878938973 0.539173543
vt 0.878938973 0.521241605
vt 0.895750284 0.521241605
vt 0.856523991 0.555985034
vt 0.856523991 0.539173543
vt 0.878938973 0.539173543
vt 0.878938973 0.555985034
vt 0.80392766 0.663619936
vt 0.80392766 0.663619936
vt 0.807871163 0.663619936
vt 0.807871163 0.663619936
vt 0.628259182 0.525837302
vt 0.605629623 0.525837302
vt 0.605629623 0.518075347
vt 0.628259182 0.518075347
vt 0.480885178 0.526391506
vt 0.460371852 0.526391506
vt 0.460371852 0.518075347
vt 0.481439799 0.518075347
vt 0.481439561 0.526391506
vt 0.489755929 0.525837302
vt 0.489755929 0.518075347
vt 0.605629623 0.525837302
vt 0.605629623 0.518075347
vt 0.00789395161 0.551485956
vt 0.0521858633 0.551476836
vt 0.0521881878 0.560248733
vt 0.00847879238 0.56025815
vt 0.00847879238 0.560842991
vt 0.0514618456 0.560842991
vt 0.0514618456 0.582480669
vt 0.00847879238 0.582480669
vt 0.544436038 0.678051591
vt 0.544455528 0.681150019
vt 0.563965738 0.680868089
vt 0.563921273 0.677787483
vt 0.544417322 0.672900259
vt 0.563847363 0.672657251
vt 0.505712688 0.677857399
vt 0.544455528 0.681150019
vt 0.544436038 0.678051591
vt 0.505751073 0.672658265
vt 0.544417322 0.672900259
vt 0.47477445 0.671103776
vt 0.475110143 0.669741929
vt 0.370002955 0.669269264
vt 0.370074362 0.671188116
vt 0.473786563 0.675486088
vt 0.370321006 0.676840842
vt 0.61969471 0.675830245
vt 0.61969471 0.6809991
vt 0.638819218 0.6809991
vt 0.638819218 0.675830245
vt 0.581704259 0.675830245
vt 0.581704259 0.6809991
vt 0.61969471 0.6809991
vt 0.61969471 0.675830245
vt 0.505179107 0.677852273
vt 0.505712688 0.677857399
vt 0.505751073 0.672658265
vt 0.505231023 0.6726529
vt 0.505754471 0.672132134
vt 0.505751073 0.672658265
vt 0.544417322 0.672900259
vt 0.544412076 0.672380328
vt 0.563847363 0.672657251
vt 0.563840806 0.672132134
vt 0.47501871 0.680066824
vt 0.473795146 0.675771415
vt 0.370359868 0.677689612
vt 0.37018761 0.683294117
vt 0.47477445 0.671103776
vt 0.473786563 0.675486088
vt 0.491353124 0.674507737
vt 0.493589193 0.670442224
vt 0.493963093 0.679113507
vt 0.49137482 0.67525363
vt 0.473795146 0.675771415
vt 0.47501871 0.680066824
vt 0.493589193 0.670442224
vt 0.491353124 0.674507737
vt 0.491759628 0.674731493
vt 0.493995875 0.67066592
vt 0.473786563 0.675486088
vt 0.473795146 0.675771415
vt 0.49137482 0.67525363
vt 0.491353124 0.674507737
vt 0.370321006 0.676840842
vt 0.370359868 0.677689612
vt 0.473795146 0.675771415
vt 0.473786563 0.675486088
vt 0.37018761 0.683294117
vt 0.370359868 0.677689612
vt 0.327838033 0.677435338
vt 0.327360541 0.683069646
vt 0.370074362 0.671188116
vt 0.327833146 0.676836848
vt 0.370321006 0.676840842
vt 0.327372521 0.671139419
vt 0.3317599 0.669431925
vt 0.370002955 0.669269264
vt 0.327838033 0.677435338
vt 0.370359868 0.677689612
vt 0.370321006 0.676840842
vt 0.327833146 0.676836848
vt 0.327833146 0.676836848
vt 0.327372521 0.671139419
vt 0.326802701 0.671185493
vt 0.327263504 0.676882863
vt 0.659149408 0.674452126
vt 0.678479791 0.675184667
vt 0.678830862 0.673760116
vt 0.664569497 0.675578594
vt 0.659849644 0.675679147
vt 0.827085912 0.52090323
vt 0.810041249 0.52090323
vt 0.810041249 0.537947953
vt 0.827085912 0.537947953
vt 0.758907259 0.537947953
vt 0.775951684 0.537947953
vt 0.775951684 0.52090323
vt 0.758907259 0.52090323
vt 0.810041249 0.554992497
vt 0.810041249 0.537947953
vt 0.775951684 0.537947953
vt 0.775951684 0.554992497
vt 0.810041249 0.537947953
vt 0.810041249 0.52090323
vt 0.775951684 0.52090323
vt 0.775951684 0.537947953
vt 0.667965114 0.525168419
vt 0.721336007 0.525168419
vt 0.721336007 0.497538835
vt 0.667965114 0.507414043
vt 0.702180922 0.475779176
vt 0.771762729 0.497538835
vt 0.771762729 0.42547074
vt 0.702180922 0.42547074
vt 0.65321523 0.507414043
vt 0.646439135 0.475779176
vt 0.646439135 0.507414043
vt 0.799145818 0.694154859
vt 0.799145818 0.675686836
vt 0.776915908 0.675686836
vt 0.776915908 0.694154859
vt 0.799145818 0.675686836
vt 0.799145818 0.675686836
vt 0.799145818 0.694154859
vt 0.799145818 0.694154859
vt 0.776915908 0.675686836
vt 0.776915908 0.675686836
vt 0.799145818 0.675686836
vt 0.799145818 0.675686836
vt 0.799145818 0.694154859
vt 0.799145818 0.694154859
vt 0.776915908 0.694154859
vt 0.776915908 0.694154859
vt 0.776915908 0.694154859
vt 0.776915908 0.694154859
vt 0.776915908 0.675686836
vt 0.776915908 0.675686836
vt 0.755171359 0.666695893
vt 0.755171359 0.668129981
vt 0.90072304 0.668129921
vt 0.90072304 0.666695893
vt 0.700361788 0.423364878
vt 0.645132959 0.474607944
vt 0.700361788 0.474607944
vt 0.463789433 0.394896388
vt 0.915867507 0.394896328
vt 0.463789433 0.51047796
vt 0.774382174 0.423364878
vt 0.915867507 0.510477901
vt 0.774382174 0.498806
vt 0.746765137 0.51047796
vt 0.723139107 0.498806
vt 0.746765137 0.560867131
vt 0.723139107 0.527274489
vt 0.645132959 0.508770108
vt 0.632891774 0.560867131
vt 0.632891774 0.51047796
vt 0.650826633 0.527274549
vt 0.650826633 0.508770108
vt 0.49625051 0.66593504
vt 0.552765667 0.66593504
vt 0.552765667 0.664657831
vt 0.49625051 0.664657831
vt 0.750918388 0.665815711
vt 0.561248899 0.665815711
vt 0.561248899 0.667092979
vt 0.750918388 0.667092979
vt 0.126762718 0.664864659
vt 0.00364480913 0.664864659
vt 0.00364480913 0.666077673
vt 0.126762718 0.666077673
vt 0.463789433 0.394896388
vt 0.915867507 0.394896328
vt 0.915867507 0.394896328
vt 0.463789433 0.394896388
vt 0.494838208 0.664751828
vt 0.373569161 0.664751828
vt 0.373569161 0.665964484
vt 0.494838208 0.665964484
vt 0.3707183 0.665164173
vt 0.3707183 0.663901925
vt 0.314862788 0.663901925
vt 0.314862788 0.665164232
vt 0.128665239 0.664672434
vt 0.128665239 0.665889144
vt 0.309347153 0.665889144
vt 0.309347153 0.664672434
vt 0.958005428 0.639002383
vt 0.981502056 0.64055407
vt 0.985630453 0.478095561
vt 0.962223887 0.479952097
vt 0.955996931 0.475265622
vt 0.95165664 0.643943906
vt 0.958005428 0.639002383
vt 0.962223887 0.479952097
vt 0.95165664 0.643943906
vt 0.978734255 0.650943696
vt 0.981502056 0.64055407
vt 0.958005428 0.639002383
vt 0.955996931 0.475265622
vt 0.920212448 0.484925836
vt 0.913680315 0.642025769
vt 0.95165664 0.643943906
vt 0.970134497 0.690846741
vt 0.978734255 0.650943696
vt 0.95165664 0.643943906
vt 0.913680315 0.642025769
vt 0.982230902 0.466130525
vt 0.955996931 0.475265622
vt 0.962223887 0.479952097
vt 0.985630453 0.478095561
vt 0.0142454654 0.683699012
vt 0.0191100091 0.683699012
vt 0.0191100091 0.670564532
vt 0.0142454654 0.670564532
vt 0.899289072 0.565042436
vt 0.756605387 0.571126461
vt 0.756605387 0.663619936
vt 0.899289012 0.663619936
vt 0.616473198 0.991132498
vt 0.130943194 0.914922595
vt 0.130943194 0.991132498
vt 0.210840538 0.914922595
vt 0.616473198 0.905703664
vt 0.210840538 0.905703664
vt 0.129714027 0.991132498
vt 0.129714027 0.992976189
vt 0.617702484 0.992976189
vt 0.617702484 0.991132498
vt 0.124745622 0.854965746
vt 0.00598605024 0.854965746
vt 0.00598605024 0.99129045
vt 0.124745622 0.99129045
vt 0.00477425801 0.99129045
vt 0.00477425801 0.993108034
vt 0.125957504 0.993108034
vt 0.125957504 0.99129045
vt 0.815813541 0.8740803
vt 0.827598572 0.854642391
vt 0.815813541 0.854642391
vt 0.827598572 0.8740803
vt 0.815813541 0.883192062
vt 0.827598572 0.883192062
vt 0.815813541 0.982203722
vt 0.827598572 0.982203722
vt 0.827598572 0.989493012
vt 0.815813541 0.989493012
vt 0.815813541 0.991315365
vt 0.827598572 0.991315365
vt 0.813211381 0.991315365
vt 0.623024702 0.991315365
vt 0.623024702 0.993137479
vt 0.813211381 0.993137479
vt 0.813211381 0.854642391
vt 0.624239683 0.854642391
vt 0.624239683 0.991315365
vt 0.813211381 0.991315246
vt 0.829390883 0.991315365
vt 0.983982682 0.991315365
vt 0.983982682 0.854642391
vt 0.829390883 0.854642391
vt 0.985197425 0.993137479
vt 0.985197425 0.991315365
vt 0.829390883 0.991315365
vt 0.829390883 0.993137479
vt 0.827598572 0.993137479
vt 0.827598572 0.991315365
vt 0.815813541 0.991315365
vt 0.815813541 0.993137479
vt 0.0122426748 0.542719662
vt 0.0834651589 0.542719662
vt 0.083501935 0.390871584
vt 0.0122426748 0.390836239
vt 0.452883482 0.542599618
vt 0.455114365 0.542611539
vt 0.454862833 0.390960515
vt 0.452675104 0.390964091
vt 0.0834651589 0.542719662
vt 0.0916875005 0.542701066
vt 0.0917529464 0.3909114
vt 0.083501935 0.390871584
vt 0.450104952 0.542586982
vt 0.452883482 0.542599618
vt 0.452675104 0.390964091
vt 0.449939728 0.3909688
vt 0.161169052 0.43792206
vt 0.354079366 0.438468635
vt 0.354969859 0.426662982
vt 0.160262585 0.426638365
vt 0.160275161 0.449732363
vt 0.354988515 0.450274289
vt 0.354079366 0.438468635
vt 0.161169052 0.43792206
vt 0.354079366 0.438468635
vt 0.354988515 0.450274289
vt 0.354969859 0.426662982
vt 0.355812669 0.426025331
vt 0.355840921 0.450909674
vt 0.161169052 0.43792206
vt 0.160262585 0.426638365
vt 0.160275161 0.449732363
vt 0.159416914 0.450372398
vt 0.159420133 0.425998747
vt 0.160275161 0.449732363
vt 0.159416914 0.450372398
vt 0.355840921 0.450909674
vt 0.354988515 0.450274289
vt 0.354969859 0.426662982
vt 0.355812669 0.426025331
vt 0.159420133 0.425998747
vt 0.160262585 0.426638365
vt 0.937541783 0.367169201
vt 0.960894644 0.300459981
vt 0.940564513 0.300459981
vt 0.990119755 0.43402189
vt 0.925952375 0.379875362
vt 0.925952375 0.43402189
vt 0.960894644 0.275047362
vt 0.990119338 0.257893622
vt 0.940564513 0.275047779
vt 0.942469954 0.25789386
vt 0.945809603 0.221995831
vt 0.926754475 0.221995831
vt 0.932543874 0.247402787
vt 0.988747478 0.247402787
vt 0.945809603 0.183885276
vt 0.988747478 0.0713152364
vt 0.926754475 0.183885276
vt 0.926754594 0.0713152364
vt 0.542817056 0.587167263
vt 0.542817116 0.554294467
vt 0.0619044751 0.554294527
vt 0.0619044751 0.587167263
vt 0.125232324 0.696959138
vt 0.00600324618 0.702068806
vt 0.00600324618 0.842947245
vt 0.125232324 0.842947245
vt 0.00478677498 0.842947245
vt 0.00478677498 0.844771981
vt 0.126448885 0.844771981
vt 0.126448885 0.842947245
vt 0.310563713 0.59652853
vt 0.129881725 0.594208717
vt 0.129881725 0.662231028
vt 0.310563713 0.662231028
vt 0.00552936131 0.662423253
vt 0.125549868 0.662423253
vt 0.125549868 0.59460932
vt 0.00552916387 0.592378139
vt 0.374781966 0.66266638
vt 0.382057995 0.593542933
vt 0.374781966 0.597181141
vt 0.493625492 0.66266638
vt 0.493625492 0.593542933
vt 0.55468148 0.593604684
vt 0.497527778 0.593604684
vt 0.497527599 0.662572384
vt 0.55468148 0.662572384
vt 0.74964118 0.570855379
vt 0.593818665 0.570855379
vt 0.74964118 0.66345489
vt 0.55997169 0.590652525
vt 0.55997169 0.66345495
vt 0.991991878 0.706336975
vt 0.93324697 0.703293264
vt 0.93324697 0.841480374
vt 0.991991878 0.841480374
vt 0.932942748 0.843306661
vt 0.991991878 0.843306661
vt 0.991991878 0.841480374
vt 0.932942748 0.841480374
vt 0.831825614 0.703293025
vt 0.831825614 0.841480136
vt 0.930930853 0.841480136
vt 0.930930853 0.703293025
vt 0.931235194 0.841480136
vt 0.831521392 0.841480136
vt 0.831521392 0.843306422
vt 0.931235194 0.843306422
vt 0.771295369 0.841490149
vt 0.830040097 0.841490149
vt 0.830040097 0.703302979
vt 0.772512853 0.70634681
vt 0.830344558 0.843316317
vt 0.830344558 0.841490149
vt 0.771295369 0.841490149
vt 0.771295369 0.843316317
vt 0.650549173 0.838936567
vt 0.624884546 0.838936567
vt 0.624884546 0.812131286
vt 0.650549173 0.812131286
vt 0.652371585 0.766190648
vt 0.652910113 0.765646875
vt 0.626421094 0.765799224
vt 0.626961052 0.766343474
vt 0.626954019 0.806687415
vt 0.62641269 0.807231903
vt 0.652910113 0.807447195
vt 0.652371705 0.806843638
vt 0.652371705 0.806843638
vt 0.652910113 0.807447195
vt 0.652910113 0.765646875
vt 0.652371585 0.766190648
vt 0.626961052 0.766343474
vt 0.626421094 0.765799224
vt 0.62641269 0.807231903
vt 0.626954019 0.806687415
vt 0.659674644 0.683807671
vt 0.693609178 0.683807671
vt 0.693609059 0.838936567
vt 0.659706354 0.812131286
vt 0.650549173 0.838936567
vt 0.650549173 0.812131286
vt 0.764614344 0.838936567
vt 0.755489111 0.812131405
vt 0.764614344 0.812131405
vt 0.721554756 0.838936567
vt 0.755489111 0.683807671
vt 0.721555114 0.683807671
vt 0.693609059 0.838936567
vt 0.693609178 0.683807671
vt 0.721555114 0.683807671
vt 0.721554756 0.838936567
vt 0.355812669 0.426025331
vt 0.449939728 0.3909688
vt 0.0917529464 0.3909114
vt 0.159420133 0.425998747
vt 0.355840921 0.450909674
vt 0.0916875005 0.542701066
vt 0.450104952 0.542586982
vt 0.159416914 0.450372398
vt 0.629647613 0.768484592
vt 0.626961052 0.766343474
vt 0.626954019 0.806687415
vt 0.629643857 0.804005146
vt 0.652371705 0.806843638
vt 0.649687052 0.768419087
vt 0.652371585 0.766190648
vt 0.649686813 0.804072559
vn 0.055686865 0.998448253 0
vn 0.055686865 0.998448253 0
vn 0.055686865 0.998448253 0
vn 1 0 0
vn 1 0 0
vn 1 0 0
vn 1 0 0
vn -0 1 0
vn -0 1 0
vn -0 1 0
vn -0 1 0
vn -0 1 0
vn -0 1 0
vn -0 1 0
vn -0 1 0
vn -0 0.882938802 -0.469488084
vn -0 0.882938802 -0.469488084
vn -0 0.882938802 -0.469488084
vn -0 0.882938802 -0.469488084
vn 0.0675310865 0.854878306 -0.514414907
vn 0.0675310865 0.854878306 -0.514414907
vn 0.0675310865 0.854878306 -0.514414907
vn 0.0675310865 0.854878306 -0.514414907
vn 0.0539007373 0.912100077 -0.406408787
vn 0.0539007373 0.912100077 -0.406408787
vn 0.0539007373 0.912100077 -0.406408787
vn 0.0539007373 0.912100077 -0.406408787
vn 0.0256426372 0.98051697 -0.194753066
vn 0.0256426372 0.98051697 -0.194753066
vn 0.0256426372 0.98051697 -0.194753066
vn 0.0256426372 0.98051697 -0.194753066
vn -0.0231768936 0.992364168 -0.12114545
vn -0.0231768936 0.992364168 -0.12114545
vn -0.0231768936 0.992364168 -0.12114545
vn -0.0231768936 0.992364168 -0.12114545
vn -0 1 0
vn -0 1 0
vn -0 1 0
vn -0 1 0
vn -0 1 0
vn -0 1 0
vn -0 1 0
vn -0 1 0
vn -0 0.994683087 -0.102983661
vn -0 0.994683087 -0.102983661
vn -0 0.994683087 -0.102983661
vn -0 0.994683087 -0.102983661
vn -0 0.994683087 -0.102983646
vn -0 0.994683087 -0.102983646
vn -0 0.994683087 -0.102983519
vn -0 0.994683087 -0.102983519
vn -0.00111185643 0.994478583 -0.104933217
vn 0.00561722461 0.994978607 -0.0999298766
vn 0.00561722461 0.994978607 -0.0999298766
vn 0.0494252928 0.991214216 -0.122684948
vn 0.0494252928 0.991214216 -0.122684948
vn 0.0494252928 0.991214216 -0.122684948
vn 0.0494252928 0.991214216 -0.122684948
vn -0 1 0
vn -0 1 0
vn -0 1 0
vn -0 1 0
vn -0 1 0
vn -0 1 0
vn -0 1 0
vn -0 1 0
vn -0 1 0
vn -0 1 0
vn -0 0 -1
vn -0 0 -1
vn -0 0 -1
vn -0 0 -1
vn -1 0 0
vn -1 0 0
vn -1 0 0
vn -1 0 0
vn -1 0 0
vn -1 0 0
vn 1 0 0
vn 1 0 0
vn 1 0 0
vn 1 0 0
vn 1 0 0
vn 1 0 0
vn -0 0 1
vn -0 0 1
vn -0 0 1
vn -0 0 1
vn -0 0 1
vn -0 0 1
vn -0 0 1
vn -0 0 1
vn -0 1 0
vn -0 1 0
vn -0 1 0
vn -0 1 0
vn -0 1 0
vn -0 1 0
vn -0 1 0
vn -0 1 0
vn -0 1 0
vn -0 1 0
vn -0 1 0
vn -0 1 0
vn -0 1 0
vn -0 1 0
vn -0 1 0
vn -0 1 0
vn -0 1 0
vn -0 1 0
vn -0 1 0
vn -0 1 0
vn -0 1 0
vn -0 1 0
vn -0 1 0
vn -0 1 0
vn -0 1 0
vn -0 1 0
vn -0 1 0
vn -0 1 0
vn -0 1 0
vn -0 1 0
vn -0 1 0
vn -0 1 0
vn -0.514500558 0.857490003 0
vn -0.514500558 0.857490003 0
vn -0.514500558 0.857490003 0
vn -0.514495671 0.857492924 0
vn -0.514495671 0.857492924 0
vn -0 0 1
vn -0 0 1
vn -0 0 1
vn -0 0 1
vn -0 0 1
vn -0 0 1
vn -0.514498889 0.857491076 0
vn -0.514498889 0.857491076 0
vn -0.514498889 0.857491076 0
vn -0.514498889 0.857491076 0
vn -1 0 0
vn -1 0 0
vn -1 0 0
vn -1 0 0
vn -0 0 -1
vn -0 0 -1
vn -0 0 -1
vn -0 0 -1
vn -0 0 -1
vn -0 0 -1
vn 1 0 0
vn 1 0 0
vn 1 0 0
vn 1 0 0
vn -0 0 1
vn -0 0 1
vn -0 0 1
vn -0 0 1
vn -0 1 0
vn -0 1 0
vn -0 1 0
vn -0 1 0
vn -0 1 0
vn -0.514497161 0.857492149 0
vn -0.514497161 0.857492149 0
vn -0.514497161 0.857492149 0
vn -0.514497161 0.857492149 0
vn -0 0 1
vn -0 0 1
vn -0 0 1
vn -0 0 1
vn -0 1.2715609E-05 -1
vn -0 1.2715609E-05 -1
vn -0 1.2715609E-05 -1
vn -0 1.2715609E-05 -1
vn -1 0 0
vn -1 0 0
vn -1 0 0
vn -1 0 0
vn -0 0 1
vn -0 0 1
vn -0 0 1
vn -0 0 1
vn -0 0 1
vn -0 0 1
vn -0 0 1
vn -0 0 1
vn -1 0 0
vn -1 0 0
vn -1 0 0
vn -1 0 0
vn -0 0 -1
vn -0 0 -1
vn -0 0 -1
vn -0 0 -1
vn -1 0 0
vn -1 0 0
vn -1 0 0
vn -1 0 0
vn -0 0 1
vn -0 0 1
vn -0 0 1
vn -0 0 1
vn 1 0 0
vn 1 0 0
vn 1 0 0
vn 1 0 0
vn 1 0 0
vn 1 0 0
vn -0 0 -1
vn -0 0 -1
vn -0 0 -1
vn -0 0 -1
vn -0 0 -1
vn -0 0 -1
vn -0 0 -1
vn -0 0 -1
vn -1 0 0
vn -1 0 0
vn -1 0 0
vn -1 0 0
vn 1 0 0
vn 1 0 0
vn 1 0 0
vn 1 0 0
vn 1 0 0
vn 1 0 0
vn 1 0 0
vn 1 0 0
vn -0 0 -1
vn -0 0 -1
vn -0 0 -1
vn -0 0 -1
vn -1 0 0
vn -1 0 0
vn -1 0 0
vn -1 0 0
vn -0 0 1
vn -0 0 1
vn -0 0 1
vn -0 0 1
vn -0 -1 0
vn -0 -1 0
vn -0 -1 0
vn -0 -1 0
vn -1.73378594E-05 -1 0
vn -1.73378594E-05 -1 0
vn -1.73378594E-05 -1 0
vn -1.73378594E-05 -1 0
vn 0.514496982 0.857492208 0
vn 0.514496982 0.857492208 0
vn 0.514496982 0.857492208 0
vn 0.514496982 0.857492208 0
vn -0 1 0
vn -0 1 0
vn -0 1 0
vn -0 1 0
vn -0 1 0
vn -0 1 0
vn -0 1 0
vn -0 1 0
vn -0 1 0
vn 0.0026580526 0.996811688 0.0797450468
vn 0.0026580526 0.996811688 0.0797450468
vn 0.0026580526 0.996811688 0.0797450468
vn 0.0026580526 0.996811688 0.0797450468
vn -0 1 0
vn -0 1 0
vn -0 1 0
vn -0 1 0
vn -0 0 1
vn -0 0 1
vn -0 0 1
vn -0 0 1
vn -0 0 1
vn -0 0 1
vn 1 0 0
vn 1 0 0
vn 1 0 0
vn 1 0 0
vn 1 0 0
vn -0 0 1
vn -0 0 1
vn -0 0 1
vn -0 0 1
vn -0 0 1
vn -0 0 1
vn -0 0 -1
vn -0 0 -1
vn -0 0 -1
vn -0 0 -1
vn -1 0 0
vn -1 0 0
vn -1 0 0
vn -1 0 0
vn -0 0 -1
vn -0 0 -1
vn -0 0 -1
vn -0 0 -1
vn -0 1 0
vn -0 1 0
vn -0 1 0
vn -0 1 0
vn -0 1 0
vn -0 1 0
vn -0 0 -1
vn -0 0 -1
vn -0 0 -1
vn -0 0 -1
vn -0 0 1
vn -0 0 1
vn -0 0 1
vn -0 0 1
vn -0 0 -1
vn -0 0 -1
vn -0 0 -1
vn -0 0 -1
vn 1 0 3.81475584E-05
vn 1 0 3.81475584E-05
vn 1 0 3.81475584E-05
vn 1 0 3.81475584E-05
vn 0.514500141 0.857490301 0
vn 0.514500141 0.857490301 0
vn 0.514500141 0.857490301 0
vn 0.514500141 0.857490301 0
vn -0 1 0
vn -0 1 0
vn -0 1 0
vn -0 1 0
vn -1 0 0
vn -1 0 0
vn -1 0 0
vn -1 0 0
vn 1 0 0
vn 1 0 0
vn 1 0 0
vn 1 0 0
vn 1 0 0
vn 1 0 0
vn -0.0398388058 0.996023893 0.0796824396
vn -0.0398388058 0.996023893 0.0796824396
vn -0.0398388058 0.996023893 0.0796824396
vn -0.0398388058 0.996023893 0.0796824396
vn 3.81468271E-05 0 1
vn 3.81468271E-05 0 1
vn 3.81468271E-05 0 1
vn 3.81468271E-05 0 1
vn -0 0 1
vn -0 0 1
vn -0 0 1
vn -0 0 1
vn -0 0 1
vn -0 0 1
vn -0 0 1
vn -0 0 1
vn -0 0 1
vn -0 0 -1
vn -0 0 -1
vn -0 0 -1
vn -0 0 -1
vn -0 -1 0
vn -0 -1 0
vn -0 -1 0
vn -0 -1 0
vn 1 0 0
vn 1 0 0
vn 1 0 0
vn 1 0 0
vn -0 1 0
vn -0 1 0
vn -0 1 0
vn -0 1 0
vn -0 1 0
vn -0 1 0
vn -0 1 0
vn -0 1 0
vn -0 1 0
vn -0 1 0
vn -0 1 0
vn -0 0.988371789 0.152056828
vn -0 0.988371789 0.152056828
vn -0 0.988371789 0.152056828
vn -0 0.988371789 0.152056828
vn -0 0 1
vn -0 0 1
vn -0 0 1
vn -0 0 1
vn -1 0 0
vn -1 0 0
vn -1 0 0
vn -1 0 0
vn 1 0 0
vn 1 0 0
vn 1 0 0
vn 1 0 0
vn -0 0 -1
vn -0 0 -1
vn -0 0 -1
vn -0 0 -1
vn 1 0 0
vn 1 0 0
vn 1 0 0
vn 1 0 0
vn -0 1 0
vn -0 1 0
vn -0 1 0
vn -0 1 0
vn -0 1 0
vn -0 1 0
vn -0 1 0
vn -0 1 0
vn -0 1 0
vn -0 1 0
vn -0 1 0
vn -0 1 0
vn -0 1 0
vn -0 1 0
vn -0 1 0
vn -0 1 0
vn -0 1 0
vn -0 1 0
vn 1 0 0
vn 1 0 0
vn 1 0 0
vn 1 0 0
vn -0 0 1
vn -0 0 1
vn -0 0 1
vn -0 0 1
vn -1 0 0
vn -1 0 0
vn -1 0 0
vn -1 0 0
vn -0 0 -1
vn -0 0 -1
vn -0 0 -1
vn -0 0 -1
vn -0 0 1
vn -0 0 1
vn -0 0 1
vn -0 0 1
vn -1 0 0
vn -1 0 0
vn -1 0 0
vn -1 0 0
vn -0 0 1
vn -0 0 1
vn -0 0 1
vn -0 0 1
vn -0 1 0
vn -0 1 0
vn -0 1 0
vn -0 1 0
vn -0 0 -1
vn -0 0 -1
vn -0 0 -1
vn -0 0 -1
vn 0.998052597 -0.0623779185 0
vn 0.998052597 -0.0623779185 0
vn 0.998052597 -0.0623779185 0
vn 0.998052597 -0.0623779185 0
vn 0.031557478 0.989737213 -0.139370814
vn 0.031557478 0.989737213 -0.139370814
vn 0.031557478 0.989737213 -0.139370814
vn 0.031557478 0.989737213 -0.139370814
vn 0.363564879 0.918754816 -0.153981134
vn 0.363564879 0.918754816 -0.153981134
vn 0.363564879 0.918754816 -0.153981134
vn 0.363564879 0.918754816 -0.153981134
vn -1 0 0
vn -1 0 0
vn -1 0 0
vn -1 0 0
vn -0 0 1
vn -0 0 1
vn -0 0 1
vn -0 0 1
vn 1 0 0
vn 1 0 0
vn 1 0 0
vn 1 0 0
vn -0 0 1
vn -0 0 1
vn -0 0 1
vn -0 0 1
vn -0 0 1
vn -0 0 1
vn -0 0 1
vn -0 0 1
vn -0 0 1
vn -0 0 1
vn -1 0 0
vn -1 0 0
vn -1 0 0
vn -1 0 0
vn -1 0 0
vn -1 0 0
vn -1 0 0
vn -1 0 0
vn -0 0 -1
vn -0 0 -1
vn -0 0 -1
vn -0 0 -1
vn -0 0 -1
vn -0 0 -1
vn -0 0 -1
vn -0 0 -1
vn -0 0 -1
vn -0 0 -1
vn -0 -1.31083716E-05 -1
vn -0 -1.31083716E-05 -1
vn -0 1.29959226E-05 -1
vn -0 1.29959226E-05 -1
vn -0 1.29959226E-05 -1
vn -0 1.29959226E-05 -1
vn -0 -0.00444495585 -0.999990106
vn -0 -0.00444495585 -0.999990106
vn -0 -0.00444495585 -0.999990106
vn -0 -0.00444495585 -0.999990106
vn -0 0 -1
vn -0 0 -1
vn -0 0 -1
vn -0 0 -1
vn -0 0 -1
vn -0 0 -1
vn -0 0 -1
vn -0 0 -1
vn -0 0 -1
vn -0 0 -1
vn -0 0 -1
vn -0 0 -1
vn -0 1 0
vn -0 1 0
vn -0 1 0
vn -0 1 0
vn -0 1 0
vn -0 1 0
vn -0 1 0
vn -0 1 0
vn 1 0 0
vn 1 0 0
vn 1 0 0
vn 1 0 0
vn -1 0 0
vn -1 0 0
vn -1 0 0
vn -1 0 0
vn 0.000307802315 0.975132883 0.221621037
vn 0.000307802315 0.975132883 0.221621037
vn 0.000307802315 0.975132883 0.221621037
vn 0.000307802315 0.975132883 0.221621037
vn -0.000602575252 0.976186872 -0.216930404
vn -0.000602575252 0.976186872 -0.216930404
vn -0.000602575252 0.976186872 -0.216930404
vn -0.000602575252 0.976186872 -0.216930404
vn 1 0 0
vn 1 0 0
vn 1 0 0
vn 1 0 0
vn 1 0 0
vn -1 0 0
vn -1 0 0
vn -1 0 0
vn -1 0 0
vn -1 0 0
vn -0.00277772732 0 -0.999996185
vn -0.00277772732 0 -0.999996185
vn -0.00277772732 0 -0.999996185
vn -0.00277772732 0 -0.999996185
vn -0 0 1
vn -0 0 1
vn -0 0 1
vn -0 0 1
vn -1 0 0
vn -1 0 0
vn -1 0 0
vn -1 0 0
vn -1 0 0
vn -1 0 0
vn -1 0 0
vn -1 0 0
vn -1 0 0
vn -1 0 0
vn 1 0 0
vn 1 0 0
vn 1 0 0
vn 1 0 0
vn 1 0 0
vn 1 0 0
vn 1 0 0
vn 1 0 0
vn -0 0 -1
vn -0 0 -1
vn -0 0 -1
vn -0 0 -1
vn 1 0 0
vn 1 0 0
vn 1 0 0
vn 1 0 0
vn 1 0 0
vn 1 0 0
vn 1 0 0
vn 1 0 0
vn 0.00336763891 0 0.999994397
vn 0.00336763891 0 0.999994397
vn 0.00336763891 0 0.999994397
vn 0.00336763891 0 0.999994397
vn -1 0 0
vn -1 0 0
vn -1 0 0
vn -1 0 0
vn -0 0 1
vn -0 0 1
vn -0 0 1
vn -0 0 1
vn -0 0 1
vn 1 0 0
vn 1 0 0
vn 1 0 0
vn 1 0 0
vn -0 0 1
vn -0 0 1
vn -0 0 1
vn -0.0023212377 0.00604832405 0.999979019
vn -0.0023212377 0.00604832405 0.999979019
vn -1 0 0
vn -1 0 0
vn -1 0 0
vn -1 0 0
vn -1 0 0
vn -1 0 0
vn -1 0 0
vn -1 0 0
vn -0 0 -1
vn -0 0 -1
vn -0 0 -1
vn -0 0 -1
vn -0 0 -1
vn -0 0 -1
vn -0 0 -1
vn -0 0 -1
vn 0.999879241 0 0.0155416317
vn 0.999879241 0 0.0155416317
vn 0.999879241 0 0.0155416317
vn 0.999879241 0 0.0155416317
vn 1 0 0
vn 1 0 0
vn 1 0 0
vn 1 0 0
vn -0 0 1
vn -0 0 1
vn -0 0 1
vn -0 0 1
vn -0 0 1
vn -0 0 1
vn -0 0 1
vn -0 0 1
vn -0 -1.62326887E-05 -1
vn -0 -1.62326887E-05 -1
vn -0 -1.62326887E-05 -1
vn -0 -1.62326887E-05 -1
vn 1 0 0
vn 1 0 0
vn 1 0 0
vn 1 0 0
vn -1 0 0
vn -1 0 0
vn -1 0 0
vn -1 0 0
vn -0.999853969 0 0.0170916282
vn -0.999853969 0 0.0170916282
vn -0.999853969 0 0.0170916282
vn -0.999853969 0 0.0170916282
vn -0.999931931 -0.00376136019 0.0110491766
vn -0.999931931 -0.00376136019 0.0110491766
vn 0.999931931 -0.00376106286 0.0110493097
vn 0.999931931 -0.00376106286 0.0110493097
vn 0.999931931 -0.00376106286 0.0110493097
vn 0.999931931 -0.00376106286 0.0110493097
vn 0.999853969 0 0.0170913469
vn 0.999853969 0 0.0170913469
vn -0 0 -1
vn -0 0 -1
vn -0 0 -1
vn -0 0 -1
vn -0 1 0
vn -0 1 0
vn -0 1 0
vn -0 1 0
vn -0 1 0
vn -0 1 0
vn -0 1 0
vn -0 1 0
vn -0 1 0
vn -0 1 0
vn -0 1 0
vn -0 1 0
vn -0 1 0
vn -0 1 0
vn -0 1 0
vn -0 1 0
g 13_LP_0
f 3/3/3 2/2/2 1/1/1
f 6/6/6 5/5/5 4/4/4
f 7/7/7 6/6/6 4/4/4
f 10/10/10 9/9/9 8/8/8
f 11/11/11 10/10/10 8/8/8
f 11/11/11 8/8/8 12/12/12
f 13/13/13 11/11/11 12/12/12
f 14/14/14 13/13/13 12/12/12
f 15/15/15 14/14/14 12/12/12
f 18/18/18 17/17/17 16/16/16
f 19/19/19 18/18/18 16/16/16
f 22/22/22 21/21/21 20/20/20
f 23/23/23 22/22/22 20/20/20
f 26/26/26 25/25/25 24/24/24
f 27/27/27 26/26/26 24/24/24
f 30/30/30 29/29/29 28/28/28
f 31/31/31 30/30/30 28/28/28
f 34/34/34 33/33/33 32/32/32
f 35/35/35 34/34/34 32/32/32
f 38/38/38 37/37/37 36/36/36
f 39/39/39 38/38/38 36/36/36
f 39/39/39 36/36/36 40/40/40
f 41/41/41 39/39/39 40/40/40
f 41/41/41 40/40/40 42/42/42
f 43/43/43 41/41/41 42/42/42
f 46/46/46 45/45/45 44/44/44
f 47/47/47 46/46/46 44/44/44
f 47/47/47 48/48/48 46/46/46
f 48/48/48 49/49/49 46/46/46
f 48/48/48 50/50/50 49/49/49
f 50/50/50 51/51/51 49/49/49
f 50/50/50 52/52/52 51/51/51
f 51/51/51 52/52/52 53/53/53
f 52/52/52 54/54/54 53/53/53
f 57/57/57 56/56/56 55/55/55
f 58/58/58 57/57/57 55/55/55
f 61/61/61 60/60/60 59/59/59
f 62/62/62 60/60/60 61/61/61
f 63/63/63 62/62/62 61/61/61
f 64/64/64 62/62/62 63/63/63
f 67/67/67 66/66/66 65/65/65
f 68/68/68 67/67/67 65/65/65
f 71/71/71 70/70/70 69/69/69
f 72/72/72 71/71/71 69/69/69
f 75/75/75 74/74/74 73/73/73
f 74/74/74 76/76/76 73/73/73
f 73/73/73 76/76/76 77/77/77
f 76/76/76 78/78/78 77/77/77
f 81/81/81 80/80/80 79/79/79
f 80/80/80 82/82/82 79/79/79
f 79/79/79 82/82/82 83/83/83
f 82/82/82 84/84/84 83/83/83
f 87/87/87 86/86/86 85/85/85
f 88/88/88 87/87/87 85/85/85
f 91/91/91 90/90/90 89/89/89
f 92/92/92 91/91/91 89/89/89
f 95/95/95 94/94/94 93/93/93
f 96/96/96 95/95/95 93/93/93
f 97/97/97 95/95/95 96/96/96
f 98/98/98 97/97/97 96/96/96
f 99/99/99 97/97/97 98/98/98
f 100/100/100 99/99/99 98/98/98
f 101/101/101 99/99/99 100/100/100
f 102/102/102 101/101/101 100/100/100
f 103/103/103 101/101/101 102/102/102
f 104/104/104 103/103/103 102/102/102
f 105/105/105 103/103/103 104/104/104
f 106/106/106 105/105/105 104/104/104
f 107/107/107 105/105/105 106/106/106
f 108/108/108 107/107/107 106/106/106
f 111/111/111 110/110/110 109/109/109
f 112/112/112 111/111/111 109/109/109
f 111/111/111 112/112/112 113/113/113
f 113/113/113 112/112/112 114/114/114
f 115/115/115 113/113/113 114/114/114
f 116/116/116 111/111/111 113/113/113
f 111/111/111 116/116/116 117/117/117
f 118/118/118 111/111/111 117/117/117
f 121/121/121 120/120/120 119/119/119
f 120/120/120 122/122/122 119/119/119
f 122/122/122 123/123/123 119/119/119
f 123/123/123 124/124/124 119/119/119
f 127/127/127 126/126/126 125/125/125
f 125/125/125 126/126/126 128/128/128
f 126/126/126 129/129/129 128/128/128
f 132/132/132 131/131/131 130/130/130
f 131/131/131 133/133/133 130/130/130
f 134/134/134 130/130/130 133/133/133
f 135/135/135 134/134/134 133/133/133
f 138/138/138 137/137/137 136/136/136
f 139/139/139 138/138/138 136/136/136
f 142/142/142 141/141/141 140/140/140
f 143/143/143 142/142/142 140/140/140
f 146/146/146 145/145/145 144/144/144
f 145/145/145 147/147/147 144/144/144
f 144/144/144 147/147/147 148/148/148
f 149/149/149 144/144/144 148/148/148
f 152/152/152 151/151/151 150/150/150
f 153/153/153 152/152/152 150/150/150
f 156/156/156 155/155/155 154/154/154
f 157/157/157 156/156/156 154/154/154
f 160/160/160 159/159/159 158/158/158
f 159/159/159 161/161/161 158/158/158
f 158/158/158 161/161/161 162/162/162
f 165/165/165 164/164/164 163/163/163
f 166/166/166 165/165/165 163/163/163
f 169/169/169 168/168/168 167/167/167
f 170/170/170 169/169/169 167/167/167
f 173/173/173 172/172/172 171/171/171
f 174/174/174 173/173/173 171/171/171
f 177/177/177 176/176/176 175/175/175
f 178/178/178 177/177/177 175/175/175
f 181/181/181 180/180/180 179/179/179
f 180/180/180 182/182/182 179/179/179
f 179/179/179 182/182/182 183/183/183
f 182/182/182 184/184/184 183/183/183
f 185/185/185 179/179/179 183/183/183
f 186/186/186 185/185/185 183/183/183
f 189/189/189 188/188/188 187/187/187
f 190/190/190 189/189/189 187/187/187
f 193/193/193 192/192/192 191/191/191
f 194/194/194 193/193/193 191/191/191
f 197/197/197 196/196/196 195/195/195
f 198/198/198 197/197/197 195/195/195
f 201/201/201 200/200/200 199/199/199
f 202/202/202 201/201/201 199/199/199
f 205/205/205 204/204/204 203/203/203
f 206/206/206 205/205/205 203/203/203
f 207/207/207 205/205/205 206/206/206
f 208/208/208 207/207/207 206/206/206
f 211/211/211 210/210/210 209/209/209
f 212/212/212 211/211/211 209/209/209
f 215/215/215 214/214/214 213/213/213
f 216/216/216 215/215/215 213/213/213
f 219/219/219 218/218/218 217/217/217
f 220/220/220 219/219/219 217/217/217
f 223/223/223 222/222/222 221/221/221
f 224/224/224 223/223/223 221/221/221
f 227/227/227 226/226/226 225/225/225
f 228/228/228 227/227/227 225/225/225
f 231/231/231 230/230/230 229/229/229
f 232/232/232 231/231/231 229/229/229
f 235/235/235 234/234/234 233/233/233
f 236/236/236 235/235/235 233/233/233
f 239/239/239 238/238/238 237/237/237
f 240/240/240 239/239/239 237/237/237
f 243/243/243 242/242/242 241/241/241
f 244/244/244 243/243/243 241/241/241
f 247/247/247 246/246/246 245/245/245
f 248/248/248 247/247/247 245/245/245
f 251/251/251 250/250/250 249/249/249
f 252/252/252 251/251/251 249/249/249
f 255/255/255 254/254/254 253/253/253
f 256/256/256 255/255/255 253/253/253
f 257/257/257 256/256/256 253/253/253
f 256/256/256 257/257/257 258/258/258
f 259/259/259 256/256/256 258/258/258
f 259/259/259 258/258/258 260/260/260
f 261/261/261 259/259/259 260/260/260
f 264/264/264 263/263/263 262/262/262
f 265/265/265 264/264/264 262/262/262
f 268/268/268 267/267/267 266/266/266
f 269/269/269 268/268/268 266/266/266
f 272/272/272 271/271/271 270/270/270
f 273/273/273 272/272/272 270/270/270
f 270/270/270 274/274/274 273/273/273
f 274/274/274 275/275/275 273/273/273
f 278/278/278 277/277/277 276/276/276
f 276/276/276 279/279/279 278/278/278
f 279/279/279 280/280/280 278/278/278
f 283/283/283 282/282/282 281/281/281
f 284/284/284 283/283/283 281/281/281
f 281/281/281 285/285/285 284/284/284
f 285/285/285 286/286/286 284/284/284
f 289/289/289 288/288/288 287/287/287
f 290/290/290 289/289/289 287/287/287
f 293/293/293 292/292/292 291/291/291
f 294/294/294 293/293/293 291/291/291
f 297/297/297 296/296/296 295/295/295
f 298/298/298 297/297/297 295/295/295
f 301/301/301 300/300/300 299/299/299
f 302/302/302 301/301/301 299/299/299
f 303/303/303 301/301/301 302/302/302
f 304/304/304 303/303/303 302/302/302
f 307/307/307 306/306/306 305/305/305
f 308/308/308 307/307/307 305/305/305
f 311/311/311 310/310/310 309/309/309
f 312/312/312 311/311/311 309/309/309
f 315/315/315 314/314/314 313/313/313
f 316/316/316 315/315/315 313/313/313
f 319/319/319 318/318/318 317/317/317
f 320/320/320 319/319/319 317/317/317
f 323/323/323 322/322/322 321/321/321
f 324/324/324 323/323/323 321/321/321
f 327/327/327 326/326/326 325/325/325
f 328/328/328 327/327/327 325/325/325
f 331/331/331 330/330/330 329/329/329
f 332/332/332 331/331/331 329/329/329
f 335/335/335 334/334/334 333/333/333
f 334/334/334 336/336/336 333/333/333
f 336/336/336 337/337/337 333/333/333
f 337/337/337 338/338/338 333/333/333
f 341/341/341 340/340/340 339/339/339
f 342/342/342 341/341/341 339/339/339
f 345/345/345 344/344/344 343/343/343
f 346/346/346 345/345/345 343/343/343
f 349/349/349 348/348/348 347/347/347
f 348/348/348 350/350/350 347/347/347
f 347/347/347 350/350/350 351/351/351
f 354/354/354 353/353/353 352/352/352
f 355/355/355 354/354/354 352/352/352
f 358/358/358 357/357/357 356/356/356
f 359/359/359 358/358/358 356/356/356
f 362/362/362 361/361/361 360/360/360
f 363/363/363 362/362/362 360/360/360
f 366/366/366 365/365/365 364/364/364
f 367/367/367 366/366/366 364/364/364
f 370/370/370 369/369/369 368/368/368
f 371/371/371 370/370/370 368/368/368
f 372/372/372 370/370/370 371/371/371
f 370/370/370 372/372/372 373/373/373
f 374/374/374 373/373/373 372/372/372
f 375/375/375 374/374/374 372/372/372
f 372/372/372 371/371/371 376/376/376
f 377/377/377 372/372/372 376/376/376
f 376/376/376 378/378/378 377/377/377
f 381/381/381 380/380/380 379/379/379
f 382/382/382 381/381/381 379/379/379
f 385/385/385 384/384/384 383/383/383
f 386/386/386 385/385/385 383/383/383
f 389/389/389 388/388/388 387/387/387
f 390/390/390 389/389/389 387/387/387
f 393/393/393 392/392/392 391/391/391
f 394/394/394 393/393/393 391/391/391
f 397/397/397 396/396/396 395/395/395
f 398/398/398 397/397/397 395/395/395
f 401/401/401 400/400/400 399/399/399
f 402/402/402 401/401/401 399/399/399
f 405/405/405 404/404/404 403/403/403
f 404/404/404 406/406/406 403/403/403
f 403/403/403 406/406/406 407/407/407
f 408/408/408 406/406/406 404/404/404
f 409/409/409 403/403/403 407/407/407
f 409/409/409 407/407/407 410/410/410
f 411/411/411 409/409/409 410/410/410
f 411/411/411 410/410/410 412/412/412
f 413/413/413 411/411/411 412/412/412
f 413/413/413 412/412/412 414/414/414
f 415/415/415 413/413/413 414/414/414
f 404/404/404 416/416/416 408/408/408
f 415/415/415 414/414/414 417/417/417
f 416/416/416 418/418/418 408/408/408
f 418/418/418 416/416/416 417/417/417
f 419/419/419 415/415/415 417/417/417
f 417/417/417 416/416/416 419/419/419
f 416/416/416 420/420/420 419/419/419
f 423/423/423 422/422/422 421/421/421
f 424/424/424 423/423/423 421/421/421
f 427/427/427 426/426/426 425/425/425
f 428/428/428 427/427/427 425/425/425
f 431/431/431 430/430/430 429/429/429
f 432/432/432 431/431/431 429/429/429
f 435/435/435 434/434/434 433/433/433
f 436/436/436 435/435/435 433/433/433
f 439/439/439 438/438/438 437/437/437
f 440/440/440 439/439/439 437/437/437
f 443/443/443 442/442/442 441/441/441
f 444/444/444 443/443/443 441/441/441
f 447/447/447 446/446/446 445/445/445
f 448/448/448 447/447/447 445/445/445
f 451/451/451 450/450/450 449/449/449
f 452/452/452 451/451/451 449/449/449
f 455/455/455 454/454/454 453/453/453
f 456/456/456 455/455/455 453/453/453
f 459/459/459 458/458/458 457/457/457
f 460/460/460 459/459/459 457/457/457
f 463/463/463 462/462/462 461/461/461
f 464/464/464 463/463/463 461/461/461
f 467/467/467 466/466/466 465/465/465
f 468/468/468 467/467/467 465/465/465
f 471/471/471 470/470/470 469/469/469
f 472/472/472 471/471/471 469/469/469
f 475/475/475 474/474/474 473/473/473
f 476/476/476 475/475/475 473/473/473
f 479/479/479 478/478/478 477/477/477
f 480/480/480 479/479/479 477/477/477
f 483/483/483 482/482/482 481/481/481
f 482/482/482 484/484/484 481/481/481
f 481/481/481 484/484/484 485/485/485
f 484/484/484 486/486/486 485/485/485
f 489/489/489 488/488/488 487/487/487
f 490/490/490 489/489/489 487/487/487
f 493/493/493 492/492/492 491/491/491
f 494/494/494 493/493/493 491/491/491
f 497/497/497 496/496/496 495/495/495
f 498/498/498 497/497/497 495/495/495
f 501/501/501 500/500/500 499/499/499
f 500/500/500 502/502/502 499/499/499
f 499/499/499 502/502/502 503/503/503
f 502/502/502 504/504/504 503/503/503
f 503/503/503 504/504/504 505/505/505
f 504/504/504 506/506/506 505/505/505
f 505/505/505 506/506/506 507/507/507
f 508/508/508 505/505/505 507/507/507
f 508/508/508 507/507/507 509/509/509
f 507/507/507 510/510/510 509/509/509
f 513/513/513 512/512/512 511/511/511
f 514/514/514 513/513/513 511/511/511
f 517/517/517 516/516/516 515/515/515
f 515/515/515 518/518/518 517/517/517
f 521/521/521 520/520/520 519/519/519
f 522/522/522 521/521/521 519/519/519
f 525/525/525 524/524/524 523/523/523
f 526/526/526 525/525/525 523/523/523
f 529/529/529 528/528/528 527/527/527
f 530/530/530 529/529/529 527/527/527
f 533/533/533 532/532/532 531/531/531
f 534/534/534 533/533/533 531/531/531
f 537/537/537 536/536/536 535/535/535
f 538/538/538 537/537/537 535/535/535
f 541/541/541 540/540/540 539/539/539
f 542/542/542 541/541/541 539/539/539
f 545/545/545 544/544/544 543/543/543
f 546/546/546 545/545/545 543/543/543
f 549/549/549 548/548/548 547/547/547
f 550/550/550 549/549/549 547/547/547
f 553/553/553 552/552/552 551/551/551
f 554/554/554 553/553/553 551/551/551
f 557/557/557 556/556/556 555/555/555
f 557/557/557 558/558/558 556/556/556
f 558/558/558 559/559/559 556/556/556
f 562/562/562 561/561/561 560/560/560
f 562/562/562 563/563/563 561/561/561
f 563/563/563 564/564/564 561/561/561
f 567/567/567 566/566/566 565/565/565
f 568/568/568 567/567/567 565/565/565
f 571/571/571 570/570/570 569/569/569
f 572/572/572 571/571/571 569/569/569
f 575/575/575 574/574/574 573/573/573
f 574/574/574 576/576/576 573/573/573
f 573/573/573 576/576/576 577/577/577
f 576/576/576 578/578/578 577/577/577
f 574/574/574 579/579/579 576/576/576
f 579/579/579 580/580/580 576/576/576
f 579/579/579 581/581/581 580/580/580
f 581/581/581 582/582/582 580/580/580
f 585/585/585 584/584/584 583/583/583
f 586/586/586 585/585/585 583/583/583
f 583/583/583 587/587/587 586/586/586
f 587/587/587 588/588/588 586/586/586
f 587/587/587 589/589/589 588/588/588
f 589/589/589 590/590/590 588/588/588
f 593/593/593 592/592/592 591/591/591
f 594/594/594 593/593/593 591/591/591
f 597/597/597 596/596/596 595/595/595
f 598/598/598 597/597/597 595/595/595
f 601/601/601 600/600/600 599/599/599
f 602/602/602 601/601/601 599/599/599
f 605/605/605 604/604/604 603/603/603
f 606/606/606 605/605/605 603/603/603
f 609/609/609 608/608/608 607/607/607
f 610/610/610 609/609/609 607/607/607
f 613/613/613 612/612/612 611/611/611
f 611/611/611 612/612/612 614/614/614
f 612/612/612 615/615/615 614/614/614
f 618/618/618 617/617/617 616/616/616
f 619/619/619 618/618/618 616/616/616
f 622/622/622 621/621/621 620/620/620
f 623/623/623 621/621/621 622/622/622
f 624/624/624 623/623/623 622/622/622
f 627/627/627 626/626/626 625/625/625
f 628/628/628 627/627/627 625/625/625
f 631/631/631 630/630/630 629/629/629
f 632/632/632 631/631/631 629/629/629
f 635/635/635 634/634/634 633/633/633
f 636/636/636 635/635/635 633/633/633
f 639/639/639 638/638/638 637/637/637
f 640/640/640 639/639/639 637/637/637
f 643/643/643 642/642/642 641/641/641
f 644/644/644 643/643/643 641/641/641
f 647/647/647 646/646/646 645/645/645
f 648/648/648 647/647/647 645/645/645
f 651/651/651 650/650/650 649/649/649
f 652/652/652 651/651/651 649/649/649
f 655/655/655 654/654/654 653/653/653
f 656/656/656 655/655/655 653/653/653
f 659/659/659 658/658/658 657/657/657
f 660/660/660 659/659/659 657/657/657
f 663/663/663 662/662/662 661/661/661
f 664/664/664 663/663/663 661/661/661
f 667/667/667 666/666/666 665/665/665
f 668/668/668 667/667/667 665/665/665
f 671/671/671 670/670/670 669/669/669
f 672/672/672 671/671/671 669/669/669
f 671/671/671 672/672/672 673/673/673
f 672/672/672 674/674/674 673/673/673
f 677/677/677 676/676/676 675/675/675
f 676/676/676 678/678/678 675/675/675
f 676/676/676 679/679/679 678/678/678
f 679/679/679 680/680/680 678/678/678
f 683/683/683 682/682/682 681/681/681
f 684/684/684 683/683/683 681/681/681
f 687/687/687 686/686/686 685/685/685
f 688/688/688 687/687/687 685/685/685
f 685/685/685 686/686/686 689/689/689
f 690/690/690 687/687/687 688/688/688
f 686/686/686 691/691/691 689/689/689
f 692/692/692 690/690/690 688/688/688
f 689/689/689 691/691/691 692/692/692
f 691/691/691 690/690/690 692/692/692
f 695/695/695 694/694/694 693/693/693
f 696/696/696 695/695/695 693/693/693
f 697/697/697 695/695/695 696/696/696
f 693/693/693 694/694/694 698/698/698
f 693/693/693 698/698/698 696/696/696
f 694/694/694 699/699/699 698/698/698
f 700/700/700 697/697/697 696/696/696
f 698/698/698 700/700/700 696/696/696
f 699/699/699 697/697/697 700/700/700
f 698/698/698 699/699/699 700/700/700
