g rays-beam
v -1.91509827E-07 0.0141220586 -0.500000715
v 0.433012843 0.0141220344 -0.250000536
v 0.433012843 84.7926025 -0.249977574
v -1.91509827E-07 84.7926025 -0.499977678
v -0.433012843 0.0141220344 -0.250000656
v -0.433012843 84.7926025 -0.249977693
v 0.433012843 84.7926025 -0.249977574
v 0.433012843 0.0141220344 -0.250000536
v 0.433012605 0.0141219851 0.249999419
v 0.433012605 84.7926025 0.250022441
v -1.39944831E-07 84.7926025 0.500022292
v -1.39944831E-07 0.0141219608 0.499999285
v -0.433012724 84.7926025 0.250022501
v -0.433012724 0.0141219851 0.249999478
v -0.433012843 84.7926025 -0.249977693
v -0.433012843 0.0141220344 -0.250000656
vt 0.43822059 0.435574412
vt 0.37619555 0.435574412
vt 0.37619555 0.0229797363
vt 0.43822059 0.0229797363
vt 0.500244975 0.435574412
vt 0.500244975 0.0229797363
vt 0.37619555 0.0229797363
vt 0.37619555 0.435574412
vt 0.37619555 0.435574412
vt 0.37619555 0.0229797363
vt 0.43822059 0.0229797363
vt 0.43822059 0.435574412
vt 0.500244975 0.0229797363
vt 0.500244975 0.435574412
vt 0.500244975 0.0229797363
vt 0.500244975 0.435574412
vn -0 0 -1
vn 0.866025507 0 -0.499999911
vn 0.866025507 0 -0.499999732
vn -0 0 -1
vn -0.866025448 0 -0.499999911
vn -0.866025507 0 -0.499999732
vn 0.866025507 0 -0.499999732
vn 0.866025507 0 -0.499999911
vn 0.866025269 0 0.500000298
vn 0.866025269 0 0.500000417
vn -0 0 1
vn -0 0 1
vn -0.866025269 0 0.500000298
vn -0.866025329 0 0.500000179
vn -0.866025507 0 -0.499999732
vn -0.866025448 0 -0.499999911
g rays-beam_0
f 3/3/3 2/2/2 1/1/1
f 4/4/4 3/3/3 1/1/1
f 4/4/4 1/1/1 5/5/5
f 6/6/6 4/4/4 5/5/5
f 9/9/9 8/8/8 7/7/7
f 10/10/10 9/9/9 7/7/7
f 10/10/10 11/11/11 9/9/9
f 11/11/11 12/12/12 9/9/9
f 12/12/12 11/11/11 13/13/13
f 14/14/14 12/12/12 13/13/13
f 13/13/13 15/15/15 14/14/14
f 15/15/15 16/16/16 14/14/14
