g building_VOSE_LP
v 1.47752833 1.51867104 17.6637878
v 1.47752833 16.018671 17.6637878
v 1.4775331 16.018671 10.1611204
v 1.47752893 1.51867104 10.1611204
v 2.23445797 1.51867104 -7.29376888
v 1.96647978 1.51867104 -12.5088167
v 20.1925735 0.0516756698 -12.5088167
v 20.1925697 0.0186710358 -7.29266071
v -22.2374935 1.01867104 -7.29266071
v -22.2374992 1.02970648 -12.5088167
v -4.0114131 1.51867104 -12.5088167
v -4.27939224 1.51867104 -7.29376888
v 1.96647978 1.51867104 -12.5088167
v 2.23445797 1.51867104 -7.29376888
v 2.49942636 1.51867104 -16.0085793
v -4.54435968 1.51867104 -16.0085793
v -22.2374992 1.02970648 -12.5088167
v -22.2374935 1.01867104 -7.29266071
v -22.2374935 -1.4950211 -7.29266071
v -22.2374973 -1.4950211 -12.9088163
v -22.2374992 1.42970645 -12.5088167
v -22.2374973 1.41867101 -12.9088163
v 2.37674427 -1.4950211 -12.9088163
v 2.37674427 1.91867101 -12.9088163
v 2.97338486 1.91867101 -16.4085503
v 2.97338486 -1.4950211 -16.4085503
v 20.1925735 0.0516756698 -12.5088167
v 20.1925735 0.451675683 -12.5088167
v 20.1925755 0.418671042 -12.9088163
v 20.1925755 -1.4950211 -12.9088163
v 20.1925697 0.0186710358 -7.29266071
v 20.1925697 -1.4950211 -7.29266071
v -22.2374992 1.02970648 -12.5088167
v -22.2374992 1.42970645 -12.5088167
v -4.0114131 1.91867101 -12.5088167
v -4.0114131 1.51867104 -12.5088167
v 2.97338486 -1.4950211 -16.4085503
v 2.97338486 1.91867101 -16.4085503
v -5.01831818 1.91867101 -16.4085503
v -5.01831818 -1.4950211 -16.4085503
v -4.0114131 1.51867104 -12.5088167
v -4.0114131 1.91867101 -12.5088167
v -4.54435968 1.91867101 -16.0085793
v -4.54435968 1.51867104 -16.0085793
v 1.96647978 1.51867104 -12.5088167
v 1.96647978 1.91867101 -12.5088167
v 20.1925735 0.451675683 -12.5088167
v 20.1925735 0.0516756698 -12.5088167
v 2.37674427 1.91867101 -12.9088163
v 1.96647978 1.91867101 -12.5088167
v 2.49942636 1.91867101 -16.0085793
v 2.97338486 1.91867101 -16.4085503
v -4.54435968 1.91867101 -16.0085793
v -5.01831818 1.91867101 -16.4085503
v -4.0114131 1.91867101 -12.5088167
v -4.42167759 1.91867101 -12.9088163
v -4.54435968 1.51867104 -16.0085793
v -4.54435968 1.91867101 -16.0085793
v 2.49942636 1.91867101 -16.0085793
v 2.49942636 1.51867104 -16.0085793
v 20.1925755 0.418671042 -12.9088163
v 20.1925735 0.451675683 -12.5088167
v 1.96647978 1.91867101 -12.5088167
v 2.37674427 1.91867101 -12.9088163
v -4.42167759 1.91867101 -12.9088163
v -4.0114131 1.91867101 -12.5088167
v -22.2374992 1.42970645 -12.5088167
v -22.2374973 1.41867101 -12.9088163
v -4.42167759 -1.4950211 -12.9088163
v -4.42167759 1.91867101 -12.9088163
v -22.2374973 1.41867101 -12.9088163
v -22.2374973 -1.4950211 -12.9088163
v 2.49942636 1.51867104 -16.0085793
v 2.49942636 1.91867101 -16.0085793
v 1.96647978 1.91867101 -12.5088167
v 1.96647978 1.51867104 -12.5088167
v -5.01831818 -1.4950211 -16.4085503
v -5.01831818 1.91867101 -16.4085503
v -4.42167759 1.91867101 -12.9088163
v -4.42167759 -1.4950211 -12.9088163
v 20.1925755 -1.4950211 -12.9088163
v 20.1925755 0.418671042 -12.9088163
v 2.37674427 1.91867101 -12.9088163
v 2.37674427 -1.4950211 -12.9088163
v -3.56356359 6.17185783 -9.29414272
v -3.9579947 1.51867104 -9.29407024
v -3.56356359 1.51867104 -9.29414272
v -3.9579947 7.78541374 -9.29407024
v 1.49769557 6.17185783 -9.2937479
v 1.89210188 7.78541374 -9.29376888
v 1.49769557 1.51867104 -9.29374981
v 1.89210212 1.51867104 -9.29376888
v 1.49769557 6.17185783 -9.2937479
v 1.49763787 6.17185783 -7.2824688
v 1.49762523 1.51867104 -7.28244114
v 1.49769557 1.51867104 -9.29374981
v -3.9579947 7.78541374 -9.29407024
v -3.95800877 7.78541374 -7.29407024
v -3.95800877 1.51867104 -7.29407024
v -3.9579947 1.51867104 -9.29407024
v 1.89210212 1.51867104 -9.29376888
v 1.89208782 1.51867104 -7.29376888
v 1.89506328 7.78541374 -7.29382038
v 1.89210188 7.78541374 -9.29376888
v -3.56356359 1.51867104 -9.29414272
v -3.56363344 1.51867104 -7.28283405
v -3.56363344 6.17185783 -7.28283405
v -3.56356359 6.17185783 -9.29414272
v 1.89210188 7.78541374 -9.29376888
v 1.59254575 7.78541374 -8.99378395
v -3.65799689 7.78541374 -8.99405479
v -3.9579947 7.78541374 -9.29407024
v -3.9579947 7.78541374 -9.29407024
v -3.65799689 7.78541374 -8.99405479
v -3.65800691 7.78541374 -7.29406929
v -3.95800877 7.78541374 -7.29407024
v 1.59254575 6.37185764 -8.99378395
v 1.59461844 6.37185764 -7.29384518
v -3.65800691 6.37185764 -7.29406929
v -3.65799689 6.37185764 -8.99405479
v 1.89506328 7.78541374 -7.29382038
v 1.59461844 7.78541374 -7.29384518
v 1.59254575 7.78541374 -8.99378395
v 1.89210188 7.78541374 -9.29376888
v 1.59461844 7.78541374 -7.29384518
v 1.59461844 6.37185764 -7.29384518
v 1.59254575 6.37185764 -8.99378395
v 1.59254575 7.78541374 -8.99378395
v -3.65799689 7.78541374 -8.99405479
v -3.65799689 6.37185764 -8.99405479
v -3.65800691 6.37185764 -7.29406929
v -3.65800691 7.78541374 -7.29406929
v 1.59254575 7.78541374 -8.99378395
v 1.59254575 6.37185764 -8.99378395
v -3.65799689 6.37185764 -8.99405479
v -3.65799689 7.78541374 -8.99405479
v 1.49769557 6.17185783 -9.2937479
v -3.56356359 6.17185783 -9.29414272
v -3.56363344 6.17185783 -7.28283405
v 1.49763787 6.17185783 -7.2824688
v -11.1205587 19.018671 18.0637894
v -11.1205587 18.8186703 18.0637894
v -11.1205673 18.8186703 29.8637886
v -11.1205673 19.018671 29.8637886
v 6.5798502 18.8186703 18.0637894
v -11.1205587 18.8186703 18.0637894
v -11.1205587 19.018671 18.0637894
v 6.5798502 19.018671 18.0637894
v -11.1205673 19.018671 29.8637886
v -11.1205673 18.8186703 29.8637886
v 6.57985878 18.8186703 29.8637886
v 6.57985878 19.018671 29.8637886
v 6.5798502 18.8186703 18.0637894
v 6.57985878 18.8186703 29.8637886
v -11.1205673 18.8186703 29.8637886
v -11.1205587 18.8186703 18.0637894
v 6.5798502 19.018671 18.0637894
v 6.57985878 19.018671 29.8637886
v 6.57985878 18.8186703 29.8637886
v 6.5798502 18.8186703 18.0637894
v 20.9950676 19.018671 10.9641075
v 20.9950676 19.3186703 10.9641075
v 20.9950676 19.3186703 -8.09300423
v 20.9950676 19.018671 -8.09300423
v -23.0400066 19.018671 -8.09563637
v -23.0400066 19.3186703 -8.09563637
v -23.0400066 19.3186703 10.9614792
v -23.0400066 19.018671 10.9614792
v -23.0400066 19.018671 10.9614792
v -23.0400066 19.3186703 10.9614792
v 20.9950676 19.3186703 10.9641075
v 20.9950676 19.018671 10.9641075
v 20.9950676 19.018671 -8.09300423
v 20.9950676 19.3186703 -8.09300423
v -23.0400066 19.3186703 -8.09563637
v -23.0400066 19.018671 -8.09563637
v -23.0400066 19.3186703 10.9614792
v -23.0400066 19.3186703 -8.09563637
v 20.9950676 19.3186703 -8.09300423
v 20.9950676 19.3186703 10.9641075
v 6.6979928 21.8186703 4.39742136
v 6.69799471 21.7186699 1.69742119
v 8.79799461 21.7186699 1.6974225
v 8.79799271 21.8186703 4.39742279
v 8.79799461 19.3186703 1.6974225
v 9.0979948 19.3186703 1.69742274
v 9.0979948 21.8186588 1.69594204
v 8.79799461 21.7186699 1.6974225
v 8.79799461 21.8186588 1.69594181
v 6.69799471 21.7186699 1.69742119
v 8.79799461 21.7186699 1.6974225
v 6.69799471 19.3186703 1.69742119
v 6.39799452 19.3186703 1.69742107
v 6.39799452 21.8186588 1.69594026
v 6.69799471 21.8186588 1.69594049
v 9.0979929 19.3186703 4.69742298
v 6.39799261 19.3186703 4.69742107
v 6.39799261 21.9186592 4.69594002
v 9.0979929 21.9186592 4.69594193
v 6.39799261 19.3186703 4.69742107
v 6.39799452 19.3186703 1.69742107
v 6.39799452 21.8186588 1.69594026
v 6.39799261 21.9186592 4.69594002
v 6.6979928 21.8186703 4.39742136
v 8.79799271 21.8186703 4.39742279
v 8.79799271 21.9186592 4.39594173
v 6.6979928 21.9186592 4.39594078
v 8.79799271 21.8186703 4.39742279
v 8.79799461 21.7186699 1.6974225
v 8.79799461 21.8186588 1.69594181
v 8.79799271 21.9186592 4.39594173
v 9.0979948 19.3186703 1.69742274
v 9.0979929 19.3186703 4.69742298
v 9.0979929 21.9186592 4.69594193
v 9.0979948 21.8186588 1.69594204
v 8.79799271 21.9186592 4.39594173
v 8.79799461 21.8186588 1.69594181
v 9.0979948 21.8186588 1.69594204
v 9.0979929 21.9186592 4.69594193
v 6.6979928 21.9186592 4.39594078
v 6.39799261 21.9186592 4.69594002
v 6.69799471 21.8186588 1.69594049
v 6.39799452 21.8186588 1.69594026
v 6.69799471 21.7186699 1.69742119
v 6.6979928 21.8186703 4.39742136
v 6.6979928 21.9186592 4.39594078
v 6.69799471 21.8186588 1.69594049
v -3.52246237 16.018671 17.6637878
v -3.52246237 1.51867104 17.6637878
v -3.52246237 1.51867104 10.1611214
v -3.52246714 16.018671 10.1611214
v 20.2950668 19.018671 -0.891054988
v 20.1925545 19.018671 -1.13854313
v 20.1925545 0.0186710358 -1.13854313
v 20.2950668 0.0186710358 -0.891054988
v 20.1925564 0.0186710358 4.01030159
v 20.1925602 0.0186710358 9.66532707
v 20.1925602 19.018671 9.66532612
v 20.192564 19.018671 4.01030159
v 20.2950687 19.018671 3.76281309
v 20.1925564 19.018671 3.51532507
v 20.1925564 0.0186710358 3.51532507
v 20.2950687 0.0186710358 3.76281309
v 20.1925602 0.0186710358 9.66532707
v 20.2950726 0.0186710358 9.91281414
v 20.2950726 19.018671 9.91281319
v 20.1925602 19.018671 9.66532612
v 20.1925545 19.018671 -0.643567026
v 20.2950668 19.018671 -0.891054988
v 20.2950668 0.0186710358 -0.891054988
v 20.1925545 0.0186710358 -0.643567026
v 20.1925583 19.018671 -6.7935667
v 20.2950706 19.018671 -7.04105568
v 20.2950706 0.0186710358 -7.04105568
v 20.1925583 0.0186710358 -6.7935667
v 20.1925545 19.018671 -1.13854313
v 20.1925583 19.018671 -6.7935667
v 20.1925583 0.0186710358 -6.7935667
v 20.1925545 0.0186710358 -1.13854313
v 19.6976299 19.018671 10.1611338
v 19.9450722 19.018671 10.2628145
v 19.9450722 0.0186710358 10.2628145
v 19.6975842 0.0186710358 10.1603022
v 20.1925545 19.018671 -0.643567026
v 20.1925545 0.0186710358 -0.643567026
v 20.1925564 0.0186710358 3.51532507
v 20.1925564 19.018671 3.51532507
v 20.192564 19.018671 4.01030159
v 20.2950687 19.018671 3.76281309
v 20.2950687 0.0186710358 3.76281309
v 20.1925564 0.0186710358 4.01030159
v -3.12246323 16.018671 17.6637859
v -3.52246237 16.018671 17.6637878
v -3.52246714 16.018671 10.1611214
v -3.12246561 16.018671 10.1611176
v 1.07752919 16.018671 17.6637859
v 1.07753158 16.018671 10.1611176
v 1.47752833 16.018671 17.6637878
v 1.4775331 16.018671 10.1611204
v 6.97985077 1.51867104 17.6637897
v 6.9798584 1.51867104 30.2637901
v 6.9798584 19.018671 30.2637901
v 6.97985077 19.018671 17.6637878
v 19.9450722 0.0186710358 -7.39105558
v 20.1925583 0.0186710358 -7.28854275
v 20.1925583 19.018671 -7.28854275
v 19.9450722 19.018671 -7.39105558
v 19.9450722 19.018671 -7.39105558
v 19.6975822 19.018671 -7.29059935
v 19.6975822 0.0186710358 -7.28854322
v 19.9450722 0.0186710358 -7.39105558
v 16.2261162 19.018671 -7.39105892
v 15.9786272 19.018671 -7.28854656
v 15.9786272 0.0186710358 -7.28799534
v 16.2261162 0.0186710358 -7.39105892
v 20.1925583 0.0186710358 -7.28854275
v 20.2950706 0.0186710358 -7.04105568
v 20.2950706 19.018671 -7.04105568
v 20.1925583 19.018671 -7.28854275
v 16.4736023 19.018671 -7.28854227
v 16.2261162 19.018671 -7.39105892
v 16.2261162 0.0186710358 -7.39105892
v 16.4736023 0.0186710358 -7.28799486
v 16.4736023 0.0186710358 -7.28799486
v 19.6975822 0.0186710358 -7.28854322
v 19.6975822 19.018671 -7.29059935
v 16.4736023 19.018671 -7.28854227
v -22.3400002 0.0186710358 -7.04108381
v -22.2374878 0.0186710358 -7.2885704
v -22.2374878 19.018671 -7.2885704
v -22.3400002 19.018671 -7.04108381
v -22.2374878 0.0186710358 -7.2885704
v -21.9899979 0.0186710358 -7.39108276
v -21.9899979 19.018671 -7.39108276
v -22.2374878 19.018671 -7.2885704
v -18.2710419 0.0186710358 -7.39108133
v -18.0235558 0.0186710358 -7.28801775
v -18.0235558 19.018671 -7.28856897
v -18.2710419 19.018671 -7.39108133
v -21.9899979 0.0186710358 -7.39108276
v -21.7425117 0.0186710358 -7.2885704
v -21.7425117 19.018671 -7.2885704
v -21.9899979 19.018671 -7.39108276
v -18.5185318 0.0186710358 -7.28801775
v -18.2710419 0.0186710358 -7.39108133
v -18.2710419 19.018671 -7.39108133
v -18.5185318 19.018671 -7.28856516
v -18.5185318 0.0186710358 -7.28801775
v -18.5185318 19.018671 -7.28856516
v -21.7425117 19.018671 -7.2885704
v -21.7425117 0.0186710358 -7.2885704
v -18.0235558 19.018671 -7.28856897
v -18.0235558 0.0186710358 -7.28801775
v 15.9786272 0.0186710358 -7.28799534
v 15.9786272 19.018671 -7.28854656
v 20.1925602 0.0186710358 10.1603022
v 20.1925602 19.018671 10.1603022
v 20.2950726 19.018671 9.91281319
v 20.2950726 0.0186710358 9.91281414
v -22.3400211 0.0186710358 9.91278553
v -22.2375088 0.0186710358 9.66529942
v -22.2375088 19.018671 9.66529846
v -22.3400211 19.018671 9.91278553
v -21.7425327 17.518671 10.1602755
v -21.9900208 19.018671 10.2627878
v -21.7425785 19.018671 10.1611071
v -21.9900208 0.0186710358 10.2627878
v -21.7425327 0.0186710358 10.1602755
v -22.3400211 19.018671 9.91278553
v -22.2375088 19.018671 10.1602755
v -22.2375088 0.0186710358 10.1602755
v -22.3400211 0.0186710358 9.91278553
v -21.9900208 0.0186710358 10.2627878
v -22.2375088 0.0186710358 10.1602755
v -22.2375088 19.018671 10.1602755
v -21.9900208 19.018671 10.2627878
v -21.7425785 19.018671 10.1611071
v 19.6976299 19.018671 10.1611338
v 19.6975842 0.0186710358 10.1603022
v -21.7425327 17.518671 10.1602755
v -21.7425327 0.0186710358 10.1602755
v -22.2375088 0.0186710358 9.66529942
v -22.2374973 0.0186710358 4.01027393
v -22.237505 19.018671 4.01027393
v -22.2375088 19.018671 9.66529846
v -22.2374916 0.0186710358 -0.643594682
v -22.340004 0.0186710358 -0.891082764
v -22.340004 19.018671 -0.891082764
v -22.2374916 19.018671 -0.643594682
v -22.2374973 0.0186710358 4.01027393
v -22.3400097 0.0186710358 3.76278543
v -22.3400097 19.018671 3.76278543
v -22.237505 19.018671 4.01027393
v -22.340004 19.018671 -0.891082764
v -22.340004 0.0186710358 -0.891082764
v -22.2374916 0.0186710358 -1.13857079
v -22.2374916 19.018671 -1.13857079
v -22.2374916 0.0186710358 -1.13857079
v -22.2374878 0.0186710358 -6.79359436
v -22.2374878 19.018671 -6.79359436
v -22.2374916 19.018671 -1.13857079
v -22.3400097 0.0186710358 3.76278543
v -22.2374973 0.0186710358 3.51529741
v -22.2374973 19.018671 3.51529741
v -22.3400097 19.018671 3.76278543
v -22.2374973 19.018671 3.51529741
v -22.2374973 0.0186710358 3.51529741
v -22.2374916 0.0186710358 -0.643594682
v -22.2374916 19.018671 -0.643594682
v 19.9450722 0.0186710358 10.2628145
v 19.9450722 19.018671 10.2628145
v 20.1925602 19.018671 10.1603022
v 20.1925602 0.0186710358 10.1603022
v -22.2374878 0.0186710358 -6.79359436
v -22.3400002 0.0186710358 -7.04108381
v -22.3400002 19.018671 -7.04108381
v -22.2374878 19.018671 -6.79359436
v 6.9798584 19.018671 30.2637901
v 6.9798584 1.51867104 30.2637901
v -11.5205669 1.51867104 30.2637901
v -11.5205669 19.018671 30.2637901
v -11.5205574 19.018671 17.6637897
v -11.5205574 1.51867104 17.6637897
v 6.97985077 1.51867104 17.6637897
v 6.97985077 19.018671 17.6637878
v -11.5205574 1.51867104 17.6637897
v -11.5205574 19.018671 17.6637897
v -11.5205669 19.018671 30.2637901
v -11.5205669 1.51867104 30.2637901
v -11.1205587 19.018671 18.0637894
v 6.97985077 19.018671 17.6637878
v 6.5798502 19.018671 18.0637894
v 6.57985878 19.018671 29.8637886
v -11.5205574 19.018671 17.6637897
v 6.9798584 19.018671 30.2637901
v -11.1205673 19.018671 29.8637886
v -11.5205669 19.018671 30.2637901
vt 0.279639155 0.210529625
vt 0.279639155 0.28464213
vt 0.317986876 0.28464213
vt 0.317895323 0.210529625
vt 0.13341859 0.213438809
vt 0.131923884 0.240580156
vt 0.227864534 0.240638345
vt 0.227842301 0.213306442
vt 0.00577842444 0.213306472
vt 0.00574034452 0.240624458
vt 0.101357371 0.240572467
vt 0.0998645276 0.213448808
vt 0.131923884 0.240580156
vt 0.13341859 0.213438809
vt 0.134076878 0.257883668
vt 0.0992623791 0.257845879
vt 0.311732709 0.485167682
vt 0.335144937 0.485217154
vt 0.335144937 0.496499717
vt 0.309937298 0.496499717
vt 0.311732709 0.483372211
vt 0.309937298 0.483421803
vt 0.162232324 0.496499717
vt 0.162232324 0.481177568
vt 0.178167149 0.481177568
vt 0.178167149 0.496499717
vt 0.0804717988 0.489557385
vt 0.0804717988 0.487762094
vt 0.0822671503 0.487910211
vt 0.0822671503 0.496499658
vt 0.0570594519 0.489705503
vt 0.0570594519 0.496499658
vt 0.00574034452 0.240624458
vt 0.00582538545 0.242699414
vt 0.100362815 0.241554841
vt 0.101357371 0.240572467
vt 0.178167149 0.496499717
vt 0.178167149 0.481177568
vt 0.214037344 0.481177568
vt 0.214037344 0.496499717
vt 0.101357371 0.240572467
vt 0.100362815 0.241554841
vt 0.0983902887 0.258707315
vt 0.0992623791 0.257845879
vt 0.131923884 0.240580156
vt 0.132867128 0.24155803
vt 0.227754369 0.242707714
vt 0.227864534 0.240638345
vt 0.134883329 0.243613705
vt 0.132867128 0.24155803
vt 0.134946242 0.258737803
vt 0.137299314 0.260790795
vt 0.0983902887 0.258707315
vt 0.0960436314 0.260763824
vt 0.100362815 0.241554841
vt 0.0983536243 0.243608803
vt 0.0992623791 0.257845879
vt 0.0983902887 0.258707315
vt 0.134946242 0.258737803
vt 0.134076878 0.257883668
vt 0.22783047 0.244794041
vt 0.227754369 0.242707714
vt 0.132867128 0.24155803
vt 0.134883329 0.243613705
vt 0.0983536243 0.243608803
vt 0.100362815 0.241554841
vt 0.00582538545 0.242699414
vt 0.00584996492 0.244776264
vt 0.229972407 0.496499717
vt 0.229972407 0.481177568
vt 0.309937298 0.483421803
vt 0.309937298 0.496499717
vt 0.134076878 0.257883668
vt 0.134946242 0.258737803
vt 0.132867128 0.24155803
vt 0.131923884 0.240580156
vt 0.214037344 0.496499717
vt 0.214037344 0.481177568
vt 0.229972407 0.481177568
vt 0.229972407 0.496499717
vt 0.0822671503 0.496499658
vt 0.0822671503 0.487910211
vt 0.162232324 0.481177568
vt 0.162232324 0.496499717
vt 0.0447768271 0.474366188
vt 0.046261698 0.456849754
vt 0.0447768271 0.456849754
vt 0.046261698 0.480440319
vt 0.0257242024 0.474366188
vt 0.0242394507 0.480440319
vt 0.0257242024 0.456849873
vt 0.0242395699 0.456849873
vt 0.0257242024 0.474366188
vt 0.0332954228 0.474366248
vt 0.033295542 0.456849873
vt 0.0257242024 0.456849873
vt 0.046261698 0.480440319
vt 0.0537903607 0.480440319
vt 0.0537903607 0.456849873
vt 0.046261698 0.456849754
vt 0.0242395699 0.456849873
vt 0.0167106688 0.456849873
vt 0.016710788 0.480440319
vt 0.0242394507 0.480440319
vt 0.0447768271 0.456849754
vt 0.0372053683 0.456849754
vt 0.0372053683 0.474366188
vt 0.0447768271 0.474366188
vt 0.0627987683 0.467293978
vt 0.063926369 0.468423247
vt 0.0836916268 0.468422353
vt 0.0848210156 0.467293024
vt 0.0901423991 0.472614169
vt 0.0890128911 0.473743558
vt 0.0890128911 0.480142951
vt 0.0901423991 0.480142951
vt 0.0639267266 0.473744452
vt 0.0639188588 0.480143666
vt 0.083691746 0.480142951
vt 0.083691746 0.473743558
vt 0.0574665368 0.480137229
vt 0.0585975945 0.480137169
vt 0.0586054623 0.473737895
vt 0.0574778616 0.472608566
vt 0.0585975945 0.480137169
vt 0.0639188588 0.480143666
vt 0.0639267266 0.473744452
vt 0.0586054623 0.473737895
vt 0.0890128911 0.473743558
vt 0.083691746 0.473743558
vt 0.083691746 0.480142951
vt 0.0890128911 0.480142951
vt 0.063926369 0.468423247
vt 0.0639267266 0.473744452
vt 0.083691746 0.473743558
vt 0.0836916268 0.468422353
vt 0.0823576748 0.457416773
vt 0.0633050501 0.457416713
vt 0.0633052886 0.464988112
vt 0.0823579133 0.464988112
vt 0.00575273577 0.450784653
vt 0.00575273577 0.450784653
vt 0.00575273577 0.390472502
vt 0.00575273577 0.390472502
vt 0.0962231681 0.450784773
vt 0.00575273577 0.450784653
vt 0.00575273577 0.450784653
vt 0.0962231681 0.450784773
vt 0.00575273577 0.390472502
vt 0.00575273577 0.390472502
vt 0.0962232873 0.390472502
vt 0.0962232873 0.390472502
vt 0.0962231681 0.450784773
vt 0.0962232873 0.390472502
vt 0.00575273577 0.390472502
vt 0.00575273577 0.450784653
vt 0.0962231681 0.450784773
vt 0.0962232873 0.390472502
vt 0.0962232873 0.390472502
vt 0.0962231681 0.450784773
vt 0.228529289 0.276949584
vt 0.226891354 0.278874278
vt 0.225638226 0.374244809
vt 0.22756584 0.375852823
vt 0.00473235548 0.375852823
vt 0.0063701123 0.373928189
vt 0.00762324035 0.278557658
vt 0.00569574535 0.276949584
vt 0.00569574535 0.276949584
vt 0.00762324035 0.278557658
vt 0.226891354 0.278874278
vt 0.228529289 0.276949584
vt 0.22756584 0.375852823
vt 0.225638226 0.374244809
vt 0.0063701123 0.373928189
vt 0.00473235548 0.375852823
vt 0.00762324035 0.278557658
vt 0.0063701123 0.373928189
vt 0.225638226 0.374244809
vt 0.226891354 0.278874278
vt 0.0259233266 0.267371118
vt 0.025877431 0.250604153
vt 0.0389245898 0.250604153
vt 0.0389243513 0.267368793
vt 0.177655771 0.249696672
vt 0.179530933 0.249673009
vt 0.17929323 0.26534608
vt 0.177429155 0.264639527
vt 0.177403644 0.265269428
vt 0.164221123 0.264639854
vt 0.177429155 0.264639527
vt 0.163747624 0.249960721
vt 0.161912754 0.250019938
vt 0.162405923 0.265310615
vt 0.164240792 0.265251487
vt 0.198338822 0.249946982
vt 0.215265945 0.250203222
vt 0.215019181 0.266503245
vt 0.198092058 0.266247004
vt 0.143563464 0.250600934
vt 0.161912754 0.250019938
vt 0.162405923 0.265310615
vt 0.144076064 0.266503245
vt 0.0259233266 0.267371118
vt 0.0389243513 0.267368793
vt 0.0392377526 0.267704487
vt 0.0256180316 0.267698407
vt 0.0389243513 0.267368793
vt 0.0389245898 0.250604153
vt 0.0395552069 0.250626385
vt 0.0392377526 0.267704487
vt 0.179530933 0.249673009
vt 0.198338822 0.249946982
vt 0.198092058 0.266247004
vt 0.17929323 0.26534608
vt 0.0392377526 0.267704487
vt 0.0395552069 0.250626385
vt 0.0414503962 0.250658393
vt 0.0411802083 0.269666016
vt 0.0256180316 0.267698407
vt 0.0236920863 0.269641936
vt 0.0252298266 0.250605702
vt 0.0233131796 0.250624776
vt 0.025877431 0.250604153
vt 0.0259233266 0.267371118
vt 0.0256180316 0.267698407
vt 0.0252298266 0.250605702
vt 0.274603188 0.284532487
vt 0.274603188 0.210419968
vt 0.236347005 0.210419968
vt 0.236255452 0.284532487
vt 0.295278281 0.104340255
vt 0.296543151 0.104340255
vt 0.296543151 0.0072273016
vt 0.295278281 0.0072273016
vt 0.27022633 0.0072273016
vt 0.241322428 0.0072273016
vt 0.241322428 0.104340255
vt 0.2702263 0.104340248
vt 0.271491408 0.104340263
vt 0.272756279 0.104340248
vt 0.272756308 0.0072273016
vt 0.271491379 0.0072273016
vt 0.241322428 0.0072273016
vt 0.240057439 0.0072273016
vt 0.240057439 0.104340255
vt 0.241322428 0.104340255
vt 0.294013232 0.104340255
vt 0.295278281 0.104340255
vt 0.295278281 0.0072273016
vt 0.294013232 0.0072273016
vt 0.325447053 0.104340255
vt 0.326712161 0.104340255
vt 0.326712161 0.0072273016
vt 0.325447053 0.0072273016
vt 0.296543151 0.104340255
vt 0.325447053 0.104340255
vt 0.325447053 0.0072273016
vt 0.296543151 0.0072273016
vt 0.229612976 0.205726802
vt 0.230877727 0.205726802
vt 0.230877727 0.108613968
vt 0.229612678 0.108613968
vt 0.294013232 0.104340255
vt 0.294013232 0.0072273016
vt 0.272756308 0.0072273016
vt 0.272756279 0.104340248
vt 0.2702263 0.104340248
vt 0.271491408 0.104340263
vt 0.271491379 0.0072273016
vt 0.27022633 0.0072273016
vt 0.0535481572 0.270523906
vt 0.0535481572 0.272568226
vt 0.0918959081 0.272568345
vt 0.0918959081 0.270523906
vt 0.0535481572 0.249056935
vt 0.0918959081 0.249056935
vt 0.0535481572 0.247012377
vt 0.0918959081 0.247012377
vt 0.336548746 0.385588467
vt 0.272147536 0.385588467
vt 0.272147536 0.475034535
vt 0.336548746 0.475034535
vt 0.0161596239 0.00702488422
vt 0.0148947537 0.00702488422
vt 0.0148947537 0.104137778
vt 0.0161596239 0.104137778
vt 0.0161596239 0.104137778
vt 0.0174246728 0.104137778
vt 0.0174246728 0.00702488422
vt 0.0161596239 0.00702488422
vt 0.0351680219 0.104137778
vt 0.0364329517 0.104137778
vt 0.0364329517 0.00702488422
vt 0.0351680219 0.00702488422
vt 0.0148947537 0.00702488422
vt 0.0143707097 0.00702488422
vt 0.0143707097 0.104137778
vt 0.0148947537 0.104137778
vt 0.0339030325 0.104137778
vt 0.0351680219 0.104137778
vt 0.0351680219 0.00702488422
vt 0.0339030325 0.00702488422
vt 0.0339030325 0.00702488422
vt 0.0174246728 0.00702488422
vt 0.0174246728 0.104137778
vt 0.0339030325 0.104137778
vt 0.232287258 0.00702488422
vt 0.231763273 0.00702488422
vt 0.231763273 0.104137778
vt 0.232287258 0.104137778
vt 0.231763273 0.00702488422
vt 0.230498344 0.00702488422
vt 0.230498344 0.104137778
vt 0.231763273 0.104137778
vt 0.211490005 0.00702488422
vt 0.210225135 0.00702488422
vt 0.210225135 0.104137778
vt 0.211490005 0.104137778
vt 0.230498344 0.00702488422
vt 0.229233414 0.00702488422
vt 0.229233414 0.104137778
vt 0.230498344 0.104137778
vt 0.212755054 0.00702488422
vt 0.211490005 0.00702488422
vt 0.211490005 0.104137778
vt 0.212755054 0.104137778
vt 0.212755054 0.00702488422
vt 0.212755054 0.104137778
vt 0.229233414 0.104137778
vt 0.229233414 0.00702488422
vt 0.210225135 0.104137778
vt 0.210225135 0.00702488422
vt 0.0364329517 0.00702488422
vt 0.0364329517 0.104137778
vt 0.232142597 0.108613968
vt 0.232142597 0.205726802
vt 0.232666641 0.205726802
vt 0.232666641 0.108613968
vt 0.325940102 0.108221889
vt 0.324675232 0.108221889
vt 0.324675232 0.205334783
vt 0.325940102 0.205334783
vt 0.0178038776 0.198060036
vt 0.0165388882 0.205726802
vt 0.0178036392 0.205726802
vt 0.0165388882 0.108613968
vt 0.0178038776 0.108613968
vt 0.014749974 0.205726802
vt 0.015274018 0.205726802
vt 0.015274018 0.108613968
vt 0.014749974 0.108613968
vt 0.0165388882 0.108613968
vt 0.015274018 0.108613968
vt 0.015274018 0.205726802
vt 0.0165388882 0.205726802
vt 0.0178036392 0.205726802
vt 0.229612976 0.205726802
vt 0.229612678 0.108613968
vt 0.0178038776 0.198060036
vt 0.0178038776 0.108613968
vt 0.324675232 0.108221889
vt 0.295771211 0.108221889
vt 0.295771211 0.205334783
vt 0.324675232 0.205334783
vt 0.271984249 0.108221889
vt 0.27071932 0.108221889
vt 0.27071932 0.205334783
vt 0.271984249 0.205334783
vt 0.295771211 0.108221889
vt 0.294506282 0.108221889
vt 0.294506282 0.205334783
vt 0.295771211 0.205334783
vt 0.27071932 0.205334783
vt 0.27071932 0.108221889
vt 0.26945439 0.108221889
vt 0.26945439 0.205334783
vt 0.26945439 0.108221889
vt 0.240550488 0.108221889
vt 0.240550488 0.205334783
vt 0.26945439 0.205334783
vt 0.294506282 0.108221889
vt 0.293241233 0.108221889
vt 0.293241233 0.205334783
vt 0.294506282 0.205334783
vt 0.293241233 0.205334783
vt 0.293241233 0.108221889
vt 0.271984249 0.108221889
vt 0.271984249 0.205334783
vt 0.230877727 0.108613968
vt 0.230877727 0.205726802
vt 0.232142597 0.205726802
vt 0.232142597 0.108613968
vt 0.240550488 0.108221889
vt 0.239285439 0.108221889
vt 0.239285439 0.205334783
vt 0.240550488 0.205334783
vt 0.330342531 0.377215147
vt 0.330342531 0.287769079
vt 0.235783041 0.287769079
vt 0.235783041 0.377215147
vt 0.198361754 0.47378242
vt 0.198361754 0.384336352
vt 0.103802443 0.384336352
vt 0.103802443 0.47378242
vt 0.202314034 0.384552628
vt 0.202314034 0.473998696
vt 0.266715109 0.473998696
vt 0.266715109 0.384552628
vt 0.00575273577 0.450784653
vt 0.0982677266 0.452829212
vt 0.0962231681 0.450784773
vt 0.0962232873 0.390472502
vt 0.00370841566 0.452829212
vt 0.0982677266 0.388428181
vt 0.00575273577 0.390472502
vt 0.00370841566 0.388427943
vn 1 0 0
vn 1 0 0
vn 1 0 0
vn 1 0 0
vn 0.0817226171 0.99665451 0.00105402118
vn 0.0817226171 0.99665451 0.00105402118
vn 0.0817226171 0.99665451 0.00105402118
vn 0.0817226171 0.99665451 0.00105402118
vn -0.0273211803 0.999626637 0.000355661614
vn -0.0273211803 0.999626637 0.000355661614
vn -0.0273211803 0.999626637 0.000355661614
vn -0.0273211803 0.999626637 0.000355661614
vn -0 1 0
vn -0 1 0
vn -0 1 0
vn -0 1 0
vn -1 0 0
vn -1 0 0
vn -1 0 0
vn -1 0 0
vn -1 0 0
vn -1 0 0
vn 0.985777318 0 0.16805698
vn 0.985777318 0 0.16805698
vn 0.985777318 0 0.16805698
vn 0.985777318 0 0.16805698
vn 1 0 0
vn 1 0 0
vn 1 0 0
vn 1 0 0
vn 1 0 0
vn 1 0 0
vn -0 0 1
vn -0 0 1
vn -0 0 1
vn -0 0 1
vn -0 0 -1
vn -0 0 -1
vn -0 0 -1
vn -0 0 -1
vn 0.988603115 0 -0.150545299
vn 0.988603115 0 -0.150545299
vn 0.988603115 0 -0.150545299
vn 0.988603115 0 -0.150545299
vn -0 0 1
vn -0 0 1
vn -0 0 1
vn -0 0 1
vn -0 1 0
vn -0 1 0
vn -0 1 0
vn -0 1 0
vn -0 1 0
vn -0 1 0
vn -0 1 0
vn -0 1 0
vn -0 0 1
vn -0 0 1
vn -0 0 1
vn -0 0 1
vn 0.0820433348 0.996628344 0.000957795419
vn 0.0820433348 0.996628344 0.000957795419
vn 0.0820433348 0.996628344 0.000957795419
vn 0.0820433348 0.996628344 0.000957795419
vn -0.0274289697 0.999623656 0.000277264422
vn -0.0274289697 0.999623656 0.000277264422
vn -0.0274289697 0.999623656 0.000277264422
vn -0.0274289697 0.999623656 0.000277264422
vn -0 0 -1
vn -0 0 -1
vn -0 0 -1
vn -0 0 -1
vn -0.988603115 0 -0.150545254
vn -0.988603115 0 -0.150545254
vn -0.988603115 0 -0.150545254
vn -0.988603115 0 -0.150545254
vn -0.985777318 0 0.168057054
vn -0.985777318 0 0.168057054
vn -0.985777318 0 0.168057054
vn -0.985777318 0 0.168057054
vn -0 0 -1
vn -0 0 -1
vn -0 0 -1
vn -0 0 -1
vn 6.38034544E-05 1.60335258E-05 -1
vn -0.000183756449 0 -1
vn -0.000183756449 0 -1
vn 6.38034544E-05 1.60335258E-05 -1
vn 6.38034544E-05 1.60335258E-05 -1
vn 6.38034544E-05 1.60335258E-05 -1
vn -5.11352664E-05 0 -1
vn -5.11352664E-05 0 -1
vn -1 0 -3.17927879E-05
vn -1 0 -3.17927879E-05
vn -1 0 -3.17927879E-05
vn -1 0 -3.17927879E-05
vn -1 0 0
vn -1 0 0
vn -1 0 0
vn -1 0 0
vn 0.999999762 -0.000237385277 -0.000736789894
vn 0.999999762 -0.000237385277 -0.000736789894
vn 0.999999762 -0.000237385277 -0.000736789894
vn 0.999999762 -0.000237385277 -0.000736789894
vn 1 0 3.48495341E-05
vn 1 0 3.48495341E-05
vn 1 0 3.48495341E-05
vn 1 0 3.48495341E-05
vn -0 1 0
vn -0 1 0
vn -0 1 0
vn -0 1 0
vn -0 1 0
vn -0 1 0
vn -0 1 0
vn -0 1 0
vn -0 1 0
vn -0 1 0
vn -0 1 0
vn -0 1 0
vn -0 1 0
vn -0 1 0
vn -0 1 0
vn -0 1 0
vn -0.999999285 0 0.00121929846
vn -0.999999285 0 0.00121929846
vn -0.999999285 0 0.00121929846
vn -0.999999285 0 0.00121929846
vn 1 0 0
vn 1 0 0
vn 1 0 0
vn 1 0 0
vn -5.15839238E-05 0 1
vn -5.15839238E-05 0 1
vn -5.15839238E-05 0 1
vn -5.15839238E-05 0 1
vn -0 -1 0
vn -0 -1 0
vn -0 -1 0
vn -0 -1 0
vn 1 0 0
vn 1 0 0
vn 1 0 0
vn 1 0 0
vn -0 0 1
vn -0 0 1
vn -0 0 1
vn -0 0 1
vn -0 0 -1
vn -0 0 -1
vn -0 0 -1
vn -0 0 -1
vn -0 1 0
vn -0 1 0
vn -0 1 0
vn -0 1 0
vn -1 0 0
vn -1 0 0
vn -1 0 0
vn -1 0 0
vn 1 0 0
vn 1 0 0
vn 1 0 0
vn 1 0 0
vn -1 0 0
vn -1 0 0
vn -1 0 0
vn -1 0 0
vn -5.96870341E-05 0 1
vn -5.96870341E-05 0 1
vn -5.96870341E-05 0 1
vn -5.96870341E-05 0 1
vn 5.97738908E-05 0 -1
vn 5.97738908E-05 0 -1
vn 5.97738908E-05 0 -1
vn 5.97738908E-05 0 -1
vn -0 1 0
vn -0 1 0
vn -0 1 0
vn -0 1 0
vn -0 0.999314785 -0.0370117947
vn -0 0.999314785 -0.0370117947
vn -0 0.999314785 -0.0370117947
vn -0 0.999314785 -0.0370117947
vn -0.00241667149 -0.000302158674 -0.99999702
vn -0.00241667149 -0.000302158674 -0.99999702
vn -0.00241667149 -0.000302158674 -0.99999702
vn -0.00241667149 -0.000302158674 -0.99999702
vn -0 -0.0148058925 -0.999890447
vn 0.00241806079 -0.000302159082 -0.99999702
vn -0 0 -1
vn 0.00241806079 -0.000302159082 -0.99999702
vn 0.00241806079 -0.000302159082 -0.99999702
vn 0.00241806079 -0.000302159082 -0.99999702
vn -0 -0.0148058329 -0.999890447
vn -0 0.000569625816 0.999999881
vn -0 0.000569625816 0.999999881
vn -0 0.000569625816 0.999999881
vn -0 0.000569625816 0.999999881
vn -1 0 0
vn -1 0 0
vn -1 0 0
vn -1 0 0
vn -0 -0.0148092173 -0.999890327
vn -0 -0.0148092173 -0.999890327
vn -0 -0.0148092173 -0.999890327
vn -0 -0.0148092173 -0.999890327
vn -1 0 0
vn -1 0 0
vn -1 0 0
vn -1 0 0
vn 1 0 0
vn 1 0 0
vn 1 0 0
vn 1 0 0
vn 0.0175235681 0.999231458 -0.0350609012
vn 0.0175235681 0.999231458 -0.0350609012
vn 0.0175235681 0.999231458 -0.0350609012
vn 0.0175235681 0.999231458 -0.0350609012
vn -0 1 0
vn -0 1 0
vn -0.0175302122 0.999231339 -0.0350609124
vn -0.0175302122 0.999231339 -0.0350609124
vn 1 0 0
vn 1 0 0
vn 1 0 0
vn 1 0 0
vn -1 0 0
vn -1 0 0
vn -1 0 0
vn -1 0 0
vn 0.923881173 0 -0.382679671
vn 0.923881173 0 -0.382679671
vn 0.923881173 0 -0.382679671
vn 0.923881173 0 -0.382679671
vn 1 0 0
vn 1 0 0
vn 1 0 0
vn 1 0 0
vn 0.923881054 0 -0.38267982
vn 0.923881054 0 -0.38267982
vn 0.923881054 0 -0.38267982
vn 0.923881054 0 -0.38267982
vn 0.923878372 0 -0.382686168
vn 0.923878372 0 -0.382686168
vn 0.923878372 0 -0.382686168
vn 0.923878372 0 -0.382686168
vn 0.923880935 0 0.38267988
vn 0.923880935 0 0.38267988
vn 0.923880935 0 0.38267988
vn 0.923880935 0 0.38267988
vn 0.923879445 0 0.382683665
vn 0.923879445 0 0.382683665
vn 0.923879445 0 0.382683665
vn 0.923879445 0 0.382683665
vn 1 0 0
vn 1 0 0
vn 1 0 0
vn 1 0 0
vn -0.381387502 -1.97812769E-05 0.924415231
vn -0.381387502 -1.97812769E-05 0.924415231
vn -0.381387502 -1.97812769E-05 0.924415231
vn -0.381387502 -1.97812769E-05 0.924415231
vn 1 0 0
vn 1 0 0
vn 1 0 0
vn 1 0 0
vn 0.923885524 0 0.382668942
vn 0.923885524 0 0.382668942
vn 0.923885524 0 0.382668942
vn 0.923885524 0 0.382668942
vn -0 1 0
vn -0 1 0
vn -0 1 0
vn -0 1 0
vn -0 1 0
vn -0 1 0
vn -0 1 0
vn -0 1 0
vn 1 0 0
vn 1 0 0
vn 1 0 0
vn 1 0 0
vn 0.382685542 0 -0.923878729
vn 0.382685542 0 -0.923878729
vn 0.382685542 0 -0.923878729
vn 0.382685542 0 -0.923878729
vn -0.379396766 -5.00782517E-05 -0.925234079
vn -0.379396766 -5.00782517E-05 -0.925234079
vn -0.379396766 -5.00782517E-05 -0.925234079
vn -0.379396766 -5.00782517E-05 -0.925234079
vn -0.383557439 -1.3391852E-05 -0.923517048
vn -0.383557439 -1.3391852E-05 -0.923517048
vn -0.383557439 -1.3391852E-05 -0.923517048
vn -0.383557439 -1.3391852E-05 -0.923517048
vn 0.923878372 0 -0.382686168
vn 0.923878372 0 -0.382686168
vn 0.923878372 0 -0.382686168
vn 0.923878372 0 -0.382686168
vn 0.3835693 -1.32983041E-05 -0.923512161
vn 0.3835693 -1.32983041E-05 -0.923512161
vn 0.3835693 -1.32983041E-05 -0.923512161
vn 0.3835693 -1.32983041E-05 -0.923512161
vn -0.000404071761 -6.85337072E-05 -1
vn -0.000404071761 -6.85337072E-05 -1
vn -0.000404071761 -6.85337072E-05 -1
vn -0.000404071761 -6.85337072E-05 -1
vn -0.923880219 0 -0.382681668
vn -0.923880219 0 -0.382681668
vn -0.923880219 0 -0.382681668
vn -0.923880219 0 -0.382681668
vn -0.382679731 0 -0.923881054
vn -0.382679731 0 -0.923881054
vn -0.382679731 0 -0.923881054
vn -0.382679731 0 -0.923881054
vn 0.383563787 -1.3392073E-05 -0.923514366
vn 0.383563787 -1.3392073E-05 -0.923514366
vn 0.383563787 -1.3392073E-05 -0.923514366
vn 0.383563787 -1.3392073E-05 -0.923514366
vn 0.382683992 0 -0.923879325
vn 0.382683992 0 -0.923879325
vn 0.382683992 0 -0.923879325
vn 0.382683992 0 -0.923879325
vn -0.383561343 -1.33215035E-05 -0.923515379
vn -0.383561343 -1.33215035E-05 -0.923515379
vn -0.383561343 -1.33215035E-05 -0.923515379
vn -0.383561343 -1.33215035E-05 -0.923515379
vn 8.65234178E-05 -1.4416677E-05 -1
vn 8.65234178E-05 -1.4416677E-05 -1
vn 8.65234178E-05 -1.4416677E-05 -1
vn 8.65234178E-05 -1.4416677E-05 -1
vn -0 -2.9004008E-05 -1
vn -0 -2.9004008E-05 -1
vn -0 -2.9004008E-05 -1
vn -0 -2.9004008E-05 -1
vn 0.923879206 0 0.38268432
vn 0.923879206 0 0.38268432
vn 0.923879206 0 0.38268432
vn 0.923879206 0 0.38268432
vn -0.923880219 0 -0.382681668
vn -0.923880219 0 -0.382681668
vn -0.923880219 0 -0.382681668
vn -0.923880219 0 -0.382681668
vn 0.38008821 -0.000501460687 0.924950182
vn 0.38008821 -0.000501460687 0.924950182
vn 0.38008821 -0.000501460687 0.924950182
vn 0.38268128 0 0.923880458
vn 0.38268128 0 0.923880458
vn -0.923882067 0 0.382677287
vn -0.923882067 0 0.382677287
vn -0.923882067 0 0.382677287
vn -0.923882067 0 0.382677287
vn -0.382681817 0 0.9238801
vn -0.382681817 0 0.9238801
vn -0.382681817 0 0.9238801
vn -0.382681817 0 0.9238801
vn -0 -4.37979397E-05 1
vn -0 -4.37979397E-05 1
vn -0 -4.37979397E-05 1
vn -0 -4.37979397E-05 1
vn -0 -4.37979397E-05 1
vn -1 0 0
vn -1 0 0
vn -1 0 0
vn -1 0 0
vn -0.923878908 0 0.382684827
vn -0.923878908 0 0.382684827
vn -0.923878908 0 0.382684827
vn -0.923878908 0 0.382684827
vn -0.923885524 0 0.382668942
vn -0.923885524 0 0.382668942
vn -0.923885524 0 0.382668942
vn -0.923885524 0 0.382668942
vn -0.923878908 0 -0.382684916
vn -0.923878908 0 -0.382684916
vn -0.923878908 0 -0.382684916
vn -0.923878908 0 -0.382684916
vn -1 0 0
vn -1 0 0
vn -1 0 0
vn -1 0 0
vn -0.923881054 0 -0.38267982
vn -0.923881054 0 -0.38267982
vn -0.923881054 0 -0.38267982
vn -0.923881054 0 -0.38267982
vn -1 0 0
vn -1 0 0
vn -1 0 0
vn -1 0 0
vn 0.382681817 0 0.9238801
vn 0.382681817 0 0.9238801
vn 0.382681817 0 0.9238801
vn 0.382681817 0 0.9238801
vn -0.923881888 0 0.382677972
vn -0.923881888 0 0.382677972
vn -0.923881888 0 0.382677972
vn -0.923881888 0 0.382677972
vn -0 0 1
vn -0 0 1
vn -0 0 1
vn -0 0 1
vn -0 0 -1
vn -0 0 -1
vn -0 0 -1
vn -0 0 -1
vn -1 0 0
vn -1 0 0
vn -1 0 0
vn -1 0 0
vn -0 1 0
vn -0 1 0
vn -0 1 0
vn -0 1 0
vn -0 1 0
vn -0 1 0
vn -0 1 0
vn -0 1 0
g building_VOSE_LP_0
f 3/3/3 2/2/2 1/1/1
f 4/4/4 3/3/3 1/1/1
f 7/7/7 6/6/6 5/5/5
f 8/8/8 7/7/7 5/5/5
f 11/11/11 10/10/10 9/9/9
f 12/12/12 11/11/11 9/9/9
f 13/13/13 11/11/11 12/12/12
f 14/14/14 13/13/13 12/12/12
f 11/11/11 13/13/13 15/15/15
f 16/16/16 11/11/11 15/15/15
f 19/19/19 18/18/18 17/17/17
f 20/20/20 19/19/19 17/17/17
f 17/17/17 21/21/21 20/20/20
f 21/21/21 22/22/22 20/20/20
f 25/25/25 24/24/24 23/23/23
f 26/26/26 25/25/25 23/23/23
f 29/29/29 28/28/28 27/27/27
f 30/30/30 29/29/29 27/27/27
f 27/27/27 31/31/31 30/30/30
f 31/31/31 32/32/32 30/30/30
f 35/35/35 34/34/34 33/33/33
f 36/36/36 35/35/35 33/33/33
f 39/39/39 38/38/38 37/37/37
f 40/40/40 39/39/39 37/37/37
f 43/43/43 42/42/42 41/41/41
f 44/44/44 43/43/43 41/41/41
f 47/47/47 46/46/46 45/45/45
f 48/48/48 47/47/47 45/45/45
f 51/51/51 50/50/50 49/49/49
f 52/52/52 51/51/51 49/49/49
f 53/53/53 51/51/51 52/52/52
f 54/54/54 53/53/53 52/52/52
f 55/55/55 53/53/53 54/54/54
f 56/56/56 55/55/55 54/54/54
f 59/59/59 58/58/58 57/57/57
f 60/60/60 59/59/59 57/57/57
f 63/63/63 62/62/62 61/61/61
f 64/64/64 63/63/63 61/61/61
f 67/67/67 66/66/66 65/65/65
f 68/68/68 67/67/67 65/65/65
f 71/71/71 70/70/70 69/69/69
f 72/72/72 71/71/71 69/69/69
f 75/75/75 74/74/74 73/73/73
f 76/76/76 75/75/75 73/73/73
f 79/79/79 78/78/78 77/77/77
f 80/80/80 79/79/79 77/77/77
f 83/83/83 82/82/82 81/81/81
f 84/84/84 83/83/83 81/81/81
f 87/87/87 86/86/86 85/85/85
f 86/86/86 88/88/88 85/85/85
f 85/85/85 88/88/88 89/89/89
f 88/88/88 90/90/90 89/89/89
f 89/89/89 90/90/90 91/91/91
f 90/90/90 92/92/92 91/91/91
f 95/95/95 94/94/94 93/93/93
f 96/96/96 95/95/95 93/93/93
f 99/99/99 98/98/98 97/97/97
f 100/100/100 99/99/99 97/97/97
f 103/103/103 102/102/102 101/101/101
f 104/104/104 103/103/103 101/101/101
f 107/107/107 106/106/106 105/105/105
f 108/108/108 107/107/107 105/105/105
f 111/111/111 110/110/110 109/109/109
f 112/112/112 111/111/111 109/109/109
f 115/115/115 114/114/114 113/113/113
f 116/116/116 115/115/115 113/113/113
f 119/119/119 118/118/118 117/117/117
f 120/120/120 119/119/119 117/117/117
f 123/123/123 122/122/122 121/121/121
f 124/124/124 123/123/123 121/121/121
f 127/127/127 126/126/126 125/125/125
f 128/128/128 127/127/127 125/125/125
f 131/131/131 130/130/130 129/129/129
f 132/132/132 131/131/131 129/129/129
f 135/135/135 134/134/134 133/133/133
f 136/136/136 135/135/135 133/133/133
f 139/139/139 138/138/138 137/137/137
f 140/140/140 139/139/139 137/137/137
f 143/143/143 142/142/142 141/141/141
f 144/144/144 143/143/143 141/141/141
f 147/147/147 146/146/146 145/145/145
f 148/148/148 147/147/147 145/145/145
f 151/151/151 150/150/150 149/149/149
f 152/152/152 151/151/151 149/149/149
f 155/155/155 154/154/154 153/153/153
f 156/156/156 155/155/155 153/153/153
f 159/159/159 158/158/158 157/157/157
f 160/160/160 159/159/159 157/157/157
f 163/163/163 162/162/162 161/161/161
f 164/164/164 163/163/163 161/161/161
f 167/167/167 166/166/166 165/165/165
f 168/168/168 167/167/167 165/165/165
f 171/171/171 170/170/170 169/169/169
f 172/172/172 171/171/171 169/169/169
f 175/175/175 174/174/174 173/173/173
f 176/176/176 175/175/175 173/173/173
f 179/179/179 178/178/178 177/177/177
f 180/180/180 179/179/179 177/177/177
f 183/183/183 182/182/182 181/181/181
f 184/184/184 183/183/183 181/181/181
f 187/187/187 186/186/186 185/185/185
f 188/188/188 187/187/187 185/185/185
f 189/189/189 187/187/187 188/188/188
f 191/191/191 185/185/185 190/190/190
f 185/185/185 192/192/192 190/190/190
f 190/190/190 192/192/192 193/193/193
f 194/194/194 190/190/190 193/193/193
f 195/195/195 190/190/190 194/194/194
f 198/198/198 197/197/197 196/196/196
f 199/199/199 198/198/198 196/196/196
f 202/202/202 201/201/201 200/200/200
f 203/203/203 202/202/202 200/200/200
f 206/206/206 205/205/205 204/204/204
f 207/207/207 206/206/206 204/204/204
f 210/210/210 209/209/209 208/208/208
f 211/211/211 210/210/210 208/208/208
f 214/214/214 213/213/213 212/212/212
f 215/215/215 214/214/214 212/212/212
f 218/218/218 217/217/217 216/216/216
f 219/219/219 218/218/218 216/216/216
f 219/219/219 216/216/216 220/220/220
f 221/221/221 219/219/219 220/220/220
f 221/221/221 220/220/220 222/222/222
f 223/223/223 221/221/221 222/222/222
f 226/226/226 225/225/225 224/224/224
f 227/227/227 226/226/226 224/224/224
f 230/230/230 229/229/229 228/228/228
f 231/231/231 230/230/230 228/228/228
f 234/234/234 233/233/233 232/232/232
f 235/235/235 234/234/234 232/232/232
f 238/238/238 237/237/237 236/236/236
f 239/239/239 238/238/238 236/236/236
f 242/242/242 241/241/241 240/240/240
f 243/243/243 242/242/242 240/240/240
f 246/246/246 245/245/245 244/244/244
f 247/247/247 246/246/246 244/244/244
f 250/250/250 249/249/249 248/248/248
f 251/251/251 250/250/250 248/248/248
f 254/254/254 253/253/253 252/252/252
f 255/255/255 254/254/254 252/252/252
f 258/258/258 257/257/257 256/256/256
f 259/259/259 258/258/258 256/256/256
f 262/262/262 261/261/261 260/260/260
f 263/263/263 262/262/262 260/260/260
f 266/266/266 265/265/265 264/264/264
f 267/267/267 266/266/266 264/264/264
f 270/270/270 269/269/269 268/268/268
f 271/271/271 270/270/270 268/268/268
f 274/274/274 273/273/273 272/272/272
f 275/275/275 274/274/274 272/272/272
f 275/275/275 272/272/272 276/276/276
f 277/277/277 275/275/275 276/276/276
f 277/277/277 276/276/276 278/278/278
f 279/279/279 277/277/277 278/278/278
f 282/282/282 281/281/281 280/280/280
f 283/283/283 282/282/282 280/280/280
f 286/286/286 285/285/285 284/284/284
f 287/287/287 286/286/286 284/284/284
f 290/290/290 289/289/289 288/288/288
f 291/291/291 290/290/290 288/288/288
f 294/294/294 293/293/293 292/292/292
f 295/295/295 294/294/294 292/292/292
f 298/298/298 297/297/297 296/296/296
f 299/299/299 298/298/298 296/296/296
f 302/302/302 301/301/301 300/300/300
f 303/303/303 302/302/302 300/300/300
f 306/306/306 305/305/305 304/304/304
f 307/307/307 306/306/306 304/304/304
f 310/310/310 309/309/309 308/308/308
f 311/311/311 310/310/310 308/308/308
f 314/314/314 313/313/313 312/312/312
f 315/315/315 314/314/314 312/312/312
f 318/318/318 317/317/317 316/316/316
f 319/319/319 318/318/318 316/316/316
f 322/322/322 321/321/321 320/320/320
f 323/323/323 322/322/322 320/320/320
f 326/326/326 325/325/325 324/324/324
f 327/327/327 326/326/326 324/324/324
f 330/330/330 329/329/329 328/328/328
f 331/331/331 330/330/330 328/328/328
f 334/334/334 333/333/333 332/332/332
f 335/335/335 334/334/334 332/332/332
f 338/338/338 337/337/337 336/336/336
f 339/339/339 338/338/338 336/336/336
f 342/342/342 341/341/341 340/340/340
f 343/343/343 342/342/342 340/340/340
f 346/346/346 345/345/345 344/344/344
f 345/345/345 347/347/347 344/344/344
f 347/347/347 348/348/348 344/344/344
f 351/351/351 350/350/350 349/349/349
f 352/352/352 351/351/351 349/349/349
f 355/355/355 354/354/354 353/353/353
f 356/356/356 355/355/355 353/353/353
f 359/359/359 358/358/358 357/357/357
f 357/357/357 360/360/360 359/359/359
f 359/359/359 360/360/360 361/361/361
f 364/364/364 363/363/363 362/362/362
f 365/365/365 364/364/364 362/362/362
f 368/368/368 367/367/367 366/366/366
f 369/369/369 368/368/368 366/366/366
f 372/372/372 371/371/371 370/370/370
f 373/373/373 372/372/372 370/370/370
f 376/376/376 375/375/375 374/374/374
f 377/377/377 376/376/376 374/374/374
f 380/380/380 379/379/379 378/378/378
f 381/381/381 380/380/380 378/378/378
f 384/384/384 383/383/383 382/382/382
f 385/385/385 384/384/384 382/382/382
f 388/388/388 387/387/387 386/386/386
f 389/389/389 388/388/388 386/386/386
f 392/392/392 391/391/391 390/390/390
f 393/393/393 392/392/392 390/390/390
f 396/396/396 395/395/395 394/394/394
f 397/397/397 396/396/396 394/394/394
f 400/400/400 399/399/399 398/398/398
f 401/401/401 400/400/400 398/398/398
f 404/404/404 403/403/403 402/402/402
f 405/405/405 404/404/404 402/402/402
f 408/408/408 407/407/407 406/406/406
f 409/409/409 408/408/408 406/406/406
f 412/412/412 411/411/411 410/410/410
f 412/412/412 413/413/413 411/411/411
f 411/411/411 414/414/414 410/410/410
f 413/413/413 415/415/415 411/411/411
f 416/416/416 410/410/410 414/414/414
f 413/413/413 416/416/416 415/415/415
f 417/417/417 416/416/416 414/414/414
f 416/416/416 417/417/417 415/415/415
