g rays-oval
v -60.4504852 0 -25.2395172
v -52.435936 0 -35.9608536
v -52.435936 90 -35.9608536
v -60.4504852 90 -25.2395172
v -20.2942963 90 -56.6866684
v -20.2942963 0 -56.6866684
v -0.232162476 0 -61.3056259
v -0.232162476 90 -61.3056259
v 22.910965 0 54.6124344
v 11.420639 0 58.5210953
v 11.420639 90 58.5210953
v 22.910965 90 54.6124344
v -69.6442947 0 0.843839645
v -67.2252045 0 -10.5405369
v -67.2252045 90 -10.5405369
v -69.6442947 90 0.843839645
v 34.3403625 0 49.0214844
v 22.910965 0 54.6124344
v 22.910965 90 54.6124344
v 34.3403625 90 49.0214844
v -51.8654938 0 45.8545914
v -62.2501068 0 34.4022446
v -62.2501068 90 34.4022446
v -51.8654938 90 45.8545914
v 69.8491211 0 -5.33356857
v 67.982254 0 6.31766891
v 67.982254 90 6.31766891
v 69.8491211 90 -5.33356857
v 1.05110168 0 60.9074707
v 1.05110168 90 60.9074707
v 11.420639 90 58.5210953
v 11.420639 0 58.5210953
v -39.7394104 0 54.9333954
v -51.8654938 0 45.8545914
v -51.8654938 90 45.8545914
v -39.7394104 90 54.9333954
v -9.04471588 0 61.611908
v -19.8701172 0 60.7656555
v -19.8701172 90 60.7656555
v -9.04471588 90 61.611908
v -41.6729126 0 -45.1724319
v -20.2942963 0 -56.6866684
v -20.2942963 90 -56.6866684
v -41.6729126 90 -45.1724319
v 32.4633789 0 -58.8108444
v 43.1594543 0 -53.8610306
v 43.1594543 90 -53.8610306
v 32.4633789 90 -58.8108444
v 61.0144196 0 23.1783829
v 61.0144196 90 23.1783829
v 67.982254 90 6.31766891
v 67.982254 0 6.31766891
v -67.0761414 0 24.2378693
v -69.8491211 0 12.4693794
v -69.8491211 90 12.4693794
v -67.0761414 90 24.2378693
v 60.7941437 0 -38.3478699
v 67.1486511 0 -25.9885712
v 67.1486511 90 -25.9885712
v 60.7941437 90 -38.3478699
v -52.435936 0 -35.9608536
v -41.6729126 0 -45.1724319
v -41.6729126 90 -45.1724319
v -52.435936 90 -35.9608536
v -29.2398682 0 58.9395828
v -39.7394104 0 54.9333954
v -39.7394104 90 54.9333954
v -29.2398682 90 58.9395828
v -0.232162476 0 -61.3056259
v 21.1760712 0 -61.611908
v 21.1760712 90 -61.611908
v -0.232162476 90 -61.3056259
v -19.8701172 0 60.7656555
v -29.2398682 0 58.9395828
v -29.2398682 90 58.9395828
v -19.8701172 90 60.7656555
v -9.04471588 0 61.611908
v -9.04471588 90 61.611908
v 1.05110168 90 60.9074707
v 1.05110168 0 60.9074707
v 52.8240967 0 -46.0401764
v 60.7941437 0 -38.3478699
v 60.7941437 90 -38.3478699
v 52.8240967 90 -46.0401764
v 69.8491211 0 -5.33356857
v 69.8491211 90 -5.33356857
v 67.1486511 90 -25.9885712
v 67.1486511 0 -25.9885712
v 49.3635712 0 37.9432373
v 34.3403625 0 49.0214844
v 34.3403625 90 49.0214844
v 49.3635712 90 37.9432373
v -69.8491211 0 12.4693794
v -69.6442947 0 0.843839645
v -69.6442947 90 0.843839645
v -69.8491211 90 12.4693794
v 43.1594543 0 -53.8610306
v 52.8240967 0 -46.0401764
v 52.8240967 90 -46.0401764
v 43.1594543 90 -53.8610306
v 61.0144196 0 23.1783829
v 49.3635712 0 37.9432373
v 49.3635712 90 37.9432373
v 61.0144196 90 23.1783829
v 21.1760712 0 -61.611908
v 32.4633789 0 -58.8108444
v 32.4633789 90 -58.8108444
v 21.1760712 90 -61.611908
v -62.2501068 0 34.4022446
v -67.0761414 0 24.2378693
v -67.0761414 90 24.2378693
v -62.2501068 90 34.4022446
v -67.2252045 0 -10.5405369
v -60.4504852 0 -25.2395172
v -60.4504852 90 -25.2395172
v -67.2252045 90 -10.5405369
vt -0.808021903 0.00355616212
vt -0.973718166 0.00355628133
vt -0.973718166 1.00005555
vt -0.808021426 1.00005555
vt -1.4496578 1.00005555
vt -1.4496578 0.00355651975
vt -1.70449424 0.00355663896
vt -1.70449352 1.00005555
vt 1.14928627 0.00240546465
vt 0.999049187 0.00240546465
vt 0.999049366 0.998904407
vt 1.14928651 0.998904645
vt -0.463606834 0.00355616212
vt -0.607674837 0.00355616212
vt -0.60767442 1.00005531
vt -0.463606834 1.00005531
vt 1.30678546 0.00240546465
vt 1.14928627 0.00240546465
vt 1.14928651 0.998904645
vt 1.3067857 0.998904645
vt 0.16174905 0.00298064947
vt -0.0296164751 0.00298064947
vt -0.0296160579 0.999479949
vt 0.161749348 0.999479949
vt 2.14255452 0.00240513682
vt 1.99649 0.00240513682
vt 1.99649012 0.998904169
vt 2.14255452 0.998904169
vt 0.867334425 0.00240546465
vt 0.867334723 0.998904645
vt 0.999049366 0.998904407
vt 0.999049187 0.00240546465
vt 0.349260569 0.00298064947
vt 0.16174905 0.00298064947
vt 0.161749348 0.999479949
vt 0.349260986 0.999479949
vt 0.742059469 0.00240546465
vt 0.607648492 0.00240546465
vt 0.607648849 0.998904645
vt 0.742059946 0.998904645
vt -1.14908087 0.00355651975
vt -1.4496578 0.00355651975
vt -1.4496578 1.00005555
vt -1.14908087 1.00005555
vt -2.11348081 0.00355663896
vt -2.25937223 0.00355663896
vt -2.25937223 1.00005579
vt -2.11348081 1.00005579
vt 1.77065969 0.00240513682
vt 1.77065969 0.998904407
vt 1.99649012 0.998904169
vt 1.99649 0.00240513682
vt -0.170012146 0.00355616212
vt -0.319677949 0.00355616212
vt -0.319677591 1.00005531
vt -0.170012027 1.00005531
vt 2.57243538 0.00240501761
vt 2.40040851 0.00240501761
vt 2.40040851 0.998904169
vt 2.57243538 0.998904169
vt -0.973718166 0.00355628133
vt -1.14908087 0.00355651975
vt -1.14908087 1.00005555
vt -0.973718166 1.00005555
vt 0.48948282 0.00240546465
vt 0.350374788 0.00240546465
vt 0.350375086 0.998904645
vt 0.489483178 0.998904645
vt -1.70449424 0.00355663896
vt -1.96952271 0.00355663896
vt -1.96952271 1.00005579
vt -1.70449352 1.00005555
vt 0.607648492 0.00240546465
vt 0.48948282 0.00240546465
vt 0.489483178 0.998904645
vt 0.607648849 0.998904645
vt 0.742059469 0.00240546465
vt 0.742059946 0.998904645
vt 0.867334723 0.998904645
vt 0.867334425 0.00240546465
vt 2.70954752 0.00240501761
vt 2.57243538 0.00240501761
vt 2.57243538 0.998904169
vt 2.709548 0.998904169
vt 2.14255452 0.00240513682
vt 2.14255452 0.998904169
vt 2.40040851 0.998904169
vt 2.40040851 0.00240501761
vt 1.53784394 0.00240534544
vt 1.30678546 0.00240546465
vt 1.3067857 0.998904645
vt 1.53784394 0.998904526
vt -0.319677949 0.00355616212
vt -0.463606834 0.00355616212
vt -0.463606834 1.00005531
vt -0.319677591 1.00005531
vt 2.86344528 0.00240501761
vt 2.70954752 0.00240501761
vt 2.709548 0.998904169
vt 2.86344528 0.998904169
vt 1.77065969 0.00240513682
vt 1.53784394 0.00240534544
vt 1.53784394 0.998904526
vt 1.77065969 0.998904407
vt -1.96952271 0.00355663896
vt -2.11348081 0.00355663896
vt -2.11348081 1.00005579
vt -1.96952271 1.00005579
vt -0.0307303965 0.00355616212
vt -0.170012146 0.00355616212
vt -0.170012027 1.00005531
vt -0.0307302475 1.00005531
vt -0.607674837 0.00355616212
vt -0.808021903 0.00355616212
vt -0.808021426 1.00005555
vt -0.60767442 1.00005531
vn -0.800947726 0 -0.598734319
vn -0.800947726 0 -0.598734319
vn -0.800947726 0 -0.598734319
vn -0.800947726 0 -0.598734319
vn -0.224362984 0 -0.974505663
vn -0.224362984 0 -0.974505663
vn -0.224362984 0 -0.974505663
vn -0.224362984 0 -0.974505663
vn 0.322046757 0 0.946723759
vn 0.322046757 0 0.946723759
vn 0.322046757 0 0.946723759
vn 0.322046757 0 0.946723759
vn -0.978160441 0 -0.207851052
vn -0.978160441 0 -0.207851052
vn -0.978160441 0 -0.207851052
vn -0.978160441 0 -0.207851052
vn 0.439415932 0 0.89828372
vn 0.439415932 0 0.89828372
vn 0.439415932 0 0.89828372
vn 0.439415932 0 0.89828372
vn -0.740796208 0 0.671729803
vn -0.740796208 0 0.671729803
vn -0.740796208 0 0.671729803
vn -0.740796208 0 0.671729803
vn 0.987405241 0 0.158211067
vn 0.987405241 0 0.158211067
vn 0.987405241 0 0.158211067
vn 0.987405241 0 0.158211067
vn 0.224271029 0 0.974526823
vn 0.224271029 0 0.974526823
vn 0.224271029 0 0.974526823
vn 0.224271029 0 0.974526823
vn -0.599333942 0 0.800499141
vn -0.599333942 0 0.800499141
vn -0.599333942 0 0.800499141
vn -0.599333942 0 0.800499141
vn -0.0779350847 0 0.996958494
vn -0.0779350847 0 0.996958494
vn -0.0779350847 0 0.996958494
vn -0.0779350847 0 0.996958494
vn -0.474185199 0 -0.880425155
vn -0.474185199 0 -0.880425155
vn -0.474185199 0 -0.880425155
vn -0.474185199 0 -0.880425155
vn 0.419978768 0 -0.907534003
vn 0.419978768 0 -0.907534003
vn 0.419978768 0 -0.907534003
vn 0.419978768 0 -0.907534003
vn 0.924191296 0 0.381929874
vn 0.924191296 0 0.381929874
vn 0.924191296 0 0.381929874
vn 0.924191296 0 0.381929874
vn -0.973344743 0 0.229346946
vn -0.973344743 0 0.229346946
vn -0.973344743 0 0.229346946
vn -0.973344743 0 0.229346946
vn 0.889337718 0 -0.457250774
vn 0.889337718 0 -0.457250774
vn 0.889337718 0 -0.457250774
vn 0.889337718 0 -0.457250774
vn -0.650226712 0 -0.759740233
vn -0.650226712 0 -0.759740233
vn -0.650226712 0 -0.759740233
vn -0.650226712 0 -0.759740233
vn -0.356489658 0 0.93429929
vn -0.356489658 0 0.93429929
vn -0.356489658 0 0.93429929
vn -0.356489658 0 0.93429929
vn -0.0143052768 0 -0.999897718
vn -0.0143052768 0 -0.999897718
vn -0.0143052768 0 -0.999897718
vn -0.0143052768 0 -0.999897718
vn -0.191291243 0 0.981533349
vn -0.191291243 0 0.981533349
vn -0.191291243 0 0.981533349
vn -0.191291243 0 0.981533349
vn 0.0696059167 0 0.997574508
vn 0.0696059167 0 0.997574508
vn 0.0696059167 0 0.997574508
vn 0.0696059167 0 0.997574508
vn 0.694458544 0 -0.719532788
vn 0.694458544 0 -0.719532788
vn 0.694458544 0 -0.719532788
vn 0.694458544 0 -0.719532788
vn 0.991561353 0 -0.129638523
vn 0.991561353 0 -0.129638523
vn 0.991561353 0 -0.129638523
vn 0.991561353 0 -0.129638523
vn 0.593494654 0 0.804837883
vn 0.593494654 0 0.804837883
vn 0.593494654 0 0.804837883
vn 0.593494654 0 0.804837883
vn -0.99984479 0 -0.0176161099
vn -0.99984479 0 -0.0176161099
vn -0.99984479 0 -0.0176161099
vn -0.99984479 0 -0.0176161099
vn 0.62905699 0 -0.777359188
vn 0.62905699 0 -0.777359188
vn 0.62905699 0 -0.777359188
vn 0.62905699 0 -0.777359188
vn 0.785027921 0 0.619460464
vn 0.785027921 0 0.619460464
vn 0.785027921 0 0.619460464
vn 0.785027921 0 0.619460464
vn 0.240854904 0 -0.970561087
vn 0.240854904 0 -0.970561087
vn 0.240854904 0 -0.970561087
vn 0.240854904 0 -0.970561087
vn -0.903348029 0 0.428908348
vn -0.903348029 0 0.428908348
vn -0.903348029 0 0.428908348
vn -0.903348029 0 0.428908348
vn -0.908180714 0 -0.418578267
vn -0.908180714 0 -0.418578267
vn -0.908180714 0 -0.418578267
vn -0.908180714 0 -0.418578267
g rays-oval_0
f 3/3/3 2/2/2 1/1/1
f 4/4/4 3/3/3 1/1/1
f 7/7/7 6/6/6 5/5/5
f 8/8/8 7/7/7 5/5/5
f 11/11/11 10/10/10 9/9/9
f 12/12/12 11/11/11 9/9/9
f 15/15/15 14/14/14 13/13/13
f 16/16/16 15/15/15 13/13/13
f 19/19/19 18/18/18 17/17/17
f 20/20/20 19/19/19 17/17/17
f 23/23/23 22/22/22 21/21/21
f 24/24/24 23/23/23 21/21/21
f 27/27/27 26/26/26 25/25/25
f 28/28/28 27/27/27 25/25/25
f 31/31/31 30/30/30 29/29/29
f 32/32/32 31/31/31 29/29/29
f 35/35/35 34/34/34 33/33/33
f 36/36/36 35/35/35 33/33/33
f 39/39/39 38/38/38 37/37/37
f 40/40/40 39/39/39 37/37/37
f 43/43/43 42/42/42 41/41/41
f 44/44/44 43/43/43 41/41/41
f 47/47/47 46/46/46 45/45/45
f 48/48/48 47/47/47 45/45/45
f 51/51/51 50/50/50 49/49/49
f 52/52/52 51/51/51 49/49/49
f 55/55/55 54/54/54 53/53/53
f 56/56/56 55/55/55 53/53/53
f 59/59/59 58/58/58 57/57/57
f 60/60/60 59/59/59 57/57/57
f 63/63/63 62/62/62 61/61/61
f 64/64/64 63/63/63 61/61/61
f 67/67/67 66/66/66 65/65/65
f 68/68/68 67/67/67 65/65/65
f 71/71/71 70/70/70 69/69/69
f 72/72/72 71/71/71 69/69/69
f 75/75/75 74/74/74 73/73/73
f 76/76/76 75/75/75 73/73/73
f 79/79/79 78/78/78 77/77/77
f 80/80/80 79/79/79 77/77/77
f 83/83/83 82/82/82 81/81/81
f 84/84/84 83/83/83 81/81/81
f 87/87/87 86/86/86 85/85/85
f 88/88/88 87/87/87 85/85/85
f 91/91/91 90/90/90 89/89/89
f 92/92/92 91/91/91 89/89/89
f 95/95/95 94/94/94 93/93/93
f 96/96/96 95/95/95 93/93/93
f 99/99/99 98/98/98 97/97/97
f 100/100/100 99/99/99 97/97/97
f 103/103/103 102/102/102 101/101/101
f 104/104/104 103/103/103 101/101/101
f 107/107/107 106/106/106 105/105/105
f 108/108/108 107/107/107 105/105/105
f 111/111/111 110/110/110 109/109/109
f 112/112/112 111/111/111 109/109/109
f 115/115/115 114/114/114 113/113/113
f 116/116/116 115/115/115 113/113/113
