g flip_LP
v 38.6092339 10.5499144 -11.7758808
v 40.0079002 10.5499144 -11.7758808
v 40.0079002 5.54991436 -11.7758808
v 40.0079002 5.54991436 -11.7758808
v 23.3020782 5.54991436 -11.7758808
v 22.8020782 10.5499144 -11.7758808
v 38.6092339 11.2499151 -11.7758808
v 22.8020782 11.2499151 -11.7758808
v -3.54301453 5.54991436 -11.7758808
v -3.54301453 10.5499144 -11.7758808
v 40.0079002 10.5499144 -11.7758808
v 40.0079002 10.5499144 -15.0627918
v 41.2485619 10.5499144 -12.8952808
v 38.6092491 10.5499144 -21.1921253
v 40.0079002 10.5499144 -17.9549351
v 41.2485619 10.5499144 -15.7905903
v 41.2485619 10.5499144 -18.8468571
v 40.0079002 10.5499144 -20.9638462
v 40.0079002 10.5499144 -23.9549465
v 41.2485619 10.5499144 -21.8212605
v 40.0079002 10.5499144 -26.9660072
v 41.2485619 10.5499144 -24.8794594
v 40.0079002 10.5499144 -30.2367687
v 41.2485619 10.5499144 -27.8858852
v 38.6092491 10.5499144 -36.2793579
v 40.0079002 10.5499144 -33.124115
v 41.2485619 10.5499144 -30.9926128
v 39.4728966 10.5499144 -36.7132568
v 41.2485619 10.5499144 -34.1379547
v 39.3480186 10.5499144 -39.288559
v 22.8020821 10.5499144 -36.2793579
v 11.6480064 10.5499144 -39.2885513
v 11.6480064 10.5499144 -37.2885666
v 7.84532166 10.5499144 -37.288559
v 7.84532547 10.5499144 -31.7825451
v 11.4594994 10.5499115 -24.069231
v 9.94691849 10.5499115 -22.9702759
v 13.329155 10.5499115 -24.069231
v 14.8417358 10.5499115 -22.9702778
v 15.4194908 10.5499115 -21.1921253
v 22.8020782 10.5499144 -21.1921253
v 22.8020782 10.5499144 -11.7758808
v 14.841732 10.5499115 -19.4139805
v 9.3691597 10.5499115 -21.1921329
v -4.74300385 10.5499144 -21.1921253
v -4.74300575 10.5499144 -31.7782154
v 9.94691849 10.5499115 -19.4139805
v -3.54301453 10.5499144 -11.7758808
v -4.74300575 10.5499144 -11.7715511
v 11.4594994 10.5499115 -18.3150272
v 13.3291512 10.5499115 -18.3150272
v 14.841732 10.5499115 -19.4139805
v -42.9549561 1.48347378 -36.4905624
v -44.6408615 1.27511311 -37.5861282
v -41.1519852 2.54991341 -39.2885666
v -41.1519852 2.54991341 -39.2885666
v -44.6408615 1.27511311 -37.5861282
v -45.6519928 1.04991341 -39.2885666
v -41.1519852 2.54991341 -39.2885666
v -41.2195206 1.54991341 -36.2885666
v -42.9549561 1.48347378 -36.4905624
v 40.0079002 1.95315361 -33.124115
v 41.2485619 1.95315361 -34.1379547
v 41.0164833 1.95315361 -33.9482956
v 7.84532166 9.91991615 -31.7825413
v 7.84532547 10.5499144 -31.7825451
v -4.74300575 10.5499144 -31.7782154
v -3.61566544 9.91991615 -31.7825451
v 7.84532166 9.91991615 -31.7825413
v -3.61566544 9.91991615 -31.7825451
v -3.6519928 9.91991615 -37.2885666
v 7.84532166 9.9199152 -37.288559
v 7.84532166 9.9199152 -37.288559
v 7.84532166 10.5499144 -37.288559
v 7.84532547 10.5499144 -31.7825451
v 7.84532166 9.91991615 -31.7825413
v -3.61566544 9.91991615 -31.7825451
v -4.74300575 10.5499144 -31.7782154
v -4.74300575 6.04991436 -31.7782154
v -3.61566544 6.04991436 -31.7825451
v -3.54301453 6.04991436 -11.7758808
v -4.74300575 6.04991436 -11.7715511
v -4.74300575 10.5499144 -11.7715511
v -3.54301453 10.5499144 -11.7758808
v 10.4364014 5.54991436 -22.614645
v 11.6464653 5.54991436 -23.4938107
v 13.1421852 5.54991436 -23.4938107
v 14.352253 5.54991436 -22.6146488
v 14.8144569 5.54991436 -21.1921253
v 9.97419357 5.54991436 -21.1921329
v 10.4363976 5.54991436 -19.7696095
v 14.352253 5.54991436 -19.7696095
v 11.6464653 5.54991436 -18.8904476
v 13.142189 5.54991436 -18.8904438
v -3.54301453 5.54991436 -11.7758808
v 40.0079002 5.54991436 -11.7758808
v 40.0079002 5.54991436 -9.47500038
v -3.54301453 5.54991436 -9.47500038
v 22.8020782 10.5499144 -21.1921253
v 22.8020782 11.2499151 -11.7758808
v 22.8020782 10.5499144 -11.7758808
v 22.8020782 11.2499151 -21.1921253
v 22.8020821 10.5499144 -36.2793579
v 22.8020821 11.2499151 -36.2793579
v 38.6092491 10.5499144 -36.2793579
v 38.6092491 11.2499151 -36.2793579
v 22.8020821 11.2499151 -36.2793579
v 22.8020821 10.5499144 -36.2793579
v 38.6092491 11.2499151 -21.1921253
v 38.6092339 10.5499144 -11.7758808
v 38.6092339 11.2499151 -11.7758808
v 38.6092491 10.5499144 -21.1921253
v 38.6092491 11.2499151 -36.2793579
v 38.6092491 10.5499144 -36.2793579
v 38.6092491 11.2499151 -21.1921253
v 22.8020821 11.2499151 -36.2793579
v 38.6092491 11.2499151 -36.2793579
v 22.8020782 11.2499151 -21.1921253
v 38.6092339 11.2499151 -11.7758808
v 22.8020782 11.2499151 -11.7758808
v 10.4363976 10.5499115 -19.7696095
v 9.94691849 10.5499115 -19.4139805
v 9.3691597 10.5499115 -21.1921329
v 9.97419357 10.5499115 -21.1921329
v 11.6464653 10.5499115 -23.4938107
v 11.4594994 10.5499115 -24.069231
v 13.329155 10.5499115 -24.069231
v 13.1421852 10.5499115 -23.4938107
v 13.329155 10.5499115 -24.069231
v 14.8417358 10.5499115 -22.9702778
v 14.352253 10.5499115 -22.6146488
v 15.4194908 10.5499115 -21.1921253
v 14.8144569 10.5499115 -21.1921253
v 14.8144569 10.5499115 -21.1921253
v 15.4194908 10.5499115 -21.1921253
v 14.841732 10.5499115 -19.4139805
v 14.352253 10.5499115 -19.7696095
v 14.352253 10.5499115 -19.7696095
v 13.3291512 10.5499115 -18.3150272
v 13.142189 10.5499115 -18.8904438
v 11.4594994 10.5499115 -18.3150272
v 11.6464653 10.5499115 -18.8904476
v 11.6464653 10.5499115 -18.8904476
v 11.4594994 10.5499115 -18.3150272
v 9.94691849 10.5499115 -19.4139805
v 10.4363976 10.5499115 -19.7696095
v 10.4364014 10.5499115 -22.614645
v 9.94691849 10.5499115 -22.9702759
v 11.4594994 10.5499115 -24.069231
v 11.6464653 10.5499115 -23.4938107
v 9.97419357 10.5499115 -21.1921329
v 9.3691597 10.5499115 -21.1921329
v 9.94691849 10.5499115 -22.9702759
v 10.4364014 10.5499115 -22.614645
v 14.352253 10.5499115 -19.7696095
v 14.352253 5.54991436 -19.7696095
v 14.8144569 5.54991436 -21.1921253
v 14.8144569 10.5499115 -21.1921253
v 11.6464653 10.5499115 -18.8904476
v 11.6464653 5.54991436 -18.8904476
v 13.142189 5.54991436 -18.8904438
v 13.142189 10.5499115 -18.8904438
v 10.4364014 10.5499115 -22.614645
v 10.4364014 5.54991436 -22.614645
v 9.97419357 5.54991436 -21.1921329
v 9.97419357 10.5499115 -21.1921329
v 14.8144569 10.5499115 -21.1921253
v 14.8144569 5.54991436 -21.1921253
v 14.352253 5.54991436 -22.6146488
v 14.352253 10.5499115 -22.6146488
v 13.142189 10.5499115 -18.8904438
v 13.142189 5.54991436 -18.8904438
v 14.352253 5.54991436 -19.7696095
v 14.352253 10.5499115 -19.7696095
v 9.97419357 10.5499115 -21.1921329
v 9.97419357 5.54991436 -21.1921329
v 10.4363976 5.54991436 -19.7696095
v 10.4363976 10.5499115 -19.7696095
v 13.1421852 10.5499115 -23.4938107
v 13.1421852 5.54991436 -23.4938107
v 11.6464653 5.54991436 -23.4938107
v 11.6464653 10.5499115 -23.4938107
v 14.352253 10.5499115 -22.6146488
v 14.352253 5.54991436 -22.6146488
v 13.1421852 5.54991436 -23.4938107
v 13.1421852 10.5499115 -23.4938107
v 10.4363976 10.5499115 -19.7696095
v 10.4363976 5.54991436 -19.7696095
v 11.6464653 5.54991436 -18.8904476
v 11.6464653 10.5499115 -18.8904476
v 40.0079002 10.5499144 -11.7758808
v 38.6092339 10.5499144 -11.7758808
v 40.0079002 10.5499144 -15.0627918
v -41.1519966 2.5499115 -46.4385605
v -41.1519852 2.54991341 -39.2885666
v -45.6519928 1.04991341 -39.2885666
v -45.6519928 1.04991341 -46.4385605
v -41.1520004 2.54991341 -49.038559
v -45.6520004 1.04991341 -49.038559
v -41.1519928 2.54991341 -59.288559
v -45.6519928 1.04991341 -59.288559
v -42.9549561 1.48347378 -36.4905624
v -42.9549561 0.974550247 -36.4905624
v -44.6408615 0.549913406 -37.5861282
v -44.6408615 1.27511311 -37.5861282
v -45.6519928 1.04991341 -39.2885666
v -44.6408615 1.27511311 -37.5861282
v -44.6408615 0.549913406 -37.5861282
v -45.6519928 0.549913406 -39.2885666
v -45.6519928 1.04991341 -46.4385605
v -45.6519928 1.04991341 -39.2885666
v -45.6519928 0.549913406 -39.2885666
v -45.6519928 0.549913406 -46.4385605
v -45.6520004 1.04991341 -49.038559
v -45.6520004 0.549913406 -49.038559
v -45.6519928 1.04991341 -59.288559
v -45.6519928 0.549913406 -59.288559
v -41.2195206 1.54991341 -36.2885666
v -41.2195206 0.549913406 -36.2885666
v -42.9549561 0.974550247 -36.4905624
v -42.9549561 1.48347378 -36.4905624
v -28.3397484 1.85858822 -36.288559
v -41.2195206 0.549913406 -36.2885666
v -41.2195206 1.54991341 -36.2885666
v -28.3397484 1.63727856 -36.288559
v -12.451992 2.24991322 -36.2885666
v -12.451993 1.95315361 -36.2885666
v -12.451992 2.24991322 -36.2885666
v -12.451992 2.24991322 -31.7825451
v -12.451992 1.95315361 -31.7825451
v -12.451993 1.95315361 -36.2885666
v -12.451992 2.24991322 -31.7825451
v -3.61566734 2.24991322 -31.7825451
v -3.61566544 1.95315361 -31.7825451
v -12.451992 1.95315361 -31.7825451
v -12.451992 2.24991322 -31.7825451
v -12.451992 2.24991322 -36.2885666
v -3.61566734 2.24991322 -36.2885666
v -3.61566734 2.24991322 -31.7825451
v -12.451992 2.24991322 -36.2885666
v -12.4519901 2.35221863 -37.3116226
v -3.61566544 2.35221863 -37.3116226
v -3.61566734 2.24991322 -36.2885666
v -16.151989 14.699914 -39.288559
v -16.1519909 14.699914 -48.288559
v -16.1519909 17.9999142 -48.288559
v -16.151989 17.9999142 -39.288559
v -12.4519939 14.699914 -39.288559
v -16.151989 14.699914 -39.288559
v -16.151989 17.9999142 -39.288559
v -12.4519939 17.9999142 -39.288559
v 16.1480103 14.699914 -48.2885666
v 16.1480103 14.699914 -39.288559
v 16.1480103 17.9999142 -39.288559
v 16.1480103 17.9999142 -48.2885666
v 16.1480103 14.699914 -39.288559
v 11.6730156 17.9999142 -39.288559
v 16.1480103 17.9999142 -39.288559
v 11.6480103 14.699914 -39.288559
v 11.6480103 17.9999142 -39.2885666
v 5.69800949 14.699914 -48.288559
v 16.1480103 14.699914 -48.2885666
v 16.1480103 17.9999142 -48.2885666
v 5.69800949 17.9999142 -48.288559
v -16.1519909 14.699914 -48.288559
v -16.1519909 17.9999142 -48.288559
v 40.0079002 5.54991436 -11.7758808
v 40.0079002 -9.53674316E-07 -11.7758808
v 40.0079002 0 -9.47500038
v 40.0079002 5.54991436 -9.47500038
v 41.2485619 1.95315361 -34.1379547
v 41.2485619 10.5499144 -34.1379547
v 39.4728966 10.5499144 -36.7132568
v 39.4728966 1.95315361 -36.7132568
v 39.4728966 1.95315361 -36.7132568
v 39.4728966 10.5499144 -36.7132568
v 39.3480186 10.5499144 -39.288559
v 39.3480186 1.95315361 -39.288559
v 41.2485619 1.61770821 -30.9926128
v 41.2485619 10.5499144 -30.9926128
v 40.0079002 10.5499144 -33.124115
v 40.0079002 1.95315361 -33.124115
v 41.2485619 1.45564651 -27.8858852
v 41.2485619 10.5499144 -27.8858852
v 40.0079002 10.5499144 -30.2367687
v 40.0079002 1.61770821 -30.2367687
v 41.2485619 0.960463524 -24.8794594
v 41.2485619 10.5499144 -24.8794594
v 40.0079002 10.5499144 -26.9660072
v 40.0079002 1.45564651 -26.9660072
v 41.2485619 0.704885483 -21.8212605
v 41.2485619 10.5499144 -21.8212605
v 40.0079002 10.5499144 -23.9549465
v 40.0079002 0.960463524 -23.9549465
v 41.2485619 0.63256073 -18.8468571
v 41.2485619 10.5499144 -18.8468571
v 40.0079002 10.5499144 -20.9638462
v 40.0079002 0.704885483 -20.9638462
v 41.2485619 0.63256073 -15.7905903
v 41.2485619 10.5499144 -15.7905903
v 40.0079002 10.5499144 -17.9549351
v 40.0079002 0.63256073 -17.9549351
v 41.2485619 0.627756119 -12.8952808
v 41.2485619 10.5499144 -12.8952808
v 40.0079002 10.5499144 -15.0627918
v 40.0079002 0.63256073 -15.0627918
v 40.0079002 10.5499144 -15.0627918
v 41.2485619 10.5499144 -15.7905903
v 41.2485619 0.63256073 -15.7905903
v 40.0079002 0.63256073 -15.0627918
v 40.0079002 5.54991436 -11.7758808
v 40.0079002 10.5499144 -11.7758808
v 41.2485619 10.5499144 -12.8952808
v 41.2485619 0.627756119 -12.8952808
v 40.0079002 -9.53674316E-07 -11.7758808
v 40.0079002 10.5499144 -17.9549351
v 41.2485619 10.5499144 -18.8468571
v 41.2485619 0.63256073 -18.8468571
v 40.0079002 0.63256073 -17.9549351
v 40.0079002 10.5499144 -20.9638462
v 41.2485619 10.5499144 -21.8212605
v 41.2485619 0.704885483 -21.8212605
v 40.0079002 0.704885483 -20.9638462
v 40.0079002 10.5499144 -23.9549465
v 41.2485619 10.5499144 -24.8794594
v 41.2485619 0.960463524 -24.8794594
v 40.0079002 0.960463524 -23.9549465
v 40.0079002 10.5499144 -26.9660072
v 41.2485619 10.5499144 -27.8858852
v 41.2485619 1.45564651 -27.8858852
v 40.0079002 1.45564651 -26.9660072
v 40.0079002 10.5499144 -30.2367687
v 41.2485619 10.5499144 -30.9926128
v 41.2485619 1.61770821 -30.9926128
v 40.0079002 1.61770821 -30.2367687
v 40.0079002 10.5499144 -33.124115
v 41.2485619 10.5499144 -34.1379547
v 41.2485619 1.95315361 -34.1379547
v 40.0079002 1.95315361 -33.124115
v -3.6519928 10.4660549 -35.9120636
v -3.6519928 10.5499144 -37.2885666
v 7.84532166 10.5499144 -37.288559
v 7.84532166 10.4660549 -35.912056
v -3.6519928 10.4660549 -33.15905
v -3.6519928 10.298337 -34.5355606
v 7.84532166 10.298337 -34.5355606
v 7.84532166 10.4660549 -33.15905
v -3.6519928 10.298337 -34.5355606
v -3.6519928 10.4660549 -35.9120636
v 7.84532166 10.4660549 -35.912056
v 7.84532166 10.298337 -34.5355606
v -3.6519928 10.5499144 -31.7825451
v -3.6519928 10.4660549 -33.15905
v 7.84532166 10.4660549 -33.15905
v 7.84532547 10.5499144 -31.7825451
v 11.6464653 10.5499115 -23.4938107
v 11.6464653 5.54991436 -23.4938107
v 10.4364014 5.54991436 -22.614645
v 10.4364014 10.5499115 -22.614645
v -12.4519854 2.54991341 -39.2885666
v -41.1519852 2.54991341 -39.2885666
v -41.1519928 14.4999142 -39.2885666
v -12.4519901 14.4999142 -39.288559
v -6.30199432 2.54991436 -59.2885666
v -6.30199432 14.4999142 -59.2885742
v -41.1519928 14.4999142 -59.288559
v -41.1519928 2.54991341 -59.288559
v 5.49800491 14.4999142 -59.2885666
v 5.49800491 14.4999142 -66.8384781
v 5.49800491 2.99991512 -66.8384781
v 5.49800491 2.99991512 -59.2885666
v 5.49800491 14.4999142 -66.8384781
v -6.30199623 14.4999142 -66.8384781
v -6.30199623 2.99991512 -66.8384781
v 5.49800491 2.99991512 -66.8384781
v 40.3480186 6.04991436 -59.288559
v 40.3480186 14.4999142 -59.288559
v 5.49800491 14.4999142 -59.2885666
v 36.7480202 6.04991436 -59.2885666
v 5.49800491 2.99991512 -59.2885666
v 36.7480202 2.99991512 -59.2885666
v -41.1519852 2.54991341 -39.2885666
v -41.1519928 2.54991341 -59.288559
v -41.1519928 14.4999142 -59.288559
v -41.1519928 14.4999142 -39.2885666
v 40.3480186 14.4999142 -59.288559
v 40.3480186 6.04991436 -59.288559
v 40.3480034 6.04991436 -55.6858368
v 40.3480186 14.4999142 -39.288559
v 40.3480034 2.99991512 -55.6885605
v 40.3480186 1.95315266 -39.2885666
v 39.3480186 1.95315361 -39.288559
v 39.3480186 14.4999142 -39.288559
v 40.3480186 14.4999142 -39.288559
v 40.3480186 1.95315266 -39.2885666
v -3.54301453 5.54991436 -11.7758808
v -3.61566544 6.04991436 -31.7825451
v -3.54301453 6.04991436 -11.7758808
v -3.61566544 1.95315361 -31.7825451
v -3.54961777 1.95315361 -13.6008587
v -3.54301453 5.54991436 -9.47500038
v -3.54301453 1.95315361 -9.47500038
v -3.54961777 0.333125114 -13.6008587
v -3.54301453 0.333125114 -9.47500038
v -4.74300575 10.5499144 -11.7715511
v -4.74300575 6.04991436 -11.7715511
v -4.74300575 6.04991436 -31.7782154
v -4.74300575 10.5499144 -31.7782154
v -3.61566544 6.04991436 -31.7825451
v -3.64843369 6.04991245 -37.288559
v -3.6519928 9.91991615 -37.2885666
v -3.61566544 9.91991615 -31.7825451
v -3.61566544 1.95315361 -31.7825451
v -3.6519928 2.35221863 -37.2885666
v -3.6519928 2.36732864 -37.2885666
v -3.61566544 6.04991436 -31.7825451
v -3.64843369 6.04991245 -37.288559
v -16.151989 17.9999142 -39.288559
v -16.1519909 17.9999142 -48.288559
v -16.1519909 18.1999149 -48.288559
v -16.151989 18.1999149 -39.288559
v -12.4519939 17.9999142 -39.288559
v -16.151989 17.9999142 -39.288559
v -16.151989 18.1999149 -39.288559
v -12.4519939 18.1999149 -39.288559
v 11.6730156 17.9999142 -39.288559
v 11.6730156 17.9999142 -37.2153397
v 11.6730156 18.1999149 -37.2153397
v 11.6730156 18.1999149 -39.288559
v -6.5019989 14.699914 -59.4885559
v -6.5019989 14.699914 -67.0284653
v 5.69800568 14.699914 -67.0284653
v 5.69800568 14.699914 -59.4885559
v -16.1519909 14.699914 -48.288559
v -41.3519974 14.699914 -59.4885559
v -41.3519897 14.699914 -39.088562
v 5.69800949 14.699914 -48.288559
v -16.151989 14.699914 -39.288559
v -12.4519901 14.699914 -39.088562
v -12.4519939 14.699914 -39.288559
v 16.1480103 14.699914 -48.2885666
v 40.5480156 14.699914 -59.4885559
v 40.5480156 14.699914 -39.088562
v 16.1480103 14.699914 -39.288559
v 11.6480103 14.699914 -39.288559
v 40.5480156 14.699914 -39.088562
v 11.6480103 14.699914 -39.088562
v 40.5480156 14.699914 -39.088562
v 40.5480156 14.4999142 -39.088562
v 11.6480103 14.4999142 -39.088562
v 11.6480103 14.699914 -39.088562
v -12.4519939 18.1999149 -39.288559
v 11.6730156 18.1999149 -37.2153397
v -12.4519939 18.1999149 -37.2153397
v 11.6730156 18.1999149 -39.288559
v -12.4519939 18.1999149 -39.6885605
v -15.7519894 18.1999149 -39.6885605
v -16.151989 18.1999149 -39.288559
v -15.7519903 18.1999149 -47.8885651
v -16.1519909 18.1999149 -48.288559
v 15.7480125 18.1999149 -47.8885651
v 16.1480103 18.1999149 -48.2885666
v 11.6730156 18.1999149 -39.6885605
v 16.1480103 18.1999149 -39.288559
v 15.7480125 18.1999149 -39.6885605
v 16.1480103 17.9999142 -48.2885666
v 16.1480103 17.9999142 -39.288559
v 16.1480103 18.1999149 -39.288559
v 16.1480103 18.1999149 -48.2885666
v 11.6730156 17.9999142 -37.2153397
v -12.4519939 17.9999142 -37.2153397
v -12.4519939 18.1999149 -37.2153397
v 11.6730156 18.1999149 -37.2153397
v -12.4519939 17.9999142 -37.2153397
v -12.4519939 17.9999142 -39.288559
v -12.4519939 18.1999149 -39.288559
v -12.4519939 18.1999149 -37.2153397
v -16.1519909 17.9999142 -48.288559
v 16.1480103 17.9999142 -48.2885666
v 16.1480103 18.1999149 -48.2885666
v -16.1519909 18.1999149 -48.288559
v -12.4519901 14.699914 -39.088562
v -12.4519901 14.4999142 -39.088562
v -41.3519897 14.4999142 -39.088562
v -41.3519897 14.699914 -39.088562
v 11.6730156 17.9999142 -39.288559
v 11.6730156 18.1999149 -39.288559
v 16.1480103 18.1999149 -39.288559
v 16.1480103 17.9999142 -39.288559
v 40.5480156 14.699914 -59.4885559
v 40.5480156 14.4999142 -59.4885559
v 40.5480156 14.4999142 -39.088562
v 40.5480156 14.699914 -39.088562
v -41.3519974 14.699914 -59.4885559
v -41.3519974 14.4999142 -59.4885559
v -6.5019989 14.4999142 -59.4885559
v -6.5019989 14.699914 -59.4885559
v 5.69800568 14.699914 -67.0284653
v 5.69800568 14.4999142 -67.0284653
v 5.69800568 14.4999142 -59.4885559
v 5.69800568 14.699914 -59.4885559
v -6.5019989 14.699914 -67.0284653
v -6.5019989 14.4999142 -67.0284653
v 5.69800568 14.4999142 -67.0284653
v 5.69800568 14.699914 -67.0284653
v -6.5019989 14.699914 -59.4885559
v -6.5019989 14.4999142 -59.4885559
v -6.5019989 14.4999142 -67.0284653
v -6.5019989 14.699914 -67.0284653
v 5.69800568 14.699914 -59.4885559
v 5.69800568 14.4999142 -59.4885559
v 40.5480156 14.4999142 -59.4885559
v 40.5480156 14.699914 -59.4885559
v -41.3519897 14.699914 -39.088562
v -41.3519897 14.4999142 -39.088562
v -41.3519974 14.4999142 -59.4885559
v -41.3519974 14.699914 -59.4885559
v 39.9480247 2.99991512 -59.2885666
v 40.3480186 2.99991512 -59.288559
v 40.3480186 6.04991436 -59.288559
v 39.9480171 6.04991436 -59.288559
v 40.348011 6.04991436 -58.8885651
v 38.9480171 6.04991436 -55.6885605
v 40.3480034 6.04991436 -55.6858368
v 39.9480171 6.04991436 -58.8885574
v 36.7480202 6.04991436 -57.8885651
v 36.7480202 6.04991436 -59.2885666
v 39.9480171 6.04991436 -59.288559
v 40.348011 6.04991436 -58.8885651
v 40.3480186 6.04991436 -59.288559
v 40.3480186 2.99991512 -59.288559
v 40.3480186 2.99991512 -58.8885651
v 40.348011 6.04991436 -58.8885651
v 40.3480186 2.99991512 -58.8885651
v 39.9480247 2.99991512 -58.8885651
v 39.9480171 6.04991436 -58.8885574
v 39.9480171 6.04991436 -58.8885574
v 39.9480247 2.99991512 -58.8885651
v 39.9480247 2.99991512 -59.2885666
v 39.9480171 6.04991436 -59.288559
v 36.7480202 6.04991436 -57.8885651
v 36.7480202 2.99991512 -57.8885651
v 38.9480171 2.99991512 -55.6885605
v 38.9480171 6.04991436 -55.6885605
v 40.3480034 6.04991436 -55.6858368
v 38.9480171 6.04991436 -55.6885605
v 38.9480171 2.99991512 -55.6885605
v 40.3480034 2.99991512 -55.6885605
v 36.7480202 2.99991512 -57.8885651
v 36.7480202 6.04991436 -57.8885651
v 36.7480202 6.04991436 -59.2885666
v 36.7480202 2.99991512 -59.2885666
v 39.3480186 10.5499144 -39.288559
v 11.6480064 10.5499144 -39.2885513
v 11.6480103 14.4999142 -39.2885666
v 39.3480186 14.4999142 -39.288559
v 11.6480064 17.9999142 -37.6421127
v 11.6480103 17.9999142 -39.2885666
v 11.6480103 14.4999142 -39.2885666
v 11.6480064 10.5981598 -37.6421127
v 11.6480064 10.5499144 -37.6421127
v 11.6480064 10.5499144 -39.2885513
v 9.00156021 10.5499144 -37.288559
v 9.00156021 17.9999142 -37.288559
v 11.294445 17.9999142 -37.288559
v 11.2944489 10.5499144 -37.288559
v 2.49800873 17.9999142 -37.288559
v 2.49800873 9.91991615 -37.288559
v -3.29843903 9.91991615 -37.288559
v -3.29843903 17.9999142 -37.288559
v 7.84532166 10.5499144 -37.288559
v 7.84532166 9.9199152 -37.288559
v 2.85156059 9.91991615 -37.288559
v 2.8515625 17.9999142 -37.288559
v 8.64800644 10.5499144 -37.288559
v 8.64800644 17.9999142 -37.288559
v 11.294445 17.9999142 -37.288559
v 11.4712257 17.9999142 -37.2153397
v 11.4712257 10.5499144 -37.2153397
v 11.2944489 10.5499144 -37.288559
v 11.6479988 17.9999142 -37.288559
v 11.7212257 17.9999142 -37.4653397
v 11.7212257 10.5499144 -37.4653397
v 11.6480064 10.5499144 -37.2885666
v 11.4712257 17.9999142 -37.2153397
v 11.6479988 17.9999142 -37.288559
v 11.6480064 10.5499144 -37.2885666
v 11.4712257 10.5499144 -37.2153397
v 11.6480064 10.5981598 -37.6421127
v 11.6480064 10.5499144 -37.6421127
v 11.7212257 10.5499144 -37.4653397
v 11.7212257 17.9999142 -37.4653397
v 11.6480064 17.9999142 -37.6421127
v 9.00156021 10.5499144 -37.288559
v 8.82478714 10.5499144 -37.2153397
v 8.82478714 17.9999142 -37.2153397
v 9.00156021 17.9999142 -37.288559
v 2.8515625 17.9999142 -37.288559
v 2.85156059 9.91991615 -37.288559
v 2.67478561 9.91991615 -37.2153397
v 2.67478561 17.9999142 -37.2153397
v 8.64800644 10.5499144 -37.288559
v 8.64800644 17.9999142 -37.288559
v 8.82478714 17.9999142 -37.2153397
v 8.82478714 10.5499144 -37.2153397
v 2.49800873 17.9999142 -37.288559
v 2.67478561 17.9999142 -37.2153397
v 2.67478561 9.91991615 -37.2153397
v 2.49800873 9.91991615 -37.288559
v -12.0984373 17.9999142 -37.288559
v -12.0984373 2.35221863 -37.288559
v -12.2752132 2.35221863 -37.2153397
v -12.2752132 17.9999142 -37.2153397
v -12.4519901 17.9999142 -37.288559
v -12.4519901 2.35221863 -37.288559
v -12.5252132 2.35221863 -37.4653397
v -12.5252132 17.9999142 -37.4653397
v -12.2752132 17.9999142 -37.2153397
v -12.2752132 2.35221863 -37.2153397
v -12.4519901 2.35221863 -37.288559
v -12.4519901 17.9999142 -37.288559
v -3.6519928 17.9999142 -37.288559
v -3.6519928 9.91991615 -37.2885666
v -9.44843864 17.9999142 -37.288559
v -3.6519928 2.35221863 -37.2885666
v -9.44843864 2.35221863 -37.288559
v -9.80199242 17.9999142 -37.288559
v -9.80199242 2.35221863 -37.288559
v -12.0984373 2.35221863 -37.288559
v -12.0984373 17.9999142 -37.288559
v -3.47521591 17.9999142 -37.2153397
v -3.29843903 17.9999142 -37.288559
v -3.29843903 9.91991615 -37.288559
v -3.47521591 9.91991615 -37.2153397
v -12.5252132 17.9999142 -37.4653397
v -12.5252132 2.35221863 -37.4653397
v -12.4519901 2.35221863 -37.6421127
v -12.4519901 17.9999142 -37.6421127
v -3.6519928 9.91991615 -37.2885666
v -3.6519928 17.9999142 -37.288559
v -3.47521591 17.9999142 -37.2153397
v -3.47521591 9.91991615 -37.2153397
v -9.62521553 17.9999142 -37.2153397
v -9.62521553 2.35221863 -37.2153397
v -9.80199242 2.35221863 -37.288559
v -9.80199242 17.9999142 -37.288559
v -9.44843864 17.9999142 -37.288559
v -9.44843864 2.35221863 -37.288559
v -9.62521553 2.35221863 -37.2153397
v -9.62521553 17.9999142 -37.2153397
v -12.4519939 17.9999142 -39.288559
v -12.4519901 17.9999142 -37.6421127
v -12.4519901 2.35221863 -37.6421127
v -12.4519854 2.54991341 -39.2885666
v -41.2195206 1.54991341 -36.2885666
v -41.1519852 2.54991341 -39.2885666
v -12.4519854 2.54991341 -39.2885666
v -12.451992 2.24991322 -36.2885666
v -28.3397484 1.85858822 -36.288559
v -6.30199432 14.4999142 -59.2885742
v -6.30199432 2.99991512 -59.2885666
v -6.30199623 2.99991512 -66.8384781
v -6.30199623 14.4999142 -66.8384781
vt 0.881130338 0.357000589
vt 0.881130338 0.365939796
vt 0.913086236 0.365939796
vt 0.913086236 0.365939796
vt 0.913086236 0.259169728
vt 0.881130338 0.255974084
vt 0.876656532 0.357000589
vt 0.876656294 0.255974084
vt 0.913086236 0.0875976235
vt 0.881130338 0.0875976235
vt 0.852737188 0.377877116
vt 0.831772625 0.377803415
vt 0.84556967 0.385765135
vt 0.79271394 0.368685693
vt 0.813327909 0.37775147
vt 0.827108741 0.385702729
vt 0.807585955 0.38568759
vt 0.794038355 0.377693176
vt 0.774636805 0.377277017
vt 0.788304031 0.385621458
vt 0.755118251 0.376729637
vt 0.768418252 0.385151207
vt 0.733935058 0.376132727
vt 0.748934329 0.384596914
vt 0.695046961 0.366005659
vt 0.715256333 0.375603914
vt 0.728818119 0.384020358
vt 0.692155302 0.371615052
vt 0.70851326 0.383460402
vt 0.675282657 0.370939553
vt 0.694774032 0.261548042
vt 0.674201131 0.18845059
vt 0.68715167 0.188477665
vt 0.68675524 0.163732454
vt 0.722584426 0.163158387
vt 0.773295164 0.186118692
vt 0.780381918 0.176208049
vt 0.773447156 0.198257431
vt 0.780577183 0.207962483
vt 0.792312264 0.211593494
vt 0.792887807 0.259399772
vt 0.853486478 0.25919342
vt 0.803928375 0.207814023
vt 0.791982651 0.172336608
vt 0.791127622 0.0798954517
vt 0.721731424 0.080636546
vt 0.803653002 0.175986841
vt 0.852993965 0.0872004777
vt 0.852949739 0.0793253556
vt 0.810920417 0.18574737
vt 0.810991049 0.197846815
vt 0.803928375 0.207814023
vt 0.640426338 0.0694306865
vt 0.628195465 0.0780857131
vt 0.657331586 0.0905978233
vt 0.657331586 0.0905978233
vt 0.628195465 0.0780857131
vt 0.62028873 0.0909805596
vt 0.657331586 0.0905978233
vt 0.652979076 0.0658330321
vt 0.640426338 0.0694306865
vt 0.166442961 0.255755693
vt 0.174682409 0.255755693
vt 0.173141241 0.255755693
vt 0.65046829 0.0179651119
vt 0.650468349 0.015013013
vt 0.591478288 0.0150129441
vt 0.596761107 0.0179651827
vt 0.65046829 0.0179651119
vt 0.596761107 0.0179651827
vt 0.596590817 0.0437668525
vt 0.65046829 0.0437668525
vt 0.65046829 0.0437668525
vt 0.653420508 0.0437668525
vt 0.653420508 0.0179651119
vt 0.65046829 0.0179651119
vt 0.708656788 0.0704670697
vt 0.716430724 0.0748114362
vt 0.716430724 0.0437804237
vt 0.708656788 0.0437804237
vt 0.913208604 0.189116016
vt 0.920878053 0.189116016
vt 0.920878053 0.160355568
vt 0.913208604 0.160355568
vt 0.808372259 0.197110176
vt 0.808372259 0.186829805
vt 0.8023296 0.178512797
vt 0.792552412 0.175335929
vt 0.782775104 0.178512797
vt 0.802329659 0.2054272
vt 0.792552352 0.208603978
vt 0.776732326 0.186829805
vt 0.782775164 0.2054272
vt 0.776732326 0.197110176
vt 0.871697009 0.366654098
vt 0.871697009 0.0844759569
vt 0.856788874 0.0844759569
vt 0.856788993 0.366654098
vt 0.792887807 0.259399772
vt 0.853203416 0.263780951
vt 0.853486478 0.25919342
vt 0.792980134 0.263790369
vt 0.694774032 0.261548042
vt 0.697191 0.263804048
vt 0.695046961 0.366005659
vt 0.697271585 0.363822699
vt 0.697191 0.263804048
vt 0.694774032 0.261548042
vt 0.792793155 0.364204228
vt 0.852768421 0.368956149
vt 0.852779388 0.364479482
vt 0.79271394 0.368685693
vt 0.697271585 0.363822699
vt 0.695046961 0.366005659
vt 0.792793155 0.364204228
vt 0.697191 0.263804048
vt 0.697271585 0.363822699
vt 0.792980134 0.263790369
vt 0.852779388 0.364479482
vt 0.853203416 0.263780951
vt 0.688797891 0.142587274
vt 0.686117232 0.142717808
vt 0.686227858 0.15071252
vt 0.68906188 0.150530726
vt 0.68808496 0.085530214
vt 0.685238123 0.0854869112
vt 0.685347736 0.0935327634
vt 0.688045204 0.0934751704
vt 0.685347736 0.0935327634
vt 0.685251296 0.101361141
vt 0.687940598 0.101398259
vt 0.684800744 0.1093738
vt 0.687653363 0.109506249
vt 0.687653363 0.109506249
vt 0.684800744 0.1093738
vt 0.684152663 0.118164539
vt 0.687399149 0.11806377
vt 0.687399149 0.11806377
vt 0.68507421 0.126927227
vt 0.687921941 0.126593173
vt 0.685774744 0.134915262
vt 0.688454807 0.134681374
vt 0.688454807 0.134681374
vt 0.685774744 0.134915262
vt 0.686117232 0.142717808
vt 0.688797891 0.142587274
vt 0.68845892 0.0778607503
vt 0.685881138 0.0768102035
vt 0.685238123 0.0854869112
vt 0.68808496 0.085530214
vt 0.68906188 0.150530726
vt 0.686227858 0.15071252
vt 0.68717134 0.15930599
vt 0.689692497 0.158172965
vt 0.687399149 0.11806377
vt 0.715707004 0.117627919
vt 0.715367436 0.109349057
vt 0.687653363 0.109506249
vt 0.688454807 0.134681374
vt 0.715570152 0.134038553
vt 0.715614736 0.125912488
vt 0.687921941 0.126593173
vt 0.689692497 0.158172965
vt 0.715707004 0.15783748
vt 0.715621948 0.149961799
vt 0.68906188 0.150530726
vt 0.687653363 0.109506249
vt 0.715367436 0.109349057
vt 0.715080976 0.101224773
vt 0.687940598 0.101398259
vt 0.687921941 0.126593173
vt 0.715614736 0.125912488
vt 0.715707004 0.117627919
vt 0.687399149 0.11806377
vt 0.68906188 0.150530726
vt 0.715621948 0.149961799
vt 0.715573251 0.142041042
vt 0.688797891 0.142587274
vt 0.688045204 0.0934751704
vt 0.714846253 0.0932205021
vt 0.714659333 0.0852952749
vt 0.68808496 0.085530214
vt 0.687940598 0.101398259
vt 0.715080976 0.101224773
vt 0.714846253 0.0932205021
vt 0.688045204 0.0934751704
vt 0.688797891 0.142587274
vt 0.715573251 0.142041042
vt 0.715570152 0.134038553
vt 0.688454807 0.134681374
vt 0.852737188 0.377877116
vt 0.852768421 0.368956149
vt 0.831772625 0.377803415
vt 0.657682121 0.146628916
vt 0.657331586 0.0905978233
vt 0.62028873 0.0909805596
vt 0.620508134 0.146834806
vt 0.657799125 0.167030126
vt 0.620576501 0.167240322
vt 0.658256412 0.247467488
vt 0.621032178 0.247679263
vt 0.640426338 0.0694306865
vt 0.636755347 0.0632578284
vt 0.623738825 0.0746856108
vt 0.628195465 0.0780857131
vt 0.62028873 0.0909805596
vt 0.628195465 0.0780857131
vt 0.623738825 0.0746856108
vt 0.616505504 0.0900888517
vt 0.620508134 0.146834806
vt 0.62028873 0.0909805596
vt 0.616505504 0.0900888517
vt 0.61656034 0.146841154
vt 0.620576501 0.167240322
vt 0.61663425 0.167267397
vt 0.621032178 0.247679263
vt 0.617108524 0.247702375
vt 0.652979076 0.0658330321
vt 0.650810421 0.0580768362
vt 0.636755347 0.0632578284
vt 0.640426338 0.0694306865
vt 0.370136321 0.214666069
vt 0.287700593 0.208708525
vt 0.288468063 0.215104595
vt 0.369681835 0.21024023
vt 0.473672003 0.214110151
vt 0.473614246 0.212182075
vt 0.12666142 0.281572938
vt 0.126545712 0.318066627
vt 0.127749085 0.319278836
vt 0.129199475 0.281632483
vt 0.126545712 0.318066627
vt 0.0548754223 0.318179637
vt 0.0548597015 0.320657551
vt 0.127749085 0.319278836
vt 0.126545712 0.318066627
vt 0.12666142 0.281572938
vt 0.0548753701 0.281572998
vt 0.0548754223 0.318179637
vt 0.12666142 0.281572938
vt 0.126661316 0.273220241
vt 0.0548753701 0.273220241
vt 0.0548753701 0.281572998
vt 0.357158363 0.298741341
vt 0.281943262 0.298741341
vt 0.281943262 0.32632035
vt 0.357158363 0.32632035
vt 0.38808018 0.298741341
vt 0.357158363 0.298741341
vt 0.357158363 0.32632035
vt 0.38808018 0.32632035
vt 0.274348378 0.297068864
vt 0.195585534 0.297068864
vt 0.195585489 0.325948626
vt 0.274348378 0.325948626
vt 0.195585534 0.297068864
vt 0.156422913 0.325948626
vt 0.195585489 0.325948626
vt 0.15620403 0.297068864
vt 0.156203985 0.325948626
vt 0.146569848 0.336937308
vt 0.0124299526 0.336937308
vt 0.0124299526 0.379297316
vt 0.146569848 0.379297316
vt 0.427043021 0.336937308
vt 0.427043021 0.379297316
vt 0.0216499791 0.237259045
vt 0.0216501057 0.265799642
vt 0.00981778651 0.265799642
vt 0.00981778651 0.237259045
vt 0.174682409 0.255755693
vt 0.174682409 0.211546838
vt 0.190768898 0.211546838
vt 0.190768898 0.255755693
vt 0.190768898 0.255755693
vt 0.190768898 0.211546838
vt 0.204027891 0.211546838
vt 0.204027891 0.255755693
vt 0.153760165 0.25748086
vt 0.153760299 0.211546838
vt 0.166443035 0.211546838
vt 0.166442961 0.255755693
vt 0.13261959 0.258313984
vt 0.132619709 0.211546838
vt 0.146289319 0.211546838
vt 0.146289229 0.257480741
vt 0.112193502 0.260860413
vt 0.112193562 0.211546719
vt 0.124677137 0.211546704
vt 0.124677092 0.258313984
vt 0.0915441662 0.262174696
vt 0.0915441662 0.211546719
vt 0.104236789 0.211546719
vt 0.104236722 0.260860413
vt 0.0711702853 0.262546659
vt 0.0711703375 0.211546704
vt 0.0837887004 0.211546734
vt 0.083788693 0.262174666
vt 0.0504834503 0.262546659
vt 0.0504834503 0.211546615
vt 0.0633125454 0.2115466
vt 0.0633124933 0.262546659
vt 0.0302432626 0.262571365
vt 0.0302432626 0.2115466
vt 0.0430865139 0.2115466
vt 0.0430865139 0.262546659
vt 0.0430865139 0.2115466
vt 0.0504834503 0.211546615
vt 0.0504834503 0.262546659
vt 0.0430865139 0.262546659
vt 0.0216499791 0.237259045
vt 0.0216499772 0.211546585
vt 0.0302432626 0.2115466
vt 0.0302432626 0.262571365
vt 0.0216501057 0.265799642
vt 0.0633125454 0.2115466
vt 0.0711703375 0.211546704
vt 0.0711702853 0.262546659
vt 0.0633124933 0.262546659
vt 0.0837887004 0.211546734
vt 0.0915441662 0.211546719
vt 0.0915441662 0.262174696
vt 0.083788693 0.262174666
vt 0.104236789 0.211546719
vt 0.112193562 0.211546719
vt 0.112193502 0.260860413
vt 0.104236722 0.260860413
vt 0.124677137 0.211546704
vt 0.132619709 0.211546838
vt 0.13261959 0.258313984
vt 0.124677092 0.258313984
vt 0.146289319 0.211546838
vt 0.153760299 0.211546838
vt 0.153760165 0.25748086
vt 0.146289229 0.257480741
vt 0.166443035 0.211546838
vt 0.174682409 0.211546838
vt 0.174682409 0.255755693
vt 0.166442961 0.255755693
vt 0.904649377 0.0806534588
vt 0.913069546 0.0806534588
vt 0.913069546 0.0104542226
vt 0.904649377 0.0104542226
vt 0.887716174 0.0806534588
vt 0.896182716 0.0806534588
vt 0.896182716 0.0104542226
vt 0.887716055 0.0104542226
vt 0.896182716 0.0806534588
vt 0.904649377 0.0806534588
vt 0.904649377 0.0104542226
vt 0.896182716 0.0104542226
vt 0.879296005 0.0806536004
vt 0.887716174 0.0806534588
vt 0.887716055 0.0104542226
vt 0.879295886 0.0104542226
vt 0.68808496 0.085530214
vt 0.714659333 0.0852952749
vt 0.714508235 0.0774126649
vt 0.68845892 0.0778607503
vt 0.498731524 0.334186554
vt 0.668489635 0.334186167
vt 0.668485761 0.263501555
vt 0.498731911 0.263505191
vt 0.378558099 0.0054296758
vt 0.377972752 0.0751634836
vt 0.581669331 0.0750760958
vt 0.581669331 0.0054296758
vt 0.220231891 0.0752506778
vt 0.264340252 0.0752507374
vt 0.26434043 0.00806491636
vt 0.220232069 0.00806491636
vt 0.264340252 0.0752507374
vt 0.333278835 0.0752509758
vt 0.333278716 0.00806491636
vt 0.26434043 0.00806491636
vt 0.0159071535 0.0258282907
vt 0.0159071535 0.0750760958
vt 0.21901834 0.0750760958
vt 0.0368885249 0.0258282907
vt 0.21901834 0.00805239938
vt 0.0368885249 0.00805239938
vt 0.598484874 0.165269256
vt 0.482452273 0.165269256
vt 0.482452154 0.234598875
vt 0.598484874 0.234598875
vt 0.605985641 0.162516773
vt 0.605986118 0.113200955
vt 0.584959984 0.113200955
vt 0.489264667 0.162516773
vt 0.5849756 0.0954008624
vt 0.489264011 0.0892932341
vt 0.483427882 0.0892932937
vt 0.483428597 0.162516773
vt 0.489264667 0.162516773
vt 0.489264011 0.0892932341
vt 0.858556151 0.0373625681
vt 0.719682574 0.0411247239
vt 0.858556151 0.0411247239
vt 0.719682574 0.0102982409
vt 0.845888317 0.0102982409
vt 0.874551773 0.0373625681
vt 0.874551773 0.0102982409
vt 0.845888317 0.00178988581
vt 0.874551773 0.00178988581
vt 0.857417881 0.0748402476
vt 0.857417881 0.0434645861
vt 0.717923939 0.0434645861
vt 0.717923939 0.0748402476
vt 0.705349624 0.0402160659
vt 0.662667453 0.0402160659
vt 0.662667453 0.0702159777
vt 0.705349624 0.0702159777
vt 0.705349624 0.00845829397
vt 0.662667453 0.0115518048
vt 0.662667453 0.0116689578
vt 0.705349624 0.0402160659
vt 0.662667453 0.0402160659
vt 0.163993359 0.0928562805
vt 0.163993359 0.137928247
vt 0.164541245 0.137440741
vt 0.1645118 0.0933249518
vt 0.183089584 0.0925787017
vt 0.163993359 0.0928562805
vt 0.1645118 0.0933249518
vt 0.183648169 0.0931100175
vt 0.309753895 0.0921361968
vt 0.309509158 0.0821283385
vt 0.309025168 0.0826060697
vt 0.309206724 0.0926712081
vt 0.211872578 0.202605069
vt 0.211965412 0.244721115
vt 0.280111372 0.244678855
vt 0.280152023 0.202562749
vt 0.157740921 0.13985616
vt 0.0164511055 0.202727795
vt 0.0163995773 0.0883272216
vt 0.280142099 0.139819682
vt 0.157718271 0.0893852636
vt 0.178458422 0.0882548019
vt 0.17845884 0.0893759653
vt 0.338694364 0.139811099
vt 0.47536689 0.202551425
vt 0.475383639 0.0882953927
vt 0.338706434 0.0893908665
vt 0.313472986 0.0893801972
vt 0.475383639 0.0882953927
vt 0.313473552 0.0882587954
vt 0.475383639 0.0882953927
vt 0.475954354 0.0877351686
vt 0.313477755 0.0871342942
vt 0.313473552 0.0882587954
vt 0.183648169 0.0931100175
vt 0.309025168 0.0826060697
vt 0.183727711 0.0830011889
vt 0.309206724 0.0926712081
vt 0.183680296 0.0951046273
vt 0.166566491 0.0952324197
vt 0.1645118 0.0933249518
vt 0.166640043 0.135485113
vt 0.164541245 0.137440741
vt 0.330636621 0.134843528
vt 0.332749754 0.136776567
vt 0.309209824 0.0946655199
vt 0.332387298 0.0926881954
vt 0.330346167 0.0946195647
vt 0.333276927 0.137259245
vt 0.332901716 0.0922122523
vt 0.332387298 0.0926881954
vt 0.332749754 0.136776567
vt 0.309509158 0.0821283385
vt 0.183238655 0.082524769
vt 0.183727711 0.0830011889
vt 0.309025168 0.0826060697
vt 0.183238655 0.082524769
vt 0.183089584 0.0925787017
vt 0.183648169 0.0931100175
vt 0.183727711 0.0830011889
vt 0.163993359 0.137928247
vt 0.333276927 0.137259245
vt 0.332749754 0.136776567
vt 0.164541245 0.137440741
vt 0.178458422 0.0882548019
vt 0.178457916 0.0871342942
vt 0.0163991004 0.0872057006
vt 0.0163995773 0.0883272216
vt 0.309753895 0.0921361968
vt 0.309206724 0.0926712081
vt 0.332387298 0.0926881954
vt 0.332901716 0.0922122523
vt 0.47536689 0.202551425
vt 0.475928426 0.203107297
vt 0.475954354 0.0877351686
vt 0.475383639 0.0882953927
vt 0.0164511055 0.202727795
vt 0.01645495 0.203843474
vt 0.211307108 0.203174829
vt 0.211872578 0.202605069
vt 0.280111372 0.244678855
vt 0.280657798 0.245235324
vt 0.28071937 0.203133523
vt 0.280152023 0.202562749
vt 0.211965412 0.244721115
vt 0.211419582 0.24527818
vt 0.280657798 0.245235324
vt 0.280111372 0.244678855
vt 0.211872578 0.202605069
vt 0.211307108 0.203174829
vt 0.211419582 0.24527818
vt 0.211965412 0.244721115
vt 0.280152023 0.202562749
vt 0.28071937 0.203133523
vt 0.475928426 0.203107297
vt 0.47536689 0.202551425
vt 0.0163995773 0.0883272216
vt 0.0152773997 0.0883275792
vt 0.0153141161 0.202732146
vt 0.0164511055 0.202727795
vt 0.995031416 0.0380907357
vt 0.995167851 0.035777241
vt 0.977526009 0.0347373784
vt 0.977389634 0.0370509923
vt 0.977157354 0.0419876873
vt 0.950111449 0.052894026
vt 0.958870113 0.0615619719
vt 0.976074159 0.0395189822
vt 0.95011127 0.0257083457
vt 0.958829343 0.0170942824
vt 0.977389634 0.0370509923
vt 0.977157354 0.0419876873
vt 0.977061629 0.0443014205
vt 0.994703412 0.045031935
vt 0.994799256 0.0427182019
vt 0.977157354 0.0419876873
vt 0.994799256 0.0427182019
vt 0.994895041 0.040404588
vt 0.976074159 0.0395189822
vt 0.976074159 0.0395189822
vt 0.994895041 0.040404588
vt 0.995031416 0.0380907357
vt 0.977389634 0.0370509923
vt 0.95011127 0.0257083457
vt 0.923461139 0.0257084686
vt 0.92346096 0.052894026
vt 0.950111449 0.052894026
vt 0.950111389 0.0651269257
vt 0.950111449 0.052894026
vt 0.92346096 0.052894026
vt 0.92346108 0.0651269257
vt 0.923461139 0.0257084686
vt 0.95011127 0.0257083457
vt 0.95011133 0.0134755652
vt 0.923461139 0.0134755671
vt 0.167294383 0.286869466
vt 0.331146985 0.286870152
vt 0.331146747 0.263506263
vt 0.167295843 0.26350534
vt 0.340885341 0.242803976
vt 0.331146687 0.242803991
vt 0.331146806 0.263471752
vt 0.34088546 0.286584705
vt 0.34088546 0.286870092
vt 0.331146985 0.286870152
vt 0.358974785 0.286869973
vt 0.358974487 0.242803872
vt 0.345412284 0.242803991
vt 0.345412493 0.286870062
vt 0.397786885 0.242803752
vt 0.39778775 0.290595531
vt 0.432072461 0.290594518
vt 0.432071894 0.242804244
vt 0.365986168 0.286869854
vt 0.365986168 0.290596217
vt 0.395523787 0.290595859
vt 0.39552331 0.242803752
vt 0.36123836 0.286869913
vt 0.361237973 0.242803872
vt 0.345412284 0.242803991
vt 0.344280511 0.242803991
vt 0.34428066 0.286870062
vt 0.345412493 0.286870062
vt 0.343148828 0.242804006
vt 0.342017114 0.242803991
vt 0.342017174 0.286870062
vt 0.343149006 0.286870122
vt 0.344280511 0.242803991
vt 0.343148828 0.242804006
vt 0.343149006 0.286870122
vt 0.34428066 0.286870062
vt 0.34088546 0.286584705
vt 0.34088546 0.286870092
vt 0.342017174 0.286870062
vt 0.342017114 0.242803991
vt 0.340885371 0.242803991
vt 0.358974785 0.286869973
vt 0.360106498 0.286869973
vt 0.360106319 0.242803872
vt 0.358974487 0.242803872
vt 0.39552331 0.242803752
vt 0.395523787 0.290595859
vt 0.396655798 0.29059571
vt 0.396655083 0.242803752
vt 0.36123836 0.286869913
vt 0.361237973 0.242803872
vt 0.360106319 0.242803872
vt 0.360106498 0.286869973
vt 0.397786885 0.242803752
vt 0.396655083 0.242803752
vt 0.396655798 0.29059571
vt 0.39778775 0.290595531
vt 0.484466791 0.242803633
vt 0.484466314 0.33535561
vt 0.485598058 0.33535552
vt 0.485598385 0.242803633
vt 0.486730188 0.242803618
vt 0.48672992 0.335355639
vt 0.487861574 0.33535558
vt 0.487861872 0.242803633
vt 0.485598385 0.242803633
vt 0.485598058 0.33535552
vt 0.48672992 0.335355639
vt 0.486730188 0.242803618
vt 0.434335411 0.242804363
vt 0.434334934 0.290571392
vt 0.468620241 0.242803633
vt 0.434314609 0.335355163
vt 0.468620062 0.335355341
vt 0.470883727 0.242803633
vt 0.470883518 0.335355312
vt 0.484466314 0.33535561
vt 0.484466791 0.242803633
vt 0.433203608 0.242804363
vt 0.432071894 0.242804244
vt 0.432072461 0.290594518
vt 0.433204234 0.290594399
vt 0.487861872 0.242803633
vt 0.487861574 0.33535558
vt 0.488993168 0.33535555
vt 0.488993585 0.242803648
vt 0.434334934 0.290571392
vt 0.434335411 0.242804363
vt 0.433203608 0.242804363
vt 0.433204234 0.290594399
vt 0.469752014 0.242803633
vt 0.469751775 0.335355282
vt 0.470883518 0.335355312
vt 0.470883727 0.242803633
vt 0.468620241 0.242803633
vt 0.468620062 0.335355341
vt 0.469751775 0.335355282
vt 0.469752014 0.242803633
vt 0.498731911 0.242803633
vt 0.488993585 0.242803633
vt 0.488993168 0.33535555
vt 0.498731524 0.334186554
vt 0.288468063 0.215104595
vt 0.288885415 0.235212594
vt 0.473876417 0.233533368
vt 0.473672003 0.214110151
vt 0.370136321 0.214666069
vt 0.377387494 0.0752508566
vt 0.377387166 0.00806479715
vt 0.333278716 0.00806491636
vt 0.333278835 0.0752509758
vn -0 0 1
vn -0 0 1
vn -0 0 1
vn -0 0 1
vn -0 0 1
vn -0 0 1
vn -0 0 1
vn -0 0 1
vn -0 0 1
vn -0 0 1
vn -0 1 0
vn -0 1 0
vn -0 1 0
vn -0 1 0
vn -0 1 0
vn -0 1 0
vn -0 1 0
vn -0 1 0
vn -0 1 0
vn -0 1 0
vn -0 1 0
vn -0 1 0
vn -0 1 0
vn -0 1 0
vn -0 1 0
vn -0 1 0
vn -0 1 0
vn -0 1 0
vn -0 1 0
vn -0 1 0
vn -0 1 0
vn -0 1 0
vn -0 1 0
vn -0 1 0
vn -0 1 0
vn -0 1 0
vn -0 1 0
vn -0 1 0
vn -0 1 0
vn -0 1 0
vn -0 1 0
vn -0 1 0
vn -0 1 0
vn -0 1 0
vn -0 1 0
vn -0 1 0
vn -0 1 0
vn -0 1 0
vn -0 1 0
vn -0 1 0
vn -0 1 0
vn -0 1 0
vn -0.247978747 0.947603703 0.201379508
vn -0.247978747 0.947603703 0.201379508
vn -0.247978747 0.947603703 0.201379508
vn -0.315615088 0.946846247 0.0622040257
vn -0.315615088 0.946846247 0.0622040257
vn -0.315615088 0.946846247 0.0622040257
vn -0.0727799386 0.946657896 0.313914061
vn -0.0727799386 0.946657896 0.313914061
vn -0.0727799386 0.946657896 0.313914061
vn -0.00657880539 0.999978423 0
vn -0.00657880539 0.999978423 0
vn -0.00657880539 0.999978423 0
vn -0.000179873852 0.00327108405 -0.999994636
vn -0.000179873852 0.00327108405 -0.999994636
vn -0.000179873852 0.00327108405 -0.999994636
vn -0.000179873852 0.00327108405 -0.999994636
vn -0 1 0
vn -0 1 0
vn -0 1 0
vn -0 1 0
vn -1 0 0
vn -1 0 0
vn -1 0 0
vn -1 0 0
vn -0.0038405885 0 -0.999992609
vn -0.0038405885 0 -0.999992609
vn -0.0038405885 0 -0.999992609
vn -0.0038405885 0 -0.999992609
vn 0.00360807125 0 0.999993563
vn 0.00360807125 0 0.999993563
vn 0.00360807125 0 0.999993563
vn 0.00360807125 0 0.999993563
vn -0 1 0
vn -0 1 0
vn -0 1 0
vn -0 1 0
vn -0 1 0
vn -0 1 0
vn -0 1 0
vn -0 1 0
vn -0 1 0
vn -0 1 0
vn -0 1 0
vn -0 1 0
vn -0 1 0
vn -0 1 0
vn -1 0 0
vn -1 0 0
vn -1 0 0
vn -1 0 0
vn -1 0 0
vn -1 0 0
vn -0 0 -1
vn -0 0 -1
vn -0 0 -1
vn -0 0 -1
vn 1 0 0
vn 1 0 0
vn 1 0 0
vn 1 0 0
vn 1 0 0
vn 1 0 0
vn -0 1 0
vn -0 1 0
vn -0 1 0
vn -0 1 0
vn -0 1 0
vn -0 1 0
vn -0 1 0
vn -0 1 0
vn -0 1 0
vn -0 1 0
vn -0 1 0
vn -0 1 0
vn -0 1 0
vn -0 1 0
vn -0 1 0
vn -0 1 0
vn -0 1 0
vn -0 1 0
vn -0 1 0
vn -0 1 0
vn -0 1 0
vn -0 1 0
vn -0 1 0
vn -0 1 0
vn -0 1 0
vn -0 1 0
vn -0 1 0
vn -0 1 0
vn -0 1 0
vn -0 1 0
vn -0 1 0
vn -0 1 0
vn -0 1 0
vn -0 1 0
vn -0 1 0
vn -0 1 0
vn -0 1 0
vn -0 1 0
vn -0 1 0
vn -0 1 0
vn -0.951056361 0 -0.309017479
vn -0.951056361 0 -0.309017479
vn -0.951056361 0 -0.309017479
vn -0.951056361 0 -0.309017479
vn -0 0 -1
vn -0 0 -1
vn -0 0 -1
vn -0 0 -1
vn 0.951055467 0 0.309020072
vn 0.951055467 0 0.309020072
vn 0.951055467 0 0.309020072
vn 0.951055467 0 0.309020072
vn -0.951056778 0 0.309015989
vn -0.951056778 0 0.309015989
vn -0.951056778 0 0.309015989
vn -0.951056778 0 0.309015989
vn -0.587786496 0 -0.809016109
vn -0.587786496 0 -0.809016109
vn -0.587786496 0 -0.809016109
vn -0.587786496 0 -0.809016109
vn 0.951057017 0 -0.309015542
vn 0.951057017 0 -0.309015542
vn 0.951057017 0 -0.309015542
vn 0.951057017 0 -0.309015542
vn -0 0 1
vn -0 0 1
vn -0 0 1
vn -0 0 1
vn -0.587783873 0 0.809018016
vn -0.587783873 0 0.809018016
vn -0.587783873 0 0.809018016
vn -0.587783873 0 0.809018016
vn 0.587783575 0 -0.809018135
vn 0.587783575 0 -0.809018135
vn 0.587783575 0 -0.809018135
vn 0.587783575 0 -0.809018135
vn -0 1 0
vn -0 1 0
vn -0 1 0
vn -0.316227496 0.948683441 0
vn -0.316227496 0.948683441 0
vn -0.316227496 0.948683441 0
vn -0.316227496 0.948683441 0
vn -0.316227525 0.948683441 0
vn -0.316227525 0.948683441 0
vn -0.316227794 0.948683321 0
vn -0.316227794 0.948683321 0
vn -0.544893503 0 0.838505268
vn -0.544893503 0 0.838505268
vn -0.544893503 0 0.838505268
vn -0.544893503 0 0.838505268
vn -0.859786272 0 0.510654151
vn -0.859786272 0 0.510654151
vn -0.859786272 0 0.510654151
vn -0.859786272 0 0.510654151
vn -1 0 0
vn -1 0 0
vn -1 0 0
vn -1 0 0
vn -1 0 0
vn -1 0 0
vn -1 0 0
vn -1 0 0
vn -0.115614332 0 0.993294239
vn -0.115614332 0 0.993294239
vn -0.115614332 0 0.993294239
vn -0.115614332 0 0.993294239
vn -0 0 1
vn -0 0 1
vn -0 0 1
vn -0 0 1
vn -0 -1.48306326E-05 1
vn -0 -1.48306326E-05 1
vn -1 0 0
vn -1 0 0
vn -1 0 0
vn -1 0 0
vn -0 0 1
vn -0 0 1
vn -0 0 1
vn -0 0 1
vn -0 1 0
vn -0 1 0
vn -0 1 0
vn -0 1 0
vn -0 0.995037138 0.0995037183
vn -0 0.995037138 0.0995037183
vn -0 0.995037138 0.0995037183
vn -0 0.995037138 0.0995037183
vn -1 0 0
vn -1 0 0
vn -1 0 0
vn -1 0 0
vn -0 0 1
vn -0 0 1
vn -0 0 1
vn -0 0 1
vn 1 0 0
vn 1 0 0
vn 1 0 0
vn 1 0 0
vn -0 0 1
vn -0 0 1
vn -0 0 1
vn -0 0 1
vn -0 0 1
vn -0 0 -1
vn -0 0 -1
vn -0 0 -1
vn -0 0 -1
vn -0 0 -1
vn -0 0 -1
vn 1 0 0
vn 1 0 0
vn 1 0 0
vn 1 0 0
vn 0.823273599 0 -0.567644775
vn 0.823273599 0 -0.567644775
vn 0.823273599 0 -0.567644775
vn 0.823273599 0 -0.567644775
vn 0.998826325 0 -0.048433762
vn 0.998826325 0 -0.048433762
vn 0.998826325 0 -0.048433762
vn 0.998826325 0 -0.048433762
vn 0.864257812 0 -0.503049195
vn 0.864257812 0 -0.503049195
vn 0.864257812 0 -0.503049195
vn 0.864257812 0 -0.503049195
vn 0.884398222 0 -0.466733277
vn 0.884398222 0 -0.466733277
vn 0.884398222 0 -0.466733277
vn 0.884398222 0 -0.466733277
vn 0.859533787 0 -0.511078954
vn 0.859533787 0 -0.511078954
vn 0.859533787 0 -0.511078954
vn 0.859533787 0 -0.511078954
vn 0.864481151 0 -0.502665162
vn 0.864481151 0 -0.502665162
vn 0.864481151 0 -0.502665162
vn 0.864481151 0 -0.502665162
vn 0.862756908 0 -0.505618811
vn 0.862756908 0 -0.505618811
vn 0.862756908 0 -0.505618811
vn 0.862756908 0 -0.505618811
vn 0.867570162 0 -0.497314841
vn 0.867570162 0 -0.497314841
vn 0.867570162 0 -0.497314841
vn 0.867570162 0 -0.497314841
vn 0.867883325 0 -0.496767998
vn 0.867883325 0 -0.496767998
vn 0.867883325 0 -0.496767998
vn 0.867883325 0 -0.496767998
vn 0.505985558 0 0.862541974
vn 0.505985558 0 0.862541974
vn 0.505985558 0 0.862541974
vn 0.505985558 0 0.862541974
vn 0.669891059 0 0.742459357
vn 0.669891059 0 0.742459357
vn 0.669891059 0 0.742459357
vn 0.669891059 0 0.742459357
vn 0.669891298 0 0.742459178
vn 0.583720922 0 0.811954319
vn 0.583720922 0 0.811954319
vn 0.583720922 0 0.811954319
vn 0.583720922 0 0.811954319
vn 0.568534791 0 0.822659194
vn 0.568534791 0 0.822659194
vn 0.568534791 0 0.822659194
vn 0.568534791 0 0.822659194
vn 0.597521663 0 0.801852703
vn 0.597521663 0 0.801852703
vn 0.597521663 0 0.801852703
vn 0.597521663 0 0.801852703
vn 0.595591366 0 0.803287625
vn 0.595591366 0 0.803287625
vn 0.595591366 0 0.803287625
vn 0.595591366 0 0.803287625
vn 0.520278692 0 0.853996515
vn 0.520278692 0 0.853996515
vn 0.520278692 0 0.853996515
vn 0.520278692 0 0.853996515
vn 0.632772207 0 0.774338007
vn 0.632772207 0 0.774338007
vn 0.632772207 0 0.774338007
vn 0.632772207 0 0.774338007
vn -0 0.998149395 0.0608093813
vn -0 0.998149395 0.0608093813
vn -0 0.998149395 0.0608093813
vn -0 0.998149395 0.0608093813
vn -0 0.992658794 -0.120948374
vn -0 0.992658794 -0.120948374
vn -0 0.992658794 -0.120948374
vn -0 0.992658794 -0.120948374
vn -0 0.992658675 0.120949291
vn -0 0.992658675 0.120949291
vn -0 0.992658675 0.120949291
vn -0 0.992658675 0.120949291
vn -0 0.998149395 -0.0608092695
vn -0 0.998149395 -0.0608092695
vn -0 0.998149395 -0.0608092695
vn -0 0.998149395 -0.0608092695
vn 0.587786496 0 0.809016109
vn 0.587786496 0 0.809016109
vn 0.587786496 0 0.809016109
vn 0.587786496 0 0.809016109
vn -0 0 1
vn -0 0 1
vn -0 0 1
vn -0 0 1
vn -0 0 -1
vn -0 0 -1
vn -0 0 -1
vn -0 0 -1
vn 1 0 0
vn 1 0 0
vn 1 0 0
vn 1 0 0
vn -0 0 -1
vn -0 0 -1
vn -0 0 -1
vn -0 0 -1
vn -0 0 -1
vn -0 0 -1
vn -0 0 -1
vn -0 0 -1
vn -0 0 -1
vn -0 0 -1
vn -1 0 0
vn -1 0 0
vn -1 0 0
vn -1 0 0
vn 1 0 0
vn 1 0 0
vn 1 0 0
vn 1 0 0
vn 1 0 0
vn 1 0 0
vn -0 0 1
vn -0 0 1
vn -0 0 1
vn -0 0 1
vn -0.999993443 0 0.00363131962
vn -0.999993443 0 0.00363131962
vn -0.999993443 0 0.00363131962
vn -0.999993443 0 0.00363131962
vn -0.999993443 0 0.00363260601
vn -0.999999285 0.000657277473 0.00102746428
vn -0.999999285 0.000657277473 0.00102746428
vn -0.999998808 0 0.00160043966
vn -0.999998808 0 0.00160043966
vn -1 0 0
vn -1 0 0
vn -1 0 0
vn -1 0 0
vn -0.999980211 -0.000459821662 0.00627444219
vn -0.999980211 -0.000459821662 0.00627444219
vn -0.999980211 -0.000459821662 0.00627444219
vn -0.999980211 -0.000459821662 0.00627444219
vn -0.999978304 0 0.00659764931
vn -0.999978304 0 0.00659764931
vn -0.999978304 0 0.00659764931
vn -0.999978304 0 0.00659764931
vn -0.99998188 0.000966445077 0.00595119921
vn -1 0 0
vn -1 0 0
vn -1 0 0
vn -1 0 0
vn -0 0 1
vn -0 0 1
vn -0 0 1
vn -0 0 1
vn 1 0 0
vn 1 0 0
vn 1 0 0
vn 1 0 0
vn -0 1 0
vn -0 1 0
vn -0 1 0
vn -0 1 0
vn -0 1 0
vn -0 1 0
vn -0 1 0
vn -0 1 0
vn -0 1 0
vn -0 1 0
vn -0 1 0
vn -0 1 0
vn -0 1 0
vn -0 1 0
vn -0 1 0
vn -0 1 0
vn -0 1 0
vn -0 1 0
vn -0 0 1
vn -0 0 1
vn -0 0 1
vn -0 0 1
vn -0 1 0
vn -0 1 0
vn -0 1 0
vn -0 1 0
vn -0 1 0
vn -0 1 0
vn -0 1 0
vn -0 1 0
vn -0 1 0
vn -0 1 0
vn -0 1 0
vn -0 1 0
vn -0 1 0
vn -0 1 0
vn 1 0 0
vn 1 0 0
vn 1 0 0
vn 1 0 0
vn -0 0 1
vn -0 0 1
vn -0 0 1
vn -0 0 1
vn -1 0 0
vn -1 0 0
vn -1 0 0
vn -1 0 0
vn -0 0 -1
vn -0 0 -1
vn -0 0 -1
vn -0 0 -1
vn -0 0 1
vn -0 0 1
vn -0 0 1
vn -0 0 1
vn -0 0 1
vn -0 0 1
vn -0 0 1
vn -0 0 1
vn 1 0 0
vn 1 0 0
vn 1 0 0
vn 1 0 0
vn -0 0 -1
vn -0 0 -1
vn -0 0 -1
vn -0 0 -1
vn 1 0 0
vn 1 0 0
vn 1 0 0
vn 1 0 0
vn -0 0 -1
vn -0 0 -1
vn -0 0 -1
vn -0 0 -1
vn -1 0 0
vn -1 0 0
vn -1 0 0
vn -1 0 0
vn -0 0 -1
vn -0 0 -1
vn -0 0 -1
vn -0 0 -1
vn -1 0 0
vn -1 0 0
vn -1 0 0
vn -1 0 0
vn -0 0 -1
vn -0 0 -1
vn -0 0 -1
vn -0 0 -1
vn -0 -1 0
vn -0 -1 0
vn -0 -1 0
vn -0 -1 0
vn -0 -1 0
vn -0 -1 0
vn -0 -1 0
vn 1 0 0
vn 1 0 0
vn 1 0 0
vn 1 0 0
vn -0 0 1
vn -0 0 1
vn -0 0 1
vn -0 0 1
vn -1 0 0
vn -1 0 0
vn -1 0 0
vn -1 0 0
vn 0.707108259 0 -0.707105219
vn 0.707108259 0 -0.707105219
vn 0.707108259 0 -0.707105219
vn 0.707108259 0 -0.707105219
vn 0.000972756359 0.000446689926 -0.999999404
vn 0.000972756359 0.000446689926 -0.999999404
vn 0.000972756359 0.000446689926 -0.999999404
vn 0.000972756359 0.000446689926 -0.999999404
vn 1 0 0
vn 1 0 0
vn 1 0 0
vn 1 0 0
vn -0 0 1
vn -0 0 1
vn -0 0 1
vn -0 0 1
vn 1 0 0
vn 1 0 0
vn 1 0 0
vn 1 0 0
vn 1 0 0
vn 1 0 0
vn -0 0 1
vn -0 0 1
vn -0 0 1
vn -0 0 1
vn -0 0 1
vn -0 0 1
vn -0 0 1
vn -0 0 1
vn -0 0 1
vn -0 0 1
vn -0 0 1
vn -0 0 1
vn -0 0 1
vn -0 0 1
vn -0.38266179 0 0.923888445
vn -0.38266179 0 0.923888445
vn -0.38266179 0 0.923888445
vn -0.38266179 0 0.923888445
vn 0.923880756 0 0.382680595
vn 0.923880756 0 0.382680595
vn 0.923880756 0 0.382680595
vn 0.923880756 0 0.382680595
vn 0.382682621 0 0.923879921
vn 0.382682621 0 0.923879921
vn 0.382682621 0 0.923879921
vn 0.382682621 0 0.923879921
vn 0.923885405 0 -0.38266933
vn 0.923885405 0 -0.38266933
vn 0.923885405 0 -0.38266933
vn 0.923885405 0 -0.38266933
vn 0.923885405 0 -0.38266933
vn 0.382671326 0 0.92388463
vn 0.382671326 0 0.92388463
vn 0.382671326 0 0.92388463
vn 0.382671326 0 0.92388463
vn 0.382667094 0 0.92388624
vn 0.382667094 0 0.92388624
vn 0.382667094 0 0.92388624
vn 0.382667094 0 0.92388624
vn -0.382658005 0 0.923889995
vn -0.382658005 0 0.923889995
vn -0.382658005 0 0.923889995
vn -0.382658005 0 0.923889995
vn -0.382664919 0 0.923887253
vn -0.382664919 0 0.923887253
vn -0.382664919 0 0.923887253
vn -0.382664919 0 0.923887253
vn 0.382667899 0 0.923886061
vn 0.382667899 0 0.923886061
vn 0.382667899 0 0.923886061
vn 0.382667899 0 0.923886061
vn -0.923883677 0 0.382673562
vn -0.923883677 0 0.382673562
vn -0.923883677 0 0.382673562
vn -0.923883677 0 0.382673562
vn -0.382664233 0 0.923887432
vn -0.382664233 0 0.923887432
vn -0.382664233 0 0.923887432
vn -0.382664233 0 0.923887432
vn -0 0 1
vn -0 0 1
vn -0 0 1
vn -0 0 1
vn -0 0 1
vn -0 0 1
vn -0 0 1
vn -0 0 1
vn -0 0 1
vn 0.382664919 0 0.923887253
vn 0.382664919 0 0.923887253
vn 0.382664919 0 0.923887253
vn 0.382664919 0 0.923887253
vn -0.923877776 0 -0.382687628
vn -0.923877776 0 -0.382687628
vn -0.923877776 0 -0.382687628
vn -0.923877776 0 -0.382687628
vn -0.382682443 0 0.923880041
vn -0.382682443 0 0.923880041
vn -0.382682443 0 0.923880041
vn -0.382682443 0 0.923880041
vn -0.382666051 0 0.923886716
vn -0.382666051 0 0.923886716
vn -0.382666051 0 0.923886716
vn -0.382666051 0 0.923886716
vn 0.382666051 0 0.923886716
vn 0.382666051 0 0.923886716
vn 0.382666051 0 0.923886716
vn 0.382666051 0 0.923886716
vn -1 0 0
vn -1 0 0
vn -1 0 0
vn -1 0 0
vn -0.0119021153 0.977122009 0.212346166
vn -0.0119021153 0.977122009 0.212346166
vn -0.0119021153 0.977122009 0.212346166
vn -0.0119021153 0.977122009 0.212346166
vn -0.0119021153 0.977122009 0.212346166
vn -1 0 0
vn -1 0 0
vn -1 0 0
vn -1 0 0
g flip_LP_0
f 3/3/3 2/2/2 1/1/1
f 5/5/5 4/4/4 1/1/1
f 6/6/6 5/5/5 1/1/1
f 1/1/1 7/7/7 6/6/6
f 7/7/7 8/8/8 6/6/6
f 9/9/9 5/5/5 6/6/6
f 10/10/10 9/9/9 6/6/6
f 13/13/13 12/12/12 11/11/11
f 12/12/12 15/15/15 14/14/14
f 12/12/12 16/16/16 15/15/15
f 15/15/15 17/17/17 14/14/14
f 17/17/17 18/18/18 14/14/14
f 19/19/19 14/14/14 18/18/18
f 20/20/20 19/19/19 18/18/18
f 19/19/19 21/21/21 14/14/14
f 19/19/19 22/22/22 21/21/21
f 21/21/21 23/23/23 14/14/14
f 21/21/21 24/24/24 23/23/23
f 14/14/14 23/23/23 25/25/25
f 25/25/25 23/23/23 26/26/26
f 23/23/23 27/27/27 26/26/26
f 25/25/25 26/26/26 28/28/28
f 26/26/26 29/29/29 28/28/28
f 25/25/25 28/28/28 30/30/30
f 31/31/31 25/25/25 30/30/30
f 32/32/32 31/31/31 30/30/30
f 33/33/33 31/31/31 32/32/32
f 31/31/31 33/33/33 34/34/34
f 35/35/35 31/31/31 34/34/34
f 31/31/31 35/35/35 36/36/36
f 36/36/36 35/35/35 37/37/37
f 38/38/38 31/31/31 36/36/36
f 39/39/39 31/31/31 38/38/38
f 31/31/31 39/39/39 40/40/40
f 41/41/41 31/31/31 40/40/40
f 41/41/41 40/40/40 42/42/42
f 40/40/40 43/43/43 42/42/42
f 37/37/37 35/35/35 44/44/44
f 35/35/35 45/45/45 44/44/44
f 35/35/35 46/46/46 45/45/45
f 44/44/44 45/45/45 47/47/47
f 45/45/45 48/48/48 47/47/47
f 45/45/45 49/49/49 48/48/48
f 47/47/47 48/48/48 50/50/50
f 50/50/50 48/48/48 51/51/51
f 48/48/48 42/42/42 51/51/51
f 51/51/51 42/42/42 52/52/52
f 55/55/55 54/54/54 53/53/53
f 58/58/58 57/57/57 56/56/56
f 61/61/61 60/60/60 59/59/59
f 64/64/64 63/63/63 62/62/62
f 67/67/67 66/66/66 65/65/65
f 68/68/68 67/67/67 65/65/65
f 71/71/71 70/70/70 69/69/69
f 72/72/72 71/71/71 69/69/69
f 75/75/75 74/74/74 73/73/73
f 76/76/76 75/75/75 73/73/73
f 79/79/79 78/78/78 77/77/77
f 80/80/80 79/79/79 77/77/77
f 83/83/83 82/82/82 81/81/81
f 84/84/84 83/83/83 81/81/81
f 87/87/87 86/86/86 85/85/85
f 85/85/85 88/88/88 87/87/87
f 85/85/85 89/89/89 88/88/88
f 85/85/85 90/90/90 89/89/89
f 90/90/90 91/91/91 89/89/89
f 91/91/91 92/92/92 89/89/89
f 91/91/91 93/93/93 92/92/92
f 93/93/93 94/94/94 92/92/92
f 97/97/97 96/96/96 95/95/95
f 98/98/98 97/97/97 95/95/95
f 101/101/101 100/100/100 99/99/99
f 100/100/100 102/102/102 99/99/99
f 99/99/99 102/102/102 103/103/103
f 102/102/102 104/104/104 103/103/103
f 107/107/107 106/106/106 105/105/105
f 108/108/108 107/107/107 105/105/105
f 111/111/111 110/110/110 109/109/109
f 110/110/110 112/112/112 109/109/109
f 109/109/109 112/112/112 113/113/113
f 112/112/112 114/114/114 113/113/113
f 117/117/117 116/116/116 115/115/115
f 116/116/116 118/118/118 115/115/115
f 115/115/115 118/118/118 119/119/119
f 118/118/118 120/120/120 119/119/119
f 123/123/123 122/122/122 121/121/121
f 124/124/124 123/123/123 121/121/121
f 127/127/127 126/126/126 125/125/125
f 128/128/128 127/127/127 125/125/125
f 130/130/130 129/129/129 128/128/128
f 131/131/131 130/130/130 128/128/128
f 132/132/132 130/130/130 131/131/131
f 133/133/133 132/132/132 131/131/131
f 136/136/136 135/135/135 134/134/134
f 137/137/137 136/136/136 134/134/134
f 139/139/139 136/136/136 138/138/138
f 140/140/140 139/139/139 138/138/138
f 141/141/141 139/139/139 140/140/140
f 142/142/142 141/141/141 140/140/140
f 145/145/145 144/144/144 143/143/143
f 146/146/146 145/145/145 143/143/143
f 149/149/149 148/148/148 147/147/147
f 150/150/150 149/149/149 147/147/147
f 153/153/153 152/152/152 151/151/151
f 154/154/154 153/153/153 151/151/151
f 157/157/157 156/156/156 155/155/155
f 158/158/158 157/157/157 155/155/155
f 161/161/161 160/160/160 159/159/159
f 162/162/162 161/161/161 159/159/159
f 165/165/165 164/164/164 163/163/163
f 166/166/166 165/165/165 163/163/163
f 169/169/169 168/168/168 167/167/167
f 170/170/170 169/169/169 167/167/167
f 173/173/173 172/172/172 171/171/171
f 174/174/174 173/173/173 171/171/171
f 177/177/177 176/176/176 175/175/175
f 178/178/178 177/177/177 175/175/175
f 181/181/181 180/180/180 179/179/179
f 182/182/182 181/181/181 179/179/179
f 185/185/185 184/184/184 183/183/183
f 186/186/186 185/185/185 183/183/183
f 189/189/189 188/188/188 187/187/187
f 190/190/190 189/189/189 187/187/187
f 193/193/193 192/192/192 191/191/191
f 14/14/14 192/192/192 193/193/193
f 196/196/196 195/195/195 194/194/194
f 197/197/197 196/196/196 194/194/194
f 197/197/197 194/194/194 198/198/198
f 199/199/199 197/197/197 198/198/198
f 199/199/199 198/198/198 200/200/200
f 201/201/201 199/199/199 200/200/200
f 204/204/204 203/203/203 202/202/202
f 205/205/205 204/204/204 202/202/202
f 208/208/208 207/207/207 206/206/206
f 209/209/209 208/208/208 206/206/206
f 212/212/212 211/211/211 210/210/210
f 213/213/213 212/212/212 210/210/210
f 213/213/213 210/210/210 214/214/214
f 215/215/215 213/213/213 214/214/214
f 215/215/215 214/214/214 216/216/216
f 217/217/217 215/215/215 216/216/216
f 220/220/220 219/219/219 218/218/218
f 221/221/221 220/220/220 218/218/218
f 224/224/224 223/223/223 222/222/222
f 223/223/223 225/225/225 222/222/222
f 222/222/222 225/225/225 226/226/226
f 225/225/225 227/227/227 226/226/226
f 230/230/230 229/229/229 228/228/228
f 231/231/231 230/230/230 228/228/228
f 234/234/234 233/233/233 232/232/232
f 235/235/235 234/234/234 232/232/232
f 238/238/238 237/237/237 236/236/236
f 239/239/239 238/238/238 236/236/236
f 242/242/242 241/241/241 240/240/240
f 243/243/243 242/242/242 240/240/240
f 246/246/246 245/245/245 244/244/244
f 247/247/247 246/246/246 244/244/244
f 250/250/250 249/249/249 248/248/248
f 251/251/251 250/250/250 248/248/248
f 254/254/254 253/253/253 252/252/252
f 255/255/255 254/254/254 252/252/252
f 258/258/258 257/257/257 256/256/256
f 256/256/256 257/257/257 259/259/259
f 257/257/257 260/260/260 259/259/259
f 263/263/263 262/262/262 261/261/261
f 264/264/264 263/263/263 261/261/261
f 264/264/264 261/261/261 265/265/265
f 266/266/266 264/264/264 265/265/265
f 269/269/269 268/268/268 267/267/267
f 270/270/270 269/269/269 267/267/267
f 273/273/273 272/272/272 271/271/271
f 274/274/274 273/273/273 271/271/271
f 277/277/277 276/276/276 275/275/275
f 278/278/278 277/277/277 275/275/275
f 281/281/281 280/280/280 279/279/279
f 282/282/282 281/281/281 279/279/279
f 285/285/285 284/284/284 283/283/283
f 286/286/286 285/285/285 283/283/283
f 289/289/289 288/288/288 287/287/287
f 290/290/290 289/289/289 287/287/287
f 293/293/293 292/292/292 291/291/291
f 294/294/294 293/293/293 291/291/291
f 297/297/297 296/296/296 295/295/295
f 298/298/298 297/297/297 295/295/295
f 301/301/301 300/300/300 299/299/299
f 302/302/302 301/301/301 299/299/299
f 305/305/305 304/304/304 303/303/303
f 306/306/306 305/305/305 303/303/303
f 309/309/309 308/308/308 307/307/307
f 310/310/310 309/309/309 307/307/307
f 313/313/313 312/312/312 311/311/311
f 314/314/314 313/313/313 311/311/311
f 315/315/315 314/314/314 311/311/311
f 318/318/318 317/317/317 316/316/316
f 319/319/319 318/318/318 316/316/316
f 322/322/322 321/321/321 320/320/320
f 323/323/323 322/322/322 320/320/320
f 326/326/326 325/325/325 324/324/324
f 327/327/327 326/326/326 324/324/324
f 330/330/330 329/329/329 328/328/328
f 331/331/331 330/330/330 328/328/328
f 334/334/334 333/333/333 332/332/332
f 335/335/335 334/334/334 332/332/332
f 338/338/338 337/337/337 336/336/336
f 339/339/339 338/338/338 336/336/336
f 342/342/342 341/341/341 340/340/340
f 343/343/343 342/342/342 340/340/340
f 346/346/346 345/345/345 344/344/344
f 347/347/347 346/346/346 344/344/344
f 350/350/350 349/349/349 348/348/348
f 351/351/351 350/350/350 348/348/348
f 354/354/354 353/353/353 352/352/352
f 355/355/355 354/354/354 352/352/352
f 358/358/358 357/357/357 356/356/356
f 359/359/359 358/358/358 356/356/356
f 362/362/362 361/361/361 360/360/360
f 363/363/363 362/362/362 360/360/360
f 366/366/366 365/365/365 364/364/364
f 367/367/367 366/366/366 364/364/364
f 370/370/370 369/369/369 368/368/368
f 371/371/371 370/370/370 368/368/368
f 374/374/374 373/373/373 372/372/372
f 375/375/375 374/374/374 372/372/372
f 378/378/378 377/377/377 376/376/376
f 379/379/379 378/378/378 376/376/376
f 380/380/380 378/378/378 379/379/379
f 381/381/381 380/380/380 379/379/379
f 384/384/384 383/383/383 382/382/382
f 385/385/385 384/384/384 382/382/382
f 388/388/388 387/387/387 386/386/386
f 388/388/388 386/386/386 389/389/389
f 390/390/390 388/388/388 389/389/389
f 389/389/389 391/391/391 390/390/390
f 394/394/394 393/393/393 392/392/392
f 395/395/395 394/394/394 392/392/392
f 398/398/398 397/397/397 396/396/396
f 397/397/397 399/399/399 396/396/396
f 399/399/399 400/400/400 396/396/396
f 396/396/396 400/400/400 401/401/401
f 400/400/400 402/402/402 401/401/401
f 400/400/400 403/403/403 402/402/402
f 403/403/403 404/404/404 402/402/402
f 407/407/407 406/406/406 405/405/405
f 408/408/408 407/407/407 405/405/405
f 411/411/411 410/410/410 409/409/409
f 412/412/412 411/411/411 409/409/409
f 415/415/415 414/414/414 413/413/413
f 416/416/416 415/415/415 413/413/413
f 416/416/416 417/417/417 415/415/415
f 420/420/420 419/419/419 418/418/418
f 421/421/421 420/420/420 418/418/418
f 424/424/424 423/423/423 422/422/422
f 425/425/425 424/424/424 422/422/422
f 428/428/428 427/427/427 426/426/426
f 429/429/429 428/428/428 426/426/426
f 432/432/432 431/431/431 430/430/430
f 433/433/433 432/432/432 430/430/430
f 434/434/434 433/433/433 430/430/430
f 434/434/434 430/430/430 435/435/435
f 434/434/434 435/435/435 436/436/436
f 434/434/434 437/437/437 433/433/433
f 438/438/438 434/434/434 436/436/436
f 436/436/436 439/439/439 438/438/438
f 439/439/439 440/440/440 438/438/438
f 433/433/433 437/437/437 441/441/441
f 442/442/442 433/433/433 441/441/441
f 443/443/443 442/442/442 441/441/441
f 444/444/444 443/443/443 441/441/441
f 446/446/446 444/444/444 445/445/445
f 447/447/447 446/446/446 445/445/445
f 450/450/450 449/449/449 448/448/448
f 451/451/451 450/450/450 448/448/448
f 454/454/454 453/453/453 452/452/452
f 453/453/453 455/455/455 452/452/452
f 452/452/452 455/455/455 456/456/456
f 452/452/452 456/456/456 457/457/457
f 458/458/458 452/452/452 457/457/457
f 458/458/458 457/457/457 459/459/459
f 456/456/456 459/459/459 457/457/457
f 460/460/460 458/458/458 459/459/459
f 460/460/460 459/459/459 461/461/461
f 461/461/461 459/459/459 456/456/456
f 462/462/462 460/460/460 461/461/461
f 455/455/455 463/463/463 456/456/456
f 463/463/463 461/461/461 456/456/456
f 455/455/455 464/464/464 463/463/463
f 462/462/462 461/461/461 465/465/465
f 465/465/465 461/461/461 463/463/463
f 464/464/464 462/462/462 465/465/465
f 464/464/464 465/465/465 463/463/463
f 468/468/468 467/467/467 466/466/466
f 469/469/469 468/468/468 466/466/466
f 472/472/472 471/471/471 470/470/470
f 473/473/473 472/472/472 470/470/470
f 476/476/476 475/475/475 474/474/474
f 477/477/477 476/476/476 474/474/474
f 480/480/480 479/479/479 478/478/478
f 481/481/481 480/480/480 478/478/478
f 484/484/484 483/483/483 482/482/482
f 485/485/485 484/484/484 482/482/482
f 488/488/488 487/487/487 486/486/486
f 489/489/489 488/488/488 486/486/486
f 492/492/492 491/491/491 490/490/490
f 493/493/493 492/492/492 490/490/490
f 496/496/496 495/495/495 494/494/494
f 497/497/497 496/496/496 494/494/494
f 500/500/500 499/499/499 498/498/498
f 501/501/501 500/500/500 498/498/498
f 504/504/504 503/503/503 502/502/502
f 505/505/505 504/504/504 502/502/502
f 508/508/508 507/507/507 506/506/506
f 509/509/509 508/508/508 506/506/506
f 512/512/512 511/511/511 510/510/510
f 513/513/513 512/512/512 510/510/510
f 516/516/516 515/515/515 514/514/514
f 517/517/517 516/516/516 514/514/514
f 520/520/520 519/519/519 518/518/518
f 521/521/521 520/520/520 518/518/518
f 524/524/524 523/523/523 522/522/522
f 523/523/523 525/525/525 522/522/522
f 523/523/523 526/526/526 525/525/525
f 525/525/525 526/526/526 527/527/527
f 528/528/528 525/525/525 527/527/527
f 531/531/531 530/530/530 529/529/529
f 532/532/532 531/531/531 529/529/529
f 535/535/535 534/534/534 533/533/533
f 536/536/536 535/535/535 533/533/533
f 539/539/539 538/538/538 537/537/537
f 540/540/540 539/539/539 537/537/537
f 543/543/543 542/542/542 541/541/541
f 544/544/544 543/543/543 541/541/541
f 547/547/547 546/546/546 545/545/545
f 548/548/548 547/547/547 545/545/545
f 551/551/551 550/550/550 549/549/549
f 552/552/552 551/551/551 549/549/549
f 555/555/555 554/554/554 553/553/553
f 556/556/556 555/555/555 553/553/553
f 559/559/559 558/558/558 557/557/557
f 560/560/560 559/559/559 557/557/557
f 560/560/560 561/561/561 559/559/559
f 561/561/561 562/562/562 559/559/559
f 565/565/565 564/564/564 563/563/563
f 566/566/566 565/565/565 563/563/563
f 569/569/569 568/568/568 567/567/567
f 570/570/570 569/569/569 567/567/567
f 573/573/573 572/572/572 571/571/571
f 574/574/574 573/573/573 571/571/571
f 574/574/574 571/571/571 575/575/575
f 576/576/576 574/574/574 575/575/575
f 579/579/579 578/578/578 577/577/577
f 580/580/580 579/579/579 577/577/577
f 583/583/583 582/582/582 581/581/581
f 584/584/584 583/583/583 581/581/581
f 587/587/587 586/586/586 585/585/585
f 588/588/588 587/587/587 585/585/585
f 591/591/591 590/590/590 589/589/589
f 589/589/589 592/592/592 591/591/591
f 589/589/589 593/593/593 592/592/592
f 596/596/596 595/595/595 594/594/594
f 597/597/597 596/596/596 594/594/594
f 600/600/600 599/599/599 598/598/598
f 601/601/601 600/600/600 598/598/598
f 604/604/604 603/603/603 602/602/602
f 605/605/605 604/604/604 602/602/602
f 608/608/608 607/607/607 606/606/606
f 609/609/609 608/608/608 606/606/606
f 612/612/612 611/611/611 610/610/610
f 613/613/613 612/612/612 610/610/610
f 616/616/616 615/615/615 614/614/614
f 617/617/617 616/616/616 614/614/614
f 620/620/620 619/619/619 618/618/618
f 621/621/621 620/620/620 618/618/618
f 624/624/624 623/623/623 622/622/622
f 625/625/625 623/623/623 624/624/624
f 626/626/626 625/625/625 624/624/624
f 629/629/629 628/628/628 627/627/627
f 630/630/630 629/629/629 627/627/627
f 633/633/633 632/632/632 631/631/631
f 634/634/634 633/633/633 631/631/631
f 637/637/637 636/636/636 635/635/635
f 638/638/638 637/637/637 635/635/635
f 641/641/641 640/640/640 639/639/639
f 642/642/642 641/641/641 639/639/639
f 645/645/645 644/644/644 643/643/643
f 646/646/646 645/645/645 643/643/643
f 649/649/649 648/648/648 647/647/647
f 650/650/650 649/649/649 647/647/647
f 653/653/653 652/652/652 651/651/651
f 654/654/654 653/653/653 651/651/651
f 657/657/657 656/656/656 655/655/655
f 655/655/655 658/658/658 657/657/657
f 655/655/655 659/659/659 658/658/658
f 662/662/662 661/661/661 660/660/660
f 663/663/663 662/662/662 660/660/660
