g U12_LP
v -39.9750061 17.4965439 9.47500038
v -39.7982292 17.4965439 9.40177727
v -39.7982292 -0.00239460776 9.40177727
v -40.2250061 17.4965439 9.22500038
v -40.151783 -0.00239460776 9.40177727
v -40.2250061 -0.00239460776 9.22500038
v -40.2250061 17.4965439 9.22500038
v -40.151783 17.4965439 9.40177727
v -39.9750061 -0.00239460776 9.47500038
v -40.151783 -0.00239460776 9.40177727
v -40.151783 17.4965439 9.40177727
v -39.9750061 17.4965439 9.47500038
v -39.7982292 -0.00239460776 9.40177727
v -39.9750061 -0.00239460776 9.47500038
v -34.0017815 17.4965439 9.40177727
v -34.0017815 -0.00239460776 9.40177727
v -39.7982292 17.4965439 9.40177727
v -40.151783 17.4965439 -2.89822292
v -40.151783 17.4965439 2.8982234
v -40.151783 -0.00239460776 2.8982234
v -40.151783 -0.00239460776 -2.89822292
v -40.151783 -0.00239460776 -9.0482235
v -40.2250061 -0.00239460776 -9.22500038
v -40.2250061 17.4965439 -9.22500038
v -40.151783 17.4965439 -9.0482235
v -40.151783 17.4965439 -2.89822292
v -40.151783 -0.00239460776 -2.89822292
v -40.2250061 -0.00239460776 -3.07499981
v -40.2250061 17.4965439 -3.07499981
v -40.2250061 17.4965439 -3.07499981
v -40.2250061 -0.00239460776 -3.07499981
v -40.151783 -0.00239460776 -3.2517767
v -40.151783 17.4965439 -3.2517767
v -9.04821014 17.4965439 -9.40176105
v -9.22499847 17.4965439 -9.47500038
v -9.22499847 -0.00239460776 -9.47500038
v -9.04821014 -0.00239460776 -9.40176105
v -40.151783 -0.00239460776 -3.2517767
v -40.151783 -0.00239460776 -9.0482235
v -40.151783 17.4965439 -9.0482235
v -40.151783 17.4965439 -3.2517767
v -21.3482361 17.4965439 9.40177727
v -21.3482285 -0.00239460776 9.40177727
v -21.525013 -0.00239460776 9.47500038
v -21.525013 17.4965439 9.47500038
v -40.2250061 17.4965439 3.07500029
v -40.151783 17.4965439 3.25177717
v -40.1517792 -0.00239460776 3.25177717
v -40.2250061 -0.00239460776 3.07500029
v 40.1517792 -0.00239460776 -9.40177727
v 40.1517792 17.4965439 -9.40177727
v 39.9750061 17.4965439 -9.47500038
v 39.9750061 -0.00239460776 -9.47500038
v -40.1517792 -0.00239460776 3.25177717
v -40.1517792 1.40045643 6.14722776
v -40.1517792 -0.00239460776 6.14722776
v -40.151783 17.4965439 3.25177717
v -40.1517792 1.40045643 7.54743481
v -40.151783 17.4965439 9.0482235
v -40.151783 -0.00239460776 9.0482235
v -40.1517792 -0.00239460776 7.54743481
v -40.2250061 -0.00239460776 9.22500038
v -40.151783 -0.00239460776 9.0482235
v -40.151783 17.4965439 9.0482235
v -40.2250061 17.4965439 9.22500038
v 39.9750061 -0.00239460776 -9.47500038
v 39.9750061 17.4965439 -9.47500038
v 39.798233 17.4965439 -9.40177727
v 39.798233 -0.00239460776 -9.40177727
v 34.0017929 17.4965439 -9.40177536
v 33.8250046 17.4965439 -9.47500038
v 33.8250046 -0.00239460776 -9.47500038
v 34.0017929 -0.00239460776 -9.40177536
v 40.1517792 -0.00239460776 -9.40177727
v 40.2250061 -0.00239460776 -9.22500038
v 40.2250061 17.4965439 -9.22500038
v 40.1517792 17.4965439 -9.40177727
v 27.8517933 17.4965439 -9.40177345
v 27.6750031 17.4965439 -9.47500038
v 27.6750031 -0.00239460776 -9.47500038
v 27.8517914 -0.00239460776 -9.40177727
v 27.6750031 17.4965439 -9.47500038
v 27.4982338 17.4965439 -9.40177345
v 27.4982338 -0.00239460776 -9.40177345
v 27.6750031 -0.00239460776 -9.47500038
v 3.07500458 -0.00239460776 -9.47500038
v 3.07500458 17.4965439 -9.47500038
v 2.89823151 17.4965439 -9.40176487
v 2.89823151 -0.00239460776 -9.40176487
v -40.2250061 17.4965439 3.07500029
v -40.2250061 -0.00239460776 3.07500029
v -40.151783 -0.00239460776 2.8982234
v -40.151783 17.4965439 2.8982234
v 15.3750076 -0.00239460776 -9.47500038
v 15.3750076 17.4965439 -9.47500038
v 15.1982327 17.4965439 -9.40176964
v 15.1982327 -0.00239460776 -9.40176964
v 15.5517921 17.4965439 -9.40176964
v 15.3750076 17.4965439 -9.47500038
v 15.3750076 -0.00239460776 -9.47500038
v 15.5517921 -0.00239460776 -9.40176964
v 9.2250061 -0.00239460776 -9.47500038
v 9.2250061 17.4965439 -9.47500038
v 9.04823303 17.4965439 -9.40176678
v 9.04823303 -0.00239460776 -9.40176678
v 9.40179253 17.4965439 -9.40176773
v 9.2250061 17.4965439 -9.47500038
v 9.2250061 -0.00239460776 -9.47500038
v 9.40179253 -0.00239460776 -9.40176773
v 3.25179291 17.4965439 -9.40176582
v 3.07500458 17.4965439 -9.47500038
v 3.07500458 -0.00239460776 -9.47500038
v 3.25179291 -0.00239460776 -9.40176582
v -21.3482132 17.4965439 -9.40175724
v -21.5250015 17.4965439 -9.47500038
v -21.5250015 -0.00239460776 -9.47500038
v -21.3482132 -0.00239460776 -9.40175724
v -3.07499695 -0.00239460776 -9.47500038
v -3.07499695 17.4965439 -9.47500038
v -3.25177002 17.4965439 -9.40176296
v -3.25177002 -0.00239460776 -9.40176296
v -2.89820862 17.4965439 -9.40176296
v -3.07499695 17.4965439 -9.47500038
v -3.07499695 -0.00239460776 -9.47500038
v -2.89820862 -0.00239460776 -9.40176296
v -9.22499847 -0.00239460776 -9.47500038
v -9.22499847 17.4965439 -9.47500038
v -9.40177155 17.4965439 -9.40176105
v -9.40177155 -0.00239460776 -9.40176105
v -15.375 17.4965439 -9.47500038
v -15.5517731 17.4965439 -9.40175915
v -15.5517731 -0.00239460776 -9.40175915
v -15.375 -0.00239460776 -9.47500038
v -15.1982117 17.4965439 -9.40175915
v -15.375 17.4965439 -9.47500038
v -15.375 -0.00239460776 -9.47500038
v -15.1982117 -0.00239460776 -9.40175915
v -21.5250015 17.4965439 -9.47500038
v -21.7017746 17.4965439 -9.40177727
v -21.7017746 -0.00239460776 -9.40175724
v -21.5250015 -0.00239460776 -9.47500038
v -27.6749992 17.4965439 -9.47500038
v -27.8517723 17.4965439 -9.40175533
v -27.8517723 -0.00239460776 -9.40177727
v -27.6749992 -0.00239460776 -9.47500038
v -33.8250084 17.4965439 -9.47500038
v -34.0017815 17.4965439 -9.40175343
v -34.0017815 -0.00239460776 -9.40175343
v -33.8250084 -0.00239460776 -9.47500038
v -27.4982109 17.4965439 -9.40175533
v -27.6749992 17.4965439 -9.47500038
v -27.6749992 -0.00239460776 -9.47500038
v -27.4982109 -0.00239460776 -9.40177727
v -33.6482201 17.4965439 -9.40175343
v -33.8250084 17.4965439 -9.47500038
v -33.8250084 -0.00239460776 -9.47500038
v -33.6482201 -0.00239460776 -9.40175343
v 33.6482315 -0.00239460776 -9.40177536
v 33.6482315 17.4965439 -9.40177536
v 27.8517933 17.4965439 -9.40177345
v 27.8517914 -0.00239460776 -9.40177727
v 21.5250053 -0.00239460776 -9.47500038
v 21.5250053 17.4965439 -9.47500038
v 21.3482323 17.4965439 -9.40177727
v 21.3482323 -0.00239460776 -9.40177155
v 21.7017937 17.4965439 -9.40177155
v 21.5250053 17.4965439 -9.47500038
v 21.5250053 -0.00239460776 -9.47500038
v 21.7017937 -0.00239460776 -9.40177155
v 39.798233 -0.00239460776 -9.40177727
v 39.798233 17.4965439 -9.40177727
v 34.0017929 17.4965439 -9.40177536
v 34.0017929 -0.00239460776 -9.40177536
v 15.1982327 17.4965439 -9.40176964
v 9.40179253 17.4965439 -9.40176773
v 9.40179253 -0.00239460776 -9.40176773
v 15.1982327 -0.00239460776 -9.40176964
v 21.7017937 -0.00239460776 -9.40177155
v 27.4982338 -0.00239460776 -9.40177345
v 27.4982338 17.4965439 -9.40177345
v 21.7017937 17.4965439 -9.40177155
v 15.5517921 17.4965439 -9.40176964
v 15.5517921 -0.00239460776 -9.40176964
v 21.3482323 -0.00239460776 -9.40177155
v 21.3482323 17.4965439 -9.40177727
v 3.25179291 17.4965439 -9.40176582
v 3.25179291 -0.00239460776 -9.40176582
v 9.04823303 -0.00239460776 -9.40176678
v 9.04823303 17.4965439 -9.40176678
v 2.89823151 17.4965439 -9.40176487
v -2.89820862 17.4965439 -9.40176296
v -2.89820862 -0.00239460776 -9.40176296
v 2.89823151 -0.00239460776 -9.40176487
v -3.25177002 17.4965439 -9.40176296
v -9.04821014 17.4965439 -9.40176105
v -9.04821014 -0.00239460776 -9.40176105
v -3.25177002 -0.00239460776 -9.40176296
v -15.1982117 17.4965439 -9.40175915
v -15.1982117 -0.00239460776 -9.40175915
v -9.40177155 -0.00239460776 -9.40176105
v -9.40177155 17.4965439 -9.40176105
v -21.7017746 17.4965439 -9.40177727
v -27.4982109 17.4965439 -9.40175533
v -27.4982109 -0.00239460776 -9.40177727
v -21.7017746 -0.00239460776 -9.40175724
v -21.3482132 17.4965439 -9.40175724
v -21.3482132 -0.00239460776 -9.40175724
v -15.5517731 -0.00239460776 -9.40175915
v -15.5517731 17.4965439 -9.40175915
v -33.6482201 17.4965439 -9.40175343
v -33.6482201 -0.00239460776 -9.40175343
v -27.8517723 -0.00239460776 -9.40177727
v -27.8517723 17.4965439 -9.40175533
v -39.9750061 17.4965439 -9.47500038
v -40.151783 17.4965439 -9.40177727
v -40.151783 -0.00239460776 -9.40177727
v -39.9750061 -0.00239460776 -9.47500038
v -39.798214 17.4965439 -9.40175152
v -39.9750061 17.4965439 -9.47500038
v -39.9750061 -0.00239460776 -9.47500038
v -39.798214 -0.00239460776 -9.40175152
v -39.798214 -0.00239460776 -9.40175152
v -34.0017815 -0.00239460776 -9.40175343
v -34.0017815 17.4965439 -9.40175343
v -39.798214 17.4965439 -9.40175152
v 33.8250046 -0.00239460776 -9.47500038
v 33.8250046 17.4965439 -9.47500038
v 33.6482315 17.4965439 -9.40177536
v 33.6482315 -0.00239460776 -9.40177536
v 40.1517792 17.4965439 9.0482235
v 40.1517792 -0.00239460776 9.0482235
v 40.2250061 -0.00239460776 9.22500038
v 40.2250061 17.4965439 9.22500038
v 40.2250061 17.4965439 9.22500038
v 40.2250061 -0.00239460776 9.22500038
v 40.1517792 -0.00239460776 9.40177727
v 40.1517792 17.4965439 9.40177727
v 40.1517792 17.4965439 2.89822292
v 40.1517792 -0.00239460776 2.8982234
v 40.2250061 -0.00239460776 3.07500029
v 40.2250061 17.4965439 3.07500029
v 40.2250061 17.4965439 3.07500029
v 40.2250061 -0.00239460776 3.07500029
v 40.1517792 -0.00239460776 3.25177717
v 40.1517792 17.4965439 3.25177717
v 40.1517792 17.4965439 -3.25177765
v 40.1517792 -0.00239460776 -3.2517767
v 40.2250061 -0.00239460776 -3.07499981
v 40.2250061 17.4965439 -3.07499981
v 40.2250061 17.4965439 -3.07499981
v 40.2250061 -0.00239460776 -3.07499981
v 40.1517792 -0.00239460776 -2.89822388
v 40.1517792 17.4965439 -2.89822388
v 40.1517792 -0.00239460776 -9.0482235
v 40.1517792 -0.00239460776 -3.2517767
v 40.1517792 17.4965439 -3.25177765
v 40.1517792 17.4965439 -9.0482235
v 40.1517792 -0.00239460776 3.25177717
v 40.1517792 -0.00239460776 9.0482235
v 40.1517792 17.4965439 9.0482235
v 40.1517792 17.4965439 3.25177717
v -15.3750114 17.4965439 9.47500038
v -15.1982346 17.4965439 9.40177727
v -15.1982346 -0.00239460776 9.40177727
v -15.3750114 -0.00239460776 9.47500038
v -9.22501183 -0.00239460776 9.47500038
v -9.22501183 17.4965439 9.47500038
v -9.04822922 17.4965439 9.40177727
v -9.04822922 -0.00239460776 9.40177727
v -27.49823 17.4965439 9.40177727
v -21.7017899 17.4965439 9.40177727
v -21.7017899 -0.00239460776 9.40177727
v -27.4982357 -0.00239460776 9.40177727
v -3.07501602 17.4965439 9.47500038
v -3.07501602 -0.00239460776 9.47500038
v -3.25178909 -0.00239460776 9.40177727
v -3.25178909 17.4965439 9.40177727
v 3.07499695 17.4965439 9.47500038
v 3.07499695 -0.00239460776 9.47500038
v 2.89821625 -0.00239460776 9.40177727
v 2.89821625 17.4965439 9.40177727
v -27.6750126 17.4965439 9.47500038
v -27.6750126 -0.00239460776 9.47500038
v -27.8517895 -0.00239460776 9.40177727
v -27.8517895 17.4965439 9.40177727
v -27.49823 17.4965439 9.40177727
v -27.4982357 -0.00239460776 9.40177727
v -27.6750126 -0.00239460776 9.47500038
v -27.6750126 17.4965439 9.47500038
v -15.3750114 17.4965439 9.47500038
v -15.3750114 -0.00239460776 9.47500038
v -15.5517883 -0.00239460776 9.40177727
v -15.5517883 17.4965439 9.40177727
v -33.6482277 17.4965439 9.40177727
v -27.8517895 17.4965439 9.40177727
v -27.8517895 -0.00239460776 9.40177727
v -33.6482277 -0.00239460776 9.40177727
v -9.40178871 17.4965439 9.40177727
v -9.40178871 -0.00239460776 9.40177727
v -15.1982346 -0.00239460776 9.40177727
v -15.1982346 17.4965439 9.40177727
v 40.1517792 -0.00239460776 2.8982234
v 40.1517792 17.4965439 2.89822292
v 40.1517792 17.4965439 -2.89822388
v 40.1517792 -0.00239460776 -2.89822388
v 40.1517792 17.4965439 9.40177727
v 40.1517792 -0.00239460776 9.40177727
v 39.9750061 -0.00239460776 9.47500038
v 39.9750061 17.4965439 9.47500038
v 39.798233 17.4965439 9.40177727
v 39.9750061 17.4965439 9.47500038
v 39.9750061 -0.00239460776 9.47500038
v 39.798233 -0.00239460776 9.40177727
v 34.00177 -0.00239460776 9.40177727
v 34.00177 17.4965439 9.40177727
v 39.798233 17.4965439 9.40177727
v 39.798233 -0.00239460776 9.40177727
v 3.25177002 17.4965439 9.40177727
v 9.04821014 17.4965439 9.40177727
v 9.04821014 -0.00239460776 9.40177727
v 6.37498856 -0.00239460776 9.40177727
v 5.92499161 -0.00239460776 9.40177727
v 3.25177002 -0.00239460776 9.40177727
v -2.89822769 17.4965439 9.40177727
v -2.89822769 -0.00239460776 9.40177727
v -3.07501602 -0.00239460776 9.47500038
v -3.07501602 17.4965439 9.47500038
v 3.07499695 17.4965439 9.47500038
v 3.25177002 17.4965439 9.40177727
v 3.25177002 -0.00239460776 9.40177727
v 3.07499695 -0.00239460776 9.47500038
v 2.89821625 17.4965439 9.40177727
v 2.89821625 -0.00239460776 9.40177727
v -2.89822769 -0.00239460776 9.40177727
v -2.89822769 17.4965439 9.40177727
v 9.22498322 17.4965439 9.47500038
v 9.22498322 -0.00239460776 9.47500038
v 9.04821014 -0.00239460776 9.40177727
v 9.04821014 17.4965439 9.40177727
v 21.3482094 17.4965439 9.40177727
v 21.5249825 17.4965439 9.47500038
v 21.5249825 -0.00239460776 9.47500038
v 21.3482094 -0.00239460776 9.40177727
v 15.3749847 -0.00239460776 9.47500038
v 15.3749847 17.4965439 9.47500038
v 15.5517654 17.4965439 9.40177727
v 15.5517654 -0.00239460776 9.40177727
v 21.5249825 -0.00239460776 9.47500038
v 21.5249825 17.4965439 9.47500038
v 21.7017632 17.4965439 9.40177727
v 21.7017708 -0.00239460776 9.40177727
v 9.40176392 17.4965439 9.40177727
v 15.1982117 17.4965439 9.40177727
v 15.1982117 -0.00239460776 9.40177727
v 9.40177155 -0.00239460776 9.40177727
v 27.8517685 17.4965439 9.40177727
v 27.8517685 -0.00239460776 9.40177727
v 27.6749878 -0.00239460776 9.47500038
v 27.6749878 17.4965439 9.47500038
v 34.00177 17.4965439 9.40177727
v 34.00177 -0.00239460776 9.40177727
v 33.8249893 -0.00239460776 9.47500038
v 33.8249893 17.4965439 9.47500038
v 33.8249893 17.4965439 9.47500038
v 33.8249893 -0.00239460776 9.47500038
v 33.6482086 -0.00239460776 9.40177727
v 33.6482162 17.4965439 9.40177727
v -34.0017815 17.4965439 9.40177727
v -33.8250046 17.4965439 9.47500038
v -33.8250046 -0.00239460776 9.47500038
v -34.0017815 -0.00239460776 9.40177727
v -40.151783 -0.00239460776 -9.40177727
v -40.151783 17.4965439 -9.40177727
v -40.2250061 17.4965439 -9.22500038
v -40.2250061 -0.00239460776 -9.22500038
v 21.3482094 17.4965439 9.40177727
v 21.3482094 -0.00239460776 9.40177727
v 15.5517654 -0.00239460776 9.40177727
v 15.5517654 17.4965439 9.40177727
v 15.1982117 17.4965439 9.40177727
v 15.3749847 17.4965439 9.47500038
v 15.3749847 -0.00239460776 9.47500038
v 15.1982117 -0.00239460776 9.40177727
v -21.3482361 17.4965439 9.40177727
v -15.5517883 17.4965439 9.40177727
v -15.5517883 -0.00239460776 9.40177727
v -21.3482285 -0.00239460776 9.40177727
v 27.4982147 17.4965439 9.40177727
v 27.6749878 17.4965439 9.47500038
v 27.6749878 -0.00239460776 9.47500038
v 27.4982147 -0.00239460776 9.40177727
v 27.4982147 -0.00239460776 9.40177727
v 21.7017708 -0.00239460776 9.40177727
v 21.7017632 17.4965439 9.40177727
v 27.4982147 17.4965439 9.40177727
v 9.40176392 17.4965439 9.40177727
v 9.40177155 -0.00239460776 9.40177727
v 9.22498322 -0.00239460776 9.47500038
v 9.22498322 17.4965439 9.47500038
v 27.8517685 -0.00239460776 9.40177727
v 27.8517685 17.4965439 9.40177727
v 33.6482162 17.4965439 9.40177727
v 33.6482086 -0.00239460776 9.40177727
v -3.25178909 17.4965439 9.40177727
v -3.25178909 -0.00239460776 9.40177727
v -9.04822922 -0.00239460776 9.40177727
v -9.04822922 17.4965439 9.40177727
v -40.1517792 1.40045643 7.54743481
v -40.1517792 -0.00239460776 7.54743481
v -40.4517822 -0.00239460776 7.54743481
v -40.4517822 1.40045643 7.54743481
v -40.1517792 -0.00239460776 6.14722776
v -40.1517792 1.40045643 6.14722776
v -40.4517822 1.40045643 6.14722776
v -40.4517822 -0.00239460776 6.14722776
v -40.1517792 1.40045643 6.14722776
v -40.1517792 1.40045643 7.54743481
v -40.4517822 1.40045643 7.54743481
v -40.4517822 1.40045643 6.14722776
v -40.4517822 -0.00239460776 6.14722776
v -40.4517822 1.40045643 6.14722776
v -40.4517822 1.40045643 7.54743481
v -40.4517822 -0.00239460776 7.54743481
v -21.525013 17.4965439 9.47500038
v -21.525013 -0.00239460776 9.47500038
v -21.7017899 -0.00239460776 9.40177727
v -21.7017899 17.4965439 9.40177727
v -33.8250046 17.4965439 9.47500038
v -33.6482277 17.4965439 9.40177727
v -33.6482277 -0.00239460776 9.40177727
v -33.8250046 -0.00239460776 9.47500038
v 40.2250061 -0.00239460776 -9.22500038
v 40.1517792 -0.00239460776 -9.0482235
v 40.1517792 17.4965439 -9.0482235
v 40.2250061 17.4965439 -9.22500038
v -9.22501183 -0.00239460776 9.47500038
v -9.40178871 -0.00239460776 9.40177727
v -9.40178871 17.4965439 9.40177727
v -9.22501183 17.4965439 9.47500038
v 40.0249939 17.6965446 -9.67500114
v 40.4250031 17.4965439 -9.67500114
v 40.4250031 17.6965446 -9.67500114
v 40.0249939 17.4965439 -9.67500114
v -40.3250046 17.6965446 -9.67500114
v -40.3250046 17.4965439 -9.67500114
v 40.0250015 17.6965446 -9.27500057
v -40.3250046 17.6965446 -9.67500114
v 40.0249939 17.6965446 -9.67500114
v -39.9990311 17.6965446 -9.27500057
v -39.9990311 17.6965446 9.27500057
v -40.3250046 17.6965446 9.67500019
v 40.4250031 17.6965446 9.67500019
v 40.0250015 17.6965446 9.27500057
v 40.0250015 17.6965446 -9.27500057
v 40.4250031 17.6965446 -9.27500153
v 40.0250015 17.6965446 -9.27500057
v 40.0249939 17.6965446 -9.67500114
v 40.4250031 17.6965446 -9.67500114
v -39.9990311 17.4965439 9.27500057
v -40.3250046 17.4965439 9.67500019
v 40.4250031 17.4965439 9.67500019
v 40.0250015 17.4965439 9.27500057
v -40.3250046 17.4965439 -9.67500114
v -39.9990311 17.4965439 -9.27500057
v 40.0250015 17.4965439 -9.27500057
v 40.0249939 17.4965439 -9.67500114
v 40.0250015 17.6965446 9.27500057
v 40.0250015 17.8965454 9.27500057
v 40.0250015 17.8965454 -9.27500057
v 40.0250015 17.6965446 -9.27500057
v 40.4250031 17.6965446 -9.67500114
v 40.4250031 17.4965439 -9.67500114
v 40.4250031 17.4965439 -9.27500153
v 40.4250031 17.6965446 -9.27500153
v 40.4250031 17.4965439 9.67500019
v 40.4250031 17.6965446 9.67500019
v -40.3250046 17.6965446 9.67500019
v -40.3250046 17.4965439 9.67500019
v -40.3250046 17.4965439 -9.67500114
v -40.3250046 17.6965446 -9.67500114
v 40.0249939 17.4965439 -9.67500114
v 40.0250015 17.4965439 -9.27500057
v 40.4250031 17.4965439 -9.27500153
v 40.4250031 17.4965439 -9.67500114
v -39.9990311 17.8965454 -9.27500057
v 40.0250015 17.8965454 -9.27500057
v 40.0250015 17.8965454 9.27500057
v -39.9990311 17.8965454 9.27500057
v -40.3250046 17.4965439 9.67500019
v -40.3250046 17.6965446 9.67500019
v 40.4250031 17.6965446 9.67500019
v 40.4250031 17.4965439 9.67500019
v -40.3250046 17.4965439 -9.67500114
v -40.3250046 17.4965439 9.67500019
v -39.9990311 17.4965439 9.27500057
v -39.9990311 17.4965439 -9.27500057
v 40.0250015 17.4965439 -9.27500057
v 40.0250015 17.4965439 9.27500057
v 40.4250031 17.4965439 9.67500019
v 40.4250031 17.4965439 -9.27500153
v 40.0250015 17.6965446 -9.27500057
v 40.0250015 17.8965454 -9.27500057
v -39.9990311 17.8965454 -9.27500057
v -39.9990311 17.6965446 -9.27500057
v -39.9990311 17.6965446 -9.27500057
v -39.9990311 17.8965454 -9.27500057
v -39.9990311 17.8965454 9.27500057
v -39.9990311 17.6965446 9.27500057
v -39.9990311 17.6965446 9.27500057
v -39.9990311 17.8965454 9.27500057
v 40.0250015 17.8965454 9.27500057
v 40.0250015 17.6965446 9.27500057
v 40.2982101 3.49547768 9.0482235
v 40.2982101 2.99505138 9.0482235
v 40.2982101 2.99505138 9.5482235
v 40.2982101 3.49547768 9.5482235
v 40.2982101 3.49547768 9.5482235
v 40.2982101 2.99505138 9.5482235
v 39.7982101 2.99505138 9.5482235
v 39.7982101 3.49547768 9.5482235
v 39.7982101 2.99505138 9.5482235
v 39.7982101 2.99505138 9.0482235
v 39.7982101 3.49547768 9.0482235
v 39.7982101 3.49547768 9.5482235
v 39.7982101 3.49547768 9.0482235
v 39.7982101 2.99505138 9.0482235
v 40.2982101 2.99505138 9.0482235
v 40.2982101 3.49547768 9.0482235
v 40.2982101 3.49547768 9.5482235
v 39.7982101 3.49547768 9.5482235
v 39.7982101 3.49547768 9.0482235
v 40.2982101 3.49547768 9.0482235
v 40.2982101 2.99505138 9.5482235
v 40.2982101 2.99505138 9.0482235
v 39.7982101 2.99505138 9.0482235
v 39.7982101 2.99505138 9.5482235
vt 0.00777286291 0.83578831
vt 0.00923937559 0.83578831
vt 0.00923937559 0.690638244
vt 0.830568731 0.83497113
vt 0.832027256 0.690622985
vt 0.83056879 0.690622926
vt 0.830568731 0.83497113
vt 0.832027197 0.83497113
vt 0.833156884 0.690626502
vt 0.832027256 0.690622985
vt 0.00630571414 0.83578825
vt 0.00777286291 0.83578831
vt 0.00923937559 0.690638244
vt 0.00777286291 0.690638185
vt 0.0573263466 0.83578831
vt 0.0573262721 0.690598428
vt 0.00923937559 0.83578831
vt 0.730551124 0.834971189
vt 0.778372228 0.83497113
vt 0.778372288 0.690622985
vt 0.730551124 0.690622985
vt 0.679812908 0.690623045
vt 0.678354442 0.690622985
vt 0.678354383 0.83497113
vt 0.679812908 0.834971249
vt 0.730551124 0.834971189
vt 0.730551124 0.690622985
vt 0.729092717 0.690622985
vt 0.729092717 0.834971189
vt 0.729092717 0.834971189
vt 0.729092717 0.690622985
vt 0.727634251 0.690622985
vt 0.727634192 0.834971189
vt 0.414215624 0.987905502
vt 0.415679574 0.987905443
vt 0.415679574 0.843016148
vt 0.414215565 0.843016028
vt 0.727634251 0.690622985
vt 0.679812908 0.690623045
vt 0.679812908 0.834971249
vt 0.727634192 0.834971189
vt 0.162299365 0.83578831
vt 0.162299365 0.690638185
vt 0.160832748 0.690638125
vt 0.160832763 0.83578831
vt 0.779830813 0.834971189
vt 0.78128922 0.83497113
vt 0.781289279 0.690622985
vt 0.779830813 0.690622985
vt 0.00678950548 0.843016207
vt 0.00678950548 0.987905324
vt 0.00825342629 0.987905502
vt 0.00825342536 0.843016148
vt 0.781289279 0.690622985
vt 0.805176854 0.702176869
vt 0.805176854 0.690622985
vt 0.78128922 0.83497113
vt 0.816728771 0.702176869
vt 0.829110444 0.834971249
vt 0.829110384 0.690583408
vt 0.816728771 0.690622985
vt 0.83056879 0.690622926
vt 0.829110384 0.690583408
vt 0.829110384 0.834971189
vt 0.830568731 0.83497113
vt 0.00825342536 0.843016148
vt 0.00825342629 0.987905502
vt 0.00971728563 0.987905383
vt 0.0097172875 0.84297657
vt 0.0577176213 0.987905383
vt 0.0591816604 0.987905502
vt 0.0591816567 0.843016088
vt 0.0577176847 0.843016088
vt 0.829862237 0.83990705
vt 0.828432679 0.839907169
vt 0.828432739 0.981396675
vt 0.829862237 0.981396616
vt 0.108645976 0.987905443
vt 0.110109985 0.987905443
vt 0.110109985 0.843016148
vt 0.108645976 0.843016028
vt 0.110109985 0.987905443
vt 0.111573696 0.987905383
vt 0.111573704 0.843016148
vt 0.110109985 0.843016148
vt 0.313822985 0.843016148
vt 0.313822985 0.987905443
vt 0.315286845 0.987905383
vt 0.315286875 0.843016088
vt 0.779830813 0.834971189
vt 0.779830813 0.690622985
vt 0.778372347 0.690622985
vt 0.778372228 0.83497113
vt 0.21196641 0.843016088
vt 0.211966425 0.987905502
vt 0.213430285 0.987905502
vt 0.213430285 0.842976451
vt 0.210502505 0.987905502
vt 0.211966425 0.987905502
vt 0.21196641 0.843016088
vt 0.210502446 0.842976332
vt 0.26289475 0.843016148
vt 0.26289475 0.987905383
vt 0.264358521 0.987905443
vt 0.264358521 0.843016148
vt 0.26143074 0.987905502
vt 0.26289475 0.987905383
vt 0.26289475 0.843016148
vt 0.261430681 0.842976391
vt 0.312358975 0.987905502
vt 0.313822985 0.987905443
vt 0.313822985 0.843016148
vt 0.312358975 0.843016088
vt 0.516072154 0.987905502
vt 0.517536104 0.987905443
vt 0.517536044 0.843016028
vt 0.516072154 0.843016028
vt 0.36475122 0.843016148
vt 0.36475122 0.987905383
vt 0.36621511 0.987905383
vt 0.366215169 0.843016148
vt 0.36328727 0.987905502
vt 0.36475122 0.987905383
vt 0.36475122 0.843016148
vt 0.36328727 0.843016088
vt 0.415679574 0.843016148
vt 0.415679574 0.987905443
vt 0.417143345 0.987905383
vt 0.417143345 0.843016148
vt 0.466607869 0.987905383
vt 0.468071729 0.987905502
vt 0.468071699 0.843016088
vt 0.466607839 0.843016148
vt 0.465143919 0.987905383
vt 0.466607869 0.987905383
vt 0.466607839 0.843016148
vt 0.465143979 0.843016088
vt 0.517536104 0.987905443
vt 0.519000053 0.987905443
vt 0.519000053 0.843016028
vt 0.517536044 0.843016028
vt 0.568464458 0.987905502
vt 0.569928288 0.987905443
vt 0.569928288 0.843016088
vt 0.568464398 0.843016148
vt 0.619392693 0.987905443
vt 0.620856464 0.987905443
vt 0.620856524 0.843016148
vt 0.619392693 0.843016148
vt 0.567000329 0.987905502
vt 0.568464458 0.987905502
vt 0.568464398 0.843016148
vt 0.56700027 0.843016028
vt 0.617928624 0.987905502
vt 0.619392693 0.987905443
vt 0.619392693 0.843016148
vt 0.617928624 0.843016088
vt 0.0606456101 0.843016088
vt 0.0606455505 0.987905443
vt 0.108645976 0.987905443
vt 0.108645976 0.843016028
vt 0.16103819 0.843016148
vt 0.16103819 0.987905502
vt 0.162502006 0.987905383
vt 0.162502021 0.843016148
vt 0.159574211 0.987905502
vt 0.16103819 0.987905502
vt 0.16103819 0.843016148
vt 0.159574211 0.843016028
vt 0.0097172875 0.84297657
vt 0.00971728563 0.987905383
vt 0.0577176213 0.987905383
vt 0.0577176847 0.843016088
vt 0.213430285 0.987905502
vt 0.26143074 0.987905502
vt 0.261430681 0.842976391
vt 0.213430285 0.842976451
vt 0.159574211 0.843016028
vt 0.111573704 0.843016148
vt 0.111573696 0.987905383
vt 0.159574211 0.987905502
vt 0.210502505 0.987905502
vt 0.210502446 0.842976332
vt 0.162502021 0.843016148
vt 0.162502006 0.987905383
vt 0.312358975 0.987905502
vt 0.312358975 0.843016088
vt 0.264358521 0.843016148
vt 0.264358521 0.987905443
vt 0.315286845 0.987905383
vt 0.36328727 0.987905502
vt 0.36328727 0.843016088
vt 0.315286875 0.843016088
vt 0.36621511 0.987905383
vt 0.414215624 0.987905502
vt 0.414215565 0.843016028
vt 0.36621514 0.842976391
vt 0.465143919 0.987905383
vt 0.465143979 0.843016088
vt 0.417143345 0.842976391
vt 0.417143345 0.987905383
vt 0.519000053 0.987905443
vt 0.567000329 0.987905502
vt 0.56700027 0.843016028
vt 0.519000053 0.842976391
vt 0.516072154 0.987905502
vt 0.516072154 0.843016028
vt 0.468071699 0.842976391
vt 0.468071729 0.987905502
vt 0.617928624 0.987905502
vt 0.617928624 0.843016088
vt 0.569928288 0.842976391
vt 0.569928288 0.987905443
vt 0.670320988 0.987905443
vt 0.671784878 0.987905324
vt 0.671784878 0.843016148
vt 0.670320988 0.843016148
vt 0.668856859 0.987905443
vt 0.670320988 0.987905443
vt 0.670320988 0.843016148
vt 0.668857098 0.843016148
vt 0.668857098 0.843016148
vt 0.620856464 0.842976391
vt 0.620856464 0.987905443
vt 0.668856859 0.987905443
vt 0.0591816567 0.843016088
vt 0.0591816604 0.987905502
vt 0.0606455505 0.987905443
vt 0.0606456101 0.843016088
vt 0.680662394 0.981396556
vt 0.680662394 0.839907169
vt 0.679232717 0.83990705
vt 0.679232776 0.981396616
vt 0.679232776 0.981396616
vt 0.679232717 0.83990705
vt 0.677803397 0.839905858
vt 0.677803218 0.981396616
vt 0.730395675 0.981396556
vt 0.730395794 0.839906693
vt 0.728966236 0.839907169
vt 0.728966236 0.981396556
vt 0.728966236 0.981396556
vt 0.728966236 0.839907169
vt 0.72753644 0.839907229
vt 0.72753644 0.981396675
vt 0.780128956 0.981396616
vt 0.780128896 0.83990711
vt 0.778699636 0.839907289
vt 0.778699517 0.981396556
vt 0.778699517 0.981396556
vt 0.778699636 0.839907289
vt 0.7772699 0.839907169
vt 0.7772699 0.981396675
vt 0.827003181 0.839907229
vt 0.780128896 0.83990711
vt 0.780128956 0.981396616
vt 0.827003121 0.981396556
vt 0.72753644 0.839907229
vt 0.680662394 0.839907169
vt 0.680662394 0.981396556
vt 0.72753644 0.981396675
vt 0.211852834 0.83578831
vt 0.213319287 0.83578831
vt 0.213319317 0.690638185
vt 0.211852819 0.690638185
vt 0.262872815 0.690638185
vt 0.262872785 0.83578825
vt 0.264339358 0.835788369
vt 0.264339328 0.690638065
vt 0.111279368 0.83578831
vt 0.15936631 0.83578831
vt 0.15936631 0.690598547
vt 0.111279346 0.690638185
vt 0.313892752 0.83578831
vt 0.313892752 0.690638244
vt 0.312426269 0.690598488
vt 0.312426269 0.83578831
vt 0.364912808 0.83578831
vt 0.364912808 0.690638185
vt 0.363446295 0.690638185
vt 0.363446295 0.83578831
vt 0.109812766 0.83578831
vt 0.109812766 0.690638185
vt 0.108346261 0.690598547
vt 0.108346254 0.83578831
vt 0.111279368 0.83578831
vt 0.111279346 0.690638185
vt 0.109812766 0.690638185
vt 0.109812766 0.83578831
vt 0.211852834 0.83578831
vt 0.211852819 0.690638185
vt 0.210386246 0.690598547
vt 0.210386246 0.83578831
vt 0.060259372 0.83578831
vt 0.108346254 0.83578831
vt 0.108346261 0.690598547
vt 0.0602593757 0.690598547
vt 0.261406302 0.83578831
vt 0.261406302 0.690598547
vt 0.213319317 0.690638185
vt 0.213319287 0.83578831
vt 0.730395794 0.839906693
vt 0.730395675 0.981396556
vt 0.7772699 0.981396616
vt 0.7772699 0.839907169
vt 0.672499418 0.835788369
vt 0.672499299 0.690637827
vt 0.671032786 0.690638185
vt 0.671032786 0.835788369
vt 0.669566393 0.83578831
vt 0.671032786 0.835788369
vt 0.671032786 0.690638185
vt 0.669566154 0.690598488
vt 0.621479273 0.690598488
vt 0.621479273 0.83578831
vt 0.669566393 0.83578831
vt 0.669566154 0.690598488
vt 0.366379291 0.83578831
vt 0.414466262 0.83578831
vt 0.414466262 0.690598488
vt 0.39228937 0.690598488
vt 0.388556242 0.690598488
vt 0.366379291 0.690598488
vt 0.315359354 0.83578831
vt 0.315359354 0.690638185
vt 0.313892752 0.690638244
vt 0.313892752 0.83578831
vt 0.364912808 0.83578831
vt 0.366379291 0.83578831
vt 0.366379291 0.690598488
vt 0.364912808 0.690638185
vt 0.363446295 0.83578831
vt 0.363446295 0.690638185
vt 0.315359354 0.690638185
vt 0.315359354 0.83578831
vt 0.415932745 0.83578831
vt 0.415932745 0.690638125
vt 0.414466262 0.690598488
vt 0.414466321 0.83578831
vt 0.516506195 0.83578831
vt 0.517972708 0.83578831
vt 0.517972708 0.690638185
vt 0.516506195 0.690598488
vt 0.466952801 0.690638185
vt 0.466952801 0.83578831
vt 0.468419403 0.83578831
vt 0.468419433 0.690598488
vt 0.517972708 0.690638185
vt 0.517972708 0.83578831
vt 0.51943934 0.83578831
vt 0.51943934 0.690598428
vt 0.417399228 0.83578825
vt 0.465486228 0.83578831
vt 0.465486228 0.690598488
vt 0.417399347 0.690598488
vt 0.570459247 0.83578831
vt 0.570459247 0.690598488
vt 0.568992734 0.690638185
vt 0.568992734 0.83578831
vt 0.621479273 0.83578831
vt 0.621479273 0.690598369
vt 0.62001276 0.690638185
vt 0.62001276 0.835788369
vt 0.62001276 0.835788369
vt 0.62001276 0.690638185
vt 0.618546247 0.690598488
vt 0.618546367 0.835788369
vt 0.0573263466 0.83578831
vt 0.0587928593 0.83578831
vt 0.0587928593 0.690638185
vt 0.0573262721 0.690598428
vt 0.676896095 0.690622926
vt 0.676896095 0.834971249
vt 0.678354383 0.83497113
vt 0.678354442 0.690622985
vt 0.516506195 0.83578831
vt 0.516506195 0.690598488
vt 0.468419433 0.690598488
vt 0.468419403 0.83578831
vt 0.465486228 0.83578831
vt 0.466952801 0.83578831
vt 0.466952801 0.690638185
vt 0.465486228 0.690598488
vt 0.162299365 0.83578831
vt 0.210386246 0.83578831
vt 0.210386246 0.690598547
vt 0.162299424 0.690598488
vt 0.567526281 0.83578831
vt 0.568992734 0.83578831
vt 0.568992734 0.690638185
vt 0.56752634 0.690598547
vt 0.56752634 0.690598547
vt 0.51943934 0.690598428
vt 0.51943934 0.83578831
vt 0.567526281 0.83578831
vt 0.417399228 0.83578825
vt 0.417399347 0.690598488
vt 0.415932745 0.690638125
vt 0.415932745 0.83578831
vt 0.570459247 0.690598488
vt 0.570459247 0.83578831
vt 0.618546367 0.83578831
vt 0.618546247 0.690598488
vt 0.312426269 0.83578831
vt 0.312426269 0.690598488
vt 0.264339387 0.690598488
vt 0.264339358 0.835788369
vt 0.696168244 0.648979187
vt 0.675058663 0.648979187
vt 0.675058663 0.653501272
vt 0.696168363 0.653501272
vt 0.675058663 0.679129362
vt 0.696168244 0.679129124
vt 0.696168244 0.674607158
vt 0.675058663 0.674607158
vt 0.700690329 0.674607158
vt 0.700690329 0.653501272
vt 0.696168363 0.653501272
vt 0.696168244 0.674607158
vt 0.675058663 0.674607158
vt 0.696168244 0.674607158
vt 0.696168363 0.653501272
vt 0.675058663 0.653501272
vt 0.160832763 0.83578831
vt 0.160832748 0.690638125
vt 0.15936631 0.690598547
vt 0.15936631 0.83578831
vt 0.0587928593 0.83578831
vt 0.060259372 0.83578831
vt 0.0602593757 0.690598547
vt 0.0587928593 0.690638185
vt 0.828432679 0.839907169
vt 0.827003181 0.839907229
vt 0.827003121 0.981396556
vt 0.828432739 0.981396675
vt 0.262872815 0.690638185
vt 0.261406302 0.690598547
vt 0.261406302 0.83578831
vt 0.262872785 0.83578825
vt 0.984450161 0.397062808
vt 0.984252751 0.39624083
vt 0.984141767 0.396362811
vt 0.984659314 0.396271795
vt 0.985707998 0.985896051
vt 0.986336708 0.986612201
vt 0.982874572 0.397774398
vt 0.985707998 0.985896051
vt 0.984450161 0.397062808
vt 0.982884884 0.983412325
vt 0.846538663 0.983170152
vt 0.843713582 0.985529006
vt 0.843716443 0.394995213
vt 0.846544206 0.39792949
vt 0.982874572 0.397774398
vt 0.983439505 0.396085441
vt 0.982874572 0.397774398
vt 0.984450161 0.397062808
vt 0.984141767 0.396362811
vt 0.843139827 0.986235857
vt 0.84308219 0.986238122
vt 0.84308207 0.394268811
vt 0.843145311 0.39426133
vt 0.986336708 0.986612201
vt 0.986267745 0.986608803
vt 0.985450923 0.394971341
vt 0.984659314 0.396271795
vt 0.846544206 0.39792949
vt 0.847160459 0.398650378
vt 0.982260406 0.398573488
vt 0.982874572 0.397774398
vt 0.984141767 0.396362811
vt 0.984252751 0.39624083
vt 0.984158874 0.395860136
vt 0.983439505 0.396085441
vt 0.84308207 0.394268811
vt 0.843716443 0.394995213
vt 0.843713582 0.985529006
vt 0.84308219 0.986238122
vt 0.986336708 0.986612201
vt 0.985707998 0.985896051
vt 0.984659314 0.396271795
vt 0.985450923 0.394971341
vt 0.984158874 0.395860136
vt 0.984252751 0.39624083
vt 0.982266009 0.982592106
vt 0.982260406 0.398573488
vt 0.847160459 0.398650378
vt 0.847158253 0.982470453
vt 0.84308219 0.986238122
vt 0.843713582 0.985529006
vt 0.843716443 0.394995213
vt 0.84308207 0.394268811
vt 0.986336708 0.986612201
vt 0.84308219 0.986238122
vt 0.843139827 0.986235857
vt 0.986267745 0.986608803
vt 0.985450923 0.394971341
vt 0.843145311 0.39426133
vt 0.84308207 0.394268811
vt 0.984158874 0.395860136
vt 0.982874572 0.397774398
vt 0.982260406 0.398573488
vt 0.982266009 0.982592106
vt 0.982884884 0.983412325
vt 0.982884884 0.983412325
vt 0.982266009 0.982592106
vt 0.847158253 0.982470453
vt 0.846538663 0.983170152
vt 0.846538663 0.983170152
vt 0.847158253 0.982470453
vt 0.847160459 0.398650378
vt 0.846544206 0.39792949
vt 0.710819423 0.679089785
vt 0.710819423 0.616578698
vt 0.773276508 0.616578698
vt 0.773276508 0.679089785
vt 0.773276508 0.679089785
vt 0.773276508 0.616578698
vt 0.835734308 0.616578698
vt 0.835734308 0.679089785
vt 0.693683803 0.627754211
vt 0.693683803 0.636506557
vt 0.684923947 0.636506557
vt 0.684923947 0.627754211
vt 0.684923947 0.636506557
vt 0.693683803 0.636506557
vt 0.693683803 0.645258904
vt 0.684923947 0.645258904
vt 0.67617172 0.645258904
vt 0.676171601 0.636506557
vt 0.684923947 0.636506557
vt 0.684923947 0.645258904
vt 0.70243603 0.627754211
vt 0.702436268 0.636506557
vt 0.693683803 0.636506557
vt 0.693683803 0.627754211
vn 0.382684767 0 0.923879027
vn 0.382684767 0 0.923879027
vn 0.382684767 0 0.923879027
vn -0.923862338 0 0.382724851
vn -0.923862338 0 0.382724851
vn -0.923862338 0 0.382724851
vn -0.707114875 0 0.707098603
vn -0.707114875 0 0.707098603
vn -0.707114875 0 0.707098603
vn -0.707114875 0 0.707098603
vn -0 0 1
vn -0 0 1
vn -0 0 1
vn -0 0 1
vn -0 0 1
vn -0 0 1
vn -0 0 1
vn -1 0 0
vn -1 0 0
vn -1 0 0
vn -1 0 0
vn -0.923875272 0 0.382693827
vn -0.923875272 0 0.382693827
vn -0.923875272 0 0.382693827
vn -0.923875272 0 0.382693827
vn -0.923875272 0 0.382693827
vn -0.923875272 0 0.382693827
vn -0.923875272 0 0.382693827
vn -0.923875272 0 0.382693827
vn -0.923875272 0 -0.382693827
vn -0.923875272 0 -0.382693827
vn -0.923875272 0 -0.382693827
vn -0.923875272 0 -0.382693827
vn 0.382732928 0 -0.92385906
vn 0.382732928 0 -0.92385906
vn 0.382732928 0 -0.92385906
vn 0.382732928 0 -0.92385906
vn -1 0 0
vn -1 0 0
vn -1 0 0
vn -1 0 0
vn 0.382675081 0 0.923882961
vn 0.382675081 0 0.923882961
vn 0.382675081 0 0.923882961
vn 0.382675081 0 0.923882961
vn -0.923868835 0 0.382709384
vn -0.923868835 0 0.382709384
vn -0.923868835 0 0.382709384
vn -0.923868835 0 0.382709384
vn 0.382691234 0 -0.923876345
vn 0.382691234 0 -0.923876345
vn 0.382691234 0 -0.923876345
vn 0.382691234 0 -0.923876345
vn -1 0 0
vn -1 0 0
vn -1 0 0
vn -1 0 0
vn -1 0 0
vn -1 0 0
vn -1 0 0
vn -1 0 0
vn -0.923875272 0 -0.382693827
vn -0.923875272 0 -0.382693827
vn -0.923875272 0 -0.382693827
vn -0.923875272 0 -0.382693827
vn -0.382691234 0 -0.923876345
vn -0.382691234 0 -0.923876345
vn -0.382691234 0 -0.923876345
vn -0.382691234 0 -0.923876345
vn 0.382673949 0 -0.923883498
vn 0.382673949 0 -0.923883498
vn 0.382673949 0 -0.923883498
vn 0.382673949 0 -0.923883498
vn 0.923868835 0 -0.382709384
vn 0.923868835 0 -0.382709384
vn 0.923868835 0 -0.382709384
vn 0.923868835 0 -0.382709384
vn 0.382667512 0 -0.92388612
vn 0.382667512 0 -0.92388612
vn 0.382667512 0 -0.92388612
vn 0.382667512 0 -0.92388612
vn -0.382714689 0 -0.92386657
vn -0.382714689 0 -0.92386657
vn -0.382714689 0 -0.92386657
vn -0.382714689 0 -0.92386657
vn -0.382744461 0 -0.923854172
vn -0.382744461 0 -0.923854172
vn -0.382744461 0 -0.923854172
vn -0.382744461 0 -0.923854172
vn -0.923875272 0 -0.382693827
vn -0.923875272 0 -0.382693827
vn -0.923875272 0 -0.382693827
vn -0.923875272 0 -0.382693827
vn -0.382718801 0 -0.923864841
vn -0.382718801 0 -0.923864841
vn -0.382718801 0 -0.923864841
vn -0.382718801 0 -0.923864841
vn 0.382702678 0 -0.923871577
vn 0.382702678 0 -0.923871577
vn 0.382702678 0 -0.923871577
vn 0.382702678 0 -0.923871577
vn -0.382736385 0 -0.923857629
vn -0.382736385 0 -0.923857629
vn -0.382736385 0 -0.923857629
vn -0.382736385 0 -0.923857629
vn 0.382707953 0 -0.923869371
vn 0.382707953 0 -0.923869371
vn 0.382707953 0 -0.923869371
vn 0.382707953 0 -0.923869371
vn 0.382712454 0 -0.923867524
vn 0.382712454 0 -0.923867524
vn 0.382712454 0 -0.923867524
vn 0.382712454 0 -0.923867524
vn 0.382748336 0 -0.923852682
vn 0.382748336 0 -0.923852682
vn 0.382748336 0 -0.923852682
vn 0.382748336 0 -0.923852682
vn -0.382753432 0 -0.923850536
vn -0.382753432 0 -0.923850536
vn -0.382753432 0 -0.923850536
vn -0.382753432 0 -0.923850536
vn 0.382724822 0 -0.923862398
vn 0.382724822 0 -0.923862398
vn 0.382724822 0 -0.923862398
vn 0.382724822 0 -0.923862398
vn -0.382761896 0 -0.92384696
vn -0.382761896 0 -0.92384696
vn -0.382761896 0 -0.92384696
vn -0.382761896 0 -0.92384696
vn -0.382772028 0 -0.923842788
vn -0.382772028 0 -0.923842788
vn -0.382772028 0 -0.923842788
vn -0.382772028 0 -0.923842788
vn 0.382739842 0 -0.923856139
vn 0.382739842 0 -0.923856139
vn 0.382739842 0 -0.923856139
vn 0.382739842 0 -0.923856139
vn -0.382735878 0 -0.923857868
vn -0.382735878 0 -0.923857868
vn -0.382735878 0 -0.923857868
vn -0.382735878 0 -0.923857868
vn -0.382736921 0 -0.923857331
vn -0.382736921 0 -0.923857331
vn -0.382736921 0 -0.923857331
vn -0.382736921 0 -0.923857331
vn -0.382797509 0 -0.923832178
vn -0.382797509 0 -0.923832178
vn -0.382797509 0 -0.923832178
vn -0.382797509 0 -0.923832178
vn 0.382711083 0 -0.923868001
vn 0.382711083 0 -0.923868001
vn 0.382711083 0 -0.923868001
vn 0.382711083 0 -0.923868001
vn 0.382765323 0 -0.923845649
vn 0.382765323 0 -0.923845649
vn 0.382765323 0 -0.923845649
vn 0.382765323 0 -0.923845649
vn -0 0 -1
vn -0 0 -1
vn -0 0 -1
vn -0 0 -1
vn -0.382700741 0 -0.923872411
vn -0.382700741 0 -0.923872411
vn -0.382700741 0 -0.923872411
vn -0.382700741 0 -0.923872411
vn 0.382687718 0 -0.923877716
vn 0.382687718 0 -0.923877716
vn 0.382687718 0 -0.923877716
vn 0.382687718 0 -0.923877716
vn -0 0 -1
vn -0 0 -1
vn -0 0 -1
vn -0 0 -1
vn -0 0 -1
vn -0 0 -1
vn -0 0 -1
vn -0 0 -1
vn -0 0 -1
vn -0 0 -1
vn -0 0 -1
vn -0 0 -1
vn -0 0 -1
vn -0 0 -1
vn -0 0 -1
vn -0 0 -1
vn -0 0 -1
vn -0 0 -1
vn -0 0 -1
vn -0 0 -1
vn -0 0 -1
vn -0 0 -1
vn -0 0 -1
vn -0 0 -1
vn -0 0 -1
vn -0 0 -1
vn -0 0 -1
vn -0 0 -1
vn -0 0 -1
vn -0 0 -1
vn -0 0 -1
vn -0 0 -1
vn -0 0 -1
vn -0 0 -1
vn -0 0 -1
vn -0 0 -1
vn -0 0 -1
vn -0 0 -1
vn -0 0 -1
vn -0 0 -1
vn -0 0 -1
vn -0 0 -1
vn -0 0 -1
vn -0 0 -1
vn -0.382684737 0 -0.923878908
vn -0.382684737 0 -0.923878908
vn -0.382684737 0 -0.923878908
vn -0.382684737 0 -0.923878908
vn 0.382767349 0 -0.923844695
vn 0.382767349 0 -0.923844695
vn 0.382767349 0 -0.923844695
vn 0.382767349 0 -0.923844695
vn -0 0 -1
vn -0 0 -1
vn -0 0 -1
vn -0 0 -1
vn -0.382693291 0 -0.923875451
vn -0.382693291 0 -0.923875451
vn -0.382693291 0 -0.923875451
vn -0.382693291 0 -0.923875451
vn 0.923868835 0 -0.382709384
vn 0.923868835 0 -0.382709384
vn 0.923868835 0 -0.382709384
vn 0.923868835 0 -0.382709384
vn 0.923868835 0 0.382709384
vn 0.923868835 0 0.382709384
vn 0.923868835 0 0.382709384
vn 0.923868835 0 0.382709384
vn 0.923868954 0 -0.382708907
vn 0.923868954 0 -0.382708907
vn 0.923868954 0 -0.382708907
vn 0.923868954 0 -0.382708907
vn 0.923868835 0 0.382709384
vn 0.923868835 0 0.382709384
vn 0.923868835 0 0.382709384
vn 0.923868835 0 0.382709384
vn 0.923869133 0 -0.38270846
vn 0.923869133 0 -0.38270846
vn 0.923869133 0 -0.38270846
vn 0.923869133 0 -0.38270846
vn 0.923868001 0 0.382711112
vn 0.923868001 0 0.382711112
vn 0.923868001 0 0.382711112
vn 0.923868001 0 0.382711112
vn 1 0 0
vn 1 0 0
vn 1 0 0
vn 1 0 0
vn 1 0 0
vn 1 0 0
vn 1 0 0
vn 1 0 0
vn 0.382684737 0 0.923878908
vn 0.382684737 0 0.923878908
vn 0.382684737 0 0.923878908
vn 0.382684737 0 0.923878908
vn 0.382671863 0 0.923884273
vn 0.382671863 0 0.923884273
vn 0.382671863 0 0.923884273
vn 0.382671863 0 0.923884273
vn -0 0 1
vn -0 0 1
vn -0 0 1
vn -0 0 1
vn -0.382689178 0 0.92387706
vn -0.382689178 0 0.92387706
vn -0.382689178 0 0.92387706
vn -0.382689178 0 0.92387706
vn -0.382675081 0 0.923882961
vn -0.382675081 0 0.923882961
vn -0.382675081 0 0.923882961
vn -0.382675081 0 0.923882961
vn -0.382681549 0 0.923880339
vn -0.382681549 0 0.923880339
vn -0.382681549 0 0.923880339
vn -0.382681549 0 0.923880339
vn 0.38267833 0 0.92388165
vn 0.38267833 0 0.92388165
vn 0.38267833 0 0.92388165
vn 0.38267833 0 0.92388165
vn -0.382681549 0 0.923880339
vn -0.382681549 0 0.923880339
vn -0.382681549 0 0.923880339
vn -0.382681549 0 0.923880339
vn -0 0 1
vn -0 0 1
vn -0 0 1
vn -0 0 1
vn -0 0 1
vn -0 0 1
vn -0 0 1
vn -0 0 1
vn 1 0 0
vn 1 0 0
vn 1 0 0
vn 1 0 0
vn 0.382691234 0 0.923876345
vn 0.382691234 0 0.923876345
vn 0.382691234 0 0.923876345
vn 0.382691234 0 0.923876345
vn -0.382691234 0 0.923876345
vn -0.382691234 0 0.923876345
vn -0.382691234 0 0.923876345
vn -0.382691234 0 0.923876345
vn -0 0 1
vn -0 0 1
vn -0 0 1
vn -0 0 1
vn -0 0 1
vn -0 0 1
vn -0 0 1
vn -0 0 1
vn -0 0 1
vn -0 0 1
vn 0.382660985 0 0.923888803
vn 0.382660985 0 0.923888803
vn 0.382660985 0 0.923888803
vn 0.382660985 0 0.923888803
vn 0.382689625 0 0.923877001
vn 0.382689625 0 0.923877001
vn 0.382689625 0 0.923877001
vn 0.382689625 0 0.923877001
vn -0 0 1
vn -0 0 1
vn -0 0 1
vn -0 0 1
vn -0.382689625 0 0.923877001
vn -0.382689625 0 0.923877001
vn -0.382689625 0 0.923877001
vn -0.382689625 0 0.923877001
vn -0.382687986 0 0.923877597
vn -0.382687986 0 0.923877597
vn -0.382687986 0 0.923877597
vn -0.382687986 0 0.923877597
vn 0.382675081 0 0.923882961
vn 0.382675081 0 0.923882961
vn 0.382675081 0 0.923882961
vn 0.382675081 0 0.923882961
vn 0.382668644 0 0.923885643
vn 0.382668644 0 0.923885643
vn 0.382668644 0 0.923885643
vn 0.382668644 0 0.923885643
vn -0 0 1
vn -0 0 1
vn -0 0 1
vn -0 0 1
vn 0.382675081 0 0.923882961
vn 0.382675081 0 0.923882961
vn 0.382675081 0 0.923882961
vn 0.382675081 0 0.923882961
vn 0.382671863 0 0.923884273
vn 0.382671863 0 0.923884273
vn 0.382671863 0 0.923884273
vn 0.382671863 0 0.923884273
vn -0.382684737 0 0.923878908
vn -0.382684737 0 0.923878908
vn -0.382684737 0 0.923878908
vn -0.382684737 0 0.923878908
vn -0.382684737 0 0.923878908
vn -0.382684737 0 0.923878908
vn -0.382684737 0 0.923878908
vn -0.382684737 0 0.923878908
vn -0.923875272 0 -0.382693827
vn -0.923875272 0 -0.382693827
vn -0.923875272 0 -0.382693827
vn -0.923875272 0 -0.382693827
vn -0 0 1
vn -0 0 1
vn -0 0 1
vn -0 0 1
vn -0.382687986 0 0.923877597
vn -0.382687986 0 0.923877597
vn -0.382687986 0 0.923877597
vn -0.382687986 0 0.923877597
vn -0 0 1
vn -0 0 1
vn -0 0 1
vn -0 0 1
vn -0.382687986 0 0.923877597
vn -0.382687986 0 0.923877597
vn -0.382687986 0 0.923877597
vn -0.382687986 0 0.923877597
vn -0 0 1
vn -0 0 1
vn -0 0 1
vn -0 0 1
vn 0.382667065 0 0.92388624
vn 0.382667065 0 0.92388624
vn 0.382667065 0 0.92388624
vn 0.382667065 0 0.92388624
vn -0 0 1
vn -0 0 1
vn -0 0 1
vn -0 0 1
vn -0 0 1
vn -0 0 1
vn -0 0 1
vn -0 0 1
vn -0 0 1
vn -0 0 1
vn -0 0 1
vn -0 0 1
vn -0 0 -1
vn -0 0 -1
vn -0 0 -1
vn -0 0 -1
vn -0 1 0
vn -0 1 0
vn -0 1 0
vn -0 1 0
vn -1 0 0
vn -1 0 0
vn -1 0 0
vn -1 0 0
vn -0.382681549 0 0.923880339
vn -0.382681549 0 0.923880339
vn -0.382681549 0 0.923880339
vn -0.382681549 0 0.923880339
vn 0.38267833 0 0.92388165
vn 0.38267833 0 0.92388165
vn 0.38267833 0 0.92388165
vn 0.38267833 0 0.92388165
vn 0.923868835 0 0.382709384
vn 0.923868835 0 0.382709384
vn 0.923868835 0 0.382709384
vn 0.923868835 0 0.382709384
vn -0.382681549 0 0.923880339
vn -0.382681549 0 0.923880339
vn -0.382681549 0 0.923880339
vn -0.382681549 0 0.923880339
vn -0 0 -1
vn -0 0 -1
vn -0 0 -1
vn -0 0 -1
vn -0 0 -1
vn -0 0 -1
vn -0 1 0
vn -0 1 0
vn -0 1 0
vn -0 1 0
vn -0 1 0
vn -0 1 0
vn -0 1 0
vn -0 1 0
vn -0 1 0
vn -0 1 0
vn -0 1 0
vn -0 1 0
vn -0 1 0
vn -0 -1 0
vn -0 -1 0
vn -0 -1 0
vn -0 -1 0
vn -0 -1 0
vn -0 -1 0
vn -0 -1 0
vn -0 -1 0
vn 1 0 0
vn 1 0 0
vn 1 0 0
vn 1 0 0
vn 1 0 0
vn 1 0 0
vn 1 0 0
vn 1 0 0
vn 1 0 0
vn 1 0 0
vn -1 0 0
vn -1 0 0
vn -1 0 0
vn -1 0 0
vn -0 -1 0
vn -0 -1 0
vn -0 -1 0
vn -0 -1 0
vn -0 1 0
vn -0 1 0
vn -0 1 0
vn -0 1 0
vn -0 0 1
vn -0 0 1
vn -0 0 1
vn -0 0 1
vn -0 -1 0
vn -0 -1 0
vn -0 -1 0
vn -0 -1 0
vn -0 -1 0
vn -0 -1 0
vn -0 -1 0
vn -0 -1 0
vn -0 0 -1
vn -0 0 -1
vn -0 0 -1
vn -0 0 -1
vn -1 0 0
vn -1 0 0
vn -1 0 0
vn -1 0 0
vn -0 0 1
vn -0 0 1
vn -0 0 1
vn -0 0 1
vn 1 0 0
vn 1 0 0
vn 1 0 0
vn 1 0 0
vn -0 0 1
vn -0 0 1
vn -0 0 1
vn -0 0 1
vn -1 0 0
vn -1 0 0
vn -1 0 0
vn -1 0 0
vn -0 0 -1
vn -0 0 -1
vn -0 0 -1
vn -0 0 -1
vn -0 1 0
vn -0 1 0
vn -0 1 0
vn -0 1 0
vn -0 -1 0
vn -0 -1 0
vn -0 -1 0
vn -0 -1 0
g U12_LP_0
f 3/3/3 2/2/2 1/1/1
f 6/6/6 5/5/5 4/4/4
f 9/9/9 8/8/8 7/7/7
f 10/10/10 9/9/9 7/7/7
f 13/13/13 12/12/12 11/11/11
f 14/14/14 13/13/13 11/11/11
f 13/13/13 16/16/16 15/15/15
f 17/17/17 13/13/13 15/15/15
f 20/20/20 19/19/19 18/18/18
f 21/21/21 20/20/20 18/18/18
f 24/24/24 23/23/23 22/22/22
f 25/25/25 24/24/24 22/22/22
f 28/28/28 27/27/27 26/26/26
f 29/29/29 28/28/28 26/26/26
f 32/32/32 31/31/31 30/30/30
f 33/33/33 32/32/32 30/30/30
f 36/36/36 35/35/35 34/34/34
f 37/37/37 36/36/36 34/34/34
f 40/40/40 39/39/39 38/38/38
f 41/41/41 40/40/40 38/38/38
f 44/44/44 43/43/43 42/42/42
f 45/45/45 44/44/44 42/42/42
f 48/48/48 47/47/47 46/46/46
f 49/49/49 48/48/48 46/46/46
f 52/52/52 51/51/51 50/50/50
f 53/53/53 52/52/52 50/50/50
f 56/56/56 55/55/55 54/54/54
f 57/57/57 54/54/54 55/55/55
f 55/55/55 58/58/58 57/57/57
f 58/58/58 59/59/59 57/57/57
f 58/58/58 60/60/60 59/59/59
f 58/58/58 61/61/61 60/60/60
f 64/64/64 63/63/63 62/62/62
f 65/65/65 64/64/64 62/62/62
f 68/68/68 67/67/67 66/66/66
f 69/69/69 68/68/68 66/66/66
f 72/72/72 71/71/71 70/70/70
f 73/73/73 72/72/72 70/70/70
f 76/76/76 75/75/75 74/74/74
f 77/77/77 76/76/76 74/74/74
f 80/80/80 79/79/79 78/78/78
f 81/81/81 80/80/80 78/78/78
f 84/84/84 83/83/83 82/82/82
f 85/85/85 84/84/84 82/82/82
f 88/88/88 87/87/87 86/86/86
f 89/89/89 88/88/88 86/86/86
f 92/92/92 91/91/91 90/90/90
f 93/93/93 92/92/92 90/90/90
f 96/96/96 95/95/95 94/94/94
f 97/97/97 96/96/96 94/94/94
f 100/100/100 99/99/99 98/98/98
f 101/101/101 100/100/100 98/98/98
f 104/104/104 103/103/103 102/102/102
f 105/105/105 104/104/104 102/102/102
f 108/108/108 107/107/107 106/106/106
f 109/109/109 108/108/108 106/106/106
f 112/112/112 111/111/111 110/110/110
f 113/113/113 112/112/112 110/110/110
f 116/116/116 115/115/115 114/114/114
f 117/117/117 116/116/116 114/114/114
f 120/120/120 119/119/119 118/118/118
f 121/121/121 120/120/120 118/118/118
f 124/124/124 123/123/123 122/122/122
f 125/125/125 124/124/124 122/122/122
f 128/128/128 127/127/127 126/126/126
f 129/129/129 128/128/128 126/126/126
f 132/132/132 131/131/131 130/130/130
f 133/133/133 132/132/132 130/130/130
f 136/136/136 135/135/135 134/134/134
f 137/137/137 136/136/136 134/134/134
f 140/140/140 139/139/139 138/138/138
f 141/141/141 140/140/140 138/138/138
f 144/144/144 143/143/143 142/142/142
f 145/145/145 144/144/144 142/142/142
f 148/148/148 147/147/147 146/146/146
f 149/149/149 148/148/148 146/146/146
f 152/152/152 151/151/151 150/150/150
f 153/153/153 152/152/152 150/150/150
f 156/156/156 155/155/155 154/154/154
f 157/157/157 156/156/156 154/154/154
f 160/160/160 159/159/159 158/158/158
f 161/161/161 160/160/160 158/158/158
f 164/164/164 163/163/163 162/162/162
f 165/165/165 164/164/164 162/162/162
f 168/168/168 167/167/167 166/166/166
f 169/169/169 168/168/168 166/166/166
f 172/172/172 171/171/171 170/170/170
f 173/173/173 172/172/172 170/170/170
f 176/176/176 175/175/175 174/174/174
f 177/177/177 176/176/176 174/174/174
f 180/180/180 179/179/179 178/178/178
f 181/181/181 180/180/180 178/178/178
f 184/184/184 183/183/183 182/182/182
f 185/185/185 184/184/184 182/182/182
f 188/188/188 187/187/187 186/186/186
f 189/189/189 188/188/188 186/186/186
f 192/192/192 191/191/191 190/190/190
f 193/193/193 192/192/192 190/190/190
f 196/196/196 195/195/195 194/194/194
f 197/197/197 196/196/196 194/194/194
f 200/200/200 199/199/199 198/198/198
f 201/201/201 200/200/200 198/198/198
f 204/204/204 203/203/203 202/202/202
f 205/205/205 204/204/204 202/202/202
f 208/208/208 207/207/207 206/206/206
f 209/209/209 208/208/208 206/206/206
f 212/212/212 211/211/211 210/210/210
f 213/213/213 212/212/212 210/210/210
f 216/216/216 215/215/215 214/214/214
f 217/217/217 216/216/216 214/214/214
f 220/220/220 219/219/219 218/218/218
f 221/221/221 220/220/220 218/218/218
f 224/224/224 223/223/223 222/222/222
f 225/225/225 224/224/224 222/222/222
f 228/228/228 227/227/227 226/226/226
f 229/229/229 228/228/228 226/226/226
f 232/232/232 231/231/231 230/230/230
f 233/233/233 232/232/232 230/230/230
f 236/236/236 235/235/235 234/234/234
f 237/237/237 236/236/236 234/234/234
f 240/240/240 239/239/239 238/238/238
f 241/241/241 240/240/240 238/238/238
f 244/244/244 243/243/243 242/242/242
f 245/245/245 244/244/244 242/242/242
f 248/248/248 247/247/247 246/246/246
f 249/249/249 248/248/248 246/246/246
f 252/252/252 251/251/251 250/250/250
f 253/253/253 252/252/252 250/250/250
f 256/256/256 255/255/255 254/254/254
f 257/257/257 256/256/256 254/254/254
f 260/260/260 259/259/259 258/258/258
f 261/261/261 260/260/260 258/258/258
f 264/264/264 263/263/263 262/262/262
f 265/265/265 264/264/264 262/262/262
f 268/268/268 267/267/267 266/266/266
f 269/269/269 268/268/268 266/266/266
f 272/272/272 271/271/271 270/270/270
f 273/273/273 272/272/272 270/270/270
f 276/276/276 275/275/275 274/274/274
f 277/277/277 276/276/276 274/274/274
f 280/280/280 279/279/279 278/278/278
f 281/281/281 280/280/280 278/278/278
f 284/284/284 283/283/283 282/282/282
f 285/285/285 284/284/284 282/282/282
f 288/288/288 287/287/287 286/286/286
f 289/289/289 288/288/288 286/286/286
f 292/292/292 291/291/291 290/290/290
f 293/293/293 292/292/292 290/290/290
f 296/296/296 295/295/295 294/294/294
f 297/297/297 296/296/296 294/294/294
f 300/300/300 299/299/299 298/298/298
f 301/301/301 300/300/300 298/298/298
f 304/304/304 303/303/303 302/302/302
f 305/305/305 304/304/304 302/302/302
f 308/308/308 307/307/307 306/306/306
f 309/309/309 308/308/308 306/306/306
f 312/312/312 311/311/311 310/310/310
f 313/313/313 312/312/312 310/310/310
f 316/316/316 315/315/315 314/314/314
f 317/317/317 316/316/316 314/314/314
f 320/320/320 319/319/319 318/318/318
f 318/318/318 321/321/321 320/320/320
f 318/318/318 322/322/322 321/321/321
f 318/318/318 323/323/323 322/322/322
f 326/326/326 325/325/325 324/324/324
f 327/327/327 326/326/326 324/324/324
f 330/330/330 329/329/329 328/328/328
f 331/331/331 330/330/330 328/328/328
f 334/334/334 333/333/333 332/332/332
f 335/335/335 334/334/334 332/332/332
f 338/338/338 337/337/337 336/336/336
f 339/339/339 338/338/338 336/336/336
f 342/342/342 341/341/341 340/340/340
f 343/343/343 342/342/342 340/340/340
f 346/346/346 345/345/345 344/344/344
f 347/347/347 346/346/346 344/344/344
f 350/350/350 349/349/349 348/348/348
f 351/351/351 350/350/350 348/348/348
f 354/354/354 353/353/353 352/352/352
f 355/355/355 354/354/354 352/352/352
f 358/358/358 357/357/357 356/356/356
f 359/359/359 358/358/358 356/356/356
f 362/362/362 361/361/361 360/360/360
f 363/363/363 362/362/362 360/360/360
f 366/366/366 365/365/365 364/364/364
f 367/367/367 366/366/366 364/364/364
f 370/370/370 369/369/369 368/368/368
f 371/371/371 370/370/370 368/368/368
f 374/374/374 373/373/373 372/372/372
f 375/375/375 374/374/374 372/372/372
f 378/378/378 377/377/377 376/376/376
f 379/379/379 378/378/378 376/376/376
f 382/382/382 381/381/381 380/380/380
f 383/383/383 382/382/382 380/380/380
f 386/386/386 385/385/385 384/384/384
f 387/387/387 386/386/386 384/384/384
f 390/390/390 389/389/389 388/388/388
f 391/391/391 390/390/390 388/388/388
f 394/394/394 393/393/393 392/392/392
f 395/395/395 394/394/394 392/392/392
f 398/398/398 397/397/397 396/396/396
f 399/399/399 398/398/398 396/396/396
f 402/402/402 401/401/401 400/400/400
f 403/403/403 402/402/402 400/400/400
f 406/406/406 405/405/405 404/404/404
f 407/407/407 406/406/406 404/404/404
f 410/410/410 409/409/409 408/408/408
f 411/411/411 410/410/410 408/408/408
f 414/414/414 413/413/413 412/412/412
f 415/415/415 414/414/414 412/412/412
f 418/418/418 417/417/417 416/416/416
f 419/419/419 418/418/418 416/416/416
f 422/422/422 421/421/421 420/420/420
f 423/423/423 422/422/422 420/420/420
f 426/426/426 425/425/425 424/424/424
f 427/427/427 426/426/426 424/424/424
f 430/430/430 429/429/429 428/428/428
f 431/431/431 430/430/430 428/428/428
f 434/434/434 433/433/433 432/432/432
f 435/435/435 434/434/434 432/432/432
f 438/438/438 437/437/437 436/436/436
f 439/439/439 438/438/438 436/436/436
f 442/442/442 441/441/441 440/440/440
f 441/441/441 443/443/443 440/440/440
f 440/440/440 443/443/443 444/444/444
f 443/443/443 445/445/445 444/444/444
f 448/448/448 447/447/447 446/446/446
f 447/447/447 449/449/449 446/446/446
f 449/449/449 447/447/447 450/450/450
f 447/447/447 451/451/451 450/450/450
f 450/450/450 451/451/451 452/452/452
f 453/453/453 450/450/450 452/452/452
f 454/454/454 453/453/453 452/452/452
f 455/455/455 454/454/454 452/452/452
f 457/457/457 456/456/456 455/455/455
f 458/458/458 457/457/457 455/455/455
f 461/461/461 460/460/460 459/459/459
f 462/462/462 461/461/461 459/459/459
f 465/465/465 464/464/464 463/463/463
f 466/466/466 465/465/465 463/463/463
f 469/469/469 468/468/468 467/467/467
f 470/470/470 469/469/469 467/467/467
f 473/473/473 472/472/472 471/471/471
f 474/474/474 473/473/473 471/471/471
f 475/475/475 473/473/473 474/474/474
f 476/476/476 475/475/475 474/474/474
f 479/479/479 478/478/478 477/477/477
f 480/480/480 479/479/479 477/477/477
f 483/483/483 482/482/482 481/481/481
f 484/484/484 483/483/483 481/481/481
f 487/487/487 486/486/486 485/485/485
f 488/488/488 487/487/487 485/485/485
f 491/491/491 490/490/490 489/489/489
f 492/492/492 491/491/491 489/489/489
f 495/495/495 494/494/494 493/493/493
f 496/496/496 495/495/495 493/493/493
f 499/499/499 498/498/498 497/497/497
f 500/500/500 499/499/499 497/497/497
f 503/503/503 502/502/502 501/501/501
f 504/504/504 503/503/503 501/501/501
f 507/507/507 506/506/506 505/505/505
f 508/508/508 507/507/507 505/505/505
f 511/511/511 510/510/510 509/509/509
f 512/512/512 511/511/511 509/509/509
f 515/515/515 514/514/514 513/513/513
f 516/516/516 515/515/515 513/513/513
f 519/519/519 518/518/518 517/517/517
f 520/520/520 519/519/519 517/517/517
f 523/523/523 522/522/522 521/521/521
f 524/524/524 523/523/523 521/521/521
f 527/527/527 526/526/526 525/525/525
f 528/528/528 527/527/527 525/525/525
f 531/531/531 530/530/530 529/529/529
f 532/532/532 531/531/531 529/529/529
f 535/535/535 534/534/534 533/533/533
f 536/536/536 535/535/535 533/533/533
